<?xml version="1.0" encoding="UTF-8"?>
<svg id="uuid-e383fdb8-c15a-4a52-98b8-8b210c475d16" data-name="Ebene 1" xmlns="http://www.w3.org/2000/svg" viewBox="0 0 779 206.37">
  <path d="M779,0v206.37H0V0h779ZM136.82,5.48h-31.46c.11,16.7-.13,33.41-.02,50.12.18,26.44-.55,54.46.5,80.75.49,12.22,1.96,24.46,9.31,34.57,5.29,7.27,13.91,14.49,21.67,19V5.48ZM518.73,5.63c-52.06,5-53.75,86.61-3.63,90.57,33.71,2.66,55.15-19.05,52.67-52.57-2-26.98-23.18-40.48-49.03-37.99ZM307.11,95.71h17.73l6.79-17.4,37.46.25,6.69,17.15h19.72L361.81,6.45l-21.5.53-33.21,88.73ZM404.48,6.98v88.23c19.14-.73,49.84,5.69,62.13-13.5,7.84-12.25,3.72-30.4-11.69-33.36,1.61-1.74,4.01-2.31,5.95-3.78,7.37-5.58,9.87-15.48,6.77-24.12-6.35-17.71-37.62-13.98-52.4-13.45-3.57.13-7.19-.14-10.76-.02ZM146.81,158.51v36.14c40.48,17.7,88.62-4.43,103.38-45.35,20.31-56.33-25.87-112.7-85.07-104.85-6.28.83-12.39,2.76-18.31,4.9v36.39c33.33-25.83,81.67.81,75.84,43.05-4.95,35.87-47.66,52.23-75.84,29.72ZM2.5,199.39h40.2l52.68-70.04v-50.59L2.5,199.39ZM689.12,194.9v-42.37h-17.73l-.75.75v28.91c-7.79,2.88-18.3,2.96-25.96-.51-15.59-7.06-18.24-29.31-10.75-43.12,9.69-17.87,34.08-15.64,50.19-8.96l2.94-16.39c-19.43-5.58-42.69-6.9-59.6,5.93-22.51,17.08-24.11,58.34.58,74.17,12.95,8.3,29.99,8.41,44.69,5.92,5.6-.95,11-2.61,16.39-4.33ZM578.01,110.66h-36.45l-.75.75v87.23l.75.75h17.48l.75-.75v-35.64l25.47,36.39h22.97l-28.46-38.64c-.16-1.1.15-.59.75-.73,9.9-2.32,18.7-6.65,21.73-17.19,5.22-18.11-6.69-30.48-24.23-32.17ZM359.04,111.16h-52.43v87.48l.75.75h50.93l.75-.75v-14.21h-33.96v-23.43h31.96v-13.96h-31.96v-21.43h33.96v-14.46ZM399.74,111.16h-24.72v87.48l.75.75h16.98l-.24-63.8c1.64,1.02,1.87,3.37,2.72,5.01,1.55,2.99,3.34,6,5.06,8.91,10.01,16.97,21.55,33.13,31.92,49.89h24.22v-88.23h-17.98l.25,62.81c-11.84-21.6-25.8-41.99-38.95-62.81ZM525.33,111.16h-52.43v87.48l.75.75h51.68v-14.21l-.75-.75h-32.71v-23.43h31.96v-13.96h-31.96v-21.43h33.46v-14.46ZM716.58,111.16h-20.47l28.85,58.15-15.37,30.08h19.72l47.19-88.23h-20.47l-19.72,39.38-19.72-39.38Z" style="fill: none;"/>
  <path d="M146.81,158.51c28.17,22.51,70.89,6.14,75.84-29.72,5.83-42.24-42.5-68.88-75.84-43.05v-36.39c5.92-2.14,12.03-4.07,18.31-4.9,59.2-7.84,105.37,48.52,85.07,104.85-14.75,40.93-62.89,63.05-103.38,45.35v-36.14Z"/>
  <path d="M136.82,5.48v184.43c-7.76-4.5-16.38-11.73-21.67-19-7.35-10.1-8.83-22.35-9.31-34.57-1.05-26.29-.32-54.31-.5-80.75-.11-16.7.13-33.42.02-50.12h31.46Z"/>
  <path d="M399.74,111.16c13.15,20.82,27.11,41.22,38.95,62.81l-.25-62.81h17.98v88.23h-24.22c-10.37-16.76-21.91-32.92-31.92-49.89-1.72-2.91-3.5-5.91-5.06-8.91-.85-1.64-1.08-3.99-2.72-5.01l.24,63.8h-16.98l-.75-.75v-87.48h24.72Z"/>
  <path d="M518.73,5.63c25.86-2.48,47.04,11.01,49.03,37.99,2.48,33.53-18.95,55.23-52.67,52.57-50.12-3.95-48.43-85.57,3.63-90.57ZM520.22,21.57c-34.34,3.86-27.31,71.91,12.44,56.78,14.73-5.61,17.15-23.36,14.49-37.08-2.6-13.44-13.22-21.24-26.93-19.7Z"/>
  <path d="M404.48,6.98c3.57-.12,7.18.15,10.76.02,14.78-.53,46.05-4.26,52.4,13.45,3.1,8.64.6,18.54-6.77,24.12-1.94,1.47-4.34,2.03-5.95,3.78,15.41,2.96,19.54,21.11,11.69,33.36-12.29,19.19-42.99,12.77-62.13,13.5V6.98ZM422.96,43.87h10.74c2.67,0,8.97-2.15,11.2-3.77,5.48-3.98,6.31-13.41.69-17.58-5.99-4.44-15.64-2.52-22.63-2.58v23.93ZM422.96,81.75c8.27.52,22.22,2,26.56-7.14,3.03-6.39,1.43-13.37-5.06-16.56-1.49-.73-6.31-2.22-7.76-2.22h-13.73v25.92Z"/>
  <path d="M578.01,110.66c17.54,1.68,29.45,14.06,24.23,32.17-3.04,10.54-11.83,14.88-21.73,17.19-.59.14-.9-.37-.75.73l28.46,38.64h-22.97l-25.47-36.39v35.64l-.75.75h-17.48l-.75-.75v-87.23l.75-.75h36.45ZM559.78,150.54h11.73c5.74,0,11.82-6.5,12.25-12.19,1.04-13.6-13.9-14.8-23.99-13.23v25.42Z"/>
  <polygon points="2.5 199.39 95.38 78.76 95.38 129.35 42.7 199.39 2.5 199.39"/>
  <path d="M689.12,194.9c-5.39,1.72-10.79,3.38-16.39,4.33-14.7,2.49-31.74,2.38-44.69-5.92-24.69-15.83-23.1-57.09-.58-74.17,16.91-12.83,40.16-11.51,59.6-5.93l-2.94,16.39c-16.11-6.68-40.5-8.91-50.19,8.96-7.48,13.81-4.84,36.05,10.75,43.12,7.66,3.47,18.17,3.39,25.96.51v-28.91l.75-.75h17.73v42.37Z"/>
  <path d="M307.11,95.71L340.31,6.98l21.5-.53,33.68,89.26h-19.72l-6.69-17.15-37.46-.25-6.79,17.4h-17.73ZM364.03,64.8l-13.73-38.39-13.73,38.39h27.46Z"/>
  <polygon points="525.33 111.16 525.33 125.62 491.87 125.62 491.87 147.05 523.83 147.05 523.83 161.01 491.87 161.01 491.87 184.43 524.58 184.43 525.33 185.18 525.33 199.39 473.64 199.39 472.89 198.64 472.89 111.16 525.33 111.16"/>
  <polygon points="359.04 111.16 359.04 125.62 325.08 125.62 325.08 147.05 357.04 147.05 357.04 161.01 325.08 161.01 325.08 184.43 359.04 184.43 359.04 198.64 358.29 199.39 307.36 199.39 306.61 198.64 306.61 111.16 359.04 111.16"/>
  <polygon points="716.58 111.16 736.3 150.54 756.03 111.16 776.5 111.16 729.31 199.39 709.59 199.39 724.96 169.31 696.11 111.16 716.58 111.16"/>
  <path d="M520.22,21.57c13.71-1.54,24.33,6.26,26.93,19.7,2.66,13.72.23,31.47-14.49,37.08-39.75,15.14-46.78-52.92-12.44-56.78Z" style="fill: none;"/>
  <path d="M422.96,81.75v-25.92h13.73c1.45,0,6.27,1.49,7.76,2.22,6.49,3.19,8.09,10.17,5.06,16.56-4.33,9.14-18.28,7.66-26.56,7.14Z" style="fill: none;"/>
  <path d="M422.96,43.87v-23.93c6.99.06,16.65-1.86,22.63,2.58,5.62,4.17,4.78,13.6-.69,17.58-2.23,1.62-8.53,3.77-11.2,3.77h-10.74Z" style="fill: none;"/>
  <path d="M559.78,150.54v-25.42c10.09-1.57,25.03-.36,23.99,13.23-.44,5.69-6.52,12.19-12.25,12.19h-11.73Z" style="fill: none;"/>
  <polygon points="364.03 64.8 336.57 64.8 350.3 26.41 364.03 64.8" style="fill: none;"/>
</svg>