<?xml version="1.0" encoding="UTF-8" standalone="no"?>
<svg
   width="100%"
   height="100%"
   viewBox="0 0 80 25"
   version="1.1"
   xmlns="http://www.w3.org/2000/svg">
  <!-- White background inside A-icon box -->
  <rect x="5.19" y="2.94" width="10.03" height="11.15"
        fill="#ffffff" fill-opacity="0.9"/>
  <!-- A icon: box outline + A letter shape (combined transform: g209→g235→g370→viewBox) -->
  <g transform="matrix(0.085162,0,0,0.085162,9.739,0.765)">
    <path
       fill="#000000"
       d="m -53.953125,15.692708 c -4.533541,0 -8.1875,3.65396 -8.1875,8.1875 V 154.81771 c 0,4.53354 3.653959,8.1875 8.1875,8.1875 h 119.03125 c 4.533541,0 8.1875,-3.65396 8.1875,-8.1875 V 23.880208 c 0,-4.53354 -3.653959,-8.1875 -8.1875,-8.1875 z m 7.0625,14.71875 H 58.015625 V 148.28646 h -104.90625 z"/>
    <path
       fill="#000000" stroke="#000000" stroke-width="1"
       d="M 1.578125,29.583333 -49.973958,147.94271 h 14.203125 L 3.15625,63.25 l 38.927083,83.11458 0.738068,1.67372 15.043182,-0.096 -0.23111,-0.77311 -1.873056,-3.96127 z"/>
    <path
       fill="#000000" stroke="#000000" stroke-width="1"
       d="m -18.9375,104.28125 h 47.869792 l 3.15625,13.15104 h -59.442709"/>
  </g>
  <!-- CADEMIS: completes "ACADEMIS" (the A-icon is the first letter) -->
  <text x="17" y="13.5"
        font-family="'Trebuchet MS', sans-serif"
        font-size="12"
        fill="#000000">CADEMIS</text>
  <!-- Subtitle -->
  <text x="4" y="22"
        font-family="'Trebuchet MS', sans-serif"
        font-size="5"
        font-weight="bold"
        fill="#000000">Dr. Kristian Rother</text>
</svg>
