<?xml version="1.0" encoding="UTF-8"?>
<svg id="AlephAlpha" xmlns="http://www.w3.org/2000/svg" viewBox="0 0 1085 435">
  <path d="M434.7339,217.873l-16.2705-36.541c19.4614-8.665,32.0366-28.0293,32.0366-49.332s-12.5747-40.667-32.0361-49.3315l16.2695-36.542c33.877,15.0835,55.7666,48.7905,55.7666,85.8735s-21.8896,70.7891-55.7661,85.873ZM528.1973,233.0537l-31.7354-24.3496c-6.6997,8.7324-14.5244,16.5566-23.2573,23.2578l24.3496,31.7344c11.5059-8.8281,21.8154-19.1377,30.6431-30.6426ZM666.5366,181.332c-19.4614-8.665-32.0366-28.0293-32.0366-49.332s12.5747-40.667,32.0361-49.3315l-16.2695-36.542c-33.877,15.0835-55.7666,48.7905-55.7666,85.8735s21.8896,70.7891,55.7661,85.873l16.2705-36.541ZM611.7959,32.0371L587.4453.3032c-11.5044,8.8281-21.814,19.1377-30.6421,30.6421l31.7339,24.3506c6.7012-8.7324,14.5264-16.5576,23.2588-23.2588ZM611.7959,231.9619c-41.9634-32.1992-45.4136-64.583-49.4082-102.0811-4.3418-40.7495-9.2627-86.9365-64.833-129.5776l-24.3506,31.7344c41.9634,32.1992,45.4136,64.5835,49.4082,102.0815,4.3418,40.75,9.2627,86.9365,64.833,129.5771l24.3506-31.7344Z" style="fill: #212526;"/>
  <path d="M44.1433,335L0,435h28.8572l7.7971-19.4286h42.4055l7.7971,19.4286h29.4285l-44.2849-100h-27.8573ZM45.0248,394.7141l12.8323-31.9753,12.8323,31.9753h-25.6647ZM152.5706,412.5714h47.7146v22.4286h-75.9996v-100h28.285v77.5714ZM239.4256,413.1426h52.2858v21.8574h-80.2857v-100h78.4293v21.8563h-50.4294v16.8574h44.4285v21.1439h-44.4285v18.285ZM376.7823,339.4277c-6.6201-2.9501-14.4999-4.4277-23.6425-4.4277h-45.7147v100h28.286v-26.1425h17.4286c9.1425,0,17.0223-1.5,23.6425-4.5,6.6181-3,11.7372-7.2617,15.3573-12.7861,3.6182-5.5224,5.4287-12.0473,5.4287-19.5717,0-7.6182-1.8105-14.2148-5.4287-19.7861-3.6201-5.5712-8.7392-9.8329-15.3573-12.7861ZM364.6398,382.7136c-2.9062,2.5718-7.3105,3.8579-13.2148,3.8579h-15.7138v-29.2865h15.7138c5.9042,0,10.3085,1.2861,13.2148,3.8574,2.9042,2.5712,4.3574,6.1923,4.3574,10.8574,0,4.5712-1.4531,8.1425-4.3574,10.7138ZM478.1403,335h28.2859v100h-28.2859v-38.9998h-38.5711v38.9998h-28.286v-100h28.286v37.5711h38.5711v-37.5711ZM594.4302,335l-44.1423,100h28.8572l7.7971-19.4286h42.4055l7.7971,19.4286h29.4285l-44.2859-100h-27.8572ZM595.3125,394.7141l12.8324-31.9753,12.8324,31.9753h-25.6648ZM702.8584,412.5714h47.7146v22.4286h-76.0007v-100h28.2861v77.5714ZM831.0706,339.4277c-6.6211-2.9501-14.5-4.4277-23.6434-4.4277h-45.7136v100h28.285v-26.1425h17.4286c9.1434,0,17.0223-1.5,23.6434-4.5,6.6182-3,11.7363-7.2617,15.3574-12.7861,3.6182-5.5224,5.4277-12.0473,5.4277-19.5717,0-7.6182-1.8096-14.2148-5.4277-19.7861-3.6211-5.5712-8.7393-9.8329-15.3574-12.7861ZM818.927,382.7136c-2.9061,2.5718-7.3094,3.8579-13.2137,3.8579h-15.7147v-29.2865h15.7147c5.9043,0,10.3076,1.2861,13.2137,3.8574,2.9043,2.5712,4.3574,6.1923,4.3574,10.8574,0,4.5712-1.4531,8.1425-4.3574,10.7138ZM932.4285,335h28.286v100h-28.286v-38.9998h-38.572v38.9998h-28.285v-100h28.285v37.5711h38.572v-37.5711ZM1055.5714,435h29.4286l-44.2859-100h-27.8573l-44.1425,100h28.8574l7.7971-19.4286h42.4054l7.7971,19.4286ZM1013.7393,394.7141l12.8323-31.9753,12.8323,31.9753h-25.6646Z" style="fill: #212526;"/>
</svg>