<?xml version="1.0" encoding="UTF-8"?>
<svg id="Ebene_1" xmlns="http://www.w3.org/2000/svg" version="1.1" viewBox="0 0 433.445 216.722">
  <!-- Generator: Adobe Illustrator 30.2.1, SVG Export Plug-In . SVG Version: 2.1.1 Build 1)  -->
  <path d="M177.83,105.606l8.47-.079,3.362-.22c1.016-.066,2.259-.442,3.105-.003,1.899.984,3.577,1.913,5.491,2.741,6.523,2.822,13.614,3.797,20.702,3.219,11.391-.93,21.835-6.474,29.078-14.925,17.212-20.082,12.575-50.734-9.717-64.826-7.447-4.708-16.54-7.234-25.545-6.671l-2.346.147c1.055-1.334,1.809-2.359,2.925-3.49l6.47-6.555c-3.576-3.876-7.821-6.929-12.093-10.217,3.327-.526,9.279-.522,12.189-.296,17.047,1.326,32.252,9.052,43.484,21.92,16.524,18.931,20.221,45.774,9.699,68.636-3.564,7.743-8.698,14.616-14.965,20.348-21.759,19.9-54.432,22.23-78.837,5.671l-1.002-7.966-.284-3.83-.185-3.603Z" fill="#3eaf49"/>
  <path d="M263.477,186.798c0,14.629-11.866,26.488-26.502,26.488s-26.502-11.859-26.502-26.488,11.866-26.488,26.502-26.488,26.502,11.859,26.502,26.488ZM253.7,186.806c0-9.231-7.488-16.715-16.724-16.715s-16.724,7.483-16.724,16.715,7.488,16.715,16.724,16.715,16.724-7.483,16.724-16.715Z" fill="#3eaf49"/>
  <path d="M373.995,189.667c-1.35,12.382-12.662,22.767-24.684,22.849l-18.138.124c-.533.004-1.66-.667-1.693-1.251l-.005-49.229c.067-.447,1.012-1.234,1.497-1.233l17.477.026c.693.001,1.533.14,2.225.206,11.948,1.143,21.81,10.526,23.227,22.454.23,1.932.063,3.916.095,6.055ZM358.269,173.999c-2.824-2.321-6.142-3.819-9.853-3.854l-9.314-.088v33.197s10.81-.004,10.81-.004c3.732-.607,7.145-2.246,9.625-5.038,6.093-6.859,5.52-18.31-1.269-24.213Z" fill="#3eaf49"/>
  <path d="M96.417,209.708l-2.465-2.703-2.408-2.645-2.406-2.646-2.407-2.646-2.409-2.643-2.642-2.893-2.41-2.642-2.407-2.646-2.405-2.647-2.401-2.645c-.97-1.068-1.867-2.076-2.973-3.076l-.021,31.534c0,.551-1.171,1.225-1.709,1.225l-6.232-.002c-.504,0-1.634-.649-1.669-1.247l.007-49.952c.127-1.101,1.733-1.249,2.476-1.295,1.045-.065,1.468.869,2.202,1.644l3.734,3.945,3.85,4.089,3.85,4.089,3.85,4.09,3.851,4.089,3.849,4.089,3.72,3.955c.764.812,1.441,1.569,2.293,2.338l.006-29.617c0-1.001.646-1.905,1.75-1.904l6.367.002c1.104,0,1.75.878,1.75,1.925l.003,48.281c0,1.449-.707,2.234-2.213,2.263-.725.014-1.318-.276-1.818-.838l-2.561-2.872Z" fill="#3eaf49"/>
  <path d="M308.383,160.923l6.181.006c.963,0,1.912.891,1.912,1.958l.007,47.784c0,.872-.172,1.463-.467,2.228-.949.385-2.053.712-3.004.291l-30.435-33.389-.03,30.893c-.001,1.125-.655,1.739-1.745,1.931l-5.994.02c-.629.002-1.573-.418-1.888-1.059v-50.612c.868-.788,2.615-1.248,3.403-.43l4.061,4.219,3.846,4.095,3.851,4.088,3.85,4.09,3.851,4.089,3.85,4.09,3.839,4.089c1.033,1.1,2.003,2.12,3.132,3.189l.019-30.356c0-.532,1.247-1.212,1.761-1.212Z" fill="#3eaf49"/>
  <path d="M144.71,203.247l-21.873.009-3.893,8.496c-.326.712-2.003.867-2.637.902l-5.592-.046c-.438-.004-1.167-.416-1.317-.771-.194-.461-.114-1.115.134-1.65l22.789-49.275c.286-.619,1.458-.803,2.009-.68.548.122,1.164.67,1.484,1.37l22.583,49.356c.283,1.122-1.434,1.706-2.145,1.7l-5.781-.043c-1.117-.129-1.801-.673-2.248-1.653l-3.514-7.714ZM140.983,194.806l-7.268-15.958-7.148,16.001,14.416-.043Z" fill="#3eaf49"/>
  <path d="M39.51,203.256l-21.865-.007-3.424,7.462c-.552,1.203-1.517,2.006-2.906,1.941l-5.903-.058c-.345-.003-.94-.363-1.137-.579-.23-.253-.313-1.111-.121-1.528l22.558-48.804c.407-.88.802-1.306,1.656-1.46.669-.121,1.627.134,2.003.957l22.781,49.799c.366.8-1.088,1.635-1.695,1.637l-6.18.027c-1.328-.111-2.018-1.013-2.507-2.105l-3.259-7.281ZM35.731,194.779l-7.26-15.969-7.141,16.035,14.401-.066Z" fill="#3eaf49"/>
  <path d="M411.819,203.256l-21.898-.006-3.549,7.787c-.446.979-1.449,1.547-2.489,1.623l-6.201-.071c-.315-.004-.882-.353-1.085-.565s-.357-1.067-.213-1.379l22.637-48.966c.376-.814.741-1.228,1.462-1.414.631-.163,1.744-.052,2.115.759l22.866,49.955c.367.801-1.076,1.632-1.706,1.635l-6.184.03c-1.223-.143-2.104-.977-2.478-2.111l-3.278-7.278ZM408.046,194.779l-7.26-15.969-7.141,16.035,14.401-.066Z" fill="#3eaf49"/>
  <path d="M175.19,197.805c6.031,7.048,15.893,7.389,23.046,1.744.391-.308,1.477-.951,1.881-.57,1.317,1.241,2.466,2.355,3.633,3.652l1.632,1.812c.266.295.072,1.171-.271,1.519-9.583,9.732-25.717,9.612-35.897.453-10.89-9.798-11.602-26.622-1.758-37.416,5.525-6.058,13.298-9.166,21.481-8.666,5.628.344,10.792,2.267,15.011,6.035.572.511,1.893,1.166,1.477,2.171-.338.817-1.35,1.63-1.97,2.314l-2.655,2.928c-.458.505-1.378.957-2.027.371-6.838-6.166-17.356-6.016-23.381.909-5.607,6.445-5.815,16.186-.202,22.745Z" fill="#3eaf49"/>
  <path d="M173.115,49.821c-3.31,1.765-6.263,3.744-9.479,5.915l-3.85-6.891-2.892-6.577c4.555-1.687,9.116-2.917,14.047-3.873.522,3.925,1.23,7.607,2.174,11.426Z" fill="#3eaf49"/>
  <path d="M174.699,94.662l-.287,4.436-.202,2.499c-4.926-.427-9.649-1.412-14.382-2.682,1.458-4.654,3.131-9.001,5.259-13.293l7.554,3.77,2.571,1.051-.514,4.218Z" fill="#3eaf49"/>
  <path d="M163.477,79.784c-3.874-2.428-7.267-5.029-10.675-7.922,2.041-2.464,4.287-4.606,6.675-6.752l3.066-2.622,6.668,8.386-5.734,8.911Z" fill="#3eaf49"/>
  <path d="M180.295,32.074l-2.903.228c-.653.051-1.173.086-1.934.101l.039-10.033c.003-.764.2-1.663.29-2.599,4.225.592,8.308,1.506,12.432,2.618l-2.645,9.546-5.28.14Z" fill="#3eaf49"/>
  <path d="M204.278,22.383l-8.583-3.613,2.631-5.762,2.75-5.065c3.313,2.127,6.567,4.477,9.652,7.141l-3,3.22-3.45,4.079Z" fill="#3eaf49"/>
  <path d="M174.388,108.139l.315,4.653.384,5.028c-5.375-4.254-9.566-9.001-13.367-14.637l12.521,2.048.148,2.908Z" fill="#3eaf49"/>
  <path d="M161.594,83.471c-1.818,3.545-3.284,7.08-4.713,10.931-2.546-5.656-4.227-11.455-5.089-17.91,3.166,2.431,6.297,4.855,9.802,6.979Z" fill="#3eaf49"/>
  <path d="M153.857,63.936c-.889.816-1.548,1.484-2.453,2.484-.171-5.609,1.012-12.142,2.971-17.977l5.506,10.072-2.326,2.028-3.699,3.393Z" fill="#3eaf49"/>
  <path d="M170.365,33.199l-10.254,2.426c2.229-3.687,4.578-7.065,7.417-10.088l2.72-2.896c.087,2.147-.238,4.107-.089,6.475.237,1.317.28,2.694.207,4.084Z" fill="#3eaf49"/>
  <path d="M190.261,16.908l-9.918-2.324c4.489-2.892,9.219-5.283,14.198-6.857l-4.28,9.181Z" fill="#3eaf49"/>
  <path d="M178.05,102.014c-.366-1.162-.115-2.397-.026-3.634l.259-3.606c.07-.978.247-1.896.428-3.03,2.136,2.945,4.242,5.758,6.93,8.193l2.213,2.004-9.804.073Z" fill="#3eaf49"/>
  <path d="M175.552,86.048c-2.992-1.179-5.781-2.603-8.533-4.136l5.104-7.934c.646,4.353,1.72,7.783,3.429,12.07Z" fill="#3eaf49"/>
  <path d="M171.65,66.574l-5.406-6.909,7.571-4.919c-.829,3.045-1.488,5.752-1.782,8.751l-.383,3.078Z" fill="#3eaf49"/>
  <path d="M177.634,46.267l-1.604-8.651,1.833-.145,3.361-.266c1.183-.093,2.337-.248,3.535-.031-2.943,2.909-5.07,5.732-7.126,9.092Z" fill="#3eaf49"/>
  <path d="M200.786,27.158c-3.403,1.353-5.985,2.647-9.227,4.477l2.078-7.475,7.149,2.997Z" fill="#3eaf49"/>
  <path d="M416.238,165.442c-.325-1.863.822-3.78,2.432-4.574,2.454-1.209,5.097-.066,6.083,2.345.966,2.364-.352,5.083-2.979,5.854-2.333.685-5.039-.772-5.536-3.626ZM417.327,165.483c.269,1.466,1.359,2.525,2.885,2.675,2.108.207,3.892-1.487,3.832-3.504-.057-1.926-1.844-3.441-3.708-3.239-2.072.225-3.395,1.965-3.009,4.067Z" fill="#3eaf49"/>
  <path d="M422.278,164.941c-1.098,1.066.735,1.69-.114,2.138-.228.12-.777-.01-.899-.201l-.87-1.546-.301,1.332c-.066.291-.582.519-1.053.401l-.031-4.611c1.081-.153,1.938-.139,2.773.233.895.399,1.203,1.563.493,2.253Z" fill="#3eaf49"/>
</svg>