<?xml version="1.0" encoding="UTF-8"?><svg id="Layer_1" xmlns="http://www.w3.org/2000/svg" viewBox="0 0 729.54 389.07"><defs><style>.cls-1{fill:#06262d;}.cls-2{fill:#3dae2b;}</style></defs><path class="cls-1" d="m45,297.91c-.46-.7-.93-1.39-2.09-1.39h-1.16c-1.16,0-1.86.7-2.09,1.39L.23,383.5c-.7,1.62.23,3.25,2.09,3.25h11.13c2.09,0,3.25-1.16,3.71-2.55l6.26-13.69h38.04l6.26,13.69c.93,1.86,1.86,2.55,3.71,2.55h11.13c1.86,0,3.02-1.62,2.09-3.25l-39.67-85.6Zm-15.77,58.46l12.53-27.84h.46l12.76,27.84h-25.75Z"/><path class="cls-1" d="m165.86,297.91h-11.6c-1.39,0-2.32,1.16-2.32,2.32v52.42h-.23l-52.89-56.14h-3.25c-1.16,0-2.32.93-2.32,2.32v85.36c0,1.16,1.16,2.32,2.32,2.32h11.6c1.39,0,2.32-1.16,2.32-2.32v-54.51h.23l53.12,58.22h3.02c1.16,0,2.32-.93,2.32-2.32v-85.36c.23-1.16-.93-2.32-2.32-2.32Z"/><path class="cls-1" d="m222.92,297.91c-.46-.7-.93-1.39-2.09-1.39h-1.16c-1.16,0-1.86.7-2.09,1.39l-39.43,85.6c-.7,1.62.23,3.25,2.09,3.25h11.13c2.09,0,3.25-1.16,3.71-2.55l6.26-13.69h38.04l6.26,13.69c.93,1.86,1.86,2.55,3.71,2.55h11.13c1.86,0,3.02-1.62,2.09-3.25l-39.67-85.6Zm-15.77,58.46l12.53-27.84h.46l12.76,27.84h-25.75Z"/><path class="cls-1" d="m331.48,364.02c-.7-.7-2.09-.93-3.25,0-5.34,4.41-11.83,7.19-19.49,7.19-16.24,0-28.53-13.45-28.53-29.23s12.06-29.69,28.3-29.69c7.19,0,14.15,2.78,19.49,7.42.93.93,2.32.93,3.25,0l7.65-7.89c.93-.93.93-2.55-.23-3.48-8.58-7.65-17.86-11.83-30.62-11.83-25.28,0-45.93,20.41-45.93,45.93s20.41,45.47,45.93,45.47c11.37,0,22.27-3.94,30.85-12.29.93-.93,1.16-2.55.23-3.48l-7.65-8.12Z"/><path class="cls-1" d="m391.56,296.51c-25.28,0-45.47,20.41-45.47,45.93s20.18,45.47,45.47,45.47,45.7-20.18,45.7-45.47-20.41-45.93-45.7-45.93Zm0,74.93c-16.01,0-29-12.99-29-29s12.99-29.23,29-29.23,29.23,13.22,29.23,29.23c-.23,16.01-13.22,29-29.23,29Z"/><path class="cls-1" d="m523.78,297.91h-11.6c-1.39,0-2.32,1.16-2.32,2.32v52.42h-.23l-52.89-56.14h-3.25c-1.16,0-2.32.93-2.32,2.32v85.36c0,1.16,1.16,2.32,2.32,2.32h11.6c1.39,0,2.32-1.16,2.32-2.32v-54.51h.23l53.12,58.22h3.02c1.16,0,2.32-.93,2.32-2.32v-85.36c0-1.16-1.16-2.32-2.32-2.32Z"/><path class="cls-1" d="m574.58,297.91h-30.16c-1.16,0-2.32,1.16-2.32,2.32v83.97c0,1.16.93,2.32,2.32,2.32h30.16c24.59,0,44.54-19.95,44.54-44.54s-19.95-44.07-44.54-44.07Zm-1.39,73.3h-14.61v-57.99h14.38c16.47,0,28.53,12.53,28.53,29,.23,16.47-11.83,29-28.3,29Z"/><path class="cls-1" d="m704.02,383.73l-39.2-85.36c-.46-.7-.93-1.39-2.09-1.39h-1.16c-1.16,0-1.86.7-2.09,1.39l-39.43,85.36c-.7,1.62.23,3.25,2.09,3.25h11.13c2.09,0,3.25-1.16,3.71-2.55l6.26-13.69h38.04l6.26,13.69c.93,1.86,1.86,2.55,3.71,2.55h11.13c1.39-.23,2.32-1.62,1.62-3.25Zm-54.74-27.37l12.53-27.84h.46l12.76,27.84h-25.75Z"/><path class="cls-1" d="m719.79,385.36h.7c.23,0,.46-.23.46-.46v-2.32h1.39l.93,2.55c0,.23.23.23.46.23h.93c.23,0,.46-.23.46-.46-.46-.7-.7-1.62-1.16-2.32.7-.23,1.62-.93,1.62-2.32,0-1.62-1.16-2.55-2.55-2.55h-3.02c-.23,0-.46.23-.46.46v6.73q0,.46.23.46Zm1.16-6.26h1.86c.7,0,.93.46.93.93s-.46.93-.93.93h-1.86v-1.86Z"/><path class="cls-1" d="m722.11,389.07c4.18,0,7.42-3.25,7.42-7.42s-3.48-7.42-7.42-7.42c-4.18,0-7.42,3.48-7.42,7.42s3.25,7.42,7.42,7.42Zm0-13.69c3.25,0,6.03,2.78,6.03,6.03s-2.78,6.03-6.03,6.03-6.03-2.78-6.03-6.03,2.78-6.03,6.03-6.03Z"/><path class="cls-2" d="m275.08,182.64v-.71c0-7.05.71-13.75,1.76-20.45v-.71l-.71-.35c-6.35-2.47-12.34-5.99-18.33-9.17l-.71-.35-.35.71c-3.88,7.76-7.05,16.22-9.87,24.68l-.35.71.71.35c8.81,2.47,17.63,4.23,26.8,4.94l1.06.35Z"/><path class="cls-2" d="m293.41,61.7q0-.35,0,0c-5.29,0-10.23.35-15.51.71.71,5.29,1.41,10.23,2.82,15.51,3.53-5.99,7.76-11.64,12.69-16.22Z"/><path class="cls-2" d="m275.08,188.99v-.71h-.71c-7.4-.71-15.16-2.12-22.92-3.88l-2.12-.35,1.06,1.76c6.7,10.23,15.16,19.39,25.03,27.5l1.41,1.41v-2.47c-1.06-8.11-1.76-16.22-1.76-23.27Z"/><path class="cls-2" d="m312.1,6.35c-9.17,3.17-17.98,7.4-26.09,12.69,5.99,1.06,11.99,2.47,17.98,4.23,2.47-5.64,4.94-11.28,8.11-16.92Z"/><path class="cls-2" d="m350.53,0c-4.58,0-9.17.35-13.4.71,6.35,4.23,12.34,9.17,17.98,14.46l4.58,4.23-4.58,4.58c-3.88,3.53-7.76,7.76-11.28,11.99v.35s-.71.71-1.76,2.12c2.82-.35,5.64-.35,8.46-.35,44.78,0,81.1,36.32,81.1,81.1s-36.32,81.1-81.1,81.1c-15.51,0-29.97-4.23-42.31-11.99-5.99.71-12.34,1.06-18.33,1.06-2.82,0-5.64,0-8.46-.35.35,9.17,1.06,18.69,2.47,28.56,19.04,13.05,41.96,20.45,66.64,20.45,65.93,0,119.18-53.24,119.18-119.18S416.47,0,350.53,0Z"/><path class="cls-2" d="m334.66,28.21c2.47-2.82,4.94-5.64,7.4-8.11-5.64-4.58-11.64-9.17-17.63-13.05-3.88,6.35-7.05,13.05-9.87,19.75,5.29,2.12,10.58,4.23,15.87,6.7,2.12-2.82,3.88-4.94,4.23-5.29Z"/><path class="cls-2" d="m253.92,96.26l.35.71.71-.35c5.64-3.88,11.28-7.76,17.28-10.93l.71-.35v-.71c-1.76-6.7-3.17-13.75-3.88-20.8v-.71h-.71c-8.81,1.76-17.63,3.88-25.74,7.05l-.71.35.35.71c2.47,8.46,6.7,16.92,11.64,25.03Z"/><path class="cls-2" d="m252.51,107.54l-.71.71c-6.35,5.29-12.34,10.93-17.98,17.28l-.71.71.71.71c6.35,5.29,12.69,10.23,19.75,14.81l.71.35.35-.71c3.17-5.64,6.7-10.93,10.58-16.22l.35-.71-.35-.35c-4.23-4.94-8.46-9.87-12.34-15.51l-.35-1.06Z"/><path class="cls-2" d="m299.41,183h2.12l-1.76-1.41c-6.35-5.29-11.99-11.28-16.22-18.33v-.35l-1.41-.71v1.06c-.71,5.99-1.41,12.34-1.41,18.69v.71h.71c2.82,0,5.64.35,8.46.35h9.52Z"/><path class="cls-2" d="m295.53,51.13c1.41-5.99,2.82-11.64,4.94-17.28-7.4-2.12-15.16-3.88-22.92-4.94-.71,8.11-.71,15.51-.35,23.27,5.99-.71,11.99-1.06,18.33-1.06Z"/><path class="cls-2" d="m306.81,50.77c5.29-3.17,10.93-5.99,16.57-8.11-4.23-2.12-8.46-3.88-12.69-5.29-1.41,4.23-2.82,8.81-3.88,13.4Z"/><path class="cls-2" d="m251.45,147.38h-.71c-5.99-3.88-11.99-8.11-17.63-12.69l-1.76-1.41.35,2.12c1.41,11.28,4.58,22.57,9.52,33.14l.71,1.76.71-1.76c2.47-6.7,5.29-13.4,8.46-19.75l.35-1.41Z"/><path class="cls-2" d="m266.61,34.55c-7.05,7.05-13.4,15.16-18.33,23.62,5.99-1.76,12.34-3.17,18.69-4.58-.35-6.35-.35-12.69-.35-19.04Z"/><path class="cls-2" d="m270.14,118.12v-2.12c.35-7.4,1.41-14.46,3.53-21.16l.71-2.12-1.76,1.06c-4.58,2.82-9.17,5.64-13.75,8.81l-.71.35,1.06.71c3.17,4.23,6.35,8.81,9.87,12.69l1.06,1.76Z"/><path class="cls-2" d="m271.2,130.46l-.35-2.12-1.06,1.76c-3.17,4.58-6.35,9.52-9.17,14.46l-.35.71.71.35c4.94,2.82,10.23,5.29,15.51,7.76l1.76.71-.71-1.76c-3.17-6.7-5.29-14.46-6.35-21.86Z"/><path class="cls-2" d="m247.93,101.9l.71-.35-.35-.71c-3.88-5.99-7.05-12.34-10.23-18.69l-.71-1.76-.71,2.12c-3.53,10.93-5.29,21.86-5.64,33.5v2.12l1.41-1.41c4.58-5.64,9.87-10.58,15.51-14.81Z"/></svg>