<?xml version="1.0" encoding="UTF-8"?>
<svg id="appliedAI" xmlns="http://www.w3.org/2000/svg" xmlns:xlink="http://www.w3.org/1999/xlink" version="1.1" viewBox="0 0 881.2 478.8">
  <!-- Generator: Adobe Illustrator 29.2.0, SVG Export Plug-In . SVG Version: 2.1.0 Build 108)  -->
  <defs>
    <style>
      .st0 {
        fill: none;
      }

      .st1 {
        fill: #18a5a7;
      }

      .st2 {
        fill: #084059;
      }

      .st3 {
        clip-path: url(#clippath);
      }
    </style>
    <clipPath id="clippath">
      <path class="st0" d="M112.9,124.3v245.9h244.9V124.3H112.9ZM253.9,367.5c-1.7.3-3.5.5-5.2.7h-26.6c-.5,0-1-.1-1.6-.2v-35.9c4.9.8,9.8,1.3,14.8,1.3s12.5-.7,18.6-2.1v36.2Z"/>
    </clipPath>
  </defs>
  <rect class="st2" x="366.4" y="138.7" width="33.4" height="229.5"/>
  <path class="st2" d="M400.9,88.1c0,9.6-7.7,17.3-17.2,17.3s-17.2-7.7-17.2-17.3,7.7-17.3,17.2-17.3,17.2,7.7,17.2,17.3"/>
  <g>
    <path class="st2" d="M830.4,195.3h9.1v-60.5h-9.1v60.5ZM793.1,146.1l10.4,27.7h-20.9l10.4-27.7ZM765.2,195.3h9.4l4.8-12.9h27.3l4.9,12.9h9.4l-23.4-60.5h-9.1l-23.4,60.5ZM728.6,186.9c-1.8-.8-3.4-1.8-4.7-3.2-1.3-1.4-2.4-3-3.1-4.8-.7-1.8-1.1-3.8-1.1-5.9s.4-4.1,1.1-5.9c.7-1.8,1.8-3.5,3.1-4.8,1.3-1.4,2.9-2.4,4.7-3.2,1.8-.8,3.7-1.2,5.8-1.2s4,.4,5.8,1.2c1.8.8,3.3,1.9,4.6,3.2,1.3,1.4,2.3,3,3.1,4.8.7,1.9,1.1,3.8,1.1,5.8s-.4,4.1-1.1,5.9c-.7,1.9-1.8,3.5-3.1,4.8-1.3,1.4-2.8,2.4-4.6,3.2-1.8.8-3.7,1.2-5.8,1.2s-4-.4-5.8-1.2M741.9,194.2c2.7-1.3,5-3.1,6.8-5.5v6.5h8.8v-65.5h-8.8v26.9c-1.7-2.2-3.9-3.9-6.7-5.2-2.7-1.3-5.6-1.9-8.6-1.9s-5.8.6-8.6,1.7c-2.7,1.1-5.1,2.7-7.2,4.7-2.1,2-3.7,4.5-4.9,7.3-1.2,2.8-1.8,6-1.8,9.6s.6,6.7,1.9,9.5c1.2,2.9,2.9,5.3,5,7.4,2.1,2,4.5,3.6,7.2,4.7,2.7,1.1,5.5,1.7,8.5,1.7s5.8-.7,8.6-2M689.3,160.4c2.5,1.9,4,4.7,4.7,8.2h-28.3c.9-3.3,2.6-5.9,5.1-8,2.5-2.1,5.6-3.1,9.2-3.1s6.8,1,9.2,2.9M692.8,193.3c3.3-2,6-4.6,8.2-7.8l-7.4-4.4c-1.3,2.2-3.1,3.9-5.2,5.2s-4.8,2-7.9,2-7.5-1.1-10.2-3.3c-2.7-2.2-4.3-5.1-5-8.7h37.6v-3.7c0-3.3-.6-6.4-1.7-9.2-1.2-2.8-2.8-5.2-4.8-7.3-2-2-4.5-3.6-7.3-4.8-2.8-1.1-5.8-1.7-9.2-1.7s-6.4.6-9.2,1.8c-2.8,1.2-5.3,2.9-7.4,5-2.1,2.1-3.7,4.6-4.9,7.4-1.2,2.8-1.8,5.9-1.8,9.2s.6,6.3,1.7,9.1c1.1,2.8,2.7,5.3,4.8,7.3,2.1,2.1,4.6,3.7,7.5,4.9,2.9,1.2,6.1,1.8,9.7,1.8s8.9-1,12.3-2.9M638.2,141.7c1.2,1.2,2.7,1.8,4.6,1.8s3.4-.6,4.6-1.8c1.2-1.2,1.8-2.7,1.8-4.6s-.6-3.3-1.8-4.6c-1.2-1.2-2.7-1.8-4.6-1.8s-3.3.6-4.5,1.8c-1.2,1.2-1.8,2.7-1.8,4.6s.6,3.3,1.7,4.6M638.3,195.3h9v-44.7h-9v44.7ZM618.1,195.3h9v-65.3h-9v65.3ZM579.4,186.8c-1.8-.8-3.4-1.9-4.7-3.2-1.3-1.4-2.4-3-3.1-4.8-.7-1.8-1.1-3.8-1.1-5.9s.4-4,1.1-5.8c.7-1.9,1.8-3.5,3.1-4.8,1.3-1.4,2.9-2.4,4.7-3.2,1.8-.8,3.7-1.2,5.8-1.2s4,.4,5.8,1.2c1.8.8,3.4,1.8,4.7,3.2,1.3,1.4,2.4,3,3.1,4.8.7,1.9,1.1,3.8,1.1,5.9s-.4,4.1-1.1,5.9c-.7,1.9-1.8,3.5-3.1,4.8-1.3,1.4-2.9,2.5-4.7,3.2-1.8.8-3.7,1.2-5.8,1.2s-4-.4-5.8-1.2M594.8,194.6c2.7-1.1,5.1-2.7,7.2-4.7,2.1-2,3.7-4.5,5-7.4,1.2-2.9,1.9-6,1.9-9.5s-.6-6.7-1.8-9.6c-1.2-2.8-2.9-5.3-4.9-7.3-2.1-2-4.4-3.6-7.1-4.7-2.7-1.1-5.5-1.7-8.5-1.7s-6,.7-8.7,2-5,3.2-6.7,5.5v-6.6h-8.7v62.6h8.7v-23.9c1.7,2.3,3.9,4,6.6,5.1,2.7,1.2,5.7,1.7,8.8,1.7s5.7-.6,8.4-1.7M523.6,186.8c-1.8-.8-3.4-1.9-4.7-3.2-1.3-1.4-2.4-3-3.1-4.8-.7-1.8-1.1-3.8-1.1-5.9s.4-4,1.1-5.8c.7-1.9,1.8-3.5,3.1-4.8,1.3-1.4,2.9-2.4,4.7-3.2,1.8-.8,3.7-1.2,5.8-1.2s4,.4,5.8,1.2c1.8.8,3.4,1.8,4.7,3.2,1.3,1.4,2.4,3,3.1,4.8.7,1.9,1.1,3.8,1.1,5.9s-.4,4.1-1.1,5.9c-.7,1.9-1.8,3.5-3.1,4.8s-2.9,2.5-4.7,3.2c-1.8.8-3.7,1.2-5.8,1.2s-4-.4-5.8-1.2M539.1,194.6c2.7-1.1,5.1-2.7,7.2-4.7,2.1-2,3.7-4.5,5-7.4,1.2-2.9,1.9-6,1.9-9.5s-.6-6.7-1.8-9.6c-1.2-2.8-2.9-5.3-4.9-7.3-2.1-2-4.4-3.6-7.1-4.7-2.7-1.1-5.5-1.7-8.5-1.7s-6,.7-8.7,2-5,3.2-6.7,5.5v-6.6h-8.7v62.6h8.7v-23.9c1.7,2.3,3.9,4,6.6,5.1,2.7,1.2,5.7,1.7,8.8,1.7s5.7-.6,8.4-1.7M464.8,186.8c-1.4-1.1-2.1-2.6-2.1-4.6s.9-3.9,2.7-5.1c1.8-1.2,4.8-1.8,8.9-1.8h12.7v3.7c-.7,1.5-1.6,2.8-2.8,4-1.1,1.2-2.4,2.1-3.8,2.9-1.4.8-2.8,1.4-4.4,1.9-1.5.4-3.1.7-4.7.7-3,0-5.2-.6-6.5-1.7M479.7,193.8c3.1-1.6,5.5-3.7,7.3-6.4v7.9h8.6v-27.7c0-2.7-.4-5.2-1.3-7.4-.9-2.2-2.2-4.1-3.9-5.7-1.7-1.6-3.8-2.8-6.3-3.6-2.5-.9-5.4-1.3-8.6-1.3-4.8,0-8.9,1-12.4,2.9-3.5,1.9-6.3,4.4-8.5,7.3l8,4.6c1.3-2.2,3-4,5.1-5.3,2.2-1.3,4.7-1.9,7.7-1.9s6.9.9,8.8,2.8c1.9,1.9,2.8,4.3,2.8,7.3v.7h-13.3c-6.3,0-11.2,1.3-14.8,3.9-3.6,2.6-5.3,6.3-5.3,10.9s.3,3.6,1,5.3c.7,1.6,1.7,3,3,4.2,1.3,1.2,3,2.1,4.9,2.8,2,.7,4.2,1,6.8,1,3.8,0,7.2-.8,10.3-2.4"/>
    <path class="st2" d="M753.2,244.9c1.9.7,3.6,1.8,5,3.2,1.4,1.4,2.6,3,3.4,4.8.8,1.9,1.4,3.9,1.6,6.2h-33.9c.3-2.2.9-4.2,1.9-6,1-1.9,2.2-3.5,3.8-4.9,1.5-1.4,3.3-2.5,5.3-3.2,2-.8,4.2-1.2,6.5-1.2s4.4.4,6.3,1.1M758.4,280.2c3.1-1.8,5.8-4.6,8.1-8.3l-3.9-2.2c-1.6,3.1-3.7,5.4-6.3,6.9-2.6,1.5-5.7,2.3-9.5,2.3s-4.7-.4-6.8-1.2c-2.1-.8-3.9-1.9-5.4-3.3-1.5-1.4-2.8-3.1-3.7-5-.9-1.9-1.5-4-1.6-6.3h38.5v-2.2c0-3.1-.5-5.9-1.6-8.5-1.1-2.6-2.5-4.8-4.4-6.7-1.9-1.9-4.1-3.3-6.7-4.4-2.6-1.1-5.3-1.6-8.3-1.6s-6.1.6-8.8,1.7c-2.7,1.1-5,2.7-6.9,4.6-2,2-3.5,4.3-4.5,6.9-1.1,2.7-1.6,5.5-1.6,8.6s.5,5.9,1.5,8.5c1,2.6,2.5,4.8,4.3,6.8,1.9,1.9,4.2,3.4,6.8,4.5,2.7,1.1,5.7,1.6,9.1,1.6s8.5-.9,11.5-2.8M693.2,244.4h8v26.2c0,4.1.9,7,2.6,9,1.7,1.9,4.4,2.9,7.8,2.9s3.3-.3,4.6-.8c1.3-.5,2.5-1.3,3.7-2.4l-2.6-3.1c-1.5,1.6-3.3,2.4-5.3,2.4s-3.5-.6-4.7-1.8-1.8-3.3-1.8-6.3v-26h12.6v-3.8h-12.6v-11.9l-4.3,2.7v9.2h-8v3.8ZM673.4,280.5c2.6-1.7,4.5-3.8,5.8-6.4v8.1h4.2v-41.5h-4.2v23.2c0,2.2-.4,4.2-1.1,6-.7,1.8-1.7,3.5-3,4.8-1.3,1.4-2.8,2.4-4.6,3.2-1.8.8-3.7,1.2-5.8,1.2-4.6,0-8-1.4-10.3-4.1-2.3-2.7-3.5-6.4-3.5-11v-23.2h-4.3v23.2c0,6,1.5,10.7,4.5,14.1,3,3.4,7.4,5.1,13.3,5.1s6.6-.8,9.2-2.5M611.6,244.4h8v26.2c0,4.1.9,7,2.6,9,1.7,1.9,4.4,2.9,7.8,2.9s3.3-.3,4.6-.8c1.3-.5,2.5-1.3,3.7-2.4l-2.6-3.1c-1.5,1.6-3.3,2.4-5.3,2.4s-3.5-.6-4.7-1.8c-1.2-1.2-1.8-3.3-1.8-6.3v-26h12.6v-3.8h-12.6v-11.9l-4.3,2.7v9.2h-8v3.8ZM596.9,230.5c.7.8,1.7,1.2,2.9,1.2s2.2-.4,2.9-1.2c.8-.8,1.2-1.8,1.2-3s-.4-2.1-1.2-2.8c-.8-.8-1.7-1.2-2.9-1.2s-2,.4-2.8,1.2c-.8.8-1.2,1.7-1.2,2.8s.4,2.2,1.1,3M597.7,282.1h4.3v-41.5h-4.3v41.5ZM561.7,244.4h8v26.2c0,4.1.9,7,2.6,9,1.7,1.9,4.4,2.9,7.8,2.9s3.3-.3,4.6-.8c1.3-.5,2.5-1.3,3.7-2.4l-2.6-3.1c-1.5,1.6-3.3,2.4-5.3,2.4s-3.5-.6-4.7-1.8c-1.2-1.2-1.8-3.3-1.8-6.3v-26h12.6v-3.8h-12.6v-11.9l-4.3,2.7v9.2h-8v3.8ZM546.1,282c2-.7,3.6-1.6,5-2.7,1.3-1.1,2.3-2.5,3-4,.7-1.5,1-3.2,1-4.9s-.4-3.9-1.3-5.2c-.9-1.3-2.1-2.4-3.5-3.2-1.4-.8-3.1-1.4-4.9-1.9-1.8-.4-3.7-.8-5.5-1.1-1.6-.3-3.2-.6-4.8-.9-1.5-.3-2.9-.7-4.1-1.3-1.2-.5-2.1-1.2-2.8-2-.7-.8-1.1-1.9-1.1-3.2,0-2.4.8-4.3,2.3-5.7,1.6-1.5,4.2-2.2,8-2.2s5.7.6,7.8,1.8c2.2,1.2,3.9,2.7,5.4,4.5l3.4-3.1c-2-2.1-4.2-3.7-6.9-5-2.6-1.3-5.9-2-9.7-2s-4.6.3-6.5,1-3.4,1.5-4.7,2.6c-1.2,1.1-2.2,2.3-2.8,3.8-.6,1.4-.9,3-.9,4.5s.4,3.7,1.3,5c.9,1.3,2,2.3,3.5,3.1,1.4.8,3.1,1.4,4.8,1.8,1.8.4,3.6.8,5.5,1.1,1.6.3,3.2.6,4.8,1,1.6.3,2.9.8,4.2,1.3,1.2.5,2.2,1.3,2.9,2.2.7.9,1.1,2,1.1,3.4,0,2.6-1,4.7-2.9,6.3-1.9,1.6-4.8,2.4-8.5,2.4s-6.9-.7-9.4-2.1c-2.5-1.4-4.6-3.2-6.2-5.3l-3.5,3.2c1.9,2.3,4.4,4.2,7.5,5.8,3,1.6,6.9,2.3,11.6,2.3s4.8-.3,6.8-1M472.9,282.1h4.3v-23.2c0-2.2.4-4.2,1.2-6,.8-1.8,1.8-3.4,3.2-4.8,1.3-1.4,2.9-2.4,4.7-3.2,1.8-.8,3.8-1.2,5.9-1.2,4.7,0,8.3,1.4,10.8,4.1,2.5,2.7,3.8,6.4,3.8,11v23.2h4.4v-23.2c0-3-.4-5.6-1.3-8-.9-2.4-2.1-4.4-3.7-6-1.6-1.7-3.5-2.9-5.8-3.8-2.3-.9-4.8-1.3-7.5-1.3s-6.8.8-9.5,2.5c-2.7,1.7-4.8,3.9-6.2,6.5v-8.2h-4.2v41.5ZM454.3,230.5c.7.8,1.7,1.2,2.9,1.2s2.2-.4,2.9-1.2c.8-.8,1.2-1.8,1.2-3s-.4-2.1-1.2-2.8c-.8-.8-1.7-1.2-2.9-1.2s-2,.4-2.8,1.2c-.8.8-1.2,1.7-1.2,2.8s.4,2.2,1.1,3M455,282.1h4.3v-41.5h-4.3v41.5Z"/>
    <path class="st2" d="M853.1,324.4c1.9.7,3.6,1.8,5,3.2,1.4,1.4,2.6,3,3.4,4.8.8,1.9,1.4,3.9,1.6,6.2h-33.9c.3-2.2.9-4.2,1.9-6,1-1.9,2.2-3.5,3.8-4.9,1.5-1.4,3.3-2.5,5.3-3.2,2-.8,4.2-1.2,6.5-1.2s4.4.4,6.3,1.1M858.2,359.8c3.1-1.8,5.8-4.6,8.1-8.3l-3.9-2.2c-1.6,3.1-3.7,5.4-6.3,6.9-2.6,1.5-5.7,2.3-9.5,2.3s-4.7-.4-6.8-1.2-3.9-1.9-5.4-3.3c-1.5-1.4-2.8-3.1-3.7-5-.9-1.9-1.5-4-1.6-6.3h38.5v-2.2c0-3.1-.5-5.9-1.6-8.5-1.1-2.6-2.5-4.8-4.4-6.7-1.9-1.9-4.1-3.3-6.7-4.4-2.6-1.1-5.3-1.6-8.3-1.6s-6.1.6-8.8,1.7c-2.7,1.1-5,2.7-6.9,4.6-2,2-3.5,4.3-4.5,6.9-1.1,2.7-1.6,5.5-1.6,8.6s.5,5.9,1.5,8.5c1,2.6,2.5,4.8,4.3,6.8,1.9,1.9,4.2,3.4,6.8,4.5,2.7,1.1,5.7,1.6,9.1,1.6s8.5-.9,11.5-2.8M786.5,357c-2.1-.9-3.9-2.1-5.5-3.7-1.6-1.6-2.8-3.4-3.7-5.6-.9-2.1-1.3-4.4-1.3-6.8s.4-4.7,1.3-6.8c.9-2.1,2.1-4,3.7-5.6,1.6-1.6,3.4-2.8,5.5-3.8,2.1-.9,4.4-1.4,6.8-1.4s4.7.5,6.7,1.3c2.1.9,3.9,2.1,5.4,3.7,1.5,1.6,2.7,3.4,3.6,5.6.9,2.2,1.3,4.5,1.3,6.9s-.4,4.9-1.3,7c-.9,2.1-2.1,4-3.6,5.5-1.5,1.5-3.3,2.7-5.4,3.6-2.1.9-4.3,1.3-6.7,1.3s-4.7-.4-6.8-1.3M802,360.9c2.6-1.1,4.9-2.6,6.8-4.5,1.9-1.9,3.4-4.2,4.4-6.8,1.1-2.6,1.6-5.5,1.6-8.7s-.6-5.9-1.7-8.5c-1.1-2.6-2.6-4.9-4.5-6.8-1.9-1.9-4.2-3.5-6.8-4.6-2.6-1.1-5.4-1.7-8.4-1.7s-3.3.2-5,.7c-1.7.4-3.3,1.1-4.8,1.9-1.5.8-2.9,1.9-4.2,3.1-1.3,1.2-2.3,2.6-3.1,4.2v-9.1h-4.2v56.9h4.3v-24.2c.8,1.5,1.9,2.9,3.2,4.1,1.3,1.2,2.7,2.2,4.2,3,1.5.8,3.1,1.4,4.7,1.9,1.6.4,3.3.7,4.8.7,3.2,0,6.1-.5,8.7-1.6M732.2,357.1c-2.1-.9-3.9-2.1-5.4-3.6-1.5-1.5-2.7-3.4-3.6-5.5-.9-2.1-1.3-4.5-1.3-7s.4-4.8,1.3-6.9c.9-2.2,2.1-4,3.6-5.6,1.5-1.6,3.3-2.8,5.4-3.7,2.1-.9,4.3-1.3,6.7-1.3s4.7.5,6.7,1.3c2.1.9,3.9,2.1,5.4,3.7,1.5,1.6,2.7,3.4,3.6,5.6.9,2.2,1.3,4.5,1.3,6.9s-.4,4.8-1.3,7c-.9,2.1-2.1,4-3.6,5.5-1.5,1.6-3.3,2.8-5.4,3.7-2.1.9-4.3,1.3-6.8,1.3s-4.7-.4-6.7-1.3M747.5,360.8c2.6-1.1,4.9-2.7,6.8-4.6,1.9-1.9,3.4-4.2,4.5-6.8,1.1-2.6,1.7-5.4,1.7-8.5s-.6-5.9-1.7-8.5c-1.1-2.6-2.6-4.9-4.6-6.8-1.9-1.9-4.2-3.5-6.8-4.6-2.6-1.1-5.5-1.7-8.5-1.7s-5.9.6-8.5,1.7c-2.6,1.1-4.9,2.6-6.8,4.6-1.9,2-3.4,4.2-4.5,6.8s-1.7,5.5-1.7,8.5.5,6,1.6,8.7c1.1,2.6,2.6,4.9,4.5,6.8,1.9,1.9,4.2,3.4,6.8,4.5,2.6,1.1,5.5,1.6,8.6,1.6s5.9-.6,8.6-1.7M690.1,361.7h4.2v-22.2c0-5.4,1-9.4,3-12,2-2.6,5-3.9,9-3.9s2,.1,2.8.4,1.5.6,2.1,1l2.1-4c-1.7-1-4-1.5-6.8-1.5s-6,.8-8,2.3c-2.1,1.5-3.6,3.7-4.4,6.7v-8.3h-4v41.5ZM666.8,360c2.6-1.7,4.5-3.8,5.8-6.4v8.1h4.2v-41.5h-4.2v23.2c0,2.2-.4,4.2-1.1,6-.7,1.8-1.7,3.4-3,4.8-1.3,1.4-2.8,2.4-4.6,3.2s-3.7,1.2-5.8,1.2c-4.6,0-8-1.4-10.3-4.1-2.3-2.7-3.5-6.4-3.5-11v-23.2h-4.3v23.2c0,6,1.5,10.7,4.5,14.1,3,3.4,7.4,5.1,13.3,5.1s6.6-.8,9.2-2.5M613.9,324.4c1.9.7,3.6,1.8,5,3.2,1.4,1.4,2.6,3,3.4,4.8.8,1.9,1.4,3.9,1.6,6.2h-33.9c.3-2.2.9-4.2,1.9-6,1-1.9,2.2-3.5,3.8-4.9,1.5-1.4,3.3-2.5,5.3-3.2s4.2-1.2,6.5-1.2,4.4.4,6.3,1.1M619.1,359.8c3.1-1.8,5.8-4.6,8.1-8.3l-3.9-2.2c-1.6,3.1-3.7,5.4-6.3,6.9-2.6,1.5-5.7,2.3-9.5,2.3s-4.7-.4-6.8-1.2-3.9-1.9-5.4-3.3c-1.5-1.4-2.8-3.1-3.7-5-.9-1.9-1.5-4-1.6-6.3h38.5v-2.2c0-3.1-.5-5.9-1.6-8.5-1.1-2.6-2.5-4.8-4.4-6.7-1.9-1.9-4.1-3.3-6.7-4.4-2.6-1.1-5.3-1.6-8.3-1.6s-6.1.6-8.8,1.7c-2.7,1.1-5,2.7-6.9,4.6-2,2-3.5,4.3-4.5,6.9-1.1,2.7-1.6,5.5-1.6,8.6s.5,5.9,1.5,8.5c1,2.6,2.5,4.8,4.3,6.8,1.9,1.9,4.2,3.4,6.8,4.5,2.7,1.1,5.7,1.6,9.1,1.6s8.5-.9,11.5-2.8M534.5,361.7h4.2v-22.2c0-5.4,1-9.4,3-12,2-2.6,5-3.9,9-3.9s2,.1,2.8.4,1.5.6,2.1,1l2.1-4c-1.7-1-4-1.5-6.8-1.5s-6,.8-8,2.3c-2.1,1.5-3.6,3.7-4.4,6.7v-8.3h-4v41.5ZM494.5,357.1c-2.1-.9-3.9-2.1-5.4-3.6s-2.7-3.4-3.6-5.5c-.9-2.1-1.3-4.5-1.3-7s.4-4.8,1.3-6.9c.9-2.2,2.1-4,3.6-5.6,1.5-1.6,3.3-2.8,5.4-3.7,2.1-.9,4.3-1.3,6.7-1.3s4.7.5,6.7,1.3c2.1.9,3.9,2.1,5.4,3.7,1.5,1.6,2.7,3.4,3.6,5.6.9,2.2,1.3,4.5,1.3,6.9s-.4,4.8-1.3,7c-.9,2.1-2.1,4-3.6,5.5-1.5,1.6-3.3,2.8-5.4,3.7-2.1.9-4.3,1.3-6.8,1.3s-4.7-.4-6.7-1.3M509.8,360.8c2.6-1.1,4.9-2.7,6.8-4.6,1.9-1.9,3.4-4.2,4.5-6.8,1.1-2.6,1.7-5.4,1.7-8.5s-.6-5.9-1.7-8.5c-1.1-2.6-2.6-4.9-4.6-6.8-2-1.9-4.2-3.5-6.8-4.6-2.6-1.1-5.5-1.7-8.5-1.7s-5.9.6-8.5,1.7c-2.6,1.1-4.9,2.6-6.8,4.6-1.9,2-3.4,4.2-4.5,6.8-1.1,2.6-1.7,5.5-1.7,8.5s.5,6,1.6,8.7c1.1,2.6,2.6,4.9,4.5,6.8,1.9,1.9,4.2,3.4,6.8,4.5,2.6,1.1,5.5,1.6,8.6,1.6s5.9-.6,8.6-1.7M450.3,324h8.2v37.7h4.4v-37.7h12.1v-3.8h-12.1v-4c0-2.4.1-4.3.4-5.7.3-1.4.8-2.5,1.5-3.3.8-.8,1.8-1.3,3.2-1.5,1.4-.3,3.2-.4,5.5-.4h1.5v-4.2h-1.8c-2.9,0-5.3.2-7.2.7-1.9.4-3.4,1.2-4.5,2.3-1.1,1.1-1.9,2.7-2.3,4.6-.4,2-.7,4.4-.7,7.4v4.1h-8.2v3.8Z"/>
  </g>
  <g>
    <path class="st2" d="M355.7,245.7c-.8-66-54.5-119.4-120.4-119.4s-120.4,54.2-120.4,120.8,54,120.8,120.4,120.8,32.7-3.3,47.8-9.9c8.5-3.7,12.4-13.5,8.7-22-3.7-8.5-13.5-12.4-22-8.7-10.9,4.7-22.5,7.1-34.5,7.1-48,0-87-39.2-87-87.3s39-87.3,87-87.3,87,39.2,87,87.3,0,.5,0,.7v120.3h33.4v-122.5h-.1Z"/>
    <path class="st1" d="M253.8,245.7c-.8-66-54.5-119.4-120.4-119.4S13,180.5,13,247.1s54,120.8,120.4,120.8,32.7-3.3,47.8-9.9c8.5-3.7,12.4-13.5,8.7-22-3.7-8.5-13.5-12.4-22-8.7-10.9,4.7-22.5,7.1-34.5,7.1-48,0-87-39.2-87-87.3s39-87.3,87-87.3,87,39.2,87,87.3,0,.5,0,.7v120.3h33.4v-122.5h-.1Z"/>
    <g class="st3">
      <path class="st2" d="M355.7,245.7c-.8-66-54.5-119.4-120.4-119.4s-120.4,54.2-120.4,120.8,54,120.8,120.4,120.8,32.7-3.3,47.8-9.9c8.5-3.7,12.4-13.5,8.7-22-3.7-8.5-13.5-12.4-22-8.7-10.9,4.7-22.5,7.1-34.5,7.1-48,0-87-39.2-87-87.3s39-87.3,87-87.3,87,39.2,87,87.3,0,.5,0,.7v120.3h33.4v-122.5h-.1Z"/>
    </g>
  </g>
</svg>