<?xml version="1.0" encoding="UTF-8"?>
<svg xmlns="http://www.w3.org/2000/svg" viewBox="0 0 857 312" width="2400" height="873.74562427071"><path fill="#fff02d" d="M322.5 0v112h212V0h-212z"/><path fill="#e6002d" d="M388.5 12h80v24h-80V12zM388.5 76h80v24h-80V76zM432.5 44h76v24h-76V44zM348.5 44h76v24h-76V44z"/><path d="M28.329 311.418q-1.628-5.236-2.91-8.899H8.495q-2.037 6.05-2.91 8.9H0q2.15-6.574 4.684-13.205 2.53-6.632 9.335-23.442h5.992q6.92 16.81 9.452 23.383 2.53 6.576 4.625 13.263zm-4.596-13.67q-1.686-4.537-6.805-17.219l-2.211 5.644q-.873 2.327-2.298 5.904-1.425 3.579-2.18 5.67zM56.6 283.205h5.41v28.213h-5.294v-4.305a9.248 9.248 0 0 1-3.461 3.608A9.648 9.648 0 0 1 48.28 312a9.098 9.098 0 0 1-7.212-2.909q-2.56-2.909-2.56-8.143v-17.743h5.41v16.754a8.288 8.288 0 0 0 1.6 5.496 5.714 5.714 0 0 0 4.625 1.89 6.125 6.125 0 0 0 4.74-1.86 7.717 7.717 0 0 0 1.715-5.41zM72.48 311.418v-23.441h-4.654v-4.364h4.655v-2.21q0-9.076 9.19-9.075h2.617l.757 4.595h-2.91a4.153 4.153 0 0 0-3.227 1.078 5.132 5.132 0 0 0-.96 3.46v2.152h7.563v4.364h-7.563v23.441zM120.7 272.328h5.41v39.09h-5.41v-4.073Q118.083 312 112.265 312a9.92 9.92 0 0 1-8.027-3.636q-3.026-3.634-3.026-9.976v-2.035q0-6.223 3.112-9.947a10.323 10.323 0 0 1 8.347-3.724q5.527 0 8.027 4.421zm-1.658 32.779q1.89-2.357 1.89-6.893v-1.746q0-4.595-1.89-6.952a6.373 6.373 0 0 0-5.263-2.354 6.248 6.248 0 0 0-5.148 2.354q-1.892 2.357-1.892 6.952v1.746q0 4.595 1.892 6.922a6.403 6.403 0 0 0 5.263 2.327 6.244 6.244 0 0 0 5.148-2.356zM134.895 277.738a3.51 3.51 0 0 1 0-4.885 3.819 3.819 0 0 1 5 0 3.51 3.51 0 0 1 0 4.885 3.825 3.825 0 0 1-5 0zm5.234 33.68h-5.408v-28.213h5.408zM172.066 298.504H152.52q0 4.422 2.006 6.691a7.32 7.32 0 0 0 5.788 2.268 6.765 6.765 0 0 0 4.48-1.455 6.242 6.242 0 0 0 2.151-3.955l5.003.93a9.98 9.98 0 0 1-3.722 6.456 12.473 12.473 0 0 1-8.145 2.56q-6.282 0-9.655-3.547-3.376-3.55-3.375-10.006v-2.094a15.759 15.759 0 0 1 1.571-7.185 11.42 11.42 0 0 1 4.421-4.799 12.774 12.774 0 0 1 6.63-1.686 11.771 11.771 0 0 1 9.076 3.576q3.314 3.58 3.316 10.094zm-17.277-9.481a8.915 8.915 0 0 0-2.212 5.526h14.078a8.83 8.83 0 0 0-2.239-5.526 6.996 6.996 0 0 0-9.627 0zM180.034 309.644a8.31 8.31 0 0 1-3.142-6.602l4.829-.756a5.29 5.29 0 0 0 1.745 4.043q1.628 1.366 5.118 1.366a8.286 8.286 0 0 0 4.45-.988 3.14 3.14 0 0 0 1.543-2.793 2.914 2.914 0 0 0-1.687-2.82 23.471 23.471 0 0 0-5.236-1.6 41.697 41.697 0 0 1-5.207-1.425 8.118 8.118 0 0 1-3.432-2.386 6.872 6.872 0 0 1-1.426-4.625 7.312 7.312 0 0 1 2.968-6.078 12.679 12.679 0 0 1 7.969-2.297 11.796 11.796 0 0 1 7.621 2.297 8.284 8.284 0 0 1 3.025 6.43l-4.829.755q-.29-5.236-6.107-5.236a7.007 7.007 0 0 0-4.102 1.019 3.274 3.274 0 0 0-1.424 2.82 2.826 2.826 0 0 0 .901 2.21 5.776 5.776 0 0 0 2.239 1.222q1.34.408 3.724.93a41.432 41.432 0 0 1 5.263 1.426 8.095 8.095 0 0 1 3.432 2.384 6.872 6.872 0 0 1 1.426 4.625 7.267 7.267 0 0 1-2.995 6.107q-2.997 2.269-8.231 2.269-5.468 0-8.435-2.297zM229.769 298.504h-19.545q0 4.422 2.006 6.691a7.32 7.32 0 0 0 5.788 2.268 6.765 6.765 0 0 0 4.48-1.455 6.243 6.243 0 0 0 2.15-3.955l5.003.93a9.98 9.98 0 0 1-3.721 6.457 12.473 12.473 0 0 1-8.145 2.56q-6.282 0-9.655-3.547-3.376-3.55-3.375-10.006v-2.094a15.757 15.757 0 0 1 1.571-7.185 11.42 11.42 0 0 1 4.421-4.8 12.774 12.774 0 0 1 6.63-1.686 11.771 11.771 0 0 1 9.076 3.577q3.314 3.579 3.316 10.094zm-17.277-9.481a8.915 8.915 0 0 0-2.212 5.526h14.078a8.83 8.83 0 0 0-2.238-5.526 6.996 6.996 0 0 0-9.628 0zM251.696 308.917q-3.608-3.082-3.665-8.668l5.177-.697q.232 7.736 8.727 7.737a8.813 8.813 0 0 0 5.555-1.571 4.881 4.881 0 0 0 2.006-4.014 4.29 4.29 0 0 0-1.105-3.083 7.134 7.134 0 0 0-2.791-1.774 44.201 44.201 0 0 0-4.654-1.309 44.742 44.742 0 0 1-6.196-1.89 9.969 9.969 0 0 1-4.043-3.054 8.939 8.939 0 0 1-1.687-5.759 9.547 9.547 0 0 1 1.571-5.322 10.87 10.87 0 0 1 4.508-3.84 15.778 15.778 0 0 1 6.951-1.425 13.32 13.32 0 0 1 8.988 2.967 10.557 10.557 0 0 1 3.576 8.202l-5.177.756a7.104 7.104 0 0 0-2.18-5.44 7.976 7.976 0 0 0-5.38-1.773 7.836 7.836 0 0 0-5.178 1.599 4.987 4.987 0 0 0-1.92 3.984 4.223 4.223 0 0 0 1.134 3.083 7.359 7.359 0 0 0 2.82 1.775q1.687.611 4.714 1.367a40.58 40.58 0 0 1 6.107 1.861 9.982 9.982 0 0 1 4.043 3.083 8.849 8.849 0 0 1 1.658 5.644 9.516 9.516 0 0 1-1.6 5.379 10.921 10.921 0 0 1-4.682 3.839A17.047 17.047 0 0 1 261.76 312q-6.458 0-10.064-3.083zM292.532 311.708q-4.481 0-6.545-1.86-2.065-1.86-2.064-5.875v-15.996h-4.77v-4.364h4.828v-6.98h5.409v6.98h7.622v4.364h-7.622v15.122a4.226 4.226 0 0 0 1.048 3.23 4.907 4.907 0 0 0 3.373.96h3.083l-.815 4.42zM325.863 298.504h-19.545q0 4.422 2.006 6.691a7.32 7.32 0 0 0 5.788 2.268 6.765 6.765 0 0 0 4.48-1.455 6.243 6.243 0 0 0 2.15-3.955l5.004.93a9.98 9.98 0 0 1-3.722 6.456 12.473 12.473 0 0 1-8.145 2.561q-6.282 0-9.655-3.547-3.376-3.55-3.375-10.006v-2.094a15.759 15.759 0 0 1 1.57-7.185 11.42 11.42 0 0 1 4.422-4.8 12.774 12.774 0 0 1 6.63-1.686 11.771 11.771 0 0 1 9.076 3.577q3.314 3.579 3.316 10.094zm-17.277-9.481a8.915 8.915 0 0 0-2.211 5.526h14.078a8.829 8.829 0 0 0-2.24-5.526 6.996 6.996 0 0 0-9.627 0zM332.901 277.738a3.51 3.51 0 0 1 0-4.885 3.819 3.819 0 0 1 5.001 0 3.51 3.51 0 0 1 0 4.885 3.825 3.825 0 0 1-5 0zm5.234 33.68h-5.408v-28.213h5.408zM367.89 285.591q2.53 2.909 2.53 8.143v17.684h-5.41v-16.695a8.302 8.302 0 0 0-1.627-5.555 5.815 5.815 0 0 0-4.654-1.89 6.246 6.246 0 0 0-4.829 1.89 7.648 7.648 0 0 0-1.745 5.38v16.87h-5.408v-28.213h5.351v4.247a9.083 9.083 0 0 1 3.489-3.518 10.207 10.207 0 0 1 5.12-1.252 9.01 9.01 0 0 1 7.183 2.91zM402.007 298.504h-19.545q0 4.422 2.005 6.691a7.32 7.32 0 0 0 5.789 2.268 6.765 6.765 0 0 0 4.48-1.455 6.242 6.242 0 0 0 2.15-3.955l5.003.93a9.98 9.98 0 0 1-3.721 6.456 12.473 12.473 0 0 1-8.145 2.56q-6.282 0-9.655-3.547-3.376-3.55-3.375-10.006v-2.094a15.759 15.759 0 0 1 1.57-7.185 11.42 11.42 0 0 1 4.422-4.799 12.774 12.774 0 0 1 6.63-1.686 11.771 11.771 0 0 1 9.076 3.576q3.314 3.58 3.316 10.094zm-17.277-9.481a8.915 8.915 0 0 0-2.212 5.526h14.079a8.83 8.83 0 0 0-2.24-5.526 6.996 6.996 0 0 0-9.627 0zM440.047 311.418l-10.587-12.797h-2.094v12.797h-5.408v-39.09h5.408v21.757h1.863q3.256-2.968 5.931-5.847a56.788 56.788 0 0 0 4.247-5.032h6.108q-2.269 3.026-4.886 5.876t-6.748 6.746l12.623 15.59zM451.622 308.423q-3.376-3.579-3.375-10.035v-2.035a15.759 15.759 0 0 1 1.57-7.185 11.308 11.308 0 0 1 4.48-4.8 13.202 13.202 0 0 1 6.747-1.686 12.028 12.028 0 0 1 9.19 3.577q3.374 3.579 3.376 9.976v2.094a15.332 15.332 0 0 1-1.6 7.156 11.713 11.713 0 0 1-4.507 4.8 13.031 13.031 0 0 1-6.749 1.715 11.954 11.954 0 0 1-9.132-3.577zm1.57-30.83a3.161 3.161 0 0 1 0-4.48 3.336 3.336 0 0 1 2.326-.842 3.124 3.124 0 0 1 2.269.842 3.308 3.308 0 0 1 0 4.48 3.124 3.124 0 0 1-2.269.843 3.336 3.336 0 0 1-2.327-.843zm12.943 27.514q1.948-2.357 1.949-7.009v-1.57q0-4.655-1.949-7.011a6.418 6.418 0 0 0-5.207-2.355 6.5 6.5 0 0 0-5.235 2.355q-1.978 2.356-1.977 7.01v1.571q0 4.655 1.976 7.009a6.496 6.496 0 0 0 5.236 2.356 6.414 6.414 0 0 0 5.207-2.356zm-1.745-27.514a3.235 3.235 0 0 1 0-4.48 3.555 3.555 0 0 1 4.595 0 3.235 3.235 0 0 1 0 4.48 3.555 3.555 0 0 1-4.595 0zM501.617 285.591q2.53 2.909 2.531 8.143v17.684h-5.41v-16.695a8.302 8.302 0 0 0-1.628-5.555 5.815 5.815 0 0 0-4.654-1.89 6.246 6.246 0 0 0-4.828 1.89 7.647 7.647 0 0 0-1.746 5.38v16.87h-5.408v-28.213h5.351v4.247a9.084 9.084 0 0 1 3.49-3.518 10.207 10.207 0 0 1 5.12-1.252 9.01 9.01 0 0 1 7.182 2.91zM533.552 285.591q2.53 2.909 2.53 8.143v17.684h-5.41v-16.695a8.302 8.302 0 0 0-1.627-5.555 5.815 5.815 0 0 0-4.654-1.89 6.246 6.246 0 0 0-4.829 1.89 7.648 7.648 0 0 0-1.745 5.38v16.87h-5.408v-28.213h5.351v4.247a9.083 9.083 0 0 1 3.489-3.518 10.207 10.207 0 0 1 5.12-1.252 9.01 9.01 0 0 1 7.183 2.91zM567.669 298.504h-19.545q0 4.422 2.006 6.691a7.32 7.32 0 0 0 5.788 2.268 6.765 6.765 0 0 0 4.48-1.455 6.242 6.242 0 0 0 2.15-3.955l5.004.93a9.98 9.98 0 0 1-3.722 6.457 12.473 12.473 0 0 1-8.145 2.56q-6.282 0-9.655-3.547-3.376-3.55-3.375-10.006v-2.094a15.759 15.759 0 0 1 1.571-7.185 11.42 11.42 0 0 1 4.421-4.8 12.774 12.774 0 0 1 6.63-1.686 11.771 11.771 0 0 1 9.076 3.577q3.314 3.579 3.316 10.094zm-17.277-9.481a8.915 8.915 0 0 0-2.211 5.526h14.078a8.83 8.83 0 0 0-2.24-5.526 6.996 6.996 0 0 0-9.627 0zM595.676 285.591q2.53 2.909 2.531 8.143v17.684h-5.41v-16.695a8.302 8.302 0 0 0-1.628-5.555 5.815 5.815 0 0 0-4.654-1.89 6.246 6.246 0 0 0-4.828 1.89 7.648 7.648 0 0 0-1.746 5.38v16.87h-5.408v-28.213h5.352v4.247a9.083 9.083 0 0 1 3.488-3.518 10.207 10.207 0 0 1 5.12-1.252 9.01 9.01 0 0 1 7.183 2.91zM621.531 308.917q-3.608-3.082-3.665-8.668l5.177-.697q.232 7.736 8.727 7.737a8.813 8.813 0 0 0 5.555-1.571 4.881 4.881 0 0 0 2.006-4.014 4.29 4.29 0 0 0-1.105-3.083 7.133 7.133 0 0 0-2.791-1.774 44.191 44.191 0 0 0-4.654-1.309 44.742 44.742 0 0 1-6.196-1.89 9.969 9.969 0 0 1-4.043-3.054 8.939 8.939 0 0 1-1.687-5.759 9.547 9.547 0 0 1 1.571-5.322 10.87 10.87 0 0 1 4.508-3.84 15.777 15.777 0 0 1 6.951-1.425 13.32 13.32 0 0 1 8.988 2.967 10.557 10.557 0 0 1 3.576 8.202l-5.177.756a7.104 7.104 0 0 0-2.18-5.44 7.976 7.976 0 0 0-5.38-1.773 7.836 7.836 0 0 0-5.178 1.599 4.987 4.987 0 0 0-1.92 3.984 4.223 4.223 0 0 0 1.134 3.083 7.359 7.359 0 0 0 2.82 1.775q1.687.611 4.714 1.367a40.58 40.58 0 0 1 6.107 1.861 9.982 9.982 0 0 1 4.044 3.083 8.849 8.849 0 0 1 1.657 5.644 9.516 9.516 0 0 1-1.6 5.379 10.921 10.921 0 0 1-4.682 3.839 17.047 17.047 0 0 1-7.213 1.426q-6.458 0-10.064-3.083zM652.245 277.738a3.51 3.51 0 0 1 0-4.885 3.819 3.819 0 0 1 5.001 0 3.51 3.51 0 0 1 0 4.885 3.825 3.825 0 0 1-5 0zm5.234 33.68h-5.408v-28.213h5.408zM689.416 298.504h-19.545q0 4.422 2.006 6.691a7.32 7.32 0 0 0 5.788 2.268 6.765 6.765 0 0 0 4.48-1.455 6.242 6.242 0 0 0 2.151-3.955l5.003.93a9.98 9.98 0 0 1-3.722 6.456 12.473 12.473 0 0 1-8.145 2.56q-6.282 0-9.655-3.547-3.376-3.55-3.375-10.006v-2.094a15.759 15.759 0 0 1 1.571-7.185 11.42 11.42 0 0 1 4.421-4.799 12.774 12.774 0 0 1 6.63-1.686 11.771 11.771 0 0 1 9.076 3.577q3.314 3.579 3.316 10.094zm-17.277-9.481a8.915 8.915 0 0 0-2.211 5.526h14.078a8.83 8.83 0 0 0-2.239-5.526 6.996 6.996 0 0 0-9.628 0zM731.267 286.288q2.994 3.609 2.995 9.947v2.094a17.093 17.093 0 0 1-1.424 7.185 11.075 11.075 0 0 1-4.014 4.8 10.886 10.886 0 0 1-6.078 1.686 8.512 8.512 0 0 1-8.028-4.48v3.898h-5.351v-39.09h5.408v14.891a9.153 9.153 0 0 1 3.462-3.373 10.191 10.191 0 0 1 4.973-1.164 9.935 9.935 0 0 1 8.057 3.606zm-2.531 10.18q0-4.595-1.89-6.951a6.964 6.964 0 0 0-10.44 0q-1.922 2.356-1.92 6.951v1.746q0 4.595 1.92 6.922a6.488 6.488 0 0 0 5.292 2.327 6.265 6.265 0 0 0 5.118-2.356q1.922-2.357 1.92-6.893zM762.592 306.882h3.373v4.536h-8.027v-6.863a9.182 9.182 0 0 1-3.346 5.525 9.858 9.858 0 0 1-6.135 1.92 9.452 9.452 0 0 1-6.544-2.21 7.562 7.562 0 0 1-2.472-5.933 7.872 7.872 0 0 1 3.024-6.34q3.024-2.5 9.074-2.502h5.643v-.7q0-3.72-1.542-5.437a5.748 5.748 0 0 0-4.507-1.716 6.475 6.475 0 0 0-4.568 1.483 6.056 6.056 0 0 0-1.716 4.392l-5.003-.757a8.928 8.928 0 0 1 3.287-6.98 12.608 12.608 0 0 1 8.29-2.618q5.468 0 8.32 2.85 2.846 2.853 2.85 8.61zm-7.504-1.397q2.095-2.21 2.094-6.4v-.056h-5.7a8.362 8.362 0 0 0-4.944 1.163 3.76 3.76 0 0 0-1.571 3.199 3.868 3.868 0 0 0 1.367 3.199 5.6 5.6 0 0 0 3.636 1.104 6.777 6.777 0 0 0 5.118-2.21zM789.117 283.205h5.41v28.213h-5.295v-4.305a9.247 9.247 0 0 1-3.461 3.608 9.648 9.648 0 0 1-4.973 1.279 9.098 9.098 0 0 1-7.213-2.909q-2.56-2.909-2.56-8.143v-17.743h5.41v16.754a8.288 8.288 0 0 0 1.6 5.496 5.714 5.714 0 0 0 4.625 1.89 6.124 6.124 0 0 0 4.74-1.86 7.717 7.717 0 0 0 1.716-5.41zM826.462 298.504h-19.545q0 4.422 2.005 6.691a7.32 7.32 0 0 0 5.789 2.268 6.765 6.765 0 0 0 4.48-1.455 6.243 6.243 0 0 0 2.15-3.955l5.003.93a9.98 9.98 0 0 1-3.721 6.456 12.473 12.473 0 0 1-8.145 2.56q-6.282 0-9.655-3.547-3.376-3.55-3.375-10.006v-2.094a15.757 15.757 0 0 1 1.57-7.185 11.42 11.42 0 0 1 4.422-4.799 12.774 12.774 0 0 1 6.63-1.686 11.771 11.771 0 0 1 9.076 3.576q3.314 3.58 3.316 10.094zm-17.277-9.481a8.915 8.915 0 0 0-2.212 5.526h14.079a8.83 8.83 0 0 0-2.24-5.526 6.996 6.996 0 0 0-9.627 0zM854.47 285.591q2.53 2.909 2.53 8.143v17.684h-5.41v-16.695a8.302 8.302 0 0 0-1.628-5.555 5.815 5.815 0 0 0-4.654-1.89 6.246 6.246 0 0 0-4.828 1.89 7.648 7.648 0 0 0-1.746 5.38v16.87h-5.408v-28.213h5.351v4.247a9.083 9.083 0 0 1 3.49-3.518 10.207 10.207 0 0 1 5.12-1.252 9.01 9.01 0 0 1 7.182 2.91zM8.555 230.87Q.389 224.135 0 211.3l15.164-2.072q.258 7.517 4.665 11.015 4.405 3.5 12.572 3.5 6.74 0 10.433-2.657a8.172 8.172 0 0 0 3.694-6.934 6.882 6.882 0 0 0-2.268-5.314 16.006 16.006 0 0 0-5.638-3.238q-3.373-1.169-9.332-2.593a97.577 97.577 0 0 1-14.191-4.342 23.897 23.897 0 0 1-9.46-7.062q-3.955-4.794-3.954-13.09A21.688 21.688 0 0 1 5.51 165.94a25.47 25.47 0 0 1 10.886-8.748 39.99 39.99 0 0 1 16.523-3.177q13.349 0 21.32 6.546t8.49 18.597l-15.164 2.075q-.388-6.867-4.34-10.11-3.958-3.239-10.565-3.239-6.22 0-9.785 2.721a8.424 8.424 0 0 0-3.563 6.999 6.875 6.875 0 0 0 2.268 5.314 15.94 15.94 0 0 0 5.638 3.239q3.37 1.166 9.46 2.593a109.263 109.263 0 0 1 14.126 4.277 23.329 23.329 0 0 1 9.526 6.999q3.955 4.793 3.953 13.09a21.593 21.593 0 0 1-4.016 12.958 25.38 25.38 0 0 1-11.277 8.555 44.144 44.144 0 0 1-16.849 2.98q-15.425 0-23.586-6.74zM78.05 230.094q-7.45-7.903-7.45-23.069v-4.536a35.817 35.817 0 0 1 3.563-16.46 25.78 25.78 0 0 1 10.11-10.823 29.653 29.653 0 0 1 15.229-3.822q11.402 0 18.403 6.221 6.997 6.22 8.035 16.849l-13.997 2.203a13.563 13.563 0 0 0-3.436-8.749 11.041 11.041 0 0 0-8.359-3.176 11.19 11.19 0 0 0-9.33 4.537q-3.5 4.538-3.5 13.607v3.76q0 9.074 3.566 13.542a11.422 11.422 0 0 0 9.395 4.471q11.014 0 11.794-13.477l14.257 2.203q-1.041 11.537-8.23 18.08Q110.904 238 98.852 238q-13.349 0-20.802-7.906zM184.341 177.734q5.571 6.354 5.573 17.885v40.955h-16.46v-38.232q0-6.351-3.045-9.85t-8.618-3.5a11.055 11.055 0 0 0-8.618 3.5q-3.177 3.5-3.176 9.72v38.363h-16.46v-88h16.46v20.475q0 4.278-.26 12.832a20.695 20.695 0 0 1 7.907-7.777 22.927 22.927 0 0 1 11.274-2.721q9.849 0 15.423 6.35zM283.177 172.808a197.917 197.917 0 0 1-4.73 24.172q-3.305 12.895-11.858 39.593h-17.498l-10.368-44.454-11.405 44.454h-17.367q-8.036-26.178-11.209-39.27a219.298 219.298 0 0 1-4.602-24.495h16.719q1.166 9.593 3.304 20.282 2.14 10.694 6.416 27.801l11.535-48.083h14.774l11.017 47.953q4.536-17.366 6.74-27.93 2.2-10.56 3.37-20.023zM329.767 172.81h16.2v63.764h-15.551l-.13-10.24a20.071 20.071 0 0 1-7.776 8.749 23.906 23.906 0 0 1-24.107-.712 23.75 23.75 0 0 1-8.488-10.564 40.862 40.862 0 0 1-3.045-16.523v-4.795a40.236 40.236 0 0 1 3.11-16.46 24.729 24.729 0 0 1 8.813-10.823 23.412 23.412 0 0 1 13.348-3.823q12.18 0 17.626 9.98zm-34.344-24.236h16.849v14.775h-16.85zm34.344 54.174q0-9.071-3.5-13.545a11.514 11.514 0 0 0-9.589-4.47 11.336 11.336 0 0 0-9.526 4.47q-3.435 4.474-3.435 13.545v3.888q0 9.204 3.435 13.607a11.533 11.533 0 0 0 9.657 4.406 11.336 11.336 0 0 0 9.526-4.47q3.429-4.47 3.433-13.543zm-7.386-54.174h16.847v14.775h-16.847zM402.148 175.078a24.209 24.209 0 0 1 8.49 10.627 40.917 40.917 0 0 1 3.045 16.525v4.665q0 14.387-6.868 22.746Q399.942 238 388.41 238q-11.666 0-17.108-9.073v7.647h-16.071v-88h16.459v32.011q5.701-9.199 17.885-9.202a21.855 21.855 0 0 1 12.572 3.695zm-5.314 27.67q0-9.072-3.433-13.545a11.477 11.477 0 0 0-9.657-4.471 11.339 11.339 0 0 0-9.526 4.471q-3.435 4.473-3.433 13.545v3.887q0 9.075 3.433 13.543a11.472 11.472 0 0 0 9.657 4.471 11.336 11.336 0 0 0 9.526-4.471q3.432-4.47 3.433-13.543zM438.954 163.349h-17.757v-14.775h17.757zm-.649 73.225h-16.59V172.81h16.59zM453.584 232.686q-6.743-5.313-7.258-15.294l14.126-1.944q.258 5.185 3.241 7.84 2.978 2.659 9.46 2.659 11.015 0 11.016-6.87a5.43 5.43 0 0 0-3.305-5.314 48.935 48.935 0 0 0-10.433-2.98 81.65 81.65 0 0 1-11.599-3.11 17.979 17.979 0 0 1-7.84-5.639q-3.243-3.95-3.24-10.821a17.4 17.4 0 0 1 6.868-14.45q6.867-5.378 18.793-5.38 11.275 0 17.885 5.315 6.609 5.315 6.999 14.774l-13.998 2.075q-.65-10.11-11.276-10.11-4.796 0-7.386 1.879a5.988 5.988 0 0 0-2.593 5.12 5.329 5.329 0 0 0 3.305 5.183 48.745 48.745 0 0 0 10.303 2.982 78.863 78.863 0 0 1 11.664 3.111 18.536 18.536 0 0 1 7.84 5.636q3.305 3.957 3.305 10.823a17.285 17.285 0 0 1-6.996 14.45q-7 5.378-19.442 5.38-12.702-.001-19.44-5.315zM512.614 230.094q-7.454-7.903-7.451-23.069v-4.536a35.818 35.818 0 0 1 3.563-16.46 25.768 25.768 0 0 1 10.11-10.823 29.65 29.65 0 0 1 15.227-3.822q11.406 0 18.405 6.221 6.998 6.22 8.035 16.849l-13.997 2.203a13.563 13.563 0 0 0-3.435-8.749 11.041 11.041 0 0 0-8.36-3.176 11.19 11.19 0 0 0-9.33 4.537q-3.5 4.538-3.5 13.607v3.76q0 9.074 3.564 13.542a11.426 11.426 0 0 0 9.398 4.471q11.014 0 11.792-13.477l14.256 2.203q-1.038 11.537-8.229 18.08Q545.47 238 533.416 238q-13.351 0-20.802-7.906zM620.376 177.734q5.574 6.354 5.575 17.885v40.955H609.49v-38.232q0-6.351-3.045-9.85t-8.619-3.5a11.055 11.055 0 0 0-8.618 3.5q-3.177 3.5-3.176 9.72v38.363h-16.46v-88h16.46v20.475q0 4.278-.26 12.832a20.696 20.696 0 0 1 7.907-7.777 22.935 22.935 0 0 1 11.276-2.721q9.848 0 15.421 6.35zM735.499 236.574H718v-34.216h-34.554v34.216H665.95v-81.65h17.496v33.178H718v-33.178h17.498zM785.946 172.81h16.2v63.764h-15.552l-.13-10.24a20.072 20.072 0 0 1-7.776 8.749 23.906 23.906 0 0 1-24.106-.712 23.75 23.75 0 0 1-8.488-10.564 40.828 40.828 0 0 1-3.047-16.523v-4.795a40.269 40.269 0 0 1 3.11-16.46 24.746 24.746 0 0 1 8.814-10.823 23.412 23.412 0 0 1 13.349-3.823q12.18 0 17.626 9.98zm0 29.938q0-9.071-3.5-13.545a11.514 11.514 0 0 0-9.59-4.47 11.336 11.336 0 0 0-9.526 4.47q-3.435 4.474-3.435 13.545v3.888q0 9.204 3.435 13.607a11.532 11.532 0 0 0 9.655 4.406 11.336 11.336 0 0 0 9.526-4.47q3.432-4.47 3.435-13.543zM829.577 236.574h-16.46v-88h16.46zM857 236.574h-16.46v-88H857z"/></svg>
