<svg version="1.1" id="Layer_1" xmlns="http://www.w3.org/2000/svg" xmlns:xlink="http://www.w3.org/1999/xlink" x="0px" y="0px"
	 width="100%" viewBox="0 0 400 400" enable-background="new 0 0 400 400" xml:space="preserve">
<path fill="#202020" opacity="1.000000" stroke="none" 
	d="
M192.000000,401.000000 
	C128.019836,401.000000 64.539680,401.000000 1.029761,401.000000 
	C1.029761,267.728180 1.029761,134.456329 1.029761,1.092250 
	C134.230118,1.092250 267.460327,1.092250 400.845276,1.092250 
	C400.845276,134.333191 400.845276,267.666565 400.845276,401.000000 
	C331.456390,401.000000 261.978210,401.000000 192.000000,401.000000 
M133.500000,81.000000 
	C116.075264,81.000000 98.650528,81.000000 81.283279,81.000000 
	C81.283279,160.975784 81.283279,240.359436 81.283279,319.708740 
	C101.299133,319.708740 121.030304,319.708740 141.164703,319.708740 
	C141.164703,260.029236 141.164703,200.639908 141.164703,140.836472 
	C171.299622,140.836472 201.030487,140.836472 230.701920,140.836472 
	C230.701920,120.687088 230.701920,100.955811 230.701920,81.000000 
	C198.436234,81.000000 166.468124,81.000000 133.500000,81.000000 
M321.000000,183.510651 
	C321.000000,179.410156 321.000000,175.309677 321.000000,171.288940 
	C270.686279,171.288940 220.965668,171.288940 171.294922,171.288940 
	C171.294922,191.309204 171.294922,211.039108 171.294922,231.179260 
	C201.316513,231.179260 231.045334,231.179260 261.182495,231.179260 
	C261.182495,260.986389 261.182495,290.382019 261.182495,319.695831 
	C281.327850,319.695831 301.057922,319.695831 321.000000,319.695831 
	C321.000000,274.430756 321.000000,229.469513 321.000000,183.510651 
M176.605072,261.000000 
	C174.832809,261.000000 173.060532,261.000000 171.265045,261.000000 
	C171.265045,280.921478 171.265045,300.314758 171.265045,319.733582 
	C191.257706,319.733582 210.984207,319.733582 230.560532,319.733582 
	C230.784576,319.330322 230.929047,319.192413 230.926987,319.056732 
	C230.667389,301.829163 229.695297,284.570099 230.469864,267.389771 
	C230.783051,260.443268 227.787094,261.003845 223.551453,261.002258 
	C208.227951,260.996521 192.904434,261.000000 176.605072,261.000000 
z"/>
<path fill="#FFFFFF" opacity="1.000000" stroke="none" 
	d="
M134.000000,81.000000 
	C166.468124,81.000000 198.436234,81.000000 230.701920,81.000000 
	C230.701920,100.955811 230.701920,120.687088 230.701920,140.836472 
	C201.030487,140.836472 171.299622,140.836472 141.164703,140.836472 
	C141.164703,200.639908 141.164703,260.029236 141.164703,319.708740 
	C121.030304,319.708740 101.299133,319.708740 81.283279,319.708740 
	C81.283279,240.359436 81.283279,160.975784 81.283279,81.000000 
	C98.650528,81.000000 116.075264,81.000000 134.000000,81.000000 
z"/>
<path fill="#FFFFFF" opacity="1.000000" stroke="none" 
	d="
M321.000000,184.009460 
	C321.000000,229.469513 321.000000,274.430756 321.000000,319.695831 
	C301.057922,319.695831 281.327850,319.695831 261.182495,319.695831 
	C261.182495,290.382019 261.182495,260.986389 261.182495,231.179260 
	C231.045334,231.179260 201.316513,231.179260 171.294922,231.179260 
	C171.294922,211.039108 171.294922,191.309204 171.294922,171.288940 
	C220.965668,171.288940 270.686279,171.288940 321.000000,171.288940 
	C321.000000,175.309677 321.000000,179.410156 321.000000,184.009460 
z"/>
<path fill="#FFFFFF" opacity="1.000000" stroke="none" 
	d="
M177.093002,261.000000 
	C192.904434,261.000000 208.227951,260.996521 223.551453,261.002258 
	C227.787094,261.003845 230.783051,260.443268 230.469864,267.389771 
	C229.695297,284.570099 230.667389,301.829163 230.926987,319.056732 
	C230.929047,319.192413 230.784576,319.330322 230.560532,319.733582 
	C210.984207,319.733582 191.257706,319.733582 171.265045,319.733582 
	C171.265045,300.314758 171.265045,280.921478 171.265045,261.000000 
	C173.060532,261.000000 174.832809,261.000000 177.093002,261.000000 
z"/>
</svg>