<svg version="1.1" id="Layer_1" xmlns:x="ns_extend;" xmlns:i="ns_ai;" xmlns:graph="ns_graphs;" xmlns="http://www.w3.org/2000/svg" xmlns:xlink="http://www.w3.org/1999/xlink" x="0px" y="0px" viewBox="0 0 412 58.2" style="enable-background:new 0 0 412 58.2;" xml:space="preserve">
 <style type="text/css">
  .st0{fill:#00B7F1;}
 </style>
 <metadata>
  <sfw xmlns="ns_sfw;">
   <slices>
   </slices>
   <sliceSourceBounds bottomLeftOrigin="true" height="58.2" width="412" x="-96.4" y="94.8">
   </sliceSourceBounds>
  </sfw>
 </metadata>
 <g id="Group_4622" transform="translate(-74.534 -260.66)">
  <g id="Group_4621" transform="translate(74.534 260.66)">
   <path id="Path_4311" class="st0" d="M92.7,5.6c12,0,16.7,5.5,16.7,12.7c0.1,4.1-2.2,7.9-5.9,9.6c4.5,1.6,7.5,6,7.3,10.8
			c0,7.6-4.8,13.2-17.2,13.2H76.2V5.6L92.7,5.6z M83.6,12.4V25h9.2c7,0,9.4-2.8,9.4-6.3c0-3.7-2.4-6.3-9.4-6.3H83.6z M83.6,31.3V45
			h10.1c7.4,0,9.9-2.7,9.9-6.8c0-3.9-2.5-6.8-9.9-6.8H83.6z M117.7,2h7v38c0,4.3,1.3,5.6,3.1,5.6c0.9,0,1.7-0.2,2.5-0.6l2.1,6.3
			c-1.7,0.7-3.6,1-5.5,1c-5.2,0-9.2-3.1-9.2-12.3L117.7,2z M166.6,50.7c-4.8,1.3-9.8,1.9-14.8,1.8c-8.7,0-15.1-4.3-15.1-15.4V16.3h7
			v21.3c0,6.6,3.4,8.2,8.6,8.2c2.4,0.1,4.8-0.1,7.2-0.6V16.3h7.1L166.6,50.7z M205.2,36.7h-24.1V37c0,5.8,3.8,8.8,10.1,8.8
			c3.8,0.1,7.6-0.5,11.2-1.8l2.1,6.3c-4.3,1.5-8.8,2.2-13.3,2.1c-10.7,0-17.3-5.3-17.3-17.8v-1.5c0-12.4,6.1-17.7,15.7-17.7
			c9.5,0,15.6,5.3,15.6,17.7L205.2,36.7z M181.1,31.3H198V31c0-6-3.3-8.7-8.4-8.7s-8.5,2.8-8.5,8.7L181.1,31.3z M227.6,33.9v17.9
			h-7.4V34L202.5,5.6h8.3l13.1,21.6l13-21.6h8.3L227.6,33.9z M240.9,33.5c0-12.7,6.8-17.9,16-17.9c9.2,0,16,5.2,16,17.9v1.1
			c0,12.7-6.8,17.9-16,17.9c-9.2,0-16-5.2-16-17.9V33.5z M265.7,33.5c0-8.5-3.3-11.2-8.8-11.2c-5.6,0-8.9,2.7-8.9,11.2v1.1
			c0,8.5,3.3,11.2,8.9,11.2c5.5,0,8.8-2.7,8.8-11.2V33.5z M279.8,17.4c4.8-1.3,9.7-1.9,14.7-1.8c8.7,0,15.2,4.3,15.2,15.4v20.8h-7
			V30.5c0-6.6-3.4-8.2-8.6-8.2c-2.4-0.1-4.9,0.1-7.3,0.6v28.9h-7V17.4z M346.2,50.7c-4.4,1.2-8.9,1.9-13.5,1.8
			c-9.7,0-16.4-5.8-16.4-17.8v-1.4c0-12.3,7-17.8,16.6-17.8c2.1,0,4.3,0.3,6.3,1.1V2h7L346.2,50.7z M323.4,34.7
			c0,8.7,3.6,11.1,9.5,11.1c2.1,0.1,4.2-0.2,6.3-0.7V23.4c-1.8-0.9-3.8-1.3-5.8-1.2c-5.9,0-10,2.3-10,11.1L323.4,34.7z M384.7,36.7
			h-24.1V37c0,5.8,3.8,8.8,10.1,8.8c3.8,0.1,7.6-0.5,11.2-1.8l2.1,6.3c-4.3,1.5-8.8,2.2-13.3,2.1c-10.7,0-17.3-5.3-17.3-17.8v-1.5
			c0-12.4,6.1-17.7,15.7-17.7c9.5,0,15.6,5.3,15.6,17.7L384.7,36.7z M360.7,31.3h16.8V31c0-6-3.3-8.7-8.4-8.7s-8.5,2.8-8.5,8.7V31.3
			z M392,17.4c3.9-1.2,7.9-1.8,11.9-1.8c2.7,0,5.4,0.3,8,0.9l-2.1,6.5c-1.8-0.5-3.6-0.7-5.5-0.7c-1.8,0-3.6,0.2-5.3,0.6v28.9h-7
			L392,17.4z">
   </path>
   <path id="Path_4312" class="st0" d="M29.1,0c-5,0-9,4-9,9s4,9,9,9c5,0,9-4,9-9l0,0C38.1,4,34.1,0,29.1,0z M29.1,58.2c5,0,9-4,9-9
			s-4-9-9-9c-5,0-9,4-9,9l0,0C20.1,54.2,24.1,58.2,29.1,58.2z M31,29.1c0,0.9,0.5,1.6,1.3,2l0,0l13.1,6.2l0,0
			c4.5,2.1,9.9,0.2,12-4.3c2.1-4.5,0.2-9.9-4.3-12c-2.4-1.1-5.2-1.1-7.7,0l0,0l-13.1,6.2l0,0C31.5,27.5,31,28.3,31,29.1L31,29.1z
			 M27.2,29.1c0-0.9-0.5-1.6-1.3-2l0,0l-13.1-6.2l0,0c-4.5-2.1-9.9-0.2-12,4.3c-2.1,4.5-0.2,9.9,4.3,12c2.4,1.1,5.2,1.1,7.7,0l0,0
			l13.1-6.2l0,0C26.7,30.7,27.2,30,27.2,29.1L27.2,29.1z">
   </path>
  </g>
 </g>
</svg>