<?xml version="1.0" encoding="UTF-8" standalone="no"?>
<!DOCTYPE svg PUBLIC "-//W3C//DTD SVG 1.1//EN" "http://www.w3.org/Graphics/SVG/1.1/DTD/svg11.dtd">
<svg width="100%" height="100%" viewBox="0 0 2056 230" version="1.1" xmlns="http://www.w3.org/2000/svg" xmlns:xlink="http://www.w3.org/1999/xlink" xml:space="preserve" xmlns:serif="http://www.serif.com/" style="fill-rule:evenodd;clip-rule:evenodd;stroke-linejoin:round;stroke-miterlimit:2;">
    <g transform="matrix(0.884536,0,0,0.56171,-402.935,-508.86)">
        <path d="M455.532,1306.48L455.532,913.215L478.551,913.215L478.551,1071.51C488.267,1052.73 499.142,1038.69 511.176,1029.39C523.21,1020.09 536.403,1015.44 550.756,1015.44C576.259,1015.44 598.036,1030 616.087,1059.12C634.138,1088.24 643.164,1123.58 643.164,1165.13C643.164,1206.16 634.055,1241.19 615.839,1270.23C597.622,1299.26 575.707,1313.78 550.093,1313.78C535.409,1313.78 522.106,1308.82 510.182,1298.91C498.259,1289 487.715,1274.14 478.551,1254.32L478.551,1306.48L455.532,1306.48ZM548.272,1278.57C561.189,1278.57 573.112,1273.57 584.042,1263.58C594.972,1253.58 603.667,1239.54 610.125,1221.46C616.584,1203.38 619.813,1184.26 619.813,1164.09C619.813,1143.92 616.556,1124.71 610.043,1106.45C603.529,1088.2 594.779,1073.99 583.794,1063.82C572.809,1053.65 561.078,1048.56 548.603,1048.56C535.906,1048.56 523.845,1053.65 512.418,1063.82C500.991,1073.99 492.214,1087.68 486.087,1104.89C479.959,1122.1 476.895,1141.49 476.895,1163.05C476.895,1195.9 483.768,1223.37 497.513,1245.45C511.259,1267.53 528.178,1278.57 548.272,1278.57Z" style="fill:rgb(142,142,142);fill-rule:nonzero;"/>
        <path d="M676.616,1022.74L700.298,1022.74L700.298,1064.21C707.364,1047.87 714.816,1035.65 722.654,1027.57C730.493,1019.48 738.663,1015.44 747.164,1015.44C753.568,1015.44 760.413,1018.66 767.699,1025.09L755.61,1055.86C750.752,1052.56 746.667,1050.91 743.355,1050.91C735.627,1050.91 728.175,1055.91 720.998,1065.9C713.822,1075.9 708.357,1091.42 704.603,1112.45C701.733,1128.62 700.298,1161.31 700.298,1210.51L700.298,1306.48L676.616,1306.48L676.616,1022.74Z" style="fill:rgb(142,142,142);fill-rule:nonzero;"/>
        <path d="M939.101,1212.33L958.643,1228.5C952.239,1248.32 944.842,1264.32 936.452,1276.49C928.061,1288.65 918.621,1297.91 908.133,1304.26C897.645,1310.61 885.776,1313.78 872.528,1313.78C843.16,1313.78 820.196,1298.61 803.636,1268.27C787.075,1237.93 778.795,1203.64 778.795,1165.39C778.795,1129.4 785.806,1097.33 799.827,1069.16C817.602,1033.35 841.394,1015.44 871.203,1015.44C901.895,1015.44 926.405,1033.78 944.732,1070.47C957.76,1096.37 964.384,1128.71 964.605,1167.48L802.642,1167.48C803.084,1200.51 809.763,1227.59 822.68,1248.71C835.598,1269.84 851.551,1280.4 870.541,1280.4C879.704,1280.4 888.619,1277.88 897.286,1272.84C905.953,1267.79 913.322,1261.1 919.394,1252.75C925.466,1244.41 932.035,1230.93 939.101,1212.33ZM939.101,1135.92C936.01,1116.45 931.511,1100.89 925.604,1089.24C919.698,1077.6 911.887,1068.21 902.171,1061.08C892.456,1053.95 882.243,1050.39 871.534,1050.39C853.87,1050.39 838.689,1059.34 825.993,1077.25C816.719,1090.29 809.708,1109.85 804.961,1135.92L939.101,1135.92Z" style="fill:rgb(142,142,142);fill-rule:nonzero;"/>
        <path d="M1007.66,1022.74L1030.68,1022.74L1030.68,1071.77C1038.74,1053.69 1047.02,1040.48 1055.52,1032.13C1067.22,1021 1079.54,1015.44 1092.45,1015.44C1101.17,1015.44 1109.45,1018.14 1117.29,1023.53C1125.13,1028.92 1131.54,1036.09 1136.5,1045.04C1141.47,1053.99 1145.78,1066.82 1149.42,1083.51C1157.15,1061.25 1166.81,1044.35 1178.4,1032.78C1189.99,1021.22 1202.47,1015.44 1215.83,1015.44C1228.3,1015.44 1239.32,1020.4 1248.87,1030.31C1258.42,1040.22 1265.51,1054.04 1270.15,1071.77C1274.78,1089.5 1277.1,1116.1 1277.1,1151.57L1277.1,1306.48L1253.42,1306.48L1253.42,1151.57C1253.42,1121.15 1252.04,1100.24 1249.28,1088.85C1246.52,1077.46 1241.8,1068.29 1235.12,1061.34C1228.44,1054.38 1220.47,1050.91 1211.19,1050.91C1199.93,1050.91 1189.63,1056.12 1180.31,1066.56C1170.98,1076.99 1164.16,1090.89 1159.85,1108.28C1155.55,1125.67 1153.39,1154.7 1153.39,1195.38L1153.39,1306.48L1130.38,1306.48L1130.38,1161.22C1130.38,1126.97 1129.02,1103.72 1126.32,1091.46C1123.61,1079.2 1118.89,1069.38 1112.16,1061.99C1105.42,1054.6 1097.42,1050.91 1088.15,1050.91C1077.44,1050.91 1067.42,1055.99 1058.09,1066.16C1048.76,1076.34 1041.86,1090.03 1037.39,1107.24C1032.92,1124.45 1030.68,1150.79 1030.68,1186.26L1030.68,1306.48L1007.66,1306.48L1007.66,1022.74Z" style="fill:rgb(142,142,142);fill-rule:nonzero;"/>
        <path d="M1477.65,1212.33L1497.19,1228.5C1490.79,1248.32 1483.39,1264.32 1475,1276.49C1466.61,1288.65 1457.17,1297.91 1446.68,1304.26C1436.19,1310.61 1424.33,1313.78 1411.08,1313.78C1381.71,1313.78 1358.75,1298.61 1342.19,1268.27C1325.62,1237.93 1317.35,1203.64 1317.35,1165.39C1317.35,1129.4 1324.36,1097.33 1338.38,1069.16C1356.15,1033.35 1379.94,1015.44 1409.75,1015.44C1440.44,1015.44 1464.95,1033.78 1483.28,1070.47C1496.31,1096.37 1502.93,1128.71 1503.15,1167.48L1341.19,1167.48C1341.63,1200.51 1348.31,1227.59 1361.23,1248.71C1374.15,1269.84 1390.1,1280.4 1409.09,1280.4C1418.25,1280.4 1427.17,1277.88 1435.84,1272.84C1444.5,1267.79 1451.87,1261.1 1457.94,1252.75C1464.02,1244.41 1470.59,1230.93 1477.65,1212.33ZM1477.65,1135.92C1474.56,1116.45 1470.06,1100.89 1464.15,1089.24C1458.25,1077.6 1450.44,1068.21 1440.72,1061.08C1431.01,1053.95 1420.79,1050.39 1410.08,1050.39C1392.42,1050.39 1377.24,1059.34 1364.54,1077.25C1355.27,1090.29 1348.26,1109.85 1343.51,1135.92L1477.65,1135.92Z" style="fill:rgb(142,142,142);fill-rule:nonzero;"/>
        <path d="M1537.6,1022.74L1561.28,1022.74L1561.28,1064.21C1568.35,1047.87 1575.8,1035.65 1583.64,1027.57C1591.48,1019.48 1599.65,1015.44 1608.15,1015.44C1614.55,1015.44 1621.4,1018.66 1628.68,1025.09L1616.6,1055.86C1611.74,1052.56 1607.65,1050.91 1604.34,1050.91C1596.61,1050.91 1589.16,1055.91 1581.98,1065.9C1574.81,1075.9 1569.34,1091.42 1565.59,1112.45C1562.72,1128.62 1561.28,1161.31 1561.28,1210.51L1561.28,1306.48L1537.6,1306.48L1537.6,1022.74Z" style="fill:rgb(142,142,142);fill-rule:nonzero;"/>
        <rect x="1633.32" y="1146.36" width="91.083" height="31.816" style="fill:rgb(142,142,142);fill-rule:nonzero;"/>
        <path d="M1760.84,1022.74L1783.86,1022.74L1783.86,1071.77C1791.92,1053.69 1800.2,1040.48 1808.7,1032.13C1820.4,1021 1832.71,1015.44 1845.63,1015.44C1854.35,1015.44 1862.63,1018.14 1870.47,1023.53C1878.31,1028.92 1884.71,1036.09 1889.68,1045.04C1894.65,1053.99 1898.95,1066.82 1902.6,1083.51C1910.32,1061.25 1919.99,1044.35 1931.58,1032.78C1943.17,1021.22 1955.64,1015.44 1969,1015.44C1981.48,1015.44 1992.49,1020.4 2002.04,1030.31C2011.59,1040.22 2018.69,1054.04 2023.32,1071.77C2027.96,1089.5 2030.28,1116.1 2030.28,1151.57L2030.28,1306.48L2006.6,1306.48L2006.6,1151.57C2006.6,1121.15 2005.22,1100.24 2002.46,1088.85C1999.7,1077.46 1994.98,1068.29 1988.3,1061.34C1981.62,1054.38 1973.64,1050.91 1964.37,1050.91C1953.11,1050.91 1942.81,1056.12 1933.48,1066.56C1924.15,1076.99 1917.34,1090.89 1913.03,1108.28C1908.72,1125.67 1906.57,1154.7 1906.57,1195.38L1906.57,1306.48L1883.55,1306.48L1883.55,1161.22C1883.55,1126.97 1882.2,1103.72 1879.49,1091.46C1876.79,1079.2 1872.07,1069.38 1865.34,1061.99C1858.6,1054.6 1850.6,1050.91 1841.32,1050.91C1830.61,1050.91 1820.59,1055.99 1811.27,1066.16C1801.93,1076.34 1795.04,1090.03 1790.56,1107.24C1786.09,1124.45 1783.86,1150.79 1783.86,1186.26L1783.86,1306.48L1760.84,1306.48L1760.84,1022.74Z" style="fill:rgb(142,142,142);fill-rule:nonzero;"/>
        <path d="M2230.83,1212.33L2250.37,1228.5C2243.97,1248.32 2236.57,1264.32 2228.18,1276.49C2219.79,1288.65 2210.35,1297.91 2199.86,1304.26C2189.37,1310.61 2177.5,1313.78 2164.25,1313.78C2134.89,1313.78 2111.92,1298.61 2095.36,1268.27C2078.8,1237.93 2070.52,1203.64 2070.52,1165.39C2070.52,1129.4 2077.53,1097.33 2091.55,1069.16C2109.33,1033.35 2133.12,1015.44 2162.93,1015.44C2193.62,1015.44 2218.13,1033.78 2236.46,1070.47C2249.49,1096.37 2256.11,1128.71 2256.33,1167.48L2094.37,1167.48C2094.81,1200.51 2101.49,1227.59 2114.41,1248.71C2127.32,1269.84 2143.28,1280.4 2162.27,1280.4C2171.43,1280.4 2180.35,1277.88 2189.01,1272.84C2197.68,1267.79 2205.05,1261.1 2211.12,1252.75C2217.19,1244.41 2223.76,1230.93 2230.83,1212.33ZM2230.83,1135.92C2227.74,1116.45 2223.24,1100.89 2217.33,1089.24C2211.42,1077.6 2203.61,1068.21 2193.9,1061.08C2184.18,1053.95 2173.97,1050.39 2163.26,1050.39C2145.6,1050.39 2130.41,1059.34 2117.72,1077.25C2108.44,1090.29 2101.43,1109.85 2096.69,1135.92L2230.83,1135.92Z" style="fill:rgb(142,142,142);fill-rule:nonzero;"/>
        <path d="M2479.4,913.215L2479.4,1306.48L2456.55,1306.48L2456.55,1257.71C2446.83,1276.31 2435.93,1290.31 2423.84,1299.69C2411.75,1309.08 2398.53,1313.78 2384.18,1313.78C2358.68,1313.78 2336.9,1299.22 2318.85,1270.1C2300.8,1240.98 2291.77,1205.55 2291.77,1163.83C2291.77,1122.97 2300.88,1088.03 2319.1,1058.99C2337.31,1029.96 2359.23,1015.44 2384.84,1015.44C2399.64,1015.44 2413.02,1020.4 2425,1030.31C2436.98,1040.22 2447.49,1055.08 2456.55,1074.9L2456.55,913.215L2479.4,913.215ZM2386.66,1050.65C2373.74,1050.65 2361.82,1055.65 2350.89,1065.64C2339.96,1075.64 2331.27,1089.68 2324.81,1107.76C2318.35,1125.84 2315.12,1144.96 2315.12,1165.13C2315.12,1185.12 2318.38,1204.25 2324.89,1222.5C2331.41,1240.76 2340.15,1254.97 2351.14,1265.14C2362.12,1275.31 2373.91,1280.4 2386.5,1280.4C2399.19,1280.4 2411.23,1275.36 2422.6,1265.27C2433.97,1255.19 2442.72,1241.54 2448.85,1224.33C2454.97,1207.12 2458.04,1187.73 2458.04,1166.17C2458.04,1133.32 2451.17,1105.85 2437.42,1083.77C2423.68,1061.69 2406.76,1050.65 2386.66,1050.65Z" style="fill:rgb(142,142,142);fill-rule:nonzero;"/>
        <path d="M2540.01,905.913C2545.31,905.913 2549.84,908.868 2553.59,914.78C2557.35,920.691 2559.22,927.819 2559.22,936.164C2559.22,944.335 2557.35,951.376 2553.59,957.287C2549.84,963.198 2545.31,966.154 2540.01,966.154C2534.82,966.154 2530.35,963.198 2526.6,957.287C2522.85,951.376 2520.97,944.335 2520.97,936.164C2520.97,927.819 2522.85,920.691 2526.6,914.78C2530.35,908.868 2534.82,905.913 2540.01,905.913ZM2528.42,1022.74L2551.77,1022.74L2551.77,1306.48L2528.42,1306.48L2528.42,1022.74Z" style="fill:rgb(142,142,142);fill-rule:nonzero;"/>
        <path d="M2779.31,1022.74L2779.31,1306.48L2756.46,1306.48L2756.46,1257.71C2746.74,1276.31 2735.84,1290.31 2723.75,1299.69C2711.66,1309.08 2698.44,1313.78 2684.09,1313.78C2658.59,1313.78 2636.81,1299.22 2618.76,1270.1C2600.71,1240.98 2591.68,1205.55 2591.68,1163.83C2591.68,1122.97 2600.79,1088.03 2619.01,1058.99C2637.22,1029.96 2659.14,1015.44 2684.75,1015.44C2699.55,1015.44 2712.93,1020.4 2724.91,1030.31C2736.89,1040.22 2747.41,1055.08 2756.46,1074.9L2756.46,1022.74L2779.31,1022.74ZM2686.57,1050.65C2673.66,1050.65 2661.73,1055.65 2650.8,1065.64C2639.87,1075.64 2631.18,1089.68 2624.72,1107.76C2618.26,1125.84 2615.03,1144.96 2615.03,1165.13C2615.03,1185.12 2618.29,1204.25 2624.8,1222.5C2631.32,1240.76 2640.07,1254.97 2651.05,1265.14C2662.04,1275.31 2673.82,1280.4 2686.41,1280.4C2699.11,1280.4 2711.14,1275.36 2722.51,1265.27C2733.88,1255.19 2742.63,1241.54 2748.76,1224.33C2754.89,1207.12 2757.95,1187.73 2757.95,1166.17C2757.95,1133.32 2751.08,1105.85 2737.33,1083.77C2723.59,1061.69 2706.67,1050.65 2686.57,1050.65Z" style="fill:rgb(142,142,142);fill-rule:nonzero;"/>
    </g>
</svg>
