<?xml version="1.0" encoding="UTF-8"?>
<svg id="Ebene_1" xmlns="http://www.w3.org/2000/svg" version="1.1" viewBox="0 0 960 900.96">
  <!-- Generator: Adobe Illustrator 30.2.1, SVG Export Plug-In . SVG Version: 2.1.1 Build 1)  -->
  <path d="M390.24,321.429c-.156.232-.292.765-.385,1.048l-.575-.089.317-.839c.055-.146.57-.12.643-.12Z" fill="#1d365e"/>
  <path d="M435.409,251.406l-.092.575-1.397-.115c.343-.214,1.046-.384,1.489-.46Z" fill="#1d365e"/>
  <path d="M560.607,308.647c.113.01.317.01.442.01.58,1.524,2.49,1.762,4.004,2.565,1.427.756,2.776,2.391,4.175,1.117l1.012-.025c.687,1.809,3.04,2.315,4.869,3.217l4.889,2.41c2.52,1.242,7.084,4.92,7.414,3.472l1.068.016.947,1.914c.256.518,3.257,2.993,4.809,3.377,1.19.295,2.188,1.264,2.811,2.385.013,1.741,1.141,3.704,2.953,3.838.037.394-.018,1.185.077,1.565.268,1.068,1.439,2.909,2.12,3.859l.087.805c.074.682.482,5.732,2.036,5.764.054.356.011,1.067,0,1.439-.765,2.466-.778,5.67,0,8.156v1.439c-1.478.114-2.046,4.984-1.978,6.703l.058,1.453c-1.653.977-2.451,4.357-2.687,6.031-.04.281-.222.798-.315,1.09-1.307.695-2.058,2.445-1.846,3.898-.203.284.095,1.242-.175,1.464s-.846.412-1.217.469c-1.132.173-1.381,1.697-1.44,2.878-.159.706-.903,1.529-1.44,1.919-.23.167-.405.68-.48.959-.112.495-.538,1.244-.96,1.439l-1.369.633c-.324.15-.168.915-.161,1.272.007.333-.04,1.132-.363,1.211l-.986.242c-.255.063-.913.037-.922.3l-.038,1.139v.48c-.287.211-.722.655-.96.959-.8.102-1.564.638-1.841,1.393-.154.143-.418.398-.576.507-.939.65-2.783,2.14-2.904,3.376l.04.961h-.48l-1.44,1.439-.48.48-.48.48-.96.48-.96,1.439c-.109.002-.362.004-.48,0l-.963-.031c-2.838,1.113-4.199,2.83-7.786,4.895-2.316,1.333-5.607,2.385-4.818,2.666-.122.022-.342.064-.456.105-.625.224-1.568.955-1.818,1.481-.239,0-.695-.053-.952-.082-1.552-.172-3.437.68-4.44,1.86l-.848.141c-.036-.043-.692-.713-.741-.495l-.219.975-1.934-.152c-3.943-.311-5.672,1.496-10.935,1.29l-.091.781h-4.8l-.076-.737c-4.98.135-6.057-1.91-10.47-1.323-.73.097-2.223-.023-2.894-.339-.849-.399-1.599-.619-2.4,0h-1.92c.148.063-.526-.784-.741-.824l-8.666-1.599c-.26-.048-1.416.518-1.154.504-1.079-.07-2.315-.198-3.36-.48l-2.673-.721c-2.406-.649-4.656-1.514-6.914-1.266-.377.041-1.097.139-1.454.068.132-.835-3.481-2.24-5.285-2.061l-1.435.142-.218-.977c-.05-.222-.706.447-.742.497-.383.013-1.088.078-1.44,0,.223-1.744-7.21-2.399-8.16-2.399h-1.92c-.601-.689-2.279-.689-2.88,0h-2.4l-.017-.728c-.004-.18-.574-.231-1.063-.231l-13.114-.007c-.331,0-.877.946-.686.966h-1.44c-.414-.647-1.986-.647-2.4,0h-2.88c-2.849,0-6.028.601-8.16,2.399-.239.016-.697.004-.96,0l-1.252-.595c-.311-.148-.693.777-.668,1.075-.241,0-.699-.096-.955-.133-1.469-.213-5.043,1.461-4.805,2.052-.229-.011-.716-.068-.952-.108-1.602-.276-4.537,1.067-5.768,2.507l-.974-.12c-1.4-.172-2.916.621-3.346,2.039l-.48.48h-.48l-1.454-.111c-1.375-.105-2.959.866-4.015,1.816-.189.024-.571.088-.763.098-1.751.089-6.221,1.421-6.248,2.515l-1.934-.052c-1.49-.04-7.914.771-7.666,1.971h-.96l-1.12-.528c-.219-.103-.578.433-.8.528-.86.368-2.717.161-3.834.137l-6.246-.137-1.142-.554c-.22-.107-.732.433-.778.554l-1.308-.154c-1.087-1.171-3.949-1.937-5.421-1.896-.189.005-.565-.065-.75-.088-1.769-1.539-4.095-2.478-6.433-3.221-.511-.799-1.637-1.23-2.822-1.533l-1.399-1.708-.373-.928c-.086-.214-.59.325-.695.413-1.151.009-1.456-1.028-1.909-1.923-.741-1.463-2.319-2.727-3.519-4.076-1.394-1.567-2.538-3.259-4.173-4.075l-.96-.48-.48-.959c.454-.207.335-1.446-.008-1.979-1.792-2.79-3.322-5.611-4.425-8.648l-1.246-3.43c-.11-.303-.54-1.034-.81-.986-.184.033-.545.128-.712.172,0-.501-.357-1.428-.48-1.919l1.455.927c-1.315-6.888-1.765-13.857.437-20.625,2.817-8.655,9.25-16.223,17.593-20.004l4.997-2.265,4.942-2.492c4.697-2.368,16.003-10.692,17.231-14.461.998-.368,2.031-1.383,2.822-2.496l3.505-4.93c.146-.205.291-1.124.044-1.169l-.706-.129c.265-.571.643-1.404.96-1.919l.48,1.743,2.425-4.14c.782-1.335,3.77-7.258,3.98-9.113l-1.124.956.48-1.439c2.166-.795,2.3-3.402,3.049-5.518l2.383-6.731c1.036-2.925,3.192-8.104,4.61-10.733l2.383-4.418c3.745-6.943,10.888-13.729,17.415-18.147,1.119-.757,2.244-1.358,2.757-2.313,1.488.123,2.773-1.116,4.131-1.802,1.581-.799,3.287-1.63,4.848-2.272l5.914-2.432,4.202-1.114c2.343-.621,4.409-1.573,6.855-1.767,6.224-.492,10.004-2.428,18.522-1.621,9.685.918,19.515,2.668,28.173,6.848l5.182,2.502c6.679,3.225,11.537,8.092,14.986,14.53,1.001,1.867,1.269,3.793,1.969,5.856l2.429,7.158c1.373,4.044,3.936,8.456,6.382,12.195,4.523,6.915,10.735,12.213,17.691,16.746,1.118.729,2.927,1.742,4.006,1.839Z" fill="#1d365e"/>
  <path d="M786.344,265.069c1.149-1.148,1.991-2.071,2.184-3.446l-70.404-70.674-19.913-19.95c-.613-.614-1.495-.988-1.69-1.529-.194-.536-.066-2.395.336-2.799l36.459-36.635,5.822-5.888c2.223-2.249,4.374-4.655,6.975-6.14l143.91,143.831c-.929,1.213-1.607,2.472-2.611,3.476l-140.038,140.044c-2.028,2.028-3.471.685-5.268-1.114l-47.217-47.256c.904-1.065,1.604-2.107,2.558-3.06l88.898-88.86Z" fill="#268ec1"/>
  <path d="M235.966,644.832c5.966,2.739,11.5,9.044,14.241,14.775.939,1.963,1.498,3.95,2.15,6.05,2.303,7.418,2.296,12.235.016,19.648-2.664,8.664-7.292,15.872-15.083,21.121-1.634,1.101-8.093,4.315-9.507,4.514-3.716.523-7.319,2.146-10.931,2.169l-40.687.255c-.885.006-1.927-1.972-1.927-2.97l-.011-127.353c.061-.626,1.415-2.076,2.068-2.075l29.497.048c1.484.002,3.073.557,4.412.43,3.097-.293,5.552.753,8.315,1.695,10.046,3.425,15.67,7.827,20.405,17.255,1.006,2.002,1.252,4.167,1.869,6.219,2.027,6.739,2.37,12.949-.134,19.64-.478,1.278-.561,3.057-1.293,4.389-2.395,4.36-5.148,8.495-9.473,11.4l6.072,2.788ZM207.36,637.58l.401.89c.326.724,12.621-2.332,16.232-9.13l2.153-4.054c.198-.372.38-1.453.352-1.795s-.509-.598-.898-.783c.752-4.555.948-9.238-.468-13.611-.343-1.058-1.256-2.644-1.846-3.771-1.263-2.413-3.704-4.121-5.855-5.689-1.723-1.256-8.578-3.651-10.266-3.663l-15.173-.105c-1.435-.01-.972,1.971-.972,2.862l.019,36.836c-.514.568-.236,2.465.402,2.467l13.942.041c.585.002,1.666-.35,1.977-.495ZM227.04,611.674h-.48v10.075h.48v-10.075ZM234.392,686.113l2.544-5.022c.285-4.218.31-8.403-.007-12.707l-2.654-5.015c-.453-.857-1.747-2.545-2.491-3.217-1.359-1.225-6.03-4.357-7.52-4.749l-7.708-2.025c-1.633-.429-3.715-.784-5.547-.796l-18.818-.123c-.437-.003-1.389.602-1.456.941-.067.341.278,1.118.278,1.553l.048,42.551,18.136-.031c.675-.001,2.123-.364,2.949-.456,3.094.095,6.445.225,9.23-.88l4.896-1.943c2.955-1.172,6.426-4.742,8.119-8.083Z" fill="#294168"/>
  <path d="M276,711.461l.481-.599v-128.932c-.131-.097.745-.971,1.302-.97l27.821.079c1.733.005,3.342.496,4.943.423,2.37-.108,4.646.043,6.709.984,5.772,2.632,3.267-.07,9.719,3.783l4.51,2.693c4.556,2.721,7.88,8.44,10.453,13.009.501.89.645,3.043,1.148,4.097.597,1.252,1.556,2.861,1.523,4.211-.135,5.481.521,10.773-.337,16.15-.315,1.975-3.261,9.632-4.692,11.857-.756,1.175-1.581,2.377-2.403,3.422-3.115,3.96-9.302,8.914-13.804,10.375l-6.634,2.153c-1.101.357-3.456.222-3.634,1.285l3.036,3.9,1.91,2.816,2.098,2.775,2.6,3.581,14.005,19.644,15.928,22.363c.421.591.895,2.735.084,2.74l-17.101.101c-1.656-1.673-3.105-3.539-4.353-5.337l-4.171-6.009-2.523-3.593-8.778-12.493-2.101-3.253c.722,1.118-5.129-7.355-4.49-6.473l-3.378-4.658-2.709-3.984-6.337-9.104c-.918-1.319-1.923-2.211-3.429-2.899-.6,1.362-1.081,2.401-1.081,3.591l.011,52.263c0,.93-1.048,1.942-1.826,1.941l-12.691-.005c-.849,0-1.815-1.126-1.809-1.927ZM292.32,638.54c-.019.239-.08.685-.115.951-3.705,5.32,16.174,2.043,17.91,1.776l-3.875-.808c2.26.028,4.944-.125,7.144-1.054,5.996-2.532,3.047-.514,7.527-3.994,1.364-1.059,3.002-2.718,4.106-3.944l1.145-2.31c.431-.87,1.625-2.249,1.678-3.091.354-.137.832-.774,1.013-1.265,1.854-5.035,1.451-9.654-.008-14.64-2.041-6.977-6.267-10.463-12.824-13.111-2.773-1.12-5.539-1.918-8.626-1.971l-14.718-.252c-1.179.513-.865,2.539-.863,4.115l.044,38.62c0,.516.471,1.21.461.978Z" fill="#263e65"/>
  <path d="M672.294,578.743v.365c3.421,4.309,7.393,8.19,11.335,12.323l9.376,9.83,12.995,13.42,28.566,29.973,34.972,36.465c.567.591,1.296,1.107,1.909.941.428-.116.872-1.192.872-1.853l-.006-94.378c0-.936-.432-3.691.759-3.702l11.052-.105c2.084-.02,1.509,1.681,1.509,3.173l-.005,126.536c0,1.589.558,2.748-.913,4.003l-28.116-29.347-24.09-25.258-15.336-15.922-28.975-30.493c-1.196-1.259-2.144-2.026-3.883-3.383-.575,1.586-.679,3.613-.432,4.661.029.121.04.36.04.48l.078,92.111v1.919l-1.555,1.442-10.606.12c-.72.008-1.569-.991-1.569-2.137l-.002-130.902c.724-.463,1.406-.488,2.026-.282Z" fill="#1d365f"/>
  <path d="M424.572,251.621c-.924.7-2.429,1.83-3.376,2.24l-4.391,1.897c-6.689,2.89-16.805-1.494-21.516-5.431-9.114-7.616-14.113-14.892-18.097-25.804-1.029-2.819-1.292-5.227-2.074-8.093l-1.582-5.794c-.383-1.402-.465-3.056-.468-4.356l-.041-15.825c-.003-1.062.419-3.151.804-4.213,3.01-8.285-.061-3.207,4.579-12.977,2.574-5.42,7.073-10.705,12.855-13.025,1.374-.551,3.287-1.9,4.645-1.901l9.3-.008c1.209,0,3.126,1.235,4.297,1.73,6.889,2.916,11.797,8.243,15.892,14.474l2.636,4.013c.766,1.166,1.555,2.804,2.121,4.035l2.276,4.954c.848,1.846,1.041,4.151,2.115,6.116.873,1.597.564,4.304,1.279,5.906,1.863,4.168,1.479,4.838,1.799,11.05l.424,8.226c.223,4.335-2.069,12.617-3.471,17.064-1.83,5.807-4.952,11.896-10.005,15.723Z" fill="#213a62"/>
  <path d="M550.316,247.957l-3.78,2.388c-1.956,1.236-4.034,1.755-6.436,2.295-8.409,1.888-17.445-4.598-21.437-11.143l-2.527-4.143c-3.277-5.374-1.773-5.455-4.154-10.239-.79-1.588-.629-3.624-.822-5.503l-1.328-12.945,1.294-10.492c.397-3.217.829-5.933,1.632-9.059l1.271-4.944c-.094.366,2.821-6.891,3.256-7.691,2.842-5.222,6.725-11.857,11.414-15.524,5.152-4.029,12.65-6.681,19.081-4.117,4.58,1.826,8.653,4.374,11.618,8.376l2.107,2.844c.664.896,1.672,2.449,2.136,3.437l2.349,4.993,1.397,4.78c.719,2.461,1.218,4.276,1.494,6.842l1.184,11.006c.122,1.133-.243,2.998-.372,4.29l-.811,8.114c-.267,2.665-.28,4.897-1.495,7.302-.752,1.487-.789,3.809-1.423,5.276-2.125,4.922-1.429,4.423-3.251,7.688l-2.088,3.742c-1.894,3.394-7.294,10.523-10.309,12.427Z" fill="#223a62"/>
  <path d="M597.423,305.207c-1.423.842-3.268,1.239-4.577,1.833-4.488,2.034-8.44,1.93-12.844-.176-1.356-.649-3.536-.852-4.89-1.772-3.471-2.358-6.934-5.061-8.88-8.804l-2.351-4.521c-.722-1.389-.598-4.031-1.208-5.485-1.022-2.435-1.593-4.448-1.591-7.066l.011-16.814c.002-2.518.723-4.615,1.649-6.956.543-1.374.467-3.811,1.246-4.979.958-1.437,1.219-3.032,1.954-4.435l2.469-4.712c3.522-6.722,11.252-15.732,17.855-19.406l3.198-1.779c1.116-.621,3.185-.76,4.537-1.175,3.329-1.023,6.139-.49,9.504.012,2.473.369,4.37.767,6.464,2.208,3.753,2.582,6.871,5.76,9.212,9.715,1.006,1.7,1.584,3.486,2.334,5.346.906,2.245,1.523,4.045,1.676,6.538l.499,8.125c.164,2.663.344,5.083.016,7.739-1.317,10.65.361,3.942-2.208,13.732l-1.212,4.62-2.133,4.722-2.241,4.468c-.585,1.166-1.877,2.671-2.655,3.872-4.114,6.353-9.166,11.207-15.833,15.152Z" fill="#213a62"/>
  <path d="M470.424,133.876c1.259.075,2.557.091,3.816.026l2.44.413c2.371,1.031,5.104,2.349,7.64,2.891l.581.554c1.387,1.323,4.346,3.553,6.105,4.648l.994.076.48.48.404.959c.106,1.745,1.305,3.446,2.794,4.411-.01.107-.026.318-.01.418l1.364,2.751c1.126,2.27,2.351,5.448,3.218,7.656,1.719,10.522,2.228,8.774,2.427,20.26.092,5.314-.676,9.953-2.044,15.047-.681,2.533-1.244,5.014-2.206,7.43l-2.195,5.512c-2.626,6.594-7.477,13.6-14.047,16.684-3.646,1.712-8.784,3.034-12.513,1.726l-5.578-1.956c-3.543-1.243-6.162-4.419-9.018-6.542l-4.044-6.159c-.703-1.071-1.448-2.63-1.902-3.719l-2.316-5.556c-.501-1.202-.642-2.985-.972-4.394-.762-3.257-1.88-6.464-1.998-9.909-.244-7.088-.096-13.992.05-20.995l-.854-.115c.136-1.744.485-3.674.96-5.277v1.439l.121,3.418,1.334-4.28c.357-1.146.575-2.399.539-3.441.031-.148.071-.381.117-.495l1.916-4.744c.721-1.787,1.287-3.186,2.151-4.733,2.144-3.836,2.88-3.722,3.466-5.872.055-.331.115-1.076.437-1.179l1-.321c.933-.299,2.489-1.735,2.444-2.818l-.084-.481c.087-.087.357.014.48,0l1.028-.115c.247-.028.349-.628.412-.845,2.108.479,6.522-2.435,7.24-2.651.957-.288,2.765-.263,3.824-.2Z" fill="#1c355e"/>
  <path d="M354.978,322.818c-1.856-.765-3.721-1.257-5.331-2.41-3.105-2.225-6.033-4.67-8.245-7.649l-2.716-3.658c-.963-1.297-1.817-2.676-2.569-4.187l-2.086-4.193c-.956-1.921-1.21-3.54-2.07-5.67l-1.552-3.843-.567-5.756-.416-4.382c-.307-3.239-.271-6.714.008-9.944l.42-4.874.502-5.85c.102-1.189,1.32-3.076,1.522-4.349.398-2.51,1.101-4.368,2.173-6.528l2.074-4.178c1.942-3.912,5.302-6.665,9.024-8.824,2.059-1.194,4.217-1.632,6.713-1.485,6.455.38,6.572-1.028,12.776,2.698,6.241,3.749,12.513,10.763,15.517,17.324l2.466,5.386,1.289,4.454c.822,2.84,1.125,5.175,1.698,8.068l1.625,8.215c.606,3.063.499,6.858-.119,9.859l-2.319,11.26c-.328,1.594-3.376,8.488-4.626,10.395-2.109,3.22-4.722,5.67-7.698,7.898-1.376,1.03-3.026,1.483-4.449,2.143-4.46,2.07-8.265,2.049-13.045.079Z" fill="#223a62"/>
  <path d="M448.8,582.41c3.082-.913,9.022-.333,12.026-.457,1.552.615,1.442,1.633,1.441,3.412l-.05,84.279-.402,6.332-.024,3.242-.477.784c-.117.193.333.612.445.755v1.919c-1.403.626-2.096,2.778-2.006,4.304l.086,1.453-.983.222c-.223.05.463.718.503.738v.959c-.359-.059-1.575.292-1.719.724s-.241,1.149-.231,1.653l.03,1.461v.48l-1.44.48c-.248.083-.882.041-.897.303l-.063,1.136c-.045.8-.75,2.123-1.44,2.399-.341.136-1.335-.095-1.36.272l-.08,1.167c-.035.507-.648,1.386-1.069,1.668l-1.811,1.21c-.315.065-1.299-.052-1.332.302l-.108,1.137c-.555.53-1.058,1.217-1.44,1.919h-.48l-2.876,1.344c-2.144.095-4.271,1.368-5.911,2.776l-.805.106c.241-.733-7.087,2.293-5.768,2.491h-1.92c.043-.13-1.053-.442-1.6-.339-16.574,3.128-13.684-.042-22.387.27l-1.934.069-.219-.98c-.049-.219-.704.446-.741.5-.259.008-.723.037-.96,0-.595-1.56-2.727-2.23-4.329-2.035l-.951.116c-.912-1.878-3.21-2.835-5.28-2.878-.425-.268-.74-.586-1.049-1.026-.448-.636-1.432-1.164-2.222-1.427l-1.022-.912c-.569-1.122-2.02-2.797-3.384-2.909-1.31-.107-1.974-1.421-2.707-2.611-.34-.557-1.54-1.338-2.095-1.67v-.48l-.48-.48v-.48l-.868-1.915c.624-.343-2.622-7.431-3.452-6.24v-.48c2.01.037-1.266-5.14-1.28-7.655-.065,1.456-.015,3.003-.64,3.817l-.48-4.318.931-.093-.462-11.134-.079-83.218c0-.774.029-1.625.162-2.014.167-.486,1.391-.974,1.914-.968l10.771.141c1.032.407.708,2.683.708,3.831l.033,81.852c.006,14.096,4.878,24.371,17.518,30.495,1.81.877,3.788,1.286,5.681,1.891,6.113,1.953,11.701,2.021,17.816.011,1.865-.613,3.875-.978,5.698-1.88,4.758-2.356,8.984-5.065,11.956-9.673.712-1.104,1.991-2.894,2.374-4.02l2.203-6.481c.808-2.376.961-5.594.963-8.428l.053-87.219Z" fill="#1e3760"/>
  <polygon points="622.08 708.103 622.561 707.505 622.561 585.406 622.08 584.808 622.08 708.103" fill="#2a4168"/>
  <path d="M262.842,358.746l-36.03,36.231-10.214,10.542c-.552.57-2.5.842-3.399.642l-75.503-75.534-66.368-66.439c-.45-.45-.833-1.902-.722-2.431s.929-.995,1.615-1.68L211.987,120.389c.616-.615.929-1.801,1.475-1.88.637-.093,2.302.239,2.823.76l45.285,45.3c1.469,1.469,2.835,2.476,2.754,4.664l-92.372,92.338c-.745,1.646,1.027,3.197,2.189,4.359l80.256,80.271c1.817,2.616,7.683,7.521,9.048,9.707.349.559-.099,2.33-.604,2.838ZM220.332,313.995l-49.615-49.811c-.391-.393-.797-1.883-.655-2.393s.844-.89,1.556-1.601l90.097-90.07c1.193-1.193,1.572-2.377.291-3.658l-45.253-45.256c-.591-.591-1.804-1.214-2.402-1.074-.498.117-1.129.714-1.771,1.357l-139.01,138.948c-.681.68-1.375,1.62-1.392,2.223s.682,1.543,1.375,2.236l140.76,140.703,11.52-11.571,37.089-37.075-42.591-42.957Z" fill="#72b5d6"/>
  <path d="M513.585,827.422c.693-1.302-.508-2.997-1.057-4.518l-2.392-6.625c-.842-2.332-1.557-4.317-2.536-6.584l-.24,2.512c-.394-.8-.675-1.979-.96-2.878l.871-.319c.158-.058-.016-.842-.083-1.004l-2.018-4.868-.69,1.874c-.076-.661-.224-1.802-.48-2.399.164-.04.994-.087.94-.34-.571-2.684-1.215-2.049-2.625-7.629-.089-.351-.609-1.366-.923-1.201-1.796.942-2.923,3.288-3.484,5.52-.349,1.387-1.047,2.687-1.546,3.977l-2.434,6.297-2.142,5.538-2.149,5.46c-1.101,2.796-1.862,5.937-4.121,8.217l-2.504-7.09-2.428-6.681c-.444-1.221-2.189-6.849-3.463-7.271l.01-.533c1.376-.523-1.331-4.036-1.191-4.207l-.739.902-.48-1.919,1.149.067-1.724-4.593-2.469-6.739-2.612-6.599c-.348-.879-.232-2.645.483-3.281.682-.606,2.487-.355,3.384.335,1.974,1.517,2.049,3.796,2.822,5.987l2.493,7.061,2.141,6.095,2.345,6.693c1.294,3.693,1.499,5.081,2.377,7.428.808,2.161,3.587-4.608,3.719-4.954l2.116-5.532,2.143-5.526,2.428-6.265,2.284-5.651c.192-.474.04-1.228-.066-1.735-.616-2.945,1.882-5.946,4.129-6.419.467-.099.974,1.075,1.023,1.631.202,2.324,1.211,4.073,1.976,6.149l2.187,5.939,2.2,5.972,2.437,6.593,1.983,5.298,1.4,3.562,1.301-3.129,2.167-5.512,2.298-5.85c1.479-3.766,1.792-4.8,3.299-8.45l2.52-6.107c.824-1.997,1.397-5.029,4.251-5.261l3.277.301c1.706,2.632-.075,4.969-1.013,7.349l-2.045,5.191-2.588,6.529-2.145,5.47-2.241,5.536-1.104,3.346c-.941,1.726-1.513,3.303-2.209,5.139l-2.492,6.565-1.718,4.019c-.259.605-1.159,1.294-1.876,1.277-.805-.019-1.179-1.394-1.165-2.159Z" fill="#2e456b"/>
  <path d="M467.667,125.007l-4.085.545c-.513.068-1.593-.224-1.898-.593-.946-1.142-.408-8.459.591-11.297.942-2.679,1.258-5.153,1.774-7.949.503-2.725,2.255-5.212,2.186-8.193l1.564-2.651c.236-2.398,1.267-4.022,1.976-6.272l1.27-4.028c.663-2.104,3.901-9.155,4.052-10.836.066-.729.713-1.913,1.28-1.891,2.848.11,4.152,7.382,4.602,8.894.755,2.533,1.971,4.608,2.076,7.513.041,1.143,1.2,2.883,1.452,4.025.473,2.14.58,4.517,1.371,6.438,1.225,2.974,1.248,5.593,1.465,8.791.44,6.475,1.755,13.04.158,19.553-1.244,1.484-3.882.241-5.336-.646-2.109-1.286-4.961-1.051-7.374-1.359-2.368-.303-4.573-.384-7.125-.043Z" fill="#2c4369"/>
  <path d="M356.376,803.894c0,14.144-11.472,25.61-25.624,25.61s-25.624-11.466-25.624-25.61,11.472-25.61,25.624-25.61,25.624,11.466,25.624,25.61ZM341.402,819.359c2.606-1.061,6.428-7.045,6.877-9.29,1.869-9.327.116-17.473-8.27-22.534-2.705-2.705-15.935-2.735-18.555.024-8.451,5.356-9.489,11.503-8.693,20.828.177,2.071.716,3.379,1.76,5.052,2.898,4.64,5.053,6.337,10.105,8.269,4.112,1.572,8.192,2.394,12.049-.298,1.801.056,3.236-.864,4.727-2.051Z" fill="#3b5174"/>
  <path d="M559.699,141.548c-.25,5.634,1.692,9.414-.814,10.52-.919.406-1.879-.841-2.75-1.251l-4.497-2.118c-4.018-1.892-10.138.023-13.79-1.699-.281-3.731.719-18.416.128-21.751l-1.702-9.594c-.621-3.503-.386-6.686-1.576-10.075-1.653-4.706-.161-5.891-2.04-9.948-.741-1.599-1.853-3.834.297-5.238,2.583.395,11.462,11.29,12.719,13.312l2.022,3.253c.713,1.148,1.906,2.554,2.421,3.588l2.442,4.907c.828,1.663,4.253,10.428,4.358,10.956l1.139,5.738c.644,3.246,1.794,5.97,1.642,9.4Z" fill="#2d446a"/>
  <path d="M389.458,149.662c-1.071.53-3.111.867-3.848,1.548-1.029.95-1.82,1.609-2.969,1.053-1.363-.659-.883-1.808-.746-3.187.267-2.695.134-5.518,1.194-7.99.923-2.152,1.174-4.312,1.809-6.585.445-1.593,1.565-3.228,1.909-5.098.216-1.174,1.139-2.468,1.553-3.489.683-1.686,1.271-3.089,2.178-4.613l2.688-4.517c3.147-5.287,7.056-9.837,11.64-13.891l4.828-4.27c.844-.746,1.557-1.36,2.546-.915,2.519,1.134-1.327,9.128-1.359,9.266l-1.186,5.107c-1.686,7.258-3.4,9.777-4.376,18.364-.611,5.376-2.006,10.307-1.698,15.903.162,2.938-6.852-.303-14.161,3.314Z" fill="#2e456b"/>
  <path d="M573.608,815.467c-5.223.212-13.853-.601-15.562.601-.649,2.363-1.336,4.044-2.303,6.073-1.119,2.347-1.372,5.504-4.529,6.708-1.222.466-3.543-.248-5.105-.832.645-2.287,1.126-4.365,2.004-6.3l2.413-5.316,1.942-4.344,2.368-5.308c1.619-3.629,1.777-4.237,3.399-7.875l2.371-5.317,1.899-4.36,2.72-6.345c.973-2.269,1.126-4.792,4.873-4.229.459,1.274,1.005,3.429,1.625,4.873l2.186,5.092,2.138,4.986,2.596,6.057,2.144,5.072,1.975,4.707,2.602,6.033,2.16,5.058c.945,2.213,3.153,5.139,1.435,7.604-1.116,1.601-4.085.875-5.484-.017-1.715-1.094-1.804-3.165-2.584-5.085-.833-2.051-1.622-4.101-2.333-6.261-.648-1.97-3.4-1.339-4.951-1.276ZM574.64,808.262c-.213-1.941-1.077-2.333-1.575-3.77l-1.447-4.172c.459,1.322-2.75-6.131-2.812-6.191-.341-.331-1.768-.108-1.87.399.022,2.615-6.084,11.874-4.659,13.732l12.364.002Z" fill="#3b5174"/>
  <path d="M771.417,677.444c.075.183.425-.648.425-1.396l-.009-90.043c0-.988-.394-1.377-.473-1.197,0-.996-.141-3.242,1.091-3.743l12.719-.08c.612-.004,2.023,1.412,2.023,2.029l.012,131.2c0,.689.346,1.739.47,2.594-.839.412-2.772.571-3.631.129-.675-.348-1.266-1.526-1.929-2.223l-10.576-11.116-13.402-13.921-16.048-16.615-22.158-23.404-15.81-16.327-7.16-7.751-6.461-6.931c-1.801-1.932-3.241-3.517-5.331-5.129-.742,1.125-1.038,1.66-1.287,2.473-.248-1.048-.143-3.075.432-4.661,1.74,1.357,2.687,2.125,3.883,3.383l28.975,30.493,15.336,15.922,24.09,25.258,28.116,29.347c1.47-1.255.912-2.414.913-4.003l.005-126.536c0-1.492.574-3.193-1.509-3.173l-11.052.105c-1.191.011-.759,2.766-.759,3.702l.006,94.378c0,.661-.445,1.738-.872,1.853-.613.166-1.342-.35-1.909-.941l-34.972-36.465-28.566-29.973-12.995-13.42-9.376-9.83c-3.942-4.133-7.914-8.014-11.337-12.323-1.58-2.313,7.332,6.474,6.116,5.204l21.992,22.954,20.167,21.061,6.611,6.888,12.031,12.475,31.829,33.316c.246-1.307.379-2.474.379-3.562Z" fill="#697a95"/>
  <path d="M332.16,225v-.959l.706-.017c-.61.015,3.02-13.401,1.748-12.815-.149-1.399-.158-3.834.659-5.082,1.24-1.894,1.299-3.926,2.114-5.769l2.216-5.013c.643-1.454,1.619-3.221,2.456-4.583l1.869-3.038c1.221-1.986,2.748-4.596,4.61-5.926,6.503-4.643,2.874-4.258,8.059-6.345l-1.495,9.734c-.512,3.335-1.471,6.682-1.716,10.039l-.457,6.261c-.314,4.304-.229,8.64.038,12.895.175,2.784.631,5.418-.252,8.295-4.433.829-10.417,1.636-14.187,4.321l-5.182,3.692-.328-4.267-.077-1.399c-.01-.19-.708-.021-.781-.022Z" fill="#243c64"/>
  <path d="M279.499,826.364l-3.826,2.38c-3.539.37-7.397.382-11.039.11-5.004-3.42-5.408-2.914-8.872-8.026-.54-1.008-.787-3.34-.811-4.813.583-1.64,4.396-2.781,5.483-1.209l3.914,5.659c3.196,2.014,7.431,1.538,10.836.511l2.363-2.845c.854-3.597,1.556-7.649-1.784-9.98-1.221-.852-2.389-1.516-3.699-2.146l-4.935-2.373c-3.747-1.802-5.975-3.126-8.949-6.803-2.028-2.508-1.357-9.345.027-12.41.383-.849,1.779-2.335,2.422-2.907,5.227-4.647,6.364-2.991,11.987-3.41,2.507-.187,4.441.436,6.341,1.844,1.551,1.149,3.793,3.146,4.486,4.528,1.439,2.87-1.948,3.84-3.855,5.885-5.342-4.577-3.589-5.31-11.225-4.654-2.052.176-2.709,1.232-3.675,2.705-1.509,2.301-1.72,4.354.334,6.6.599.655,1.54,1.312,2.495,1.772l5.241,2.521,4.627,2.117c3.048,1.394,6.261,4.938,8.017,8.163.243,7.179,1.231,7.798-2.198,13.195-.801,1.26-2.379,2.763-3.702,3.585Z" fill="#3b5174"/>
  <path d="M576.48,710.022v-57.09c0-.881-.217-2.691-.965-3.087-.871-.46-2.411-.751-3.355-.751h-57.6c-1.36,0-2.848.373-4.314,1.133l-.007,60.235c0,.923-.54,2.211-1.084,2.93l-12.817-.06c-.871-.004-1.939-1.913-1.939-2.937l.006-127.384c0-1.272,1.893-2.148,2.801-2.13,3.424.069,6.351.101,9.71-.053,1.437-.066,3.321.126,3.321,2.114v50.158c.843.331,1.812.619,2.403.642,20.37.805,41.114.772,61.487.018.803-.367,1.741-.888,2.353-1.457.36-.236.363-.312,0-.48v-.959c0-15.373-.068-30.821.48-46.055-.011-.223.484.442.484,1.068l-.019,45.247c0,1.213-.203,2.244-.6,2.649s-1.619.932-2.351.932l-62.732-.008c-1.608,0-2.468-1.431-2.467-2.879l.025-46.512c0-.992.248-3.343-.916-3.354l-10.667-.099c-1.385-.013-2.357.904-2.357,2.568v123.584c.001,1.654.561,3.347,1.485,4.37l10.584.081c.798.006,1.862-1.057,1.862-1.982l-.013-57.508c0-1.746.381-3.31,1.025-4.83h66.124c.755,1.874,1.017,3.684,1.016,5.803l-.014,56.564c0,.933,1.077,1.938,1.816,1.938l9.829-.004c.74,0,1.877-.966,1.877-2.047l.016-125.694c0-.859.022-1.613-.128-2.06-.181-.535-1.627-.788-2.355-.785l-9.57.04c-.627.003-1.642,1.03-1.9,1.481l-.532-.482c.243-3.354,5-1.491,11.445-2.072,2.006-.181,4.356.41,4.356,3.141l-.002,125.868c0,1.205-.853,2.728-1.531,3.543l-12.835-.032c-1.516-.004-1.38-2.378-1.433-3.316Z" fill="#8592a8"/>
  <path d="M625.92,780.544l.48.467c2.721,1.227,5.752,2.837,7.106,5.934,1.934,4.421,1.822,8.65-.226,12.916-2.494,5.194-10.055,5.84-9.354,7.318.164.346.553,1.015.862,1.449l11.958,16.776c-.733,1.185-1.984,1.903-2.859,1.78-.741-.105-2.146-.832-2.676-1.581l-11.131-15.727-2.825-3.623c-1.168.373-1.413,1.509-1.414,2.511l-.023,16.887c-.445.787-1.626,1.67-2.554,1.488-.747-.146-1.634-1.205-2.161-1.981l-.063-2.396c-.046.271.472-.554.472-1.016v-36.827c0-.463-.518-1.288-.472-1.016l.072-1.916,1.112-2.224c2.673-.366,4.962.114,7.593.54l4.628.749c.366.059,1.516-.368,1.475-.507ZM628.85,792.59c.503-5.657-7.903-7.829-12.068-6.284l.06,14.705c3.039.192,6.07.645,8.573-.949,4.449-2.833,3.212-4.964,3.435-7.472Z" fill="#284067"/>
  <path d="M666.72,798.295c.548.167,1.379.066,1.92,0-.183.02.358.963.671.963l12.597.006c.324,0,1.26-.478,1.132-.489.389.075,1.054.335,1.44.48-.236.088-.747.279-.718.268.292.951.564,1.934.528,2.55-.036.612-1.141,1.925-1.81,1.929l-16.676.096-.128,15.351c-.007.874-.147,3.252,1.002,3.263l16.219.156c1.042.01,2.251,1.737,2.188,2.575-.083,1.102-1.118,2.159-2.447,2.158l-21.134-.021c-.878-1.689-.652-3.167-.651-4.94l.013-38.167c0-1.231-.643-4.302,1.629-4.308l19.963-.047c1.673-.004,2.741,1.265,2.623,2.608-.106,1.198-1.072,2.164-2.49,2.161l-15.406-.033c-.852.542-1.491,2.211-1.48,3.376l.094,9.706c.001.151.564.82.641.722l.28-.362Z" fill="#284067"/>
  <path d="M447.84,669.243c-.1.143.471-.563.471-.701l.009-85.653.48-.48-.053,87.219c-.002,2.834-.156,6.052-.963,8.428l-2.203,6.481c-.383,1.126-1.662,2.916-2.374,4.02-2.971,4.608-7.197,7.317-11.956,9.673-1.822.903-3.833,1.267-5.698,1.88-6.115,2.011-11.703,1.942-17.816-.011-1.894-.605-3.871-1.014-5.681-1.891-12.64-6.124-17.513-16.399-17.518-30.495l-.033-81.852c0-1.148.324-3.423-.708-3.831l-10.771-.141c-.523-.007-1.747.481-1.914.968-.133.389-.163,1.24-.162,2.014l.079,83.218.462,11.134-.931.093-.708-5.897c-.208-1.729-.708-3.775-.709-5.658l-.013-84.813c0-1.272,2.355-2,3.393-1.996l11.072.036c.854.003,1.832.904,1.833,1.96l.03,86.681c0,1.283.443,3.171.685,4.257l1.564,7.022c.319,1.43.999,2.67,1.64,3.978,2.385,4.872,5.265,7.471,9.791,10.541,1.351.917,3.046,1.434,4.605,2.142,1.824.829,3.184,1.349,5.199,1.561l4.787.502c2.016.211,3.813.22,5.826.015l5.293-.541c5.374-.549,15.13-6.475,18.042-12.257l2.061-4.091c.852-1.69.914-4.233,1.611-6.134.911-2.486,1.279-4.971,1.279-7.384Z" fill="#6c7c96"/>
  <path d="M385.44,786.301v.48c.112-.212-.491.63-.49.741l.03,10.423c0,.131.592.809.665.713l.275-.363,12.543-.009c.772,0,2.015.47,2.337.969l-.253,4.835-11.116-.178c-.894-.014-2.648-.68-3.398-.078-.626.502-1.077,2.036-1.08,3.034l-.058,18.27c-.005,1.575-1.3,2.953-2.545,2.863-.902-.066-2.603-1.249-2.605-2.569l-.039-42.963c-.001-1.329,1.616-2.458,2.784-2.441l17.196.254c1.601.024,1.584,4.681-.037,4.665l-11.855-.117c-.408-.004-1.589-.03-1.753.293l-.602,1.181Z" fill="#2a4168"/>
  <path d="M432,827.079v-.959c.132-.085.48-.301.48-.48l-.003-38.252c0-.323-.352-1.037-.477-1.087-.305-.122-1.082-.423-1.464-.429l-9.061-.155c-.972-.438-1.135-2.767-.995-3.733.351-.191.351-.288,0-.48v-.48l2.052-.952,23.862-.006c1.615,0,2.593,1.389,2.495,2.637-.124,1.592-1.285,2.21-2.93,2.212l-6.717.009c-1.323.002-2.362,1.518-1.962,2.791l-.004,37.386c0,1.544-1.367,3.008-2.558,2.694l-2.717-.716Z" fill="#284067"/>
  <path d="M682.08,778.715c.644,0,1.799.403,2.737.695,2.033.633,2.356,5.718-.096,6.062-6.066.851-12.004-.006-18.421.516l-.085,11.539c-.001.149.613,1.001.505.769l-.28.362c-.076.099-.639-.571-.641-.722l-.094-9.706c-.011-1.166.628-2.835,1.48-3.376l15.406.033c1.418.003,2.384-.963,2.49-2.161.118-1.342-.95-2.611-2.623-2.608l-19.963.047c-2.272.005-1.629,3.077-1.629,4.308l-.013,38.167c0,1.773-.227,3.251.651,4.94l21.134.021c1.328.001,2.364-1.055,2.447-2.158.063-.838-1.146-2.565-2.188-2.575l-16.219-.156c-1.148-.011-1.009-2.389-1.002-3.263l.128-15.351,16.676-.096c.669-.004,1.774-1.317,1.81-1.929.037-.616-.236-1.6-.528-2.55-.029.011.482-.18.718-.268,1.285.483,1.088,2.661.757,3.769-.269.901-1.585,2.431-2.691,2.423l-13.703-.09-1.779-.33c-.374-.069-.813,1.118-.813,1.602v13.558c0,.483.438,1.662.815,1.597l1.777-.308c4.384-.759,9.067-.173,13.482-.039,2.711.082,4.185,1.558,4.124,3.936-.056,2.187-1.368,3.573-3.959,3.577l-20.085.033c-1.524.002-2.847-1.338-2.847-2.893l-.014-43.152c0-1.827.855-4.222,2.857-4.222-.101.002.827.395,1.121.395l17.346-.003c.393,0,1.313-.376,1.212-.392Z" fill="#828fa6"/>
  <path d="M435.317,251.981c-.513.955-1.638,1.555-2.757,2.313-6.527,4.418-13.67,11.203-17.415,18.147l-2.383,4.418c-1.418,2.628-3.574,7.807-4.61,10.733l-2.383,6.731c-.749,2.116-.883,4.722-3.049,5.518.115-1.203.508-2.427,1.061-3.68l1.339-3.037c.243-.552.408-1.262.48-1.919.304-.819.92-2.228,1.44-2.878.168-.21.589-.61.845-.869.19-.193-.642-.496-.795-.57.06-1.703,1.284-3.386,2.35-4.797.462-.612.58-1.532.48-2.399l1.44-1.919c.355-.241.361-.314,0-.48.176-.945.971-2.639,1.602-3.623l2.9-4.528c3.424-5.347,12.66-13.901,18.058-17.275l1.397.115Z" fill="#697a95"/>
  <path d="M560.607,308.647c-1.08-.096-2.888-1.11-4.006-1.839-6.956-4.533-13.167-9.831-17.691-16.746-2.446-3.739-5.009-8.151-6.382-12.195l-2.429-7.158c-.7-2.063-.968-3.988-1.969-5.856-3.449-6.437-8.307-11.305-14.986-14.53l-5.182-2.502c-8.658-4.18-18.488-5.93-28.173-6.848-8.518-.807-12.298,1.129-18.522,1.621-2.447.193-4.513,1.146-6.855,1.767l-4.202,1.114-5.914,2.432c-1.561.642-3.266,1.473-4.848,2.272-1.357.686-2.643,1.924-4.131,1.802l.092-.575c1.458-1.554,3.309-2.337,5.473-3.23.89-.367,2.222-1.599,3.118-1.588.037.112.394.977.598.806.235-.197.712-.587.89-.788.904-1.018,3.183-2.418,4.752-2.418.069.146.393.593.557.451.11-.095.312-.343.403-.451,1.281-.619,2.951-1.682,4.32-1.919.366.169,1.163.496,1.707.704.422.161,1.29-.706,1.236-1.121,2.613-.273,5.381-1.685,8.198-1.809,6.601-.292,12.909-.191,19.554-.118,1.829.02,3.854,1.019,5.591,1.519,2.162.622,4.925.574,6.77,1.386,4.669,2.055,5.393,1.601,10.835,4.269l4.151,2.035c5.664,2.777,10.278,7.143,13.974,12.389,1.793,2.545,3.49,6.87,4.327,9.922l1.365,4.977,2.226,5.07c2.914,6.636,9.142,14.944,15.021,19.427,2.816,2.148,5.381,4.093,8.423,5.999.625.391,1.351,1.194,1.709,1.727Z" fill="#697a95"/>
  <path d="M671.502,577.178l.435.018.543.897-.186.651c-.62-.207-1.302-.182-2.026.282l.002,130.902c0,1.146.85,2.145,1.569,2.137l10.606-.12,1.555-1.442v1.919c-.115.126-.348.351-.48.48l-13.353.002-.994-1.921-.008-.48c-.5-31.724-.047-98.258-.067-127.825l.501-5.544h.48l1.422.045Z" fill="#697a95"/>
  <path d="M592.879,172.263l.435-1.236c.082-.232-.907-.239-.994-.238-.101-3.945-1.398-1.5-1.903-8.174-.338-4.47-3.852-5.113-1.025-8.329,5.28,1.854,12.634,11.257,15.062,15.792l2.345,4.38,2.058,3.839,1.281,3.93c.734,2.252,1.703,3.921,2.041,6.261l1.491,3.539c.395,2.881.593,5.518,1.53,8.201,1.673,4.789,1.581,13.873-.539,12.855-.4-.192-1.249-.909-1.716-1.062l-6.434-2.103c-6.4-2.092-11.201.868-13.414-2.166,2.342-10.44,2.212-20.462-.249-30.779-.298-1.249,0-3.556.032-4.709ZM613.583,198.392c-.413-3.205-2.96-11.781-4.007-14.368l-2.37-5.851c-2.982-7.363-8.312-15.037-14.158-20.55-.381-.359-1.684-.787-1.963-.405s-.502,1.426-.361,1.95l2.017,7.521,2.138,11.812c1.75,9.666.522,19.208.357,29.24l10.997.765c4.418.307,6.172,3.919,8.829,1.359l-1.479-11.473Z" fill="#6f7f98"/>
  <path d="M399.84,779.105c.5.076,1.494.653,1.663,1.204.525,1.704.391,4.086-.824,5.452l-13.674.086c-.42.003-1.415.374-1.565.454l.602-1.181c.164-.322,1.345-.297,1.753-.293l11.855.117c1.621.016,1.638-4.641.037-4.665l-17.196-.254c-1.168-.017-2.785,1.112-2.784,2.441l.039,42.963c.001,1.32,1.702,2.504,2.605,2.569,1.245.091,2.54-1.288,2.545-2.863l.058-18.27c.003-.998.454-2.531,1.08-3.034.75-.602,2.504.063,3.398.078l11.116.178.253-4.835c.876,1.261.75,3.577-.283,5.211l-14.96.101-.274,22.824c-.021,1.781-3.101,1.785-4.281,1.508-1.234-.29-2.695-2.04-2.697-3.994l-.058-41.923c-.002-1.813,1.625-4.204,3.354-4.266-.115.035.782.389,1.201.389l17.039.002Z" fill="#828fa6"/>
  <path d="M452.64,215.885c.698.42,1.825.979,2.437,1.434,2.856,2.123,5.475,5.299,9.018,6.542l5.578,1.956c3.728,1.308,8.866-.014,12.513-1.726,6.569-3.084,11.421-10.09,14.047-16.684l2.195-5.512c.962-2.416,1.525-4.897,2.206-7.43,1.369-5.094,2.136-9.732,2.044-15.047-.198-11.485-.708-9.738-2.427-20.26l.664-.422,2.115,5.351.009,27.316c0,1.502-1.213,3.213-1.599,4.525-.443,1.508-.608,3.439-1.151,4.781l-2.53,6.252c-3.637,8.99-8.942,16.133-18.48,19.652-3.703,1.366-8.618,1.282-12.148-.299l-3.668-1.642c-4.379-1.961-7.892-5.296-10.822-8.788Z" fill="#76859d"/>
  <path d="M389.855,322.477c.092-.284.229-.816.385-1.048l2.308-3.43,2.972-4.246.706.129c.247.045.102.965-.044,1.169l-3.505,4.93c-.791,1.113-1.824,2.128-2.822,2.496Z" fill="#697a95"/>
  <path d="M389.855,322.477c-1.227,3.769-12.534,12.092-17.231,14.461l-4.942,2.492-4.997,2.265c-8.343,3.781-14.776,11.349-17.593,20.004-2.203,6.768-1.752,13.737-.437,20.625l-1.455-.927-1.23-4.907c-.613-2.444-.358-5.395-.027-7.987.199-1.561,1.106-3.55,1.737-4.857.455-.942.959-2.083,0-2.878l2.418-3.793c.303-.273.309-.362-.018-.525-.021-.631.517-1.595.996-2.326,2.87-4.38,6.37-7.936,10.604-11.061.779-.575,2.041-1.346,2.8-1.485.166.361.24.355.48,0,3.768-3.633,3.253-.963,7.2-3.838.428-.088,1.1-.273,1.44-.48l2.929-1.783c1.447-.881,2.952-1.49,4.297-2.428,1.809-1.262,3.676-2.528,5.204-3.917l4.556-4.141,2.695-2.603.575.089Z" fill="#697a95"/>
  <path d="M462.24,680.278l-.449-1.059.024-3.242c.215-.112.692-.361.672-.35.124-1.064.687-2.421.688-3.186l.05-87.467c0-1.13.402-2.01-.46-2.829-.437-.415-1.373-.214-1.939-.191-3.004.124-8.945-.456-12.026.457l-.48.48h-.48c0-.818.939-1.934,1.817-1.933l12.15.012c1.241.001,2.363,1.03,2.363,2.477l-.035,88.098-1.431,6.821c-.147.702-.242,1.648-.464,1.913Z" fill="#7c8aa1"/>
  <path d="M497.734,784.443c.106.507.258,1.26.066,1.735l-2.284,5.651-2.428,6.265-2.143,5.526-2.116,5.532c-.132.346-2.911,7.115-3.719,4.954-.878-2.347-1.083-3.735-2.377-7.428l-2.345-6.693-2.141-6.095-2.493-7.061c-.773-2.19-.848-4.469-2.822-5.987-.898-.69-2.702-.941-3.384-.335-.715.636-.831,2.402-.483,3.281l2.612,6.599,2.469,6.739,1.724,4.593-1.149-.067c-.279-1.115-1.018-2.399-1.449-3.614l-2.157-6.081-2.404-6.293c-.671-1.758-.934-3.983-1.253-6.053,2.509-1.365,6.121-1.035,7.548,1.622.65,1.209.95,3.11,1.433,4.446l2.426,6.709,2.233,6.375c.778,2.221,1.699,4.094,2.049,6.547l1.527,3.059c.22,1.645.346,2.963,1.016,4.775,1.791-2.947,2.434-5.08,3.385-7.955.357-1.08,1.362-2.528,1.683-3.766.428-1.647,1.107-2.997,1.678-4.466l2.414-6.208c.874-2.249,1.248-4.645,2.884-6.307Z" fill="#6c7c96"/>
  <path d="M618.287,808.847c-.18-.257-.657-.822-.797-.981l-1.648.898c.001-1.003.246-2.138,1.414-2.511l2.825,3.623,11.131,15.727c.53.749,1.935,1.476,2.676,1.581.875.124,2.126-.595,2.859-1.78l-11.958-16.776c-.31-.434-.698-1.103-.862-1.449-.701-1.478,6.859-2.124,9.354-7.318,2.049-4.266,2.16-8.494.226-12.916-1.354-3.097-4.384-4.707-7.106-5.934,3.902-1.655,7.472,4.258,8.896,7.394,1.549,3.409,1.462,5.947.108,9.307-1.83,4.539-5.089,8.352-10.668,9.131l10.391,14.484c1.519,2.117,3.184,3.772,3.411,6.928-2.131.263-4.289.347-6.206.15-.738-.848-2.146-2.156-2.706-3.02l-2.614-4.038-8.725-12.5Z" fill="#6c7c96"/>
  <path d="M447.84,779.105c1.376.156,2.138,1.555,2.394,2.744.266,1.235-.129,3.458-1.661,3.726-4.53.791-7.202-.641-10.326,1.254l-.02,39.259c0,1.841-1.595,2.874-3.103,2.946-1.34.064-2.625-.639-3.123-1.955l2.717.716c1.191.314,2.558-1.149,2.558-2.694l.004-37.386c-.399-1.273.639-2.789,1.962-2.791l6.717-.009c1.645-.002,2.806-.62,2.93-2.212.097-1.248-.88-2.638-2.495-2.637l-23.862.006-2.052.952c0-.789,1.131-2.152,1.92-2.312-.176-.056.558.393.879.393h24.561Z" fill="#7c8aa1"/>
  <polygon points="684.96 708.582 684 708.582 683.922 616.472 684.961 616.643 684.96 708.582" fill="#a4aebe"/>
  <path d="M332.16,228.838c.351-.191.351-.288,0-.48v-.48c.123-.034.709-.531.559-.723l-.559-.716v-1.439c.073,0,.771-.168.781.022l.077,1.399.328,4.267,5.182-3.692c3.769-2.685,9.754-3.492,14.187-4.321.883-2.877.427-5.511.252-8.295-.267-4.254-.352-8.591-.038-12.895l.457-6.261c.245-3.356,1.204-6.704,1.716-10.039l1.495-9.734c-5.185,2.087-1.556,1.702-8.059,6.345l4.247-5.392c.737-.936,2.251-2.005,3.538-2.679.995-.52,2.057,1.819,1.785,2.757-.671,2.314-1.649,4.524-1.873,6.709-.299,2.907-.379,5.678-.9,8.418-.501,2.63-1.555,5.212-1.562,7.933l-.055,22.988c-.007,2.939-6.704,1.588-9.549,2.906l-5.319,2.463c-2.315,1.072-4.201,3.567-4.866,3.742-1.231.325-2.091-1.926-1.823-2.804Z" fill="#7c8aa1"/>
  <path d="M455.077,217.319c-.612-.455-1.739-1.014-2.437-1.434.004-.145.01-.357,0-.48-.021-.276-.243-.816-.48-.959-.946-.573-2.221-2.335-2.763-3.487l-1.868-3.965-1.689-3.84c-2.58-9.929-1.64-3.318-2.874-13.688-.572-4.805-1.174-9.365-.701-14.147l.401-4.053.375-4.794.854.115c-.146,7.003-.293,13.907-.05,20.995.118,3.446,1.236,6.652,1.998,9.909.33,1.41.471,3.192.972,4.394l2.316,5.556c.454,1.089,1.198,2.648,1.902,3.719l4.044,6.159Z" fill="#6c7c96"/>
  <path d="M504,802.612l-1.719-4.01-.642-3.237c-2.778,1.501-2.651,4.158-3.673,6.668l-2.089,5.132-2.536,6.553-2.146,5.551c-.628,1.625-1.253,3.038-1.79,4.848-.484,1.632-2.179,5.35-3.915,5.466-.557.037-1.13-1.124-1.279-1.841-.382-1.846-1.128-3.279-1.768-4.893-.851-2.147-1.182-4.25-2.611-6.197l-.663-3.592c-1.304-1.828-2.089-3.583-2.05-5.648,1.274.422,3.02,6.05,3.463,7.271l2.428,6.681,2.504,7.09c2.26-2.281,3.021-5.421,4.121-8.217l2.149-5.46,2.142-5.538,2.434-6.297c.499-1.29,1.197-2.59,1.546-3.977.561-2.232,1.688-4.578,3.484-5.52.314-.165.834.85.923,1.201,1.41,5.58,2.054,4.945,2.625,7.629.054.253-.776.3-.94.34Z" fill="#6c7c96"/>
  <path d="M669.165,710.501c-.162.135-.529-.489-.529-1.189l-.002-130.731c0-1.051.725-1.449.966-1.448l-.501,5.544c.02,29.568-.433,96.102.067,127.825Z" fill="#8f9cb0"/>
  <path d="M276,711.461c.3-43.211-.618-86.537.48-129.531v128.932s-.48.599-.48.599Z" fill="#1c355e"/>
  <polygon points="622.08 708.103 622.08 580.97 638.88 580.97 638.88 713.38 622.08 713.38 622.08 584.808 622.561 585.406 622.561 707.505 622.08 708.103" fill="#1c355e"/>
  <path d="M771.417,677.444l-.057-92.636c.079-.179.472.209.473,1.197l.009,90.043c0,.749-.349,1.579-.425,1.396Z" fill="#1c355e"/>
  <path d="M447.84,669.243v-86.354h.48l-.009,85.653c0,.138-.571.844-.471.701Z" fill="#1c355e"/>
  <path d="M574.127,633.76c-20.373.754-41.117.787-61.487-.018l61.487.018Z" fill="#1c355e"/>
  <path d="M572.16,649.094c.122.098-.636.483-1.192.483h-55.31c-.691,0-1.296-.48-1.098-.483h57.6Z" fill="#a4aebe"/>
  <path d="M576.48,710.022c-.806-14.073-.405-41.522-.473-55.565-.003-.706.533-2.147.473-1.525v57.09Z" fill="#a4aebe"/>
  <path d="M579.36,316.631c.24.355.314.361.48,0,.696.198,7.645,3.874,7.572,4.781-.33,1.448-4.895-2.229-7.414-3.472l-4.889-2.41c-1.829-.902-4.182-1.408-4.869-3.217,1.087-.027,2.939.928,4.099,1.47,1.903.89,3.684,1.403,5.021,2.847Z" fill="#697a95"/>
  <path d="M428.64,713.38c-6.575,2.312-13.632,2.539-20.714,1.011-.432-.093-1.432-.061-1.846-.052-.127.003-.366.019-.48,0l-.946-1.029c8.702-.312,5.812,2.858,22.387-.27.546-.103,1.643.209,1.6.339Z" fill="#6c7c96"/>
  <path d="M611.112,781.986l-.072,1.916c-.481,12.839-.338,26.019,0,38.859l.063,2.396-.495.961c-.072.234-.613-.683-.59-1.442.418-13.794-.566-29.633.553-43.65l.542.959Z" fill="#8f9cb0"/>
  <path d="M577.012,583.372l-.052,1.437c-.548,15.234-.48,30.683-.48,46.055-.043.177-.568-.724-.556-1.164.435-15.369-.549-31.6.556-46.81l.532.482Z" fill="#a4aebe"/>
  <path d="M449.76,402.985c.645.575,1.757.576,2.4,0h18.72c.794.633,2.086.633,2.88,0h1.92c.291.548.929.804,1.944,1.027l6.216,1.371c.352.078,1.057.013,1.44,0,.136.165.672.508.96.48l1.435-.142.005,1.102c-1.773-.663-3.69-.54-5.765-1.061l-6.681-1.678-7.237-.473c-4.781-.313-9.59-.239-14.34.022l-4.913.27c-6.728.369-2.738,1.962-10.985,1.962v-.48c.263.004.721.016.96,0,1.175-.077,8.024-1.603,8.16-2.399h2.88Z" fill="#7c8aa1"/>
  <path d="M520.32,412.58c.599-.016,1.514-.215,1.92-.48.671.315,2.164.436,2.894.339,3.129,1.658,6.976,2.06,10.546,2.06h4.8c3.75,0,7.816-.181,11.026-2.071l1.934.152c.288.023.801-.31.96-.48l.848-.141c1.173-.195,2.352-.475,3.472-.863-.296.59-1.214,1.233-1.944,1.34-5.062.743-8.704,2.533-10.946,2.533l-14.056.006c-2.693.001-5.467-1.345-8.106-1.793-1.216-.206-2.611-.253-3.348-.603Z" fill="#7c8aa1"/>
  <path d="M513.585,827.422c-1.617-1.888-2.204-4.259-2.881-6.728-.308-1.121-1.36-2.678-1.626-3.931-.378-1.785-1.02-3.138-1.718-4.555l.24-2.512c.979,2.267,1.694,4.252,2.536,6.584l2.392,6.625c.549,1.521,1.75,3.216,1.057,4.518Z" fill="#6c7c96"/>
  <path d="M350.88,398.188l-.96-1.439c-.157-.235-.842-2.458-.96-.959l-.48-.959v-.959c0-.277-.316-.732-.48-.959l-1.44-1.439v-.48c0-.16.04-.361,0-.48l-.48-1.439-.476-1.442c-.281-.851-.74-1.824-1.444-1.916v-.48l-.48-.48v-1.439c.167-.043.528-.139.712-.172.27-.048.7.683.81.986l1.246,3.43c1.103,3.037,2.633,5.859,4.425,8.648.343.533.462,1.773.008,1.979Z" fill="#697a95"/>
  <path d="M379.812,418.663l1.308.154.795.506c.276.176,1.068-.336,1.125-.506l6.246.137c1.116.024,2.973.231,3.834-.137l1.149.57c.225.111.707-.43.771-.57h.96c3.662,0,2.596-.441,6.72-.959-.905.92-2.328,1.369-3.781,1.469l-4.42.307c-2.872.199-18.139.85-19.159-1.776,1.454.346,3.016.637,4.452.806Z" fill="#7c8aa1"/>
  <path d="M432.48,825.64h-.48v-39.339c.125.05.477.764.477,1.087l.003,38.252Z" fill="#1c355e"/>
  <path d="M396.48,311.834l2.026-3.29,1.814-2.947c.268-.256.285-.374.043-.511.002-1.092.909-2.984,1.877-3.806l1.124-.956c-.21,1.855-3.198,7.777-3.98,9.113l-2.425,4.14-.48-1.743Z" fill="#697a95"/>
  <path d="M446.111,157.835h-.671c.01-1.137.149-2.317.48-3.357,1.003-.06,1.176-1.403,1.44-2.399.263-.99.677-2.416.974-3.344.545-.327,1.503-1.001,1.426-1.453.257-.636.618-1.318.96-1.919l2.924-2.877c-.585,2.15-1.321,2.035-3.466,5.872-.864,1.547-1.429,2.946-2.151,4.733l-1.916,4.744Z" fill="#6c7c96"/>
  <path d="M575.517,401.035l-1.437,2.43h-.48l-.48.48h-.48c-.283,0-.822.232-.96.48-.44.788-1.846,1.849-2.88,1.919l-1.44,1.439h-.48c-.571,0-1.427.233-1.92.48l-.96.48-1.086-.146c-.789-.281,2.502-1.334,4.818-2.666,3.587-2.065,4.948-3.782,7.786-4.895Z" fill="#697a95"/>
  <path d="M618.287,808.847l-1.456.1c-.244,6.028.461,11.98-.511,17.653l-.501-.949.023-16.887,1.648-.898c.14.159.617.723.797.981Z" fill="#8f9cb0"/>
  <path d="M504,409.702c1.045.282,2.281.409,3.36.48,2.404.842,7.996,1.919,10.56,1.919h1.92v.48c-3.351.455-9.965-.723-13.36-1.622-2.246-.595-9.322-.101-10.64-2.216l6.736,1.417c.337.071,1.489-.322,1.424-.457Z" fill="#7c8aa1"/>
  <path d="M433.92,712.9c-1.44.521-3.347.806-5.057,1.293-2.964.844-5.723,1.706-8.846,1.661l-10.535-.152c-1.068-.015-2.754-.773-3.402-1.363.414-.01,1.414-.042,1.846.052,7.081,1.528,14.139,1.301,20.714-1.011h1.92c.927-.161,2.511-.397,3.36-.48Z" fill="#7c8aa1"/>
  <path d="M625.92,780.544c.041.139-1.109.566-1.475.507l-4.628-.749c-2.631-.426-4.92-.906-7.593-.54l-1.112,2.224-.542-.959c.057-.717.412-2.026,1.082-2.09,4.307-.409,10.184.33,14.267,1.608Z" fill="#6c7c96"/>
  <path d="M683.04,798.774c.129.011-.808.489-1.132.489l-12.597-.006c-.313,0-.854-.943-.671-.963,4.804.118,9.755-.417,14.4.48Z" fill="#828fa6"/>
  <path d="M603.36,361.727c0-4.026.96-2.446.96-5.757v-1.439c.011.124.494-.796.494-1.045v-6.065c0-.247-.483-1.165-.494-1.045.011-.372.054-1.084,0-1.439-.185-1.208-.711-3.601-.96-4.797,2.709-.274,2.376,21.132,0,21.588Z" fill="#7c8aa1"/>
  <path d="M360.011,407.779l-.971.004h-.48c-.216-.417-.628-1.152-.96-1.439-.674-.584-1.895-1.636-2.4-2.399-.61-.922-1.398-1.712-2.4-2.399v-.48l-.48-.48v-.959c1.635.817,2.779,2.508,4.173,4.075,1.2,1.349,2.777,2.613,3.519,4.076Z" fill="#697a95"/>
  <path d="M332.16,224.041l.057-2.358-.008-.557.431-2.362c.633-.752.691-2.098.092-2.878l1.882-4.677c1.272-.586-2.359,12.83-1.748,12.815l-.706.017Z" fill="#7c8aa1"/>
  <path d="M498.24,150.64v.48c0,.601.208,1.418.48,1.919.141.26.384.704.48.959l1.44,3.838.275.902-.664.422c-.867-2.208-2.092-5.386-3.218-7.656l-1.364-2.751,2.571,1.888Z" fill="#6c7c96"/>
  <path d="M569.228,312.339c-1.399,1.275-2.748-.36-4.175-1.117-1.515-.803-3.424-1.041-4.004-2.565,1.06-1.013,7.137,2.919,8.179,3.682Z" fill="#697a95"/>
  <path d="M447.84,779.105h-24.561c-.321,0-1.055-.449-.879-.393,8.484.018,17.106-.552,25.44.393Z" fill="#1e3760"/>
  <path d="M504,409.702c.066.135-1.087.528-1.424.457l-6.736-1.417c-.122-.026-.337-.006-.48,0l-.946-1.027c2.258-.248,4.508.617,6.914,1.266l2.673.721Z" fill="#697a95"/>
  <path d="M465.6,133.369l1,.708c-.719.216-5.132,3.13-7.24,2.651v-.48c.661-.417,1.6-.738,2.4-.959.849-.235,1.834-.738,1.92-1.439.501-.188,1.419-.48,1.92-.48Z" fill="#6c7c96"/>
  <path d="M682.08,778.715c.1.015-.82.392-1.212.392l-17.346.003c-.295,0-1.222-.393-1.121-.395h19.68Z" fill="#1e3760"/>
  <path d="M376.412,694.194l-.553-.052-1.347-2.128c-.678-1.072-1.552-2.87-1.552-4.06.83-1.191,4.076,5.897,3.452,6.24Z" fill="#6c7c96"/>
  <path d="M372.96,687.474c-.699-1.236-1.467-2.54-1.92-3.838.625-.813.576-2.361.64-3.817.014,2.515,3.289,7.691,1.28,7.655Z" fill="#6c7c96"/>
  <path d="M485.755,137.692c.501.02,1.458.273,1.916.484l1.923,2.442,1.401.925.011.866c-1.759-1.095-4.718-3.325-6.105-4.648.232-.024.64-.078.854-.069Z" fill="#6c7c96"/>
  <path d="M399.84,779.105l-17.039-.002c-.419,0-1.316-.353-1.201-.389,5.017-.182,13.731-.292,18.24.39Z" fill="#1e3760"/>
  <path d="M403.666,416.846l-.466,1.011c-.123,0-.362-.015-.48,0-4.124.519-3.058.959-6.72.959-.248-1.2,6.177-2.01,7.666-1.971Z" fill="#697a95"/>
  <path d="M615.819,825.65l.501.949c-.081.474-.565,1.198-.96,1.439l-3.719-.035-1.044-1.446.01-.439.495-.961c.527.775,1.414,1.834,2.161,1.981.928.182,2.11-.701,2.554-1.488Z" fill="#6c7c96"/>
  <path d="M478.56,133.849l.941.528c.091.051.335-.017.432.019-.168,1.751,4.01,1.207,4.387,2.812-2.536-.542-5.268-1.86-7.64-2.891l.92-.947.96.48Z" fill="#6c7c96"/>
  <path d="M604.32,355.97c0,3.311-.96,1.731-.96,5.757v.48l-1.018.466c-.069-1.718.5-6.589,1.978-6.703Z" fill="#697a95"/>
  <path d="M444,162.633c.652-.905.955-2.189.96-3.358,0-.16-.051-.378,0-.48l1.034-.466c.036,1.042-.182,2.296-.539,3.441l-1.334,4.28-.121-3.418Z" fill="#6c7c96"/>
  <path d="M373.642,416.679l-1.642.219c-.123.016-.351.006-.48,0l-1.441-1.497-.442-.005-2.428-1.938c2.338.743,4.664,1.682,6.433,3.221Z" fill="#697a95"/>
  <path d="M602.4,364.126l-.96,3.838c-.03.122.009.378,0,.48l-.525.48c0,.136.01.365-.008.48l-1.194.754c.237-1.675,1.034-5.055,2.687-6.031Z" fill="#697a95"/>
  <path d="M603.36,339.659c-.007.143-.025.357,0,.48.249,1.196.775,3.589.96,4.797-1.554-.032-1.962-5.082-2.036-5.764l1.076.487Z" fill="#697a95"/>
  <path d="M443.044,708.007l-1.967,1.495-.44-.009-1.437,1.488c-.128.002-.365.014-.48,0l-1.587-.198c1.64-1.408,3.767-2.681,5.911-2.776Z" fill="#6c7c96"/>
  <path d="M411.848,414.383l-1.448,1.555c-.147-.004-.368-.025-.48,0l-4.32.959c.026-1.093,4.497-2.425,6.248-2.515Z" fill="#697a95"/>
  <path d="M506.4,809.329c-.46-1.452-1.248-2.849-1.92-4.318l.69-1.874,2.018,4.868c.067.162.241.947.083,1.004l-.871.319Z" fill="#6c7c96"/>
  <path d="M683.52,712.9c-3.929.855-8.105.374-12.542.502-1.209.035-2.067-1.462-1.805-2.421l.994,1.921,13.353-.002Z" fill="#8f9cb0"/>
  <path d="M590.4,323.348c.151,0,.369-.028.48,0l.96.48c.556.485,1.429,1.359,1.92,1.919l.476.973c-1.552-.384-4.552-2.859-4.809-3.377l.973.005Z" fill="#697a95"/>
  <path d="M492.96,407.783l-4.8-.959c-.113-.023-.337-.003-.48,0l-.005-1.102c1.804-.179,5.417,1.227,5.285,2.061Z" fill="#697a95"/>
  <path d="M436.328,710.889c-.751.606-1.451,1.278-1.928,2.011-.148-.004-.357-.012-.48,0-.849.083-2.433.319-3.36.48-1.319-.198,6.009-3.223,5.768-2.491Z" fill="#6c7c96"/>
  <path d="M379.812,418.663c-1.436-.169-2.998-.46-4.452-.806h-.48l-.489-1.09c1.472-.041,4.334.725,5.421,1.896Z" fill="#697a95"/>
  <path d="M385.92,798.295l-.275.363c-.073.096-.665-.582-.665-.713l-.03-10.423c0-.111.603-.953.49-.741l-.011,10.474c0,.263.466,1.17.491,1.04Z" fill="#828fa6"/>
  <path d="M434.885,405.73l-.005,1.093c-.131-.007-.358-.027-.48,0l-4.32.959c-.238-.591,3.336-2.265,4.805-2.052Z" fill="#697a95"/>
  <path d="M494.329,144.953l.02.429c.857.856,1.578,1.881,1.329,2.951-1.489-.965-2.688-2.666-2.794-4.411l1.445,1.03Z" fill="#6c7c96"/>
  <path d="M385.946,704.738l-.986.006h-.48l-1.44-1.439c-.127-.135-.346-.376-.48-.48l.003-.996c1.364.112,2.815,1.786,3.384,2.909Z" fill="#6c7c96"/>
  <path d="M559.688,410.1l-.488.992-.48.005c-1.12.388-2.299.667-3.472.863,1.003-1.18,2.887-2.032,4.44-1.86Z" fill="#697a95"/>
  <path d="M598.08,330.064l1.417,1.458.447.461.01.48.045.48c-1.812-.134-2.94-2.096-2.953-3.838.282.257.778.697,1.033.959Z" fill="#697a95"/>
  <path d="M461.76,682.676l-.96,3.838v.48l-1.046-.014c-.09-1.526.602-3.678,2.006-4.304Z" fill="#6c7c96"/>
  <path d="M477.13,806.877c-.891-.865-1.626-2.089-1.93-3.305l.739-.902c-.141.171,2.566,3.684,1.191,4.207Z" fill="#6c7c96"/>
  <path d="M416.626,412.469l-1.031,1c-.391.379-.761.753-.944.96-.111.008-.327.031-.431.02l-1.609-.165c1.056-.949,2.64-1.921,4.015-1.816Z" fill="#697a95"/>
  <path d="M602.36,336.344c-.002.121.001.333-.009.439l-.154,1.584c-.681-.951-1.852-2.792-2.12-3.859.898.388,1.673,1.04,2.283,1.836Z" fill="#697a95"/>
  <path d="M471.36,132.889c.024.107.518.667.714.537l.726-.48,1.44.423v.534c-1.259.065-2.557.048-3.816-.026l-.024-.507c.227-.153.688-.49.96-.48Z" fill="#6c7c96"/>
  <path d="M409.92,415.938c-.093.256-.957.951-1.383,1.022l-5.337.897.466-1.011,1.934.052,4.32-.959Z" fill="#7c8aa1"/>
  <path d="M422.386,410.062l.014,1.079h-.48l-2.88.959c.43-1.417,1.946-2.211,3.346-2.039Z" fill="#697a95"/>
  <path d="M389.191,707.076c.31.44.624.758,1.049,1.026,1.684,1.063,3.477,2.078,5.28,2.878l.951-.116c.971.846,3.133,1.846,4.329,2.035.237.037.701.008.96,0,.166.168.672.49.96.48l1.934-.069.946,1.029c-1.586-.262-4.833-.666-6.33-1.275l-4.543-1.848c-1.123-.457-6.515-3.021-6.407-4.074l.871-.067Z" fill="#7c8aa1"/>
  <path d="M457.524,138.168c.045,1.083-1.511,2.519-2.444,2.818.315-.959.821-1.915,1.4-2.819h1.044Z" fill="#6c7c96"/>
  <path d="M492.96,407.783c.357.071,1.077-.027,1.454-.068l.946,1.027c-2.191-.881-5.433.065-7.2-1.919l4.8.959Z" fill="#7c8aa1"/>
  <path d="M460.8,686.514l.96-3.838v-1.919h.48l.014,3.477c.003.699-.857,1.972-1.454,2.28Z" fill="#7c8aa1"/>
  <path d="M584.624,392.412c-.19.918-.728,1.722-1.424,2.418l-.48.48-1,.478c.121-1.235,1.965-2.726,2.904-3.376Z" fill="#697a95"/>
  <path d="M434.4,406.823c-.462.81-1.75,1.306-2.903,1.346-4.857.168-2.661,1.63-9.097,2.971l-.014-1.079.974.12c2.024-.49,4.014-1.38,5.768-2.507.236.041.723.097.952.108l4.32-.959Z" fill="#7c8aa1"/>
  <path d="M459.36,690.352v.959l-1.95,1.418c-.01-.504.086-1.221.231-1.653s1.36-.783,1.719-.724Z" fill="#6c7c96"/>
  <path d="M367.209,413.458l2.428,1.938c-.573.469-7.504-4.045-7.237-4.734l.587-.444,1.399,1.708c1.185.303,2.311.734,2.822,1.533Z" fill="#7c8aa1"/>
  <path d="M601.44,367.964l.96-3.838-.058-1.453,1.018-.466-.925,4.344c-.105.494-.71,1.288-.995,1.413Z" fill="#7c8aa1"/>
  <path d="M591.84,384.275v.48c0,.12,0,.457,0,.48l-.529.46-.02.431-.981.055c-.007-.357-.163-1.122.161-1.272l1.369-.633Z" fill="#697a95"/>
  <path d="M485.755,137.692c-.214-.009-.622.045-.854.069l-.581-.554c-.377-1.605-4.555-1.061-4.387-2.812l2.429.902c1.403.521,2.713,1.322,3.392,2.395Z" fill="#76859d"/>
  <path d="M389.191,707.076l-.871.067c-.393-.109-1.103-.301-1.44-.48l.088-1.014c.79.263,1.774.791,2.222,1.427Z" fill="#6c7c96"/>
  <path d="M562.458,408.701l.102,1.481h-1.92c.25-.525,1.193-1.257,1.818-1.481Z" fill="#697a95"/>
  <path d="M470.4,133.369l.024.507c-1.058-.063-2.867-.088-3.824.2l-1-.708h4.8Z" fill="#76859d"/>
  <path d="M591.84,384.755v-.48c.422-.195.848-.944.96-1.439l.48-.959c.537-.39,1.281-1.213,1.44-1.919.816-.645,1.246-1.774,1.44-2.878.372-.057.948-.247,1.217-.469s-.028-1.18.175-1.464l1.28-1.793c.343-.48.593-1.495.566-2.106.093-.293.275-.809.315-1.09l1.194-.754c-.189,1.213-1.197,3.507-1.834,4.607l-2.363,4.083c-.473.817-4.253,6.997-4.87,6.662Z" fill="#7c8aa1"/>
  <polygon points="477.6 133.369 476.68 134.316 474.24 133.903 474.24 133.369 477.6 133.369" fill="#76859d"/>
  <path d="M587.04,390.512c-.159.528-.534,1.098-.96,1.439l-.881-.047c.276-.754,1.041-1.29,1.841-1.393Z" fill="#697a95"/>
  <path d="M412.611,414.285l1.609.165-3.82,1.488,1.448-1.555c.192-.01.574-.074.763-.098Z" fill="#7c8aa1"/>
  <path d="M522.24,412.1c-.406.265-1.321.464-1.92.48-.12.003-.366-.016-.48,0v-.48c.801-.619,1.551-.399,2.4,0Z" fill="#697a95"/>
  <path d="M453.6,699.947c-1.424,1.733-3.066,3.374-4.8,4.797l.48-1.439,1.811-1.21c.422-.282,1.035-1.161,1.069-1.668l1.44-.48Z" fill="#7c8aa1"/>
  <path d="M444,162.633v-1.439c0-.781.316-1.584.96-1.919-.005,1.169-.308,2.453-.96,3.358Z" fill="#76859d"/>
  <path d="M500.64,157.836l-1.44-3.838c1.504.577,1.613,2.303,1.44,3.838Z" fill="#76859d"/>
  <path d="M455.08,140.986l-1,.321c-.321.103-.382.848-.437,1.179l-2.924,2.877c1.584-2.786,3.459-5.017,5.76-7.196-.579.904-1.084,1.86-1.4,2.819Z" fill="#76859d"/>
  <path d="M437.76,405.384v.48h-1.92c-.025-.298.357-1.223.668-1.075l1.252.595Z" fill="#697a95"/>
  <path d="M498.24,150.64l-2.571-1.888c-.016-.1,0-.311.01-.418.249-1.07-.472-2.095-1.329-2.951,2.673,1.344,1.213,2.386,3.89,5.257Z" fill="#76859d"/>
  <path d="M615.36,828.039c-.525.321-1.444.522-2.446.577-1.308.072-2.341-.962-2.316-2.058l1.044,1.446,3.719.035Z" fill="#8f9cb0"/>
  <path d="M385.946,704.738l1.022.912-.088,1.014c-.642-.34-1.487-1.291-1.92-1.919l.986-.006Z" fill="#7c8aa1"/>
  <path d="M602.36,336.344c-.61-.796-1.385-1.448-2.283-1.836-.095-.38-.04-1.171-.077-1.565l-.045-.48c.861,1.262,1.787,2.603,2.405,3.881Z" fill="#7c8aa1"/>
  <path d="M449.28,703.305l-.48,1.439h-.96l.108-1.137c.033-.353,1.018-.237,1.332-.302Z" fill="#6c7c96"/>
  <path d="M453.6,698.988v.959l-1.44.48.08-1.167c.025-.367,1.019-.136,1.36-.272Z" fill="#6c7c96"/>
  <path d="M453.6,699.467v-.48c.69-.275,1.395-1.599,1.44-2.399.435-.311.814-.9.96-1.439l1.44-.48-1.356,1.986c-.771,1.129-1.505,2.121-2.484,2.811Z" fill="#7c8aa1"/>
  <path d="M455.52,242.271c.879-.152,2.067-.325,2.943-.417.055.415-.814,1.282-1.236,1.121-.544-.208-1.341-.535-1.707-.704Z" fill="#1d365e"/>
  <path d="M382.563,701.83l-.003.996c-1.149-.874-2.556-2.376-3.52-3.623l-1.28-1.654c.555.332,1.755,1.113,2.095,1.67.733,1.19,1.397,2.504,2.707,2.611Z" fill="#7c8aa1"/>
  <path d="M343.68,363.646v-2.878c.959.796.455,1.936,0,2.878Z" fill="#1d365e"/>
  <path d="M588.96,387.633v.959c0,.169.063.372,0,.48h-.96l.038-1.139c.009-.263.666-.237.922-.3Z" fill="#697a95"/>
  <path d="M459.36,136.727c-.063.216-.164.817-.412.845l-1.028.115c.353-.478.956-1.134,1.44-1.439v.48Z" fill="#76859d"/>
  <path d="M462.24,680.278c.049.116,0,.317,0,.48h-.48c-.112-.142-.563-.562-.445-.755l.477-.784.449,1.059Z" fill="#6c7c96"/>
  <path d="M362.987,410.217l-.587.444c-.092.07-.296.014-.48,0v-.959c.105-.088.608-.627.695-.413l.373.928Z" fill="#697a95"/>
  <path d="M564,408.742l-1.44,1.439-.102-1.481c.114-.041.334-.082.456-.105l1.086.146Z" fill="#7c8aa1"/>
  <path d="M460.8,686.994l-1.44,3.838v-1.439c.166-.15.497-.671.48-.959l-.086-1.453,1.046.014Z" fill="#7c8aa1"/>
  <path d="M435.84,405.864h1.44l-2.4.959.005-1.093c.255.037.714.133.955.133Z" fill="#7c8aa1"/>
  <path d="M332.64,218.763l.092-2.878c.599.78.541,2.127-.092,2.878Z" fill="#243c64"/>
  <path d="M345.604,387.631c-.634-.293-1.444-1.26-1.444-1.916.704.092,1.163,1.066,1.444,1.916Z" fill="#7c8aa1"/>
  <path d="M418.08,412.58c-1.007.645-2.42,1.471-3.429,1.85.183-.208.553-.581.944-.96l1.031-1,1.454.111Z" fill="#7c8aa1"/>
  <path d="M409.44,282.09c-.033-.754.084-1.871.48-2.399.1.867-.018,1.787-.48,2.399Z" fill="#1d365e"/>
  <polygon points="457.44 694.19 457.41 692.729 459.36 691.312 457.44 694.19" fill="#7c8aa1"/>
  <path d="M445.92,154.478c.316-.856.829-1.703,1.44-2.399-.264.996-.437,2.339-1.44,2.399Z" fill="#76859d"/>
  <path d="M445.92,706.664c-1.385,1.315-3.006,2.487-4.843,2.838l1.967-1.495,2.876-1.344Z" fill="#7c8aa1"/>
  <polygon points="603.36 339.659 602.284 339.172 602.197 338.367 602.351 336.783 603.36 339.659" fill="#7c8aa1"/>
  <path d="M463.68,133.849c-.086.702-1.071,1.204-1.92,1.439.404-.706,1.138-1.262,1.92-1.439Z" fill="#76859d"/>
  <path d="M576.48,401.066c-.68.884-1.516,1.721-2.4,2.399l1.437-2.43.963.031Z" fill="#7c8aa1"/>
  <path d="M421.92,411.141c-.399,1.096-2.393,1.439-3.36,1.439l.48-.48,2.88-.959Z" fill="#7c8aa1"/>
  <path d="M437.133,710.784l1.587.198c-.65,1.035-1.691-.299-4.32,1.919.476-.733,1.176-1.405,1.928-2.011l.805-.106Z" fill="#7c8aa1"/>
  <path d="M586.08,391.951l-1.421,1.999c-.251.353-1.107.827-1.459.88.696-.695,1.233-1.499,1.424-2.418.158-.109.422-.365.576-.507l.881.047Z" fill="#7c8aa1"/>
  <path d="M448.32,704.745c-.546.69-1.236,1.381-1.92,1.919.382-.702.885-1.389,1.44-1.919h.48Z" fill="#7c8aa1"/>
  <path d="M560.64,410.181h1.44l-2.88.91.488-.992c.258.029.713.082.952.082Z" fill="#7c8aa1"/>
  <path d="M373.642,416.679c.185.023.561.093.75.088l.489,1.09-2.88-.959,1.642-.219Z" fill="#7c8aa1"/>
  <path d="M684.96,708.582c-.155.53-.39,1.38-.48,1.919h-.48v-1.919h.96Z" fill="#7c8aa1"/>
  <path d="M684,712.42v-1.919h.48c-.098.59-.131,1.537-.48,1.919Z" fill="#8f9cb0"/>
  <path d="M592.879,172.263l-.559-1.474c.087-.001,1.076.006.994.238l-.435,1.236Z" fill="#1d365f"/>
  <path d="M598.08,330.064c-.255-.262-.751-.703-1.033-.959-.623-1.121-1.621-2.09-2.811-2.385l-.476-.973c1.825.719,3.628,2.488,4.32,4.318Z" fill="#7c8aa1"/>
  <path d="M498.72,153.038c-.272-.501-.48-1.318-.48-1.919.256.43.434,1.276.48,1.919Z" fill="#76859d"/>
  <path d="M566.88,407.783c-.43.256-1.277.434-1.92.48.493-.246,1.349-.48,1.92-.48Z" fill="#7c8aa1"/>
  <path d="M581.76,396.749l-.04-.961,1-.478c-.159.535-.545,1.149-.96,1.439Z" fill="#7c8aa1"/>
  <path d="M405.12,293.124c.099-.655.265-1.34.48-1.919-.072.657-.237,1.367-.48,1.919Z" fill="#1d365e"/>
  <path d="M590.4,323.348l-.973-.005-.947-1.914c.685.53,1.375,1.227,1.92,1.919Z" fill="#7c8aa1"/>
  <path d="M369.6,337.26c-.34.207-1.012.392-1.44.48.323-.235,1.006-.414,1.44-.48Z" fill="#1d365e"/>
  <path d="M360.011,407.779c.453.894.758,1.932,1.909,1.923v.959c-1.058-.81-2.063-1.82-2.88-2.878l.971-.004Z" fill="#7c8aa1"/>
  <path d="M352.32,399.627v.48c-.292-.22-.804-.648-.96-.959l.96.48Z" fill="#7c8aa1"/>
  <path d="M591.291,386.125c-.543.935-1.417,1.828-2.331,2.468v-.959l.986-.242c.323-.079.37-.878.363-1.211l.981-.055Z" fill="#7c8aa1"/>
  <polygon points="492 142.484 491.006 142.409 490.995 141.542 492 142.484" fill="#76859d"/>
  <path d="M472.8,132.946l-.726.48c-.196.13-.69-.43-.714-.537l1.44.057Z" fill="#76859d"/>
  <path d="M446.111,157.835c-.046.114-.086.347-.117.495l-1.034.466.48-.959h.671Z" fill="#76859d"/>
  <path d="M494.329,144.953l-1.445-1.03-.404-.959c.739.534,1.414,1.228,1.849,1.989Z" fill="#76859d"/>
  <path d="M332.16,227.879v-1.439l.559.716c.15.192-.436.689-.559.723Z" fill="#243c64"/>
  <path d="M377.28,696.109c-.753-.443-1.134-1.155-1.421-1.967l.553.052.868,1.915Z" fill="#7c8aa1"/>
  <path d="M671.502,577.178l-1.422-.045.723-.573c.193-.153.697.493.699.618Z" fill="#8f9cb0"/>
  <path d="M445.488,246.608c-.178.201-.655.59-.89.788-.204.171-.561-.695-.598-.806l1.488.019Z" fill="#1d365e"/>
  <polygon points="346.56 390.512 346.08 390.512 346.08 389.073 346.56 390.512" fill="#1d365e"/>
  <path d="M588.96,389.073l-.429.732c-.088.151-.368-.132-.531-.253v-.48h.96Z" fill="#7c8aa1"/>
  <path d="M355.2,403.945c-.884-.68-1.722-1.516-2.4-2.399,1.002.687,1.79,1.476,2.4,2.399Z" fill="#7c8aa1"/>
  <path d="M407.04,288.326l.05-1.439c.153.074.985.377.795.57-.256.259-.677.659-.845.869Z" fill="#1d365e"/>
  <path d="M489.594,140.617l-1.923-2.442c.928.427,1.784,1.485,1.923,2.442Z" fill="#76859d"/>
  <path d="M448.334,148.735c.159-.497.974-1.167,1.426-1.453.077.452-.881,1.126-1.426,1.453Z" fill="#76859d"/>
  <path d="M479.501,134.376l-.941-.528.941.528Z" fill="#76859d"/>
  <path d="M348.48,393.87h-.48v-.959c.164.227.48.683.48.959Z" fill="#1d365e"/>
  <path d="M451.2,244.19c-.091.108-.293.356-.403.451-.164.142-.488-.306-.557-.451h.96Z" fill="#1d365e"/>
  <path d="M672.48,578.092l-.543-.897c.224.026.501.032.525.178.027.164.061.57.018.718Z" fill="#8f9cb0"/>
  <path d="M348.48,394.83c-.123-.246-.48-.685-.48-.959h.48v.959Z" fill="#7c8aa1"/>
  <path d="M349.92,396.749c-.292-.22-.804-.648-.96-.959.118-1.499.803.725.96.959Z" fill="#7c8aa1"/>
  <path d="M358.56,407.783c-.438-.265-.839-.906-.96-1.439.332.288.744,1.022.96,1.439Z" fill="#7c8aa1"/>
  <path d="M576.96,401.066l.96-1.439c-.122.533-.523,1.175-.96,1.439Z" fill="#7c8aa1"/>
  <path d="M452.64,215.405l-.48-.959c.237.143.459.684.48.959Z" fill="#76859d"/>
  <path d="M572.64,403.945l-.96.48c.138-.248.677-.48.96-.48Z" fill="#7c8aa1"/>
  <path d="M591.84,323.827l-.96-.48c.271.069.749.296.96.48Z" fill="#7c8aa1"/>
  <path d="M591.311,385.694l.529-.46s-.474.41-.529.46Z" fill="#7c8aa1"/>
  <path d="M411.36,277.772c-.004-.157-.021-.366,0-.48.361.165.355.239,0,.48Z" fill="#1d365e"/>
  <path d="M332.217,221.682c.003-.142-.034-.414-.008-.557l.008.557Z" fill="#243c64"/>
  <path d="M332.16,228.838c.033-.109,0-.326,0-.48.351.191.351.288,0,.48Z" fill="#243c64"/>
  <path d="M576.48,632.303v-.48c.363.167.36.244,0,.48Z" fill="#213a62"/>
  <path d="M344.16,385.235c-.132-.086-.48-.302-.48-.48l.48.48Z" fill="#7c8aa1"/>
  <path d="M377.76,697.069l-.48-.48.48.48Z" fill="#7c8aa1"/>
  <path d="M400.32,305.597c.017-.153.043-.379.043-.511.242.138.225.255-.043.511Z" fill="#1d365e"/>
  <path d="M579.36,316.631c.165-.01.359-.034.48,0-.166.361-.24.355-.48,0Z" fill="#1d365e"/>
  <path d="M384.48,704.745c-.468-.439-.989-.96-1.44-1.439l1.44,1.439Z" fill="#7c8aa1"/>
  <path d="M599.945,331.983l-.447-.461.447.461Z" fill="#7c8aa1"/>
  <path d="M371.52,416.898c-.501-.428-1.024-.974-1.441-1.497l1.441,1.497Z" fill="#7c8aa1"/>
  <path d="M439.2,710.981l1.437-1.488c-.419.519-.939,1.06-1.437,1.488Z" fill="#7c8aa1"/>
  <path d="M360.48,341.578c.113-.021.323-.004.48,0-.24.355-.314.361-.48,0Z" fill="#1d365e"/>
  <path d="M346.098,356.975l-.018-.525c.327.163.321.252.018.525Z" fill="#1d365e"/>
  <path d="M600.915,368.923l.525-.48-.525.48Z" fill="#7c8aa1"/>
  <path d="M567.36,407.783l1.44-1.439-1.44,1.439Z" fill="#7c8aa1"/>
  <path d="M573.12,403.945l.48-.48-.48.48Z" fill="#7c8aa1"/>
  <path d="M420.48,781.983c.018-.123,0-.329,0-.48.351.191.351.288,0,.48Z" fill="#7c8aa1"/>
  <path d="M352.8,401.066l-.48-.48.48.48Z" fill="#7c8aa1"/>
  <path d="M578.88,399.147l.48-.48-.48.48Z" fill="#697a95"/>
  <path d="M579.84,398.188l1.44-1.439-1.44,1.439Z" fill="#7c8aa1"/>
  <polygon points="457.524 138.168 456.96 138.166 457.44 137.687 457.524 138.168" fill="#76859d"/>
  <path d="M348,392.911l-1.44-1.439,1.44,1.439Z" fill="#7c8aa1"/>
  <path d="M346.56,390.992l-.48-.48h.48c.04.119,0,.319,0,.48Z" fill="#7c8aa1"/>
  <path d="M432,826.12v-.48h.48c0,.179-.348.395-.48.48Z" fill="#7c8aa1"/>
  <path d="M468.48,402.985h-14.88c-.191-.02.355-.966.686-.966l13.114.007c.489,0,1.058.051,1.063.231l.017.728Z" fill="#697a95"/>
  <path d="M551.506,412.428c-3.21,1.89-7.276,2.071-11.026,2.071l.091-.781c5.264.206,6.992-1.601,10.935-1.29Z" fill="#697a95"/>
  <path d="M535.68,414.499c-3.57,0-7.418-.402-10.546-2.06,4.413-.587,5.489,1.459,10.47,1.323l.076.737Z" fill="#697a95"/>
  <path d="M517.92,412.1c-2.564,0-8.156-1.077-10.56-1.919-.263.014.894-.552,1.154-.504l8.666,1.599c.215.04.889.887.741.824Z" fill="#697a95"/>
  <path d="M483.84,405.384l-6.216-1.371c-1.015-.224-1.653-.48-1.944-1.027.95,0,8.383.655,8.16,2.399Z" fill="#697a95"/>
  <path d="M604.32,354.531c-.778-2.485-.765-5.689,0-8.156.011-.12.494.798.494,1.045v6.065c0,.25-.484,1.169-.494,1.045Z" fill="#697a95"/>
  <path d="M446.88,402.985c-.136.796-6.985,2.321-8.16,2.399,2.132-1.798,5.311-2.399,8.16-2.399Z" fill="#697a95"/>
  <path d="M429.128,407.674c-1.754,1.127-3.744,2.017-5.768,2.507,1.23-1.44,4.165-2.783,5.768-2.507Z" fill="#697a95"/>
  <path d="M599.398,371.248c.027.611-.223,1.625-.566,2.106l-1.28,1.793c-.213-1.453.539-3.204,1.846-3.898Z" fill="#697a95"/>
  <path d="M473.76,402.985c-.794.633-2.086.633-2.88,0,.601-.689,2.279-.689,2.88,0Z" fill="#697a95"/>
  <path d="M596.16,377.079c-.194,1.105-.624,2.234-1.44,2.878.059-1.181.308-2.706,1.44-2.878Z" fill="#697a95"/>
  <path d="M452.16,402.985c-.643.576-1.755.575-2.4,0,.414-.647,1.986-.647,2.4,0Z" fill="#697a95"/>
  <path d="M395.04,418.817c-.064.14-.546.681-.771.57l-1.149-.57c.221-.095.581-.631.8-.528l1.12.528Z" fill="#697a95"/>
  <path d="M383.04,418.817c-.057.17-.848.682-1.125.506l-.795-.506c.046-.122.558-.661.778-.554l1.142.554Z" fill="#697a95"/>
  <path d="M554.4,412.1c-.159.17-.672.502-.96.48l.219-.975c.049-.218.705.452.741.495Z" fill="#697a95"/>
  <path d="M486.24,405.864c-.288.029-.824-.315-.96-.48.036-.05.693-.72.742-.497l.218.977Z" fill="#697a95"/>
  <path d="M592.8,382.836c.075-.279.25-.793.48-.959l-.48.959Z" fill="#697a95"/>
  <path d="M207.36,637.58l5.305-1.322c1.955-.592,3.529-.965,5.048-2.136,4.209-3.244,4.458-3.245,6.59-7.482.7-1.392,1.335-2.552,1.297-3.933.388.185.869.44.898.783s-.154,1.423-.352,1.795l-2.153,4.054c-3.611,6.799-15.906,9.854-16.232,9.13l-.401-.89Z" fill="#6c7c96"/>
  <rect x="226.56" y="611.674" width=".48" height="10.075" fill="#3b5174"/>
  <path d="M327.84,626.066l.26-4.129c.33-5.244.77-11.246-2.037-15.628-.904-1.412-1.73-2.734-3.006-3.719l-3.607-2.787c-1.213-.937-2.943-1.248-4.425-1.81-3.536-1.342-6.828-2.222-10.719-2.211l-10.473.031c-2.076.006-1.12,1.857-1.105,3.692.082,9.863.363,29.189-.407,39.034.01.233-.461-.461-.461-.978l-.044-38.62c-.002-1.576-.316-3.602.863-4.115l14.718.252c3.087.053,5.853.851,8.626,1.971,6.556,2.648,10.783,6.134,12.824,13.111,1.458,4.986,1.862,9.605.008,14.64-.181.491-.659,1.129-1.013,1.265Z" fill="#6c7c96"/>
  <path d="M306.24,640.459l3.875.808c-1.736.267-21.615,3.544-17.91-1.776l1.251,1.461c2.953.441,11.452-.771,12.784-.493Z" fill="#6c7c96"/>
  <path d="M461.815,675.976l.402-6.332.05-84.279c.001-1.779.111-2.797-1.441-3.412.566-.023,1.502-.224,1.939.191.862.819.461,1.7.46,2.829l-.05,87.467c0,.765-.564,2.121-.688,3.186.02-.01-.457.238-.672.35Z" fill="#6c7c96"/>
  <path d="M400.8,712.9c-1.196-.189-3.358-1.189-4.329-2.035,1.602-.195,3.733.475,4.329,2.035Z" fill="#6c7c96"/>
  <path d="M395.52,710.981c-1.803-.801-3.596-1.816-5.28-2.878,2.07.043,4.368,1,5.28,2.878Z" fill="#6c7c96"/>
  <path d="M456,695.15c-.146.539-.525,1.128-.96,1.439l.063-1.136c.015-.262.648-.22.897-.303Z" fill="#6c7c96"/>
  <path d="M459.84,688.433c.017.288-.314.81-.48.959-.04-.02-.727-.687-.503-.738l.983-.222Z" fill="#6c7c96"/>
  <path d="M402.72,713.38c-.288.01-.794-.311-.96-.48.037-.055.693-.719.741-.5l.219.98Z" fill="#6c7c96"/>
  <path d="M220.332,313.995l42.591,42.957-37.089,37.075-11.52,11.571-140.76-140.703c-.694-.693-1.392-1.632-1.375-2.236s.711-1.543,1.392-2.223L212.581,121.489c.643-.642,1.274-1.24,1.771-1.357.597-.14,1.81.482,2.402,1.074l45.253,45.256c1.281,1.281.902,2.466-.291,3.658l-90.097,90.07c-.712.712-1.414,1.091-1.556,1.601s.264,2.001.655,2.393l49.615,49.811Z" fill="#238dc1"/>
  <path d="M576.96,584.808l.052-1.437c.258-.451,1.273-1.478,1.9-1.481l9.57-.04c.728-.003,2.174.25,2.355.785.151.446.129,1.201.128,2.06l-.016,125.694c0,1.081-1.137,2.047-1.877,2.047l-9.829.004c-.739,0-1.817-1.005-1.816-1.938l.014-56.564c0-2.119-.262-3.929-1.016-5.804h-66.124c-.644,1.521-1.025,3.085-1.025,4.831l.013,57.508c0,.925-1.064,1.988-1.862,1.982l-10.584-.081c-.924-1.023-1.484-2.716-1.484-4.37v-123.584c-.001-1.664.971-2.581,2.356-2.568l10.667.099c1.164.011.917,2.362.916,3.354l-.025,46.512c0,1.449.859,2.879,2.467,2.879l62.732.008c.732,0,1.954-.527,2.351-.932s.599-1.436.6-2.649l.019-45.247c0-.626-.495-1.291-.484-1.068Z" fill="#213a62"/>
  <path d="M611.04,822.762c-.338-12.84-.481-26.02,0-38.859-.046-.271.472.554.472,1.016v36.827c0,.463-.518,1.288-.472,1.016Z" fill="#6c7c96"/>
  <path d="M613.583,198.392l1.479,11.473c-2.657,2.56-4.411-1.052-8.829-1.359l-10.997-.765c.166-10.032,1.393-19.574-.357-29.24l-2.138-11.812-2.017-7.521c-.141-.525.082-1.568.361-1.95s1.582.046,1.963.405c5.846,5.513,11.176,13.187,14.158,20.55l2.37,5.851c1.048,2.587,3.594,11.163,4.007,14.368Z" fill="#1d365f"/>
</svg>