<?xml version="1.0" encoding="UTF-8"?>
<svg id="Ebene_1" xmlns="http://www.w3.org/2000/svg" xmlns:xlink="http://www.w3.org/1999/xlink" viewBox="0 0 131.81 59.53">
  <defs>
    <style>
      .cls-1 {
        fill: #ffed00;
      }

      .cls-2 {
        fill: none;
      }

      .cls-3 {
        fill: #706369;
      }

      .cls-4 {
        clip-path: url(#clippath);
      }
    </style>
    <clipPath id="clippath">
      <rect class="cls-2" width="131.81" height="59.53"/>
    </clipPath>
  </defs>
  <g class="cls-4">
    <path class="cls-3" d="M76.66,28.34h5.22v-1.45h-3.51v-1.74h2.86v-1.45h-2.86v-2.24h3.4v-1.45h-5.12v8.33ZM66.75,28.34h1.71v-5.24l3.96,5.24h1.26v-8.33h-1.71v5.22l-3.96-5.22h-1.26v8.33ZM47.69,24.18c0-1.68,1.21-2.83,2.73-2.83s2.73,1.15,2.73,2.83-1.21,2.83-2.73,2.83-2.73-1.16-2.73-2.83M45.95,24.18c0,2.52,1.96,4.31,4.46,4.31s4.46-1.78,4.46-4.31-1.96-4.31-4.46-4.31-4.46,1.78-4.46,4.31M39.17,28.34h5.06v-1.45h-3.34v-6.88h-1.71v8.33ZM29.6,24.18c0-1.68,1.21-2.83,2.73-2.83s2.73,1.15,2.73,2.83-1.21,2.83-2.73,2.83-2.73-1.16-2.73-2.83M27.86,24.18c0,2.52,1.96,4.31,4.46,4.31s4.46-1.78,4.46-4.31-1.96-4.31-4.46-4.31-4.46,1.78-4.46,4.31M19.16,24.18c0,2.67,2.08,4.31,4.47,4.31.81,0,1.59-.12,2.26-.46l-.52-1.37c-.49.25-1.05.36-1.7.36-1.4,0-2.77-.99-2.77-2.83,0-1.67,1.17-2.83,2.68-2.83.65,0,1.29.11,1.74.33l.52-1.36c-.71-.32-1.46-.45-2.3-.45-2.34,0-4.38,1.71-4.38,4.31"/>
    <path class="cls-3" d="M105.75,39.71h5.22v-1.45h-3.51v-1.74h2.86v-1.45h-2.86v-2.24h3.4v-1.45h-5.12v8.33ZM96.46,35.55c0,2.67,2.08,4.31,4.47,4.31.81,0,1.59-.12,2.26-.46l-.52-1.37c-.49.25-1.05.36-1.7.36-1.4,0-2.77-.99-2.77-2.83,0-1.67,1.17-2.83,2.68-2.83.66,0,1.29.11,1.74.33l.52-1.36c-.71-.32-1.46-.45-2.3-.45-2.34,0-4.38,1.71-4.38,4.31M87.14,39.71h1.71v-5.24l3.96,5.24h1.26v-8.33h-1.71v5.22l-3.96-5.22h-1.26v8.33ZM79.3,39.71h5.22v-1.45h-3.51v-1.74h2.86v-1.45h-2.86v-2.24h3.4v-1.45h-5.12v8.33ZM65.06,39.71h1.71v-8.33h-1.71v8.33ZM57.62,39.71h5.06v-1.45h-3.34v-6.88h-1.71v8.33ZM50.24,39.71h5.06v-1.45h-3.34v-6.88h-1.71v8.33ZM42.4,39.71h5.22v-1.45h-3.51v-1.74h2.86v-1.45h-2.86v-2.24h3.4v-1.45h-5.12v8.33ZM36.08,39.71h1.71v-6.88h2.23v-1.45h-6.16v1.45h2.23v6.88ZM24.54,39.71h1.71v-5.24l3.96,5.24h1.26v-8.33h-1.71v5.22l-3.96-5.22h-1.26v8.33ZM19.79,39.71h1.71v-8.33h-1.71v8.33Z"/>
    <path class="cls-3" d="M76.24,31.8c-.71-.38-1.56-.56-2.5-.56-2.68,0-4.52,1.84-4.52,4.31s1.94,4.31,4.62,4.31c1,0,1.94-.14,2.8-.54v-3.91h-1.72v2.86c-.27.09-.66.13-1.02.13-1.59,0-2.94-1.06-2.94-2.85s1.19-2.83,2.75-2.83c.74,0,1.36.12,2.01.44l.52-1.36Z"/>
    <path class="cls-3" d="M63.85,20.4c-.71-.38-1.56-.56-2.5-.56-2.68,0-4.52,1.84-4.52,4.31s1.94,4.31,4.62,4.31c1,0,1.94-.14,2.8-.54v-3.92h-1.72v2.86c-.27.1-.66.13-1.02.13-1.6,0-2.94-1.06-2.94-2.84s1.19-2.83,2.75-2.83c.74,0,1.36.12,2.01.44l.52-1.36Z"/>
  </g>
  <polygon class="cls-1" points="0 0 0 59.53 29.76 59.53 29.76 49.61 9.92 49.61 9.92 9.92 29.76 9.92 29.76 0 0 0"/>
  <rect class="cls-1" x="121.89" width="9.92" height="59.53"/>
</svg>