<?xml version="1.0" encoding="UTF-8"?>
<svg id="Logo" xmlns="http://www.w3.org/2000/svg" viewBox="0 0 1024.43 1024">
  <defs>
    <style>
      .cls-1 {
        fill: #023388;
      }

      .cls-2 {
        fill: #ff010b;
      }

      .cls-3 {
        fill: #fff;
      }

      .cls-4 {
        fill: #ffc800;
      }
    </style>
  </defs>
  <path class="cls-3" d="M887.01,1024H137.84C62.07,1024,.43,962.35.43,886.58V137.42C.43,61.65,62.07,0,137.84,0h749.17c75.77,0,137.42,61.65,137.42,137.42v749.17c0,75.77-61.65,137.42-137.42,137.42ZM137.84,45c-51.15,0-92.42,41.27-92.42,92.42v749.17c0,51.15,41.27,92.42,92.42,92.42h749.17c51.15,0,92.42-41.27,92.42-92.42V137.42c0-51.15-41.27-92.42-92.42-92.42H137.84Z"/>
  <g>
    <g>
      <g>
        <path class="cls-3" d="M216.99,621.33v154.49c0,10,1.83,17.49,23.32,17.49s23.34-7.49,23.34-17.49v-181.79c-2,.89-30.72,13.46-36.35,16.18-7.62,3.7-10.31,7.96-10.31,11.11"/>
        <path class="cls-3" d="M309.32,553.68h-138c-8.49,0-14.32,1.84-14.32,20.18s5.83,20.16,14.32,20.16h45.47v-.03h46.98l-.05.03h45.6c8.48,0,14.31-1.84,14.31-20.16s-5.83-20.18-14.31-20.18"/>
      </g>
      <path class="cls-3" d="M493.75,772.16c0,18.31-5.83,20.15-14.33,20.15h-111.64c-13.18,0-18.66-5.49-18.66-18.67v-201.31c0-13.15,5.49-18.65,18.66-18.65h110.3c8.5,0,14.32,1.82,14.32,20.16s-5.83,20.18-14.32,20.18h-82.32v57.31h71.15c8.5,0,14.01,2.18,14.01,19.82s-5.5,19.85-14.01,19.85h-71.15v61h83.66c8.5,0,14.33,1.82,14.33,20.16"/>
      <path class="cls-3" d="M657.01,746.98c-7.67,0-20.16,8.33-40.33,8.33-34.32,0-55.16-23.97-55.16-81.14s19.99-83.49,55.83-83.49c18.49,0,30.32,7.33,37.49,7.33,11.83,0,15.33-19.33,15.33-27.17,0-6.65-2.5-10.98-12.51-14.83-5.66-2.15-19-6.33-38.66-6.33-61.32,0-105.81,40.18-105.81,127.98,0,82.98,39.83,118.65,97.32,118.65,15.66,0,34.83-2.67,46.82-7.49,11.67-4.66,14.16-10.51,14.16-16.84,0-7-3.17-25-14.49-25"/>
      <path class="cls-3" d="M867,570.19v205.63c0,10-1.84,17.49-23.35,17.49s-23.33-7.49-23.33-17.49v-85.49h-73.33v85.49c0,10-1.82,17.49-23.31,17.49s-23.34-7.49-23.34-17.49v-205.63c0-10,1.84-17.51,23.34-17.51s23.31,7.51,23.31,17.51v79.14h73.33v-79.14c0-10,1.83-17.51,23.33-17.51s23.35,7.51,23.35,17.51"/>
    </g>
    <g>
      <path id="Kontur" class="cls-3" d="M692.61,376.8l-18.01,3.09c-1.91-4.07-9.35-15.88-9.35-15.88,0,0-14.94,2.39-17.3,2.75l7.79-47.83c5.07-24.81-2.91-47.27-30.49-47.27-10.79,0-19.63,5.07-24.56,8.19-4.03-4.69-11.46-8.19-19.05-8.19-4.89,0-16.2.92-26.69,8.54l1.26-7.08c-6-.55-29.26.02-35.57.49l7.79-40.97c-11.14-.83-39.84-2.41-71.33,2.1l-8.16,39.78c-30.97,8.82-50.59,37.43-50.59,76.66,0,7.74.98,14.4,2.95,20.1-17.42,2.11-49.21,7.88-70.61,19.44,4.78,4.59,11.94,11.4,17.16,17.53l-17.75,6.26c16.29,18.98,28.76,36.51,39.68,64.17,22.98-12.1,54.95-29.86,112.64-29.86,27.14,0,107.21,20.55,162.82,20.55,17.48,0,31.49-1.63,44.9-8.53,3.07-17.85,7.19-54.56,2.47-84.05"/>
      <g id="Logo-2" data-name="Logo">
        <path id="Welle_rot" data-name="Welle rot" class="cls-2" d="M667.39,409.36c-14.14,9.6-42.56,21.93-86.37,10.91-4.19-1.09-8.19-2.17-12.03-3.33-27.67-11.97-55.75-24.91-67.13-33.34,31.71,4.97,79.18,9.82,155.71-2.48,0,0,7.2,11.36,9.83,28.25M369.96,417.04l-13.35,4.72s15.23,18.14,17.91,24.11l3.74,10.3s48.31-26.59,118.59-22.58c15.95.91,29.95,5.54,29.95,5.54,0,0-28.62-18.69-34.38-20.5-27.55-6.88-53.79-8.9-69.32-9.46-26.6,7.07-49.32,19.23-49.32,19.23,0,0-1.83-5.55-3.82-11.36"/>
        <path id="Welle_gelb" data-name="Welle gelb" class="cls-4" d="M678.16,400.34s-3.55,4.16-10.76,9.02c-14.14,9.6-42.55,21.93-86.37,10.9-4.19-1.08-8.18-2.16-12.04-3.32-39.98-11.74-63.73-26.91-117.33-33.49-36.33.89-73.16,5.14-93.31,13.14,0,0,5.52,5.63,7.13,7.98.83,1.74,2.72,7.21,4.51,12.48,1.98,5.81,3.82,11.36,3.82,11.36,0,0,22.72-12.17,49.32-19.23,12.48-3.35,25.86-5.56,38.12-4.85,40.91,2.57,73.9,23.72,110.49,40.9,25.39,7.11,87.31,12.48,104.77,4.61,0,0,3.54-16.77,1.68-49.5"/>
        <path id="dm" class="cls-1" d="M465.45,307.37c-16.49,0-26.19,23.23-26.19,39.54,0,6.71,1.69,9.72,5.23,9.72,9.39,0,25.25-26.98,28.38-43.8l.82-4.35c-2.29-.52-4.89-1.1-8.25-1.1M485.07,377h-24.12c1.08-6.34,3.15-13.41,6.53-22.79h-.37c-7.59,12.72-18.38,24.95-32.07,24.95-14.01,0-21.03-9.04-21.04-27.99,0-33.33,17.32-63.86,56.12-63.86,2.11,0,4.23.19,7.6.72l3.9-20.38v-.16c-3.91-.71-9.73-1.42-14.88-1.78l3.38-16.52c12.29-1.21,24.87-2.12,39.55-1.58l-24.6,129.4ZM630.42,377.01h-23.99l8.7-54.09c1.78-8.87.51-12.23-3.53-12.23-8.16,0-22.91,21.57-26.27,42.69l-3.81,23.63h-23.96l8.96-54.09c1.76-8.87.54-12.23-3.54-12.23-8.16,0-22.49,21.29-26.42,42.17l-4.61,24.16h-23.93s12.95-67.86,12.95-67.86v-.52c-3.9-.71-9.73-1.43-14.89-1.78l3.38-16.52c12.75-1.42,24.81-2.13,38.09-1.59-1.41,6.9-3.73,14.86-6.74,22.67h.36c7.98-13.63,16.49-24.12,32.08-24.12,10.45,0,17.24,5.49,17.24,17.37,0,2.14-.53,4.42-1.41,7.97l.17.17c8.14-14.7,18.03-25.51,33.59-25.51,17.19,0,20.69,12.42,17.48,28.88l-9.91,60.82Z"/>
      </g>
    </g>
  </g>
</svg>