<?xml version="1.0" encoding="UTF-8" standalone="no"?>
<!-- Created with Inkscape (http://www.inkscape.org/) -->

<svg
   version="1.1"
   id="svg1"
   width="264.56668"
   height="97.333336"
   viewBox="0 0 264.56668 97.333336"
   xmlns="http://www.w3.org/2000/svg"
   xmlns:svg="http://www.w3.org/2000/svg">
  <defs
     id="defs1">
    <clipPath
       clipPathUnits="userSpaceOnUse"
       id="clipPath3">
      <path
         d="M 0,0 H 198.425 V 73 H 0 Z"
         transform="translate(-15.3361,-10.387801)"
         id="path3" />
    </clipPath>
  </defs>
  <g
     id="g1">
    <g
       id="g2">
      <path
         id="path2"
         d="M 0,0 H 1.403 L -1.393,6.669 H -2.414 L -5.289,0 h 1.413 l 0.591,1.4 h 2.694 z m -2.874,2.459 0.951,2.4 0.951,-2.4 z M 2.005,0 h 1.221 v 2.08 c 0,0.3 0.01,0.67 0.241,0.96 0.24,0.3 0.581,0.35 0.812,0.35 0.25,0 0.41,-0.05 0.571,-0.16 l 0.16,1.139 c -0.14,0.05 -0.311,0.1 -0.521,0.1 -0.291,0 -0.531,-0.07 -0.722,-0.19 C 3.677,4.229 3.417,4.049 3.226,3.68 V 4.329 H 2.005 Z M 7.986,3.29 V 4.329 H 7.144 v 1.48 H 5.923 V 4.329 H 5.442 V 3.29 H 5.923 V 0 H 7.144 V 3.29 Z M 8.628,0 H 9.849 V 4.329 H 8.628 Z m -0.12,6.159 c 0,-0.399 0.33,-0.729 0.731,-0.729 0.4,0 0.73,0.33 0.73,0.729 0,0.4 -0.33,0.73 -0.73,0.73 -0.401,0 -0.731,-0.33 -0.731,-0.73 M 13.377,3.29 v 1.039 h -1.123 v 1.05 c 0,0.191 0.03,0.431 0.14,0.601 0.191,0.3 0.502,0.33 0.692,0.33 0.211,0 0.512,-0.03 0.702,-0.33 0.12,-0.19 0.131,-0.4 0.131,-0.601 v -0.26 h 1.221 v 0.29 c 0,0.321 0.03,0.791 -0.301,1.281 -0.4,0.599 -1.201,0.719 -1.753,0.719 -0.832,0 -1.413,-0.29 -1.733,-0.719 -0.33,-0.45 -0.32,-0.83 -0.32,-1.281 V 4.329 H 10.572 V 3.29 h 0.461 V 0 h 1.221 V 3.29 Z M 13.919,0 h 1.221 v 4.329 h -1.221 z m 5.65,4.209 c -0.351,0.17 -0.722,0.26 -1.173,0.26 -0.421,0 -1.032,-0.09 -1.562,-0.56 -0.441,-0.389 -0.751,-0.999 -0.751,-1.76 0,-0.81 0.36,-1.35 0.691,-1.66 0.39,-0.369 0.991,-0.629 1.672,-0.629 0.501,0 0.882,0.15 1.123,0.27 v 1.189 c -0.331,-0.3 -0.692,-0.38 -0.962,-0.38 -0.732,0 -1.263,0.52 -1.263,1.23 0,0.631 0.411,1.221 1.223,1.221 0.42,0 0.741,-0.14 1.002,-0.38 z M 20.492,0 h 1.221 v 4.329 h -1.221 z m -0.121,6.159 c 0,-0.399 0.331,-0.729 0.731,-0.729 0.401,0 0.731,0.33 0.731,0.729 0,0.4 -0.33,0.73 -0.731,0.73 -0.4,0 -0.731,-0.33 -0.731,-0.73 M 26.203,3.77 c -0.411,0.639 -1.063,0.699 -1.394,0.699 -1.282,0 -2.153,-1.019 -2.153,-2.3 0,-1.27 0.881,-2.309 2.214,-2.309 0.31,0 0.892,0.07 1.333,0.699 V 0 h 1.221 V 4.329 H 26.203 Z M 25.12,3.39 c 0.702,0 1.203,-0.53 1.203,-1.221 0,-0.69 -0.501,-1.23 -1.203,-1.23 -0.702,0 -1.203,0.54 -1.203,1.23 0,0.691 0.501,1.221 1.203,1.221 M 28.588,0 h 1.221 v 7.289 h -1.221 z m 4.899,0 h 1.301 v 6.669 h -1.301 z m 2.645,0 h 1.222 v 2.21 c 0,0.25 0.01,0.56 0.19,0.84 0.181,0.27 0.431,0.38 0.752,0.38 0.12,0 0.381,-0.02 0.572,-0.22 0.22,-0.23 0.23,-0.61 0.23,-0.85 V 0 h 1.222 v 2.72 c 0,0.42 -0.041,0.85 -0.341,1.219 -0.34,0.42 -0.901,0.53 -1.282,0.53 -0.702,0 -1.113,-0.38 -1.343,-0.699 v 0.559 h -1.222 z m 7.414,3.29 v 1.039 h -0.842 v 1.48 H 41.483 V 4.329 H 41.002 V 3.29 h 0.481 V 0 h 1.221 v 3.29 z m 3.779,-1.901 c -0.201,-0.35 -0.552,-0.57 -1.013,-0.57 -0.471,0 -0.742,0.23 -0.872,0.41 -0.141,0.19 -0.211,0.471 -0.211,0.731 h 3.247 v 0.1 c 0,0.469 -0.06,1.149 -0.521,1.7 -0.3,0.359 -0.811,0.709 -1.693,0.709 -0.522,0 -1.123,-0.11 -1.633,-0.609 -0.311,-0.31 -0.661,-0.841 -0.661,-1.7 0,-0.681 0.2,-1.241 0.681,-1.691 0.43,-0.409 0.961,-0.609 1.663,-0.609 1.513,0 2.003,1.029 2.134,1.349 z m -2.056,1.35 c 0.101,0.581 0.572,0.871 1.023,0.871 0.451,0 0.932,-0.28 1.033,-0.871 z M 49.419,0 h 1.221 v 7.289 h -1.221 z m 2.384,0 h 1.221 v 7.289 h -1.221 z m 2.385,0 h 1.221 v 4.329 h -1.221 z m -0.12,6.159 c 0,-0.399 0.33,-0.729 0.731,-0.729 0.4,0 0.73,0.33 0.73,0.729 0,0.4 -0.33,0.73 -0.73,0.73 -0.401,0 -0.731,-0.33 -0.731,-0.73 M 59.879,3.77 c -0.17,0.259 -0.551,0.699 -1.363,0.699 -0.582,0 -1.113,-0.21 -1.493,-0.58 -0.421,-0.409 -0.671,-1.039 -0.671,-1.72 0,-0.84 0.371,-1.4 0.691,-1.72 0.42,-0.409 0.921,-0.589 1.503,-0.589 0.331,0 0.912,0.08 1.333,0.719 V -0.03 c 0,-0.35 -0.03,-0.691 -0.311,-0.961 -0.16,-0.15 -0.391,-0.27 -0.741,-0.27 -0.171,0 -0.502,0.01 -0.742,0.23 -0.141,0.12 -0.251,0.32 -0.301,0.521 h -1.322 c 0.1,-0.491 0.361,-1.001 0.701,-1.291 0.28,-0.249 0.781,-0.499 1.623,-0.499 0.893,0 1.414,0.31 1.714,0.609 0.54,0.54 0.6,1.231 0.6,1.891 V 4.329 H 59.879 Z M 58.817,3.39 c 0.33,0 0.611,-0.1 0.852,-0.35 0.17,-0.18 0.35,-0.46 0.35,-0.871 0,-0.35 -0.14,-0.7 -0.39,-0.93 -0.211,-0.19 -0.512,-0.3 -0.812,-0.3 -0.291,0 -0.622,0.1 -0.883,0.38 -0.18,0.19 -0.321,0.47 -0.321,0.85 0,0.451 0.191,0.741 0.391,0.921 0.151,0.14 0.422,0.3 0.813,0.3 M 65.4,1.389 c -0.2,-0.35 -0.551,-0.57 -1.012,-0.57 -0.472,0 -0.742,0.23 -0.873,0.41 -0.14,0.19 -0.21,0.471 -0.21,0.731 h 3.246 v 0.1 c 0,0.469 -0.06,1.149 -0.52,1.7 -0.301,0.359 -0.811,0.709 -1.694,0.709 -0.521,0 -1.122,-0.11 -1.633,-0.609 -0.31,-0.31 -0.661,-0.841 -0.661,-1.7 0,-0.681 0.201,-1.241 0.681,-1.691 0.431,-0.409 0.962,-0.609 1.664,-0.609 1.513,0 2.003,1.029 2.133,1.349 z m -2.055,1.35 c 0.1,0.581 0.571,0.871 1.023,0.871 0.451,0 0.932,-0.28 1.032,-0.871 z M 67.494,0 h 1.221 v 2.21 c 0,0.25 0.01,0.56 0.191,0.84 0.18,0.27 0.431,0.38 0.752,0.38 0.12,0 0.381,-0.02 0.572,-0.22 0.22,-0.23 0.23,-0.61 0.23,-0.85 V 0 h 1.221 v 2.72 c 0,0.42 -0.04,0.85 -0.34,1.219 -0.34,0.42 -0.901,0.53 -1.282,0.53 -0.702,0 -1.113,-0.38 -1.344,-0.699 v 0.559 h -1.221 z m 8.616,4.209 c -0.351,0.17 -0.721,0.26 -1.172,0.26 -0.421,0 -1.032,-0.09 -1.563,-0.56 -0.44,-0.389 -0.751,-0.999 -0.751,-1.76 0,-0.81 0.361,-1.35 0.691,-1.66 0.391,-0.369 0.992,-0.629 1.673,-0.629 0.501,0 0.882,0.15 1.122,0.27 v 1.189 c -0.331,-0.3 -0.691,-0.38 -0.962,-0.38 -0.731,0 -1.262,0.52 -1.262,1.23 0,0.631 0.411,1.221 1.222,1.221 0.421,0 0.742,-0.14 1.002,-0.38 z m 4.059,-2.82 c -0.2,-0.35 -0.551,-0.57 -1.012,-0.57 -0.471,0 -0.742,0.23 -0.872,0.41 -0.141,0.19 -0.211,0.471 -0.211,0.731 h 3.247 v 0.1 c 0,0.469 -0.061,1.149 -0.521,1.7 -0.3,0.359 -0.811,0.709 -1.693,0.709 -0.522,0 -1.123,-0.11 -1.634,-0.609 -0.31,-0.31 -0.66,-0.841 -0.66,-1.7 0,-0.681 0.2,-1.241 0.68,-1.691 0.431,-0.409 0.962,-0.609 1.664,-0.609 1.513,0 2.003,1.029 2.133,1.349 z m -2.055,1.35 c 0.1,0.581 0.572,0.871 1.023,0.871 0.451,0 0.932,-0.28 1.032,-0.871 z m 11.693,0.5 c -0.14,-0.19 -0.381,-0.48 -0.831,-0.92 l -1.102,1.26 0.281,0.17 c 0.711,0.431 0.941,1.001 0.941,1.481 0,0.82 -0.631,1.589 -1.793,1.589 -1.243,0 -1.843,-0.829 -1.843,-1.659 0,-0.65 0.44,-1.17 0.67,-1.401 l -0.52,-0.31 c -0.301,-0.18 -1.072,-0.7 -1.072,-1.69 0,-0.96 0.721,-1.909 2.093,-1.909 1.063,0 1.844,0.619 2.155,0.899 L 89.436,0 h 1.614 l -1.353,1.53 0.15,0.15 c 0.191,0.19 0.321,0.31 0.722,0.81 z M 88.055,1.57 C 87.834,1.349 87.363,0.989 86.822,0.989 c -0.562,0 -0.983,0.38 -0.983,0.88 0,0.51 0.441,0.88 0.953,1.15 z m -1.093,3.06 c -0.141,0.17 -0.281,0.38 -0.281,0.63 0,0.3 0.211,0.62 0.682,0.62 0.451,0 0.652,-0.33 0.652,-0.66 0,-0.22 -0.1,-0.49 -0.461,-0.74 L 87.253,4.27 Z M 99.075,1.759 c -0.39,-0.46 -0.941,-0.73 -1.563,-0.73 -1.122,0 -2.264,0.8 -2.264,2.28 0,1.231 0.872,2.331 2.214,2.331 0.241,0 1.002,-0.05 1.613,-0.75 v 1.519 c -0.611,0.33 -1.172,0.41 -1.643,0.41 -0.952,0 -1.783,-0.25 -2.454,-0.879 -0.571,-0.53 -1.072,-1.4 -1.072,-2.611 0,-0.98 0.301,-1.81 1.072,-2.55 0.56,-0.529 1.272,-0.929 2.444,-0.929 0.722,0 1.253,0.18 1.653,0.39 z m 0.723,-4.049 h 1.383 l 3.496,6.619 h -1.383 l -1.202,-2.46 -1.342,2.46 h -1.423 l 2.064,-3.68 z m 6.702,9.579 h -1.221 V 0 h 1.221 v 0.56 c 0.471,-0.65 1.103,-0.7 1.384,-0.7 1.282,0 2.163,0.989 2.163,2.309 0,1.311 -0.851,2.3 -2.133,2.3 -0.371,0 -0.983,-0.1 -1.414,-0.699 z m 1.083,-3.899 c 0.702,0 1.203,-0.53 1.203,-1.221 0,-0.69 -0.501,-1.23 -1.203,-1.23 -0.702,0 -1.203,0.54 -1.203,1.23 0,0.691 0.501,1.221 1.203,1.221 m 6.543,-2.001 c -0.2,-0.35 -0.551,-0.57 -1.012,-0.57 -0.471,0 -0.742,0.23 -0.872,0.41 -0.141,0.19 -0.211,0.471 -0.211,0.731 h 3.247 v 0.1 c 0,0.469 -0.061,1.149 -0.521,1.7 -0.3,0.359 -0.811,0.709 -1.693,0.709 -0.522,0 -1.123,-0.11 -1.634,-0.609 -0.31,-0.31 -0.66,-0.841 -0.66,-1.7 0,-0.681 0.2,-1.241 0.68,-1.691 0.431,-0.409 0.962,-0.609 1.664,-0.609 1.513,0 2.003,1.029 2.134,1.349 z m -2.055,1.35 c 0.1,0.581 0.572,0.871 1.023,0.871 0.451,0 0.932,-0.28 1.032,-0.871 z M 116.221,0 h 1.221 v 2.08 c 0,0.3 0.01,0.67 0.24,0.96 0.241,0.3 0.581,0.35 0.812,0.35 0.25,0 0.411,-0.05 0.571,-0.16 l 0.16,1.139 c -0.14,0.05 -0.31,0.1 -0.521,0.1 -0.29,0 -0.531,-0.07 -0.721,-0.19 -0.09,-0.05 -0.351,-0.23 -0.541,-0.599 v 0.649 h -1.221 z m 7.948,6.04 c -0.681,0.699 -1.472,0.779 -1.893,0.779 -1.483,0 -2.144,-0.979 -2.144,-1.959 0,-0.68 0.311,-1.051 0.531,-1.241 0.34,-0.3 0.761,-0.46 1.111,-0.58 0.382,-0.13 0.783,-0.26 1.033,-0.49 0.181,-0.17 0.261,-0.36 0.261,-0.6 0,-0.56 -0.441,-0.92 -1.033,-0.92 -0.471,0 -1.082,0.24 -1.402,0.89 l -0.852,-0.81 c 0.351,-0.51 1.072,-1.259 2.304,-1.259 1.383,0 2.324,0.889 2.324,2.189 0,0.68 -0.27,1.13 -0.57,1.4 -0.34,0.31 -0.831,0.491 -1.353,0.671 -0.421,0.15 -0.641,0.23 -0.802,0.38 -0.16,0.14 -0.21,0.29 -0.21,0.45 0,0.34 0.22,0.78 0.922,0.78 0.241,0 0.702,-0.05 1.092,-0.57 z m 4.34,-4.651 c -0.201,-0.35 -0.552,-0.57 -1.013,-0.57 -0.471,0 -0.742,0.23 -0.872,0.41 -0.14,0.19 -0.211,0.471 -0.211,0.731 h 3.247 v 0.1 c 0,0.469 -0.06,1.149 -0.521,1.7 -0.3,0.359 -0.811,0.709 -1.693,0.709 -0.521,0 -1.123,-0.11 -1.633,-0.609 -0.31,-0.31 -0.661,-0.841 -0.661,-1.7 0,-0.681 0.2,-1.241 0.681,-1.691 0.43,-0.409 0.961,-0.609 1.663,-0.609 1.513,0 2.004,1.029 2.134,1.349 z m -2.055,1.35 c 0.1,0.581 0.571,0.871 1.022,0.871 0.451,0 0.933,-0.28 1.033,-0.871 z m 7.414,1.47 c -0.351,0.17 -0.721,0.26 -1.172,0.26 -0.421,0 -1.032,-0.09 -1.563,-0.56 -0.44,-0.389 -0.751,-0.999 -0.751,-1.76 0,-0.81 0.361,-1.35 0.691,-1.66 0.391,-0.369 0.992,-0.629 1.673,-0.629 0.501,0 0.882,0.15 1.122,0.27 v 1.189 c -0.33,-0.3 -0.691,-0.38 -0.962,-0.38 -0.731,0 -1.262,0.52 -1.262,1.23 0,0.631 0.411,1.221 1.222,1.221 0.421,0 0.742,-0.14 1.002,-0.38 z m 0.923,0.12 v -2.65 c 0,-0.39 0.05,-0.91 0.531,-1.33 0.4,-0.349 1.041,-0.489 1.573,-0.489 0.531,0 1.172,0.14 1.573,0.489 0.48,0.42 0.53,0.94 0.53,1.33 v 2.65 h -1.221 v -2.45 c 0,-0.23 -0.02,-0.54 -0.26,-0.76 -0.151,-0.13 -0.392,-0.22 -0.622,-0.22 -0.231,0 -0.471,0.09 -0.622,0.22 -0.24,0.22 -0.261,0.53 -0.261,0.76 v 2.45 z M 140.162,0 h 1.221 v 2.08 c 0,0.3 0.01,0.67 0.241,0.96 0.24,0.3 0.581,0.35 0.811,0.35 0.251,0 0.411,-0.05 0.571,-0.16 l 0.161,1.139 c -0.141,0.05 -0.311,0.1 -0.521,0.1 -0.291,0 -0.531,-0.07 -0.722,-0.19 -0.09,-0.05 -0.35,-0.23 -0.541,-0.599 v 0.649 h -1.221 z m 3.607,0 h 1.221 v 4.329 h -1.221 z m -0.12,6.159 c 0,-0.399 0.33,-0.729 0.731,-0.729 0.4,0 0.73,0.33 0.73,0.729 0,0.4 -0.33,0.73 -0.73,0.73 -0.401,0 -0.731,-0.33 -0.731,-0.73 m 4.568,-2.869 v 1.039 h -0.842 v 1.48 h -1.221 v -1.48 h -0.481 V 3.29 h 0.481 V 0 h 1.221 v 3.29 z m 0.802,-5.58 h 1.383 l 3.496,6.619 h -1.383 l -1.202,-2.46 -1.342,2.46 h -1.423 l 2.064,-3.68 z"
         style="fill:#164194;fill-opacity:1;fill-rule:nonzero;stroke:none"
         transform="matrix(1.3333333,0,0,-1.3333333,20.448133,83.482933)"
         clip-path="url(#clipPath3)" />
    </g>
    <g
       id="g3">
      <path
         id="path4"
         d="M 0,0 H -3.706 V -6.669 H 0 v 1.119 h -2.405 v 1.821 H -0.1 v 1.119 h -2.305 v 1.491 H 0 Z m 1.364,0 v -4.08 c 0,-0.63 0.1,-1.27 0.5,-1.78 0.481,-0.629 1.322,-0.959 2.185,-0.959 0.862,0 1.703,0.33 2.184,0.959 0.4,0.51 0.5,1.15 0.5,1.78 V 0 H 5.432 v -4.19 c 0,-0.51 -0.171,-0.82 -0.321,-0.99 -0.19,-0.23 -0.541,-0.46 -1.062,-0.46 -0.522,0 -0.873,0.23 -1.063,0.46 -0.15,0.17 -0.321,0.48 -0.321,0.99 V 0 Z m 6.994,0 v -6.669 h 1.301 v 2.68 h 0.16 l 1.785,-2.68 h 1.622 l -2.083,2.81 c 0.321,0.06 0.561,0.17 0.731,0.29 0.521,0.349 0.781,0.919 0.781,1.57 0,0.5 -0.15,1.07 -0.661,1.5 C 11.684,-0.24 11.213,0 10.291,0 Z m 1.301,-1.059 h 0.391 c 0.241,0 1.263,-0.01 1.263,-1 0,-0.981 -1.032,-1.011 -1.283,-1.011 H 9.659 Z m 7.796,1.209 c -2.105,0 -3.567,-1.459 -3.567,-3.489 0,-2.031 1.462,-3.48 3.567,-3.48 2.105,0 3.566,1.449 3.566,3.48 0,2.03 -1.461,3.489 -3.566,3.489 m 0,-5.79 c -1.303,0 -2.225,0.95 -2.225,2.301 0,1.35 0.922,2.31 2.225,2.31 1.303,0 2.225,-0.96 2.225,-2.31 0,-1.351 -0.922,-2.301 -2.225,-2.301 M 22.325,0 v -6.669 h 1.301 v 2.47 h 0.843 c 0.772,0 1.323,0.22 1.693,0.59 0.511,0.509 0.551,1.229 0.551,1.49 0,0.48 -0.141,1.13 -0.681,1.61 C 25.541,-0.08 25.02,0 24.268,0 Z m 1.301,-1.119 h 0.452 c 0.31,0 0.651,-0.02 0.922,-0.21 0.191,-0.14 0.371,-0.39 0.371,-0.76 0,-0.291 -0.12,-0.591 -0.361,-0.781 -0.281,-0.21 -0.601,-0.21 -0.852,-0.21 H 23.626 Z M 31.482,0 h -3.706 v -6.669 h 3.706 v 1.119 h -2.405 v 1.821 h 2.305 v 1.119 h -2.305 v 1.491 h 2.405 z m 5.912,-6.669 h 1.402 L 36.001,0 H 34.98 l -2.876,-6.669 h 1.413 l 0.591,1.4 h 2.694 z m -2.875,2.459 0.951,2.4 0.952,-2.4 z m 6.462,-2.459 v 4.459 l 4.069,-4.459 h 0.901 V 0 H 44.649 V -4.449 L 40.58,0 H 39.679 V -6.669 Z M 49.91,0 v -6.669 h 1.722 c 0.932,0 1.664,0.09 2.446,0.64 0.881,0.619 1.341,1.579 1.341,2.69 0,1.11 -0.47,2.08 -1.281,2.69 C 53.396,-0.1 52.584,0 51.652,0 Z m 1.301,-1.119 h 0.401 c 0.441,0 1.103,-0.04 1.644,-0.44 0.531,-0.4 0.822,-1.08 0.822,-1.78 0,-0.711 -0.301,-1.391 -0.832,-1.771 -0.582,-0.42 -1.303,-0.44 -1.634,-0.44 h -0.401 z m 5.512,-5.55 h 1.301 V 0 h -1.301 z m 6.312,2.45 h 1.724 c -0.11,-0.48 -0.371,-0.82 -0.631,-1.021 -0.371,-0.28 -0.872,-0.4 -1.313,-0.4 -0.712,0 -1.183,0.28 -1.484,0.571 -0.281,0.27 -0.661,0.8 -0.661,1.689 0,0.75 0.29,1.391 0.671,1.761 0.411,0.4 1.012,0.59 1.544,0.59 0.31,0 0.661,-0.07 0.942,-0.21 0.21,-0.11 0.551,-0.34 0.782,-0.79 l 1.131,0.61 c -0.35,0.6 -0.821,1 -1.252,1.219 -0.511,0.27 -1.042,0.35 -1.543,0.35 -1.293,0 -2.135,-0.509 -2.636,-1.019 -0.4,-0.4 -0.981,-1.19 -0.981,-2.481 0,-1.499 0.761,-2.34 0.991,-2.57 0.731,-0.729 1.593,-0.899 2.425,-0.899 0.832,0 1.684,0.19 2.375,0.879 0.921,0.911 0.981,2.311 0.981,2.76 v 0.08 h -3.065 z m 4.369,-2.45 h 1.301 V 0 h -1.301 z m 6.532,5.55 V 0 h -4.308 v -1.119 h 1.503 v -5.55 h 1.302 v 5.55 z m 5.08,-5.55 h 1.403 L 77.623,0 h -1.021 l -2.875,-6.669 h 1.412 l 0.592,1.4 h 2.694 z m -2.875,2.459 0.952,2.4 0.951,-2.4 z M 81.302,0 v -6.669 h 3.365 V -5.55 H 82.603 V 0 Z m 6.703,-6.669 h 1.301 V 0 h -1.301 z m 4.227,0 v 4.459 l 4.069,-4.459 h 0.901 V 0 H 95.9 V -4.449 L 91.831,0 h -0.9 v -6.669 z m 7.896,0 v 4.459 l 4.069,-4.459 h 0.9 V 0 h -1.301 V -4.449 L 99.727,0 h -0.901 v -6.669 z m 9.84,6.819 c -2.105,0 -3.567,-1.459 -3.567,-3.489 0,-2.031 1.462,-3.48 3.567,-3.48 2.104,0 3.566,1.449 3.566,3.48 0,2.03 -1.462,3.489 -3.566,3.489 m 0,-5.79 c -1.303,0 -2.225,0.95 -2.225,2.301 0,1.35 0.922,2.31 2.225,2.31 1.303,0 2.225,-0.96 2.225,-2.31 0,-1.351 -0.922,-2.301 -2.225,-2.301 m 3.918,5.64 2.805,-6.669 h 0.781 L 120.298,0 h -1.423 L 117.092,-4.479 115.309,0 Z m 11.221,-6.669 h 1.403 L 123.714,0 h -1.021 l -2.875,-6.669 h 1.413 l 0.591,1.4 h 2.694 z m -2.874,2.459 0.951,2.4 0.951,-2.4 z m 8.425,3.091 V 0 h -4.307 v -1.119 h 1.503 v -5.55 h 1.301 v 5.55 z m 0.923,-5.55 h 1.301 V 0 h -1.301 z m 6.172,6.819 c -2.105,0 -3.567,-1.459 -3.567,-3.489 0,-2.031 1.462,-3.48 3.567,-3.48 2.104,0 3.566,1.449 3.566,3.48 0,2.03 -1.462,3.489 -3.566,3.489 m 0,-5.79 c -1.303,0 -2.225,0.95 -2.225,2.301 0,1.35 0.922,2.31 2.225,2.31 1.303,0 2.225,-0.96 2.225,-2.31 0,-1.351 -0.922,-2.301 -2.225,-2.301 m 6.171,-1.029 v 4.459 l 4.069,-4.459 h 0.901 V 0 h -1.301 V -4.449 L 143.524,0 h -0.901 V -6.669 Z M 154.154,0 h -1.301 v -6.669 h 1.301 v 2.97 h 2.827 v -2.97 h 1.302 V 0 h -1.302 v -2.58 h -2.827 z m 5.753,0 v -4.08 c 0,-0.63 0.1,-1.27 0.5,-1.78 0.481,-0.629 1.323,-0.959 2.185,-0.959 0.862,0 1.703,0.33 2.184,0.959 0.4,0.51 0.5,1.15 0.5,1.78 V 0 h -1.301 v -4.19 c 0,-0.51 -0.17,-0.82 -0.321,-0.99 -0.19,-0.23 -0.541,-0.46 -1.062,-0.46 -0.522,0 -0.873,0.23 -1.063,0.46 -0.15,0.17 -0.321,0.48 -0.321,0.99 V 0 Z m 6.994,0 v -6.669 h 2.243 c 0.582,0 1.193,0.1 1.694,0.54 0.46,0.409 0.57,0.959 0.57,1.35 0,0.35 -0.08,0.87 -0.48,1.25 -0.17,0.16 -0.431,0.35 -0.871,0.419 0.18,0.1 0.75,0.45 0.75,1.311 0,0.56 -0.23,1.08 -0.62,1.379 C 169.646,0 168.924,0 168.553,0 Z m 1.301,-1.059 h 0.381 c 0.532,0 1.003,-0.23 1.003,-0.84 0,-0.851 -0.812,-0.871 -1.013,-0.871 h -0.371 z m 0,-2.71 h 0.481 c 0.281,0 0.612,0 0.893,-0.13 0.421,-0.19 0.491,-0.55 0.491,-0.76 0,-0.261 -0.09,-0.581 -0.411,-0.771 -0.291,-0.17 -0.652,-0.18 -0.893,-0.18 h -0.561 z"
         style="fill:#164194;fill-opacity:1;fill-rule:nonzero;stroke:none"
         transform="matrix(1.3333333,0,0,-1.3333333,19.392533,58.591333)" />
    </g>
    <g
       id="g4">
      <path
         id="path5"
         d="m 0,0 c -0.417,-0.185 -0.78,-0.435 -1.09,-0.751 -0.31,-0.315 -0.554,-0.688 -0.733,-1.117 -0.179,-0.428 -0.268,-0.887 -0.268,-1.376 0,-0.476 0.089,-0.926 0.268,-1.349 0.179,-0.423 0.423,-0.792 0.733,-1.108 0.31,-0.316 0.673,-0.566 1.09,-0.75 0.417,-0.185 0.864,-0.277 1.34,-0.277 0.501,0 0.965,0.092 1.394,0.277 0.429,0.184 0.801,0.434 1.117,0.75 0.316,0.316 0.563,0.685 0.742,1.108 0.179,0.423 0.268,0.873 0.268,1.349 0,0.489 -0.089,0.948 -0.268,1.376 C 4.414,-1.439 4.167,-1.066 3.851,-0.751 3.535,-0.435 3.163,-0.185 2.734,0 2.305,0.185 1.841,0.277 1.34,0.277 0.864,0.277 0.417,0.185 0,0"
         style="fill:#164194;fill-opacity:1;fill-rule:nonzero;stroke:none"
         transform="matrix(1.3333333,0,0,-1.3333333,243.15827,37.649067)" />
    </g>
    <g
       id="g5">
      <path
         id="path6"
         d="m 0,0 v 3.717 h -9.597 v 6.487 h 9.15 v 3.628 h -9.15 V 19.64 H 0 v 3.718 H -14.065 V 0 Z m 21.276,17.085 c -0.447,1.429 -1.117,2.609 -2.011,3.538 -0.894,0.93 -2.01,1.618 -3.351,2.064 -1.34,0.447 -2.904,0.671 -4.691,0.671 H 4.307 V 0 h 5.933 c 2.061,0 3.83,0.283 5.308,0.849 1.477,0.566 2.689,1.37 3.637,2.412 0.947,1.043 1.644,2.303 2.091,3.78 0.446,1.477 0.67,3.122 0.67,4.933 0,1.977 -0.224,3.681 -0.67,5.111 M 15.548,5.612 C 14.428,4.325 12.79,3.681 10.633,3.681 h -1.93 v 15.995 h 2.234 c 1.203,0 2.21,-0.179 3.02,-0.536 0.81,-0.357 1.457,-0.879 1.939,-1.564 0.483,-0.685 0.825,-1.522 1.028,-2.511 0.202,-0.989 0.304,-2.115 0.304,-3.377 0,-2.764 -0.56,-4.79 -1.68,-6.076 M 30.72,19.765 V 3.628 H 25.574 V 0 h 14.761 v 3.628 h -5.147 v 16.137 h 5.147 v 3.593 H 25.574 V 19.765 Z M 61.441,0 V 23.358 H 57.045 V 13.975 H 49.11 v 9.383 H 44.713 V 0 h 4.397 v 10.169 h 7.935 V 0 Z M 94.258,0 87.341,23.358 H 81.194 L 74.278,0 h 4.36 l 1.323,4.611 H 88.11 L 89.397,0 Z m -7.131,8.203 h -6.112 l 3.074,10.865 z m 15.03,11.562 V 3.628 H 97.01 V 0 h 14.761 v 3.628 h -5.147 v 16.137 h 5.147 v 3.593 H 97.01 V 19.765 Z M 132.394,5.022 c -0.393,-0.179 -0.819,-0.355 -1.277,-0.527 -0.459,-0.173 -0.924,-0.322 -1.394,-0.447 -0.471,-0.125 -0.936,-0.227 -1.394,-0.304 -0.459,-0.078 -0.885,-0.116 -1.278,-0.116 -1.096,0 -2.044,0.181 -2.842,0.545 -0.798,0.363 -1.453,0.89 -1.965,1.582 -0.513,0.69 -0.891,1.533 -1.135,2.528 -0.245,0.995 -0.367,2.124 -0.367,3.387 0,1.191 0.119,2.284 0.358,3.279 0.238,0.995 0.61,1.853 1.117,2.574 0.506,0.72 1.153,1.28 1.939,1.679 0.786,0.4 1.733,0.599 2.841,0.599 0.751,0 1.585,-0.101 2.502,-0.304 0.918,-0.202 1.883,-0.542 2.895,-1.018 v 4.36 c -0.5,0.167 -0.983,0.304 -1.447,0.411 -0.465,0.108 -0.924,0.194 -1.376,0.259 -0.453,0.066 -0.915,0.11 -1.385,0.134 -0.471,0.024 -0.974,0.036 -1.51,0.036 -1.656,0 -3.149,-0.277 -4.477,-0.831 -1.329,-0.554 -2.457,-1.358 -3.387,-2.412 -0.929,-1.055 -1.644,-2.348 -2.144,-3.878 -0.501,-1.531 -0.751,-3.28 -0.751,-5.246 0,-1.918 0.23,-3.601 0.688,-5.048 0.459,-1.448 1.132,-2.66 2.02,-3.637 0.887,-0.977 1.977,-1.713 3.27,-2.207 1.293,-0.494 2.779,-0.742 4.459,-0.742 1.048,0 2.058,0.102 3.029,0.304 0.971,0.203 1.975,0.512 3.011,0.929 z m 19.918,4.512 c -0.328,0.697 -0.763,1.302 -1.305,1.814 -0.542,0.512 -1.156,0.947 -1.841,1.305 -0.685,0.357 -1.388,0.676 -2.108,0.956 -0.721,0.28 -1.424,0.542 -2.109,0.786 -0.685,0.244 -1.299,0.506 -1.841,0.787 -0.542,0.279 -0.977,0.595 -1.304,0.947 -0.328,0.351 -0.492,0.771 -0.492,1.26 0,0.393 0.077,0.75 0.232,1.072 0.155,0.322 0.405,0.592 0.751,0.813 0.345,0.22 0.786,0.393 1.322,0.518 0.537,0.125 1.192,0.188 1.966,0.188 0.441,0 0.906,-0.024 1.394,-0.072 0.489,-0.047 0.974,-0.116 1.457,-0.205 0.482,-0.089 0.95,-0.194 1.403,-0.313 0.452,-0.119 0.869,-0.25 1.251,-0.393 v 4.021 c -0.382,0.095 -0.802,0.188 -1.26,0.277 -0.459,0.089 -0.936,0.167 -1.43,0.232 -0.495,0.066 -0.995,0.119 -1.501,0.161 -0.507,0.042 -0.992,0.063 -1.457,0.063 -1.584,0 -2.937,-0.182 -4.056,-0.545 -1.12,-0.364 -2.038,-0.852 -2.753,-1.466 -0.714,-0.614 -1.239,-1.331 -1.572,-2.153 -0.334,-0.822 -0.501,-1.692 -0.501,-2.609 0,-1.001 0.164,-1.856 0.492,-2.565 0.327,-0.709 0.759,-1.32 1.295,-1.832 0.537,-0.512 1.147,-0.941 1.832,-1.286 0.685,-0.346 1.382,-0.656 2.091,-0.93 0.709,-0.274 1.406,-0.53 2.091,-0.768 0.685,-0.239 1.296,-0.507 1.832,-0.804 0.536,-0.298 0.968,-0.641 1.296,-1.028 0.327,-0.387 0.491,-0.867 0.491,-1.439 0,-0.417 -0.083,-0.798 -0.25,-1.143 -0.167,-0.346 -0.435,-0.644 -0.804,-0.894 -0.37,-0.25 -0.846,-0.447 -1.43,-0.59 -0.584,-0.143 -1.293,-0.214 -2.127,-0.214 -0.56,0 -1.138,0.036 -1.733,0.107 -0.596,0.072 -1.195,0.17 -1.796,0.295 -0.602,0.125 -1.201,0.271 -1.796,0.438 -0.596,0.167 -1.168,0.345 -1.716,0.536 V 0.518 c 1.12,-0.333 2.252,-0.572 3.396,-0.715 1.143,-0.143 2.329,-0.214 3.556,-0.214 1.382,0 2.657,0.149 3.824,0.447 1.168,0.297 2.174,0.753 3.021,1.367 0.845,0.613 1.503,1.391 1.974,2.332 0.471,0.941 0.706,2.049 0.706,3.324 0,0.953 -0.164,1.778 -0.491,2.475"
         style="fill:#000000;fill-opacity:1;fill-rule:nonzero;stroke:none"
         transform="matrix(1.3333333,0,0,-1.3333333,32.7748,45.940133)" />
    </g>
  </g>
</svg>
