<?xml version="1.0" encoding="UTF-8"?>
<svg id="uuid-80782000-600d-4859-9d90-1e695abb8a48" data-name="Ebene 1" xmlns="http://www.w3.org/2000/svg" xmlns:xlink="http://www.w3.org/1999/xlink" viewBox="0 0 303.85 74.67">
  <defs>
    <linearGradient id="uuid-07f89167-4d0a-4e56-b99e-741c8e98e29d" x1="120.98" y1="37.33" x2="297.52" y2="37.33" gradientUnits="userSpaceOnUse">
      <stop offset="0" stop-color="#fff"/>
      <stop offset=".07" stop-color="#f6f6f6"/>
      <stop offset=".19" stop-color="#e0e0e0"/>
      <stop offset=".34" stop-color="#bcbcbc"/>
      <stop offset=".5" stop-color="#898989"/>
      <stop offset=".69" stop-color="#484848"/>
      <stop offset=".88" stop-color="#000"/>
    </linearGradient>
  </defs>
  <path d="M296.94,22.93s17.95,11.62-4.01,13.9" style="fill: #1d1d1b;"/>
  <polygon points="297.48 47.12 293.33 36.8 285.14 47.04 297.48 47.12" style="fill: #1d1d1b;"/>
  <path d="M122.47,59.95c2.62,2.39,8.07,4.82,15.42,6.84,22.06,6.12,61.21,8.93,95.29,2.19,26.95-5.32,50.64-16.59,60.54-36.56.4-.79,2.91-6.19,1.68-12.36-.63-3.18-2.22-6.59-5.64-9.8-3.42-3.21-8.7-6.23-16.7-8.5-.47-.14-.75-.63-.61-1.1.14-.47.63-.75,1.1-.61,8.2,2.33,13.75,5.46,17.43,8.92,3.69,3.45,5.48,7.25,6.17,10.76,1.34,6.83-1.36,12.54-1.83,13.5-10.34,20.77-34.61,32.14-61.79,37.52-22.96,4.53-48.06,4.78-68.89,2.62-10.41-1.08-19.75-2.77-27.23-4.84-7.48-2.08-13.08-4.5-16.14-7.24-.37-.33-.4-.9-.06-1.26s.9-.39,1.26-.06" style="fill: url(#uuid-07f89167-4d0a-4e56-b99e-741c8e98e29d);"/>
  <path d="M121.8,7.43h-5.27l-3.12,9.24-.58,2.5-.53-2.5-3.66-9.24h-5.8l7.63,17.58c-1.16,3.35-1.78,4.64-3.17,6.74-1.11,1.79-1.87,2.67-3.84,4.77l4.37,2.86c1.78-2.23,2.41-3.08,3.66-5.22,1.56-2.54,2.32-4.15,3.34-7.09l6.96-19.63ZM95.75,30.72c0,.8-.58,1.74-1.56,2.5-1.25,1.03-2.99,1.61-4.6,1.61-2.46,0-4.37-1.03-4.37-2.32,0-.53.36-1.34.98-2.36.13-.13.27-.4.45-.71h6.47c1.78,0,2.63.45,2.63,1.29M93.33,14.57c0,2.14-1.51,3.84-3.43,3.84s-3.44-1.7-3.44-3.79,1.52-3.93,3.39-3.93,3.48,1.74,3.48,3.88M101.5,11.45v-4.02l-4.19.27h-3.08c-1.96-.67-2.81-.85-4.33-.85-5.49,0-8.88,3.03-8.88,7.99,0,1.96.63,3.66,1.83,5.08.49.58.89.89,1.83,1.61-.58.45-1.03.71-1.29.94-2.01,1.34-2.72,2.28-2.72,3.48s.85,2.05,2.9,2.81c-2.41,2.05-3.3,3.44-3.3,5.04,0,3.12,3.44,5.22,8.52,5.22,6.96,0,11.96-3.75,11.96-8.92,0-3.35-1.92-5-5.98-5h-7.27c-1.03,0-1.38-.13-1.38-.58,0-.54.67-1.21,2.05-2.23.67.13.98.13,1.51.13,5.45,0,9.1-3.17,9.1-7.9,0-1.34-.22-2.05-.94-3.08h3.66ZM79.5,8.59c-.85-.98-1.78-1.47-2.9-1.47-1.6,0-2.9,1.34-4.91,4.86l-.22-4.55h-4.59v20.75h5.31v-9.5c0-1.56.45-2.77,1.43-3.97.8-.98,1.74-1.56,2.59-1.56.58,0,1.03.18,1.61.62l1.69-5.18ZM58.05,15.29h-8.12c.45-2.81,2.05-4.42,4.42-4.42,2.5,0,3.57,1.25,3.7,4.42M63.4,26.17l-1.96-4.06c-1.92,1.2-2.72,1.61-3.97,1.96-.85.27-1.65.36-2.45.36-1.96,0-3.75-.98-4.64-2.5-.49-.85-.62-1.56-.71-3.3h13.74v-2.28c0-5.62-3.57-9.5-8.7-9.5-5.93,0-10.39,4.95-10.39,11.51s3.88,10.4,10.04,10.4c2.41,0,4.64-.49,6.82-1.47.49-.22,1.25-.58,2.23-1.11M40.73,28.18v-15.26c0-3.93-1.87-5.89-5.62-5.89-2.63,0-4.69,1.12-7.18,3.84v-3.44h-5.36v20.75h5.36v-12.49l.71-.76c2.32-2.5,3.88-3.61,5-3.61,1.29,0,1.74.94,1.74,3.52v13.34h5.35ZM13.74,15.29H5.62c.45-2.81,2.05-4.42,4.42-4.42,2.5,0,3.57,1.25,3.7,4.42M19.1,26.17l-1.96-4.06c-1.92,1.2-2.72,1.61-3.97,1.96-.85.27-1.65.36-2.45.36-1.96,0-3.75-.98-4.64-2.5-.49-.85-.62-1.56-.71-3.3h13.74v-2.28c0-5.62-3.57-9.5-8.7-9.5C4.46,6.85,0,11.81,0,18.36s3.88,10.4,10.04,10.4c2.41,0,4.64-.49,6.82-1.47.49-.22,1.25-.58,2.23-1.11" style="fill: #ef7d00;"/>
  <path d="M258.9,17.58c0,3.7-2.23,6.74-4.91,6.74s-4.91-3.03-4.91-6.74,2.23-6.69,4.91-6.69,4.91,3.03,4.91,6.69M264.43,17.58c0-6.2-4.51-10.93-10.44-10.93s-10.44,4.73-10.44,10.93,4.5,10.98,10.44,10.98,10.44-4.73,10.44-10.98M236.37,15.08h-8.12c.45-2.81,2.05-4.42,4.42-4.42,2.5,0,3.57,1.25,3.7,4.42M241.72,25.97l-1.96-4.06c-1.92,1.21-2.72,1.61-3.97,1.96-.85.27-1.65.36-2.45.36-1.96,0-3.75-.98-4.64-2.5-.49-.85-.62-1.56-.71-3.3h13.74v-2.28c0-5.62-3.57-9.5-8.7-9.5-5.93,0-10.39,4.95-10.39,11.51s3.88,10.4,10.04,10.4c2.41,0,4.64-.49,6.83-1.47.49-.22,1.25-.58,2.23-1.12M221.69,25.97l-1.69-3.88c-1.47.98-2.23,1.29-2.86,1.29-.85,0-1.07-.67-1.07-2.99v-9.24h4.51v-3.92h-4.51V1.03h-5.04v6.2l-3.08.54v3.39h3.08v12.89c0,3.08,1.29,4.51,4.06,4.51,1.47,0,3.08-.49,4.64-1.38.58-.36,1.25-.76,1.96-1.21M201.7,15.08h-8.12c.45-2.81,2.05-4.42,4.42-4.42,2.5,0,3.57,1.25,3.7,4.42M207.06,25.97l-1.96-4.06c-1.92,1.21-2.72,1.61-3.97,1.96-.85.27-1.65.36-2.45.36-1.96,0-3.75-.98-4.64-2.5-.49-.85-.62-1.56-.71-3.3h13.74v-2.28c0-5.62-3.57-9.5-8.7-9.5-5.94,0-10.4,4.95-10.4,11.51s3.88,10.4,10.04,10.4c2.41,0,4.64-.49,6.83-1.47.49-.22,1.25-.58,2.23-1.12M185.28,27.97v-15.26c0-3.93-1.87-5.89-5.62-5.89-2.72,0-5.09,1.34-7.36,4.06-.49-2.63-2.37-4.06-5.44-4.06-2.63,0-4.69,1.12-7.18,3.84v-3.43h-5.36v20.75h5.36v-12.49l.71-.76c2.32-2.5,3.88-3.62,4.99-3.62,1.3,0,1.74.94,1.74,3.52v13.34h5.35v-12.45c1.34-1.52,2.1-2.28,2.86-2.9,1.16-.98,2.23-1.52,2.9-1.52,1.25,0,1.7.94,1.7,3.52v13.34h5.35ZM138.44,25.69c-1.32,1.08-1.8,1.39-2.48,1.7-.71.31-1.59.47-2.48.47-2.78,0-4.58-1.59-4.58-4.07,0-1.7.75-2.92,2.71-4.48l1.42-1.15,5.39,7.53ZM149.56,26.34l-1.66-1.12c-1.36,1.97-2.13,2.61-3.22,2.61s-1.8-.54-3.16-2.24c1.66-1.8,2.27-2.64,2.82-4,.44-1.12.61-1.97.78-4h-2.34c-.17,1.83-.3,2.54-.71,3.56-.41,1.02-.78,1.56-1.83,2.68l-6.51-9.02c-1.59-2.2-1.83-2.61-2.1-3.66-.1-.34-.17-.68-.17-1.02,0-1.9,1.66-3.29,3.87-3.29,2,0,3.46,1.15,3.46,2.71,0,1.15-.54,1.97-1.86,2.98l-1.36,1.02,1.32,1.7,1.56-1.15c1.93-1.46,3.02-3.12,3.02-4.61,0-2.85-2.47-4.82-6.1-4.82-3.97,0-6.61,2.27-6.61,5.63,0,1.49.44,2.61,1.79,4.41.37.47.78,1.05,1.26,1.66l-1.46,1.19c-3.15,2.58-4.2,4.21-4.2,6.54,0,3.7,2.71,6.11,6.85,6.11,2.68,0,4.61-.78,6.68-2.71,1.36,1.46,1.97,1.97,2.88,2.34.54.2,1.15.34,1.79.34,1.32,0,2.41-.47,3.39-1.49.65-.61.98-1.05,1.83-2.34" style="fill: #1d1d1b;"/>
  <path d="M225.85,43.35c0-1.58-.6-2.27-2.74-3.17-1.83-.76-2.1-.92-2.5-1.32-.16-.16-.25-.38-.25-.62,0-.76.74-1.27,1.87-1.27.38,0,.76.06,1.16.18.51.13.8.27,1.45.67l.82-1.36c-.85-.47-1.2-.6-1.96-.76-.42-.07-.87-.11-1.29-.11-2.37,0-3.84,1.09-3.84,2.86,0,1.23.67,1.92,2.63,2.74,1.81.73,2.28,1.03,2.68,1.61.11.16.2.45.2.69,0,.78-.76,1.34-1.78,1.34-.72,0-1.6-.22-2.32-.56-.18-.09-.42-.22-.76-.4l-.69,1.41c1,.51,1.43.67,2.39.85.51.09.98.13,1.41.13,2.21,0,3.53-1.09,3.53-2.9M215.78,45.96v-7.56c0-1.9-.87-2.81-2.65-2.81-.94,0-1.94.36-2.7,1-.49.4-.69.6-1.41,1.41-.11-1.63-.96-2.41-2.63-2.41-.94,0-1.94.36-2.7,1-.49.4-.69.6-1.38,1.38v-2.12h-1.67v10.11h1.67v-6.18c1.76-1.94,2.86-2.7,3.88-2.7.47,0,.85.2,1.02.54.13.31.16.45.16,1.18v7.16h1.67v-6.18l.47-.49c1.47-1.58,2.48-2.21,3.41-2.21.47,0,.85.2,1.03.54.13.31.15.45.15,1.18v7.16h1.67ZM196.1,39.51h-4.95c.38-1.56,1.36-2.41,2.77-2.41s2.16.85,2.18,2.41M197.93,40.76v-.98c0-2.52-1.54-4.19-3.9-4.19-2.88,0-4.77,2.12-4.77,5.33s1.9,5.33,4.71,5.33c1.32,0,2.16-.29,3.66-1.23l-.67-1.32c-1.09.76-1.74,1-2.63,1-2.05,0-3.3-1.49-3.3-3.95h6.91ZM188.16,44.98l-.69-1.12c-.71.53-1.05.71-1.47.71-.36,0-.56-.16-.58-.49-.02-.11-.02-.31-.04-.63l-.02-.45v-5.76h2.68v-1.41h-2.68v-2.94h-1.67v2.94l-1.7.42v.98h1.7v6.74c0,1.34.78,2.25,1.94,2.25.8,0,1.36-.29,2.54-1.27M180.28,43.35c0-1.58-.6-2.27-2.74-3.17-1.83-.76-2.1-.92-2.5-1.32-.16-.16-.25-.38-.25-.62,0-.76.74-1.27,1.87-1.27.38,0,.76.06,1.16.18.51.13.8.27,1.45.67l.82-1.36c-.85-.47-1.2-.6-1.96-.76-.42-.07-.87-.11-1.29-.11-2.37,0-3.84,1.09-3.84,2.86,0,1.23.67,1.92,2.63,2.74,1.81.73,2.27,1.03,2.68,1.61.11.16.2.45.2.69,0,.78-.76,1.34-1.78,1.34-.71,0-1.61-.22-2.32-.56-.18-.09-.42-.22-.76-.4l-.69,1.41c1,.51,1.43.67,2.39.85.51.09.98.13,1.41.13,2.21,0,3.52-1.09,3.52-2.9M171.57,35.86h-1.72l-2.07,6.18-.22.98-.33-.98-2.43-6.18h-1.88l3.75,8.99c-.58,1.54-.85,2.14-1.41,3.12-.58,1.05-.91,1.5-1.92,2.61l1.34,1.03c.83-1.05,1.11-1.47,1.51-2.12.56-.89.94-1.72,1.41-2.97l3.97-10.66ZM161.36,43.35c0-1.58-.6-2.27-2.74-3.17-1.83-.76-2.1-.92-2.5-1.32-.16-.16-.25-.38-.25-.62,0-.76.74-1.27,1.87-1.27.38,0,.76.06,1.16.18.51.13.8.27,1.45.67l.83-1.36c-.85-.47-1.2-.6-1.96-.76-.42-.07-.87-.11-1.29-.11-2.37,0-3.84,1.09-3.84,2.86,0,1.23.67,1.92,2.63,2.74,1.81.73,2.28,1.03,2.68,1.61.11.16.2.45.2.69,0,.78-.76,1.34-1.78,1.34-.72,0-1.61-.22-2.32-.56-.18-.09-.42-.22-.76-.4l-.69,1.41c1,.51,1.43.67,2.39.85.51.09.98.13,1.41.13,2.21,0,3.52-1.09,3.52-2.9" style="fill: #1d1d1b;"/>
</svg>