<?xml version="1.0" encoding="utf-8"?>
<!-- Generator: $$$/GeneralStr/196=Adobe Illustrator 27.6.0, SVG Export Plug-In . SVG Version: 6.00 Build 0)  -->
<svg version="1.1" id="Layer_1" xmlns="http://www.w3.org/2000/svg" xmlns:xlink="http://www.w3.org/1999/xlink" x="0px" y="0px"
	 viewBox="0 0 1000 783.7" style="enable-background:new 0 0 1000 783.7;" xml:space="preserve">
<style type="text/css">
	.st0{fill:#00A6A6;}
</style>
<path class="st0" d="M941.5,294.7l-83.8,32l-6.5-46.5l100.2-39.5L941.5,294.7z M836.8,106.8l51.2,8.5l60.2,80.8l-36,14.2
	L836.8,106.8z M631.7,403.5l1.3-100.3c0.5-1.2,0.9-2.3,1.2-3.5l40.9-147.3l45.8,7.5l73.6,99.1l10.7,76.7L631.7,403.5z M585.5,276.2
	L441.7,330l-84.3,31.1l5.4-234l131.6-70.6l128.2,86.4L585.5,276.2z M578.1,437.7h-0.2l-9.5,292.8h-32.8L397.8,529.3l110.5-167.4
	l71.1-26.6L578.1,437.7z M198.7,725.3l-34.8-0.1L60.3,414.3L153,276l154-39.3l-3.7,158.4c-0.3,9.7,4.3,19,12.2,24.7
	c4.9,3.5,10.8,5.4,16.9,5.3c3.6,0,7.1-0.6,10.4-1.9l73.1-27L198.7,725.3z M49.8,740.5l22.9-104.8l35,105L49.8,740.5z M995.7,196.2
	c-0.6-1.1-1.2-2.1-1.9-3.1L916.4,89.4c-4.6-5.9-11.2-9.9-18.5-11.3l-97-16.1l0,0c-8.8-1.5-17.1,2.1-21.5,9.4s-3.9,16.2,1.4,23.3
	l94.7,130l-32,12.6c-1.2-2.8-2.7-5.4-4.5-7.9l-79.4-106.8c-5.7-7.5-14.1-12.6-23.4-14.2l-91.9-15.1L514,5.5
	c-10.3-6.7-23.3-7.4-34.2-1.7L327.5,85.7c-10.5,5.8-17.2,16.7-17.6,28.7l-1.4,61.8l-176.8,45.2c-9.3,2.6-17.5,8.3-23,16.3L6.3,390.4
	c-6.3,9.6-8,21.6-4.4,32.5l44.5,133.6l-43,196.8c-3,13.1,5.2,26.2,18.4,29.2c1.8,0.4,3.7,0.6,5.5,0.6l179.4,0.5v-0.1h3.7
	c12.2-0.2,23.6-6.3,30.5-16.4l125.3-189.8l131.1,191.5c6.5,9.2,17,14.8,28.2,14.9l64.8-0.1c16.5,0,30.1-13.2,30.6-29.7l9.5-292.7
	l333.8-129.5c9.2-3.6,15.9-11.7,17.8-21.4l17.6-95.8C1000.8,208.1,999.4,201.5,995.7,196.2"/>
</svg>
