<?xml version="1.0" encoding="UTF-8"?>
<svg id="Ebene_1" xmlns="http://www.w3.org/2000/svg" xmlns:xlink="http://www.w3.org/1999/xlink" xmlns:serif="http://www.serif.com/" version="1.1" viewBox="0 0 800 400">
  <!-- Generator: Adobe Illustrator 29.2.0, SVG Export Plug-In . SVG Version: 2.1.0 Build 108)  -->
  <defs>
    <style>
      .st0 {
        fill: none;
      }

      .st1 {
        fill: #002e40;
      }

      .st2 {
        fill: #5fc33b;
      }
    </style>
  </defs>
  <rect id="Exasol_Logo_2025_Dark" class="st0" x=".3" y="39.6" width="799" height="320.4"/>
  <g>
    <path class="st1" d="M40,79.3v169.1h105v-26.5h-74.3v-45.4h56.9v-26.4h-56.9v-44.3h70.5v-26.4s-101.2,0-101.2,0Z"/>
    <path class="st1" d="M360.4,225.2c19.8.7,36.4-14.8,37.1-34.6,0-.9,0-1.8,0-2.7.3-19.9-15.7-36.3-35.6-36.6h-1.5c-19.7-.7-36.1,14.7-36.8,34.4v2.1c-.6,20,15.2,36.7,35.2,37.3h1.6ZM397.8,231.2c-8,13.1-25.5,19.8-40.4,19.8-32.5,0-61-24.4-61-62.8-1.3-33.2,24.5-61.2,57.7-62.5,0,0,0,0,0,0h3.2c14.6,0,32.2,5.9,40.4,19.5v-17h26.3v120.2h-26.3v-17.2Z"/>
    <path class="st1" d="M461.5,212.2c9,8.4,20.8,13.2,33.1,13.6,8.5,0,15.9-3.8,15.9-11,0-18.1-59-15.7-59-54.7s20.2-35.7,46.4-35.7,40.7,13.8,40.7,13.8l-11.2,22.4c-8.4-6.9-18.9-10.6-29.8-10.4-7.9,0-15.5,3.3-15.5,10.9,0,17.1,59.1,15,59.1,54s-17.6,36.4-46.5,36.4c-17.4.3-34.3-6-47.1-17.8l13.8-21.4h0Z"/>
    <path class="st1" d="M623.4,225.8c20,0,36.1-16.3,36-36.2v-1.7c1-19.9-14.3-36.9-34.2-38-19.9-1-36.9,14.3-38,34.2v3.8c-1,19.9,14.3,36.8,34.2,37.8h1.8M623.2,124.3c37.1,0,66.9,26.4,66.9,63.5s-29.8,63.5-66.7,63.5-66.9-26.2-66.9-63.5,29.7-63.5,66.6-63.5"/>
    <path class="st1" d="M712.7,79.3h30v126.9c0,13.3,4.5,16.6,12.4,16.6s4.5-.2,4.5-.2v26.5c-3.2.4-6.5.7-9.8.7-16.6,0-37.4-4.2-37.4-39.1l.2-131.4h0Z"/>
    <path class="st2" d="M161.2,248.4l46.2-60.3-46-60h35.5l46,60-46.3,60.3h-35.5Z"/>
    <path class="st1" d="M231.5,158.1l17.8,23.2,40.7-53.3h-35.6s-22.8,30.1-22.8,30.1h0Z"/>
    <path class="st1" d="M231.5,218.2l17.8-23.2,40.7,53.3h-35.6s-22.8-30.1-22.8-30.1h0Z"/>
    <g>
      <path class="st1" d="M47.9,312.4v-24.7h-7.9v-3.1h19.5v3.1h-7.9v24.7s-3.7,0-3.7,0Z"/>
      <path class="st1" d="M65.4,312.4v-27.8h3.4v10.8c.6-.8,1.5-1.6,2.7-2.3,1.2-.7,2.6-1.1,4.4-1.1s3.9.6,4.9,1.9c1,1.3,1.5,3.1,1.5,5.5v13h-3.5v-12.5c0-1,0-1.8-.3-2.6-.2-.8-.6-1.4-1.1-1.8-.5-.4-1.3-.7-2.3-.7-1.5,0-2.8.3-3.8,1-1,.7-1.8,1.4-2.5,2.2v14.3h-3.5Z"/>
      <path class="st1" d="M99.2,312.8c-2.2,0-4-.5-5.4-1.4s-2.4-2.2-3.1-3.7c-.7-1.6-1-3.4-1-5.3s.3-3.9,1-5.4c.7-1.6,1.7-2.8,3-3.7s3-1.3,5.1-1.3,4.9.8,6.5,2.5c1.6,1.7,2.3,4,2.3,7.1s0,.5,0,.7c0,.3,0,.5,0,.6h-14.3c0,1.3.2,2.5.6,3.6.4,1.1,1.1,2,1.9,2.6.9.7,2,1,3.5,1s2.7-.4,3.6-1.1c.9-.7,1.3-1.8,1.4-3.1h3.4c0,1.4-.4,2.6-1.1,3.7-.7,1-1.7,1.8-2.9,2.4-1.2.6-2.7.8-4.4.8h0ZM93.2,300.4h11c0-1.9-.5-3.3-1.5-4.3-.9-1-2.2-1.5-3.9-1.5s-3,.5-4,1.5c-1,1-1.5,2.4-1.7,4.3h0Z"/>
      <path class="st1" d="M126.3,312.4v-27.8h4.1l9.9,16.4h-1.5l9.7-16.4h4v27.8h-3.7v-24.7h1.3l-9.4,16h-2.4l-9.6-16h1.3v24.7h-3.6Z"/>
      <path class="st1" d="M169.8,312.7c-2,0-3.7-.4-5.1-1.3-1.4-.8-2.5-2-3.2-3.6-.7-1.6-1.1-3.4-1.1-5.5s.4-4.1,1.1-5.6c.7-1.6,1.8-2.8,3.2-3.6,1.4-.8,3.1-1.3,5.1-1.3s3.7.4,5.2,1.3c1.4.8,2.5,2,3.3,3.6.8,1.6,1.1,3.4,1.1,5.6s-.4,4-1.1,5.5c-.8,1.6-1.9,2.7-3.3,3.6-1.4.8-3.1,1.3-5.2,1.3h0ZM169.8,310c1.5,0,2.7-.3,3.6-1,.9-.7,1.5-1.6,1.9-2.7.4-1.2.6-2.5.6-3.9s-.2-2.8-.6-4c-.4-1.2-1-2.1-1.9-2.8-.9-.7-2.1-1-3.6-1s-2.6.3-3.4,1c-.8.7-1.5,1.6-1.8,2.8-.4,1.2-.6,2.5-.6,4s.2,2.8.6,3.9c.4,1.2,1,2.1,1.8,2.7.8.7,2,1,3.4,1Z"/>
      <path class="st1" d="M193.9,312.8c-1.1,0-2.2-.1-3.2-.4-1-.2-1.9-.6-2.7-1.2-.8-.5-1.4-1.2-1.8-2.1-.4-.9-.7-1.9-.7-3.2h3.3c0,1.6.5,2.7,1.5,3.3,1,.6,2.2,1,3.6,1s2.4-.3,3.2-.8,1.3-1.3,1.3-2.5-.4-1.7-1.1-2.2c-.8-.5-2.1-1-4-1.4-1.6-.4-2.9-.8-4-1.3s-1.9-1.1-2.4-1.9c-.5-.8-.8-1.7-.8-2.8s.2-1.7.6-2.4c.4-.7.9-1.3,1.6-1.7.7-.5,1.5-.8,2.4-1,.9-.2,1.9-.3,3-.3s2.1.1,3,.4,1.8.6,2.5,1.2c.7.5,1.3,1.2,1.7,2s.6,1.8.6,3h-3.3c0-1.4-.4-2.4-1.3-3-.9-.6-1.9-.9-3.1-.9s-2.2.2-3,.7c-.8.4-1.2,1.1-1.2,2.1s.2,1,.5,1.4c.3.4.9.7,1.7,1,.8.3,1.9.6,3.3.9,1.5.4,2.8.8,3.8,1.3,1,.5,1.8,1.1,2.3,1.9.5.8.8,1.8.8,3s-.2,2-.6,2.7c-.4.8-1,1.4-1.7,1.9-.7.5-1.6.9-2.5,1.1-1,.2-2,.4-3.2.4h0Z"/>
      <path class="st1" d="M215.9,312.4c-1.6,0-2.9-.3-3.7-.8-.9-.5-1.5-1.3-1.8-2.2-.3-1-.5-2.1-.5-3.5v-10.8h-3.4v-2.8h3.4v-4.6h3.4v4.6h5v2.8h-5v10.7c0,1.3.2,2.2.5,2.9.3.7,1.1,1,2.3,1h2.2v2.8h-2.4Z"/>
      <path class="st2" d="M235.7,312.4v-27.8h10.9c1.8,0,3.5.3,5,1s2.7,1.6,3.6,3c.9,1.3,1.3,3,1.3,5.1s-.4,3.7-1.3,5c-.9,1.3-2.1,2.3-3.6,2.9-1.5.6-3.2,1-5,1h-5.1v9.9h-5.8,0ZM241.5,297.8h4.6c1.4,0,2.4-.4,3.3-1.1s1.3-1.8,1.3-3.2-.4-2.5-1.3-3.2c-.9-.7-1.9-1.1-3.2-1.1h-4.6v8.6h0Z"/>
      <path class="st2" d="M270.8,312.7c-2,0-3.8-.4-5.4-1.2-1.5-.8-2.7-2-3.6-3.5-.8-1.5-1.3-3.4-1.3-5.6s.4-4.1,1.3-5.7c.8-1.6,2-2.8,3.6-3.6,1.5-.8,3.3-1.2,5.4-1.2s3.9.4,5.4,1.2c1.5.8,2.7,2,3.6,3.6.9,1.6,1.3,3.5,1.3,5.7s-.4,4.1-1.3,5.6-2.1,2.7-3.6,3.5c-1.5.8-3.3,1.2-5.4,1.2ZM270.8,308.6c1.2,0,2.1-.3,2.8-.8.7-.6,1.2-1.3,1.4-2.2.3-.9.4-2,.4-3.1s-.1-2.2-.4-3.2c-.3-1-.8-1.7-1.4-2.3-.7-.6-1.6-.8-2.8-.8s-2.1.3-2.8.8c-.7.6-1.1,1.3-1.4,2.3-.3,1-.4,2-.4,3.2s.1,2.2.4,3.1c.3.9.7,1.7,1.4,2.2.7.6,1.6.8,2.8.8Z"/>
      <path class="st2" d="M291.2,312.4l-6.3-20.2h5.6l3.9,14.2,3.9-14.2h5.7l4,14.2,3.8-14.2h5.2l-6.3,20.2h-5.6l-4.1-14.5-4.1,14.5h-5.6Z"/>
      <path class="st2" d="M330.9,312.8c-2.2,0-4.1-.4-5.7-1.3-1.5-.8-2.7-2-3.5-3.6-.8-1.6-1.2-3.5-1.2-5.7s.4-4,1.1-5.5,1.9-2.7,3.4-3.6c1.5-.8,3.3-1.3,5.5-1.3s5.4.9,7.1,2.6c1.7,1.8,2.6,4.3,2.6,7.5s0,.4,0,.7c0,.3,0,.5,0,.7h-14.2c0,1,.2,1.8.5,2.7.3.8.8,1.5,1.5,2,.7.5,1.6.8,2.8.8s2.1-.3,2.9-.8c.7-.5,1.1-1.3,1.1-2.3h5.4c0,1.6-.5,2.9-1.3,3.9-.8,1-1.9,1.8-3.2,2.3-1.4.5-3,.8-4.8.8h0ZM326.1,299.9h8.7c0-1.4-.5-2.5-1.3-3.2-.8-.7-1.8-1-3-1s-2.3.4-3.1,1.1c-.8.7-1.3,1.8-1.3,3.1Z"/>
      <path class="st2" d="M347.3,312.4v-20.2h5.3v3.5c.6-1.2,1.4-2.1,2.5-2.8s2.3-1,3.8-1h.4v4.6h-.5c-.8,0-1.6,0-2.3.2-.7.1-1.4.4-2,.7-.6.4-1.1.8-1.6,1.5v13.4h-5.5,0Z"/>
      <path class="st2" d="M366,312.4v-16h-3.3v-4.2h3.3v-.6c0-1.2.1-2.3.4-3.2.2-.9.6-1.6,1.2-2.2.6-.6,1.4-1,2.4-1.3,1-.3,2.3-.4,3.8-.4h2v4h-1.8c-1,0-1.7.2-2,.7-.3.5-.4,1.3-.4,2.3v.6h4.3v4.2h-4.3v16h-5.5Z"/>
      <path class="st2" d="M387.6,312.7c-2,0-3.6-.6-4.7-1.9-1.1-1.3-1.7-3.1-1.7-5.4v-13.2h5.5v12.5c0,.7,0,1.3.3,1.8.2.5.5.9,1,1.2.5.3,1.1.4,1.8.4,1.1,0,2-.2,2.8-.7s1.5-1.1,2-1.8v-13.5h5.5v20.2h-5.3v-3c-.8.9-1.7,1.6-2.9,2.3-1.2.7-2.6,1-4.4,1h0Z"/>
      <path class="st2" d="M415.7,312.4c-2.1,0-3.6-.2-4.8-.7-1.1-.5-1.9-1.2-2.3-2.3-.4-1-.7-2.4-.7-4v-20.8h5.5v20.5c0,1.1.1,1.8.4,2.3s1,.7,2,.7h1.3v4.3h-1.4Z"/>
      <path class="st1" d="M430.7,312.4l10.4-27.8h3.9l10.3,27.8h-3.8l-2.6-7.8h-11.5l-2.8,7.8h-3.8ZM438.3,301.5h9.5l-4.7-13.2-4.8,13.2h0Z"/>
      <path class="st1" d="M461.2,312.4v-20.1h3.3v3.1c.7-.8,1.6-1.6,2.8-2.3,1.2-.7,2.6-1.1,4.4-1.1s3.8.7,4.8,2c1,1.3,1.5,3.1,1.5,5.5v13h-3.5v-12.5c0-1-.1-1.8-.3-2.6-.2-.8-.6-1.4-1.1-1.8-.5-.4-1.3-.7-2.3-.7-1.5,0-2.8.3-3.8,1-1,.7-1.8,1.4-2.5,2.2v14.3h-3.5Z"/>
      <path class="st1" d="M491.8,312.8c-1.2,0-2.2-.2-3.2-.7-1-.4-1.7-1.1-2.3-2-.6-.9-.9-1.9-.9-3.2,0-1.8.6-3.2,1.7-4.1,1.1-.9,2.7-1.6,4.8-1.9s4.5-.5,7.3-.5v-1.4c0-1.7-.4-2.9-1.3-3.5-.9-.6-1.9-1-3.2-1s-2.6.4-3.5,1.1c-1,.7-1.4,1.8-1.4,3.3h-3.3c0-1.7.4-3,1.1-4,.7-1,1.7-1.8,2.9-2.2,1.2-.5,2.7-.7,4.3-.7s2,0,3,.3c.9.2,1.8.5,2.5,1.1.8.5,1.3,1.2,1.8,2.1.4.9.7,2.1.7,3.5v13.5h-3.2v-3.1c-1.1,1-2.1,1.9-3.4,2.5-1.2.6-2.6.9-4.3.9h0ZM492.8,310.1c1.4,0,2.6-.3,3.7-1,1.1-.6,2-1.5,2.8-2.5v-4.1c-3.7,0-6.3.4-7.9,1-1.6.6-2.4,1.7-2.4,3.2s.3,1.8,1,2.4c.6.6,1.6.9,2.8.9Z"/>
      <path class="st1" d="M517.1,312.4c-1.6,0-2.9-.3-3.8-.8s-1.5-1.3-1.8-2.2c-.3-1-.5-2.1-.5-3.5v-21.3h3.4v21.1c0,1.3.2,2.2.5,2.9.3.7,1.1,1,2.3,1h.9v2.8h-1.2,0Z"/>
      <path class="st1" d="M523.2,319.8v-2.9h1.7c.8,0,1.5-.2,2-.6.5-.4,1-1.1,1.4-2.1l.8-1.8-8-20.1h3.7l6.2,16.5,5.7-16.5h3.5l-7.6,20.1-1,2.4c-.5,1.2-1,2.2-1.5,2.9s-1.2,1.3-2,1.6c-.8.3-1.8.5-3,.5h-2Z"/>
      <path class="st1" d="M552.6,312.4c-1.6,0-2.9-.3-3.7-.8s-1.5-1.3-1.8-2.2c-.3-1-.5-2.1-.5-3.5v-10.8h-3.4v-2.8h3.4v-4.6h3.4v4.6h5v2.8h-5v10.7c0,1.3.2,2.2.5,2.9.3.7,1.1,1,2.3,1h2.2v2.8h-2.4,0Z"/>
      <path class="st1" d="M561.7,312.4v-20.1h3.5v20.1h-3.5ZM563.4,288.5c-.6,0-1.2-.2-1.6-.6-.4-.4-.6-.9-.6-1.4s.2-1.1.6-1.4c.4-.4.9-.6,1.6-.6s1.2.2,1.6.6.6.9.6,1.4-.2,1.1-.6,1.4c-.4.4-.9.6-1.6.6Z"/>
      <path class="st1" d="M582.1,312.8c-1.8,0-3.4-.4-4.8-1.1-1.4-.8-2.5-1.9-3.3-3.5-.8-1.5-1.2-3.5-1.2-5.8s.4-4.2,1.2-5.8c.8-1.6,1.9-2.7,3.3-3.5,1.4-.8,3-1.2,4.9-1.2s3,.3,4.2.8c1.2.5,2.2,1.3,3,2.3.7,1,1.1,2.3,1.2,3.9h-3.4c0-1.3-.6-2.3-1.4-3.1-.9-.7-2-1.1-3.5-1.1s-3.4.7-4.4,2c-1,1.3-1.4,3.2-1.4,5.7s.2,3,.6,4.1c.4,1.1,1.1,2,1.9,2.6.9.6,2,.9,3.2.9s2.7-.4,3.6-1.1c.9-.8,1.4-1.9,1.4-3.4h3.4c0,1.6-.4,3-1.2,4.1s-1.8,1.9-3,2.4c-1.3.5-2.7.8-4.3.8h0Z"/>
      <path class="st1" d="M605.1,312.8c-1.1,0-2.2-.1-3.2-.4-1-.2-1.9-.6-2.7-1.2-.8-.5-1.4-1.2-1.8-2.1-.4-.9-.7-1.9-.7-3.2h3.3c0,1.6.5,2.7,1.5,3.3,1,.6,2.2,1,3.6,1s2.4-.3,3.2-.8,1.3-1.3,1.3-2.5-.4-1.7-1.1-2.2-2.1-1-4-1.4c-1.6-.4-2.9-.8-4-1.3-1.1-.5-1.9-1.1-2.4-1.9-.5-.8-.8-1.7-.8-2.8s.2-1.7.6-2.4.9-1.3,1.6-1.7c.7-.5,1.5-.8,2.4-1,.9-.2,1.9-.3,3-.3s2.1.1,3,.4,1.8.6,2.5,1.2c.7.5,1.3,1.2,1.7,2,.4.8.6,1.8.6,3h-3.3c0-1.4-.4-2.4-1.3-3-.9-.6-1.9-.9-3.1-.9s-2.2.2-3,.7c-.8.4-1.2,1.1-1.2,2.1s.2,1,.5,1.4c.3.4.9.7,1.7,1,.8.3,1.9.6,3.3.9,1.5.4,2.8.8,3.8,1.3,1,.5,1.8,1.1,2.3,1.9s.8,1.8.8,3-.2,2-.6,2.7c-.4.8-1,1.4-1.7,1.9-.7.5-1.6.9-2.5,1.1-1,.2-2,.4-3.2.4h0Z"/>
      <path class="st1" d="M631.7,312.4v-27.8h17.8v3.1h-14v8.9h12.9v3.1h-12.9v9.7h14v3.1h-17.8Z"/>
      <path class="st1" d="M657.1,312.4v-20.1h3.3v3.1c.7-.8,1.6-1.6,2.8-2.3,1.2-.7,2.6-1.1,4.4-1.1s3.8.7,4.8,2c1,1.3,1.5,3.1,1.5,5.5v13h-3.5v-12.5c0-1-.1-1.8-.3-2.6-.2-.8-.6-1.4-1.1-1.8-.5-.4-1.3-.7-2.3-.7-1.5,0-2.8.3-3.8,1-1,.7-1.8,1.4-2.5,2.2v14.3h-3.5Z"/>
      <path class="st1" d="M689.5,320.2c-2.2,0-3.9-.2-5.2-.7-1.3-.5-2.2-1.2-2.8-2s-.9-1.7-.9-2.7.5-2.2,1.5-3.1c1-.9,2.5-1.6,4.6-1.9l.7-1.1h2.5c3.3,0,5.7.4,7.1,1.3,1.4.9,2.1,2.2,2.1,4.1s-.8,3.3-2.4,4.5c-1.6,1.2-4,1.7-7.2,1.7h0ZM689.4,317.7c2.3,0,4-.3,5-1,1-.7,1.4-1.5,1.4-2.5s-.2-1.1-.5-1.5c-.3-.4-.9-.7-1.8-1s-2.1-.4-3.7-.4h-3.1c-.9.2-1.7.6-2.2,1.2-.5.6-.8,1.2-.8,2s.4,1.6,1.3,2.2c.9.6,2.3.9,4.3.9h0ZM686.7,311.2c-1.3-.1-2.3-.4-3.1-.8-.8-.4-1.3-.9-1.6-1.4s-.5-1-.5-1.5c0-.7.3-1.3.8-1.9.5-.6,1.4-1.1,2.7-1.5l1.7,1.1c-.7.2-1.3.5-1.7.8-.4.3-.6.7-.6,1.1s.1.5.4.7c.3.2.7.4,1.3.5.6.1,1.5.2,2.6.2l-1.9,2.6h0ZM689.3,305.9c-1.7,0-3.1-.3-4.2-1-1.2-.6-2-1.5-2.6-2.5-.6-1-.9-2.2-.9-3.4s.3-2.4.9-3.5,1.5-1.9,2.6-2.5c1.2-.6,2.6-.9,4.3-.9s3.2.3,4.3.9c1.1.6,2,1.5,2.6,2.5.6,1,.8,2.2.8,3.5s-.3,2.4-.9,3.4c-.6,1-1.4,1.9-2.6,2.5-1.2.6-2.6.9-4.4.9h0ZM689.3,303.5c1.3,0,2.4-.4,3.3-1.1.9-.8,1.3-1.9,1.3-3.4s-.4-2.7-1.2-3.5c-.8-.8-1.9-1.1-3.2-1.1s-2.4.4-3.3,1.2c-.9.8-1.3,1.9-1.3,3.4s.4,2.6,1.3,3.4c.9.8,1.9,1.1,3.1,1.1h0ZM694.5,294.3l-1.4-1.3c.6-1.3,1.4-2.2,2.3-2.6,1-.5,2.2-.7,3.7-.8v2.9c-1,0-1.9,0-2.7.3-.8.2-1.5.7-2,1.5h0Z"/>
      <path class="st1" d="M705.1,312.4v-20.1h3.5v20.1h-3.5ZM706.9,288.5c-.6,0-1.2-.2-1.6-.6-.4-.4-.6-.9-.6-1.4s.2-1.1.6-1.4c.4-.4.9-.6,1.6-.6s1.2.2,1.6.6c.4.4.6.9.6,1.4s-.2,1.1-.6,1.4c-.4.4-.9.6-1.6.6Z"/>
      <path class="st1" d="M717.4,312.4v-20.1h3.3v3.1c.7-.8,1.6-1.6,2.8-2.3,1.2-.7,2.6-1.1,4.4-1.1s3.8.7,4.8,2c1,1.3,1.5,3.1,1.5,5.5v13h-3.5v-12.5c0-1-.1-1.8-.3-2.6-.2-.8-.6-1.4-1.1-1.8-.5-.4-1.3-.7-2.3-.7-1.5,0-2.8.3-3.8,1-1,.7-1.8,1.4-2.5,2.2v14.3h-3.5Z"/>
      <path class="st1" d="M751.2,312.8c-2.2,0-4-.5-5.4-1.4s-2.4-2.2-3.1-3.7c-.7-1.6-1-3.4-1-5.3s.3-3.9,1-5.4c.7-1.6,1.7-2.8,3-3.7,1.3-.9,3-1.3,5.1-1.3s4.9.8,6.5,2.5c1.6,1.7,2.3,4,2.3,7.1s0,.5,0,.7c0,.3,0,.5,0,.6h-14.3c0,1.3.2,2.5.6,3.6.4,1.1,1.1,2,1.9,2.6.9.7,2,1,3.5,1s2.7-.4,3.6-1.1c.9-.7,1.3-1.8,1.4-3.1h3.4c0,1.4-.4,2.6-1.1,3.7-.7,1-1.7,1.8-2.9,2.4-1.2.6-2.7.8-4.4.8h0ZM745.2,300.4h11c0-1.9-.5-3.3-1.5-4.3-.9-1-2.2-1.5-3.9-1.5s-3,.5-4,1.5c-1,1-1.5,2.4-1.7,4.3h0Z"/>
    </g>
  </g>
</svg>