<?xml version="1.0" encoding="UTF-8"?>
<svg xmlns="http://www.w3.org/2000/svg" version="1.1" viewBox="0 0 1081 441">
  <defs>
    <style>
      .cls-1 {
        fill: #473a6d;
      }

      .cls-2 {
        fill: #fff;
      }
    </style>
  </defs>
  <!-- Generator: Adobe Illustrator 28.7.9, SVG Export Plug-In . SVG Version: 1.2.0 Build 218)  -->
  <g>
    <g id="Ebene_1">
      <rect class="cls-1" width="1081" height="441"/>
      <path id="exocad" class="cls-2" d="M230.47,199.24c-1.26,4.21-3.96,7.27-8.04,9.09-3.67,1.67-7.99,2.51-12.85,2.51h-.04c-4.93,0-9.38-.99-13.31-3-4.34-2.2-6.73-4.64-7.32-7.38-.48-2.11-.66-3.93-.64-5.57-.02-9.42,4.86-16.15,14.51-20.04,2.59-.9,5.48-1.4,8.62-1.4,6.96,0,12.52,2.59,16.48,7.69,2.44,3.89,3.61,7.5,3.61,11.04,0,2.25-.32,4.62-1.01,7.08M270.16,194.77c-4.93-12.31-10.15-21.66-15.68-27.99-10.88-12.7-25.23-19.05-43.08-19.07-18.25.02-33.47,6.69-45.67,20.13-12.2,13.45-18.3,30.43-18.3,50.92,0,19.08,5.42,35.99,16.28,50.76,11.91,16.22,27.2,24.32,45.84,24.32h.1c12.87,0,23.74-1.69,32.55-4.93,12.28-4.51,18.42-12.11,18.42-22.78,0-3.7-.26-6.46-.76-8.3-.52-1.85-1.9-3.78-4.14-5.85-1.23-1.45-3.39-2.12-6.46-2.12-2.04,0-4.3.29-6.61.89-2.37.6-5.7,2.46-10,5.55-8.42,5.96-13.65,9.27-15.7,9.98-2.05.73-4.3,1.08-6.76,1.08-6.37,0-11.4-2.9-15.07-8.67-2.9-4.56-4.32-10.02-4.32-16.44,0-2.27.86-4.82,2.63-7.62,1.7-2.76,3.72-4.7,6-5.7,2.27-1.06,6.83-1.55,13.82-1.55.83,0,8.1.47,21.86,1.46,3.41.24,7.66.37,12.7.37h.28c6.33,0,11.38-.58,15.16-1.71,3.78-1.12,6.09-3.11,6.91-6.01,1.85-6.35,2.76-11.14,2.76-14.42,0-3.91-.91-8.02-2.76-12.31M297.82,147.26c-2.83,0-6.56.76-11.14,2.25-3.75,1.23-5.46,3.39-5.46,7.04s2.87,11.62,16.45,29.3c14.13,18.4,17.05,24.6,17.45,27.62.63,1.21,1.11,2.51,1.34,3.87.28,1.4.38,3.33.38,6.03,0,3.67-.73,7.39-2.2,11.05-2.38,5.51-7.13,12.55-14.49,21.57l-6.29,7.48-7.88,9.44c-1.62,1.83-3.01,4.14-4.11,6.89-1.1,2.74-1.68,5.66-1.68,8.68s.92,5.59,2.78,7.49c1.86,1.88,4.33,2.81,7.43,2.81,1.62,0,3.5-.24,5.57-.64,2.21-.43,5.59-1.21,10.15-2.31,4.08-1.02,7.34-2.96,9.91-5.94.99-1.1,2.83-3.8,6.05-10.35,2.81-5.76,5.23-9.76,7.43-12.2,4.1-4.34,8.81-6.54,13.99-6.54,3.09,0,5.8,1.02,8.06,2.98,1.99,1.73,3.8,3.86,5.53,6.59,4.04,7.2,6.94,11.98,8.65,14.32,3.34,4.82,7.79,8.62,13.19,11.29,4.42,1.71,7.58,2.88,9.24,3.42,1.41.48,3.22.71,5.42.71,3.35,0,6.06-1.08,8.27-3.26,1.75-1.77,2.62-4.04,2.62-6.98,0-2.7-.91-5.98-2.62-9.63-2.2-4.66-3.76-6.76-4.7-7.71-5.45-5.4-11.12-12.17-16.87-19.94-5.77-7.82-10.22-14.77-13.17-20.71-1.53-3.02-2.29-6.11-2.29-9.2v-6.7c0-4.38,2.79-10.86,8.62-19.91,4.38-6.72,10.69-15.14,18.72-25.07,3.54-4.28,5.26-8.79,5.26-13.87,0-2.72-.62-4.82-1.79-6.27-1.22-1.49-2.48-2.48-3.69-2.89-1.43-.46-3.37-.71-5.77-.71-4.04,0-8.06.46-11.86,1.3-.34.15-3.21,1.92-14.79,14.99-8.4,9.61-15.32,14.32-21.06,14.32-4.13,0-8.02-3.02-11.92-9.27-9.03-14.59-14.21-18.63-17-19.41-4.47-1.27-8.42-1.93-11.75-1.93M474.47,264.44c11.27,0,19.41-4.16,24.29-12.35,4.62-7.9,6.87-19.93,6.87-36.76,0-10.97-2.38-20.4-7.08-27.96-4.95-7.97-11.79-11.99-20.41-11.99-10.93,0-20.39,4.8-28.14,14.32-6.85,8.34-10.32,17-10.32,25.63,0,13.01,2.91,24.47,8.73,34.04,6.04,10,14.83,15.07,26.07,15.07M470.51,149.42h0c15.72,0,30.51,5.96,43.97,17.63,15.57,13.63,23.48,31.21,23.5,52.24-.02,21.9-6.93,39.84-20.54,53.26-12.87,12.66-29.04,19.05-48.18,19.05-16.58,0-31.53-6.99-44.34-20.8-13.47-14.45-20.32-32.16-20.32-52.7,0-12.36,5.87-26.26,17.42-41.38,13.85-18.1,30.16-27.3,48.49-27.3M610.46,153.84c-10.5,0-21.97,5.53-34.08,16.42-14.6,13.22-22.05,29.39-22.05,48.07s3.5,34.45,10.37,48.21c9.31,18.55,23.54,27.6,43.52,27.6,3.35,0,5.96-.11,7.75-.3,17.5-1.9,31.92-7.24,42.88-15.94,9-7.17,13.54-14.3,13.57-21.19-.03-2.27-.59-3.84-1.76-4.86-1.92-1.75-5.81-3.82-11.51-6.18-5.68-2.28-10.35-3.49-13.89-3.52-1.04.03-1.69.09-2.05.15-3.52,6.61-7.01,13.09-10.52,19.52l-.13.22-.15.18c-4.99,5.94-12.17,8.98-21.29,8.98s-16.44-5.59-20.45-16.58c-2.66-7.15-4-16.14-4-26.76s2.5-21.75,7.51-31.42c5.23-10.13,11.73-15.68,19.25-16.39l.9-.02h3.22c5.08,0,11.75,2.77,20.43,8.51,2.81,1.86,5.83,2.79,9.25,2.79,8.77,0,12.48-1.06,14.06-1.95,1.88-1.04,2.74-2.46,2.74-4.58,0-1.14-.32-2.39-.82-3.67l-.22-.65-2.03-5.03c-2.42-7.08-6.67-12.07-13.02-15.44-7.52-4.08-20.13-6.15-37.47-6.15h0M740.75,268.4c3.09,0,5.94-.84,8.53-2.44,3.35-2.07,6.15-5.31,8.29-9.59,1.73-3.15,2.62-6.87,2.62-10.97,0-7.66-3.2-13.48-9.51-17.23-1.95-1.06-4.14-1.6-6.57-1.6-5.27,0-10.37,2.53-15.09,7.45-4.75,4.93-7.15,10.3-7.15,15.94,0,2.39.31,4.1.81,5.1,2.74,7.64,7.75,12.07,14.79,13.02,1.1.2,2.23.33,3.28.33M754.66,152.2c12.53,0,22.09,3.74,28.46,11.14,7.95,9.46,12.01,27.3,12.01,53.07v35.8c0,5.75.58,10.19,1.77,13.54,3.65,10.46,4.06,12.51,4.12,12.81-.02,1.83-.34,4.49-.97,8.1,0,0-.34,1.15-4.21,3.2-3.15,1.66-6.26,2.46-9.54,2.46-2.81,0-6.78-1.42-11.82-4.26-3.23-1.7-5.85-2.57-8.14-2.57l-16.85.65c-.5,0-1.05,0-12.46,3.35-4.08,1.25-8.74,1.85-13.9,1.85-10.65,0-18.98-3.47-25.44-10.58-6.5-7.06-9.78-16.57-9.78-28.23,0-16.28,6.73-28.03,20.59-35.85,8.65-4.86,23.37-9.25,43.85-13.11,4.12-.97,6.19-5.08,6.19-12.24,0-3.98-.69-7.95-2.09-11.94-2.14-5.96-6.22-7.22-9.29-7.22-3.78,0-9.89,2.35-19.22,7.47-10.89,5.94-14.79,6.85-16.15,6.85-.69,0-1.04-.15-1.11-.21l-.24-.22-.26-.17c-2.76-1.68-5.37-3.48-7.77-5.38-1.97-1.51-3.13-3.63-3.46-6.39-.06-.73.48-4.75,18.72-12.87,13.52-6.01,25.98-9.05,36.97-9.05M874.48,269.48c2.87,0,5.71-.46,8.27-1.32,8.2-2.25,13.63-8.34,16.07-17.93,1.51-5.53,2.23-13.99,2.23-25.92,0-9.52-2.27-18.27-6.72-25.93-5.35-9.09-12.33-13.73-20.8-13.73-7.34,0-14.17,4.49-20.32,13.26-5.99,8.51-9,18.01-9,28.25,0,12.66,1.31,21.87,4.01,28.2,2.83,6.74,8.79,11.38,17.58,13.78,2.83.91,5.76,1.34,8.68,1.34M914.65,118.86c2.25,0,4.38.82,6.29,2.27,3.3,3.39,5.89,5.79,7.79,7.3.35.41,2.18,3.35,3.6,22.44,1.09,14.51,1.65,32.48,1.65,53.36,0,23.74-.69,43.3-2.07,57.93-.24,1.21-.37,2.87-.34,5.07-.03,2.83.39,6.11,1.25,9.98,1.08,4.82,1.16,5.92,1.16,6.16,0,1.88-.78,3.23-2.53,4.36-.3.04-1.12.22-3.26.39-2.22.2-3.63.31-4.19.31-3.89,0-8.06.04-12.47.13-4.51.13-9.56.71-14.94,1.73-5.23.99-10.85,1.81-16.74,2.39-5.85.59-11.38.91-16.41.91-14.97,0-26.61-6.37-35.69-19.44-9.14-13.2-13.76-28.72-13.73-46.17-.03-15.74,2.16-28.04,6.43-36.54,3.28-6.37,9.24-13.05,17.73-19.89,4.4-3.54,8.18-6.22,11.27-7.97,4.3-2.42,8.25-3.65,11.88-3.65.74-.08,1.45-.1,2.18-.1,2.91,0,5.83.6,8.7,1.79,4.3,1.73,8.36,2.57,12.18,2.57,5.14,0,9.29-2.18,12.33-6.55,2.85-4.06,4.3-8.44,4.3-13.04,0-7.06,1.15-13.11,3.35-17.93,2.88-6.11,4.88-6.98,5.4-7.08,2.74-.61,4.19-.71,4.86-.71"/>
    </g>
  </g>
</svg>