<?xml version="1.0" encoding="UTF-8"?>
<svg xmlns="http://www.w3.org/2000/svg" version="1.1" viewBox="0 0 275.83 150.75">
  <defs>
    <style>
      .cls-1 {
        fill: #59728e;
      }

      .cls-2 {
        fill: #1ca0b7;
      }
    </style>
  </defs>
  <!-- Generator: Adobe Illustrator 28.6.0, SVG Export Plug-In . SVG Version: 1.2.0 Build 709)  -->
  <g>
    <g id="Ebene_1">
      <path class="cls-2" d="M167.62,0h-59.41c-5.97,0-10.81,4.84-10.81,10.81v59.41c0,5.97,4.84,10.81,10.81,10.81h59.41c5.97,0,10.81-4.84,10.81-10.81V10.81c0-5.97-4.84-10.81-10.81-10.81ZM162.83,71.63h-53.3v-3.26c2.54-.21,6.97-.37,12.13-1.04,3.37-.44,4.19-2.25,4.56-3.35.37-1.11-.39-1.86-.6-3.39-.21-1.53,1.19-1.61,1.63-2.45.44-.84-.99-1.82-.99-1.82,0,0,.91-.11,1.31-.79.34-.58.1-1.46-.38-1.98-.37-.4-.85-1.77-.84-2.39.02-.86.41-1.42,1-1.61.6-.19,1.86-.42,2.45-.97.69-.64.69-1.16.38-1.89-1.45-3.39-2.66-5.21-3.88-7.77-.61-1.32,1.05-2.01,1.52-4.33.31-2.59-.07-6.84-1.32-9.77-.2-.47,1.71-1.25.62-5.74-1.42-5.86-14.95-6.42-17.6-6.26v-3.41h52.49l1.01,13.36h-2.46c-1.02-7.59-6.25-9.84-16.82-9.84-4.31,0-5.71.37-5.71,4.22v19.37c7.52.09,10.87-.78,12.05-9.88h2.67v25.45h-2.67c-.95-8.67-4.3-11.44-12.05-11.44v22.14c0,3.95,1.48,5.02,6.57,5.02,7.68,0,14.58-2.33,18.8-13.18h2.9l-3.47,17Z"/>
      <g>
        <path class="cls-2" d="M2.87,148.94c-1.91-1.17-2.87-3.54-2.87-7.09v-24.17c0-3.22.87-5.54,2.61-6.98,1.74-1.44,3.84-2.16,6.3-2.16,3.55,0,6.62.06,9.19.17,2.57.11,5.52.27,8.85.45v5.84h-15.83c-1.32,0-2.35.33-3.06.99-.72.66-1.08,1.66-1.08,2.98v7.43l17.42.4v5.5l-17.42.4v7.21c0,2.8,1.36,4.2,4.09,4.2h15.89v5.84c-4.77.42-10.52.66-17.25.74-2.65,0-4.93-.59-6.84-1.76Z"/>
        <path class="cls-2" d="M56.3,150.41h-6.51l-6.58-10.47-6.14,10.47h-6.47l9.49-15.46-9.62-15.39h6.47l6.74,10.72,6.23-10.72h6.51l-9.61,15.71,9.5,15.14Z"/>
        <path class="cls-2" d="M66.74,150.41h-5.8v-30.85h12.82c2.5,0,4.61.72,6.25,2.15,1.66,1.44,2.5,4.24,2.5,8.3,0,7.13-2.92,10.74-8.66,10.74-.87,0-2.12-.07-3.74-.2-1.38-.11-2.5-.23-3.36-.35v10.21ZM66.74,135.41h6.37c1.13,0,1.98-.39,2.6-1.19.64-.82.96-2.22.96-4.16,0-3.49-1.11-5.19-3.4-5.19h-6.53v10.54Z"/>
        <path class="cls-2" d="M95.1,150.61c-1.97,0-3.69-.44-5.12-1.32-1.49-.91-2.24-2.74-2.24-5.43v-17.36c0-2.42.68-4.21,2.02-5.31,1.32-1.09,2.92-1.64,4.77-1.64,2.54,0,4.77.04,6.62.12,1.85.08,3.97.19,6.36.33l.37.02v4.96h-11.76c-.84,0-1.5.21-1.93.61-.44.4-.65,1.01-.65,1.85v4.95l12.51.29v4.72l-12.51.29v4.79c0,1.79.81,2.62,2.54,2.62h11.8v4.95l-.36.03c-3.41.3-7.58.48-12.42.53Z"/>
        <path class="cls-2" d="M137.09,150.41h-5.96l-5.21-11.57c-1.5,0-3.27-.03-5.26-.07v11.64h-5.8v-30.85h12.62c2.64,0,4.77.71,6.33,2.12,1.57,1.42,2.37,3.98,2.37,7.61,0,2.74-.5,4.78-1.49,6.06-.89,1.17-2.06,2.04-3.46,2.59l5.87,12.48ZM120.65,134.02h5.96c1.2,0,2.1-.33,2.75-1,.64-.67.97-1.93.97-3.74s-.32-2.9-.96-3.5c-.64-.6-1.57-.91-2.77-.91h-5.96v9.16Z"/>
        <path class="cls-1" d="M145.95,114.83h-12.03v-6.3h31.04v6.3h-11.97v35.58h-7.04v-35.58Z"/>
        <path class="cls-1" d="M166.66,149.31c-1.91-.93-3.29-2.49-4.14-4.7-.85-2.21-1.27-5.34-1.27-9.38s.41-7.29,1.22-9.52c.81-2.23,2.15-3.8,4.02-4.7,1.87-.91,4.5-1.36,7.9-1.36,2.98,0,5.35.3,7.08.91,1.74.6,3,1.65,3.8,3.14.79,1.49,1.19,3.58,1.19,6.26s-.8,4.8-2.41,6.01c-1.61,1.21-3.94,1.81-7,1.81h-8.9c.08,1.97.34,3.49.79,4.56.45,1.08,1.26,1.86,2.41,2.35,1.15.49,2.82.74,5.01.74h9.18v4.14c-2.04.38-3.86.66-5.47.85-1.61.19-3.45.28-5.52.28-3.36,0-6-.46-7.91-1.39ZM176.38,133.53c1.36,0,2.34-.26,2.95-.79.6-.53.91-1.45.91-2.78,0-1.96-.43-3.32-1.3-4.08-.87-.76-2.38-1.13-4.53-1.13-1.62,0-2.88.25-3.77.76-.89.51-1.53,1.39-1.93,2.64-.4,1.25-.59,3.04-.59,5.38h8.27Z"/>
        <path class="cls-1" d="M192.13,148.69c-1.42-1.38-2.12-3.24-2.12-5.58v-2.55c0-2.42.82-4.34,2.46-5.78,1.64-1.44,4.09-2.15,7.34-2.15h8.67v-2.66c0-1.13-.19-2.04-.57-2.72-.38-.68-1.08-1.2-2.1-1.56-1.02-.36-2.49-.54-4.42-.54h-9.18v-4.08c3.44-.94,7.4-1.42,11.9-1.42,3.85,0,6.71.76,8.59,2.27,1.87,1.51,2.8,4.04,2.8,7.59v20.91h-5.5l-1.19-3.29c-.38.34-1.15.8-2.32,1.39s-2.54,1.1-4.11,1.56-3.13.68-4.67.68c-2.3,0-4.16-.69-5.58-2.07ZM205.33,145c1.76-.55,2.81-.92,3.15-1.11v-7.93l-6.57.34c-3.29.26-4.93,1.72-4.93,4.36v1.25c0,1.36.39,2.34,1.16,2.95.77.6,1.77.93,2.97.96,1.06,0,2.46-.27,4.22-.82Z"/>
        <path class="cls-1" d="M223.83,147.33c-2.17-2.29-3.26-6.28-3.26-11.99,0-4.04.49-7.21,1.47-9.49.98-2.28,2.39-3.89,4.22-4.82,1.83-.93,4.17-1.39,7-1.39,3.63,0,7.08.4,10.37,1.19v4.02h-8.27c-1.89,0-3.39.29-4.5.88-1.11.59-1.95,1.63-2.49,3.14-.55,1.51-.82,3.67-.82,6.46s.27,4.87.82,6.32c.55,1.45,1.38,2.45,2.49,2.98,1.11.53,2.63.79,4.56.79h8.67v3.97c-1.47.38-3.2.7-5.18.96-1.98.26-3.92.4-5.81.4-4,0-7.09-1.14-9.27-3.43Z"/>
        <path class="cls-1" d="M249.25,107.23h7.03v15.98c1.32-1.02,2.91-1.89,4.76-2.61,1.85-.72,3.66-1.08,5.44-1.08,3.21,0,5.57.95,7.08,2.86,1.51,1.91,2.27,4.49,2.27,7.74v20.29h-7.03v-19.44c0-1.59-.46-2.83-1.39-3.74-.93-.91-2.14-1.36-3.66-1.36-1.36,0-2.62.21-3.8.62-1.17.42-2.4,1.04-3.68,1.87v22.05h-7.03v-43.19Z"/>
      </g>
    </g>
  </g>
</svg>