<svg width="262" height="113" viewBox="0 0 262 113" fill="none" xmlns="http://www.w3.org/2000/svg">
<g clip-path="url(#clip0_448_61674)">
<rect width="261.838" height="112.216" fill=""/>
<path d="M1.71875 74.0689L6.64416 42.871L31.555 26.9917L49.9916 30.6454L65.8957 75.7547L51.1171 90.7911L1.71875 74.0689Z" fill="url(#paint0_radial_448_61674)"/>
<path d="M99.253 75.6473C87.9628 75.6473 81.377 66.9583 81.377 55.0041C81.377 43.1052 88.2396 34.4163 100.304 34.4163C110.875 34.4163 116.686 40.4487 117.793 48.0308H108.993C108.163 44.4888 105.784 41.4449 100.138 41.4449C92.8331 41.4449 90.1213 47.588 90.1213 55.0041C90.1213 62.4755 92.501 68.6186 100.304 68.6186C105.562 68.6186 109.547 65.1873 109.602 60.3171H100.581V53.8972H118.402V74.8171H112.369L111.152 69.6148H111.041C108.827 73.3782 105.119 75.6473 99.253 75.6473Z" fill="#0A0A0A"/>
<path d="M141.461 63.395V46.6812H149.043V74.9618H141.461V71.0878H141.35C139.856 73.5229 137.033 75.792 132.052 75.792C126.684 75.792 122.81 72.416 122.81 65.9408V46.6812H130.392V63.6164C130.392 67.7118 131.942 69.5935 135.318 69.5935C139.136 69.5935 141.461 67.4351 141.461 63.395Z" fill="#0A0A0A"/>
<path d="M187.049 75.8473C177.917 75.8473 172.328 69.7595 172.328 60.8492C172.328 51.9942 177.917 45.7404 187.16 45.7404C196.291 45.7404 201.881 51.8282 201.881 60.7385C201.881 69.6488 196.291 75.8473 187.049 75.8473ZM187.104 70.0363C191.753 70.0363 194.133 66.4389 194.133 60.7939C194.133 55.1488 191.753 51.6068 187.104 51.6068C182.456 51.6068 180.076 55.1488 180.076 60.7939C180.076 66.4389 182.456 70.0363 187.104 70.0363Z" fill="#0A0A0A"/>
<path d="M221.413 45.9457C228.774 45.9457 233.865 51.6461 233.865 60.9439C233.865 70.2416 228.774 75.942 221.413 75.942C217.151 75.942 214.274 73.8389 213.001 72.0679H212.89V75.1118H205.308V35.5411H212.89V49.8198H213.001C214.274 48.1595 217.151 45.9457 221.413 45.9457ZM219.531 70.1309C223.737 70.1309 226.006 66.4782 226.006 60.9439C226.006 55.4095 223.737 51.8122 219.531 51.8122C215.436 51.8122 213.001 55.1328 213.001 60.9439C213.001 66.8103 215.436 70.1309 219.531 70.1309Z" fill="#0A0A0A"/>
<path d="M245.255 42.9657H237.396V35.5411H245.255V42.9657ZM245.089 75.231H237.507V47.3881H245.089V75.231Z" fill="#0A0A0A"/>
<path d="M160.693 46.336H170.64L170.685 53.4142H160.892L160.847 74.8181H153.325L153.325 53.6245L160.693 46.336Z" fill="#0A0A0A"/>
<path d="M259.839 42.0615C259.082 42.8084 258.151 43.1818 257.044 43.1818C255.937 43.1818 255.005 42.8084 254.249 42.0615C253.493 41.3146 253.114 40.3783 253.114 39.2525C253.114 38.1267 253.493 37.1904 254.249 36.4435C255.005 35.6966 255.937 35.3231 257.044 35.3231C258.151 35.3231 259.082 35.6966 259.839 36.4435C260.595 37.1904 260.973 38.1267 260.973 39.2525C260.973 40.3783 260.595 41.3146 259.839 42.0615ZM257.044 42.5811C257.975 42.5811 258.743 42.2672 259.345 41.6393C259.948 41.0115 260.25 40.2159 260.25 39.2525C260.25 38.2999 259.948 37.5097 259.345 36.8819C258.743 36.254 257.975 35.9401 257.044 35.9401C256.123 35.9401 255.356 36.254 254.742 36.8819C254.139 37.5097 253.838 38.2999 253.838 39.2525C253.838 40.2051 254.139 41.0007 254.742 41.6393C255.356 42.2672 256.123 42.5811 257.044 42.5811ZM255.367 41.2984V37.1417H257.405C257.833 37.1417 258.189 37.2499 258.474 37.4664C258.77 37.6829 258.918 37.9806 258.918 38.3594C258.918 38.8574 258.677 39.1875 258.195 39.3499V39.3824C258.523 39.4798 258.732 39.7288 258.819 40.1293C258.841 40.2592 258.858 40.4216 258.869 40.6164C258.88 40.8004 258.896 40.9411 258.918 41.0386C258.94 41.136 258.973 41.1955 259.017 41.2172V41.2984H257.899C257.855 41.2767 257.795 40.9574 257.718 40.3404C257.685 39.9723 257.466 39.7883 257.06 39.7883H256.501V41.2984H255.367ZM256.501 38.0347V38.9765H257.208C257.603 38.9765 257.8 38.8195 257.8 38.5056C257.8 38.1917 257.603 38.0347 257.208 38.0347H256.501Z" fill="#0A0A0A"/>
</g>
<defs>
<radialGradient id="paint0_radial_448_61674" cx="0" cy="0" r="1" gradientUnits="userSpaceOnUse" gradientTransform="translate(0.0806668 14.892) rotate(47.5638) scale(110.869 77.1829)">
<stop offset="0.0384616" stop-color="#CAEBEC"/>
<stop offset="0.298077" stop-color="#10ECD1"/>
<stop offset="0.677885" stop-color="#2158A4"/>
<stop offset="0.975962" stop-color="#1F063D"/>
</radialGradient>
<clipPath id="clip0_448_61674">
<rect width="261.838" height="112.216" fill="white"/>
</clipPath>
</defs>
</svg>
