<?xml version="1.0" encoding="UTF-8"?>
<svg id="uuid-43449d72-22ee-43f5-a305-ae2df82d3abe" data-name="Ebene 1" xmlns="http://www.w3.org/2000/svg" viewBox="0 0 630.81 168.43">
  <g>
    <path d="M236.93,151.46c7.38-.18,13.21-6.31,13.03-13.68,0-.1,0-.19-.01-.29.37-7.2-5.17-13.34-12.37-13.71-7.2-.37-13.34,5.17-13.71,12.37-.02.44-.02.89,0,1.33-.23,7.45,5.6,13.7,13.06,13.97M236.93,119.45c9.85-.17,17.97,7.68,18.14,17.53,0,.17,0,.34,0,.51.43,10.03-7.35,18.51-17.38,18.95-10.03.43-18.51-7.35-18.95-17.38-.02-.52-.02-1.05,0-1.57-.09-9.87,7.83-17.95,17.7-18.04.16,0,.32,0,.48,0" style="fill: #22222c;"/>
    <path d="M279.42,138.13c3.51.23,6.55-2.43,6.78-5.94.02-.28.02-.56,0-.84.31-3.43-2.21-6.47-5.65-6.78-.38-.04-.76-.04-1.14,0h-7.16v13.57h7.16ZM267.31,120.16h12.92c5.82-.33,10.79,4.12,11.12,9.94.02.37.02.74,0,1.11.3,5.89-4.22,10.92-10.12,11.22-.33.02-.67.02-1.01,0h-7.97v12.99h-4.95v-35.27Z" style="fill: #22222c;"/>
  </g>
  <polygon points="310.32 124.36 298.21 124.36 298.21 120.16 327.27 120.16 327.27 124.47 315.17 124.47 315.17 155.43 310.32 155.43 310.32 124.36" style="fill: #22222c;"/>
  <rect x="337.45" y="120.16" width="4.95" height="35.27" style="fill: #22222c;"/>
  <path d="M358.78,120.16h5.22l8.11,19.13c.81,1.97,1.76,4.75,1.76,4.75,0,0,.95-2.78,1.76-4.75l8.21-19.13h5.22l2.85,35.37h-4.92l-1.76-22.32v-5.19s-1.05,3.39-1.9,5.19l-7.05,15.94h-4.41l-7.29-16.04c-.81-1.9-1.9-5.29-1.9-5.29v5.29l-1.73,22.32h-4.95l2.78-35.27Z" style="fill: #22222c;"/>
  <rect x="405.45" y="120.16" width="4.95" height="35.27" style="fill: #22222c;"/>
  <g>
    <path d="M422.23,152.11l16.96-24.55c.75-1.2,1.6-2.34,2.54-3.39-.88.13-1.76.18-2.65.17h-16.04v-4.17h24.86v3.39l-16.96,24.59c-.76,1.14-1.61,2.22-2.54,3.22h19.81v4.07h-25.98v-3.32Z" style="fill: #22222c;"/>
    <path d="M471.21,124.91s-.81,3.39-1.42,5.02l-3.93,11.23h10.72l-3.9-11.23c-.61-1.8-1.36-5.02-1.36-5.02h-.1ZM477.99,145.26h-13.33l-3.39,10.17h-5.12l12.65-35.27h5.19l12.68,35.27h-5.15l-3.53-10.17Z" style="fill: #22222c;"/>
  </g>
  <polygon points="504.51 124.36 492.37 124.36 492.37 120.16 521.57 120.16 521.57 124.47 509.46 124.47 509.46 155.43 504.51 155.43 504.51 124.36" style="fill: #22222c;"/>
  <rect x="531.68" y="120.16" width="4.95" height="35.27" style="fill: #22222c;"/>
  <g>
    <path d="M567.02,151.46c7.38-.16,13.23-6.27,13.07-13.65,0-.11,0-.21-.01-.32,0-7.21-5.84-13.06-13.05-13.07-7.21,0-13.06,5.84-13.07,13.05v.02c-.23,7.45,5.6,13.7,13.06,13.97M567.02,119.45c9.85-.09,17.91,7.82,18.01,17.67,0,.13,0,.25,0,.38.43,10.03-7.35,18.51-17.38,18.95-10.03.43-18.51-7.35-18.95-17.38-.02-.52-.02-1.05,0-1.57-.1-9.87,7.83-17.95,17.7-18.05.21,0,.41,0,.62,0" style="fill: #22222c;"/>
    <path d="M597.4,120.16h4.92l15.74,22.99c1.29,1.9,2.95,5.12,2.95,5.12,0,0-.37-3.19-.37-5.12v-22.99h5.09v35.27h-4.88l-15.77-22.96c-1.32-1.97-2.95-5.16-2.95-5.16,0,0,.34,3.15.34,5.16v22.96h-4.95l-.1-35.27Z" style="fill: #22222c;"/>
    <path d="M250.05,13.57c9.41-.38,18.63,2.68,25.94,8.61l-5.05,7.46c-5.77-4.42-12.84-6.81-20.11-6.78-16.75,0-26.86,12.21-26.86,27.47,0,16.55,11.33,27.98,26.28,27.98,7.65-.24,14.9-3.48,20.18-9.02v-10.17h-11.6v-8.85h20.69v35.98h-8.78v-7.6h-.1c-5.85,5.71-13.74,8.84-21.91,8.68-19.2,0-35.07-15.16-35.07-36.97-.47-19.85,15.24-36.32,35.09-36.79.43,0,.87-.01,1.3,0" style="fill: #22222c;"/>
    <path d="M302.25,14.79h10v46.09c0,10.89,7.05,17.26,17.97,17.26s18.18-6.38,18.18-17.47V14.79h10.17v46.09c0,15.84-11.4,26.45-28.08,26.45s-28.08-10.62-28.08-26.45l-.17-46.09Z" style="fill: #22222c;"/>
    <path d="M409.21,48.94c6.54.46,12.21-4.47,12.67-11.01.04-.64.04-1.27-.02-1.91.29-4.38-1.9-8.56-5.66-10.82-3.07-1.38-6.45-1.94-9.8-1.63h-11.53v25.37h14.35ZM384.93,14.79h21.84c4.51-.3,9.03.25,13.33,1.63,7.72,3.2,12.54,10.96,12.01,19.3.39,8.54-4.8,16.35-12.82,19.3v.2c.81,1.01,1.52,2.08,2.14,3.22l15.09,27.81h-11.33l-15.06-28.39h-15.26v28.39h-10.17l.24-71.46Z" style="fill: #22222c;"/>
    <path d="M489.52,78c14.55,0,26.25-12.11,26.25-28.18,0-14.53-11.78-26.32-26.32-26.32s-26.32,11.78-26.32,26.32c0,16.08,11.84,28.32,26.39,28.32v-.14ZM489.52,13.57c19.85-.34,36.22,15.48,36.56,35.33,0,.35,0,.71,0,1.06,0,20.23-16.4,36.63-36.63,36.63s-36.63-16.4-36.63-36.63c-.19-19.91,15.79-36.2,35.71-36.39.33,0,.66,0,.99,0" style="fill: #22222c;"/>
    <path d="M574.85,77.43c6.23.52,11.71-4.11,12.23-10.34.05-.59.05-1.18,0-1.76.37-6.4-4.51-11.88-10.91-12.25-.48-.03-.96-.03-1.43,0h-15.94v24.35h16.04ZM573.63,44.8c5.62.2,10.33-4.19,10.53-9.81.01-.34,0-.67-.01-1.01.4-5.42-3.67-10.13-9.09-10.53-.53-.04-1.06-.04-1.59.01h-14.75v21.33h14.92ZM548.7,14.79h24.93c12.04,0,20.72,6.78,20.72,18.18.24,6.4-3.21,12.38-8.89,15.36v.2c7.37,2.45,12.18,9.54,11.73,17.3,0,13.57-10.41,20.35-22.96,20.35h-25.54V14.79Z" style="fill: #22222c;"/>
  </g>
  <rect x="620.8" y="14.79" width="10" height="71.46" style="fill: #22222c;"/>
  <g>
    <polygon points="124.7 9.06 77.97 0 15.92 40.02 98.86 65.83 124.7 9.06" style="fill: #c61814;"/>
    <polygon points="12.27 45.01 8.39 70.15 0 124.64 101.64 159.85 126.39 168.43 98.08 71.72 12.27 45.01" style="fill: #ed3424;"/>
    <polygon points="129.05 13.63 103.57 69.61 132.15 167.25 169.57 129.79 129.05 13.63" style="fill: #c61814;"/>
  </g>
</svg>