<?xml version="1.0" encoding="UTF-8"?>
<svg id="uuid-42f8fc2e-49d0-4407-843b-8c916721bd07" data-name="Calque 1" xmlns="http://www.w3.org/2000/svg" xmlns:xlink="http://www.w3.org/1999/xlink" viewBox="0 0 659.73 237.09">
  <defs>
    <linearGradient id="uuid-8b9a9d79-4e8e-45bb-9ae0-eedbe364c8af" x1="-2.22" y1="211.87" x2="78.75" y2="-10.97" gradientTransform="translate(48.31 37.2) rotate(-19.97)" gradientUnits="userSpaceOnUse">
      <stop offset="0" stop-color="#18527b"/>
      <stop offset=".06" stop-color="#12486d"/>
      <stop offset=".19" stop-color="#0a3857"/>
      <stop offset=".33" stop-color="#042d47"/>
      <stop offset=".49" stop-color="#01273e"/>
      <stop offset=".71" stop-color="#00253c"/>
    </linearGradient>
    <linearGradient id="uuid-f9acb026-7fb4-4a90-b7a9-08946390d62b" x1="118.58" y1="213.84" x2="118.58" y2="20.1" gradientTransform="matrix(1,0,0,1,0,0)" xlink:href="#uuid-8b9a9d79-4e8e-45bb-9ae0-eedbe364c8af"/>
  </defs>
  <path d="M118.59,237.09h0c-49.66,0-94.43-31.37-111.4-78.07-10.81-29.75-9.39-61.94,4-90.62C24.58,39.72,48.35,17.97,78.1,7.16,91.17,2.41,104.78,0,118.57,0c49.66,0,94.43,31.37,111.4,78.07,10.81,29.75,9.39,61.94-4,90.62-13.4,28.69-37.15,50.44-66.91,61.25-13.07,4.75-26.69,7.16-40.47,7.16ZM118.57,11.16c-12.48,0-24.81,2.18-36.66,6.49-26.95,9.79-48.48,29.5-60.61,55.48-12.13,25.99-13.42,55.14-3.63,82.09,15.37,42.3,55.93,70.72,100.91,70.72h0c12.48,0,24.81-2.18,36.66-6.49,26.95-9.8,48.48-29.5,60.61-55.48,12.13-25.98,13.42-55.14,3.62-82.09-15.37-42.3-55.93-70.72-100.91-70.72Z" style="fill: url(#uuid-8b9a9d79-4e8e-45bb-9ae0-eedbe364c8af);"/>
  <path d="M211.08,84.93C192.52,33.84,136.05,7.48,84.96,26.04,33.88,44.61,7.51,101.07,26.08,152.16c9.56,26.31,29.19,46.07,52.95,56.5-13.53-20.25-8.6-49.81-8.6-49.81.6,4.41,1.66,8.83,3.25,13.18,11.86,32.64,47.7,49.62,80.4,38.31,4.1-1.58,8.03-3.4,11.78-5.46,11.67-6.37,21.64-14.89,29.6-24.87,20.68-25.91,27.77-61.64,15.62-95.08ZM141.57,48.68l7.54,23.68-21.85,15.42-8.43-18.98,22.74-20.12ZM116.25,71.08l8.5,18.48-16.88,11.91-8.72-15.25,17.11-15.14ZM97.33,87.82l8.73,14.92-15.32,10.81-8.61-12.28,15.2-13.46ZM94.72,126.29l-1.55,13.29-15.08-18.37,2.43-14.58,14.19,19.67ZM79.95,39.01c.48-.17,1.01.07,1.18.55.17.48-.07,1-.55,1.18-.48.17-1.01-.07-1.18-.55-.17-.48.07-1.01.55-1.18ZM76.41,84.94c.33,0,.6.27.6.6s-.27.6-.6.6-.6-.27-.6-.6.27-.6.6-.6ZM79.31,106.57l-2.4,14.47-15.8,11.4.89-4.05c3.15-.73,5.98-1.97,8.06-3.55,2.5-1.91,3.66-4.11,3.27-6.2-.31-1.66-1.58-3.02-3.52-3.93l9.5-8.14ZM58.27,114.72c7.15-1.34,13.49.49,14.16,4.08.67,3.6-4.58,7.6-11.73,8.93-7.15,1.34-13.49-.49-14.16-4.09-.67-3.6,4.58-7.59,11.73-8.93ZM61.02,128.6l-.27,1.22-.95-1.01c.36-.05.71-.11,1.07-.18.05-.01.1-.02.15-.03ZM51.34,128.52c1.41.37,3.01.56,4.78.56h0c.48,0,.96-.02,1.44-.05l2.74,2.86-.37,1.71.98,1.01-8.62,6.09-7.12-6.71,6.18-5.47ZM37.19,141.04l7.26-6.42,7.07,6.62-7.76,5.48-6.57-5.67ZM49.09,161.33c-.55.2-1.16-.08-1.36-.64-.2-.55.08-1.16.63-1.36.55-.2,1.16.08,1.36.64.2.55-.08,1.16-.64,1.36ZM51.46,153.37l-6.57-5.67,7.84-5.32,6.98,6.53-8.26,4.47ZM60.52,148.47l-7.01-6.61,8.69-5.9,7.34,7.63-9.02,4.88ZM61.34,133.76l16.02-11.56,15.16,18.48-16.95,7.87-14.23-14.79ZM92.23,162.7c-4.48,2.24-10.33-.36-13.04-5.81-1.44-2.87-1.69-5.96-.97-8.57l11.41-5.3c2.34,1.06,4.47,3.06,5.82,5.77,2.72,5.45,1.28,11.68-3.21,13.92ZM100.17,127.02l-7.99-11.41,15.33-10.4,7.93,13.55-15.26,8.25ZM117.21,117.81l-7.91-13.81,16.83-11.42,7.51,16.34-16.43,8.89ZM140.55,196.82c-1.17.42-2.46-.18-2.89-1.35-.43-1.17.18-2.47,1.35-2.89,1.17-.43,2.47.18,2.89,1.35.43,1.17-.18,2.47-1.35,2.89ZM136.07,107.61l-7.43-16.73,21.68-14.71,6.45,20.25-20.7,11.19ZM158.01,114.99c-.59.21-1.24-.09-1.45-.68-.21-.59.09-1.24.68-1.45.59-.21,1.24.09,1.45.68.21.59-.09,1.24-.68,1.45ZM160.12,182.75c-.62.22-1.31-.09-1.53-.72-.22-.62.1-1.3.71-1.53.62-.23,1.31.09,1.53.72.23.62-.09,1.3-.71,1.53ZM171.44,50.01c-.71.26-1.49-.11-1.75-.82-.26-.71.11-1.49.81-1.74.71-.25,1.49.11,1.75.82.26.71-.11,1.49-.81,1.74ZM202.49,111.82c-1.21.44-2.54-.18-2.98-1.39-.44-1.21.19-2.54,1.39-2.98,1.21-.44,2.55.18,2.99,1.39.44,1.21-.18,2.55-1.39,2.98Z" style="fill: url(#uuid-f9acb026-7fb4-4a90-b7a9-08946390d62b);"/>
  <g>
    <path d="M269.83,83.5c0-4.2,3.5-7.58,7.58-7.58s7.58,3.38,7.58,7.58-3.39,7.58-7.58,7.58-7.58-3.38-7.58-7.58ZM271.35,154.28v-56.32h12.24v56.32h-12.24Z" style="fill: #00253c;"/>
    <path d="M602.75,83.5c0-4.2,3.5-7.58,7.58-7.58s7.58,3.38,7.58,7.58-3.38,7.58-7.58,7.58-7.58-3.38-7.58-7.58ZM604.27,154.28v-56.32h12.24v56.32h-12.24Z" style="fill: #00253c;"/>
    <path d="M328.32,96.56c-8.86,0-16.09,4.66-19.82,9.09l-2.45-7.7h-9.79v56.32h12.24v-39.29c2.8-3.85,8.16-7.58,14.46-7.58,6.88,0,11.31,2.91,11.31,11.66v35.21h12.24v-39.65c0-11.54-6.06-18.07-18.19-18.07Z" style="fill: #00253c;"/>
    <path d="M391.24,96.56c-8.86,0-16.09,4.66-19.82,9.09l-2.45-7.7h-9.79v56.32h12.24v-39.29c2.8-3.85,8.16-7.58,14.46-7.58,6.88,0,11.31,2.91,11.31,11.66v35.21h12.24v-39.64c0-11.54-6.06-18.07-18.19-18.07Z" style="fill: #00253c;"/>
    <path d="M507.1,85.37c2.1,0,3.73.47,4.9,1.28l2.68-9.09c-2.45-1.4-5.95-2.22-9.8-2.22-10.38,0-17.84,6.88-17.84,19.47v3.15l-9.33,2.82v7.91h9.33v45.59h12.24v-45.59h11.43v-10.73h-11.43v-3.15c0-6.3,3.03-9.44,7.81-9.44Z" style="fill: #00253c;"/>
    <path d="M659.73,96.61c-8.17.49-14.79,4.87-18.3,9.05l-2.46-7.7h-9.79v56.32h12.25v-39.29c2.8-3.85,8.16-7.58,14.46-7.58,1.39,0,2.67.12,3.85.39v-11.18Z" style="fill: #00253c;"/>
    <path d="M568.16,96.56c-7.16,0-13.8,1.86-19.51,5.75l5.52,8.15c3.66-2.28,7.63-3.41,12-3.41,7.81,0,13.18,3.96,13.18,10.49v1.18h-17.26c-.31,0-.62-.02-.93-.02-9.21,0-19.59,5.36-19.59,18.31s10.38,18.66,19.59,18.66c7.46,0,13.99-2.68,18.19-7.46l2.25,6.06h9.99v-37.31c0-15.16-10.96-20.4-23.44-20.4ZM579.48,127.11l-.12,7.53v1.2c0,5.99-2.55,8.17-3.22,8.64-.01,0-.02.02-.04.03-.01,0-.01,0-.02.01-2.82,1.83-6.44,2.77-10.13,2.77-6.88,0-12.01-3.96-12.01-10.03,0-4.99,3.35-8.54,8.27-9.72h0s.03,0,.05-.01c.49-.12,1.01-.2,1.53-.27,2.57-.41,8.14-1.14,15.71-1.14v.99Z" style="fill: #00253c;"/>
    <rect x="520.05" y="77.56" width="12.24" height="76.72" style="fill: #00253c;"/>
    <path d="M445.34,96.56c-16.49,0-26.73,13.41-26.73,29.5s10.24,29.62,26.73,29.62,26.84-13.41,26.84-29.62-10.13-29.5-26.84-29.5ZM445.39,144.83c-8.03,0-14.54-8.38-14.54-18.71s6.51-18.71,14.54-18.71,14.54,8.38,14.54,18.71-6.51,18.71-14.54,18.71Z" style="fill: #00253c;"/>
  </g>
</svg>