<?xml version="1.0" encoding="UTF-8"?><svg xmlns="http://www.w3.org/2000/svg" xmlns:xlink="http://www.w3.org/1999/xlink" viewBox="0 0 500 346.72"><defs><linearGradient id="d" x1="201.84" y1="48.84" x2="275.1" y2="29.67" gradientUnits="userSpaceOnUse"><stop offset=".31" stop-color="#fff"/><stop offset=".47" stop-color="#c1d9cb"/><stop offset=".83" stop-color="#277c4c"/><stop offset=".9" stop-color="#096a34"/></linearGradient><linearGradient id="e" x1="316.4" y1="141.11" x2="239.67" y2="162.88" gradientUnits="userSpaceOnUse"><stop offset=".38" stop-color="#fff"/><stop offset="1" stop-color="#241f9c"/></linearGradient><linearGradient id="f" x1="205.17" y1="163.12" x2="186.69" y2="90.55" gradientUnits="userSpaceOnUse"><stop offset=".31" stop-color="#fff"/><stop offset=".37" stop-color="#f2f2f9"/><stop offset=".49" stop-color="#d2d1ea"/><stop offset=".65" stop-color="#9e9cd3"/><stop offset=".84" stop-color="#5753b3"/><stop offset=".97" stop-color="#241f9c"/></linearGradient><linearGradient id="g" x1="291.7" y1="21.59" x2="313.6" y2="104.43" gradientUnits="userSpaceOnUse"><stop offset=".43" stop-color="#fff"/><stop offset=".49" stop-color="#f9f9fc"/><stop offset=".57" stop-color="#ebeaf5"/><stop offset=".65" stop-color="#d2d1ea"/><stop offset=".74" stop-color="#b0aedb"/><stop offset=".83" stop-color="#8481c7"/><stop offset=".93" stop-color="#4f4baf"/><stop offset="1" stop-color="#241f9c"/></linearGradient></defs><g style="isolation:isolate;"><g id="b"><g id="c"><path d="m20.11,229.9c-5.87,0-10.3,4.29-10.3,9.65s4.44,9.49,10.3,9.49,10.3-4.29,10.3-9.8c0-5.21-4.44-9.34-10.3-9.34Z" style="fill:#0e155b;"/><path d="m14.39,264.7H2c-1.1,0-2,.9-2,2v9.47c0,1.1.9,2,2,2h10.5v65.26c0,1.31,1.06,2.37,2.37,2.37h10.48c1.31,0,2.37-1.06,2.37-2.37v-78.78h-12.85c-.16,0-.32.02-.47.05Z" style="fill:#0e155b;"/><path d="m96.08,263.89c-13.32,0-24.09,4.75-30.28,13.01v-9.88c0-1.31-1.06-2.37-2.37-2.37h-9.85c-1.31,0-2.37,1.06-2.37,2.37v76.41c0,1.31,1.06,2.37,2.37,2.37h10.48c1.31,0,2.37-1.06,2.37-2.37v-39.43c0-17.61,10.46-26.95,26.63-26.95,14.42,0,22.67,7.81,22.67,23.73v42.65c0,1.31,1.06,2.37,2.37,2.37h10.48c1.31,0,2.37-1.06,2.37-2.37v-44.33c0-23.88-14.42-35.21-34.87-35.21Z" style="fill:#0e155b;"/><path d="m188.75,263.89c-25.2,0-43.75,17.15-43.75,41.34s18.55,41.49,43.75,41.49,43.59-17.3,43.59-41.49-18.39-41.34-43.59-41.34Zm0,69.97c-16.17,0-28.37-11.33-28.37-28.63s12.21-28.48,28.37-28.48,28.22,11.18,28.22,28.48-12.05,28.63-28.22,28.63Z" style="fill:#0e155b;"/><path d="m321.07,264.66h-11.01c-.92,0-1.76.53-2.15,1.37l-29.65,63.7-29-63.68c-.38-.84-1.23-1.39-2.15-1.39h-11.97c-1.3,0-2.16,1.35-1.61,2.52l35.96,77.25c.39.83,1.23,1.37,2.15,1.37h12.94c.92,0,1.76-.53,2.15-1.37l35.96-77.25c.55-1.18-.31-2.52-1.61-2.52Z" style="fill:#0e155b;"/><path d="m363.26,263.97c-24.35,1.75-40.79,20.28-39.04,44.25,1.77,24.13,21.05,40.09,48.09,38.14,13-.93,23.64-5.72,30.53-13.76.81-.95.76-2.36-.12-3.24l-5.63-5.6c-.94-.94-2.46-.91-3.38.05-5.55,5.85-12.96,9.05-21.87,9.69-14.07,1.01-24.97-4.65-30.06-15.49l63.66-16.78c1.17-.31,1.9-1.45,1.74-2.65-3.13-22.8-21.68-36.21-43.92-34.61Zm25.88,31.03l-50.16,12.93-.11-1.53c-1.24-16.95,9.33-28.92,25.3-30.06,12.49-.9,22.42,5.39,26.7,15.26.61,1.4-.24,3.02-1.72,3.4Z" style="fill:#0e155b;"/><path d="m499.52,342.82l-35.77-38.51,33.79-36.68c1.05-1.14.24-2.98-1.31-2.98h-13.44c-1.07,0-2.1.45-2.82,1.25l-25.35,27.99-25.53-28c-.72-.79-1.74-1.24-2.81-1.24h-13.83c-1.54,0-2.35,1.83-1.31,2.97l33.62,36.68-35.43,38.52c-1.05,1.14-.24,2.98,1.31,2.98h13.82c1.07,0,2.09-.45,2.81-1.24l27.18-29.84,26.81,29.82c.72.8,1.75,1.26,2.83,1.26h14.14c1.55,0,2.36-1.85,1.3-2.98Z" style="fill:#0e155b;"/><path d="m154.05,93c-1.47,1.47-2.13,3.43-2.04,5.36l67.35-18.05h0l48.33-12.95-7.92-29.54L249.64,0c-1.69.09-3.35.75-4.64,2.04l-90.95,90.95Z" style="fill:#80f879;"/><path d="m154.05,93c-1.47,1.47-2.13,3.43-2.04,5.36l67.35-18.05h0l48.33-12.95-7.92-29.54L249.64,0c-1.69.09-3.35.75-4.64,2.04l-90.95,90.95Z" style="fill:url(#d); mix-blend-mode:multiply; opacity:.32;"/><path d="m280.64,115.69l-48.33,12.95,18.05,67.35c1.69-.09,3.35-.75,4.64-2.04l90.95-90.95c1.47-1.47,2.13-3.43,2.04-5.36l-67.35,18.05h0Z" style="fill:#424bff;"/><path d="m280.64,115.69l-48.33,12.95,18.05,67.35c1.69-.09,3.35-.75,4.64-2.04l90.95-90.95c1.47-1.47,2.13-3.43,2.04-5.36l-67.35,18.05h0Z" style="fill:url(#e); mix-blend-mode:multiply; opacity:.3;"/><path d="m152.01,98.36c.09,1.69.75,3.35,2.04,4.64l90.95,90.95c1.47,1.47,3.43,2.13,5.36,2.04l-31-115.68-67.35,18.05Z" style="fill:#28a3a3;"/><path d="m152.01,98.36c.09,1.69.75,3.35,2.04,4.64l90.95,90.95c1.47,1.47,3.43,2.13,5.36,2.04l-31-115.68-67.35,18.05Z" style="fill:url(#f); mix-blend-mode:multiply; opacity:.13;"/><path d="m267.69,67.36h0l12.95,48.33,67.35-18.05c-.09-1.69-.75-3.35-2.04-4.64L255,2.05c-1.47-1.47-3.43-2.13-5.36-2.04l10.13,37.81,7.92,29.54Z" style="fill:#31acea;"/><path d="m267.69,67.36h0l12.95,48.33,67.35-18.05c-.09-1.69-.75-3.35-2.04-4.64L255,2.05c-1.47-1.47-3.43-2.13-5.36-2.04l10.13,37.81,7.92,29.54Z" style="fill:url(#g); mix-blend-mode:multiply; opacity:.25;"/></g></g></g></svg>