<?xml version="1.0" encoding="UTF-8"?><svg id="Ebene_1" xmlns="http://www.w3.org/2000/svg" viewBox="0 0 99.21 27.23"><defs><style>.cls-1{fill:#c31924;}</style></defs><path class="cls-1" d="M16.17,3.1c0-1.38,1.12-2.5,2.5-2.5s2.5,1.12,2.5,2.5-1.12,2.5-2.5,2.5-2.5-1.12-2.5-2.5"/><path class="cls-1" d="M27.05,3.1c0-1.71,1.39-3.1,3.1-3.1s3.1,1.39,3.1,3.1-1.39,3.1-3.1,3.1-3.1-1.39-3.1-3.1"/><path class="cls-1" d="M7.17,3.1c0-1.08.88-1.96,1.96-1.96s1.96.88,1.96,1.96-.88,1.96-1.96,1.96-1.96-.88-1.96-1.96"/><path class="cls-1" d="M0,3.1c0-.81.66-1.47,1.47-1.47s1.47.66,1.47,1.47-.66,1.47-1.47,1.47-1.47-.66-1.47-1.47"/><path d="M28.46,12.66c0-1.08.63-1.41,1.41-1.41h.81c.78,0,1.41.33,1.41,1.41v12.79c0,1.08-.63,1.41-1.41,1.41h-.81c-.78,0-1.41-.33-1.41-1.41v-12.79Z"/><path d="M37.24,14.07h-.9c-.75,0-1.38-.33-1.38-1.08v-.66c0-.75.63-1.08,1.38-1.08h.9v-3.79c0-1.08.63-1.41,1.41-1.41h.84c.78,0,1.41.33,1.41,1.41v3.79h1.83c.75,0,1.38.33,1.38,1.08v.66c0,.75-.63,1.08-1.38,1.08h-1.83v8.2c0,1.26.45,1.8,1.53,1.8.3,0,.6-.03.99-.03.42,0,.69.12.69.81v1.14c0,.75-.51.93-1.26,1.02-.48.06-.99.09-1.5.09-2.97,0-4.11-1.08-4.11-4.56v-8.47Z"/><path d="M56.34,17.32c0-2.22-1.17-3.66-3.12-3.66s-3,1.56-3.3,3.66h6.43ZM46.28,18.97c0-4.96,2.82-8.08,6.91-8.08,4.44,0,6.67,3.06,6.67,7.87,0,.54-.33.99-.96.99h-9.04c.15,2.79,1.08,4.57,3.51,4.57,1.2,0,2.13-.39,2.88-1.26.54-.63.96-1.08,1.71-.69l.66.33c1.14.57.84,1.2.39,1.77-1.56,2.07-3.64,2.76-5.92,2.76-4.54,0-6.82-3.42-6.82-8.26"/><path d="M63.07,12.69c0-1.08.63-1.41,1.41-1.41h.54c.78,0,1.41.33,1.41,1.41v.48c1.41-1.41,3.12-2.28,4.72-2.28,1.95,0,3.12.72,3.78,2.4,1.68-1.59,3.15-2.4,5.05-2.4,2.67,0,4.2,1.44,4.2,4.9v9.67c0,1.08-.63,1.41-1.41,1.41h-.81c-.78,0-1.41-.33-1.41-1.41v-9.19c0-1.74-.93-2.25-1.95-2.25s-2.04.51-3.12,1.65v9.79c0,1.08-.63,1.41-1.41,1.41h-.84c-.78,0-1.41-.33-1.41-1.41v-8.92c0-1.56-.51-2.52-1.86-2.52-.99,0-2.07.54-3.24,1.77v9.67c0,1.08-.63,1.41-1.41,1.41h-.81c-.78,0-1.41-.33-1.41-1.41v-12.77Z"/><path d="M87.91,23.33l.54-.36c.9-.6,1.29-.18,1.86.39.75.78,1.56,1.14,2.82,1.14,1.62,0,2.52-.72,2.52-1.86,0-3.34-8.26-1.11-8.26-7.12,0-2.76,2.31-4.62,5.59-4.62,2.1,0,3.69.51,4.87,1.8.51.54.81,1.2-.06,1.71l-.72.42c-.81.48-.9.27-1.83-.48-.66-.54-1.38-.72-2.25-.72-1.32,0-2.1.63-2.1,1.68,0,3,8.32.99,8.32,7.06,0,3.12-2.46,4.87-6.1,4.87-2.43,0-4.02-.63-5.38-2.07-.51-.54-.63-1.29.18-1.83"/></svg>