<?xml version="1.0" encoding="UTF-8"?>
<svg id="uuid-9ec26102-774c-4c91-933f-a7167853b07d" data-name="Layer 1" xmlns="http://www.w3.org/2000/svg" xmlns:xlink="http://www.w3.org/1999/xlink" viewBox="0 0 397.68 85.51">
  <defs>
    <linearGradient id="uuid-27115fd2-8115-4dc7-b1ae-a0406e935b98" x1="-111.42" y1="1185.79" x2="-50.3" y2="1246.06" gradientTransform="translate(123.44 1258.84) scale(1 -1)" gradientUnits="userSpaceOnUse">
      <stop offset="0" stop-color="#ef7d00"/>
      <stop offset=".48" stop-color="#e50051"/>
      <stop offset="1" stop-color="#da007e"/>
    </linearGradient>
  </defs>
  <path d="M27.17,4.89L4.89,27.17c-3.13,3.13-4.89,7.37-4.89,11.81v39.84c0,3.69,2.99,6.68,6.68,6.68h39.84c4.44,0,8.67-1.76,11.81-4.89l22.28-22.28c3.13-3.13,4.89-7.37,4.89-11.81V6.68c0-3.69-2.99-6.68-6.68-6.68h-39.84c-4.44,0-8.67,1.76-11.81,4.89Z" style="fill: url(#uuid-27115fd2-8115-4dc7-b1ae-a0406e935b98);"/>
  <path d="M64.13,21.38H10.69v53.44h53.44V21.38Z" style="fill: #020a0a;"/>
  <path d="M40.08,62.79h-22.71v5.34h22.71v-5.34Z" style="fill: #fff;"/>
  <path d="M115.53,54.22c0,1.13-.24,2.13-.72,3.01-.48.88-1.14,1.56-2.02,2.04-.88.48-1.86.72-2.99.72h-5.59v8.16h6.79c2.55,0,4.84-.57,6.88-1.72,2.04-1.14,3.63-2.73,4.79-4.74,1.16-2.01,1.74-4.27,1.74-6.8v-26.81h-8.86v26.14h-.01ZM139.39,51.79h18.56v-7.49h-18.56v-8.5h20.51v-7.72h-29.15v40.05h29.72v-7.72h-21.09v-8.61h0ZM163.25,36.02h11.87v32.09h8.86v-32.09h11.81v-7.94h-32.56v7.96h.01ZM226.09,48.05c-.69-.37-1.45-.65-2.24-.86.6-.17,1.17-.39,1.7-.65,1.46-.76,2.62-1.82,3.45-3.19.83-1.37,1.25-2.94,1.25-4.72,0-2.04-.56-3.86-1.66-5.47-1.1-1.6-2.66-2.85-4.66-3.75-2-.89-4.28-1.34-6.84-1.34h-17.79v40.05h18.13c2.69,0,5.08-.47,7.2-1.41,2.1-.94,3.74-2.25,4.91-3.94,1.16-1.68,1.74-3.59,1.74-5.75,0-1.98-.45-3.75-1.37-5.32-.92-1.57-2.18-2.78-3.82-3.65h-.01ZM207.9,34.8h7.86c1.09,0,2.05.2,2.89.59.84.39,1.49.94,1.96,1.68.46.72.7,1.57.7,2.54s-.24,1.89-.7,2.65c-.47.76-1.12,1.33-1.96,1.74-.84.41-1.8.61-2.89.61h-7.86v-9.82h0ZM221.45,59.03c-.5.76-1.22,1.34-2.14,1.76-.93.41-1.98.61-3.19.61h-8.21v-10.27h8.21c1.18,0,2.24.23,3.17.67.92.44,1.65,1.05,2.15,1.85.5.8.77,1.7.77,2.73s-.25,1.9-.76,2.66ZM261,51.93c2.22-1.06,3.94-2.57,5.16-4.5,1.22-1.93,1.84-4.16,1.84-6.72s-.6-4.71-1.8-6.63c-1.2-1.92-2.9-3.39-5.1-4.44-2.2-1.05-4.74-1.57-7.64-1.57h-17.54v40.05h8.87v-14.58h5.77l8.13,14.58h10.12l-9.15-15.66c.45-.16.9-.33,1.33-.53h-.01ZM258.13,43.75c-.49.84-1.2,1.49-2.11,1.93-.92.45-2,.68-3.23.68h-7.98v-11.08h7.98c1.24,0,2.31.23,3.23.67.92.44,1.62,1.09,2.11,1.92.49.82.75,1.81.75,2.93s-.25,2.1-.75,2.94v.03ZM285.63,28.08l-14.3,40.05h9.01l2.83-8.83h14.85l3.03,8.83h8.83l-14.63-40.05h-9.62ZM285.18,52.59l4.6-14.13.55-2.57.55,2.57,4.92,14.13h-10.62ZM312.84,68.13h9.15V28.08h-9.15v40.05ZM354.26,55.17l-17.22-27.09h-8.63v40.05h8.09v-27.09l17.14,27.09h8.73V28.08h-8.09v27.09h-.01ZM392.75,46.49c-1.57-1.13-3.35-1.88-5.37-2.26l-6.81-1.4c-1.06-.25-1.92-.69-2.54-1.33-.63-.64-.94-1.44-.94-2.38,0-.86.23-1.61.69-2.25.45-.64,1.1-1.13,1.93-1.49.83-.36,1.78-.53,2.87-.53s2.08.19,2.91.56c.84.37,1.49.89,1.96,1.57.47.68.71,1.44.71,2.3h8.87c-.05-2.33-.71-4.39-1.93-6.17-1.22-1.8-2.94-3.19-5.12-4.2-2.18-1.01-4.68-1.52-7.48-1.52s-5.27.52-7.44,1.57c-2.17,1.05-3.87,2.5-5.08,4.36-1.21,1.86-1.82,3.98-1.82,6.36,0,1.93.38,3.67,1.17,5.22.78,1.56,1.89,2.85,3.31,3.87,1.44,1.02,3.09,1.74,4.98,2.14l7.21,1.49c1.18.28,2.12.8,2.81,1.54.69.75,1.02,1.66,1.02,2.78,0,.89-.25,1.7-.76,2.41-.51.71-1.21,1.25-2.12,1.64s-1.97.57-3.19.57-2.38-.21-3.38-.64-1.77-1.04-2.32-1.84c-.56-.78-.82-1.7-.82-2.73h-8.87c.04,2.5.7,4.7,2.02,6.61,1.3,1.9,3.1,3.39,5.39,4.46,2.29,1.06,4.91,1.6,7.86,1.6s5.61-.55,7.9-1.64c2.3-1.09,4.08-2.59,5.37-4.51,1.29-1.92,1.93-4.08,1.93-6.51,0-1.98-.44-3.81-1.3-5.48-.86-1.66-2.09-3.06-3.65-4.19h.03Z" style="fill: #020a0a;"/>
</svg>