<?xml version="1.0" encoding="utf-8"?>
<!-- Generator: Adobe Illustrator 25.2.3, SVG Export Plug-In . SVG Version: 6.00 Build 0)  -->
<svg version="1.1" id="Ebene_1" xmlns="http://www.w3.org/2000/svg" xmlns:xlink="http://www.w3.org/1999/xlink" x="0px" y="0px"
	 viewBox="0 0 815 376" style="enable-background:new 0 0 815 376;" xml:space="preserve">
<style type="text/css">
	.st0{fill:#002744;}
	.st1{fill:#0093D6;}
</style>
<path class="st0" d="M88.4,294.9c0,6.4-1.2,11.8-3.6,16.4c-2.4,4.6-5.6,8.3-9.5,11.1c-4,2.8-8.5,4.9-13.6,6.3s-10.3,2-15.7,2
	c-5.5,0-11-0.6-16.3-1.9c-5.4-1.3-9.5-2.7-12.3-4.2c0.3-2.5,0.8-5.8,1.5-9.8c0.7-4,1.6-7.8,2.8-11.4h3.8C27,309.5,29.8,314,34,317
	c4.2,3,8.9,4.6,14.3,4.6c5.4,0,10-1.4,14-4.1c4-2.8,5.9-7.2,5.9-13.2c0-5.5-1.8-9.5-5.5-12.1c-3.7-2.5-9.3-5-17-7.4
	c-3.3-1-6.4-2.2-9.3-3.6c-3-1.4-5.6-3.2-7.8-5.4c-2.3-2.2-4.1-4.9-5.4-8.1c-1.3-3.2-2-7-2-11.6c0-5.9,1.2-10.9,3.6-14.9
	c2.4-4,5.5-7.3,9.2-9.8c3.7-2.5,7.8-4.2,12.2-5.2c4.4-1,8.5-1.5,12.5-1.5c5.4,0,10.6,0.5,15.7,1.5c5.1,1,9,2.2,11.7,3.6
	c-0.8,2.1-1.8,5.1-2.8,8.9c-1,3.8-1.8,7.4-2.5,10.8h-4c-1-4.7-2.8-8.5-5.5-11.7c-2.7-3.1-7.1-4.7-13.1-4.7c-4.4,0-8.3,1.2-11.9,3.6
	c-3.5,2.4-5.3,6.2-5.3,11.4c0,4.8,1.6,8.4,4.7,10.8c3.1,2.4,7.8,4.5,14,6.4c9.3,2.8,16.5,6.4,21.4,10.7
	C85.9,280.4,88.4,286.7,88.4,294.9z"/>
<path class="st0" d="M203.9,328.4c-2.1-0.1-4.3-0.2-6.5-0.3c-2.2-0.1-4.4-0.1-6.7-0.1c-2.3,0-4.5,0-6.6,0.1c-2.1,0.1-4,0.2-5.7,0.3
	c0.4-5.5,0.6-10.9,0.6-16.1h-0.8c-3.7,5.4-8.4,9.8-14.2,13.1c-5.8,3.4-12.3,5.1-19.5,5.1c-6.8,0-12.4-1-16.7-2.9
	c-4.4-1.9-7.9-4.5-10.5-7.8c-2.6-3.3-4.4-7.2-5.4-11.8c-1-4.5-1.5-9.3-1.5-14.4c0-3.5,0.1-7.7,0.3-12.4c0.2-4.7,0.3-9.6,0.3-14.7
	v-2.5c0-2.3,0-5.1-0.1-8.4c-0.1-3.3-0.1-6.7-0.2-10.2c-0.1-3.5-0.2-6.8-0.3-10c-0.1-3.2-0.3-5.8-0.4-8c1.7,0.1,3.7,0.2,5.9,0.3
	c2.3,0.1,4.6,0.1,7,0.1c2.3,0,4.5,0,6.7-0.1c2.2-0.1,4.2-0.2,6-0.3c-0.1,3.3-0.3,7.1-0.4,11.7c-0.1,4.5-0.3,9.2-0.4,14.1
	c-0.1,4.9-0.2,9.7-0.3,14.5c-0.1,4.8-0.1,9.2-0.1,13.1v6.1c0,3.4,0.2,6.9,0.6,10.4c0.4,3.5,1.3,6.7,2.6,9.5c1.3,2.8,3.3,5.1,5.8,6.9
	c2.5,1.8,5.9,2.6,10,2.6c8.2,0,14.5-2.9,18.9-8.6c4.4-5.7,6.6-13.5,6.6-23.4v-14.2c0-3.1,0-6.5-0.1-10.3c-0.1-3.7-0.1-7.5-0.2-11.3
	c-0.1-3.8-0.2-7.6-0.4-11.2c-0.2-3.7-0.5-7-0.7-10c2,0.1,4.1,0.2,6.4,0.3c2.3,0.1,4.6,0.1,7,0.1c2.3,0,4.5,0,6.8-0.1
	c2.3-0.1,4.4-0.2,6.4-0.3c-0.3,3-0.5,6.5-0.7,10.7c-0.2,4.2-0.4,8.5-0.4,13c-0.1,4.5-0.1,8.9-0.2,13.2c-0.1,4.3-0.1,8-0.1,11.1v9.3
	c0,6.4,0.1,13.4,0.3,21.2C203,313.9,203.4,321.3,203.9,328.4z"/>
<path class="st0" d="M325.8,328.4c-1.7-0.1-3.7-0.2-5.9-0.3c-2.3-0.1-4.5-0.1-6.8-0.1c-2.4,0-4.7,0-7,0.1c-2.3,0.1-4.2,0.2-5.9,0.3
	c0.1-3.2,0.3-7.1,0.5-11.7c0.2-4.5,0.4-9.2,0.4-14.1c0.1-4.9,0.1-9.7,0.2-14.5c0.1-4.8,0.1-9.2,0.1-13.1v-6.1
	c0-3.4-0.2-6.9-0.6-10.4c-0.4-3.5-1.3-6.7-2.8-9.5c-1.4-2.8-3.4-5.1-5.9-6.9c-2.5-1.8-5.9-2.7-10.2-2.7c-8.1,0-14.2,2.8-18.5,8.4
	c-4.3,5.6-6.5,13.4-6.5,23.4v14.4c0,3.3,0,6.7,0.1,10.4c0.1,3.7,0.1,7.4,0.2,11.2c0.1,3.8,0.2,7.6,0.4,11.2c0.2,3.7,0.5,7,0.7,10
	c-2-0.1-4.1-0.2-6.4-0.3c-2.3-0.1-4.5-0.1-6.8-0.1c-2.4,0-4.7,0-7,0.1c-2.3,0.1-4.3,0.2-6.1,0.3c0.3-3,0.5-6.5,0.7-10.7
	c0.2-4.2,0.4-8.5,0.4-13c0.1-4.5,0.1-8.9,0.2-13.1c0.1-4.2,0.1-8,0.1-11.2v-9.3c0-6.4-0.1-13.4-0.3-21.2c-0.2-7.8-0.6-15.2-1.2-22.3
	c2.1,0.1,4.2,0.2,6.4,0.3c2.1,0.1,4.4,0.1,6.8,0.1c2.1,0,4.3,0,6.5-0.1c2.2-0.1,4.1-0.2,5.6-0.3c-0.3,2.4-0.5,4.9-0.6,7.6
	c-0.1,2.7-0.2,5.4-0.2,8.3h0.8c3.7-5.4,8.4-9.7,14.2-13c5.8-3.3,12.3-5,19.5-5c6.8,0,12.4,1,16.9,2.9c4.5,1.9,8,4.5,10.5,7.8
	c2.5,3.3,4.3,7.2,5.4,11.8c1.1,4.5,1.6,9.3,1.6,14.4c0,3.7-0.1,7.8-0.3,12.5s-0.3,9.5-0.3,14.6v2.5c0,2.4,0,5.2,0.1,8.5
	c0.1,3.3,0.1,6.6,0.2,10.1c0.1,3.5,0.2,6.8,0.3,10C325.5,323.6,325.7,326.3,325.8,328.4z"/>
<path class="st0" d="M450,328.4c-1.7-0.1-3.7-0.2-5.9-0.3c-2.3-0.1-4.5-0.1-6.8-0.1c-2.4,0-4.7,0-7,0.1c-2.3,0.1-4.2,0.2-5.9,0.3
	c0.1-3.2,0.3-7.1,0.5-11.7c0.2-4.5,0.4-9.2,0.4-14.1c0.1-4.9,0.1-9.7,0.2-14.5c0.1-4.8,0.1-9.2,0.1-13.1v-6.1
	c0-3.4-0.2-6.9-0.6-10.4c-0.4-3.5-1.3-6.7-2.8-9.5c-1.4-2.8-3.4-5.1-5.9-6.9c-2.5-1.8-5.9-2.7-10.2-2.7c-8.1,0-14.2,2.8-18.5,8.4
	c-4.3,5.6-6.5,13.4-6.5,23.4v14.4c0,3.3,0,6.7,0.1,10.4c0.1,3.7,0.1,7.4,0.2,11.2c0.1,3.8,0.2,7.6,0.4,11.2c0.2,3.7,0.5,7,0.7,10
	c-2-0.1-4.1-0.2-6.4-0.3c-2.3-0.1-4.5-0.1-6.8-0.1c-2.4,0-4.7,0-7,0.1c-2.3,0.1-4.3,0.2-6.1,0.3c0.3-3,0.5-6.5,0.7-10.7
	c0.2-4.2,0.4-8.5,0.4-13c0.1-4.5,0.1-8.9,0.2-13.1c0.1-4.2,0.1-8,0.1-11.2v-9.3c0-6.4-0.1-13.4-0.3-21.2c-0.2-7.8-0.6-15.2-1.2-22.3
	c2.1,0.1,4.2,0.2,6.4,0.3c2.1,0.1,4.4,0.1,6.8,0.1c2.1,0,4.3,0,6.5-0.1c2.2-0.1,4.1-0.2,5.6-0.3c-0.3,2.4-0.5,4.9-0.6,7.6
	c-0.1,2.7-0.2,5.4-0.2,8.3h0.8c3.7-5.4,8.4-9.7,14.2-13c5.8-3.3,12.3-5,19.5-5c6.8,0,12.4,1,16.9,2.9c4.5,1.9,8,4.5,10.5,7.8
	c2.5,3.3,4.3,7.2,5.4,11.8c1.1,4.5,1.6,9.3,1.6,14.4c0,3.7-0.1,7.8-0.3,12.5s-0.3,9.5-0.3,14.6v2.5c0,2.4,0,5.2,0.1,8.5
	c0.1,3.3,0.1,6.6,0.2,10.1c0.1,3.5,0.2,6.8,0.3,10C449.8,323.6,449.9,326.3,450,328.4z"/>
<path class="st0" d="M509,328.4c-1.8-0.1-3.9-0.2-6.1-0.3c-2.2-0.1-4.6-0.1-6.9-0.1c-2.2,0-4.5,0-6.8,0.1c-2.3,0.1-4.4,0.2-6.2,0.3
	c0.3-3,0.5-6.5,0.7-10.7c0.2-4.2,0.4-8.5,0.4-12.9c0.1-4.5,0.1-8.8,0.2-13.1c0.1-4.3,0.1-8.1,0.1-11.3v-9.3c0-3.1,0-6.6-0.1-10.4
	c-0.1-3.8-0.1-7.7-0.2-11.6c-0.1-3.9-0.2-7.7-0.4-11.4c-0.2-3.7-0.5-7.1-0.7-10.1c1.8,0.1,3.9,0.2,6.2,0.3c2.3,0.1,4.6,0.1,6.8,0.1
	c2.4,0,4.7,0,6.9-0.1c2.2-0.1,4.3-0.2,6.1-0.3c-0.3,3.1-0.5,6.5-0.7,10.3c-0.2,3.7-0.4,7.5-0.4,11.3c-0.1,3.8-0.1,7.6-0.2,11.4
	c-0.1,3.8-0.1,7.3-0.1,10.4v9.3c0,3.3,0,7,0.1,11.2c0.1,4.2,0.1,8.6,0.2,13c0.1,4.5,0.2,8.8,0.4,13
	C508.5,321.8,508.7,325.4,509,328.4z"/>
<path class="st0" d="M618.9,314.2c-0.4,2.7-0.6,5-0.7,7c-3.3,2.7-7.8,5-13.8,6.9c-5.9,1.9-12.6,2.8-19.9,2.8c-7.2,0-14-1-20.5-3
	c-6.4-2-12.1-5.1-16.9-9.4c-4.8-4.3-8.6-9.9-11.4-16.6c-2.8-6.8-4.2-14.9-4.2-24.4c0-9.3,1.6-17.3,4.8-24
	c3.2-6.6,7.3-12.1,12.5-16.3c5.2-4.2,11.1-7.3,17.7-9.3c6.6-2,13.4-3,20.4-3c7.3,0,14.1,0.9,20.4,2.6c6.2,1.7,10.9,3.7,14,5.8
	c-0.4,1.2-0.9,2.6-1.5,4.3c-0.6,1.7-1.1,3.5-1.7,5.3c-0.6,1.8-1.1,3.7-1.5,5.6c-0.4,1.9-0.8,3.7-1.1,5.4l-4,0.2
	c-1.1-5.5-3.5-10.1-7.2-13.9c-3.7-3.7-8.9-5.6-15.7-5.6c-5.7,0-10.5,1.2-14.4,3.5c-4,2.3-7.2,5.4-9.8,9.4s-4.4,8.5-5.5,13.6
	c-1.1,5.1-1.7,10.5-1.7,16.1c0,5.9,0.6,11.4,1.9,16.6c1.3,5.1,3.3,9.6,6,13.4s6.3,6.8,10.6,8.9c4.3,2.1,9.4,3.2,15.4,3.2
	c5.5,0,10.6-1.1,15.3-3.3c4.7-2.2,8.4-5.4,11.2-9.6l2.8,1.5C619.7,309.4,619.3,311.5,618.9,314.2z"/>
<polygon class="st1" points="18.3,30.3 18.3,75.2 485.1,184.9 485.2,184.9 485.2,184.9 483.8,184.5 19.6,31.3 "/>
<polygon class="st1" points="484.6,188 17.8,88.2 18.1,88 18.2,131 "/>
<polygon class="st1" points="484.5,189.6 19.1,142.8 18.1,142.6 18.1,189.7 484.5,189.7 "/>
<polygon class="st1" points="507.6,190 788.4,211.2 788.4,189.7 508.6,189.7 507.6,189.7 "/>
<polygon class="st1" points="507.4,191.8 507.8,191.8 745.9,218.1 745.9,239.2 507.4,192.1 "/>
<polygon class="st1" points="507.5,187.8 702.9,163.4 702.9,148.1 700.8,148.6 508.2,187.4 507.5,187.5 "/>
</svg>
