<?xml version="1.0" encoding="UTF-8" standalone="no"?>
<!DOCTYPE svg PUBLIC "-//W3C//DTD SVG 1.1//EN" "http://www.w3.org/Graphics/SVG/1.1/DTD/svg11.dtd">
<svg width="100%" height="100%" viewBox="0 0 188 52" version="1.1" xmlns="http://www.w3.org/2000/svg" xmlns:xlink="http://www.w3.org/1999/xlink" xml:space="preserve" xmlns:serif="http://www.serif.com/" style="fill-rule:evenodd;clip-rule:evenodd;stroke-linejoin:round;stroke-miterlimit:2;">
    <g transform="matrix(1,0,0,1,-50,-50)">
        <g id="uuid-46e38bc1-62fb-456e-9f87-390b357ecd30">
            <g id="uuid-ee6866b1-9695-4531-90be-ec21bf9be610">
                <path d="M191.36,90.38C192.82,90.35 194.09,89.69 195.01,88.78C195.02,88.76 195.66,88.13 196.46,87.33C196.93,86.86 197.55,86.55 198.24,86.46C198.36,86.44 198.69,86.44 198.73,86.44C198.98,86.44 199.22,86.46 199.46,86.49C200.21,86.58 200.93,86.79 201.59,87.1L207.84,89.69C207.84,89.69 209.36,90.39 210.62,90.39L211.54,90.39C211.82,90.39 212.04,90.14 212.04,89.85L212.04,87.55C212.04,85.96 211.11,84.45 209.54,83.8L208.18,83.24C207.04,82.82 205.8,81.99 205.16,81.38C205.16,81.38 203.91,79.89 205.36,78.43L210.91,72.86C211.64,72.09 212.01,71.12 212.03,70.13C212.03,70.13 212.03,69.7 211.92,69.3C211.83,69 211.64,68.74 211.49,68.59C211.13,68.23 210.65,68.05 210.03,68.03L209.15,68.03C207.69,68.06 206.42,68.69 205.5,69.61C205.46,69.65 201.84,73.28 200.88,74.24L195.8,79.35L195.8,71.31C195.8,69.49 194.33,68.03 192.51,68.03L191.09,68.03C190.72,68.03 190.18,68.03 189.93,68.17C189.71,68.29 189.72,68.51 189.72,68.73L189.72,89.9C189.72,90.17 189.94,90.39 190.21,90.39L191.36,90.39L191.36,90.38Z" style="fill:rgb(232,48,138);fill-rule:nonzero;"/>
                <path d="M164.98,87.64C164.98,87.64 163.8,87.31 161.48,85.48C160.28,84.53 159.39,83.83 159.01,83.53C159.44,83.26 160.85,82.69 162.13,81.23C162.92,80.32 163.35,79.18 163.35,77.75C163.35,76.41 162.96,75.15 162.19,73.96C161.42,72.78 160.42,71.75 159.18,70.87C157.95,69.99 156.57,69.3 155.04,68.79C153.51,68.28 152.02,68.03 150.53,68.03L141.51,68.03C141.24,68.03 141.02,68.25 141.02,68.52L141.02,89.65C141.02,89.86 141.02,90.09 141.23,90.21C141.51,90.36 142.14,90.38 142.49,90.38C143,90.38 143.55,90.32 144.05,90.17C144.82,89.92 145.48,89.38 145.96,88.74C146.81,87.62 147.03,86.34 147.03,84.97L147.03,75.82C147.03,75.7 147.05,75.41 147.1,75.21C147.16,75.01 147.27,74.81 147.27,74.81C147.96,73.55 150.3,73.05 152.83,73.69C156.2,74.54 157.2,76.87 156.84,77.87C156.46,78.95 155.24,79.63 153.72,79.63C152.99,79.63 152.25,79.5 151.48,79.26C151.45,79.26 150.98,79.12 150.6,78.99C150.42,78.93 150.07,78.77 149.81,78.77C149.55,78.77 149.42,78.97 149.42,79.38L149.42,81.77C149.42,82.59 149.75,83.32 150.24,83.76C150.26,83.78 157.61,89.57 157.61,89.57C158.33,90.09 159.1,90.38 159.93,90.38L164.79,90.38C165.13,90.38 165.3,90.16 165.3,89.75L165.3,88.2C165.3,87.96 165.11,87.71 164.95,87.65L164.98,87.64Z" style="fill:rgb(232,48,138);fill-rule:nonzero;"/>
                <path d="M135.57,84.58L129.09,84.58C128.17,84.58 127.33,84.34 126.51,83.99C125.81,83.69 124.75,82.77 124.43,82.41C123.84,81.76 123.37,81 123.04,80.14C122.71,79.28 122.54,78.4 122.54,77.49C122.54,76.32 122.87,75.42 123.54,74.78C123.62,74.7 123.9,74.47 124.24,74.27C124.57,74.07 124.94,73.98 125.17,73.93C125.56,73.84 125.98,73.79 126.43,73.79C126.88,73.79 127.3,73.84 127.69,73.93C128.42,74.07 129.13,74.36 129.84,74.81C130.85,75.45 131.92,76.42 132.64,77.36L125.9,77.36C125.5,77.36 125.29,77.54 125.29,77.89C125.29,78.59 125.4,79.04 125.67,79.61C125.94,80.18 127.24,82.16 129.9,82.16L136.18,82.16C137.28,82.16 138.04,81.87 138.46,81.29C138.88,80.71 139,80.2 139,79.42C139,78.14 138.66,76.88 137.98,75.52C137.3,74.16 136.38,72.93 135.23,71.82C134.07,70.71 132.73,69.81 131.2,69.11C129.67,68.41 128.06,68.06 126.39,68.06L117.17,68.06C116.9,68.06 116.68,68.28 116.68,68.55L116.68,77.74C116.68,79.46 117.01,81.09 117.68,82.62C118.34,84.15 119.25,85.49 120.39,86.65C121.53,87.8 122.86,88.71 124.38,89.38C125.9,90.05 127.53,90.41 129.26,90.41L138.52,90.41C138.79,90.41 139.01,90.19 139.01,89.93L139.01,88.07C139.01,86.99 138.71,86.14 138.1,85.53C137.49,84.92 136.66,84.61 135.59,84.61L135.57,84.58Z" style="fill:rgb(232,48,138);fill-rule:nonzero;"/>
                <path d="M114.64,71.32C114.64,69.5 113.17,68.03 111.35,68.03L107.87,68.03C107.7,68.03 107.54,68.1 107.42,68.21L100.44,74.76C98.05,77.01 94.84,78.27 91.3,78.27C87.76,78.27 84.28,76.89 81.86,74.48C81.86,74.48 76.73,69.66 76.69,69.62C75.71,68.7 74.35,68.07 72.79,68.04L68.62,68.04C68.26,68.04 67.96,68.33 67.96,68.7L67.96,87.1C67.96,88.92 69.43,90.39 71.25,90.39L73.38,90.39C73.74,90.39 74.04,90.09 74.04,89.73L74.04,83.18C74.04,81.47 75.44,80.06 77.12,80.06C80.25,80.06 82.5,82.74 84.53,84.54C87.02,86.74 88.93,88.85 91.29,88.85C93.65,88.85 95.56,86.73 98.05,84.54C100.08,82.75 102.33,80.06 105.46,80.06C107.14,80.06 108.53,81.46 108.54,83.15L108.54,87.1C108.54,88.92 110.01,90.38 111.83,90.38L113.96,90.38C114.32,90.38 114.62,90.08 114.62,89.72L114.62,71.32L114.64,71.32Z" style="fill:rgb(232,48,138);fill-rule:nonzero;"/>
                <path d="M187.22,81.03L183.84,81.03C182.6,81.03 181.79,81.57 181.42,82.64C181.19,83.34 180.8,83.9 180.27,84.32C179.73,84.74 179.05,84.95 178.21,84.95C177.43,84.95 176.63,84.73 175.83,84.27C175.02,83.82 174.29,83.24 173.64,82.53C172.99,81.82 172.46,81.02 172.06,80.13C171.66,79.24 171.45,78.37 171.45,77.49C171.45,76.39 171.78,75.49 172.44,74.81C173.11,74.13 173.94,73.78 174.95,73.78C176.11,73.78 177.25,74.2 178.37,75.05C178.83,75.4 179.32,75.57 179.84,75.57C180.36,75.57 180.91,75.28 181.48,74.7L183.78,72.43C183.92,72.29 183.97,72.15 183.93,72.04C183.89,71.92 183.79,71.79 183.65,71.65C182.41,70.52 181.05,69.63 179.58,68.99C178.11,68.35 176.56,68.03 174.94,68.03L165.88,68.03C165.53,68.03 165.36,68.24 165.36,68.64L165.36,77.67C165.36,79.41 165.71,81.07 166.42,82.64C167.13,84.21 168.08,85.59 169.28,86.78C170.48,87.97 171.85,88.92 173.4,89.63C174.95,90.34 176.54,90.7 178.19,90.7C179.52,90.7 180.75,90.47 181.87,90.02C183,89.57 183.98,88.95 184.82,88.15C185.66,87.35 186.32,86.39 186.81,85.27C187.3,84.15 187.59,82.94 187.68,81.63C187.71,81.22 187.55,81.02 187.2,81.02L187.22,81.03Z" style="fill:rgb(232,48,138);fill-rule:nonzero;"/>
            </g>
        </g>
        <g id="uuid-84065e5d-c0de-4e81-acd7-38e5db4f3e6f">
            <g>
                <g id="uuid-575fbb09-c348-42f1-a707-86e7fffef8e0">
                </g>
                <g id="uuid-dc523824-973d-4868-8dc2-69f6c70be08c">
                    <path d="M64.67,103.05C66.51,103.05 68.01,101.56 68.01,99.72L68.01,96.19C68.01,96.01 67.94,95.85 67.83,95.74L61.18,88.66C58.9,86.24 57.62,82.97 57.62,79.38C57.62,75.79 59.02,72.26 61.47,69.8C61.47,69.8 66.36,64.59 66.4,64.55C67.33,63.55 67.97,62.18 68.01,60.59L68.01,56.36C68.01,55.99 67.71,55.69 67.34,55.69L48.66,55.69C46.82,55.69 45.32,57.18 45.32,59.02L45.32,61.18C45.32,61.55 45.62,61.85 45.99,61.85L52.64,61.85C54.38,61.85 55.81,63.27 55.81,64.98C55.81,68.16 53.09,70.44 51.27,72.5C49.04,75.02 46.89,76.97 46.89,79.36C46.89,81.75 49.04,83.69 51.27,86.22C53.09,88.28 55.81,90.56 55.81,93.74C55.81,95.44 54.39,96.85 52.67,96.87L48.66,96.87C46.82,96.87 45.33,98.36 45.33,100.21L45.33,102.37C45.33,102.74 45.63,103.04 46,103.04L64.67,103.04L64.67,103.05Z" style="fill:none;fill-rule:nonzero;"/>
                </g>
            </g>
            <g>
                <g id="uuid-488823f4-ddff-4d99-8693-e1d26a444a7a">
                    <path d="M238.04,55.69C236.2,55.69 234.7,57.18 234.7,59.02L234.7,62.55C234.7,62.73 234.77,62.89 234.88,63L241.53,70.08C243.81,72.5 245.09,75.77 245.09,79.36C245.09,82.95 243.69,86.48 241.24,88.94C241.24,88.94 236.35,94.15 236.31,94.19C235.38,95.19 234.74,96.56 234.7,98.15L234.7,102.38C234.7,102.75 235,103.05 235.37,103.05L254.05,103.05C255.89,103.05 257.39,101.56 257.39,99.72L257.39,97.56C257.39,97.19 257.09,96.89 256.72,96.89L250.07,96.89C248.33,96.89 246.9,95.47 246.9,93.76C246.9,90.58 249.62,88.3 251.44,86.24C253.67,83.72 255.82,81.77 255.82,79.38C255.82,76.99 253.67,75.05 251.44,72.52C249.62,70.46 246.9,68.18 246.9,65C246.9,63.3 248.32,61.89 250.04,61.87L254.05,61.87C255.89,61.87 257.38,60.38 257.38,58.53L257.38,56.37C257.38,56 257.08,55.7 256.71,55.7L238.04,55.7L238.04,55.69Z" style="fill:none;fill-rule:nonzero;"/>
                </g>
                <g id="uuid-ee7addbb-0566-49af-baae-e4346ccbd79a">
                    <path d="M215.37,55.69C213.53,55.69 212.03,57.18 212.03,59.02L212.03,62.55C212.03,62.73 212.1,62.89 212.21,63L218.86,70.08C221.14,72.5 222.42,75.77 222.42,79.36C222.42,82.95 221.02,86.48 218.57,88.94C218.57,88.94 213.68,94.15 213.64,94.19C212.71,95.19 212.07,96.56 212.03,98.15L212.03,102.38C212.03,102.75 212.33,103.05 212.7,103.05L231.38,103.05C233.22,103.05 234.72,101.56 234.72,99.72L234.72,97.56C234.72,97.19 234.42,96.89 234.05,96.89L227.4,96.89C225.66,96.89 224.23,95.47 224.23,93.76C224.23,90.58 226.95,88.3 228.77,86.24C231,83.72 233.15,81.77 233.15,79.38C233.15,76.99 231,75.05 228.77,72.52C226.95,70.46 224.23,68.18 224.23,65C224.23,63.3 225.65,61.89 227.37,61.87L231.38,61.87C233.22,61.87 234.71,60.38 234.71,58.53L234.71,56.37C234.71,56 234.41,55.7 234.04,55.7L215.37,55.7L215.37,55.69Z" style="fill:none;fill-rule:nonzero;"/>
                </g>
            </g>
            <g>
                <g id="uuid-92649094-5ca9-4652-99ea-fd346e956ba2">
                </g>
                <g id="uuid-83ad2418-38bf-4a50-b553-aa567cf24ee0">
                    <path d="M116.34,64.7C116.34,66.54 117.83,68.04 119.67,68.04L123.2,68.04C123.38,68.04 123.54,67.97 123.65,67.86L130.73,61.21C133.15,58.93 136.42,57.65 140.01,57.65C143.6,57.65 147.13,59.05 149.59,61.5C149.59,61.5 154.8,66.39 154.84,66.43C155.84,67.36 157.21,68 158.8,68.04L163.03,68.04C163.4,68.04 163.7,67.74 163.7,67.37L163.7,48.69C163.7,46.85 162.21,45.35 160.37,45.35L158.21,45.35C157.84,45.35 157.54,45.65 157.54,46.02L157.54,52.67C157.54,54.41 156.12,55.84 154.41,55.84C151.23,55.84 148.95,53.12 146.89,51.3C144.37,49.07 142.42,46.92 140.03,46.92C137.64,46.92 135.7,49.07 133.17,51.3C131.11,53.12 128.83,55.84 125.65,55.84C123.95,55.84 122.54,54.42 122.52,52.7L122.52,48.69C122.52,46.85 121.03,45.36 119.18,45.36L117.02,45.36C116.65,45.36 116.35,45.66 116.35,46.03L116.35,64.7L116.34,64.7Z" style="fill:none;fill-rule:nonzero;"/>
                </g>
            </g>
            <g>
                <g id="uuid-538bbb59-a920-4c7f-a6c5-63d02b01254b">
                </g>
                <g id="uuid-33781ece-b1c1-4460-a1ba-0280e35f4c78">
                    <path d="M163.7,93.72C163.7,91.88 162.21,90.38 160.37,90.38L156.84,90.38C156.66,90.38 156.5,90.45 156.39,90.56L149.31,97.21C146.89,99.49 143.62,100.77 140.03,100.77C136.44,100.77 132.91,99.37 130.45,96.92C130.45,96.92 125.24,92.03 125.2,91.99C124.2,91.06 122.83,90.42 121.24,90.38L117.01,90.38C116.64,90.38 116.34,90.68 116.34,91.05L116.34,109.73C116.34,111.57 117.83,113.07 119.67,113.07L121.83,113.07C122.2,113.07 122.5,112.77 122.5,112.4L122.5,105.75C122.5,104.01 123.92,102.58 125.63,102.58C128.81,102.58 131.09,105.3 133.15,107.12C135.67,109.35 137.62,111.5 140.01,111.5C142.4,111.5 144.34,109.35 146.87,107.12C148.93,105.3 151.21,102.58 154.39,102.58C156.09,102.58 157.5,104 157.52,105.72L157.52,109.73C157.52,111.57 159.01,113.06 160.86,113.06L163.02,113.06C163.39,113.06 163.69,112.76 163.69,112.39L163.69,93.72L163.7,93.72Z" style="fill:none;fill-rule:nonzero;"/>
                </g>
            </g>
        </g>
        <g id="uuid-a44a8a2f-fb8f-4b59-badc-90944b2685bb">
            <g>
                <g id="uuid-4962c1c0-3d66-4fa7-b013-f25aa7f4ba2e">
                </g>
                <g id="uuid-a56ccb91-8656-4dc9-b70f-7fe1bb054638">
                    <path d="M64.67,103.05C66.51,103.05 68.01,101.56 68.01,99.72L68.01,96.19C68.01,96.01 67.94,95.85 67.83,95.74L61.18,88.66C58.9,86.24 57.62,82.97 57.62,79.38C57.62,75.79 59.02,72.26 61.47,69.8C61.47,69.8 66.36,64.59 66.4,64.55C67.33,63.55 67.97,62.18 68.01,60.59L68.01,56.36C68.01,55.99 67.71,55.69 67.34,55.69L48.66,55.69C46.82,55.69 45.32,57.18 45.32,59.02L45.32,61.18C45.32,61.55 45.62,61.85 45.99,61.85L52.64,61.85C54.38,61.85 55.81,63.27 55.81,64.98C55.81,68.16 53.09,70.44 51.27,72.5C49.04,75.02 46.89,76.97 46.89,79.36C46.89,81.75 49.04,83.69 51.27,86.22C53.09,88.28 55.81,90.56 55.81,93.74C55.81,95.44 54.39,96.85 52.67,96.87L48.66,96.87C46.82,96.87 45.33,98.36 45.33,100.21L45.33,102.37C45.33,102.74 45.63,103.04 46,103.04L64.67,103.04L64.67,103.05Z" style="fill:none;fill-rule:nonzero;"/>
                </g>
            </g>
            <g>
                <g id="uuid-f56eaae6-b481-4252-b9a2-d3c0be09f1e9">
                    <path d="M238.04,55.69C236.2,55.69 234.7,57.18 234.7,59.02L234.7,62.55C234.7,62.73 234.77,62.89 234.88,63L241.53,70.08C243.81,72.5 245.09,75.77 245.09,79.36C245.09,82.95 243.69,86.48 241.24,88.94C241.24,88.94 236.35,94.15 236.31,94.19C235.38,95.19 234.74,96.56 234.7,98.15L234.7,102.38C234.7,102.75 235,103.05 235.37,103.05L254.05,103.05C255.89,103.05 257.39,101.56 257.39,99.72L257.39,97.56C257.39,97.19 257.09,96.89 256.72,96.89L250.07,96.89C248.33,96.89 246.9,95.47 246.9,93.76C246.9,90.58 249.62,88.3 251.44,86.24C253.67,83.72 255.82,81.77 255.82,79.38C255.82,76.99 253.67,75.05 251.44,72.52C249.62,70.46 246.9,68.18 246.9,65C246.9,63.3 248.32,61.89 250.04,61.87L254.05,61.87C255.89,61.87 257.38,60.38 257.38,58.53L257.38,56.37C257.38,56 257.08,55.7 256.71,55.7L238.04,55.7L238.04,55.69Z" style="fill:none;fill-rule:nonzero;"/>
                </g>
                <g id="uuid-340d0c36-703d-4bc6-b1e9-42636583dc55">
                    <path d="M215.37,55.69C213.53,55.69 212.03,57.18 212.03,59.02L212.03,62.55C212.03,62.73 212.1,62.89 212.21,63L218.86,70.08C221.14,72.5 222.42,75.77 222.42,79.36C222.42,82.95 221.02,86.48 218.57,88.94C218.57,88.94 213.68,94.15 213.64,94.19C212.71,95.19 212.07,96.56 212.03,98.15L212.03,102.38C212.03,102.75 212.33,103.05 212.7,103.05L231.38,103.05C233.22,103.05 234.72,101.56 234.72,99.72L234.72,97.56C234.72,97.19 234.42,96.89 234.05,96.89L227.4,96.89C225.66,96.89 224.23,95.47 224.23,93.76C224.23,90.58 226.95,88.3 228.77,86.24C231,83.72 233.15,81.77 233.15,79.38C233.15,76.99 231,75.05 228.77,72.52C226.95,70.46 224.23,68.18 224.23,65C224.23,63.3 225.65,61.89 227.37,61.87L231.38,61.87C233.22,61.87 234.71,60.38 234.71,58.53L234.71,56.37C234.71,56 234.41,55.7 234.04,55.7L215.37,55.7L215.37,55.69Z" style="fill:none;fill-rule:nonzero;"/>
                </g>
            </g>
            <g>
                <g id="uuid-7ccdcbb6-6460-4702-874d-501edcba903f">
                </g>
                <g id="uuid-7788fc44-6100-479d-b242-a9ca3d4390d2">
                    <path d="M116.34,64.7C116.34,66.54 117.83,68.04 119.67,68.04L123.2,68.04C123.38,68.04 123.54,67.97 123.65,67.86L130.73,61.21C133.15,58.93 136.42,57.65 140.01,57.65C143.6,57.65 147.13,59.05 149.59,61.5C149.59,61.5 154.8,66.39 154.84,66.43C155.84,67.36 157.21,68 158.8,68.04L163.03,68.04C163.4,68.04 163.7,67.74 163.7,67.37L163.7,48.69C163.7,46.85 162.21,45.35 160.37,45.35L158.21,45.35C157.84,45.35 157.54,45.65 157.54,46.02L157.54,52.67C157.54,54.41 156.12,55.84 154.41,55.84C151.23,55.84 148.95,53.12 146.89,51.3C144.37,49.07 142.42,46.92 140.03,46.92C137.64,46.92 135.7,49.07 133.17,51.3C131.11,53.12 128.83,55.84 125.65,55.84C123.95,55.84 122.54,54.42 122.52,52.7L122.52,48.69C122.52,46.85 121.03,45.36 119.18,45.36L117.02,45.36C116.65,45.36 116.35,45.66 116.35,46.03L116.35,64.7L116.34,64.7Z" style="fill:none;fill-rule:nonzero;"/>
                </g>
                <g id="uuid-760ee360-e70d-4b54-9e26-4e32aa295df7">
                </g>
                <g id="uuid-f004b0ff-7e17-43ac-90d8-7f3f08cc5c47">
                </g>
                <g id="uuid-8c8efc0d-2a81-41b4-9bcf-acab23a5dfbd">
                </g>
                <g id="uuid-4deb7faf-a548-4107-a8c0-c081d428b545">
                </g>
            </g>
            <g>
                <g id="uuid-22ba221d-764e-4e58-ba95-ad1a41130ca3">
                </g>
                <g id="uuid-7b5df348-6e08-4e28-b5a9-95fc92cb89bf">
                    <path d="M163.7,93.72C163.7,91.88 162.21,90.38 160.37,90.38L156.84,90.38C156.66,90.38 156.5,90.45 156.39,90.56L149.31,97.21C146.89,99.49 143.62,100.77 140.03,100.77C136.44,100.77 132.91,99.37 130.45,96.92C130.45,96.92 125.24,92.03 125.2,91.99C124.2,91.06 122.83,90.42 121.24,90.38L117.01,90.38C116.64,90.38 116.34,90.68 116.34,91.05L116.34,109.73C116.34,111.57 117.83,113.07 119.67,113.07L121.83,113.07C122.2,113.07 122.5,112.77 122.5,112.4L122.5,105.75C122.5,104.01 123.92,102.58 125.63,102.58C128.81,102.58 131.09,105.3 133.15,107.12C135.67,109.35 137.62,111.5 140.01,111.5C142.4,111.5 144.34,109.35 146.87,107.12C148.93,105.3 151.21,102.58 154.39,102.58C156.09,102.58 157.5,104 157.52,105.72L157.52,109.73C157.52,111.57 159.01,113.06 160.86,113.06L163.02,113.06C163.39,113.06 163.69,112.76 163.69,112.39L163.69,93.72L163.7,93.72Z" style="fill:none;fill-rule:nonzero;"/>
                </g>
            </g>
        </g>
    </g>
</svg>
