<?xml version="1.0" encoding="UTF-8"?>
<svg xmlns="http://www.w3.org/2000/svg" viewBox="0 0 280.06 158.41">
  <g id="uuid-46e38bc1-62fb-456e-9f87-390b357ecd30" data-name="Ebene 1">
    <g id="uuid-ee6866b1-9695-4531-90be-ec21bf9be610" data-name="LOGO">
      <path d="M191.36,90.38c1.46-.03,2.73-.69,3.65-1.6.01-.02.65-.65,1.45-1.45.47-.47,1.09-.78,1.78-.87.12-.02.45-.02.49-.02.25,0,.49.02.73.05.75.09,1.47.3,2.13.61l6.25,2.59s1.52.7,2.78.7h.92c.28,0,.5-.25.5-.54v-2.3c0-1.59-.93-3.1-2.5-3.75l-1.36-.56c-1.14-.42-2.38-1.25-3.02-1.86,0,0-1.25-1.49.2-2.95l5.55-5.57c.73-.77,1.1-1.74,1.12-2.73,0,0,0-.43-.11-.83-.09-.3-.28-.56-.43-.71-.36-.36-.84-.54-1.46-.56h-.88c-1.46.03-2.73.66-3.65,1.58-.04.04-3.66,3.67-4.62,4.63l-5.08,5.11v-8.04c0-1.82-1.47-3.28-3.29-3.28h-1.42c-.37,0-.91,0-1.16.14-.22.12-.21.34-.21.56v21.17c0,.27.22.49.49.49h1.15Z" fill="#e8308a"/>
      <path d="M164.98,87.64s-1.18-.33-3.5-2.16c-1.2-.95-2.09-1.65-2.47-1.95.43-.27,1.84-.84,3.12-2.3.79-.91,1.22-2.05,1.22-3.48,0-1.34-.39-2.6-1.16-3.79-.77-1.18-1.77-2.21-3.01-3.09-1.23-.88-2.61-1.57-4.14-2.08-1.53-.51-3.02-.76-4.51-.76,0,0-9.01,0-9.02,0-.27,0-.49.22-.49.49v21.13c0,.21,0,.44.21.56.28.15.91.17,1.26.17.51,0,1.06-.06,1.56-.21.77-.25,1.43-.79,1.91-1.43.85-1.12,1.07-2.4,1.07-3.77v-9.15c0-.12.02-.41.07-.61.06-.2.17-.4.17-.4.69-1.26,3.03-1.76,5.56-1.12,3.37.85,4.37,3.18,4.01,4.18-.38,1.08-1.6,1.76-3.12,1.76-.73,0-1.47-.13-2.24-.37-.03,0-.5-.14-.88-.27-.18-.06-.53-.22-.79-.22s-.39.2-.39.61v2.39c0,.82.33,1.55.82,1.99.02.02,7.37,5.81,7.37,5.81.72.52,1.49.81,2.32.81h4.86c.34,0,.51-.22.51-.63v-1.55c0-.24-.19-.49-.35-.55Z" fill="#e8308a"/>
      <path d="M135.57,84.58h-6.48c-.92,0-1.76-.24-2.58-.59-.7-.3-1.76-1.22-2.08-1.58-.59-.65-1.06-1.41-1.39-2.27-.33-.86-.5-1.74-.5-2.65,0-1.17.33-2.07,1-2.71.08-.08.36-.31.7-.51.33-.2.7-.29.93-.34.39-.09.81-.14,1.26-.14s.87.05,1.26.14c.73.14,1.44.43,2.15.88,1.01.64,2.08,1.61,2.8,2.55h-6.74c-.4,0-.61.18-.61.53,0,.7.11,1.15.38,1.72.27.57,1.57,2.55,4.23,2.55h6.28c1.1,0,1.86-.29,2.28-.87.42-.58.54-1.09.54-1.87,0-1.28-.34-2.54-1.02-3.9-.68-1.36-1.6-2.59-2.75-3.7-1.16-1.11-2.5-2.01-4.03-2.71-1.53-.7-3.14-1.05-4.81-1.05h-9.22c-.27,0-.49.22-.49.49v9.19c0,1.72.33,3.35,1,4.88.66,1.53,1.57,2.87,2.71,4.03,1.14,1.15,2.47,2.06,3.99,2.73,1.52.67,3.15,1.03,4.88,1.03h9.26c.27,0,.49-.22.49-.48v-1.86c0-1.08-.3-1.93-.91-2.54-.61-.61-1.44-.92-2.51-.92Z" fill="#e8308a"/>
      <path d="M114.64,71.32c0-1.82-1.47-3.29-3.29-3.29h-3.48c-.17,0-.33.07-.45.18l-6.98,6.55c-2.39,2.25-5.6,3.51-9.14,3.51s-7.02-1.38-9.44-3.79c0,0-5.13-4.82-5.17-4.86-.98-.92-2.34-1.55-3.9-1.58h-4.17c-.36,0-.66.29-.66.66v18.4c0,1.82,1.47,3.29,3.29,3.29h2.13c.36,0,.66-.3.66-.66v-6.55c0-1.71,1.4-3.12,3.08-3.12,3.13,0,5.38,2.68,7.41,4.48,2.49,2.2,4.4,4.31,6.76,4.31s4.27-2.12,6.76-4.31c2.03-1.79,4.28-4.48,7.41-4.48,1.68,0,3.07,1.4,3.08,3.09v3.95c0,1.82,1.47,3.28,3.29,3.28h1.42c.37,0,.71,0,.71,0h0c.36,0,.66-.3.66-.66,0,0,0-18.24,0-18.4Z" fill="#e8308a"/>
      <path d="M187.22,81.03h-3.38c-1.24,0-2.05.54-2.42,1.61-.23.7-.62,1.26-1.15,1.68-.54.42-1.22.63-2.06.63-.78,0-1.58-.22-2.38-.68-.81-.45-1.54-1.03-2.19-1.74-.65-.71-1.18-1.51-1.58-2.4-.4-.89-.61-1.76-.61-2.64,0-1.1.33-2,.99-2.68.67-.68,1.5-1.03,2.51-1.03,1.16,0,2.3.42,3.42,1.27.46.35.95.52,1.47.52s1.07-.29,1.64-.87l2.3-2.27c.14-.14.19-.28.15-.39-.04-.12-.14-.25-.28-.39-1.24-1.13-2.6-2.02-4.07-2.66-1.47-.64-3.02-.96-4.64-.96h-9.06c-.35,0-.52.21-.52.61v9.03c0,1.74.35,3.4,1.06,4.97.71,1.57,1.66,2.95,2.86,4.14,1.2,1.19,2.57,2.14,4.12,2.85,1.55.71,3.14,1.07,4.79,1.07,1.33,0,2.56-.23,3.68-.68,1.13-.45,2.11-1.07,2.95-1.87.84-.8,1.5-1.76,1.99-2.88.49-1.12.78-2.33.87-3.64.03-.41-.13-.61-.48-.61Z" fill="#e8308a"/>
    </g>
  </g>
  <g id="uuid-84065e5d-c0de-4e81-acd7-38e5db4f3e6f" data-name="Guides 2M clear space">
    <g>
      <g id="uuid-575fbb09-c348-42f1-a707-86e7fffef8e0" data-name="LOGO">
        <path d="M41.99,103.05c1.84,0,3.34-1.49,3.34-3.33v-3.53c0-.18-.07-.34-.18-.45l-6.65-7.08c-2.28-2.42-3.56-5.69-3.56-9.28s1.4-7.12,3.85-9.58c0,0,4.89-5.21,4.93-5.25.93-1,1.57-2.37,1.61-3.96v-4.23c0-.37-.3-.67-.67-.67h-18.68c-1.84,0-3.34,1.49-3.34,3.33v2.16c0,.37.3.67.67.67h6.65c1.74,0,3.17,1.42,3.17,3.13,0,3.18-2.72,5.46-4.54,7.52-2.23,2.52-4.38,4.47-4.38,6.86s2.15,4.33,4.38,6.86c1.82,2.06,4.54,4.34,4.54,7.52,0,1.7-1.42,3.11-3.14,3.13h-4.01c-1.84,0-3.33,1.49-3.33,3.34v1.44c0,.38,0,.72,0,.72h0c0,.37.3.67.67.67,0,0,18.52,0,18.67,0Z" fill="none"/>
      </g>
      <g id="uuid-dc523824-973d-4868-8dc2-69f6c70be08c" data-name="LOGO">
        <path d="M64.67,103.05c1.84,0,3.34-1.49,3.34-3.33v-3.53c0-.18-.07-.34-.18-.45l-6.65-7.08c-2.28-2.42-3.56-5.69-3.56-9.28s1.4-7.12,3.85-9.58c0,0,4.89-5.21,4.93-5.25.93-1,1.57-2.37,1.61-3.96v-4.23c0-.37-.3-.67-.67-.67h-18.68c-1.84,0-3.34,1.49-3.34,3.33v2.16c0,.37.3.67.67.67h6.65c1.74,0,3.17,1.42,3.17,3.13,0,3.18-2.72,5.46-4.54,7.52-2.23,2.52-4.38,4.47-4.38,6.86s2.15,4.33,4.38,6.86c1.82,2.06,4.54,4.34,4.54,7.52,0,1.7-1.42,3.11-3.14,3.13h-4.01c-1.84,0-3.33,1.49-3.33,3.34v1.44c0,.38,0,.72,0,.72h0c0,.37.3.67.67.67,0,0,18.52,0,18.67,0Z" fill="none"/>
      </g>
    </g>
    <g>
      <g id="uuid-488823f4-ddff-4d99-8693-e1d26a444a7a" data-name="LOGO">
        <path d="M238.04,55.69c-1.84,0-3.34,1.49-3.34,3.33v3.53c0,.18.07.34.18.45l6.65,7.08c2.28,2.42,3.56,5.69,3.56,9.28s-1.4,7.12-3.85,9.58c0,0-4.89,5.21-4.93,5.25-.93,1-1.57,2.37-1.61,3.96v4.23c0,.37.3.67.67.67h18.68c1.84,0,3.34-1.49,3.34-3.33v-2.16c0-.37-.3-.67-.67-.67h-6.65c-1.74,0-3.17-1.42-3.17-3.13,0-3.18,2.72-5.46,4.54-7.52,2.23-2.52,4.38-4.47,4.38-6.86s-2.15-4.33-4.38-6.86c-1.82-2.06-4.54-4.34-4.54-7.52,0-1.7,1.42-3.11,3.14-3.13h4.01c1.84,0,3.33-1.49,3.33-3.34v-1.44c0-.38,0-.72,0-.72h0c0-.37-.3-.67-.67-.67,0,0-18.52,0-18.67,0Z" fill="none"/>
      </g>
      <g id="uuid-ee7addbb-0566-49af-baae-e4346ccbd79a" data-name="LOGO">
        <path d="M215.37,55.69c-1.84,0-3.34,1.49-3.34,3.33v3.53c0,.18.07.34.18.45l6.65,7.08c2.28,2.42,3.56,5.69,3.56,9.28s-1.4,7.12-3.85,9.58c0,0-4.89,5.21-4.93,5.25-.93,1-1.57,2.37-1.61,3.96v4.23c0,.37.3.67.67.67h18.68c1.84,0,3.34-1.49,3.34-3.33v-2.16c0-.37-.3-.67-.67-.67h-6.65c-1.74,0-3.17-1.42-3.17-3.13,0-3.18,2.72-5.46,4.54-7.52,2.23-2.52,4.38-4.47,4.38-6.86s-2.15-4.33-4.38-6.86c-1.82-2.06-4.54-4.34-4.54-7.52,0-1.7,1.42-3.11,3.14-3.13h4.01c1.84,0,3.33-1.49,3.33-3.34v-1.44c0-.38,0-.72,0-.72h0c0-.37-.3-.67-.67-.67,0,0-18.52,0-18.67,0Z" fill="none"/>
      </g>
    </g>
    <g>
      <g id="uuid-92649094-5ca9-4652-99ea-fd346e956ba2" data-name="LOGO">
        <path d="M116.34,42.02c0,1.84,1.49,3.34,3.33,3.34h3.53c.18,0,.34-.07.45-.18l7.08-6.65c2.42-2.28,5.69-3.56,9.28-3.56s7.12,1.4,9.58,3.85c0,0,5.21,4.89,5.25,4.93,1,.93,2.37,1.57,3.96,1.61h4.23c.37,0,.67-.3.67-.67v-18.68c0-1.84-1.49-3.34-3.33-3.34h-2.16c-.37,0-.67.3-.67.67v6.65c0,1.74-1.42,3.17-3.13,3.17-3.18,0-5.46-2.72-7.52-4.54-2.52-2.23-4.47-4.38-6.86-4.38s-4.33,2.15-6.86,4.38c-2.06,1.82-4.34,4.54-7.52,4.54-1.7,0-3.11-1.42-3.13-3.14v-4.01c0-1.84-1.49-3.33-3.34-3.33h-1.44c-.38,0-.72,0-.72,0h0c-.37,0-.67.3-.67.67,0,0,0,18.52,0,18.67Z" fill="none"/>
      </g>
      <g id="uuid-83ad2418-38bf-4a50-b553-aa567cf24ee0" data-name="LOGO">
        <path d="M116.34,64.7c0,1.84,1.49,3.34,3.33,3.34h3.53c.18,0,.34-.07.45-.18l7.08-6.65c2.42-2.28,5.69-3.56,9.28-3.56s7.12,1.4,9.58,3.85c0,0,5.21,4.89,5.25,4.93,1,.93,2.37,1.57,3.96,1.61h4.23c.37,0,.67-.3.67-.67v-18.68c0-1.84-1.49-3.34-3.33-3.34h-2.16c-.37,0-.67.3-.67.67v6.65c0,1.74-1.42,3.17-3.13,3.17-3.18,0-5.46-2.72-7.52-4.54-2.52-2.23-4.47-4.38-6.86-4.38s-4.33,2.15-6.86,4.38c-2.06,1.82-4.34,4.54-7.52,4.54-1.7,0-3.11-1.42-3.13-3.14v-4.01c0-1.84-1.49-3.33-3.34-3.33h-1.44c-.38,0-.72,0-.72,0h0c-.37,0-.67.3-.67.67,0,0,0,18.52,0,18.67Z" fill="none"/>
      </g>
    </g>
    <g>
      <g id="uuid-538bbb59-a920-4c7f-a6c5-63d02b01254b" data-name="LOGO">
        <path d="M163.7,116.39c0-1.84-1.49-3.34-3.33-3.34h-3.53c-.18,0-.34.07-.45.18l-7.08,6.65c-2.42,2.28-5.69,3.56-9.28,3.56s-7.12-1.4-9.58-3.85c0,0-5.21-4.89-5.25-4.93-1-.93-2.37-1.57-3.96-1.61h-4.23c-.37,0-.67.3-.67.67v18.68c0,1.84,1.49,3.34,3.33,3.34h2.16c.37,0,.67-.3.67-.67v-6.65c0-1.74,1.42-3.17,3.13-3.17,3.18,0,5.46,2.72,7.52,4.54,2.52,2.23,4.47,4.38,6.86,4.38s4.33-2.15,6.86-4.38c2.06-1.82,4.34-4.54,7.52-4.54,1.7,0,3.11,1.42,3.13,3.14v4.01c0,1.84,1.49,3.33,3.34,3.33h1.44c.38,0,.72,0,.72,0h0c.37,0,.67-.3.67-.67,0,0,0-18.52,0-18.67Z" fill="none"/>
      </g>
      <g id="uuid-33781ece-b1c1-4460-a1ba-0280e35f4c78" data-name="LOGO">
        <path d="M163.7,93.72c0-1.84-1.49-3.34-3.33-3.34h-3.53c-.18,0-.34.07-.45.18l-7.08,6.65c-2.42,2.28-5.69,3.56-9.28,3.56s-7.12-1.4-9.58-3.85c0,0-5.21-4.89-5.25-4.93-1-.93-2.37-1.57-3.96-1.61h-4.23c-.37,0-.67.3-.67.67v18.68c0,1.84,1.49,3.34,3.33,3.34h2.16c.37,0,.67-.3.67-.67v-6.65c0-1.74,1.42-3.17,3.13-3.17,3.18,0,5.46,2.72,7.52,4.54,2.52,2.23,4.47,4.38,6.86,4.38s4.33-2.15,6.86-4.38c2.06-1.82,4.34-4.54,7.52-4.54,1.7,0,3.11,1.42,3.13,3.14v4.01c0,1.84,1.49,3.33,3.34,3.33h1.44c.38,0,.72,0,.72,0h0c.37,0,.67-.3.67-.67,0,0,0-18.52,0-18.67Z" fill="none"/>
      </g>
    </g>
  </g>
  <g id="uuid-a44a8a2f-fb8f-4b59-badc-90944b2685bb" data-name="Guides 3M clear space to M-font">
    <g>
      <g id="uuid-4962c1c0-3d66-4fa7-b013-f25aa7f4ba2e" data-name="LOGO">
        <path d="M41.99,103.05c1.84,0,3.34-1.49,3.34-3.33v-3.53c0-.18-.07-.34-.18-.45l-6.65-7.08c-2.28-2.42-3.56-5.69-3.56-9.28s1.4-7.12,3.85-9.58c0,0,4.89-5.21,4.93-5.25.93-1,1.57-2.37,1.61-3.96v-4.23c0-.37-.3-.67-.67-.67h-18.68c-1.84,0-3.34,1.49-3.34,3.33v2.16c0,.37.3.67.67.67h6.65c1.74,0,3.17,1.42,3.17,3.13,0,3.18-2.72,5.46-4.54,7.52-2.23,2.52-4.38,4.47-4.38,6.86s2.15,4.33,4.38,6.86c1.82,2.06,4.54,4.34,4.54,7.52,0,1.7-1.42,3.11-3.14,3.13h-4.01c-1.84,0-3.33,1.49-3.33,3.34v1.44c0,.38,0,.72,0,.72h0c0,.37.3.67.67.67,0,0,18.52,0,18.67,0Z" fill="none"/>
      </g>
      <g id="uuid-a56ccb91-8656-4dc9-b70f-7fe1bb054638" data-name="LOGO">
        <path d="M64.67,103.05c1.84,0,3.34-1.49,3.34-3.33v-3.53c0-.18-.07-.34-.18-.45l-6.65-7.08c-2.28-2.42-3.56-5.69-3.56-9.28s1.4-7.12,3.85-9.58c0,0,4.89-5.21,4.93-5.25.93-1,1.57-2.37,1.61-3.96v-4.23c0-.37-.3-.67-.67-.67h-18.68c-1.84,0-3.34,1.49-3.34,3.33v2.16c0,.37.3.67.67.67h6.65c1.74,0,3.17,1.42,3.17,3.13,0,3.18-2.72,5.46-4.54,7.52-2.23,2.52-4.38,4.47-4.38,6.86s2.15,4.33,4.38,6.86c1.82,2.06,4.54,4.34,4.54,7.52,0,1.7-1.42,3.11-3.14,3.13h-4.01c-1.84,0-3.33,1.49-3.33,3.34v1.44c0,.38,0,.72,0,.72h0c0,.37.3.67.67.67,0,0,18.52,0,18.67,0Z" fill="none"/>
      </g>
    </g>
    <g>
      <g id="uuid-f56eaae6-b481-4252-b9a2-d3c0be09f1e9" data-name="LOGO">
        <path d="M238.04,55.69c-1.84,0-3.34,1.49-3.34,3.33v3.53c0,.18.07.34.18.45l6.65,7.08c2.28,2.42,3.56,5.69,3.56,9.28s-1.4,7.12-3.85,9.58c0,0-4.89,5.21-4.93,5.25-.93,1-1.57,2.37-1.61,3.96v4.23c0,.37.3.67.67.67h18.68c1.84,0,3.34-1.49,3.34-3.33v-2.16c0-.37-.3-.67-.67-.67h-6.65c-1.74,0-3.17-1.42-3.17-3.13,0-3.18,2.72-5.46,4.54-7.52,2.23-2.52,4.38-4.47,4.38-6.86s-2.15-4.33-4.38-6.86c-1.82-2.06-4.54-4.34-4.54-7.52,0-1.7,1.42-3.11,3.14-3.13h4.01c1.84,0,3.33-1.49,3.33-3.34v-1.44c0-.38,0-.72,0-.72h0c0-.37-.3-.67-.67-.67,0,0-18.52,0-18.67,0Z" fill="none"/>
      </g>
      <g id="uuid-340d0c36-703d-4bc6-b1e9-42636583dc55" data-name="LOGO">
        <path d="M215.37,55.69c-1.84,0-3.34,1.49-3.34,3.33v3.53c0,.18.07.34.18.45l6.65,7.08c2.28,2.42,3.56,5.69,3.56,9.28s-1.4,7.12-3.85,9.58c0,0-4.89,5.21-4.93,5.25-.93,1-1.57,2.37-1.61,3.96v4.23c0,.37.3.67.67.67h18.68c1.84,0,3.34-1.49,3.34-3.33v-2.16c0-.37-.3-.67-.67-.67h-6.65c-1.74,0-3.17-1.42-3.17-3.13,0-3.18,2.72-5.46,4.54-7.52,2.23-2.52,4.38-4.47,4.38-6.86s-2.15-4.33-4.38-6.86c-1.82-2.06-4.54-4.34-4.54-7.52,0-1.7,1.42-3.11,3.14-3.13h4.01c1.84,0,3.33-1.49,3.33-3.34v-1.44c0-.38,0-.72,0-.72h0c0-.37-.3-.67-.67-.67,0,0-18.52,0-18.67,0Z" fill="none"/>
      </g>
    </g>
    <g>
      <g id="uuid-7ccdcbb6-6460-4702-874d-501edcba903f" data-name="LOGO">
        <path d="M116.34,42.02c0,1.84,1.49,3.34,3.33,3.34h3.53c.18,0,.34-.07.45-.18l7.08-6.65c2.42-2.28,5.69-3.56,9.28-3.56s7.12,1.4,9.58,3.85c0,0,5.21,4.89,5.25,4.93,1,.93,2.37,1.57,3.96,1.61h4.23c.37,0,.67-.3.67-.67v-18.68c0-1.84-1.49-3.34-3.33-3.34h-2.16c-.37,0-.67.3-.67.67v6.65c0,1.74-1.42,3.17-3.13,3.17-3.18,0-5.46-2.72-7.52-4.54-2.52-2.23-4.47-4.38-6.86-4.38s-4.33,2.15-6.86,4.38c-2.06,1.82-4.34,4.54-7.52,4.54-1.7,0-3.11-1.42-3.13-3.14v-4.01c0-1.84-1.49-3.33-3.34-3.33h-1.44c-.38,0-.72,0-.72,0h0c-.37,0-.67.3-.67.67,0,0,0,18.52,0,18.67Z" fill="none"/>
      </g>
      <g id="uuid-7788fc44-6100-479d-b242-a9ca3d4390d2" data-name="LOGO">
        <path d="M116.34,64.7c0,1.84,1.49,3.34,3.33,3.34h3.53c.18,0,.34-.07.45-.18l7.08-6.65c2.42-2.28,5.69-3.56,9.28-3.56s7.12,1.4,9.58,3.85c0,0,5.21,4.89,5.25,4.93,1,.93,2.37,1.57,3.96,1.61h4.23c.37,0,.67-.3.67-.67v-18.68c0-1.84-1.49-3.34-3.33-3.34h-2.16c-.37,0-.67.3-.67.67v6.65c0,1.74-1.42,3.17-3.13,3.17-3.18,0-5.46-2.72-7.52-4.54-2.52-2.23-4.47-4.38-6.86-4.38s-4.33,2.15-6.86,4.38c-2.06,1.82-4.34,4.54-7.52,4.54-1.7,0-3.11-1.42-3.13-3.14v-4.01c0-1.84-1.49-3.33-3.34-3.33h-1.44c-.38,0-.72,0-.72,0h0c-.37,0-.67.3-.67.67,0,0,0,18.52,0,18.67Z" fill="none"/>
      </g>
      <g id="uuid-760ee360-e70d-4b54-9e26-4e32aa295df7" data-name="LOGO">
        <path d="M116.34,19.34c0,1.84,1.49,3.34,3.33,3.34h3.53c.18,0,.34-.07.45-.18l7.08-6.65c2.42-2.28,5.69-3.56,9.28-3.56s7.12,1.4,9.58,3.85c0,0,5.21,4.89,5.25,4.93,1,.93,2.37,1.57,3.96,1.61h4.23c.37,0,.67-.3.67-.67V3.34c0-1.84-1.49-3.34-3.33-3.34h-2.16c-.37,0-.67.3-.67.67v6.65c0,1.74-1.42,3.17-3.13,3.17-3.18,0-5.46-2.72-7.52-4.54-2.52-2.23-4.47-4.38-6.86-4.38s-4.33,2.15-6.86,4.38c-2.06,1.82-4.34,4.54-7.52,4.54-1.7,0-3.11-1.42-3.13-3.14V3.34C122.51,1.49,121.02,0,119.18,0h-1.44c-.38,0-.72,0-.72,0h0c-.37,0-.67.3-.67.67,0,0,0,18.52,0,18.67Z" fill="none"/>
      </g>
      <g id="uuid-f004b0ff-7e17-43ac-90d8-7f3f08cc5c47" data-name="LOGO">
        <path d="M163.7,139.07c0-1.84-1.49-3.34-3.33-3.34h-3.53c-.18,0-.34.07-.45.18l-7.08,6.65c-2.42,2.28-5.69,3.56-9.28,3.56s-7.12-1.4-9.58-3.85c0,0-5.21-4.89-5.25-4.93-1-.93-2.37-1.57-3.96-1.61h-4.23c-.37,0-.67.3-.67.67v18.68c0,1.84,1.49,3.34,3.33,3.34h2.16c.37,0,.67-.3.67-.67v-6.65c0-1.74,1.42-3.17,3.13-3.17,3.18,0,5.46,2.72,7.52,4.54,2.52,2.23,4.47,4.38,6.86,4.38s4.33-2.15,6.86-4.38c2.06-1.82,4.34-4.54,7.52-4.54,1.7,0,3.11,1.42,3.13,3.14v4.01c0,1.84,1.49,3.33,3.34,3.33h1.44c.38,0,.72,0,.72,0h0c.37,0,.67-.3.67-.67,0,0,0-18.52,0-18.67Z" fill="none"/>
      </g>
      <g id="uuid-8c8efc0d-2a81-41b4-9bcf-acab23a5dfbd" data-name="LOGO">
        <path d="M19.34,102.88c1.84,0,3.34-1.49,3.34-3.33v-3.53c0-.18-.07-.34-.18-.45l-6.65-7.08c-2.28-2.42-3.56-5.69-3.56-9.28s1.4-7.12,3.85-9.58c0,0,4.89-5.21,4.93-5.25.93-1,1.57-2.37,1.61-3.96v-4.23c0-.37-.3-.67-.67-.67H3.34c-1.84,0-3.34,1.49-3.34,3.33v2.16c0,.37.3.67.67.67h6.65c1.74,0,3.17,1.42,3.17,3.13,0,3.18-2.72,5.46-4.54,7.52-2.23,2.52-4.38,4.47-4.38,6.86s2.15,4.33,4.38,6.86c1.82,2.06,4.54,4.34,4.54,7.52,0,1.7-1.42,3.11-3.14,3.13H3.34C1.49,96.71,0,98.21,0,100.05v1.44c0,.38,0,.72,0,.72h0c0,.37.3.67.67.67,0,0,18.52,0,18.67,0Z" fill="none"/>
      </g>
      <g id="uuid-4deb7faf-a548-4107-a8c0-c081d428b545" data-name="LOGO">
        <path d="M260.72,55.53c-1.84,0-3.34,1.49-3.34,3.33v3.53c0,.18.07.34.18.45l6.65,7.08c2.28,2.42,3.56,5.69,3.56,9.28s-1.4,7.12-3.85,9.58c0,0-4.89,5.21-4.93,5.25-.93,1-1.57,2.37-1.61,3.96v4.23c0,.37.3.67.67.67h18.68c1.84,0,3.34-1.49,3.34-3.33v-2.16c0-.37-.3-.67-.67-.67h-6.65c-1.74,0-3.17-1.42-3.17-3.13,0-3.18,2.72-5.46,4.54-7.52,2.23-2.52,4.38-4.47,4.38-6.86s-2.15-4.33-4.38-6.86c-1.82-2.06-4.54-4.34-4.54-7.52,0-1.7,1.42-3.11,3.14-3.13h4.01c1.84,0,3.33-1.49,3.33-3.34v-1.44c0-.38,0-.72,0-.72h0c0-.37-.3-.67-.67-.67,0,0-18.52,0-18.67,0Z" fill="none"/>
      </g>
    </g>
    <g>
      <g id="uuid-22ba221d-764e-4e58-ba95-ad1a41130ca3" data-name="LOGO">
        <path d="M163.7,116.39c0-1.84-1.49-3.34-3.33-3.34h-3.53c-.18,0-.34.07-.45.18l-7.08,6.65c-2.42,2.28-5.69,3.56-9.28,3.56s-7.12-1.4-9.58-3.85c0,0-5.21-4.89-5.25-4.93-1-.93-2.37-1.57-3.96-1.61h-4.23c-.37,0-.67.3-.67.67v18.68c0,1.84,1.49,3.34,3.33,3.34h2.16c.37,0,.67-.3.67-.67v-6.65c0-1.74,1.42-3.17,3.13-3.17,3.18,0,5.46,2.72,7.52,4.54,2.52,2.23,4.47,4.38,6.86,4.38s4.33-2.15,6.86-4.38c2.06-1.82,4.34-4.54,7.52-4.54,1.7,0,3.11,1.42,3.13,3.14v4.01c0,1.84,1.49,3.33,3.34,3.33h1.44c.38,0,.72,0,.72,0h0c.37,0,.67-.3.67-.67,0,0,0-18.52,0-18.67Z" fill="none"/>
      </g>
      <g id="uuid-7b5df348-6e08-4e28-b5a9-95fc92cb89bf" data-name="LOGO">
        <path d="M163.7,93.72c0-1.84-1.49-3.34-3.33-3.34h-3.53c-.18,0-.34.07-.45.18l-7.08,6.65c-2.42,2.28-5.69,3.56-9.28,3.56s-7.12-1.4-9.58-3.85c0,0-5.21-4.89-5.25-4.93-1-.93-2.37-1.57-3.96-1.61h-4.23c-.37,0-.67.3-.67.67v18.68c0,1.84,1.49,3.34,3.33,3.34h2.16c.37,0,.67-.3.67-.67v-6.65c0-1.74,1.42-3.17,3.13-3.17,3.18,0,5.46,2.72,7.52,4.54,2.52,2.23,4.47,4.38,6.86,4.38s4.33-2.15,6.86-4.38c2.06-1.82,4.34-4.54,7.52-4.54,1.7,0,3.11,1.42,3.13,3.14v4.01c0,1.84,1.49,3.33,3.34,3.33h1.44c.38,0,.72,0,.72,0h0c.37,0,.67-.3.67-.67,0,0,0-18.52,0-18.67Z" fill="none"/>
      </g>
    </g>
  </g>
</svg>