<?xml version="1.0" encoding="UTF-8"?>
<svg id="Logo" xmlns="http://www.w3.org/2000/svg" version="1.1" viewBox="0 0 3104.7 796.7">
  <defs>
    <style>
      .cls-1 {
        fill: #002;
        stroke-width: 0px;
      }

      .cls-2 {
        isolation: isolate;
      }
    </style>
  </defs>
  <g>
    <path class="cls-1" d="M2958.8,264.8l-126.4-126.4-29.3,29.3c-10,10-10,26.3,0,36.3l79.6,78.4-97.7,97.7,29.3,29.3c10,10,26.3,10,36.3,0l108.2-108.2c10-10,10-26.3,0-36.3h0Z"/>
    <path class="cls-1" d="M2824.7,301.1c10-10,10-26.3,0-36.3l-126.4-126.4-29.3,29.3c-10,10-10,26.3,0,36.3l79.6,78.4-97.7,97.7,29.3,29.3c10,10,26.3,10,36.3,0l108.2-108.2h0Z"/>
    <path class="cls-1" d="M2690.6,301.1c10-10,10-26.3,0-36.3l-126.4-126.4-29.3,29.3c-10,10-10,26.3,0,36.3l79.6,78.4-97.7,97.7,29.3,29.3c10,10,26.3,10,36.3,0l108.2-108.2h0Z"/>
  </g>
  <g>
    <path class="cls-1" d="M2213.3,208.7c12.2,1.9,24.1,8.4,31.4,18.5,1.9,2.6,3.9,5.6,4.9,8.8l-22.8,12c-3.7-8.8-14-13.8-23.2-12.9-10.5.9-16.8,11-10.3,20.2,4.3,6.4,12.5,8.6,18.9,12,11,6.2,22.1,10.5,28.6,22.1,8.2,14.6,5.8,32.9-5.6,45.1-17,18-49.4,15.9-66.4-1.3-4.1-4.3-7.1-9-9.7-14.2l22.3-12c4.5,10.3,20,17,30.3,11,5.2-3,7.5-9.7,5.4-15.3-2.4-6.2-9.5-8.8-14.8-11.8-13.8-7.7-30.5-14.4-36.5-30.1-6.4-16.8-.4-38.2,16.1-47.1,9.9-5.2,20.8-6.9,31.4-5.2h0v.2Z"/>
    <path class="cls-1" d="M1936.2,208c-36.1,0-65.3,31.1-65.3,69.6s29.2,69.6,65.3,69.6,65.3-31.1,65.3-69.6-29.2-69.6-65.3-69.6ZM1936.2,318.9c-21.5,0-38.7-18.5-38.7-41.2s17.4-41.2,38.7-41.2,38.7,18.5,38.7,41.2-17.2,41.2-38.7,41.2Z"/>
    <path class="cls-1" d="M2134.5,208v81.3c0,32-24.5,57.9-54.8,57.9s-54.8-25.8-54.8-57.9v-81.3h26.9v81.3c.2,16.1,12.7,29,28,29s27.5-12.9,28-29v-81.3h26.9-.2Z"/>
    <polygon class="cls-1" points="1844.4 347.2 1817.9 347.2 1817.9 290 1757.7 290 1757.7 347.2 1731 347.2 1731 208 1757.7 208 1757.7 261.8 1817.5 261.8 1817.5 208 1844.2 208 1844.4 347.2 1844.4 347.2"/>
    <polygon class="cls-1" points="1626.1 208 1576.5 296.8 1576.5 347.2 1549.8 347.2 1549.8 297 1500 208 1531.1 208 1562.7 264.9 1594.8 208 1626.1 208"/>
    <polygon class="cls-1" points="1480.9 236.3 1438.4 236.3 1438.4 347.2 1411.7 347.2 1411.7 236.3 1369.1 236.3 1369.1 208 1481.1 208 1480.9 236.3 1480.9 236.3"/>
    <polygon class="cls-1" points="1309.3 347 1309.3 208 1336 208 1336 347.2 1309.3 347.2 1309.3 347"/>
    <polygon class="cls-1" points="1271.4 347.2 1178.8 347.2 1178.8 208 1205.5 208 1205.5 319 1271.4 319 1271.4 347.2 1271.4 347.2"/>
    <polygon class="cls-1" points="1109.6 347 1109.6 208 1136.2 208 1136.2 347.2 1109.6 347.2 1109.6 347"/>
    <path class="cls-1" d="M1061.2,277.6c6.7,7.3,10.8,17.2,10.8,27.8,0,23.1-18.7,41.8-41.8,41.8h-65.1v-28h66.6c7.3,0,13.1-6,13.1-13.1s-6-13.1-13.1-13.1h-66.6v-30.2h66.6c7.3,0,13.1-6,13.1-13.1s-6-13.1-13.1-13.1h-66.6v-28.4h65.9c22.6.4,40.9,19,40.9,41.8s-4.1,20.5-10.8,27.8v-.2Z"/>
    <path class="cls-1" d="M874.4,208c-36.1,0-65.3,31.1-65.3,69.6s29.2,69.6,65.3,69.6,65.3-31.1,65.3-69.6-29.2-69.6-65.3-69.6ZM874.4,318.9c-21.5,0-38.7-18.5-38.7-41.2s17.4-41.2,38.7-41.2,38.7,18.5,38.7,41.2-17.2,41.2-38.7,41.2Z"/>
    <polygon class="cls-1" points="782.2 208 782.2 347.2 756.3 347.2 756.3 235.6 733.8 235.6 733.8 347 708 347 708 235.6 685.4 235.6 685.4 347 659.6 347 659.6 208 782.2 208"/>
    <g>
      <rect class="cls-1" x="434.9" y="208" width="92.6" height="28.2"/>
      <rect class="cls-1" x="434.9" y="263.4" width="59.5" height="28.4"/>
      <rect class="cls-1" x="434.9" y="318.8" width="92.6" height="28.4"/>
    </g>
    <polygon class="cls-1" points="389.4 347.2 363.2 347.2 363.2 289.9 302.8 289.9 302.8 347.2 275.9 347.2 275.9 208 302.6 208 302.6 261.9 362.5 261.9 362.5 208 389.2 208 389.2 347.2 389.4 347.2"/>
    <path id="Combined-Shape" class="cls-1" d="M250.5,236.3h-42.4v110.9h-26.9v-110.9h-42.7v-28.2h112v28.2h0Z"/>
    <g>
      <rect class="cls-1" x="2285.3" y="208" width="92.6" height="28.2"/>
      <rect class="cls-1" x="2285.3" y="263.4" width="59.5" height="28.4"/>
      <rect class="cls-1" x="2285.3" y="318.8" width="92.6" height="28.4"/>
    </g>
  </g>
  <g class="cls-2">
    <g class="cls-2">
      <path class="cls-1" d="M1196.6,624.1v-139.3h117v27.3h-86.8v27.3h85.2v27.3h-85.2v30.2h87.8v27.3h-118Z"/>
      <path class="cls-1" d="M1337.7,624.1v-103.7h29.9v26.9c4.4-18.7,15.1-29.3,36-29.3s37.4,16.5,37.4,40.8v65.3h-29.9v-59.3c0-13.1-7.6-20.9-21.1-20.9s-17.7,4-22.5,10.9v69.3h-29.9Z"/>
      <path class="cls-1" d="M1572.7,578.1h-83.2c2.4,15.3,14.7,24.3,36.8,24.3s34.6-6.8,45.8-17.5l-5.6,30.4c-9.6,6.8-25.3,11.1-43.6,11.1-41,0-63.3-22.3-63.3-54.3s21.3-54.1,58.7-54.1,54.3,23.3,54.3,54.9v5.2ZM1490.4,560h54.1c-2.4-11.7-10.5-21.3-26.3-21.3s-24.9,9.2-27.9,21.3Z"/>
      <path class="cls-1" d="M1591.6,624.1v-103.7h29.9v41c6-24.9,22.1-36.4,38.4-43l6.2,32c-14.5,4-32,8.8-44.6,18.1v55.5h-29.9Z"/>
      <path class="cls-1" d="M1722.8,518c20.1,0,33.6,12.7,37.6,30.2v-27.9h30v82c0,36.2-20.7,57.5-60.1,57.5s-38-5.6-50.7-13.7l-6.4-34.4c13.9,13.5,33.6,23.1,54.9,23.1s32.2-13.5,32.2-34.8v-12.1c-3.4,16.1-18.7,28.9-37.6,28.9-32.6,0-50.1-21.7-50.1-48.6s17.7-50.1,50.1-50.1ZM1730.9,593.7c14.7,0,24.1-6.2,29.5-15.7v-19.5c-5.2-9.2-14.9-15.9-29.5-15.9s-28.5,11.9-28.5,25.7,9.2,25.5,28.5,25.5Z"/>
      <path class="cls-1" d="M1814.7,656.3l-4-26.3c5.2,2.6,11.1,3.4,16.1,3.4,10.5,0,13.9-5,17.9-14.7l1-2.4-42-95.9h32.2l25.9,63.7,25.3-63.7h31l-45.8,110.2c-8.6,20.9-17.3,29.3-38.4,29.3s-14.1-1.2-19.3-3.6Z"/>
    </g>
  </g>
</svg>