<?xml version="1.0" encoding="UTF-8"?>
<svg id="Layer_1" xmlns="http://www.w3.org/2000/svg" xmlns:xlink="http://www.w3.org/1999/xlink" version="1.1" viewBox="0 0 1188.1 137.3">
  <!-- Generator: Adobe Illustrator 29.2.0, SVG Export Plug-In . SVG Version: 2.1.0 Build 108)  -->
  <defs>
    <style>
      .st0 {
        fill: url(#linear-gradient);
      }
    </style>
    <linearGradient id="linear-gradient" x1="920.8" y1="68.5" x2="964.7" y2="68.5" gradientUnits="userSpaceOnUse">
      <stop offset="0" stop-color="#3d4fff"/>
      <stop offset=".3" stop-color="#788fff"/>
      <stop offset=".6" stop-color="#24db96"/>
      <stop offset="1" stop-color="#c7ff00"/>
    </linearGradient>
  </defs>
  <g>
    <path d="M196,68.9C196,28.5,224.7.5,266.7.5s70.7,28,70.7,68.4-28.9,68.4-70.7,68.4-70.7-27.8-70.7-68.4ZM226.1,68.9c0,25,16.7,42.4,40.6,42.6,23.9,0,40.6-17.6,40.6-42.6s-16.7-42.6-40.6-42.6-40.6,17.6-40.6,42.6Z"/>
    <path d="M29.6,132.8H0V4.5h39.8l36.4,94.2L112.3,4.5h40.4v128.3h-29.6V41.1l-35.5,91.7h-22.7L29.6,41.1v91.7Z"/>
    <path d="M440.8,137.3c-32.6,0-56-19.6-56-46.7h27.2c0,13.9,12.4,23.8,29.7,23.8s24-7.4,24-17.7-13.9-13.9-29.7-15.9c-25.4-3.2-49.9-8.7-49.9-38.6S407.5,0,438.5,0s53.7,18.7,53.7,44.5h-26.3c.2-12.6-11.2-21.6-26.7-21.6s-23.6,6.7-23.6,16,12.8,13.9,29,16c24.9,2.9,50.6,8.3,50.6,37.8s-21.8,44.5-54.4,44.5Z"/>
    <path d="M678,132.8V4.5h30.3v102.4h53.7v25.9h-84Z"/>
    <path d="M1188.1,4.5v128.3h-30.3V4.5h30.3Z"/>
    <polygon points="1083.8 132.8 1115.5 132.8 1072.6 4.5 1028.6 4.5 985.6 132.8 1017.5 132.8 1024.3 111.5 1061.1 111.5 1053.9 89.9 1031.2 89.9 1050.6 30.5 1069.9 89.9 1069.9 89.9 1076.8 111.5 1076.9 111.5 1083.8 132.8"/>
    <rect x="566.9" y="45.1" width="30.3" height="87.8"/>
    <rect x="528.4" y="4.5" width="107.4" height="25.2"/>
    <path d="M828,87.9l-45.3-83.4h32l28.4,56.8,27.1-56.8h32.5l-44.4,83.4v44.6h-30.4v-44.6Z"/>
  </g>
  <circle class="st0" cx="943.2" cy="68.5" r="23.1"/>
</svg>