<?xml version="1.0" encoding="UTF-8"?>
<svg id="Ebene_1" xmlns="http://www.w3.org/2000/svg" version="1.1" viewBox="0 0 360 144">
  <!-- Generator: Adobe Illustrator 30.2.1, SVG Export Plug-In . SVG Version: 2.1.1 Build 1)  -->
  <path d="M0,144V0h360v144H0ZM151.606,49.934l-.002-35.738-8.11-.009-.013,22.812-17.218-22.818-8.113.019v35.769s8.116.009,8.116.009l.028-23.449,17.675,23.436,7.635-.031ZM192.873,26.684c-1.262-5.206-4.882-9.249-9.849-11.168-2.544-.935-5.084-1.346-7.836-1.343l-15.724.018v35.79s16.203-.006,16.203-.006c2.361,0,4.525-.576,6.713-1.308,8.92-3.484,12.661-13.034,10.492-21.983ZM215.91,49.947v-28.637s11.836-.031,11.836-.031l-.018-7.102h-32.578s-.002,7.111-.002,7.111l11.849.018v28.658s8.914-.017,8.914-.017ZM57.622,53.512l-1.31,8.739,21.047,28.598,23.816-.003-.002-34.833c.513-21.882-17.153-39.925-38.925-39.869l.049,12.468c14.531.083,26.354,11.721,26.367,26.141l.021,23.808-4.823.047-17.535-23.808-8.705-1.29,1.307-8.762-21.069-28.616-23.827.006.006,36.103c.183,21.421,17.744,38.685,38.941,38.588l-.051-12.469c-13.95-.042-26.238-11.02-26.301-25.122l-.112-24.86,4.879.025,17.545,23.831,8.681,1.275ZM136.225,79.105l8.344.024c.136,1.938-.871,3.459-2.25,4.672-2.04,1.794-4.714,2.41-7.454,2.343-3.67-.09-6.772-2.109-8.143-5.565-1.458-3.673-1.517-7.846-.144-11.509,1.574-4.199,5.403-6.26,9.728-5.924,3.269.254,6.122,1.562,7.647,4.714l8.067-4.421c-4.609-7.013-15.488-8.68-23.208-6.648-11.292,2.973-14.758,15.273-11.653,25.316,1.547,5.003,5.291,8.709,10.251,10.309,6.282,2.027,13.911,1.774,18.838-3.539l.654,3.936,6.674-.012-.002-20.829-17.326-.002-.021,7.135ZM159.466,56.98v35.839h8.563v-35.839h-8.563ZM234.643,85.992c1.785-4.169,1.861-8.686.342-12.8-2.017-5.153-6.819-8.062-12.277-7.638-2.782.216-5.206,1.061-7.151,3.196l-.024-11.77-8.531.027-.015,35.793,8.11.007.274-2.469c1.574,2.032,3.532,2.762,5.9,3.061,5.699.72,11.045-1.968,13.373-7.406ZM280.473,56.973h-8.553v35.862h8.553v-35.862ZM193.859,92.455c5.266-1.778,8.41-6.235,8.847-11.587.574-7.032-3.781-13.281-10.711-14.849-3.289-.744-6.627-.678-9.866.24-6.378,1.809-10.236,7.567-9.856,14.154.343,5.953,4.067,10.904,9.899,12.444,3.836,1.013,7.81.907,11.687-.402ZM245.282,92.953c4.494,1.281,10.249.341,13.314-3.366,1.894,3.922,5.724,4.536,9.573,3.354l-.008-5.212-1.505-.17c-.304-.034-.637-.744-.639-1.053l-.084-12.331c-.025-3.646-2.339-6.595-5.795-7.672-6.867-2.14-18.782-1.471-19.473,8.198l8.266.006c.527-1.178,1.236-2.224,2.569-2.555,1.999-.496,5.832-.359,6.129,1.892.564,4.287-6.054,1.3-13.308,3.688-3.22,1.06-5.045,3.654-5.054,6.994-.01,3.802,2.153,7.125,6.016,8.226ZM249.526,116.377l2.891-.035-.008-2.263-2.781-.092c-.253-.604-.136-1.812.475-2.139.731-.391,1.524-.28,2.46-.158l.055-2.257c-1.227-.25-2.529-.363-3.706.072-1.874.692-2.43,2.562-2.223,4.487l-2.267.09-.003,2.246,2.23.048.034,9.396,2.827-.012.015-9.383ZM138.273,125.788l2.808-.019.008-7.944c.001-1.378-.573-2.774-1.75-3.489-1.821-1.107-3.834-.716-5.505.634l-.067-5.563-2.834.056.006,16.307,2.829.01.065-6.751c.011-1.193.862-2.407,2.005-2.651.55-.118,1.499.088,1.839.412.283.269.581,1.024.582,1.485l.014,7.513ZM261.684,114.85c.526-1.958,2.376-3.013,4.28-2.667,1.55.281,2.466,1.365,2.619,2.987l2.96.003c-.13-3.425-2.929-5.778-6.349-5.743-2.909.03-5.362,1.664-6.288,4.515-.785,2.418-.773,5.161-.018,7.598.895,2.889,3.37,4.551,6.311,4.574,3.378.026,6.127-2.308,6.341-5.723l-2.855-.008c-.275.704-.56,1.583-1.001,2.055-.958,1.023-2.286,1.17-3.591.815-3.164-.86-3.083-5.896-2.409-8.407ZM278.376,123.479c-.755-.174-1.079-.242-1.323-.341-.195-.08-.255-.742-.255-.964v-12.748s-2.881.022-2.881.022l-.002,13.448c0,1.016.432,2.129,1.354,2.607.959.497,2.029.465,3.065.286l.042-2.31ZM305.438,109.44l-3.097.005.005,2.942,3.097-.005-.005-2.942ZM124.056,125.751v-13.231s4.967-.046,4.967-.046l.005-2.696-12.818-.018-.023,2.722,4.922.034.015,13.251,2.932-.015ZM169.794,119.497c2.591-.249,4.23-2.172,4.359-4.564.146-2.718-1.774-4.975-4.603-5.1-2.444-.108-4.887-.07-7.349-.051v15.974s2.876.026,2.876.026l.056-6.163c1.742-.012,3.08.031,4.661-.121ZM315.35,125.715l-.126-2.527c-.857.197-2.509.367-2.63-.607-.252-2.036-.136-4.046-.145-6.177l2.853-.072-.04-2.287-2.797-.025-.047-3.653-2.799.689.007,2.951-2.224.064v2.258s2.209.084,2.209.084l.055,6.707c.01,1.275,1.095,2.398,2.268,2.654s2.148.159,3.416-.056ZM151.678,122.241c-.576,1.362-1.921,1.866-3.277,1.457-1.173-.353-2.089-1.658-1.886-2.965l7.964-.021c.21-1.781.018-3.516-1.017-4.944-1.313-1.812-3.514-2.416-5.809-1.87-3.299.784-4.664,4.655-3.834,7.995.758,3.052,3.641,4.734,6.691,4.081,1.906-.408,3.463-1.711,3.703-3.675l-2.534-.058ZM186.907,119.628c-.116-3.517-2.513-6.033-5.956-5.937-3.306.093-5.41,2.606-5.566,5.811-.176,3.64,2.06,6.589,5.687,6.627,3.497.037,5.96-2.717,5.835-6.501ZM214.326,122.244c-.582,1.372-1.91,1.861-3.288,1.447-1.155-.347-2.065-1.644-1.875-2.959l7.972-.019c.242-1.898-.036-3.755-1.22-5.209-1.172-1.438-2.919-1.943-4.802-1.76-1.461.141-3.01.983-3.911,2.503-1.287,2.172-1.333,4.937-.095,7.17,1.2,2.165,3.654,3.051,6.036,2.559,1.927-.398,3.481-1.72,3.724-3.682l-2.542-.05ZM222.621,125.76l.028-6.273c.004-.879.59-2.022,1.19-2.405.797-.509,1.738-.543,2.789-.487l.007-2.637c-1.677-.36-3.093.231-4.112,1.487l-.346-1.411-2.433.071.005,11.672,2.872-.016ZM243.089,119.629c-.112-3.421-2.386-5.917-5.725-5.94-3.518-.024-5.743,2.668-5.804,6.068-.065,3.626,2.293,6.437,5.902,6.364,3.416-.069,5.749-2.799,5.628-6.492ZM287.526,124.422c.856,2.246,3.379,1.444,3.443,1.262.19-.537.312-1.83-.018-1.983l-.861-.4-.089-5.889c-.021-1.388-.921-2.707-2.144-3.214-1.672-.693-3.567-.673-5.186.026-1.403.605-2.359,1.766-2.309,3.332l2.696.013c.215-1.293,1.131-1.743,2.326-1.66.521.036,1.332.36,1.584.719.295.42.388,1.414.146,1.759l-3.998.404c-1.946.197-3.233,1.805-3.271,3.481-.043,1.877,1.199,3.341,3.089,3.724,1.748.354,3.392-.094,4.592-1.573ZM296.343,125.775l.034-6.294c.005-.868.582-1.983,1.167-2.378.743-.501,1.709-.566,2.789-.538l-.005-2.602c-1.747-.34-3.271.197-4.113,1.758l-.259-1.662-2.466.02-.002,11.688,2.855.008ZM202.148,114.061l-1.764,7.555-2.593-7.448-2.418-.044-2.589,7.484-1.841-7.544-2.852.048,3.017,11.64c1.003.03,1.972.019,2.812-.045l2.648-7.939,2.704,7.99,2.805-.005,2.877-11.674-2.807-.018ZM305.344,114.032h-2.901v11.764h2.901v-11.764ZM322.886,127.898l5.233-13.814-2.9-.029-2.818,8.213-3.127-8.242-3.091.063,4.633,11.409c-.249.808-.633,1.834-1.159,2.392-.692.736-1.785.494-2.711.405l-.035,2.234c2.474.94,4.976.003,5.974-2.632ZM331.402,122.345h-3.441v3.449h3.441v-3.449Z" fill="#fff"/>
  <path d="M57.622,53.512l8.705,1.29,17.535,23.808,4.823-.047-.021-23.808c-.013-14.421-11.836-26.059-26.367-26.141l-.049-12.468c21.773-.057,39.439,17.987,38.925,39.869l.002,34.833-23.816.003-21.047-28.598,1.31-8.739Z" fill="#008938"/>
  <path d="M57.622,53.512l-8.681-1.275-17.545-23.831-4.879-.025.112,24.86c.063,14.102,12.351,25.08,26.301,25.122l.051,12.469c-21.197.097-38.759-17.166-38.941-38.588l-.006-36.103,23.827-.006,21.069,28.616-1.307,8.762Z" fill="#0c3f85"/>
  <path d="M136.225,79.105l.021-7.135,17.326.002.002,20.829-6.674.012-.654-3.936c-4.927,5.312-12.556,5.565-18.838,3.539-4.96-1.6-8.705-5.306-10.251-10.309-3.105-10.043.361-22.343,11.653-25.316,7.721-2.033,18.599-.366,23.208,6.648l-8.067,4.421c-1.525-3.152-4.378-4.459-7.647-4.714-4.325-.336-8.154,1.725-9.728,5.924-1.373,3.662-1.314,7.836.144,11.509,1.372,3.456,4.473,5.475,8.143,5.565,2.74.067,5.414-.549,7.454-2.343,1.38-1.213,2.387-2.734,2.25-4.672l-8.344-.024Z" fill="#0c3f85"/>
  <polygon points="151.606 49.934 143.971 49.965 126.296 26.53 126.268 49.979 118.152 49.97 118.152 14.201 126.264 14.182 143.482 36.999 143.494 14.187 151.604 14.196 151.606 49.934" fill="#0c3f85"/>
  <path d="M192.873,26.684c2.17,8.949-1.572,18.499-10.492,21.983-2.189.731-4.352,1.307-6.713,1.308l-16.202.006V14.19s15.723-.018,15.723-.018c2.751-.003,5.291.408,7.836,1.343,4.967,1.92,8.587,5.963,9.849,11.168ZM183.361,36.852c.925-2.981.985-5.901.333-8.812-.9-4.017-4.154-6.627-8.302-6.867-2.341-.136-4.675-.103-7.017-.02l.008,21.854c2.559.016,4.871.081,7.248-.085,3.67-.256,6.629-2.517,7.731-6.07Z" fill="#0c3f85"/>
  <path d="M234.643,85.992c-2.328,5.438-7.673,8.125-13.373,7.406-2.367-.299-4.326-1.029-5.9-3.061l-.274,2.469-8.11-.007.015-35.793,8.531-.027.024,11.77c1.945-2.135,4.369-2.98,7.151-3.196,5.458-.423,10.259,2.486,12.277,7.638,1.519,4.115,1.442,8.632-.342,12.8ZM221.16,86.789c2.499.02,4.521-1.273,5.424-3.526.92-2.296.964-4.857.218-7.21-.854-2.693-3.26-4.051-6.023-3.871-2.414.157-4.389,1.471-5.044,3.875-.595,2.182-.637,4.544.011,6.724.736,2.479,2.77,3.989,5.413,4.009Z" fill="#0c3f85"/>
  <path d="M245.282,92.953c-3.863-1.101-6.025-4.423-6.016-8.226.009-3.34,1.833-5.934,5.054-6.994,7.253-2.388,13.872.599,13.308-3.688-.296-2.251-4.13-2.388-6.129-1.892-1.333.331-2.042,1.377-2.569,2.555l-8.266-.006c.692-9.669,12.606-10.339,19.473-8.198,3.456,1.077,5.77,4.026,5.795,7.672l.084,12.331c.002.309.334,1.018.639,1.053l1.505.17.008,5.212c-3.849,1.182-7.679.568-9.573-3.354-3.065,3.707-8.82,4.647-13.314,3.366ZM255.676,86.348c1.684-1.191,2.065-3.204,1.929-5.089-2.734.12-9.728-1.021-9.984,2.863-.086,1.31.564,2.562,1.966,2.996,1.929.598,4.316.484,6.089-.77Z" fill="#0c3f85"/>
  <path d="M193.859,92.455c-3.877,1.309-7.851,1.415-11.687.402-5.833-1.54-9.556-6.491-9.899-12.444-.38-6.587,3.478-12.345,9.856-14.154,3.239-.918,6.577-.985,9.866-.24,6.93,1.568,11.285,7.817,10.711,14.849-.437,5.352-3.582,9.809-8.847,11.587ZM188.043,86.864c2.429-.182,4.237-1.587,5.034-3.753.88-2.393.817-5.056-.14-7.413-.932-2.295-3.051-3.558-5.494-3.556-2.524.002-4.669,1.338-5.567,3.719-.847,2.246-.874,4.737-.069,7.009.931,2.63,3.309,4.213,6.236,3.994Z" fill="#0c3f85"/>
  <polygon points="215.91 49.947 206.997 49.965 206.996 21.307 195.147 21.289 195.149 14.178 227.727 14.178 227.745 21.28 215.91 21.31 215.91 49.947" fill="#0c3f85"/>
  <rect x="159.466" y="56.98" width="8.563" height="35.839" fill="#0c3f85"/>
  <rect x="271.92" y="56.973" width="8.553" height="35.862" fill="#0c3f85"/>
  <path d="M202.148,114.061l2.807.018-2.877,11.674-2.805.005-2.704-7.99-2.648,7.939c-.84.064-1.809.075-2.812.045l-3.017-11.64,2.852-.048,1.841,7.544,2.589-7.484,2.418.044,2.593,7.448,1.764-7.555Z" fill="#008938"/>
  <path d="M261.684,114.85c-.674,2.51-.755,7.546,2.409,8.407,1.305.355,2.634.208,3.591-.815.441-.471.726-1.351,1.001-2.055l2.855.008c-.215,3.415-2.964,5.748-6.341,5.723-2.941-.022-5.415-1.684-6.311-4.574-.755-2.437-.768-5.18.018-7.598.926-2.851,3.379-4.486,6.288-4.515,3.42-.035,6.219,2.318,6.349,5.743l-2.96-.003c-.153-1.622-1.069-2.706-2.619-2.987-1.904-.346-3.754.709-4.28,2.667Z" fill="#008938"/>
  <path d="M169.794,119.497c-1.582.152-2.919.109-4.661.121l-.056,6.163-2.875-.026v-15.974c2.462-.019,4.905-.057,7.349.051,2.828.125,4.749,2.382,4.603,5.1-.129,2.392-1.767,4.315-4.359,4.564ZM168.961,116.981c1.474-.021,2.265-1.183,2.236-2.376-.029-1.163-.865-2.214-2.255-2.234l-3.839-.056.014,4.719,3.846-.054Z" fill="#008938"/>
  <path d="M138.273,125.788l-.014-7.513c0-.461-.299-1.216-.582-1.485-.34-.324-1.288-.529-1.839-.412-1.143.244-1.993,1.458-2.005,2.651l-.065,6.751-2.829-.01-.006-16.307,2.834-.056.067,5.563c1.671-1.35,3.684-1.741,5.505-.634,1.177.715,1.751,2.111,1.75,3.489l-.008,7.944-2.808.019Z" fill="#008938"/>
  <path d="M287.526,124.422c-1.199,1.478-2.844,1.927-4.592,1.573-1.89-.383-3.132-1.847-3.089-3.724.038-1.677,1.325-3.285,3.271-3.481l3.998-.404c.242-.345.149-1.338-.146-1.759-.252-.359-1.063-.682-1.584-.719-1.194-.084-2.111.367-2.326,1.66l-2.696-.013c-.05-1.566.906-2.726,2.309-3.332,1.618-.698,3.514-.719,5.186-.026,1.223.507,2.123,1.826,2.144,3.214l.089,5.889.861.4c.33.154.208,1.446.018,1.983-.064.182-2.587.984-3.443-1.262ZM284.303,123.807c.973.039,1.961-.342,2.387-.925.488-.667.592-1.452.544-2.345l-3.244.278c-.865.074-1.462.916-1.346,1.701.092.625.689,1.253,1.659,1.291Z" fill="#008938"/>
  <path d="M322.886,127.898c-.998,2.635-3.5,3.572-5.974,2.632l.035-2.234c.926.089,2.019.331,2.711-.405.525-.558.91-1.584,1.159-2.392l-4.633-11.409,3.091-.063,3.127,8.242,2.818-8.213,2.9.029-5.233,13.814Z" fill="#008938"/>
  <path d="M151.678,122.241l2.534.058c-.24,1.964-1.797,3.267-3.703,3.675-3.049.653-5.932-1.03-6.691-4.081-.83-3.34.536-7.211,3.834-7.995,2.295-.546,4.496.058,5.809,1.87,1.035,1.428,1.226,3.163,1.017,4.944l-7.964.021c-.203,1.307.713,2.612,1.886,2.965,1.357.409,2.701-.095,3.277-1.457ZM151.727,118.618c-.081-2.066-1.408-2.784-2.952-2.606-1.193.138-2.329,1.21-2.261,2.642l5.213-.036Z" fill="#008938"/>
  <path d="M214.326,122.244l2.542.05c-.243,1.963-1.797,3.285-3.724,3.682-2.382.492-4.836-.394-6.036-2.559-1.238-2.233-1.192-4.998.095-7.17.901-1.52,2.449-2.361,3.911-2.503,1.883-.182,3.63.323,4.802,1.76,1.184,1.454,1.463,3.311,1.22,5.209l-7.972.019c-.19,1.315.72,2.612,1.875,2.959,1.378.414,2.706-.075,3.288-1.447ZM214.374,118.627c-.056-2.022-1.315-2.722-2.767-2.631-1.271.079-2.398,1.061-2.477,2.639l5.244-.008Z" fill="#008938"/>
  <path d="M186.907,119.628c.125,3.784-2.338,6.537-5.835,6.501-3.627-.038-5.863-2.987-5.687-6.627.155-3.205,2.259-5.718,5.566-5.811,3.443-.096,5.84,2.42,5.956,5.937ZM183.843,121.268c.133-.886.128-1.891.014-2.683-.216-1.506-1.429-2.407-2.774-2.386-1.271.02-2.381.862-2.641,2.282-.17.929-.162,2.051.035,2.978.302,1.42,1.509,2.21,2.821,2.147,1.171-.056,2.321-.847,2.544-2.338Z" fill="#008938"/>
  <path d="M243.089,119.629c.121,3.694-2.212,6.423-5.628,6.492-3.608.073-5.967-2.738-5.902-6.364.061-3.401,2.286-6.092,5.804-6.068,3.34.023,5.613,2.519,5.725,5.94ZM239.913,121.708c.302-1.081.291-2.329.089-3.32-.292-1.43-1.441-2.203-2.748-2.185-1.236.016-2.385.853-2.622,2.275-.347,2.087-.124,4.882,2.383,5.111,1.197.109,2.491-.425,2.898-1.88Z" fill="#008938"/>
  <polygon points="124.056 125.751 121.124 125.766 121.109 112.515 116.187 112.481 116.21 109.759 129.028 109.777 129.023 112.474 124.056 112.52 124.056 125.751" fill="#008938"/>
  <path d="M249.526,116.377l-.015,9.383-2.827.012-.034-9.396-2.23-.048.003-2.246,2.267-.09c-.207-1.925.349-3.795,2.223-4.487,1.176-.434,2.478-.322,3.706-.072l-.055,2.257c-.936-.123-1.729-.233-2.46.158-.61.326-.727,1.534-.475,2.139l2.781.092.008,2.263-2.891.035Z" fill="#008938"/>
  <path d="M315.35,125.715c-1.269.215-2.249.31-3.416.056s-2.258-1.378-2.268-2.654l-.055-6.707-2.208-.084v-2.258s2.223-.064,2.223-.064l-.007-2.951,2.799-.689.047,3.653,2.797.025.04,2.287-2.853.072c.009,2.131-.108,4.141.145,6.177.121.974,1.773.804,2.63.607l.126,2.527Z" fill="#008938"/>
  <path d="M278.376,123.479l-.042,2.31c-1.036.179-2.106.211-3.065-.286-.922-.478-1.354-1.59-1.354-2.607l.002-13.448,2.882-.022v12.748c-.001.222.059.884.254.964.244.1.568.167,1.323.341Z" fill="#008938"/>
  <path d="M222.621,125.76l-2.872.016-.005-11.672,2.433-.071.346,1.411c1.018-1.255,2.435-1.847,4.112-1.487l-.007,2.637c-1.051-.056-1.992-.022-2.789.487-.6.383-1.186,1.526-1.19,2.405l-.028,6.273Z" fill="#008938"/>
  <path d="M296.343,125.775l-2.855-.008.002-11.688,2.466-.02.259,1.662c.842-1.56,2.366-2.097,4.113-1.758l.005,2.602c-1.08-.028-2.046.036-2.789.538-.585.395-1.162,1.51-1.167,2.378l-.034,6.294Z" fill="#008938"/>
  <rect x="302.443" y="114.032" width="2.901" height="11.764" fill="#008938"/>
  <rect x="327.961" y="122.345" width="3.441" height="3.449" fill="#008938"/>
  <rect x="302.344" y="109.442" width="3.097" height="2.942" transform="translate(-.194 .532) rotate(-.1)" fill="#008938"/>
  <path d="M183.361,36.852c-1.102,3.552-4.061,5.814-7.731,6.07-2.377.165-4.69.101-7.248.085l-.008-21.854c2.342-.083,4.676-.115,7.017.02,4.148.24,7.403,2.85,8.302,6.867.652,2.911.591,5.831-.333,8.812Z" fill="#fff"/>
  <path d="M221.16,86.789c-2.643-.021-4.677-1.53-5.413-4.009-.647-2.18-.606-4.541-.011-6.724.655-2.404,2.631-3.718,5.044-3.875,2.763-.18,5.169,1.178,6.023,3.871.746,2.353.702,4.914-.218,7.21-.903,2.253-2.925,3.546-5.424,3.526Z" fill="#fff"/>
  <path d="M255.676,86.348c-1.773,1.254-4.159,1.367-6.089.77-1.403-.434-2.053-1.687-1.966-2.996.256-3.884,7.25-2.743,9.984-2.863.136,1.886-.246,3.899-1.929,5.089Z" fill="#fff"/>
  <path d="M188.043,86.864c-2.927.219-5.305-1.364-6.236-3.994-.805-2.272-.778-4.763.069-7.009.898-2.382,3.042-3.717,5.567-3.719,2.443-.002,4.562,1.261,5.494,3.556.957,2.357,1.02,5.02.14,7.413-.797,2.167-2.605,3.571-5.034,3.753Z" fill="#fff"/>
  <path d="M168.961,116.981l-3.846.054-.014-4.719,3.839.056c1.39.02,2.226,1.071,2.255,2.234.03,1.193-.761,2.355-2.236,2.376Z" fill="#fff"/>
  <path d="M284.303,123.807c-.969-.039-1.566-.667-1.659-1.291-.116-.785.482-1.627,1.346-1.701l3.244-.278c.047.893-.057,1.679-.544,2.345-.427.583-1.415.964-2.387.925Z" fill="#fff"/>
  <path d="M151.727,118.618l-5.213.036c-.068-1.432,1.068-2.504,2.261-2.642,1.544-.178,2.871.54,2.952,2.606Z" fill="#fff"/>
  <path d="M214.374,118.627l-5.244.008c.079-1.578,1.206-2.56,2.477-2.639,1.451-.09,2.711.609,2.767,2.631Z" fill="#fff"/>
  <path d="M183.843,121.268c-.223,1.491-1.373,2.282-2.544,2.338-1.312.063-2.519-.727-2.821-2.147-.197-.926-.205-2.049-.035-2.978.26-1.42,1.37-2.262,2.641-2.282,1.344-.021,2.558.88,2.774,2.386.113.792.118,1.797-.014,2.683Z" fill="#fff"/>
  <path d="M239.913,121.708c-.407,1.455-1.701,1.989-2.898,1.88-2.507-.229-2.729-3.024-2.383-5.111.236-1.422,1.385-2.258,2.622-2.275,1.306-.017,2.455.756,2.748,2.185.203.992.214,2.239-.089,3.32Z" fill="#fff"/>
</svg>