<svg id="RGB" xmlns="http://www.w3.org/2000/svg" viewBox="0 0 1080 360"><defs><style>.cls-1{fill:#003087;}.cls-2{fill:#009739;}</style></defs><path class="cls-1" d="M134.83,42.24H47v132c0,79.12,64.37,143.49,143.49,143.49V271.8A97.66,97.66,0,0,1,93,174.25v-87h18l64.82,88,32.07,4.77,4.78-32.2Z"/><path class="cls-2" d="M225,42.24V88.18a97.66,97.66,0,0,1,97.54,97.55v87H304.57L239.8,184.8l-32-4.75L203,212.33l77.62,105.41h87.81v-132C368.44,106.61,304.07,42.24,225,42.24Z"/><path class="cls-1" d="M583.7,35h58C684.49,35,709,62.8,709,98.86c0,41-29,68.13-68.21,68.13H583.7Zm32.74,106.44h21.13c24.48,0,37.07-15.07,37.07-41.95,0-22.66-11.19-38.81-36.83-39.05H616.44Z"/><path class="cls-1" d="M759.13,61.16H715.26V35H835.57V61.16H791.88V167H759.13Z"/><path class="cls-1" d="M583.74,325V193h31.38V325Z"/><path class="cls-1" d="M743.29,275.91c0,30.52-21.07,51.7-57.24,51.7-36.54,0-55.16-24.34-55.16-51.65,0-26.95,19.23-51.55,56.46-51.55C725.47,224.41,743.29,251.39,743.29,275.91Zm-79.4,0c0,15,8,27.31,23.22,27.31,15.66,0,22.85-12.24,22.85-26.79s-6.76-27.66-23.06-27.66C671.14,248.79,663.89,261.06,663.89,275.93Z"/><path class="cls-1" d="M759.13,193h31.38v43.92c4.6-5.73,13.12-12.44,30.51-12.44,26.66,0,45.15,21.06,45.15,49.64,0,31.77-19.69,53.4-47.5,53.4-17.11,0-24.51-5.8-29.13-12.43,0,2.48-.31,7.65-.63,9.91H759c.18-13.14.18-21.62.18-32.34Zm74.92,82.27c0-14.15-6.48-26.34-22.09-26.34-15.85,0-22.39,10.06-22.39,27.19,0,15.06,6.67,26.76,22.08,26.76C826.56,302.87,834.05,291.17,834.05,275.26Z"/><path class="cls-1" d="M976.68,297.75c0,3.55-.52,10.29,8,8.25.1,7.67.06,15,0,19.62,0,0-26.26,9-35.18-13.07-4.71,7.27-17.21,15-35,15-25.7,0-36.3-16.05-36.3-31.66,0-24.68,21-30.51,51.66-30.51,11.07,0,16.15-1.13,16.15-8.06,0-5.44-4.48-9.44-15.93-9.44-12,0-15.61,7.08-15.8,10.41l-31.07,0c1-14,10.56-33.81,46.89-33.74,37.87.06,46.55,17.1,46.55,35.87ZM946,282.34c-2.13-.12-8.28-.12-16.44-.12-15.18,0-20.71,4.33-20.71,11.92,0,6.14,4.57,11.23,14.73,11.23,15.93,0,22.42-8.31,22.42-21.44Z"/><path class="cls-1" d="M998.72,325V193h31.37V325Z"/><polygon class="cls-1" points="554.56 34.99 524.82 34.99 524.74 34.99 524.82 119.59 461.06 34.99 431.18 34.99 431.18 166.99 461.06 166.99 461.06 80.16 526.5 166.99 554.56 166.99 554.56 34.99"/><path class="cls-1" d="M497.94,274.47h30.85v1.84c0,9.48-11.14,24.26-34.22,24.26-25.07,0-36-19.57-36-43.09,0-24.07,13.18-41.94,35.23-41.94,19.48,0,26.77,7.34,32.66,17.3l29.7-16.23c-10.39-15.69-32.9-27.4-62.56-27.4-44.76,0-70,29.28-70,70.13,0,42.78,25.77,68.49,70.07,68.49,17.36,0,33-7.8,41.24-17.83l2.23,15h24.68V248.27H497.94Z"/></svg>