<?xml version="1.0" encoding="UTF-8"?><svg id="Ebene_2" xmlns="http://www.w3.org/2000/svg" viewBox="0 0 370.37 97.9"><defs><style>.cls-1{fill:#002948;}</style></defs><g id="Nesto_Wort-Bildmarke"><g id="Nesto_Wort-Bildmarke-2"><path class="cls-1" d="M45.87,57.86c0-3.96-1.01-7-3.03-9.13-2.02-2.13-4.9-3.19-8.63-3.19s-6.73,1.06-8.75,3.19c-2.02,2.13-3.02,5.17-3.02,9.13v29.04h-12.54v-27.94c0-3.45-.9-6.4-2.69-8.85-1.8-2.46-4.2-3.98-7.21-4.57v-11.99c3.67.29,6.95,1.21,9.84,2.75,2.9,1.54,5.15,3.67,6.77,6.38,1.69-2.79,4.27-5,7.75-6.65,3.48-1.65,7.39-2.48,11.72-2.48s8.18.88,11.55,2.64c3.37,1.76,6.01,4.18,7.92,7.26,1.91,3.08,2.86,6.53,2.86,10.34v33.11h-12.54v-29.04Z"/><path class="cls-1" d="M76.01,0h6.82v97.9h-6.82V0Z"/><path class="cls-1" d="M111.32,23.76h-.11v63.14h-10.78V11h15.29l35.31,60.17h.11V11h10.78v75.9h-13.53l-37.07-63.14Z"/><path class="cls-1" d="M181.44,80.69c-4.58-4.88-6.88-11.49-6.88-19.85,0-5.57,1.03-10.41,3.08-14.52,2.05-4.11,4.97-7.26,8.74-9.46,3.78-2.2,8.2-3.3,13.26-3.3,7.26,0,12.98,2.24,17.16,6.71,4.18,4.47,6.27,10.52,6.27,18.15v4.62h-37.84c.29,5.35,1.65,9.46,4.07,12.32,2.42,2.86,5.83,4.29,10.23,4.29,3.59,0,6.54-.86,8.85-2.58,2.31-1.72,3.69-4.09,4.12-7.09l10.23.77c-.73,5.13-2.99,9.29-6.76,12.48-3.78,3.19-8.97,4.79-15.57,4.79-8.07,0-14.39-2.44-18.97-7.32ZM212.63,55.33c-.22-4.11-1.49-7.37-3.79-9.79-2.31-2.42-5.52-3.63-9.62-3.63s-7.1,1.14-9.41,3.41c-2.31,2.27-3.76,5.61-4.34,10.01h27.17Z"/><path class="cls-1" d="M237.43,83.77c-3.56-2.82-5.52-6.76-5.88-11.82l10.34-.77c.29,2.71,1.38,4.8,3.25,6.27,1.87,1.47,4.53,2.2,7.97,2.2,3.74,0,6.47-.79,8.2-2.36,1.72-1.58,2.58-3.39,2.58-5.45,0-2.35-1.03-4-3.08-4.95-2.05-.95-5.24-1.83-9.57-2.64-3.96-.73-7.15-1.52-9.57-2.37-2.42-.84-4.51-2.24-6.27-4.18-1.76-1.94-2.64-4.64-2.64-8.09,0-4.99,1.85-8.91,5.55-11.77,3.7-2.86,8.78-4.29,15.24-4.29,5.87,0,10.49,1.21,13.86,3.63,3.37,2.42,5.24,5.79,5.61,10.12l-10.34.77c-.66-4.11-3.89-6.16-9.68-6.16-3.15,0-5.59.59-7.32,1.76-1.72,1.17-2.58,2.71-2.58,4.62,0,2.13,1.01,3.67,3.03,4.62,2.02.95,5.11,1.87,9.29,2.75,3.96.88,7.19,1.76,9.68,2.64,2.49.88,4.64,2.33,6.44,4.34,1.8,2.02,2.69,4.71,2.69,8.09,0,5.06-1.96,9.2-5.88,12.43-3.92,3.23-9.29,4.84-16.12,4.84-6.31,0-11.24-1.41-14.79-4.24Z"/><path class="cls-1" d="M294.63,84.7c-2.46-2.2-3.69-5.13-3.69-8.8v-33.55h-9.9v-7.7h9.9v-10.45l10.34-4.4v14.85h12.65v7.7h-12.65v30.69c0,1.98.49,3.5,1.48,4.57.99,1.06,2.44,1.59,4.34,1.59,1.69,0,3.7-.37,6.05-1.1v8.8c-3.3.73-6.16,1.1-8.58,1.1-4.18,0-7.5-1.1-9.96-3.3Z"/><path class="cls-1" d="M326.2,80.69c-4.58-4.88-6.88-11.49-6.88-19.85s2.29-15.09,6.88-19.97c4.58-4.88,10.8-7.32,18.64-7.32s14.06,2.44,18.65,7.32c4.58,4.88,6.88,11.53,6.88,19.97s-2.29,14.98-6.88,19.85c-4.58,4.88-10.8,7.32-18.65,7.32s-14.06-2.44-18.64-7.32ZM355.9,74.75c2.6-3.26,3.91-7.9,3.91-13.92s-1.3-10.76-3.91-14.03c-2.6-3.26-6.29-4.89-11.05-4.89s-8.45,1.63-11.05,4.89c-2.6,3.26-3.91,7.94-3.91,14.03s1.3,10.65,3.91,13.92c2.6,3.26,6.29,4.89,11.05,4.89s8.45-1.63,11.05-4.89Z"/></g></g></svg>