<?xml version="1.0" encoding="UTF-8"?>
<svg id="uuid-d642c745-9b1b-4a87-a893-17ea0dff13b4" data-name="Ebene 1" xmlns="http://www.w3.org/2000/svg" viewBox="0 0 1241.88 413.96">
  <path d="M1241.88,0v413.96H0V0h1241.88ZM693.93,39.53c-82.92,6.32-128.41,102.26-82.4,171.68,43.93,66.27,143.07,65.84,185.63-1.53,49.48-78.33-11.54-177.14-103.23-170.15ZM39.67,48.99h-11.38v206.29h14.49l-.68-173.17,84.86,173.17h10c.07,0,1.03-.96,1.03-1.03V48.99h-15.18l.34,166.97L39.67,48.99ZM185.59,48.99h-13.45c-.57,0-1.22,1.67-1.07,2.38,2.12,49.52-2.7,101.21,0,150.47,2.06,37.46,23.73,55.84,61.12,53.47,29.34-1.85,46.8-21.09,48.64-50.02l-.03-156.3h-14.49v156.27c0,15.76-11.42,30.92-26.77,34.64-32.11,7.77-55.05-9.71-53.98-42.89l.03-148.02ZM327.03,48.99h-12.42v206.29h14.49V85.55l53.46,106.26,52.79-106.26v169.72h14.49V50.02c0-.07-.96-1.03-1.03-1.03h-11.04l-55.2,113.16-55.53-113.16ZM599.55,48.99h-106.25v206.29h22.77v-93.14h46.92v-21.39h-46.92v-68.65c0-.07.96-1.03,1.03-1.03h82.45v-22.08ZM947.97,203.53h-22.42c-1.58,2.12-1.29,5.53-2.06,8.29-3.88,13.91-12.44,20.34-26.89,21.41-25.23,1.87-41.4-6.83-43.18-33.46-2.05-30.7,1.62-63.64,0-94.58,1.11-15.17,7.11-28.33,22.95-32.25,11.27-2.79,28.39-2.01,38.02,5.14,7.18,5.34,9.69,13.8,10.77,22.35l22.82-.39c.55-39.15-36.67-55.44-71.22-50.18-27.78,4.23-44.4,24.92-46.1,52.56-2.02,32.84,1.61,67.73,0,100.79,2.48,28.25,18.73,48.11,47.39,51.96,34.48,4.63,71.35-12.66,69.93-51.65ZM1149.29,49.19c-34.7,3.07-54.31,29.75-47.85,63.99,10.23,54.19,91.71,29.06,88.72,87.96-1.57,30.86-32.04,37.67-57.26,29.61-7.29-2.33-11.87-6.42-17.5-11.26-1.51.13-14.95,13.57-14.86,14.62,7.99,12.82,25.85,19.17,40.35,21.08,36.53,4.82,69.07-10.97,72-50.63,2.22-30.07-7.6-50.79-34.93-63.71-22.89-10.82-63.67-14.55-53.33-50.77,6.13-21.47,37.32-21.25,54.62-16.06,2.78.84,11.33,5.16,13.18,4.56.98-.31,10.94-15.98,11.23-17.17.52-2.1-2.97-3.6-4.54-4.5-13.15-7.52-34.95-9.03-49.83-7.72ZM985.92,50.37h-22.77l-.03,148.71c-1.62,75.92,118.75,76.44,118.04.69l-.03-149.4h-22.77v150.06c0,15.26-10.63,28.84-25.4,31.86-24.04,4.93-47.04-5.46-47.04-32.55V50.37ZM95.04,308.58c-7.23.99-11.81,4.8-13.81,11.72-2.02,7.01-2.12,35.52-.03,42.47,5.04,16.74,32.7,16.27,37.26-.41,1.73-6.33,1.65-31.24.82-38.36-1.52-13.02-12.47-17.03-24.24-15.42ZM332.55,332.55v-10.69c0-.85-1.86-5.43-2.46-6.51-4.41-7.92-18.32-8.54-25.83-5.22-6.1,2.69-8.54,9.55-9,15.84-.61,8.44-.85,24.88.1,33.07,1.66,14.21,16.33,19.19,28.4,14.06,4.26-1.81,8.78-8.05,8.78-12.61v-10.69h-9.66v10.69c0,1.84-2.05,5.61-4.1,6.25-6.99,2.18-12.31-.26-13.15-7.62-.94-8.29-.65-25.28-.03-33.84.13-1.84.25-4.14,1.12-5.78,3.04-5.75,16.16-4.82,16.16,2.36v10.69h9.66ZM379.22,370.25c2.71-2.69,4.69-8.05,5.07-11.83.82-8.25.75-24.81.03-33.14-.85-9.9-6.13-16.07-16.21-16.9-12.85-1.06-21.64,3.45-23.05,17.01-.84,8.12-1,33.06,1.97,39.95,4.76,11.05,24.54,12.52,32.2,4.91ZM899.68,325.65c.07-24.31-39.35-23.28-35.03,2.25,2.11,12.49,26.21,19.26,26.56,31.4.2,6.77-4.37,8.75-10.48,7.71-5.19-.89-7.06-8.57-7.3-13.05l-8.92,1.4c-1.91,25.31,39.54,27.14,35.78-.32-1.84-13.42-25.87-21.61-26.82-31.19-.72-7.36,5.89-9.02,11.87-7.67,3.84.87,5.14,7.43,5.36,10.84l8.96-1.37ZM948.66,332.55v-11.38c0-.79-2.69-6.61-3.45-7.59-4.61-5.87-16.73-6.37-23.24-3.93-6.57,2.47-9.78,8.28-10.48,15.05-.79,7.56-.97,32.17,1.09,38.76,4.27,13.64,27.87,15.53,33.89,3.81.47-.92,2.19-5.47,2.19-6.09v-11.38h-9.66v11.38c0,.21-1.43,3.36-1.74,3.78-1.92,2.58-7.29,2.59-10.19,1.94-4.3-.97-5.08-6.21-5.35-9.83-.63-8.55-.72-23.31,0-31.79.67-7.79,4.1-10.59,12.06-9.25,2.12.36,5.21,3.08,5.21,5.13v11.38h9.66ZM1116.32,332.55v-11.38c0-2.68-3.63-8.29-5.98-9.89-9.87-6.72-27-3.23-30.25,9.54-1.97,7.75-2.01,36.76.92,43.94,4.41,10.8,20.47,13.03,29.33,7.01,2.27-1.54,5.98-7.42,5.98-9.89v-12.07h-9.66v12.07c0,.24-1.93,3.41-2.4,3.81-3.31,2.94-11.96,2.04-13.83-2.77s-1.53-30.58-1.05-36.95c.27-3.66,1.06-8.87,5.35-9.83,16.98-3.81,9.61,12,12.23,15.77.96,1.39,7.4.32,9.36.65ZM143.51,344.28c11.05.18,24.13-.45,25.52-14.15.74-7.3-.8-16.13-8.1-19.48-.58-.27-4.41-1.56-4.65-1.56h-23.11v64.85h10.35v-29.67ZM208.36,309.09h-27.6v64.85h27.6v-6.21h-16.9c-.07,0-1.03-.96-1.03-1.03v-23.11h14.49v-6.21h-14.49v-21.39h17.94v-6.9ZM220.78,309.09v64.85h8.97v-42.09l19.66,41.4c1.62,1.42,5.11.4,7.25.68v-64.85h-8.97v41.4l-19.65-40.72c-1.59-1.42-5.13-.4-7.25-.68ZM398.09,373.95h22.42c.77,0,6.05-2.03,7.04-2.62,5.69-3.33,7.39-9.43,7.82-15.64.52-7.49.91-30.47-1.38-36.63-1.37-3.69-3.68-6.32-7.26-7.92-.75-.33-5.89-2.05-6.23-2.05h-22.42v64.85ZM477.44,309.09h-27.6v64.85h27.6v-6.21h-16.9c-.07,0-1.03-.96-1.03-1.03v-23.11h14.49v-6.21h-14.49v-21.39h17.94v-6.9ZM602.66,309.09c-6.79-.91-15.42.68-22.42,0v64.85h24.49c.46,0,3.75-1.33,4.52-1.69,12.02-5.65,12.46-30.17-2.1-32.82l5.45-3.17c7.51-10.01,3.58-25.37-9.94-27.18ZM658.89,309.09h-27.6v64.85h27.6v-6.21h-16.9c-.07,0-1.03-.96-1.03-1.03v-23.11h14.49v-6.21h-14.49v-21.39h17.94v-6.9ZM701.66,309.09h-35.88v6.9h13.11v57.95h9.66v-57.95h13.11v-6.9ZM740.99,309.09h-35.19v6.9h13.11v57.95h9.66v-57.95h12.42v-6.9ZM778.94,309.09h-27.6v64.85h27.6v-6.21h-16.9c-.07,0-1.03-.96-1.03-1.03v-23.11h14.49v-6.21h-14.49v-21.39h17.94v-6.9ZM812.4,309.09c-6.52-.77-14.37.57-21.04,0v64.85h10.35v-30.36l7.67.4,8.89,29.96h10.35l-10.35-32.42c10.91-2.51,11.54-21.87,4.38-28.19-2.07-1.83-7.54-3.93-10.24-4.25ZM973.5,309.09h-10.35v64.85h10.35v-64.85ZM1016.97,309.09h-27.6v64.85h27.6v-6.21h-17.94v-24.15h14.49v-6.21h-14.49v-21.39h17.94v-6.9ZM1029.38,309.09v64.85h8.97v-42.09l19.65,41.41c1.6,1.42,5.13.4,7.25.68v-64.85h-8.97v41.4l-19.65-40.72c-1.59-1.42-5.13-.4-7.25-.68ZM1158.4,309.09h-28.29v64.85h28.29v-6.9h-17.94v-23.46h14.49v-6.21h-14.49v-21.39h17.94v-6.9ZM513.31,338.07h27.25c1.52,0,1.52-7.59,0-7.59h-26.22c-1.58,0-.94,6.21-1.03,7.59ZM540.91,344.97h-27.6v6.9h27.6v-6.9Z" fill="#fdfefe"/>
  <path d="M693.93,39.53c91.69-6.99,152.71,91.82,103.23,170.15-42.56,67.37-141.7,67.8-185.63,1.53-46.01-69.42-.53-165.36,82.4-171.68ZM700.14,58.16c-73.28,3.24-113.53,86.83-70.11,146.29,39.44,54.02,122.87,47.84,154.55-10.8,33.64-62.28-13.85-138.61-84.43-135.49Z" fill="#097e8b"/>
  <path d="M985.92,50.37v149.37c0,27.09,23,37.48,47.04,32.55,14.77-3.03,25.4-16.6,25.4-31.86V50.37h22.77l.03,149.4c.71,75.75-119.66,75.23-118.04-.69l.03-148.71h22.77Z" fill="#097e8b"/>
  <path d="M327.03,48.99l55.53,113.16,55.2-113.16h11.04c.07,0,1.03.96,1.03,1.03v205.26h-14.49V85.55l-52.79,106.26-53.46-106.26v169.72h-14.49V48.99h12.42Z" fill="#e2543e"/>
  <path d="M1149.29,49.19c14.87-1.32,36.68.2,49.83,7.72,1.57.9,5.07,2.4,4.54,4.5-.3,1.19-10.26,16.86-11.23,17.17-1.85.6-10.4-3.73-13.18-4.56-17.3-5.19-48.49-5.41-54.62,16.06-10.34,36.22,30.45,39.95,53.33,50.77,27.33,12.92,37.15,33.64,34.93,63.71-2.93,39.66-35.47,55.45-72,50.63-14.5-1.91-32.36-8.26-40.35-21.08-.1-1.05,13.35-14.48,14.86-14.62,5.63,4.83,10.21,8.93,17.5,11.26,25.22,8.06,55.7,1.25,57.26-29.61,2.99-58.9-78.49-33.77-88.72-87.96-6.47-34.24,13.15-60.92,47.85-63.99Z" fill="#097e8b"/>
  <path d="M947.97,203.53c1.42,38.98-35.45,56.28-69.93,51.65-28.65-3.85-44.91-23.72-47.39-51.96,1.6-33.06-2.03-67.95,0-100.79,1.7-27.63,18.32-48.32,46.1-52.56,34.55-5.26,71.78,11.03,71.22,50.18l-22.82.39c-1.08-8.55-3.59-17.01-10.77-22.35-9.63-7.16-26.76-7.93-38.02-5.14-15.83,3.91-21.84,17.07-22.95,32.25,1.62,30.94-2.05,63.88,0,94.58,1.78,26.63,17.95,35.33,43.18,33.46,14.44-1.07,23.01-7.5,26.89-21.41.77-2.76.48-6.17,2.06-8.29h22.42Z" fill="#097e8b"/>
  <path d="M39.67,48.99l83.48,166.97-.34-166.97h15.18v205.26c0,.07-.96,1.03-1.03,1.03h-10L42.09,82.1l.68,173.17h-14.49V48.99h11.38Z" fill="#e2543e"/>
  <path d="M599.55,48.99v22.08h-82.45c-.07,0-1.03.96-1.03,1.03v68.65h46.92v21.39h-46.92v93.14h-22.77V48.99h106.25Z" fill="#097e8b"/>
  <path d="M185.59,48.99l-.03,148.02c-1.07,33.18,21.88,50.66,53.98,42.89,15.34-3.72,26.77-18.87,26.77-34.64V48.99h14.49l.03,156.3c-1.84,28.93-19.3,48.17-48.64,50.02-37.39,2.36-59.06-16.02-61.12-53.47-2.7-49.26,2.11-100.95,0-150.47-.15-.71.5-2.38,1.07-2.38h13.45Z" fill="#e2543e"/>
  <path d="M602.66,309.09c13.51,1.82,17.45,17.18,9.94,27.18l-5.45,3.17c14.56,2.64,14.12,27.16,2.1,32.82-.77.36-4.06,1.69-4.52,1.69h-24.49v-64.85c7,.68,15.63-.91,22.42,0ZM590.58,336c9.04.49,16.64.45,16.62-10.69-.03-10.64-8.59-9.36-16.62-9.31v20.01ZM590.58,367.05h11.38c.26,0,3.36-1.92,3.81-2.4,2.96-3.13,2.75-13.04.81-16.71-2.82-5.32-10.73-4.85-16-5.04v24.15Z" fill="#097e8b"/>
  <path d="M220.78,309.09c2.13.28,5.66-.74,7.25.68l19.65,40.72v-41.4h8.97v64.85c-2.14-.28-5.64.74-7.25-.68l-19.66-41.4v42.09h-8.97v-64.85Z" fill="#097e8b"/>
  <path d="M1029.38,309.09c2.13.28,5.66-.74,7.25.68l19.65,40.72v-41.4h8.97v64.85c-2.13-.28-5.66.74-7.25-.68l-19.65-41.41v42.09h-8.97v-64.85Z" fill="#097e8b"/>
  <path d="M398.09,373.95v-64.85h22.42c.33,0,5.48,1.72,6.23,2.05,3.58,1.6,5.89,4.23,7.26,7.92,2.29,6.16,1.9,29.14,1.38,36.63-.43,6.21-2.13,12.3-7.82,15.64-1,.58-6.27,2.62-7.04,2.62h-22.42ZM408.44,315.99v50.71c0,2.39,11.05.22,12.92-.88,1.76-1.03,3.14-4.19,3.48-6.18,1.01-6.04.98-30.15.1-36.34-.42-2.99-3.31-7.3-6.49-7.3h-10Z" fill="#097e8b"/>
  <path d="M812.4,309.09c2.7.32,8.17,2.42,10.24,4.25,7.15,6.33,6.53,25.68-4.38,28.19l10.35,32.42h-10.35l-8.89-29.96-7.67-.4v30.36h-10.35v-64.85c6.67.57,14.53-.77,21.04,0ZM801.71,315.99v20.7c8.41.48,15.67.15,15.79-10.08.13-10.91-6.66-11.2-15.79-10.62Z" fill="#097e8b"/>
  <path d="M379.22,370.25c-7.66,7.61-27.44,6.13-32.2-4.91-2.97-6.89-2.81-31.82-1.97-39.95,1.41-13.56,10.2-18.07,23.05-17.01,10.08.83,15.36,7.01,16.21,16.9.72,8.32.79,24.89-.03,33.14-.38,3.78-2.36,9.14-5.07,11.83ZM371.69,317.56c-1.88-1.92-9.07-2.03-11.58-1.26-2.87.88-4.22,4.43-4.61,7.12-1.1,7.57-.88,26.42-.17,34.3.31,3.43,1.31,8.28,5.31,9.18,5.94,1.33,12.02.13,13.14-6.57,1.07-6.35,1-30.48.18-37.11-.15-1.25-1.52-4.88-2.28-5.66Z" fill="#097e8b"/>
  <path d="M95.04,308.58c11.77-1.61,22.72,2.4,24.24,15.42.83,7.12.91,32.03-.82,38.36-4.56,16.68-32.22,17.15-37.26.41-2.09-6.95-1.99-35.46.03-42.47,2-6.92,6.58-10.73,13.81-11.72ZM95.7,316.14c-3.44.77-4.88,4.8-5.24,7.87-.91,7.71-.92,27.32,0,35.03.48,4.02,2.09,7.5,6.46,8.03,6.2.75,11.09-.39,12.03-7.32.94-6.88.94-29.56,0-36.44s-7-8.56-13.25-7.16Z" fill="#097e8b"/>
  <path d="M948.66,332.55h-9.66v-11.38c0-2.05-3.09-4.78-5.21-5.13-7.96-1.34-11.39,1.46-12.06,9.25-.72,8.48-.64,23.24,0,31.79.27,3.62,1.05,8.86,5.35,9.83,2.9.65,8.27.64,10.19-1.94.31-.42,1.74-3.57,1.74-3.78v-11.38h9.66v11.38c0,.62-1.72,5.17-2.19,6.09-6.01,11.72-29.62,9.83-33.89-3.81-2.06-6.59-1.88-31.2-1.09-38.76.71-6.77,3.91-12.58,10.48-15.05,6.51-2.44,18.63-1.95,23.24,3.93.77.98,3.45,6.79,3.45,7.59v11.38Z" fill="#097e8b"/>
  <path d="M332.55,332.55h-9.66v-10.69c0-7.18-13.11-8.11-16.16-2.36-.87,1.64-.99,3.94-1.12,5.78-.62,8.56-.91,25.55.03,33.84.83,7.37,6.16,9.81,13.15,7.62,2.05-.64,4.1-4.4,4.1-6.25v-10.69h9.66v10.69c0,4.56-4.51,10.8-8.78,12.61-12.08,5.12-26.75.14-28.4-14.06-.96-8.19-.71-24.64-.1-33.07.46-6.3,2.9-13.15,9-15.84,7.51-3.31,21.41-2.69,25.83,5.22.6,1.08,2.46,5.65,2.46,6.51v10.69Z" fill="#097e8b"/>
  <path d="M1116.32,332.55c-1.96-.33-8.39.74-9.36-.65-2.62-3.77,4.75-19.58-12.23-15.77-4.29.96-5.08,6.17-5.35,9.83-.47,6.37-.8,32.18,1.05,36.95s10.52,5.7,13.83,2.77c.46-.41,2.4-3.58,2.4-3.81v-12.07h9.66v12.07c0,2.46-3.71,8.34-5.98,9.89-8.86,6.02-24.92,3.79-29.33-7.01-2.93-7.17-2.89-36.18-.92-43.94,3.25-12.77,20.37-16.25,30.25-9.54,2.35,1.6,5.98,7.2,5.98,9.89v11.38Z" fill="#097e8b"/>
  <path d="M899.68,325.65l-8.96,1.37c-.22-3.41-1.51-9.97-5.36-10.84-5.99-1.36-12.6.31-11.87,7.67.94,9.58,24.98,17.77,26.82,31.19,3.76,27.46-37.69,25.62-35.78.32l8.92-1.4c.24,4.48,2.11,12.17,7.3,13.05,6.11,1.04,10.67-.94,10.48-7.71-.36-12.14-24.45-18.9-26.56-31.4-4.32-25.53,35.1-26.56,35.03-2.25Z" fill="#097e8b"/>
  <path d="M143.51,344.28v29.67h-10.35v-64.85h23.11c.25,0,4.07,1.29,4.65,1.56,7.3,3.34,8.84,12.18,8.1,19.48-1.39,13.7-14.47,14.33-25.52,14.15ZM143.51,337.38c4.73-.04,12.98.75,15.11-4.56,1.32-3.3,1.56-12.6-1.26-15.16-1.92-1.74-13.85-3.37-13.85-1.33v21.04Z" fill="#097e8b"/>
  <polygon points="1158.4 309.09 1158.4 315.99 1140.46 315.99 1140.46 337.38 1154.95 337.38 1154.95 343.59 1140.46 343.59 1140.46 367.05 1158.4 367.05 1158.4 373.95 1130.11 373.95 1130.11 309.09 1158.4 309.09" fill="#097e8b"/>
  <path d="M778.94,309.09v6.9h-17.94v21.39h14.49v6.21h-14.49v23.11c0,.07.96,1.03,1.03,1.03h16.9v6.21h-27.6v-64.85h27.6Z" fill="#097e8b"/>
  <path d="M477.44,309.09v6.9h-17.94v21.39h14.49v6.21h-14.49v23.11c0,.07.96,1.03,1.03,1.03h16.9v6.21h-27.6v-64.85h27.6Z" fill="#097e8b"/>
  <path d="M208.36,309.09v6.9h-17.94v21.39h14.49v6.21h-14.49v23.11c0,.07.96,1.03,1.03,1.03h16.9v6.21h-27.6v-64.85h27.6Z" fill="#097e8b"/>
  <path d="M658.89,309.09v6.9h-17.94v21.39h14.49v6.21h-14.49v23.11c0,.07.96,1.03,1.03,1.03h16.9v6.21h-27.6v-64.85h27.6Z" fill="#097e8b"/>
  <polygon points="1016.97 309.09 1016.97 315.99 999.03 315.99 999.03 337.38 1013.52 337.38 1013.52 343.59 999.03 343.59 999.03 367.74 1016.97 367.74 1016.97 373.95 989.37 373.95 989.37 309.09 1016.97 309.09" fill="#097e8b"/>
  <polygon points="701.66 309.09 701.66 315.99 688.56 315.99 688.56 373.95 678.9 373.95 678.9 315.99 665.79 315.99 665.79 309.09 701.66 309.09" fill="#097e8b"/>
  <polygon points="740.99 309.09 740.99 315.99 728.57 315.99 728.57 373.95 718.91 373.95 718.91 315.99 705.8 315.99 705.8 309.09 740.99 309.09" fill="#097e8b"/>
  <rect x="963.15" y="309.09" width="10.35" height="64.85" fill="#097e8b"/>
  <path d="M513.31,338.07c.1-1.38-.55-7.59,1.03-7.59h26.22c1.52,0,1.52,7.59,0,7.59h-27.25Z" fill="#097e8b"/>
  <rect x="513.31" y="344.97" width="27.6" height="6.9" fill="#097e8b"/>
  <path d="M700.14,58.16c70.58-3.12,118.07,73.21,84.43,135.49-31.68,58.65-115.11,64.82-154.55,10.8-43.41-59.46-3.16-143.05,70.11-146.29ZM658.2,107.63h14.83c.24,0,2.97-1.69,3.4-2.12,3.22-3.28,2.15-10-2.32-11.37-2.45-.75-21.46-.75-24.49-.27-3.99.63-5.95,4.85-5.93,8.56,1.73,30.84-2.21,64.01,0,94.58.27,3.78.75,7.54,4.97,8.83,2.96.9,20.22.94,23.65.41,5.08-.78,7.3-5.44,5.38-10.13-.39-.97-3.18-3.63-3.96-3.63h-15.52v-84.86ZM734.44,107.63c4.26.85,10.96-.62,15.52,0v84.86h-16.21c-.58,0-2.96,2.08-3.4,2.81-2.81,4.68-.31,9.9,4.94,10.83,3.56.63,19.65.66,23-.14,2.93-.7,5.68-3.74,5.5-6.91l-.19-99.91c-.76-2.86-2.78-4.84-5.75-5.29-3.45-.53-20.83-.59-23.96.1-6.15,1.37-6.03,12.34.54,13.65Z" fill="#fdfefe"/>
  <path d="M590.58,367.05v-24.15c5.27.19,13.19-.28,16,5.04,1.94,3.67,2.15,13.58-.81,16.71-.45.48-3.55,2.4-3.81,2.4h-11.38Z" fill="#fdfefe"/>
  <path d="M590.58,336v-20.01c8.03-.04,16.59-1.33,16.62,9.31.03,11.14-7.57,11.19-16.62,10.69Z" fill="#fdfefe"/>
  <path d="M408.44,315.99h10c3.19,0,6.07,4.31,6.49,7.3.88,6.19.91,30.3-.1,36.34-.33,1.99-1.72,5.15-3.48,6.18-1.87,1.1-12.92,3.27-12.92.88v-50.71Z" fill="#fdfefe"/>
  <path d="M801.71,315.99c9.13-.58,15.92-.29,15.79,10.62-.12,10.23-7.38,10.56-15.79,10.08v-20.7Z" fill="#fdfefe"/>
  <path d="M371.69,317.56c.76.78,2.12,4.41,2.28,5.66.82,6.63.88,30.76-.18,37.11-1.13,6.7-7.2,7.91-13.14,6.57-4-.9-5-5.75-5.31-9.18-.71-7.89-.93-26.73.17-34.3.39-2.69,1.74-6.24,4.61-7.12,2.51-.77,9.7-.66,11.58,1.26Z" fill="#fdfefe"/>
  <path d="M95.7,316.14c6.25-1.4,12.29.15,13.25,7.16s.94,29.56,0,36.44c-.94,6.93-5.83,8.07-12.03,7.32-4.37-.53-5.98-4.01-6.46-8.03-.92-7.71-.91-27.32,0-35.03.36-3.07,1.81-7.09,5.24-7.87Z" fill="#fdfefe"/>
  <path d="M143.51,337.38v-21.04c0-2.04,11.93-.41,13.85,1.33,2.82,2.56,2.58,11.86,1.26,15.16-2.12,5.3-10.38,4.52-15.11,4.56Z" fill="#fdfefe"/>
  <path d="M658.2,107.63v84.86h15.52c.78,0,3.57,2.66,3.96,3.63,1.91,4.69-.31,9.34-5.38,10.13-3.43.53-20.69.49-23.65-.41-4.22-1.29-4.7-5.05-4.97-8.83-2.21-30.56,1.73-63.74,0-94.58-.03-3.71,1.94-7.93,5.93-8.56,3.03-.48,22.04-.48,24.49.27,4.47,1.37,5.55,8.09,2.32,11.37-.43.44-3.16,2.12-3.4,2.12h-14.83Z" fill="#e2543e"/>
  <path d="M734.44,107.63c-6.58-1.31-6.7-12.28-.54-13.65,3.12-.7,20.51-.63,23.96-.1,2.97.45,4.99,2.43,5.75,5.29l.19,99.91c.18,3.17-2.58,6.22-5.5,6.91-3.35.8-19.44.77-23,.14-5.25-.93-7.75-6.15-4.94-10.83.44-.73,2.82-2.81,3.4-2.81h16.21v-84.86c-4.56-.62-11.27.85-15.52,0Z" fill="#e2543e"/>
</svg>