<?xml version="1.0" encoding="UTF-8"?>
<svg id="uuid-8c3e67e1-d648-42db-8c85-15e8e17d4dd2" data-name="Ebene 1" xmlns="http://www.w3.org/2000/svg" viewBox="0 0 600 200">
  <path d="M327.89,32.51c36.68-2.8,61.08,36.73,41.29,68.06-17.02,26.95-56.68,27.12-74.25.61-18.4-27.77-.21-66.14,32.96-68.67ZM330.38,39.96c-29.31,1.3-45.41,34.73-28.04,58.52,15.78,21.61,49.15,19.14,61.82-4.32,13.46-24.91-5.54-55.44-33.77-54.2h0Z" style="fill: #097e8b;"/>
  <path d="M444.69,36.85v59.75c0,10.84,9.2,14.99,18.82,13.02,5.91-1.21,10.16-6.64,10.16-12.74v-60.02h9.11v59.76c.3,30.3-47.85,30.09-47.2-.28v-59.48h9.12,0Z" style="fill: #097e8b;"/>
  <path d="M181.13,36.29l22.21,45.26,22.08-45.26h4.42s.41.38.41.41v82.1h-5.8V50.92l-21.12,42.5-21.38-42.5v67.89h-5.8V36.29h4.97,0Z" style="fill: #e2543e;"/>
  <path d="M510.04,36.37c5.95-.53,14.67.08,19.93,3.09.63.36,2.03.96,1.82,1.8-.12.48-4.1,6.74-4.49,6.87-.74.24-4.16-1.49-5.27-1.82-6.92-2.08-19.4-2.16-21.85,6.42-4.14,14.49,12.18,15.98,21.33,20.31,10.93,5.17,14.86,13.46,13.97,25.48-1.17,15.86-14.19,22.18-28.8,20.25-5.8-.76-12.94-3.3-16.14-8.43-.04-.42,5.34-5.79,5.94-5.85,2.25,1.93,4.08,3.57,7,4.5,10.09,3.22,22.28.5,22.9-11.84,1.2-23.56-31.4-13.51-35.49-35.18-2.59-13.7,5.26-24.37,19.14-25.6Z" style="fill: #097e8b;"/>
  <path d="M429.51,98.11c.57,15.59-14.18,22.51-27.97,20.66-11.46-1.54-17.96-9.49-18.96-20.78.64-13.22-.81-27.18,0-40.32.68-11.05,7.33-19.33,18.44-21.02,13.82-2.1,28.71,4.41,28.49,20.07l-9.13.16c-.43-3.42-1.44-6.8-4.31-8.94-3.85-2.86-10.7-3.17-15.21-2.06-6.33,1.56-8.74,6.83-9.18,12.9.65,12.38-.82,25.55,0,37.83.71,10.65,7.18,14.13,17.27,13.38,5.78-.43,9.2-3,10.76-8.56.31-1.1.19-2.47.82-3.32h8.97Z" style="fill: #097e8b;"/>
  <path d="M66.19,36.29l33.39,66.79-.14-66.79h6.07v82.1s-.38.41-.41.41h-4l-33.95-69.27.27,69.27h-5.8V36.29s4.56,0,4.56,0Z" style="fill: #e2543e;"/>
  <path d="M290.14,36.29v8.83h-32.98s-.41.38-.41.41v27.46h18.77v8.56h-18.77v37.26h-9.11V36.29h42.5Z" style="fill: #097e8b;"/>
  <path d="M124.56,36.29v59.21c-.44,13.27,8.74,20.26,21.58,17.16,6.14-1.49,10.71-7.55,10.71-13.86v-62.51h5.8v62.52c-.72,11.57-7.71,19.27-19.44,20.01-14.96.94-23.62-6.41-24.45-21.39-1.08-19.7.84-40.38,0-60.19-.06-.28.2-.95.43-.95,0,0,5.38,0,5.38,0Z" style="fill: #e2543e;"/>
  <path d="M291.39,140.33c5.4.73,6.98,6.87,3.98,10.87l-2.18,1.27c5.82,1.06,5.65,10.86.84,13.13-.31.14-1.62.68-1.81.68h-9.8v-25.94c2.8.27,6.25-.36,8.97,0h0ZM286.55,151.1c3.62.2,6.66.18,6.65-4.28-.01-4.26-3.44-3.74-6.65-3.72v8h0ZM286.55,163.52h4.55c.1,0,1.34-.77,1.52-.96,1.18-1.25,1.1-5.22.32-6.68-1.13-2.13-4.29-1.94-6.4-2.02v9.66Z" style="fill: #097e8b;"/>
  <path d="M138.63,140.33c.85.11,2.26-.3,2.9.27l7.86,16.29v-16.56h3.59v25.94c-.86-.11-2.26.3-2.9-.27l-7.86-16.56v16.84h-3.59v-25.94h0Z" style="fill: #097e8b;"/>
  <path d="M462.07,140.33c.85.11,2.26-.3,2.9.27l7.86,16.29v-16.56h3.59v25.94c-.85-.11-2.26.3-2.9-.27l-7.86-16.56v16.84h-3.59v-25.94Z" style="fill: #097e8b;"/>
  <path d="M209.56,166.28v-25.94h8.97c.13,0,2.19.69,2.49.82,1.43.64,2.36,1.69,2.9,3.17.92,2.46.76,11.66.55,14.65-.17,2.48-.85,4.92-3.13,6.26-.4.23-2.51,1.05-2.82,1.05h-8.97ZM213.7,143.09v20.28c0,.96,4.42.09,5.17-.35.7-.41,1.26-1.68,1.39-2.47.4-2.42.39-12.06.04-14.54-.17-1.2-1.32-2.92-2.6-2.92h-4Z" style="fill: #097e8b;"/>
  <path d="M375.28,140.33c1.08.13,3.27.97,4.1,1.7,2.86,2.53,2.61,10.27-1.75,11.28l4.14,12.97h-4.14l-3.56-11.98-3.07-.16v12.14h-4.14v-25.94c2.67.23,5.81-.31,8.42,0h0ZM371.01,143.09v8.28c3.36.19,6.27.06,6.32-4.03.05-4.36-2.66-4.48-6.32-4.25h0Z" style="fill: #097e8b;"/>
  <path d="M202.01,164.8c-3.06,3.04-10.98,2.45-12.88-1.96-1.19-2.76-1.12-12.73-.79-15.98.56-5.42,4.08-7.23,9.22-6.8,4.03.33,6.14,2.8,6.48,6.76.29,3.33.32,9.96-.01,13.26-.15,1.51-.94,3.66-2.03,4.73h0ZM199,143.72c-.75-.77-3.63-.81-4.63-.5-1.15.35-1.69,1.77-1.84,2.85-.44,3.03-.35,10.57-.07,13.72.12,1.37.52,3.31,2.12,3.67,2.38.53,4.81.05,5.26-2.63.43-2.54.4-12.19.07-14.84-.06-.5-.61-1.95-.91-2.26h0Z" style="fill: #097e8b;"/>
  <path d="M88.34,140.13c4.71-.64,9.09.96,9.7,6.17.33,2.85.36,12.81-.33,15.34-1.82,6.67-12.89,6.86-14.9.16-.84-2.78-.8-14.18.01-16.99.8-2.77,2.63-4.29,5.52-4.69ZM88.6,143.15c-1.38.31-1.95,1.92-2.1,3.15-.36,3.08-.37,10.93,0,14.01.19,1.61.84,3,2.58,3.21,2.48.3,4.44-.16,4.81-2.93.38-2.75.38-11.82,0-14.58s-2.8-3.42-5.3-2.86h0Z" style="fill: #097e8b;"/>
  <path d="M429.79,149.72h-3.86v-4.55c0-.82-1.24-1.91-2.08-2.05-3.18-.54-4.56.58-4.82,3.7-.29,3.39-.26,9.3,0,12.72.11,1.45.42,3.54,2.14,3.93,1.16.26,3.31.26,4.08-.78.12-.17.7-1.43.7-1.51v-4.55h3.86v4.55c0,.25-.69,2.07-.88,2.44-2.4,4.69-11.85,3.93-13.56-1.52-.82-2.64-.75-12.48-.44-15.5.28-2.71,1.56-5.03,4.19-6.02,2.6-.98,7.45-.78,9.3,1.57.31.39,1.38,2.72,1.38,3.04v4.55h0Z" style="fill: #097e8b;"/>
  <path d="M183.34,149.72h-3.86v-4.28c0-2.87-5.24-3.24-6.46-.94-.35.66-.4,1.58-.45,2.31-.25,3.42-.36,10.22.01,13.54.33,2.95,2.46,3.92,5.26,3.05.82-.26,1.64-1.76,1.64-2.5v-4.28h3.86v4.28c0,1.82-1.8,4.32-3.51,5.04-4.83,2.05-10.7.06-11.36-5.62-.38-3.28-.28-9.86-.04-13.23.18-2.52,1.16-5.26,3.6-6.34,3-1.32,8.56-1.08,10.33,2.09.24.43.98,2.26.98,2.6v4.28h0Z" style="fill: #097e8b;"/>
  <path d="M496.85,149.72c-.78-.13-3.36.3-3.74-.26-1.05-1.51,1.9-7.83-4.89-6.31-1.72.38-2.03,2.47-2.14,3.93-.19,2.55-.32,12.87.42,14.78s4.21,2.28,5.53,1.11c.18-.16.96-1.43.96-1.52v-4.83h3.86v4.83c0,.98-1.48,3.34-2.39,3.96-3.54,2.41-9.97,1.52-11.73-2.8-1.17-2.87-1.16-14.47-.37-17.58,1.3-5.11,8.15-6.5,12.1-3.82.94.64,2.39,2.88,2.39,3.96v4.55h0Z" style="fill: #097e8b;"/>
  <path d="M410.19,146.96l-3.58.55c-.09-1.36-.6-3.99-2.14-4.34-2.4-.54-5.04.12-4.75,3.07.38,3.83,9.99,7.11,10.73,12.48,1.5,10.98-15.08,10.25-14.31.13l3.57-.56c.1,1.79.84,4.87,2.92,5.22,2.44.42,4.27-.38,4.19-3.08-.14-4.86-9.78-7.56-10.62-12.56-1.73-10.21,14.04-10.62,14.01-.9h0,0Z" style="fill: #097e8b;"/>
  <path d="M107.73,154.41v11.87h-4.14v-25.94h9.24c.1,0,1.63.52,1.86.62,2.92,1.34,3.54,4.87,3.24,7.79-.56,5.48-5.79,5.73-10.21,5.66h0ZM107.73,151.65c1.89-.02,5.19.3,6.04-1.82.53-1.32.62-5.04-.5-6.06-.77-.7-5.54-1.35-5.54-.53v8.42h0Z" style="fill: #097e8b;"/>
  <polygon points="513.68 140.33 513.68 143.09 506.51 143.09 506.51 151.65 512.3 151.65 512.3 154.13 506.51 154.13 506.51 163.52 513.68 163.52 513.68 166.28 502.37 166.28 502.37 140.33 513.68 140.33" style="fill: #097e8b;"/>
  <path d="M361.9,140.33v2.76h-7.18v8.56h5.8v2.48h-5.8v9.24s.38.41.41.41h6.76v2.48h-11.04v-25.94h11.04,0Z" style="fill: #097e8b;"/>
  <path d="M241.3,140.33v2.76h-7.18v8.56h5.8v2.48h-5.8v9.24s.38.41.41.41h6.76v2.48h-11.04v-25.94h11.04Z" style="fill: #097e8b;"/>
  <path d="M133.67,140.33v2.76h-7.18v8.56h5.8v2.48h-5.8v9.24s.38.41.41.41h6.76v2.48h-11.04v-25.94h11.04Z" style="fill: #097e8b;"/>
  <path d="M313.88,140.33v2.76h-7.18v8.56h5.8v2.48h-5.8v9.24s.38.41.41.41h6.76v2.48h-11.04v-25.94h11.04,0Z" style="fill: #097e8b;"/>
  <polygon points="457.11 140.33 457.11 143.09 449.93 143.09 449.93 151.65 455.73 151.65 455.73 154.13 449.93 154.13 449.93 163.79 457.11 163.79 457.11 166.28 446.07 166.28 446.07 140.33 457.11 140.33" style="fill: #097e8b;"/>
  <polygon points="330.99 140.33 330.99 143.09 325.75 143.09 325.75 166.28 321.88 166.28 321.88 143.09 316.64 143.09 316.64 140.33 330.99 140.33" style="fill: #097e8b;"/>
  <polygon points="346.72 140.33 346.72 143.09 341.75 143.09 341.75 166.28 337.89 166.28 337.89 143.09 332.64 143.09 332.64 140.33 346.72 140.33" style="fill: #097e8b;"/>
  <rect x="435.58" y="140.33" width="4.14" height="25.94" style="fill: #097e8b;"/>
  <path d="M255.65,151.93c.04-.55-.22-3.04.41-3.04h10.49c.61,0,.61,3.04,0,3.04h-10.9Z" style="fill: #097e8b;"/>
  <rect x="255.65" y="154.69" width="11.04" height="2.76" style="fill: #097e8b;"/>
  <path d="M313.6,59.75v33.94h6.21c.31,0,1.43,1.06,1.58,1.45.76,1.88-.12,3.74-2.15,4.05-1.37.21-8.28.2-9.46-.16-1.69-.52-1.88-2.02-1.99-3.53-.88-12.22.69-25.5,0-37.83-.01-1.48.78-3.17,2.37-3.42,1.21-.19,8.82-.19,9.8.11,1.79.55,2.22,3.24.93,4.55-.17.18-1.26.85-1.36.85h-5.93,0Z" style="fill: #e2543e;"/>
  <path d="M344.1,59.75c-2.63-.52-2.68-4.91-.22-5.46,1.25-.28,8.2-.25,9.58-.04,1.19.18,2,.97,2.3,2.12l.08,39.96c.07,1.27-1.03,2.49-2.2,2.76-1.34.32-7.78.31-9.2.06-2.1-.37-3.1-2.46-1.98-4.33.18-.29,1.13-1.12,1.36-1.12h6.48v-33.94c-1.82-.25-4.51.34-6.21,0h0Z" style="fill: #e2543e;"/>
</svg>