<?xml version="1.0" encoding="UTF-8"?>
<svg id="Ebene_2" data-name="Ebene 2" xmlns="http://www.w3.org/2000/svg" viewBox="0 0 461.45 102.4">
  <defs>
    <style>
      .cls-1 {
        fill: #000;
        stroke-width: 0px;
      }
    </style>
  </defs>
  <g id="Ebene_1-2" data-name="Ebene 1">
    <g>
      <g id="Ebene_2-2" data-name="Ebene 2">
        <g id="Ebene_1-2" data-name="Ebene 1-2">
          <path class="cls-1" d="M170.19,3.9h-15.89c-9.03,11.76-14.45,25.89-15.59,40.67h-44.71V3.9h-13.42v95.53h13.42v-43.63h44.73c.69,15.88,6.36,31.15,16.21,43.63h16.06c-11.84-12.62-19.79-29.61-19.79-48.15.14-17.62,6.92-34.54,18.98-47.38ZM224.36,0c-28.28.04-51.16,23-51.12,51.28.04,28.28,23,51.16,51.28,51.12,28.21-.04,51.08-22.91,51.12-51.12-.02-28.31-22.97-51.26-51.28-51.28ZM224.36,89c-20.88.04-37.84-16.84-37.88-37.72-.04-20.88,16.84-37.84,37.72-37.88,20.88-.04,37.84,16.84,37.88,37.72,0,.06,0,.11,0,.17-.08,20.8-16.92,37.64-37.72,37.71ZM460.86,3.9h-76.37v11.22h31.51v84.31h13.25V15.12h31.64l-.03-11.22ZM357.37,3.9l.47,78.86L297.21,3.9h-15.74c10.78,13.39,16.42,30.2,15.9,47.38-.04,17.96-7.02,35.21-19.48,48.15h15.74c9.82-11.53,16.37-26.8,16.37-46.6.06-6.64-1.44-13.21-4.36-19.17l49.25,65.77h15.9V3.9h-13.42ZM40.05,3.9H0v95.53h13.4v-37.09h26.65c15.59,0,27.75-9.82,27.75-29.3,0-18.23-12.16-29.14-27.75-29.14ZM39.05,51.28H12.56V15.43h26.49c9,0,14.34,6.39,14.34,17.77s-4.98,18.08-14.34,18.08Z"/>
        </g>
      </g>
      <path class="cls-1" d="M453.65,83.9c4.3,0,7.81,3.21,7.81,7.83s-3.5,7.81-7.81,7.81-7.83-3.16-7.83-7.81,3.48-7.83,7.83-7.83ZM453.65,98.15c3.57,0,6.26-2.59,6.26-6.42s-2.68-6.42-6.26-6.42-6.28,2.57-6.28,6.42,2.75,6.42,6.28,6.42ZM453.9,92.44h-1.59v3.16h-1.71v-8.28h2.55c2.46,0,3.91.41,3.91,2.55,0,.91-.46,1.75-1.5,2.21l1.91,3.53h-1.89l-1.69-3.16ZM453.42,88.66h-1.11v2.46h1.21c1.3,0,1.84-.41,1.84-1.23,0-.98-.8-1.23-1.93-1.23Z"/>
    </g>
  </g>
</svg>