<?xml version="1.0" encoding="UTF-8"?>
<svg id="uuid-f8a3fc5b-8f24-48e9-a920-d2b4a51791f0" data-name="Ebene 1" xmlns="http://www.w3.org/2000/svg" xmlns:xlink="http://www.w3.org/1999/xlink" viewBox="0 0 688.88 568.76">
  <defs>
    <clipPath id="uuid-d0a1458c-6661-468d-aba0-a07f741bb67c">
      <rect width="688.88" height="568.76" style="fill: none;"/>
    </clipPath>
  </defs>
  <g style="clip-path: url(#uuid-d0a1458c-6661-468d-aba0-a07f741bb67c);">
    <path d="M675.7,544.76v2.23h.07c.58-.94,1.33-1.63,2.23-2.06.9-.43,1.89-.64,2.97-.64,1.37,0,2.55.26,3.54.77.99.52,1.81,1.2,2.46,2.06.65.85,1.13,1.85,1.45,2.98s.47,2.32.47,3.56c0,1.17-.16,2.29-.47,3.37s-.79,2.03-1.43,2.87c-.64.83-1.44,1.5-2.39,1.99-.96.49-2.07.74-3.35.74-1.08,0-2.07-.22-2.98-.66-.91-.44-1.66-1.08-2.24-1.94h-.07v8.26h-4.79v-23.53h4.55ZM681.92,558.58c.53-.31.95-.72,1.28-1.23s.56-1.1.69-1.77c.13-.67.2-1.36.2-2.06s-.07-1.38-.22-2.06c-.15-.67-.39-1.28-.72-1.8-.34-.53-.77-.95-1.3-1.28-.53-.33-1.17-.49-1.94-.49s-1.44.16-1.97.49c-.53.33-.96.75-1.28,1.26-.33.52-.56,1.11-.69,1.79s-.2,1.37-.2,2.09.07,1.38.22,2.06c.15.67.38,1.26.71,1.77.33.51.76.92,1.3,1.23.54.31,1.19.47,1.95.47s1.44-.16,1.97-.47M662.91,562.19v-2.43h-.1c-.61,1.01-1.39,1.74-2.36,2.19-.97.45-1.95.67-2.97.67-1.28,0-2.33-.17-3.15-.51-.82-.34-1.47-.81-1.94-1.43-.47-.62-.8-1.37-.99-2.26-.19-.89-.29-1.87-.29-2.95v-10.72h4.79v9.84c0,1.44.22,2.51.67,3.22.45.71,1.25,1.06,2.39,1.06,1.3,0,2.25-.39,2.83-1.16.58-.78.88-2.05.88-3.83v-9.14h4.79v17.43h-4.55ZM648.92,544.76v3.2h-3.51v8.63c0,.81.13,1.35.4,1.62.27.27.81.4,1.62.4.27,0,.53-.01.78-.03.25-.02.48-.06.71-.1v3.71c-.4.07-.85.11-1.35.13-.49.02-.98.03-1.45.03-.74,0-1.44-.05-2.11-.15-.66-.1-1.25-.3-1.75-.59-.51-.29-.91-.71-1.2-1.25-.29-.54-.44-1.25-.44-2.12v-10.28h-2.9v-3.2h2.9v-5.22h4.79v5.22h3.51ZM625.34,558.01c.72.7,1.75,1.05,3.1,1.05.97,0,1.8-.24,2.49-.73.7-.48,1.12-.99,1.28-1.53h4.21c-.67,2.09-1.71,3.58-3.1,4.48-1.39.9-3.08,1.35-5.06,1.35-1.37,0-2.61-.22-3.71-.66-1.1-.44-2.03-1.06-2.8-1.87-.76-.81-1.35-1.77-1.77-2.9-.42-1.12-.62-2.36-.62-3.71s.21-2.52.64-3.64c.43-1.12,1.03-2.1,1.82-2.92.79-.82,1.72-1.47,2.82-1.94,1.09-.47,2.3-.71,3.62-.71,1.48,0,2.77.29,3.88.86,1.1.57,2.01,1.34,2.71,2.31.71.97,1.22,2.07,1.53,3.3.31,1.24.43,2.53.34,3.88h-12.57c.07,1.55.46,2.68,1.18,3.37M630.75,548.84c-.57-.63-1.44-.94-2.61-.94-.76,0-1.4.13-1.9.39-.51.26-.91.58-1.21.96-.3.38-.52.79-.64,1.21-.12.43-.2.81-.22,1.15h7.79c-.23-1.21-.62-2.13-1.2-2.76M605.93,558.01c.72.7,1.75,1.05,3.1,1.05.97,0,1.8-.24,2.5-.73.7-.48,1.12-.99,1.28-1.53h4.21c-.67,2.09-1.71,3.58-3.1,4.48-1.39.9-3.08,1.35-5.06,1.35-1.37,0-2.61-.22-3.71-.66-1.1-.44-2.03-1.06-2.8-1.87-.76-.81-1.35-1.77-1.77-2.9-.42-1.12-.62-2.36-.62-3.71s.21-2.52.64-3.64c.43-1.12,1.03-2.1,1.82-2.92.79-.82,1.72-1.47,2.82-1.94,1.09-.47,2.3-.71,3.62-.71,1.48,0,2.78.29,3.88.86,1.1.57,2.01,1.34,2.71,2.31.71.97,1.22,2.07,1.53,3.3.31,1.24.43,2.53.34,3.88h-12.57c.07,1.55.46,2.68,1.18,3.37M611.34,548.84c-.57-.63-1.44-.94-2.61-.94-.76,0-1.4.13-1.9.39-.51.26-.91.58-1.21.96-.3.38-.52.79-.64,1.21-.12.43-.2.81-.22,1.15h7.79c-.22-1.21-.62-2.13-1.2-2.76M578.24,538.12l5.63,16.55h.07l5.33-16.55h7.45v24.07h-4.96v-17.06h-.07l-5.9,17.06h-4.08l-5.9-16.89h-.07v16.89h-4.96v-24.07h7.45ZM545.47,544.76v2.43h.1c.61-1.01,1.39-1.75,2.36-2.21s1.96-.69,2.97-.69c1.28,0,2.33.17,3.15.52.82.35,1.47.83,1.94,1.45.47.62.8,1.37.99,2.26.19.89.29,1.87.29,2.95v10.72h-4.79v-9.84c0-1.44-.22-2.51-.67-3.22-.45-.71-1.25-1.06-2.39-1.06-1.3,0-2.25.39-2.83,1.16-.59.78-.88,2.05-.88,3.83v9.14h-4.79v-17.43h4.55ZM520.56,549.7c.43-1.13,1.03-2.1,1.82-2.9.79-.8,1.73-1.42,2.83-1.85,1.1-.44,2.34-.66,3.71-.66s2.61.22,3.73.66c1.11.44,2.06,1.06,2.85,1.85.79.8,1.39,1.76,1.82,2.9.43,1.13.64,2.4.64,3.79s-.21,2.65-.64,3.78c-.43,1.12-1.03,2.08-1.82,2.88-.79.8-1.74,1.41-2.85,1.84-1.11.43-2.35.64-3.73.64s-2.61-.21-3.71-.64c-1.1-.43-2.05-1.04-2.83-1.84-.79-.8-1.39-1.76-1.82-2.88-.43-1.12-.64-2.38-.64-3.78s.21-2.66.64-3.79M524.91,555.53c.13.66.37,1.26.69,1.79.33.53.76.95,1.3,1.26.54.31,1.21.47,2.02.47s1.49-.16,2.04-.47c.55-.31.99-.74,1.31-1.26.33-.53.56-1.12.69-1.79.13-.66.2-1.34.2-2.04s-.07-1.38-.2-2.06-.37-1.27-.69-1.79c-.33-.52-.76-.94-1.31-1.26-.55-.33-1.23-.49-2.04-.49s-1.48.16-2.02.49c-.54.33-.97.75-1.3,1.26-.33.52-.56,1.11-.69,1.79-.13.67-.2,1.36-.2,2.06s.07,1.38.2,2.04M505.43,538.12v9.07h.1c.61-1.01,1.38-1.75,2.33-2.21s1.87-.69,2.76-.69c1.28,0,2.33.17,3.15.52.82.35,1.47.83,1.94,1.45.47.62.8,1.37.99,2.26.19.89.29,1.87.29,2.95v10.72h-4.79v-9.84c0-1.44-.23-2.51-.67-3.22-.45-.71-1.25-1.06-2.39-1.06-1.3,0-2.25.39-2.83,1.16-.58.78-.88,2.05-.88,3.83v9.14h-4.79v-24.07h4.79ZM498.17,544.76v3.2h-3.51v8.63c0,.81.13,1.35.4,1.62.27.27.81.4,1.62.4.27,0,.53-.01.78-.03.25-.02.48-.06.71-.1v3.71c-.4.07-.85.11-1.35.13-.49.02-.98.03-1.45.03-.74,0-1.44-.05-2.11-.15-.66-.1-1.25-.3-1.75-.59-.51-.29-.9-.71-1.2-1.25s-.44-1.25-.44-2.12v-10.28h-2.9v-3.2h2.9v-5.22h4.79v5.22h3.51ZM476.44,567.38c-.92.61-2.2.91-3.84.91-.49,0-.98-.02-1.47-.05-.48-.03-.97-.07-1.47-.12v-3.94c.45.04.91.09,1.38.13.47.04.94.06,1.42.03.63-.07,1.1-.31,1.4-.74.3-.43.45-.9.45-1.42,0-.38-.07-.74-.2-1.08l-6.1-16.35h5.09l3.94,11.93h.07l3.81-11.93h4.96l-7.28,19.59c-.52,1.42-1.24,2.43-2.16,3.03M458.24,538.12c1.51,0,2.79.22,3.84.66,1.06.44,1.92,1.02,2.58,1.74s1.15,1.54,1.45,2.46c.3.92.46,1.88.46,2.87s-.15,1.92-.46,2.85c-.3.93-.79,1.76-1.45,2.48-.66.72-1.52,1.3-2.58,1.74-1.06.44-2.34.66-3.84.66h-5.56v8.63h-5.29v-24.07h10.86ZM456.79,549.44c.61,0,1.19-.05,1.75-.13s1.06-.26,1.48-.52c.43-.26.77-.62,1.03-1.1.26-.47.39-1.09.39-1.85s-.13-1.38-.39-1.85c-.26-.47-.6-.84-1.03-1.1-.43-.26-.92-.43-1.48-.52s-1.15-.13-1.75-.13h-4.11v7.21h4.11ZM422.07,544.76v2.43h.1c.61-1.01,1.39-1.75,2.36-2.21.97-.46,1.95-.69,2.97-.69,1.28,0,2.33.17,3.15.52.82.35,1.47.83,1.94,1.45.47.62.8,1.37.99,2.26.19.89.29,1.87.29,2.95v10.72h-4.79v-9.84c0-1.44-.22-2.51-.67-3.22-.45-.71-1.25-1.06-2.39-1.06-1.3,0-2.25.39-2.83,1.16-.58.78-.88,2.05-.88,3.83v9.14h-4.79v-17.43h4.55ZM413.78,562.19h-4.79v-17.43h4.79v17.43ZM408.99,538.12h4.79v3.94h-4.79v-3.94ZM385.26,558.01c.72.7,1.75,1.05,3.1,1.05.97,0,1.8-.24,2.49-.73.7-.48,1.12-.99,1.28-1.53h4.21c-.67,2.09-1.71,3.58-3.1,4.48-1.39.9-3.08,1.35-5.06,1.35-1.37,0-2.61-.22-3.71-.66-1.1-.44-2.03-1.06-2.8-1.87-.76-.81-1.35-1.77-1.77-2.9-.42-1.12-.62-2.36-.62-3.71s.21-2.52.64-3.64,1.03-2.1,1.82-2.92c.79-.82,1.72-1.47,2.82-1.94,1.09-.47,2.3-.71,3.62-.71,1.48,0,2.78.29,3.88.86,1.1.57,2.01,1.34,2.71,2.31.71.97,1.22,2.07,1.53,3.3.31,1.24.43,2.53.34,3.88h-12.57c.07,1.55.46,2.68,1.18,3.37M390.67,548.84c-.57-.63-1.44-.94-2.61-.94-.76,0-1.4.13-1.9.39-.51.26-.91.58-1.21.96-.3.38-.52.79-.64,1.21-.12.43-.2.81-.22,1.15h7.79c-.23-1.21-.62-2.13-1.2-2.76M369.04,547.89c-.76,0-1.4.17-1.92.52-.52.35-.94.8-1.26,1.35-.33.55-.56,1.16-.69,1.82-.13.66-.2,1.32-.2,1.97s.07,1.27.2,1.92c.13.65.35,1.24.66,1.77.3.53.71.96,1.23,1.3.52.34,1.15.51,1.89.51,1.15,0,2.03-.32,2.65-.96.62-.64,1.01-1.5,1.16-2.58h4.62c-.31,2.32-1.21,4.08-2.7,5.29-1.48,1.21-3.38,1.82-5.7,1.82-1.3,0-2.5-.22-3.59-.66-1.09-.44-2.02-1.05-2.78-1.84-.76-.79-1.36-1.72-1.79-2.82-.43-1.09-.64-2.29-.64-3.59s.2-2.6.59-3.76c.39-1.16.97-2.16,1.74-3,.76-.84,1.7-1.5,2.8-1.97,1.1-.47,2.36-.71,3.78-.71,1.03,0,2.03.13,2.98.4.96.27,1.81.68,2.56,1.23.75.55,1.37,1.24,1.84,2.06.47.82.74,1.79.81,2.92h-4.69c-.31-2-1.49-3-3.54-3M345.45,544.76v2.43h.1c.61-1.01,1.39-1.75,2.36-2.21.97-.46,1.95-.69,2.97-.69,1.28,0,2.33.17,3.15.52.82.35,1.47.83,1.94,1.45.47.62.8,1.37.99,2.26.19.89.29,1.87.29,2.95v10.72h-4.79v-9.84c0-1.44-.23-2.51-.67-3.22-.45-.71-1.25-1.06-2.39-1.06-1.3,0-2.25.39-2.83,1.16-.58.78-.88,2.05-.88,3.83v9.14h-4.79v-17.43h4.55ZM326.67,558.01c.72.7,1.75,1.05,3.1,1.05.97,0,1.8-.24,2.49-.73.7-.48,1.12-.99,1.28-1.53h4.21c-.67,2.09-1.71,3.58-3.1,4.48-1.39.9-3.08,1.35-5.06,1.35-1.37,0-2.61-.22-3.71-.66-1.1-.44-2.03-1.06-2.8-1.87-.76-.81-1.35-1.77-1.77-2.9-.42-1.12-.62-2.36-.62-3.71s.21-2.52.64-3.64,1.03-2.1,1.82-2.92c.79-.82,1.72-1.47,2.82-1.94,1.09-.47,2.3-.71,3.62-.71,1.48,0,2.78.29,3.88.86,1.1.57,2.01,1.34,2.71,2.31.71.97,1.22,2.07,1.53,3.3.31,1.24.43,2.53.34,3.88h-12.57c.07,1.55.46,2.68,1.18,3.37M332.08,548.84c-.57-.63-1.44-.94-2.61-.94-.76,0-1.4.13-1.9.39-.51.26-.91.58-1.21.96-.3.38-.52.79-.64,1.21-.12.43-.2.81-.22,1.15h7.79c-.22-1.21-.62-2.13-1.2-2.76M317.5,563.47c-.19.9-.6,1.74-1.23,2.51-.63.78-1.54,1.43-2.73,1.97-1.19.54-2.79.81-4.79.81-.85,0-1.73-.11-2.61-.32-.89-.21-1.7-.55-2.43-.99-.73-.45-1.34-1.03-1.82-1.74-.48-.71-.76-1.56-.83-2.55h4.75c.22.9.66,1.52,1.31,1.87.65.35,1.4.52,2.26.52,1.35,0,2.33-.4,2.95-1.21.62-.81.92-1.83.89-3.07v-2.29h-.07c-.52.92-1.25,1.6-2.21,2.04-.96.44-1.96.66-3.02.66-1.3,0-2.43-.23-3.37-.69-.94-.46-1.72-1.09-2.33-1.89-.61-.8-1.05-1.73-1.33-2.8-.28-1.07-.42-2.2-.42-3.39,0-1.12.16-2.21.49-3.25.33-1.04.8-1.97,1.43-2.76.63-.8,1.41-1.43,2.34-1.9.93-.47,2.01-.71,3.22-.71,1.15,0,2.15.21,3.02.64.87.43,1.59,1.15,2.17,2.16h.07v-2.33h4.55v16.32c0,.7-.1,1.49-.29,2.39M310.94,557.67c.52-.27.94-.63,1.28-1.08.34-.45.59-.96.76-1.53.17-.57.25-1.17.25-1.8,0-.72-.07-1.4-.2-2.04-.13-.64-.36-1.21-.67-1.7-.31-.49-.73-.89-1.25-1.18-.52-.29-1.17-.44-1.95-.44-.67,0-1.25.13-1.74.4-.48.27-.89.64-1.21,1.1-.33.46-.56.99-.71,1.58-.15.6-.22,1.22-.22,1.87s.06,1.25.19,1.87c.12.62.34,1.17.64,1.67.3.49.7.9,1.2,1.21.49.31,1.11.47,1.85.47.67,0,1.27-.13,1.79-.4M297.37,562.19h-4.79v-17.43h4.79v17.43ZM292.59,538.12h4.79v3.94h-4.79v-3.94ZM288.8,562.19h-4.79v-24.07h4.79v24.07ZM280.22,562.19h-4.79v-24.07h4.79v24.07ZM261.16,558.01c.72.7,1.75,1.05,3.1,1.05.97,0,1.8-.24,2.49-.73.7-.48,1.12-.99,1.28-1.53h4.21c-.67,2.09-1.71,3.58-3.1,4.48-1.39.9-3.08,1.35-5.06,1.35-1.37,0-2.61-.22-3.71-.66-1.1-.44-2.03-1.06-2.8-1.87-.76-.81-1.35-1.77-1.77-2.9-.42-1.12-.62-2.36-.62-3.71s.21-2.52.64-3.64c.43-1.12,1.03-2.1,1.82-2.92.79-.82,1.72-1.47,2.82-1.94,1.09-.47,2.3-.71,3.62-.71,1.48,0,2.77.29,3.88.86,1.1.57,2.01,1.34,2.71,2.31.71.97,1.22,2.07,1.53,3.3.31,1.24.43,2.53.34,3.88h-12.57c.07,1.55.46,2.68,1.18,3.37M266.57,548.84c-.57-.63-1.44-.94-2.61-.94-.76,0-1.4.13-1.9.39-.51.26-.91.58-1.21.96-.3.38-.52.79-.64,1.21-.12.43-.2.81-.22,1.15h7.79c-.23-1.21-.62-2.13-1.2-2.76M253.92,544.76v3.2h-3.51v8.63c0,.81.13,1.35.4,1.62.27.27.81.4,1.62.4.27,0,.53-.01.78-.03.25-.02.48-.06.71-.1v3.71c-.4.07-.85.11-1.35.13-.49.02-.98.03-1.45.03-.74,0-1.44-.05-2.11-.15-.66-.1-1.25-.3-1.75-.59-.51-.29-.9-.71-1.2-1.25-.29-.54-.44-1.25-.44-2.12v-10.28h-2.9v-3.2h2.9v-5.22h4.79v5.22h3.51ZM229.05,544.76v2.43h.1c.61-1.01,1.39-1.75,2.36-2.21.97-.46,1.96-.69,2.97-.69,1.28,0,2.33.17,3.15.52.82.35,1.47.83,1.94,1.45.47.62.8,1.37.99,2.26.19.89.29,1.87.29,2.95v10.72h-4.79v-9.84c0-1.44-.23-2.51-.67-3.22-.45-.71-1.25-1.06-2.39-1.06-1.3,0-2.25.39-2.83,1.16-.58.78-.88,2.05-.88,3.83v9.14h-4.79v-17.43h4.55ZM220.4,562.19h-5.29v-24.07h5.29v24.07ZM201.45,562.19h-4.79v-24.07h4.79v24.07ZM188.1,555.45c0,.27-.03.63-.08,1.08-.06.45-.21.89-.45,1.33-.25.44-.63.81-1.15,1.13-.52.31-1.25.47-2.19.47-.38,0-.75-.03-1.11-.1-.36-.07-.67-.19-.94-.35-.27-.17-.48-.4-.64-.69-.16-.29-.24-.65-.24-1.08,0-.45.08-.82.24-1.11.16-.29.37-.53.62-.72.26-.19.56-.34.91-.46.35-.11.7-.2,1.06-.27.38-.07.76-.12,1.15-.17.38-.04.75-.1,1.1-.17.35-.07.67-.15.98-.25.3-.1.56-.24.76-.42v1.79ZM181.83,550.12c.09-.94.4-1.62.94-2.02.54-.4,1.28-.61,2.23-.61.43,0,.83.03,1.2.08.37.06.7.17.98.34.28.17.51.4.67.71.17.3.25.71.25,1.23.02.49-.12.87-.44,1.13-.31.26-.74.45-1.28.59-.54.13-1.16.24-1.85.3-.7.07-1.4.16-2.12.27-.72.11-1.43.26-2.14.45-.71.19-1.34.48-1.89.86-.55.38-1,.89-1.35,1.53-.35.64-.52,1.45-.52,2.44,0,.9.15,1.67.45,2.33.3.65.73,1.19,1.26,1.62.54.43,1.17.74,1.89.94.72.2,1.49.3,2.33.3,1.08,0,2.13-.16,3.17-.47,1.03-.31,1.93-.87,2.7-1.65.02.29.06.58.12.86.06.28.13.56.22.83h4.85c-.22-.36-.38-.9-.47-1.62-.09-.72-.13-1.47-.13-2.26v-9.07c0-1.06-.24-1.9-.71-2.55-.47-.64-1.08-1.14-1.82-1.5-.74-.36-1.56-.6-2.46-.72-.9-.12-1.79-.19-2.66-.19-.97,0-1.93.1-2.88.29-.96.19-1.82.51-2.58.96-.76.45-1.39,1.05-1.89,1.79-.49.74-.78,1.67-.84,2.8h4.79ZM173.49,562.19h-4.79v-17.43h4.79v17.43ZM168.7,538.12h4.79v3.94h-4.79v-3.94ZM157.6,547.89c-.76,0-1.4.17-1.92.52-.52.35-.94.8-1.26,1.35-.33.55-.56,1.16-.69,1.82-.13.66-.2,1.32-.2,1.97s.07,1.27.2,1.92c.13.65.35,1.24.66,1.77.3.53.71.96,1.23,1.3.52.34,1.15.51,1.89.51,1.15,0,2.03-.32,2.65-.96.62-.64,1.01-1.5,1.16-2.58h4.62c-.31,2.32-1.21,4.08-2.7,5.29-1.48,1.21-3.38,1.82-5.7,1.82-1.3,0-2.5-.22-3.59-.66-1.09-.44-2.02-1.05-2.78-1.84-.76-.79-1.36-1.72-1.79-2.82-.43-1.09-.64-2.29-.64-3.59s.2-2.6.59-3.76c.39-1.16.97-2.16,1.74-3,.76-.84,1.7-1.5,2.8-1.97,1.1-.47,2.36-.71,3.78-.71,1.03,0,2.03.13,2.98.4.95.27,1.81.68,2.56,1.23.75.55,1.37,1.24,1.84,2.06.47.82.74,1.79.81,2.92h-4.69c-.31-2-1.5-3-3.54-3M140.9,538.12h4.79v3.94h-4.79v-3.94ZM145.68,562.19h-4.79v-17.43h4.79v17.43ZM127.04,547.96v-3.2h2.87v-1.35c0-1.55.48-2.82,1.45-3.81.97-.99,2.43-1.48,4.38-1.48.43,0,.85.02,1.28.05.43.03.84.06,1.25.08v3.57c-.56-.07-1.15-.1-1.75-.1-.65,0-1.12.15-1.4.45-.28.3-.42.81-.42,1.53v1.05h3.3v3.2h-3.3v14.23h-4.79v-14.23h-2.87ZM124.97,562.19h-4.79v-17.43h4.79v17.43ZM120.18,538.12h4.79v3.94h-4.79v-3.94ZM117.6,544.76v3.2h-3.51v8.63c0,.81.13,1.35.4,1.62.27.27.81.4,1.62.4.27,0,.53-.01.77-.03.25-.02.48-.06.71-.1v3.71c-.4.07-.85.11-1.35.13-.49.02-.98.03-1.45.03-.74,0-1.44-.05-2.11-.15-.66-.1-1.25-.3-1.75-.59-.51-.29-.91-.71-1.2-1.25-.29-.54-.44-1.25-.44-2.12v-10.28h-2.9v-3.2h2.9v-5.22h4.79v5.22h3.51ZM98.51,544.76v3.24h.07c.22-.54.53-1.04.91-1.5.38-.46.82-.85,1.31-1.18.49-.33,1.02-.58,1.58-.76.56-.18,1.15-.27,1.75-.27.31,0,.66.06,1.05.17v4.45c-.23-.05-.49-.08-.81-.12-.32-.03-.62-.05-.91-.05-.88,0-1.62.15-2.23.44-.61.29-1.1.69-1.47,1.2-.37.51-.64,1.1-.79,1.77-.16.67-.24,1.4-.24,2.19v7.85h-4.79v-17.43h4.55ZM83.1,538.12l9,24.07h-5.49l-1.82-5.36h-9l-1.89,5.36h-5.33l9.1-24.07h5.43ZM83.4,552.88l-3.03-8.83h-.07l-3.14,8.83h6.24ZM47,558.01c.72.7,1.75,1.05,3.1,1.05.97,0,1.8-.24,2.49-.73.7-.48,1.12-.99,1.28-1.53h4.21c-.67,2.09-1.71,3.58-3.1,4.48-1.39.9-3.08,1.35-5.06,1.35-1.37,0-2.61-.22-3.71-.66-1.1-.44-2.03-1.06-2.8-1.87s-1.35-1.77-1.77-2.9c-.42-1.12-.62-2.36-.62-3.71s.21-2.52.64-3.64,1.03-2.1,1.82-2.92c.79-.82,1.72-1.47,2.82-1.94,1.09-.47,2.3-.71,3.62-.71,1.48,0,2.78.29,3.88.86,1.1.57,2.01,1.34,2.71,2.31.71.97,1.22,2.07,1.53,3.3.31,1.24.43,2.53.34,3.88h-12.57c.07,1.55.46,2.68,1.18,3.37M52.41,548.84c-.57-.63-1.44-.94-2.61-.94-.76,0-1.4.13-1.9.39-.51.26-.91.58-1.21.96-.3.38-.52.79-.64,1.21-.12.43-.2.81-.22,1.15h7.79c-.22-1.21-.62-2.13-1.2-2.76M26.69,538.12v9.07h.1c.61-1.01,1.38-1.75,2.33-2.21.94-.46,1.87-.69,2.76-.69,1.28,0,2.33.17,3.15.52.82.35,1.47.83,1.94,1.45.47.62.8,1.37.99,2.26.19.89.29,1.87.29,2.95v10.72h-4.79v-9.84c0-1.44-.22-2.51-.67-3.22-.45-.71-1.25-1.06-2.39-1.06-1.3,0-2.25.39-2.83,1.16-.58.78-.88,2.05-.88,3.83v9.14h-4.79v-24.07h4.79ZM0,542.57v-4.45h19.72v4.45h-7.21v19.62h-5.29v-19.62H0Z" style="fill: #2ab1e7;"/>
    <path d="M688.86,467.74v8.48h-9.29v22.86c0,2.14.36,3.57,1.07,4.29.71.71,2.14,1.07,4.29,1.07.71,0,1.4-.03,2.05-.09.65-.06,1.28-.15,1.87-.27v9.82c-1.07.18-2.26.3-3.57.36-1.31.06-2.59.09-3.84.09-1.96,0-3.83-.13-5.58-.4-1.76-.27-3.3-.79-4.64-1.56-1.34-.77-2.4-1.87-3.17-3.3-.77-1.43-1.16-3.3-1.16-5.63v-27.23h-7.68v-8.48h7.68v-13.84h12.68v13.84h9.29ZM626.86,502.42c.56.98,1.29,1.79,2.19,2.41.89.63,1.92,1.09,3.08,1.38,1.16.3,2.37.45,3.62.45.89,0,1.83-.1,2.81-.31.98-.21,1.87-.54,2.68-.98.8-.45,1.47-1.04,2.01-1.79.54-.74.8-1.68.8-2.81,0-1.9-1.27-3.33-3.79-4.29-2.53-.95-6.06-1.9-10.58-2.86-1.85-.42-3.65-.91-5.4-1.47-1.76-.56-3.32-1.31-4.69-2.23-1.37-.92-2.47-2.08-3.3-3.48-.83-1.4-1.25-3.11-1.25-5.13,0-2.98.58-5.42,1.74-7.32,1.16-1.9,2.69-3.41,4.6-4.51,1.9-1.1,4.05-1.88,6.43-2.32,2.38-.45,4.82-.67,7.32-.67s4.92.24,7.28.71c2.35.48,4.45,1.28,6.29,2.41,1.84,1.13,3.38,2.63,4.6,4.51,1.22,1.88,1.95,4.24,2.19,7.1h-12.05c-.18-2.44-1.1-4.09-2.77-4.96-1.67-.86-3.63-1.29-5.89-1.29-.71,0-1.49.04-2.32.13-.83.09-1.59.28-2.28.58-.68.3-1.27.73-1.74,1.29-.48.57-.71,1.33-.71,2.28,0,1.13.42,2.05,1.25,2.77.83.71,1.92,1.3,3.26,1.74,1.34.45,2.87.85,4.6,1.21,1.73.36,3.48.74,5.27,1.16,1.84.42,3.65.92,5.4,1.52,1.76.6,3.32,1.38,4.69,2.37,1.37.98,2.47,2.2,3.3,3.66.83,1.46,1.25,3.26,1.25,5.4,0,3.04-.61,5.58-1.83,7.63-1.22,2.05-2.81,3.71-4.78,4.96-1.96,1.25-4.21,2.13-6.74,2.63-2.53.51-5.11.76-7.72.76s-5.3-.27-7.86-.8c-2.56-.54-4.84-1.43-6.83-2.68-2-1.25-3.63-2.9-4.91-4.96-1.28-2.05-1.98-4.63-2.1-7.72h12.05c0,1.37.28,2.55.85,3.53M579.69,502.83c1.9,1.85,4.64,2.77,8.21,2.77,2.56,0,4.76-.64,6.61-1.92,1.84-1.28,2.98-2.63,3.39-4.06h11.16c-1.79,5.54-4.53,9.5-8.21,11.88-3.69,2.38-8.16,3.57-13.39,3.57-3.63,0-6.91-.58-9.82-1.74-2.92-1.16-5.39-2.81-7.41-4.96-2.02-2.14-3.59-4.7-4.69-7.68-1.1-2.98-1.65-6.25-1.65-9.82s.56-6.67,1.7-9.64c1.13-2.98,2.74-5.55,4.82-7.72,2.08-2.17,4.57-3.88,7.46-5.13,2.89-1.25,6.09-1.87,9.6-1.87,3.93,0,7.35.76,10.27,2.28,2.92,1.52,5.31,3.56,7.19,6.12,1.88,2.56,3.23,5.48,4.06,8.75.83,3.28,1.13,6.7.89,10.27h-33.3c.18,4.11,1.22,7.08,3.12,8.93M594.02,478.54c-1.52-1.67-3.83-2.5-6.92-2.5-2.02,0-3.71.34-5.04,1.03-1.34.69-2.41,1.53-3.21,2.54-.8,1.01-1.37,2.08-1.7,3.21-.33,1.13-.52,2.14-.58,3.04h20.63c-.6-3.21-1.65-5.65-3.17-7.32M535.62,513.9l-8.21-30.98h-.18l-7.86,30.98h-13.13l-14.64-46.16h13.39l8.48,31.34h.18l7.68-31.34h12.32l7.86,31.25h.18l8.48-31.25h13.04l-14.55,46.16h-13.04ZM474.83,508.01c-1.49,2.5-3.44,4.3-5.85,5.4-2.41,1.1-5.13,1.65-8.17,1.65-3.45,0-6.49-.67-9.11-2.01-2.62-1.34-4.78-3.15-6.47-5.45-1.7-2.29-2.98-4.93-3.84-7.9-.86-2.98-1.29-6.07-1.29-9.29s.43-6.09,1.29-8.97c.86-2.89,2.14-5.43,3.84-7.63,1.7-2.2,3.82-3.97,6.38-5.31,2.56-1.34,5.54-2.01,8.93-2.01,2.74,0,5.34.58,7.81,1.74,2.47,1.16,4.42,2.87,5.85,5.13h.18v-23.22h12.68v63.75h-12.05v-5.89h-.18ZM474.29,485.19c-.36-1.76-.97-3.3-1.83-4.64-.86-1.34-1.98-2.42-3.35-3.26-1.37-.83-3.1-1.25-5.18-1.25s-3.84.42-5.27,1.25c-1.43.83-2.58,1.94-3.44,3.3-.86,1.37-1.49,2.93-1.88,4.69-.39,1.76-.58,3.59-.58,5.49,0,1.79.21,3.57.63,5.36.42,1.79,1.09,3.38,2.01,4.78.92,1.4,2.08,2.53,3.48,3.39,1.4.86,3.08,1.3,5.04,1.3,2.08,0,3.82-.42,5.22-1.25,1.4-.83,2.51-1.95,3.35-3.35.83-1.4,1.43-2.99,1.79-4.78.36-1.79.54-3.63.54-5.54s-.18-3.73-.54-5.49M421.1,513.9v-6.43h-.27c-1.61,2.68-3.69,4.61-6.25,5.8-2.56,1.19-5.18,1.79-7.86,1.79-3.39,0-6.18-.45-8.35-1.34-2.17-.89-3.88-2.16-5.13-3.79-1.25-1.64-2.13-3.63-2.63-5.98-.51-2.35-.76-4.96-.76-7.81v-28.39h12.68v26.07c0,3.81.59,6.65,1.79,8.53,1.19,1.87,3.3,2.81,6.34,2.81,3.45,0,5.95-1.03,7.5-3.08,1.55-2.05,2.32-5.43,2.32-10.13v-24.2h12.68v46.16h-12.05ZM426.73,460.59h-12.05v-10.45h12.05v10.45ZM408.34,460.59h-12.05v-10.45h12.05v10.45ZM344.56,498.18c.77,1.49,1.8,2.69,3.08,3.62,1.28.92,2.78,1.61,4.51,2.05,1.73.45,3.51.67,5.36.67,1.25,0,2.59-.1,4.02-.31,1.43-.21,2.77-.61,4.02-1.21,1.25-.59,2.29-1.41,3.12-2.45.83-1.04,1.25-2.37,1.25-3.97,0-1.73-.55-3.12-1.65-4.2-1.1-1.07-2.54-1.96-4.33-2.68-1.79-.71-3.81-1.34-6.07-1.87-2.26-.54-4.55-1.13-6.88-1.79-2.38-.59-4.7-1.32-6.96-2.19-2.26-.86-4.29-1.98-6.07-3.35-1.79-1.37-3.23-3.08-4.33-5.13-1.1-2.05-1.65-4.54-1.65-7.46,0-3.27.7-6.12,2.1-8.53,1.4-2.41,3.23-4.42,5.49-6.03,2.26-1.61,4.82-2.8,7.68-3.57,2.86-.77,5.71-1.16,8.57-1.16,3.33,0,6.53.37,9.6,1.12,3.07.74,5.79,1.95,8.17,3.62,2.38,1.67,4.27,3.79,5.67,6.38,1.4,2.59,2.1,5.73,2.1,9.42h-13.57c-.12-1.9-.52-3.48-1.21-4.73-.68-1.25-1.59-2.23-2.72-2.95-1.13-.71-2.43-1.22-3.88-1.52-1.46-.3-3.05-.45-4.78-.45-1.13,0-2.26.12-3.39.36-1.13.24-2.16.66-3.08,1.25-.92.6-1.68,1.34-2.28,2.23-.6.89-.89,2.02-.89,3.39,0,1.25.24,2.26.71,3.04.48.77,1.41,1.49,2.81,2.14,1.4.66,3.33,1.31,5.8,1.96,2.47.66,5.7,1.49,9.69,2.5,1.19.24,2.84.67,4.96,1.29,2.11.63,4.21,1.62,6.29,2.99,2.08,1.37,3.88,3.2,5.4,5.49,1.52,2.29,2.28,5.22,2.28,8.8,0,2.92-.57,5.63-1.7,8.13-1.13,2.5-2.81,4.66-5.04,6.47-2.23,1.82-5,3.23-8.3,4.24-3.3,1.01-7.13,1.52-11.47,1.52-3.51,0-6.92-.43-10.22-1.29-3.3-.86-6.22-2.22-8.75-4.06-2.53-1.84-4.54-4.2-6.03-7.05-1.49-2.86-2.2-6.25-2.14-10.18h13.57c0,2.14.39,3.96,1.16,5.45M285.18,496.04c0,.71-.08,1.67-.22,2.86-.15,1.19-.55,2.37-1.2,3.53-.66,1.16-1.67,2.16-3.04,2.99-1.37.83-3.3,1.25-5.8,1.25-1.01,0-2-.09-2.95-.27-.95-.18-1.79-.49-2.5-.94-.71-.45-1.28-1.06-1.7-1.83-.42-.77-.63-1.73-.63-2.86,0-1.19.21-2.17.63-2.95.42-.77.97-1.41,1.65-1.92.68-.51,1.49-.91,2.41-1.21.92-.3,1.86-.54,2.81-.71,1.01-.18,2.02-.33,3.04-.45,1.01-.12,1.98-.27,2.9-.45.92-.18,1.79-.4,2.59-.67.8-.27,1.47-.64,2.01-1.12v4.73ZM268.57,481.93c.24-2.5,1.07-4.29,2.5-5.36s3.39-1.61,5.89-1.61c1.13,0,2.19.08,3.17.22.98.15,1.84.45,2.59.89.74.45,1.34,1.07,1.79,1.88.45.8.67,1.89.67,3.26.06,1.31-.33,2.31-1.16,2.99-.83.68-1.96,1.2-3.39,1.56-1.43.36-3.07.63-4.91.8-1.85.18-3.72.42-5.63.71-1.91.3-3.79.7-5.67,1.2-1.87.51-3.54,1.27-5,2.28-1.46,1.01-2.65,2.37-3.57,4.06-.92,1.7-1.38,3.85-1.38,6.47,0,2.38.4,4.43,1.2,6.16.8,1.73,1.92,3.16,3.35,4.29,1.43,1.13,3.09,1.96,5,2.5,1.9.54,3.96.8,6.16.8,2.86,0,5.65-.42,8.39-1.25,2.74-.83,5.12-2.29,7.14-4.37.06.77.16,1.53.31,2.28.15.74.34,1.47.58,2.19h12.86c-.6-.95-1.01-2.38-1.25-4.29-.24-1.9-.36-3.9-.36-5.98v-24.02c0-2.8-.62-5.04-1.87-6.74-1.25-1.7-2.86-3.02-4.82-3.97-1.96-.95-4.14-1.59-6.52-1.92-2.38-.33-4.73-.49-7.05-.49-2.56,0-5.1.25-7.63.76-2.53.51-4.81,1.36-6.83,2.54-2.02,1.19-3.69,2.77-5,4.73-1.31,1.96-2.05,4.43-2.23,7.41h12.68ZM250.45,467.74v8.48h-9.29v22.86c0,2.14.36,3.57,1.07,4.29s2.14,1.07,4.29,1.07c.71,0,1.4-.03,2.05-.09.65-.06,1.28-.15,1.88-.27v9.82c-1.07.18-2.26.3-3.57.36-1.31.06-2.59.09-3.84.09-1.96,0-3.83-.13-5.58-.4-1.76-.27-3.3-.79-4.64-1.56-1.34-.77-2.4-1.87-3.17-3.3-.77-1.43-1.16-3.3-1.16-5.63v-27.23h-7.68v-8.48h7.68v-13.84h12.68v13.84h9.29ZM203.52,496.04c0,.71-.08,1.67-.22,2.86-.15,1.19-.55,2.37-1.21,3.53-.66,1.16-1.67,2.16-3.04,2.99-1.37.83-3.3,1.25-5.8,1.25-1.01,0-2-.09-2.95-.27-.95-.18-1.79-.49-2.5-.94-.71-.45-1.28-1.06-1.7-1.83-.42-.77-.62-1.73-.62-2.86,0-1.19.21-2.17.62-2.95.42-.77.97-1.41,1.65-1.92.68-.51,1.49-.91,2.41-1.21.92-.3,1.86-.54,2.81-.71,1.01-.18,2.02-.33,3.04-.45,1.01-.12,1.98-.27,2.9-.45.92-.18,1.79-.4,2.59-.67.8-.27,1.47-.64,2.01-1.12v4.73ZM186.91,481.93c.24-2.5,1.07-4.29,2.5-5.36s3.39-1.61,5.89-1.61c1.13,0,2.19.08,3.17.22.98.15,1.84.45,2.59.89.74.45,1.34,1.07,1.79,1.88.45.8.67,1.89.67,3.26.06,1.31-.33,2.31-1.16,2.99-.83.68-1.96,1.2-3.39,1.56s-3.07.63-4.91.8c-1.85.18-3.72.42-5.63.71-1.91.3-3.79.7-5.67,1.2-1.88.51-3.54,1.27-5,2.28-1.46,1.01-2.65,2.37-3.57,4.06-.92,1.7-1.38,3.85-1.38,6.47,0,2.38.4,4.43,1.21,6.16.8,1.73,1.92,3.16,3.35,4.29,1.43,1.13,3.09,1.96,5,2.5,1.9.54,3.96.8,6.16.8,2.86,0,5.65-.42,8.39-1.25,2.74-.83,5.12-2.29,7.14-4.37.06.77.16,1.53.31,2.28.15.74.34,1.47.58,2.19h12.86c-.6-.95-1.01-2.38-1.25-4.29-.24-1.9-.36-3.9-.36-5.98v-24.02c0-2.8-.63-5.04-1.87-6.74-1.25-1.7-2.86-3.02-4.82-3.97-1.96-.95-4.14-1.59-6.52-1.92-2.38-.33-4.73-.49-7.05-.49-2.56,0-5.1.25-7.63.76-2.53.51-4.81,1.36-6.83,2.54-2.02,1.19-3.69,2.77-5,4.73-1.31,1.96-2.05,4.43-2.23,7.41h12.68ZM138.99,450.15c4.11,0,7.93.66,11.47,1.96,3.54,1.31,6.61,3.27,9.2,5.89,2.59,2.62,4.61,5.89,6.07,9.82,1.46,3.93,2.19,8.54,2.19,13.84,0,4.64-.6,8.93-1.79,12.86-1.19,3.93-2.99,7.32-5.4,10.18-2.41,2.86-5.42,5.1-9.02,6.74-3.6,1.64-7.84,2.46-12.72,2.46h-27.5v-63.75h27.5ZM138.01,502.11c2.02,0,3.99-.33,5.89-.98,1.9-.65,3.6-1.74,5.09-3.26,1.49-1.52,2.68-3.5,3.57-5.94.89-2.44,1.34-5.42,1.34-8.93,0-3.21-.31-6.12-.94-8.71-.63-2.59-1.65-4.81-3.08-6.65-1.43-1.84-3.32-3.26-5.67-4.24-2.35-.98-5.25-1.47-8.71-1.47h-10v40.18h12.5ZM81.74,527.65c-2.44,1.61-5.83,2.41-10.18,2.41-1.31,0-2.61-.04-3.88-.13-1.28-.09-2.58-.19-3.88-.31v-10.45c1.19.12,2.41.24,3.66.36,1.25.12,2.5.15,3.75.09,1.67-.18,2.9-.83,3.71-1.96.8-1.13,1.2-2.38,1.2-3.75,0-1.01-.18-1.96-.54-2.86l-16.16-43.31h13.48l10.45,31.61h.18l10.09-31.61h13.13l-19.29,51.88c-1.37,3.75-3.27,6.43-5.71,8.04M34.29,450.15c3.99,0,7.38.58,10.18,1.74,2.8,1.16,5.07,2.69,6.83,4.6,1.76,1.91,3.04,4.08,3.84,6.52.8,2.44,1.21,4.97,1.21,7.59s-.4,5.08-1.21,7.54c-.8,2.47-2.08,4.66-3.84,6.56-1.76,1.91-4.03,3.44-6.83,4.6-2.8,1.16-6.19,1.74-10.18,1.74h-14.73v22.86H5.54v-63.75h28.75ZM30.45,480.15c1.61,0,3.15-.12,4.64-.36,1.49-.24,2.8-.7,3.93-1.38,1.13-.68,2.04-1.65,2.72-2.9.68-1.25,1.03-2.89,1.03-4.91s-.34-3.66-1.03-4.91c-.69-1.25-1.59-2.22-2.72-2.9-1.13-.68-2.44-1.15-3.93-1.38-1.49-.24-3.04-.36-4.64-.36h-10.89v19.11h10.89Z" style="fill: #2ab1e7;"/>
  </g>
  <path d="M335.19,290.64v-92.19l-86.27-45.07,86.27,137.26ZM248.92,245.56l86.27,45.07-86.27-137.26h0s0,0,0,0v92.19Z" style="fill: #2ab1e7;"/>
  <polygon points="339.6 190.08 253.96 145.01 340.23 100.7 426.5 145.26 339.6 190.08" style="fill: #2ab1e7;"/>
  <polygon points="345.26 198.48 345.26 290.67 431.53 245.56 431.53 153.37 345.26 198.48" style="fill: #2ab1e7;"/>
  <path d="M431.28,137.67V45.48L345.01.41l86.27,137.26ZM345.01.4v92.19l86.27,45.07L345.01.41h0s0,0,0,0Z" style="fill: #2ab1e7;"/>
  <path d="M335.19,394.01v-92.19l-86.27-45.07,86.27,137.26ZM248.92,348.93l86.27,45.08-86.27-137.26v92.18Z" style="fill: #2ab1e7;"/>
</svg>