<?xml version="1.0" encoding="UTF-8"?>
<svg id="uuid-fbc18298-0073-45bf-bf54-f508a03b866a" data-name="Ebene 1" xmlns="http://www.w3.org/2000/svg" xmlns:xlink="http://www.w3.org/1999/xlink" viewBox="0 0 1366 768">
  <defs>
    <clipPath id="uuid-84b75a32-803c-4b8c-8b23-a8a239ef5ddd">
      <rect x="181.13" y="167.67" width="1003.69" height="433.35" fill="none"/>
    </clipPath>
  </defs>
  <g clip-path="url(#uuid-84b75a32-803c-4b8c-8b23-a8a239ef5ddd)">
    <path d="M1170.35,422.83v2.44h.07c.64-1.04,1.46-1.79,2.44-2.26.99-.47,2.07-.7,3.26-.7,1.5,0,2.8.28,3.89.85,1.08.57,1.98,1.32,2.7,2.26.71.94,1.24,2.03,1.59,3.28.34,1.24.52,2.55.52,3.9,0,1.28-.17,2.52-.52,3.7-.35,1.18-.87,2.23-1.57,3.15-.7.91-1.58,1.64-2.63,2.18-1.05.54-2.28.81-3.68.81-1.18,0-2.28-.24-3.28-.72s-1.82-1.19-2.46-2.13h-.07v9.07h-5.25v-25.83h4.99ZM1177.18,438c.58-.35,1.05-.8,1.41-1.35.36-.55.61-1.2.76-1.94.15-.74.22-1.49.22-2.26s-.08-1.52-.24-2.26c-.16-.74-.43-1.4-.8-1.98-.37-.58-.84-1.05-1.42-1.41-.58-.36-1.29-.54-2.13-.54s-1.58.18-2.16.54c-.58.36-1.05.82-1.41,1.39-.36.57-.61,1.22-.76,1.96-.15.74-.22,1.51-.22,2.29s.08,1.52.24,2.26c.16.74.42,1.39.78,1.94.36.56.83,1.01,1.43,1.35.59.35,1.31.52,2.15.52s1.58-.17,2.16-.52M1156.31,441.96v-2.66h-.11c-.67,1.11-1.53,1.91-2.59,2.4-1.06.49-2.15.74-3.26.74-1.41,0-2.56-.18-3.46-.55-.9-.37-1.61-.89-2.13-1.57-.52-.68-.88-1.5-1.09-2.48-.21-.97-.31-2.05-.31-3.24v-11.77h5.25v10.8c0,1.58.25,2.76.74,3.53.49.78,1.37,1.17,2.63,1.17,1.43,0,2.47-.43,3.11-1.28.64-.85.96-2.25.96-4.2v-10.03h5.25v19.13h-4.99ZM1140.96,422.83v3.51h-3.85v9.47c0,.89.15,1.48.44,1.78.3.3.89.44,1.78.44.3,0,.58-.01.85-.04.27-.02.53-.06.78-.11v4.07c-.44.07-.94.12-1.48.15-.54.02-1.07.04-1.59.04-.81,0-1.59-.06-2.31-.17-.73-.11-1.37-.33-1.92-.65-.55-.32-.99-.78-1.31-1.37-.32-.59-.48-1.37-.48-2.33v-11.29h-3.18v-3.51h3.18v-5.74h5.25v5.74h3.85ZM1115.08,437.38c.79.76,1.92,1.15,3.4,1.15,1.06,0,1.97-.26,2.74-.79.76-.53,1.23-1.09,1.41-1.68h4.62c-.74,2.29-1.88,3.93-3.4,4.92-1.53.99-3.38,1.48-5.55,1.48-1.51,0-2.86-.24-4.07-.72-1.21-.48-2.23-1.16-3.07-2.05-.84-.89-1.49-1.95-1.94-3.18-.46-1.23-.68-2.59-.68-4.07s.23-2.76.7-4c.47-1.23,1.13-2.3,2-3.2.86-.9,1.89-1.61,3.09-2.13s2.52-.78,3.98-.78c1.63,0,3.05.31,4.26.94,1.21.63,2.2,1.47,2.98,2.54.78,1.06,1.34,2.27,1.68,3.63.34,1.36.47,2.78.37,4.26h-13.8c.07,1.7.51,2.94,1.3,3.7M1121.02,427.31c-.63-.69-1.59-1.04-2.87-1.04-.84,0-1.54.14-2.09.43-.55.28-1,.64-1.33,1.06-.33.42-.57.86-.7,1.33-.14.47-.22.89-.24,1.26h8.55c-.25-1.33-.68-2.34-1.31-3.03M1093.77,437.38c.79.76,1.92,1.15,3.4,1.15,1.06,0,1.97-.26,2.74-.79.76-.53,1.23-1.09,1.41-1.68h4.62c-.74,2.29-1.88,3.93-3.4,4.92-1.53.99-3.38,1.48-5.55,1.48-1.51,0-2.86-.24-4.07-.72-1.21-.48-2.23-1.16-3.07-2.05-.84-.89-1.49-1.95-1.94-3.18-.46-1.23-.68-2.59-.68-4.07s.23-2.76.7-4c.47-1.23,1.13-2.3,2-3.2.86-.9,1.89-1.61,3.09-2.13,1.2-.52,2.52-.78,3.98-.78,1.63,0,3.05.31,4.26.94,1.21.63,2.2,1.47,2.98,2.54.78,1.06,1.34,2.27,1.68,3.63.35,1.36.47,2.78.37,4.26h-13.8c.07,1.7.5,2.94,1.29,3.7M1099.71,427.31c-.63-.69-1.59-1.04-2.87-1.04-.84,0-1.54.14-2.09.43-.55.28-1,.64-1.33,1.06-.33.42-.57.86-.7,1.33-.14.47-.22.89-.24,1.26h8.55c-.25-1.33-.68-2.34-1.31-3.03M1063.38,415.55l6.18,18.17h.07l5.85-18.17h8.18v26.42h-5.44v-18.72h-.07l-6.47,18.72h-4.48l-6.48-18.54h-.07v18.54h-5.44v-26.42h8.18ZM1027.42,422.83v2.66h.11c.67-1.11,1.53-1.92,2.59-2.42,1.06-.51,2.15-.76,3.26-.76,1.41,0,2.56.19,3.46.57.9.38,1.61.91,2.13,1.59.52.68.88,1.51,1.09,2.48.21.98.31,2.05.31,3.24v11.77h-5.25v-10.8c0-1.58-.25-2.76-.74-3.53-.49-.78-1.37-1.16-2.63-1.16-1.43,0-2.47.42-3.11,1.28-.64.85-.96,2.25-.96,4.2v10.03h-5.25v-19.13h4.99ZM1000.08,428.26c.47-1.25,1.13-2.31,2-3.18.86-.88,1.9-1.55,3.11-2.04,1.21-.48,2.57-.72,4.07-.72s2.87.24,4.09.72,2.26,1.16,3.13,2.04c.86.88,1.53,1.94,2,3.18.47,1.24.7,2.63.7,4.16s-.23,2.91-.7,4.14c-.47,1.23-1.14,2.29-2,3.16-.86.88-1.91,1.55-3.13,2.02s-2.58.7-4.09.7-2.86-.24-4.07-.7c-1.21-.47-2.24-1.14-3.11-2.02-.86-.88-1.53-1.93-2-3.16-.47-1.23-.7-2.61-.7-4.14s.23-2.92.7-4.16M1004.85,434.66c.15.73.4,1.38.76,1.96.36.58.83,1.04,1.42,1.39.59.35,1.33.52,2.22.52s1.63-.17,2.24-.52c.6-.35,1.08-.81,1.44-1.39.36-.58.61-1.23.76-1.96.15-.73.22-1.47.22-2.24s-.07-1.52-.22-2.26c-.15-.74-.4-1.39-.76-1.96-.36-.57-.84-1.03-1.44-1.39-.61-.36-1.35-.54-2.24-.54s-1.63.18-2.22.54c-.59.36-1.07.82-1.42,1.39-.36.57-.61,1.22-.76,1.96-.15.74-.22,1.49-.22,2.26s.07,1.51.22,2.24M983.47,415.55v9.95h.11c.67-1.11,1.52-1.92,2.55-2.42,1.04-.51,2.05-.76,3.03-.76,1.41,0,2.56.19,3.46.57.9.38,1.61.91,2.13,1.59.52.68.88,1.51,1.09,2.48.21.98.32,2.05.32,3.24v11.77h-5.25v-10.8c0-1.58-.25-2.76-.74-3.53-.49-.78-1.37-1.16-2.63-1.16-1.43,0-2.47.42-3.11,1.28-.64.85-.96,2.25-.96,4.2v10.03h-5.25v-26.42h5.25ZM975.5,422.83v3.51h-3.85v9.47c0,.89.15,1.48.44,1.78s.89.44,1.78.44c.3,0,.58-.01.85-.04.27-.02.53-.06.78-.11v4.07c-.44.07-.94.12-1.48.15-.54.02-1.07.04-1.59.04-.81,0-1.59-.06-2.31-.17-.73-.11-1.37-.33-1.92-.65-.55-.32-.99-.78-1.31-1.37-.32-.59-.48-1.37-.48-2.33v-11.29h-3.18v-3.51h3.18v-5.74h5.25v5.74h3.85ZM951.66,447.66c-1.01.67-2.42,1-4.22,1-.54,0-1.08-.02-1.61-.06-.53-.04-1.07-.08-1.61-.13v-4.33c.49.05,1,.1,1.52.15.52.05,1.04.06,1.55.04.69-.07,1.2-.35,1.53-.81.33-.47.5-.99.5-1.55,0-.42-.07-.81-.22-1.18l-6.7-17.95h5.59l4.33,13.1h.07l4.18-13.1h5.44l-7.99,21.5c-.57,1.55-1.36,2.66-2.37,3.33M931.68,415.55c1.65,0,3.06.24,4.22.72,1.16.48,2.1,1.12,2.83,1.91.73.79,1.26,1.69,1.59,2.7.33,1.01.5,2.06.5,3.15s-.17,2.1-.5,3.13c-.33,1.02-.86,1.93-1.59,2.72-.73.79-1.67,1.42-2.83,1.9-1.16.48-2.57.72-4.22.72h-6.11v9.47h-5.81v-26.42h11.91ZM930.08,427.98c.67,0,1.31-.05,1.92-.15.62-.1,1.16-.29,1.63-.57.47-.28.84-.68,1.13-1.2.28-.52.43-1.2.43-2.03s-.14-1.52-.43-2.04c-.28-.52-.66-.92-1.13-1.2-.47-.28-1.01-.47-1.63-.57-.62-.1-1.26-.15-1.92-.15h-4.51v7.92h4.51ZM891.98,422.83v2.66h.11c.67-1.11,1.53-1.92,2.59-2.42,1.06-.51,2.15-.76,3.26-.76,1.41,0,2.56.19,3.46.57.9.38,1.61.91,2.13,1.59.52.68.88,1.51,1.09,2.48.21.98.31,2.05.31,3.24v11.77h-5.25v-10.8c0-1.58-.25-2.76-.74-3.53-.49-.78-1.37-1.16-2.63-1.16-1.43,0-2.47.42-3.11,1.28-.64.85-.96,2.25-.96,4.2v10.03h-5.25v-19.13h5ZM882.88,441.96h-5.25v-19.13h5.25v19.13ZM877.63,415.55h5.25v4.33h-5.25v-4.33ZM851.58,437.38c.79.76,1.92,1.15,3.4,1.15,1.06,0,1.97-.26,2.74-.79.77-.53,1.23-1.09,1.41-1.68h4.62c-.74,2.29-1.87,3.93-3.4,4.92-1.53.99-3.38,1.48-5.55,1.48-1.5,0-2.86-.24-4.07-.72-1.21-.48-2.23-1.16-3.07-2.05-.84-.89-1.49-1.95-1.94-3.18-.46-1.23-.69-2.59-.69-4.07s.24-2.76.7-4c.47-1.23,1.14-2.3,2-3.2.86-.9,1.89-1.61,3.09-2.13,1.2-.52,2.52-.78,3.98-.78,1.63,0,3.05.31,4.26.94,1.21.63,2.2,1.47,2.98,2.54.78,1.06,1.34,2.27,1.68,3.63.35,1.36.47,2.78.37,4.26h-13.8c.07,1.7.51,2.94,1.29,3.7M857.52,427.31c-.63-.69-1.59-1.04-2.87-1.04-.84,0-1.54.14-2.09.43-.55.28-1,.64-1.33,1.06-.33.42-.57.86-.7,1.33-.14.47-.22.89-.24,1.26h8.55c-.25-1.33-.68-2.34-1.31-3.03M833.77,426.28c-.84,0-1.54.19-2.11.57-.57.38-1.03.88-1.39,1.48-.36.6-.61,1.27-.76,2-.15.73-.22,1.45-.22,2.16s.07,1.39.22,2.11c.15.72.39,1.36.72,1.94.33.58.78,1.05,1.35,1.42.57.37,1.26.56,2.07.56,1.26,0,2.23-.35,2.9-1.06.68-.7,1.1-1.65,1.28-2.83h5.07c-.35,2.54-1.33,4.48-2.96,5.81s-3.71,2-6.25,2c-1.43,0-2.74-.24-3.94-.72-1.2-.48-2.21-1.15-3.05-2.02-.84-.86-1.49-1.89-1.96-3.09-.47-1.2-.7-2.51-.7-3.94s.22-2.85.65-4.13c.43-1.27,1.07-2.37,1.9-3.29.84-.93,1.86-1.65,3.07-2.16,1.21-.52,2.59-.78,4.14-.78,1.14,0,2.23.15,3.27.44,1.05.3,1.99.75,2.81,1.35.83.6,1.5,1.36,2.02,2.26.52.9.81,1.97.89,3.2h-5.14c-.34-2.19-1.64-3.29-3.88-3.29M807.88,422.83v2.66h.11c.67-1.11,1.53-1.92,2.59-2.42,1.06-.51,2.15-.76,3.26-.76,1.41,0,2.56.19,3.46.57.9.38,1.61.91,2.13,1.59.52.68.88,1.51,1.09,2.48.21.98.31,2.05.31,3.24v11.77h-5.25v-10.8c0-1.58-.25-2.76-.74-3.53-.49-.78-1.37-1.16-2.63-1.16-1.43,0-2.47.42-3.11,1.28-.64.85-.96,2.25-.96,4.2v10.03h-5.25v-19.13h4.99ZM787.27,437.38c.79.76,1.92,1.15,3.4,1.15,1.06,0,1.97-.26,2.74-.79.76-.53,1.23-1.09,1.41-1.68h4.62c-.74,2.29-1.88,3.93-3.4,4.92-1.53.99-3.38,1.48-5.55,1.48-1.51,0-2.86-.24-4.07-.72-1.21-.48-2.23-1.16-3.07-2.05-.84-.89-1.49-1.95-1.94-3.18-.46-1.23-.68-2.59-.68-4.07s.23-2.76.7-4c.47-1.23,1.13-2.3,2-3.2.86-.9,1.89-1.61,3.09-2.13,1.2-.52,2.52-.78,3.98-.78,1.63,0,3.05.31,4.26.94,1.21.63,2.2,1.47,2.98,2.54.78,1.06,1.34,2.27,1.68,3.63.34,1.36.47,2.78.37,4.26h-13.8c.07,1.7.51,2.94,1.3,3.7M793.21,427.31c-.63-.69-1.59-1.04-2.87-1.04-.84,0-1.54.14-2.09.43-.55.28-1,.64-1.33,1.06-.33.42-.57.86-.7,1.33-.14.47-.22.89-.24,1.26h8.55c-.25-1.33-.68-2.34-1.31-3.03M777.21,443.37c-.21.99-.66,1.91-1.35,2.76-.69.85-1.69,1.57-3,2.17-1.31.59-3.06.89-5.25.89-.94,0-1.89-.12-2.87-.35-.97-.24-1.86-.6-2.66-1.09-.8-.49-1.47-1.13-2-1.91-.53-.78-.83-1.71-.91-2.79h5.22c.25.99.73,1.67,1.44,2.05.72.38,1.54.57,2.48.57,1.48,0,2.56-.44,3.24-1.33.68-.89,1.01-2.01.98-3.37v-2.52h-.07c-.57,1.01-1.38,1.76-2.42,2.24-1.05.48-2.15.72-3.31.72-1.43,0-2.66-.25-3.7-.76-1.04-.51-1.89-1.2-2.55-2.07-.67-.88-1.15-1.9-1.46-3.07-.31-1.17-.46-2.41-.46-3.72,0-1.23.18-2.42.54-3.57.36-1.15.88-2.16,1.57-3.03.69-.88,1.55-1.57,2.57-2.09,1.02-.52,2.2-.78,3.53-.78,1.26,0,2.36.24,3.31.7.95.47,1.74,1.26,2.39,2.37h.07v-2.55h5v17.91c0,.76-.11,1.64-.31,2.63M770.01,437.01c.57-.3,1.04-.69,1.41-1.18.37-.49.65-1.05.83-1.68.18-.63.28-1.29.28-1.98,0-.79-.07-1.54-.22-2.24-.15-.7-.39-1.33-.74-1.87-.34-.54-.8-.97-1.37-1.29-.57-.32-1.28-.48-2.15-.48-.74,0-1.38.15-1.9.44-.53.3-.98.7-1.33,1.2-.36.51-.62,1.09-.78,1.74-.16.65-.24,1.34-.24,2.05s.07,1.38.2,2.05c.14.68.37,1.29.7,1.83.33.54.77.99,1.31,1.33.54.35,1.22.52,2.03.52.74,0,1.39-.15,1.96-.44M755.12,441.96h-5.25v-19.13h5.25v19.13ZM749.87,415.55h5.25v4.33h-5.25v-4.33ZM745.71,441.96h-5.25v-26.42h5.25v26.42ZM736.29,441.96h-5.25v-26.42h5.25v26.42ZM715.37,437.38c.79.76,1.92,1.15,3.4,1.15,1.06,0,1.97-.26,2.74-.79.76-.53,1.23-1.09,1.41-1.68h4.62c-.74,2.29-1.88,3.93-3.4,4.92-1.53.99-3.38,1.48-5.55,1.48-1.51,0-2.86-.24-4.07-.72-1.21-.48-2.23-1.16-3.07-2.05-.84-.89-1.49-1.95-1.94-3.18-.46-1.23-.68-2.59-.68-4.07s.23-2.76.7-4c.47-1.23,1.13-2.3,2-3.2.86-.9,1.89-1.61,3.09-2.13,1.2-.52,2.52-.78,3.98-.78,1.63,0,3.05.31,4.26.94,1.21.63,2.2,1.47,2.98,2.54.78,1.06,1.34,2.27,1.68,3.63.35,1.36.47,2.78.37,4.26h-13.8c.07,1.7.51,2.94,1.29,3.7M721.31,427.31c-.63-.69-1.58-1.04-2.87-1.04-.84,0-1.53.14-2.09.43-.56.28-1,.64-1.33,1.06-.33.42-.57.86-.7,1.33-.14.47-.22.89-.24,1.26h8.55c-.25-1.33-.68-2.34-1.31-3.03M707.43,422.83v3.51h-3.85v9.47c0,.89.15,1.48.44,1.78.3.3.89.44,1.78.44.3,0,.58-.01.85-.04.27-.02.53-.06.78-.11v4.07c-.44.07-.94.12-1.48.15-.54.02-1.07.04-1.59.04-.81,0-1.58-.06-2.31-.17-.73-.11-1.37-.33-1.92-.65-.55-.32-.99-.78-1.31-1.37-.32-.59-.48-1.37-.48-2.33v-11.29h-3.18v-3.51h3.18v-5.74h5.25v5.74h3.85ZM680.13,422.83v2.66h.11c.67-1.11,1.53-1.92,2.59-2.42,1.06-.51,2.15-.76,3.26-.76,1.41,0,2.56.19,3.46.57.9.38,1.61.91,2.13,1.59.52.68.88,1.51,1.09,2.48.21.98.31,2.05.31,3.24v11.77h-5.25v-10.8c0-1.58-.25-2.76-.74-3.53-.49-.78-1.37-1.16-2.63-1.16-1.43,0-2.47.42-3.11,1.28-.64.85-.96,2.25-.96,4.2v10.03h-5.25v-19.13h4.99ZM670.63,441.96h-5.81v-26.42h5.81v26.42ZM649.84,441.96h-5.25v-26.42h5.25v26.42ZM635.19,434.56c0,.3-.03.69-.09,1.18-.06.49-.23.98-.5,1.46-.27.48-.69.89-1.26,1.24-.57.35-1.37.52-2.4.52-.42,0-.83-.04-1.22-.11-.39-.07-.74-.2-1.04-.39-.3-.18-.53-.44-.7-.76-.17-.32-.26-.72-.26-1.18,0-.49.09-.9.26-1.22.17-.32.4-.59.68-.8.28-.21.62-.38,1-.5.38-.12.77-.22,1.16-.3.42-.07.84-.14,1.26-.18.42-.05.82-.11,1.2-.19.38-.07.74-.17,1.07-.28.33-.11.61-.26.83-.46v1.96ZM628.31,428.72c.1-1.04.44-1.78,1.04-2.22.59-.44,1.41-.67,2.44-.67.47,0,.91.03,1.31.09.41.06.76.18,1.07.37.31.18.55.44.74.78.18.33.28.78.28,1.35.02.54-.14.96-.48,1.24-.35.28-.81.5-1.41.65-.59.15-1.27.26-2.03.33-.76.07-1.54.17-2.33.3-.79.12-1.57.29-2.35.5-.78.21-1.47.52-2.07.94-.61.42-1.1.98-1.48,1.68-.38.7-.57,1.6-.57,2.68,0,.99.17,1.84.5,2.55.33.72.8,1.31,1.39,1.78.59.47,1.28.81,2.07,1.04.79.22,1.64.33,2.55.33,1.18,0,2.34-.17,3.48-.52,1.14-.35,2.12-.95,2.96-1.81.02.32.07.63.13.94.06.31.14.61.24.91h5.33c-.25-.39-.42-.99-.52-1.78-.1-.79-.15-1.61-.15-2.48v-9.95c0-1.16-.26-2.09-.78-2.79s-1.18-1.25-2-1.65c-.81-.39-1.71-.66-2.7-.8-.99-.13-1.96-.2-2.92-.2-1.06,0-2.11.11-3.16.31-1.05.21-1.99.56-2.83,1.05-.84.49-1.53,1.15-2.07,1.96-.54.81-.85,1.84-.93,3.07h5.25ZM619.15,441.96h-5.25v-19.13h5.25v19.13ZM613.89,415.55h5.25v4.33h-5.25v-4.33ZM601.71,426.28c-.84,0-1.54.19-2.11.57-.57.38-1.03.88-1.39,1.48-.36.6-.61,1.27-.76,2-.15.73-.22,1.45-.22,2.16s.07,1.39.22,2.11c.15.72.39,1.36.72,1.94.33.58.78,1.05,1.35,1.42.57.37,1.26.56,2.07.56,1.26,0,2.23-.35,2.9-1.06.68-.7,1.1-1.65,1.28-2.83h5.07c-.35,2.54-1.33,4.48-2.96,5.81-1.63,1.33-3.71,2-6.25,2-1.43,0-2.74-.24-3.94-.72-1.2-.48-2.21-1.15-3.05-2.02-.84-.86-1.49-1.89-1.96-3.09-.47-1.2-.7-2.51-.7-3.94s.22-2.85.65-4.13c.43-1.27,1.07-2.37,1.91-3.29.84-.93,1.86-1.65,3.07-2.16,1.21-.52,2.59-.78,4.14-.78,1.13,0,2.23.15,3.27.44,1.05.3,1.99.75,2.81,1.35.83.6,1.5,1.36,2.02,2.26.52.9.81,1.97.89,3.2h-5.14c-.35-2.19-1.64-3.29-3.89-3.29M583.38,415.55h5.25v4.33h-5.25v-4.33ZM588.63,441.96h-5.25v-19.13h5.25v19.13ZM568.17,426.35v-3.51h3.14v-1.48c0-1.7.53-3.1,1.59-4.18,1.06-1.09,2.66-1.63,4.81-1.63.47,0,.94.02,1.41.06.47.04.93.07,1.37.09v3.92c-.62-.07-1.26-.11-1.92-.11-.71,0-1.23.17-1.53.5-.31.33-.46.89-.46,1.68v1.15h3.63v3.51h-3.63v15.61h-5.25v-15.61h-3.14ZM565.9,441.96h-5.25v-19.13h5.25v19.13ZM560.65,415.55h5.25v4.33h-5.25v-4.33ZM557.81,422.83v3.51h-3.85v9.47c0,.89.15,1.48.44,1.78.3.3.89.44,1.78.44.3,0,.58-.01.85-.04.27-.02.53-.06.78-.11v4.07c-.44.07-.94.12-1.48.15-.54.02-1.07.04-1.59.04-.81,0-1.58-.06-2.31-.17-.73-.11-1.37-.33-1.92-.65-.56-.32-.99-.78-1.31-1.37-.32-.59-.48-1.37-.48-2.33v-11.29h-3.18v-3.51h3.18v-5.74h5.25v5.74h3.85ZM536.85,422.83v3.55h.07c.25-.59.58-1.14,1-1.65.42-.51.9-.94,1.44-1.3.54-.36,1.12-.63,1.74-.83.62-.2,1.26-.3,1.92-.3.35,0,.73.06,1.15.19v4.88c-.25-.05-.54-.09-.89-.13-.35-.04-.68-.06-1-.06-.96,0-1.78.16-2.44.48-.67.32-1.2.76-1.61,1.31-.41.55-.7,1.2-.87,1.94-.17.74-.26,1.54-.26,2.4v8.62h-5.25v-19.13h4.99ZM519.95,415.55l9.88,26.42h-6.03l-2-5.88h-9.88l-2.07,5.88h-5.85l9.99-26.42h5.96ZM520.28,431.75l-3.33-9.69h-.07l-3.44,9.69h6.85ZM480.32,437.38c.79.76,1.92,1.15,3.4,1.15,1.06,0,1.97-.26,2.74-.79.76-.53,1.23-1.09,1.41-1.68h4.62c-.74,2.29-1.88,3.93-3.4,4.92-1.53.99-3.38,1.48-5.55,1.48-1.51,0-2.86-.24-4.07-.72-1.21-.48-2.23-1.16-3.07-2.05-.84-.89-1.49-1.95-1.94-3.18-.46-1.23-.68-2.59-.68-4.07s.23-2.76.7-4c.47-1.23,1.13-2.3,2-3.2.86-.9,1.89-1.61,3.09-2.13,1.2-.52,2.52-.78,3.98-.78,1.63,0,3.05.31,4.26.94,1.21.63,2.2,1.47,2.98,2.54.78,1.06,1.34,2.27,1.68,3.63.35,1.36.47,2.78.37,4.26h-13.8c.07,1.7.51,2.94,1.3,3.7M486.26,427.31c-.63-.69-1.58-1.04-2.87-1.04-.84,0-1.54.14-2.09.43-.55.28-1,.64-1.33,1.06-.33.42-.57.86-.7,1.33-.14.47-.22.89-.24,1.26h8.55c-.25-1.33-.68-2.34-1.31-3.03M458.03,415.55v9.95h.11c.67-1.11,1.52-1.92,2.55-2.42,1.04-.51,2.05-.76,3.03-.76,1.41,0,2.56.19,3.46.57.9.38,1.61.91,2.13,1.59.52.68.88,1.51,1.09,2.48.21.98.32,2.05.32,3.24v11.77h-5.25v-10.8c0-1.58-.25-2.76-.74-3.53-.49-.78-1.37-1.16-2.63-1.16-1.43,0-2.47.42-3.11,1.28-.64.85-.96,2.25-.96,4.2v10.03h-5.25v-26.42h5.25ZM428.74,420.43v-4.88h21.65v4.88h-7.92v21.53h-5.81v-21.53h-7.92Z" fill="#1cafe6"/>
    <path d="M1184.8,338.3v9.31h-10.19v25.09c0,2.35.39,3.92,1.18,4.7s2.35,1.18,4.7,1.18c.78,0,1.53-.03,2.25-.1.72-.06,1.4-.16,2.06-.29v10.78c-1.18.2-2.48.33-3.92.39-1.44.06-2.84.1-4.21.1-2.16,0-4.2-.15-6.12-.44-1.93-.29-3.63-.87-5.1-1.71-1.47-.85-2.63-2.06-3.48-3.63-.85-1.57-1.27-3.63-1.27-6.17v-29.89h-8.43v-9.31h8.43v-15.19h13.92v15.19h10.19ZM1116.75,376.37c.62,1.08,1.42,1.96,2.4,2.65.98.69,2.11,1.19,3.38,1.52,1.27.33,2.6.49,3.97.49.98,0,2.01-.11,3.09-.34,1.08-.23,2.06-.59,2.94-1.08s1.62-1.14,2.21-1.96c.59-.82.88-1.85.88-3.09,0-2.09-1.39-3.66-4.16-4.7-2.78-1.04-6.65-2.09-11.61-3.14-2.03-.46-4-1-5.93-1.62-1.93-.62-3.64-1.44-5.15-2.45-1.5-1.01-2.71-2.29-3.63-3.82-.92-1.53-1.37-3.41-1.37-5.63,0-3.27.64-5.94,1.91-8.04,1.27-2.09,2.96-3.74,5.05-4.95,2.09-1.21,4.44-2.06,7.06-2.55,2.61-.49,5.29-.74,8.04-.74s5.41.26,7.99.78c2.58.52,4.88,1.41,6.91,2.65,2.02,1.24,3.71,2.89,5.05,4.95,1.34,2.06,2.14,4.65,2.4,7.79h-13.23c-.2-2.68-1.21-4.49-3.04-5.44-1.83-.95-3.99-1.42-6.47-1.42-.78,0-1.63.05-2.55.15-.92.1-1.75.31-2.5.64-.75.33-1.39.8-1.91,1.42-.52.62-.78,1.46-.78,2.5,0,1.24.46,2.25,1.37,3.04.91.78,2.11,1.42,3.58,1.91,1.47.49,3.15.93,5.05,1.32,1.89.39,3.82.82,5.78,1.27,2.02.46,4,1.01,5.93,1.67,1.93.65,3.64,1.52,5.15,2.6,1.5,1.08,2.71,2.42,3.63,4.02.91,1.6,1.37,3.58,1.37,5.93,0,3.33-.67,6.12-2.01,8.38-1.34,2.25-3.09,4.07-5.24,5.44-2.16,1.37-4.62,2.34-7.4,2.89-2.78.55-5.6.83-8.48.83s-5.82-.29-8.62-.88c-2.81-.59-5.31-1.57-7.5-2.94-2.19-1.37-3.99-3.18-5.39-5.44-1.41-2.25-2.17-5.08-2.3-8.48h13.23c0,1.5.31,2.79.93,3.87M1064.98,376.81c2.09,2.03,5.1,3.04,9.02,3.04,2.81,0,5.23-.7,7.25-2.11,2.03-1.4,3.27-2.89,3.72-4.46h12.25c-1.96,6.08-4.96,10.42-9.02,13.03-4.05,2.61-8.95,3.92-14.7,3.92-3.99,0-7.58-.64-10.78-1.91s-5.91-3.09-8.13-5.44c-2.22-2.35-3.94-5.16-5.15-8.43-1.21-3.27-1.81-6.86-1.81-10.78s.62-7.32,1.86-10.58c1.24-3.27,3.01-6.09,5.29-8.48,2.29-2.38,5.01-4.26,8.18-5.63,3.17-1.37,6.68-2.06,10.53-2.06,4.31,0,8.07.83,11.27,2.5,3.2,1.67,5.83,3.9,7.89,6.71,2.06,2.81,3.54,6.01,4.46,9.6.91,3.59,1.24,7.35.98,11.27h-36.55c.2,4.51,1.34,7.78,3.43,9.8M1080.7,350.16c-1.67-1.83-4.2-2.74-7.59-2.74-2.22,0-4.07.38-5.54,1.13-1.47.75-2.65,1.68-3.53,2.79-.88,1.11-1.5,2.29-1.86,3.53-.36,1.24-.57,2.35-.64,3.33h22.64c-.65-3.53-1.81-6.21-3.48-8.04M1016.6,388.96l-9.02-34.01h-.2l-8.62,34.01h-14.41l-16.07-50.67h14.7l9.31,34.4h.2l8.43-34.4h13.52l8.62,34.3h.2l9.31-34.3h14.31l-15.97,50.67h-14.31ZM949.89,382.5c-1.63,2.74-3.77,4.72-6.42,5.93-2.65,1.21-5.64,1.81-8.97,1.81-3.79,0-7.12-.74-10-2.21-2.88-1.47-5.24-3.46-7.1-5.98-1.86-2.51-3.27-5.4-4.21-8.67-.95-3.27-1.42-6.66-1.42-10.19s.47-6.68,1.42-9.85c.95-3.17,2.35-5.96,4.21-8.38,1.86-2.42,4.2-4.36,7.01-5.83,2.81-1.47,6.08-2.21,9.8-2.21,3,0,5.86.64,8.58,1.91,2.71,1.27,4.85,3.15,6.42,5.63h.2v-25.48h13.92v69.97h-13.23v-6.47h-.2ZM949.3,357.46c-.39-1.93-1.06-3.63-2.01-5.1-.95-1.47-2.17-2.66-3.67-3.58-1.5-.91-3.4-1.37-5.68-1.37s-4.21.46-5.78,1.37c-1.57.92-2.83,2.12-3.77,3.63-.95,1.5-1.63,3.22-2.06,5.14-.43,1.93-.64,3.94-.64,6.03,0,1.96.23,3.92.69,5.88.46,1.96,1.19,3.71,2.21,5.24,1.01,1.54,2.29,2.78,3.82,3.72,1.54.95,3.38,1.42,5.54,1.42,2.29,0,4.2-.46,5.73-1.37,1.54-.91,2.76-2.14,3.68-3.68.91-1.53,1.57-3.28,1.96-5.24.39-1.96.59-3.98.59-6.08s-.2-4.1-.59-6.03M890.92,388.96v-7.06h-.29c-1.76,2.94-4.05,5.06-6.86,6.37-2.81,1.31-5.68,1.96-8.62,1.96-3.72,0-6.78-.49-9.16-1.47-2.39-.98-4.26-2.37-5.64-4.17-1.37-1.8-2.34-3.98-2.89-6.57-.56-2.58-.83-5.44-.83-8.57v-31.16h13.92v28.62c0,4.18.65,7.3,1.96,9.36,1.31,2.06,3.63,3.09,6.96,3.09,3.79,0,6.53-1.13,8.23-3.38,1.7-2.25,2.55-5.96,2.55-11.12v-26.56h13.92v50.67h-13.23ZM897.09,330.46h-13.23v-11.47h13.23v11.47ZM876.91,330.46h-13.23v-11.47h13.23v11.47ZM806.91,371.72c.85,1.63,1.97,2.96,3.38,3.97,1.4,1.01,3.05,1.76,4.95,2.25,1.89.49,3.85.74,5.88.74,1.37,0,2.84-.11,4.41-.34,1.57-.23,3.04-.67,4.41-1.32,1.37-.65,2.51-1.55,3.43-2.69.91-1.14,1.37-2.6,1.37-4.36,0-1.89-.61-3.43-1.81-4.61-1.21-1.18-2.79-2.16-4.75-2.94-1.96-.78-4.18-1.47-6.66-2.06-2.48-.59-5-1.24-7.55-1.96-2.61-.65-5.16-1.45-7.64-2.4-2.48-.95-4.7-2.17-6.66-3.68-1.96-1.5-3.54-3.38-4.75-5.63-1.21-2.25-1.81-4.98-1.81-8.18,0-3.59.77-6.71,2.3-9.36,1.53-2.65,3.54-4.85,6.03-6.62,2.48-1.76,5.29-3.07,8.43-3.92,3.14-.85,6.27-1.27,9.41-1.27,3.66,0,7.17.41,10.53,1.23,3.36.82,6.35,2.14,8.97,3.97,2.61,1.83,4.69,4.17,6.22,7.01,1.53,2.84,2.3,6.29,2.3,10.34h-14.9c-.13-2.09-.57-3.82-1.32-5.19-.75-1.37-1.75-2.45-2.99-3.23-1.24-.78-2.66-1.34-4.26-1.67-1.6-.33-3.35-.49-5.24-.49-1.24,0-2.48.13-3.72.39-1.24.26-2.37.72-3.38,1.37-1.01.65-1.85,1.47-2.5,2.45-.65.98-.98,2.22-.98,3.72,0,1.37.26,2.48.78,3.33.52.85,1.55,1.63,3.09,2.35,1.53.72,3.66,1.44,6.37,2.16,2.71.72,6.26,1.63,10.63,2.74,1.31.26,3.12.74,5.44,1.42,2.32.69,4.62,1.78,6.91,3.28,2.29,1.5,4.26,3.51,5.93,6.03,1.67,2.52,2.5,5.73,2.5,9.65,0,3.2-.62,6.17-1.86,8.92-1.24,2.74-3.09,5.11-5.54,7.1-2.45,1.99-5.49,3.54-9.11,4.65-3.63,1.11-7.82,1.67-12.59,1.67-3.86,0-7.6-.47-11.22-1.42-3.63-.95-6.83-2.43-9.6-4.46-2.78-2.02-4.98-4.61-6.61-7.74-1.63-3.14-2.42-6.86-2.35-11.17h14.9c0,2.35.42,4.35,1.27,5.98M741.74,369.36c0,.78-.08,1.83-.24,3.14-.16,1.31-.61,2.6-1.32,3.87-.72,1.27-1.83,2.37-3.33,3.28-1.5.92-3.63,1.37-6.37,1.37-1.11,0-2.19-.1-3.23-.29-1.05-.2-1.96-.54-2.74-1.03-.78-.49-1.41-1.16-1.86-2.01-.46-.85-.69-1.89-.69-3.14,0-1.31.23-2.38.69-3.23.46-.85,1.06-1.55,1.81-2.11.75-.55,1.63-.99,2.65-1.32,1.01-.33,2.04-.59,3.09-.78,1.11-.2,2.22-.36,3.33-.49,1.11-.13,2.17-.29,3.18-.49,1.01-.2,1.96-.44,2.84-.74.88-.29,1.62-.7,2.21-1.23v5.19ZM723.51,353.88c.26-2.74,1.18-4.7,2.74-5.88,1.57-1.18,3.72-1.76,6.47-1.76,1.24,0,2.4.08,3.48.25,1.08.16,2.02.49,2.84.98.82.49,1.47,1.18,1.96,2.06.49.88.73,2.07.73,3.58.06,1.44-.36,2.53-1.27,3.28-.92.75-2.16,1.32-3.72,1.71s-3.37.69-5.39.88c-2.03.2-4.08.46-6.17.78-2.09.33-4.17.77-6.22,1.32-2.06.56-3.89,1.39-5.49,2.5-1.6,1.11-2.91,2.6-3.92,4.46-1.01,1.86-1.52,4.23-1.52,7.1,0,2.61.44,4.87,1.32,6.76.88,1.9,2.11,3.46,3.67,4.7,1.57,1.24,3.4,2.16,5.49,2.74,2.09.59,4.34.88,6.76.88,3.14,0,6.21-.46,9.21-1.37,3-.91,5.62-2.51,7.84-4.8.06.85.18,1.68.34,2.5.16.82.38,1.62.64,2.4h14.11c-.65-1.04-1.11-2.61-1.37-4.7-.26-2.09-.39-4.28-.39-6.57v-26.36c0-3.07-.69-5.54-2.06-7.4-1.37-1.86-3.14-3.31-5.29-4.36-2.16-1.04-4.54-1.75-7.15-2.11-2.61-.36-5.19-.54-7.74-.54-2.81,0-5.6.28-8.38.83-2.78.56-5.28,1.49-7.5,2.79-2.22,1.31-4.05,3.04-5.49,5.19-1.44,2.16-2.25,4.87-2.45,8.13h13.92ZM703.62,338.3v9.31h-10.19v25.09c0,2.35.39,3.92,1.18,4.7.78.78,2.35,1.18,4.7,1.18.78,0,1.53-.03,2.25-.1.72-.06,1.4-.16,2.06-.29v10.78c-1.18.2-2.48.33-3.92.39-1.44.06-2.84.1-4.21.1-2.16,0-4.2-.15-6.12-.44-1.93-.29-3.63-.87-5.1-1.71-1.47-.85-2.63-2.06-3.48-3.63-.85-1.57-1.27-3.63-1.27-6.17v-29.89h-8.43v-9.31h8.43v-15.19h13.92v15.19h10.19ZM652.11,369.36c0,.78-.08,1.83-.24,3.14-.16,1.31-.61,2.6-1.32,3.87-.72,1.27-1.83,2.37-3.33,3.28-1.5.92-3.63,1.37-6.37,1.37-1.11,0-2.19-.1-3.23-.29-1.05-.2-1.96-.54-2.74-1.03-.78-.49-1.41-1.16-1.86-2.01-.46-.85-.69-1.89-.69-3.14,0-1.31.23-2.38.69-3.23.46-.85,1.06-1.55,1.81-2.11.75-.55,1.63-.99,2.65-1.32,1.01-.33,2.04-.59,3.09-.78,1.11-.2,2.22-.36,3.33-.49,1.11-.13,2.17-.29,3.18-.49,1.01-.2,1.96-.44,2.84-.74.88-.29,1.62-.7,2.2-1.23v5.19ZM633.88,353.88c.26-2.74,1.18-4.7,2.74-5.88,1.57-1.18,3.72-1.76,6.47-1.76,1.24,0,2.4.08,3.48.25,1.08.16,2.02.49,2.84.98.82.49,1.47,1.18,1.96,2.06.49.88.74,2.07.74,3.58.06,1.44-.36,2.53-1.27,3.28-.92.75-2.16,1.32-3.72,1.71-1.57.39-3.37.69-5.39.88-2.03.2-4.08.46-6.17.78-2.09.33-4.17.77-6.22,1.32-2.06.56-3.89,1.39-5.49,2.5-1.6,1.11-2.91,2.6-3.92,4.46-1.01,1.86-1.52,4.23-1.52,7.1,0,2.61.44,4.87,1.32,6.76.88,1.9,2.11,3.46,3.68,4.7,1.57,1.24,3.4,2.16,5.49,2.74,2.09.59,4.34.88,6.76.88,3.14,0,6.21-.46,9.21-1.37,3-.91,5.62-2.51,7.84-4.8.06.85.18,1.68.34,2.5.16.82.38,1.62.64,2.4h14.11c-.65-1.04-1.11-2.61-1.37-4.7-.26-2.09-.39-4.28-.39-6.57v-26.36c0-3.07-.69-5.54-2.06-7.4-1.37-1.86-3.14-3.31-5.29-4.36-2.16-1.04-4.54-1.75-7.15-2.11-2.61-.36-5.19-.54-7.74-.54-2.81,0-5.6.28-8.38.83-2.78.56-5.28,1.49-7.5,2.79-2.22,1.31-4.05,3.04-5.49,5.19-1.44,2.16-2.25,4.87-2.45,8.13h13.92ZM581.28,318.99c4.51,0,8.71.72,12.59,2.16,3.89,1.44,7.25,3.59,10.09,6.47,2.84,2.88,5.06,6.47,6.66,10.78,1.6,4.31,2.4,9.38,2.4,15.19,0,5.1-.65,9.8-1.96,14.11-1.31,4.31-3.28,8.04-5.93,11.17s-5.95,5.6-9.9,7.4c-3.95,1.8-8.61,2.69-13.97,2.69h-30.18v-69.97h30.18ZM580.21,376.03c2.22,0,4.38-.36,6.47-1.08,2.09-.72,3.95-1.91,5.59-3.58,1.63-1.67,2.94-3.84,3.92-6.52.98-2.68,1.47-5.94,1.47-9.8,0-3.53-.34-6.71-1.03-9.56-.69-2.84-1.81-5.28-3.38-7.3-1.57-2.02-3.64-3.58-6.22-4.65-2.58-1.08-5.77-1.62-9.55-1.62h-10.98v44.1h13.72ZM518.46,404.06c-2.68,1.76-6.4,2.65-11.17,2.65-1.44,0-2.86-.05-4.26-.15-1.4-.1-2.83-.21-4.26-.34v-11.47c1.31.13,2.65.26,4.02.39,1.37.13,2.74.16,4.12.1,1.83-.2,3.18-.92,4.07-2.16.88-1.24,1.32-2.61,1.32-4.12,0-1.11-.2-2.16-.59-3.14l-17.74-47.53h14.8l11.47,34.69h.2l11.07-34.69h14.41l-21.17,56.94c-1.5,4.12-3.59,7.06-6.27,8.82M466.37,318.99c4.38,0,8.1.64,11.17,1.91,3.07,1.27,5.57,2.96,7.5,5.05,1.93,2.09,3.33,4.48,4.21,7.15.88,2.68,1.32,5.46,1.32,8.33s-.44,5.57-1.32,8.28c-.88,2.71-2.29,5.11-4.21,7.2-1.93,2.09-4.43,3.77-7.5,5.05-3.07,1.27-6.8,1.91-11.17,1.91h-16.17v25.09h-15.39v-69.97h31.56ZM462.16,351.92c1.76,0,3.46-.13,5.1-.39,1.63-.26,3.07-.77,4.31-1.52,1.24-.75,2.24-1.81,2.99-3.18.75-1.37,1.13-3.17,1.13-5.39s-.38-4.02-1.13-5.39c-.75-1.37-1.75-2.43-2.99-3.18-1.24-.75-2.68-1.26-4.31-1.52-1.63-.26-3.33-.39-5.1-.39h-11.96v20.97h11.96Z" fill="#1cafe6"/>
  </g>
  <path d="M287.31,487.21v-101.5l-94.98-49.62,94.98,151.12ZM192.33,437.58l94.98,49.62-94.98-151.12h0s0,0,0,0v101.5Z" fill="#1cafe6"/>
  <polygon points="292.17 376.5 197.88 326.87 292.86 278.1 387.84 327.15 292.17 376.5" fill="#1cafe6"/>
  <polygon points="298.4 385.75 298.4 487.25 393.39 437.58 393.39 336.08 298.4 385.75" fill="#1cafe6"/>
  <path d="M393.1,318.79v-101.49l-94.98-49.62,94.98,151.12ZM298.12,167.67v101.49l94.98,49.63-94.98-151.12h0s0,0,0,0Z" fill="#1cafe6"/>
  <path d="M287.31,601.02v-101.5l-94.98-49.62,94.98,151.12ZM192.33,551.39l94.98,49.63-94.98-151.12v101.49Z" fill="#1cafe6"/>
</svg>