<?xml version="1.0" encoding="UTF-8"?>
<svg id="uuid-1235f6e7-e10d-4249-b273-965b8ada0cbc" data-name="Ebene 1" xmlns="http://www.w3.org/2000/svg" xmlns:xlink="http://www.w3.org/1999/xlink" viewBox="0 0 727.79 585.84">
  <defs>
    <clipPath id="uuid-fbebabbd-3a4d-4882-87d9-37cd1341dd22">
      <rect width="727.79" height="585.84" style="fill: none;"/>
    </clipPath>
  </defs>
  <path d="M355.84,301v-95.48l-89.34-46.68,89.34,142.16ZM266.5,254.32l89.34,46.68-89.34-142.16h0s0,0,0,0v95.48Z" style="fill: #2ab1e7;"/>
  <polygon points="360.41 196.86 271.71 150.18 361.06 104.29 450.4 150.44 360.41 196.86" style="fill: #2ab1e7;"/>
  <polygon points="366.27 205.56 366.27 301.04 455.62 254.32 455.62 158.84 366.27 205.56" style="fill: #2ab1e7;"/>
  <path d="M455.35,142.57V47.1L366.01.42l89.35,142.15ZM366.01.42v95.47l89.35,46.68L366.01.42h0s0,0,0,0Z" style="fill: #2ab1e7;"/>
  <path d="M355.84,408.05v-95.47l-89.34-46.68,89.34,142.15ZM266.5,361.37l89.34,46.68-89.34-142.15v95.47Z" style="fill: #2ab1e7;"/>
  <g style="clip-path: url(#uuid-fbebabbd-3a4d-4882-87d9-37cd1341dd22);">
    <path d="M713.93,560.6v2.34h.07c.61-.99,1.39-1.71,2.34-2.16.95-.45,1.99-.67,3.12-.67,1.44,0,2.68.27,3.72.82,1.04.54,1.9,1.27,2.59,2.16.68.9,1.19,1.94,1.52,3.14.33,1.19.5,2.44.5,3.74,0,1.23-.17,2.41-.5,3.55-.33,1.13-.83,2.14-1.51,3.01-.67.87-1.51,1.57-2.52,2.09-1.01.52-2.18.78-3.53.78-1.13,0-2.18-.23-3.14-.69-.96-.46-1.74-1.14-2.36-2.04h-.07v8.69h-5.03v-24.75h4.79ZM720.47,575.14c.56-.33,1-.76,1.35-1.29.34-.53.59-1.15.73-1.86.14-.71.21-1.43.21-2.16s-.08-1.45-.23-2.16c-.15-.71-.41-1.34-.76-1.9-.35-.55-.81-1-1.37-1.35-.56-.34-1.24-.51-2.04-.51s-1.52.17-2.07.51c-.56.34-1.01.79-1.35,1.33-.34.54-.59,1.17-.73,1.88-.14.71-.21,1.44-.21,2.2s.08,1.45.23,2.16c.15.71.4,1.33.74,1.86.34.53.8.96,1.36,1.29.57.33,1.25.5,2.06.5s1.52-.17,2.07-.5M700.37,578.93v-2.55h-.11c-.64,1.06-1.47,1.83-2.48,2.3-1.02.47-2.06.71-3.12.71-1.35,0-2.45-.18-3.31-.53-.86-.35-1.54-.86-2.04-1.51-.5-.65-.85-1.44-1.05-2.38-.2-.93-.3-1.97-.3-3.1v-11.27h5.03v10.35c0,1.51.24,2.64.71,3.39.47.74,1.31,1.12,2.52,1.12,1.37,0,2.36-.41,2.98-1.22.61-.82.92-2.16.92-4.02v-9.61h5.03v18.33h-4.79ZM685.55,560.6v3.37h-3.69v9.08c0,.85.14,1.42.43,1.7.28.28.85.43,1.7.43.28,0,.55-.01.82-.04.26-.02.51-.06.74-.11v3.9c-.43.07-.9.12-1.42.14-.52.02-1.03.04-1.52.04-.78,0-1.52-.05-2.22-.16-.7-.11-1.31-.31-1.84-.62-.53-.31-.95-.74-1.26-1.31-.31-.57-.46-1.31-.46-2.23v-10.81h-3.05v-3.37h3.05v-5.5h5.03v5.5h3.69ZM660.64,574.53c.76.73,1.84,1.1,3.26,1.1,1.02,0,1.89-.25,2.62-.76.73-.51,1.18-1.05,1.35-1.61h4.43c-.71,2.2-1.8,3.77-3.26,4.72s-3.24,1.42-5.32,1.42c-1.44,0-2.74-.23-3.9-.69-1.16-.46-2.14-1.12-2.94-1.97-.8-.85-1.42-1.87-1.86-3.05-.44-1.18-.66-2.48-.66-3.9s.22-2.65.67-3.83c.45-1.18,1.09-2.2,1.91-3.07.83-.86,1.81-1.54,2.96-2.04,1.15-.5,2.42-.74,3.81-.74,1.56,0,2.92.3,4.08.9,1.16.6,2.11,1.41,2.85,2.43.75,1.02,1.28,2.17,1.61,3.47.33,1.3.45,2.66.35,4.08h-13.22c.07,1.63.48,2.81,1.24,3.55M666.33,564.89c-.6-.66-1.52-.99-2.75-.99-.8,0-1.47.14-2,.41-.53.27-.96.61-1.28,1.01-.32.4-.54.83-.67,1.28s-.21.85-.23,1.21h8.19c-.24-1.28-.66-2.25-1.26-2.91M640.13,574.53c.76.73,1.84,1.1,3.26,1.1,1.02,0,1.89-.25,2.62-.76.73-.51,1.18-1.05,1.35-1.61h4.43c-.71,2.2-1.8,3.77-3.26,4.72-1.47.95-3.24,1.42-5.32,1.42-1.44,0-2.74-.23-3.9-.69-1.16-.46-2.14-1.12-2.94-1.97-.8-.85-1.42-1.87-1.86-3.05-.44-1.18-.66-2.48-.66-3.9s.22-2.65.67-3.83c.45-1.18,1.09-2.2,1.91-3.07.83-.86,1.81-1.54,2.96-2.04,1.15-.5,2.42-.74,3.81-.74,1.56,0,2.92.3,4.08.9,1.16.6,2.11,1.41,2.85,2.43.74,1.02,1.28,2.17,1.61,3.47.33,1.3.45,2.66.35,4.08h-13.22c.07,1.63.48,2.81,1.24,3.55M645.82,564.89c-.6-.66-1.52-.99-2.75-.99-.8,0-1.47.14-2,.41-.53.27-.96.61-1.28,1.01-.32.4-.54.83-.67,1.28s-.21.85-.23,1.21h8.19c-.24-1.28-.66-2.25-1.26-2.91M610.9,553.62l5.92,17.41h.07l5.6-17.41h7.84v25.31h-5.21v-17.94h-.07l-6.2,17.94h-4.29l-6.2-17.76h-.07v17.76h-5.21v-25.31h7.84ZM576.44,560.6v2.55h.11c.64-1.06,1.47-1.84,2.48-2.32,1.02-.48,2.06-.73,3.12-.73,1.35,0,2.45.18,3.31.55.86.37,1.54.87,2.04,1.52.5.65.85,1.44,1.05,2.37.2.93.3,1.97.3,3.1v11.27h-5.03v-10.35c0-1.51-.24-2.64-.71-3.39-.47-.75-1.31-1.12-2.52-1.12-1.37,0-2.36.41-2.98,1.22-.61.82-.92,2.16-.92,4.02v9.61h-5.03v-18.33h4.79ZM550.14,565.8c.45-1.19,1.09-2.21,1.91-3.05.83-.84,1.82-1.49,2.98-1.95,1.16-.46,2.46-.69,3.9-.69s2.75.23,3.92.69c1.17.46,2.17,1.11,3,1.95.83.84,1.47,1.86,1.91,3.05.45,1.19.67,2.52.67,3.99s-.22,2.79-.67,3.97c-.45,1.18-1.09,2.19-1.91,3.03-.83.84-1.83,1.48-3,1.93-1.17.45-2.48.67-3.92.67s-2.74-.22-3.9-.67c-1.16-.45-2.15-1.09-2.98-1.93-.83-.84-1.47-1.85-1.91-3.03-.45-1.18-.67-2.51-.67-3.97s.22-2.8.67-3.99M554.71,571.93c.14.7.38,1.32.73,1.88.34.56.8,1,1.36,1.33.57.33,1.28.5,2.13.5s1.57-.17,2.14-.5c.58-.33,1.04-.77,1.38-1.33.34-.55.59-1.18.73-1.88.14-.7.21-1.41.21-2.14s-.07-1.45-.21-2.16c-.14-.71-.39-1.34-.73-1.88-.34-.54-.8-.99-1.38-1.33-.58-.34-1.29-.51-2.14-.51s-1.56.17-2.13.51c-.57.34-1.02.79-1.36,1.33-.34.54-.59,1.17-.73,1.88-.14.71-.21,1.43-.21,2.16s.07,1.45.21,2.14M534.12,553.62v9.54h.11c.64-1.06,1.45-1.84,2.45-2.32.99-.48,1.96-.73,2.91-.73,1.35,0,2.45.18,3.31.55.86.37,1.54.87,2.04,1.52.5.65.84,1.44,1.05,2.37.2.93.3,1.97.3,3.1v11.27h-5.04v-10.35c0-1.51-.24-2.64-.71-3.39-.47-.75-1.31-1.12-2.52-1.12-1.37,0-2.36.41-2.98,1.22-.62.82-.92,2.16-.92,4.02v9.61h-5.04v-25.31h5.04ZM526.38,560.6v3.37h-3.69v9.08c0,.85.14,1.42.43,1.7.28.28.85.43,1.7.43.28,0,.55-.01.82-.04.26-.02.51-.06.75-.11v3.9c-.43.07-.9.12-1.42.14-.52.02-1.03.04-1.52.04-.78,0-1.52-.05-2.22-.16-.7-.11-1.31-.31-1.84-.62-.53-.31-.95-.74-1.26-1.31-.31-.57-.46-1.31-.46-2.23v-10.81h-3.05v-3.37h3.05v-5.5h5.03v5.5h3.69ZM503.44,584.39c-.97.64-2.32.96-4.04.96-.52,0-1.03-.02-1.54-.05-.51-.04-1.02-.08-1.54-.12v-4.15c.47.05.96.09,1.45.14.5.05.99.06,1.49.04.66-.07,1.15-.33,1.47-.78.32-.45.48-.95.48-1.49,0-.4-.07-.78-.21-1.13l-6.42-17.2h5.35l4.15,12.55h.07l4.01-12.55h5.21l-7.66,20.6c-.54,1.49-1.3,2.55-2.27,3.19M484.21,553.62c1.58,0,2.93.23,4.04.69,1.11.46,2.01,1.07,2.71,1.83.7.76,1.21,1.62,1.52,2.59.32.97.48,1.97.48,3.01s-.16,2.01-.48,3c-.32.98-.83,1.85-1.52,2.61-.7.76-1.6,1.36-2.71,1.83-1.11.46-2.46.69-4.04.69h-5.85v9.08h-5.57v-25.31h11.42ZM482.68,565.53c.64,0,1.25-.05,1.84-.14.59-.09,1.11-.28,1.56-.55.45-.27.81-.66,1.08-1.15.27-.5.41-1.15.41-1.95s-.14-1.45-.41-1.95c-.27-.5-.63-.88-1.08-1.15-.45-.27-.97-.45-1.56-.55-.59-.09-1.21-.14-1.84-.14h-4.33v7.59h4.33ZM446.16,560.6v2.55h.11c.64-1.06,1.47-1.84,2.48-2.32,1.02-.48,2.06-.73,3.12-.73,1.35,0,2.45.18,3.31.55.86.37,1.54.87,2.04,1.52.5.65.84,1.44,1.05,2.37.2.93.3,1.97.3,3.1v11.27h-5.03v-10.35c0-1.51-.24-2.64-.71-3.39-.47-.75-1.31-1.12-2.52-1.12-1.37,0-2.36.41-2.98,1.22-.61.82-.92,2.16-.92,4.02v9.61h-5.03v-18.33h4.79ZM437.35,578.93h-5.03v-18.33h5.03v18.33ZM432.31,553.62h5.03v4.15h-5.03v-4.15ZM407.35,574.53c.76.73,1.84,1.1,3.26,1.1,1.02,0,1.89-.25,2.62-.76.73-.51,1.18-1.05,1.35-1.61h4.43c-.71,2.2-1.8,3.77-3.26,4.72-1.47.95-3.24,1.42-5.32,1.42-1.44,0-2.74-.23-3.9-.69-1.16-.46-2.14-1.12-2.94-1.97-.8-.85-1.42-1.87-1.86-3.05-.44-1.18-.66-2.48-.66-3.9s.22-2.65.67-3.83c.45-1.18,1.09-2.2,1.91-3.07.83-.86,1.81-1.54,2.96-2.04,1.15-.5,2.42-.74,3.81-.74,1.56,0,2.92.3,4.08.9,1.16.6,2.11,1.41,2.85,2.43.75,1.02,1.28,2.17,1.61,3.47.33,1.3.45,2.66.35,4.08h-13.22c.07,1.63.48,2.81,1.24,3.55M413.04,564.89c-.6-.66-1.52-.99-2.75-.99-.8,0-1.47.14-2,.41-.53.27-.96.61-1.28,1.01-.32.4-.54.83-.67,1.28s-.21.85-.23,1.21h8.19c-.24-1.28-.66-2.25-1.26-2.91M390.19,563.9c-.8,0-1.48.18-2.02.55-.54.37-.99.84-1.33,1.42-.34.58-.59,1.22-.73,1.91-.14.7-.21,1.39-.21,2.07s.07,1.34.21,2.02c.14.69.37,1.31.69,1.86.32.56.75,1.01,1.29,1.36.54.35,1.21.53,1.99.53,1.21,0,2.13-.34,2.78-1.01.65-.67,1.06-1.58,1.22-2.71h4.86c-.33,2.43-1.28,4.29-2.84,5.57-1.56,1.28-3.56,1.91-5.99,1.91-1.37,0-2.63-.23-3.78-.69-1.15-.46-2.12-1.1-2.92-1.93-.8-.83-1.43-1.81-1.88-2.96-.45-1.15-.67-2.4-.67-3.78s.21-2.74.62-3.95c.41-1.22,1.02-2.27,1.83-3.16.8-.89,1.78-1.58,2.94-2.07,1.16-.5,2.48-.74,3.97-.74,1.09,0,2.13.14,3.14.43s1.9.71,2.7,1.29c.79.58,1.44,1.3,1.93,2.16.5.86.78,1.88.85,3.07h-4.93c-.33-2.1-1.57-3.16-3.72-3.16M365.27,560.6v2.55h.11c.64-1.06,1.46-1.84,2.48-2.32,1.02-.48,2.06-.73,3.12-.73,1.35,0,2.45.18,3.31.55.86.37,1.54.87,2.04,1.52.5.65.84,1.44,1.05,2.37.2.93.3,1.97.3,3.1v11.27h-5.03v-10.35c0-1.51-.24-2.64-.71-3.39-.47-.75-1.31-1.12-2.52-1.12-1.37,0-2.36.41-2.98,1.22-.61.82-.92,2.16-.92,4.02v9.61h-5.03v-18.33h4.79ZM345.42,574.53c.76.73,1.84,1.1,3.26,1.1,1.02,0,1.89-.25,2.62-.76.73-.51,1.18-1.05,1.35-1.61h4.43c-.71,2.2-1.8,3.77-3.26,4.72-1.47.95-3.24,1.42-5.32,1.42-1.44,0-2.74-.23-3.9-.69-1.16-.46-2.14-1.12-2.94-1.97-.8-.85-1.42-1.87-1.86-3.05-.44-1.18-.66-2.48-.66-3.9s.22-2.65.67-3.83c.45-1.18,1.09-2.2,1.91-3.07.83-.86,1.81-1.54,2.96-2.04,1.15-.5,2.42-.74,3.81-.74,1.56,0,2.92.3,4.08.9,1.16.6,2.11,1.41,2.85,2.43.74,1.02,1.28,2.17,1.61,3.47.33,1.3.45,2.66.35,4.08h-13.22c.07,1.63.48,2.81,1.24,3.55M351.11,564.89c-.6-.66-1.52-.99-2.75-.99-.8,0-1.47.14-2,.41-.53.27-.96.61-1.28,1.01-.32.4-.54.83-.67,1.28-.13.45-.21.85-.23,1.21h8.19c-.24-1.28-.66-2.25-1.26-2.91M335.67,580.28c-.2.95-.63,1.83-1.29,2.64-.66.82-1.62,1.51-2.87,2.07-1.25.57-2.93.85-5.03.85-.9,0-1.81-.11-2.75-.34-.93-.22-1.78-.57-2.55-1.05-.77-.47-1.41-1.08-1.91-1.83-.51-.74-.8-1.64-.87-2.68h5c.24.94.7,1.6,1.38,1.97.68.37,1.48.55,2.37.55,1.42,0,2.45-.43,3.1-1.28.65-.85.96-1.93.94-3.23v-2.41h-.07c-.54.97-1.32,1.68-2.32,2.14-1,.46-2.06.69-3.17.69-1.37,0-2.55-.24-3.55-.73-.99-.48-1.81-1.15-2.45-1.99-.64-.84-1.11-1.82-1.4-2.94-.3-1.12-.44-2.31-.44-3.56,0-1.18.17-2.32.51-3.42.34-1.1.84-2.07,1.51-2.91.66-.84,1.48-1.51,2.46-2,.98-.5,2.11-.74,3.39-.74,1.21,0,2.26.22,3.17.67.91.45,1.67,1.2,2.29,2.27h.07v-2.45h4.79v17.16c0,.73-.1,1.57-.3,2.52M328.77,574.18c.54-.28.99-.66,1.35-1.13.35-.47.62-1.01.8-1.61.18-.6.27-1.23.27-1.9,0-.76-.07-1.47-.21-2.15-.14-.67-.38-1.27-.71-1.79-.33-.52-.77-.93-1.31-1.24-.54-.31-1.23-.46-2.06-.46-.71,0-1.32.14-1.83.43-.51.28-.93.67-1.28,1.15-.34.48-.59,1.04-.74,1.67-.15.63-.23,1.28-.23,1.97s.06,1.32.19,1.97c.13.65.35,1.24.67,1.76.32.52.74.95,1.26,1.28.52.33,1.17.5,1.95.5.71,0,1.33-.14,1.88-.43M314.4,578.93h-5.03v-18.33h5.03v18.33ZM309.37,553.62h5.03v4.15h-5.03v-4.15ZM305.27,578.93h-5.03v-25.31h5.03v25.31ZM296.14,578.93h-5.03v-25.31h5.03v25.31ZM275.99,574.53c.76.73,1.84,1.1,3.26,1.1,1.02,0,1.89-.25,2.62-.76.73-.51,1.18-1.05,1.35-1.61h4.43c-.71,2.2-1.8,3.77-3.26,4.72-1.47.95-3.24,1.42-5.32,1.42-1.44,0-2.74-.23-3.9-.69-1.16-.46-2.14-1.12-2.94-1.97-.8-.85-1.42-1.87-1.86-3.05-.44-1.18-.66-2.48-.66-3.9s.22-2.65.67-3.83c.45-1.18,1.09-2.2,1.91-3.07.83-.86,1.81-1.54,2.96-2.04,1.15-.5,2.42-.74,3.81-.74,1.56,0,2.92.3,4.08.9,1.16.6,2.11,1.41,2.85,2.43.74,1.02,1.28,2.17,1.61,3.47.33,1.3.45,2.66.35,4.08h-13.22c.07,1.63.48,2.81,1.24,3.55M281.69,564.89c-.6-.66-1.52-.99-2.75-.99-.8,0-1.47.14-2,.41-.53.27-.96.61-1.28,1.01-.32.4-.54.83-.67,1.28-.13.45-.21.85-.23,1.21h8.19c-.24-1.28-.66-2.25-1.26-2.91M268.28,560.6v3.37h-3.69v9.08c0,.85.14,1.42.43,1.7.28.28.85.43,1.7.43.28,0,.56-.01.82-.04.26-.02.51-.06.74-.11v3.9c-.43.07-.9.12-1.42.14s-1.03.04-1.52.04c-.78,0-1.52-.05-2.22-.16-.7-.11-1.31-.31-1.84-.62-.53-.31-.95-.74-1.26-1.31-.31-.57-.46-1.31-.46-2.23v-10.81h-3.05v-3.37h3.05v-5.5h5.03v5.5h3.69ZM242.01,560.6v2.55h.11c.64-1.06,1.47-1.84,2.48-2.32,1.02-.48,2.06-.73,3.12-.73,1.35,0,2.45.18,3.31.55.86.37,1.54.87,2.04,1.52.5.65.84,1.44,1.05,2.37.2.93.3,1.97.3,3.1v11.27h-5.03v-10.35c0-1.51-.24-2.64-.71-3.39-.47-.75-1.31-1.12-2.52-1.12-1.37,0-2.36.41-2.98,1.22-.62.82-.92,2.16-.92,4.02v9.61h-5.03v-18.33h4.79ZM232.81,578.93h-5.57v-25.31h5.57v25.31ZM212.88,578.93h-5.03v-25.31h5.03v25.31ZM198.74,571.84c0,.28-.03.66-.09,1.13-.06.47-.22.94-.48,1.4-.26.46-.66.86-1.21,1.19-.54.33-1.31.5-2.3.5-.4,0-.79-.04-1.17-.11-.38-.07-.71-.2-.99-.37-.28-.18-.51-.42-.67-.73-.17-.31-.25-.69-.25-1.13,0-.47.08-.86.25-1.17.17-.31.38-.56.66-.76.27-.2.59-.36.96-.48.37-.12.74-.21,1.12-.28.4-.07.8-.13,1.2-.18.4-.05.79-.11,1.15-.18.37-.07.71-.16,1.03-.27.32-.11.59-.25.8-.44v1.88ZM192.15,566.24c.09-.99.43-1.7.99-2.13.57-.43,1.35-.64,2.34-.64.45,0,.87.03,1.26.09.39.06.73.18,1.03.35.3.18.53.43.71.74.18.32.27.75.27,1.29.02.52-.13.92-.46,1.19-.33.27-.78.48-1.35.62-.57.14-1.22.25-1.95.32-.73.07-1.48.17-2.23.28-.76.12-1.51.28-2.25.48-.74.2-1.41.5-1.99.9s-1.05.94-1.42,1.61c-.37.67-.55,1.53-.55,2.57,0,.95.16,1.76.48,2.45.32.69.76,1.25,1.33,1.7.57.45,1.23.78,1.99.99.76.21,1.57.32,2.45.32,1.13,0,2.25-.17,3.33-.5s2.03-.91,2.84-1.74c.02.31.06.61.12.9.06.3.14.59.23.87h5.11c-.24-.38-.4-.95-.5-1.7-.09-.76-.14-1.55-.14-2.37v-9.54c0-1.11-.25-2-.75-2.68-.5-.67-1.13-1.2-1.91-1.58-.78-.38-1.64-.63-2.59-.76-.95-.13-1.88-.2-2.8-.2-1.02,0-2.03.1-3.03.3-1,.2-1.91.54-2.71,1.01-.8.47-1.47,1.1-1.99,1.88-.52.78-.82,1.76-.89,2.94h5.03ZM183.27,578.93h-5.03v-18.33h5.03v18.33ZM178.23,553.62h5.03v4.15h-5.03v-4.15ZM166.45,563.9c-.8,0-1.48.18-2.02.55-.54.37-.99.84-1.33,1.42-.34.58-.59,1.22-.73,1.91-.14.7-.21,1.39-.21,2.07s.07,1.34.21,2.02c.14.69.37,1.31.69,1.86.32.56.75,1.01,1.29,1.36.54.35,1.2.53,1.99.53,1.21,0,2.13-.34,2.78-1.01.65-.67,1.06-1.58,1.22-2.71h4.86c-.33,2.43-1.28,4.29-2.84,5.57-1.56,1.28-3.56,1.91-5.99,1.91-1.37,0-2.63-.23-3.78-.69-1.15-.46-2.12-1.1-2.93-1.93-.8-.83-1.43-1.81-1.88-2.96-.45-1.15-.67-2.4-.67-3.78s.21-2.74.62-3.95c.41-1.22,1.02-2.27,1.83-3.16.8-.89,1.78-1.58,2.94-2.07,1.16-.5,2.48-.74,3.97-.74,1.09,0,2.13.14,3.14.43,1,.28,1.9.71,2.69,1.29.79.58,1.44,1.3,1.93,2.16.5.86.78,1.88.85,3.07h-4.93c-.33-2.1-1.57-3.16-3.72-3.16M148.78,553.62h5.03v4.15h-5.03v-4.15ZM153.82,578.93h-5.03v-18.33h5.03v18.33ZM134.21,563.97v-3.37h3.01v-1.42c0-1.63.51-2.97,1.52-4.01,1.02-1.04,2.55-1.56,4.61-1.56.45,0,.9.02,1.35.05.45.04.89.07,1.31.09v3.76c-.59-.07-1.2-.11-1.84-.11-.69,0-1.18.16-1.47.48-.3.32-.44.86-.44,1.61v1.1h3.47v3.37h-3.47v14.96h-5.03v-14.96h-3.01ZM131.93,578.93h-5.03v-18.33h5.03v18.33ZM126.89,553.62h5.03v4.15h-5.03v-4.15ZM124.07,560.6v3.37h-3.69v9.08c0,.85.14,1.42.43,1.7.28.28.85.43,1.7.43.28,0,.55-.01.82-.04.26-.02.51-.06.74-.11v3.9c-.43.07-.9.12-1.42.14-.52.02-1.03.04-1.52.04-.78,0-1.52-.05-2.22-.16-.7-.11-1.31-.31-1.84-.62-.53-.31-.95-.74-1.26-1.31-.31-.57-.46-1.31-.46-2.23v-10.81h-3.05v-3.37h3.05v-5.5h5.03v5.5h3.69ZM103.91,560.6v3.4h.07c.24-.57.55-1.09.96-1.58.4-.48.86-.9,1.38-1.24.52-.34,1.07-.61,1.67-.8.59-.19,1.21-.28,1.84-.28.33,0,.7.06,1.1.18v4.68c-.24-.05-.52-.09-.85-.12-.33-.04-.65-.05-.96-.05-.92,0-1.7.15-2.34.46-.64.31-1.15.73-1.54,1.26-.39.53-.67,1.15-.83,1.86-.17.71-.25,1.48-.25,2.3v8.26h-5.03v-18.33h4.79ZM87.61,553.62l9.47,25.31h-5.78l-1.91-5.64h-9.47l-1.99,5.64h-5.6l9.57-25.31h5.71ZM87.93,569.15l-3.19-9.29h-.07l-3.3,9.29h6.56ZM49.63,574.53c.76.73,1.84,1.1,3.26,1.1,1.02,0,1.89-.25,2.62-.76.73-.51,1.18-1.05,1.35-1.61h4.43c-.71,2.2-1.8,3.77-3.26,4.72-1.47.95-3.24,1.42-5.32,1.42-1.44,0-2.74-.23-3.9-.69-1.16-.46-2.14-1.12-2.94-1.97-.8-.85-1.42-1.87-1.86-3.05-.44-1.18-.66-2.48-.66-3.9s.22-2.65.67-3.83c.45-1.18,1.09-2.2,1.92-3.07.83-.86,1.81-1.54,2.96-2.04,1.15-.5,2.42-.74,3.81-.74,1.56,0,2.92.3,4.08.9,1.16.6,2.11,1.41,2.85,2.43.74,1.02,1.28,2.17,1.61,3.47.33,1.3.45,2.66.35,4.08h-13.22c.07,1.63.48,2.81,1.24,3.55M55.33,564.89c-.6-.66-1.52-.99-2.75-.99-.8,0-1.47.14-2,.41-.53.27-.96.61-1.28,1.01-.32.4-.54.83-.67,1.28-.13.45-.21.85-.23,1.21h8.19c-.24-1.28-.66-2.25-1.26-2.91M28.17,553.62v9.54h.11c.64-1.06,1.45-1.84,2.45-2.32.99-.48,1.96-.73,2.91-.73,1.35,0,2.45.18,3.31.55.86.37,1.54.87,2.04,1.52.5.65.84,1.44,1.05,2.37.2.93.3,1.97.3,3.1v11.27h-5.03v-10.35c0-1.51-.24-2.64-.71-3.39-.47-.75-1.31-1.12-2.52-1.12-1.37,0-2.36.41-2.98,1.22-.61.82-.92,2.16-.92,4.02v9.61h-5.03v-25.31h5.03ZM0,558.3v-4.68h20.74v4.68h-7.59v20.63h-5.57v-20.63H0Z" style="fill: #2ab1e7;"/>
    <path d="M696.46,483.91v5.78h.24c1.44-2.41,3.32-4.16,5.62-5.26,2.3-1.1,4.66-1.65,7.06-1.65,3.05,0,5.55.42,7.51,1.24,1.95.83,3.49,1.98,4.62,3.45,1.12,1.47,1.91,3.26,2.37,5.38.45,2.11.68,4.45.68,7.02v25.53h-11.4v-23.44c0-3.42-.54-5.98-1.61-7.67-1.07-1.69-2.97-2.53-5.7-2.53-3.1,0-5.35.92-6.74,2.77-1.39,1.85-2.09,4.88-2.09,9.11v21.75h-11.4v-41.5h10.84ZM677.24,525.42h-11.4v-41.5h11.4v41.5ZM665.85,468.1h11.4v9.39h-11.4v-9.39ZM645.99,509.36c0,.64-.07,1.5-.2,2.57-.13,1.07-.5,2.13-1.08,3.17-.59,1.04-1.5,1.94-2.73,2.69-1.23.75-2.97,1.12-5.22,1.12-.91,0-1.79-.08-2.65-.24-.86-.16-1.61-.44-2.25-.84-.64-.4-1.15-.95-1.52-1.65-.38-.69-.56-1.55-.56-2.57,0-1.07.19-1.95.56-2.65.37-.69.87-1.27,1.48-1.73.61-.45,1.34-.82,2.17-1.08.83-.27,1.67-.48,2.53-.64.91-.16,1.82-.29,2.73-.4.91-.11,1.78-.24,2.61-.4.83-.16,1.61-.36,2.33-.6.72-.24,1.32-.57,1.81-1v4.25ZM631.06,496.68c.21-2.25.96-3.85,2.25-4.82,1.28-.96,3.05-1.44,5.3-1.44,1.02,0,1.97.07,2.85.2.88.13,1.66.4,2.33.8.67.4,1.2.96,1.61,1.69.4.72.6,1.7.6,2.93.05,1.18-.29,2.07-1.04,2.69-.75.62-1.77,1.08-3.05,1.4-1.28.32-2.76.56-4.41.72-1.66.16-3.34.38-5.06.64-1.71.27-3.41.63-5.1,1.08-1.69.46-3.18,1.14-4.5,2.05-1.31.91-2.38,2.13-3.21,3.65-.83,1.53-1.24,3.47-1.24,5.82,0,2.14.36,3.99,1.08,5.54.72,1.55,1.73,2.84,3.01,3.85,1.28,1.02,2.78,1.77,4.5,2.25,1.71.48,3.56.72,5.54.72,2.57,0,5.08-.38,7.55-1.12,2.46-.75,4.6-2.06,6.42-3.93.05.7.15,1.38.28,2.05.13.67.31,1.32.52,1.97h11.56c-.54-.86-.91-2.14-1.12-3.85-.21-1.71-.32-3.5-.32-5.38v-21.59c0-2.51-.56-4.54-1.69-6.06-1.12-1.53-2.57-2.72-4.33-3.57-1.77-.86-3.72-1.43-5.86-1.73-2.14-.29-4.25-.44-6.34-.44-2.3,0-4.59.23-6.86.68-2.28.46-4.32,1.22-6.14,2.29-1.82,1.07-3.32,2.49-4.49,4.25-1.18,1.77-1.85,3.99-2.01,6.66h11.4ZM566.92,468.1l13.41,39.41h.16l12.68-39.41h17.74v57.32h-11.8v-40.62h-.16l-14.05,40.62h-9.71l-14.05-40.22h-.16v40.22h-11.8v-57.32h17.74ZM539.91,508.4h-24.16v-9.79h24.16v9.79ZM479.73,483.91v5.78h.24c1.44-2.41,3.32-4.16,5.62-5.26,2.3-1.1,4.66-1.65,7.06-1.65,3.05,0,5.55.42,7.51,1.24,1.95.83,3.49,1.98,4.62,3.45,1.12,1.47,1.91,3.26,2.37,5.38.45,2.11.68,4.45.68,7.02v25.53h-11.4v-23.44c0-3.42-.54-5.98-1.6-7.67-1.07-1.69-2.97-2.53-5.7-2.53-3.1,0-5.35.92-6.74,2.77-1.39,1.85-2.09,4.88-2.09,9.11v21.75h-11.4v-41.5h10.84ZM460.52,525.42h-11.4v-41.5h11.4v41.5ZM449.12,468.1h11.4v9.39h-11.4v-9.39ZM415.65,515.46c1.71,1.66,4.17,2.49,7.39,2.49,2.3,0,4.28-.57,5.94-1.73,1.66-1.15,2.68-2.37,3.05-3.65h10.03c-1.61,4.98-4.07,8.54-7.39,10.68-3.32,2.14-7.33,3.21-12.04,3.21-3.26,0-6.21-.52-8.83-1.56-2.62-1.04-4.84-2.53-6.66-4.46-1.82-1.93-3.22-4.23-4.21-6.9-.99-2.68-1.48-5.62-1.48-8.83s.51-5.99,1.52-8.67c1.02-2.68,2.46-4.99,4.33-6.94,1.87-1.95,4.11-3.49,6.7-4.62,2.6-1.12,5.47-1.69,8.63-1.69,3.53,0,6.61.68,9.23,2.05,2.62,1.36,4.78,3.2,6.46,5.5,1.69,2.3,2.9,4.92,3.65,7.87.75,2.94,1.02,6.02.8,9.23h-29.94c.16,3.69,1.1,6.37,2.81,8.03M428.54,493.63c-1.36-1.5-3.44-2.25-6.22-2.25-1.82,0-3.33.31-4.54.92-1.2.62-2.17,1.38-2.89,2.29-.72.91-1.23,1.87-1.52,2.89-.3,1.02-.47,1.93-.52,2.73h18.54c-.54-2.89-1.48-5.08-2.85-6.58M367.81,468.1v21.59h.24c1.44-2.41,3.29-4.16,5.54-5.26,2.25-1.1,4.44-1.65,6.58-1.65,3.05,0,5.55.42,7.51,1.24,1.95.83,3.49,1.98,4.62,3.45,1.12,1.47,1.91,3.26,2.37,5.38.45,2.11.68,4.45.68,7.02v25.53h-11.4v-23.44c0-3.42-.54-5.98-1.61-7.67-1.07-1.69-2.97-2.53-5.7-2.53-3.1,0-5.35.92-6.74,2.77-1.39,1.85-2.09,4.88-2.09,9.11v21.75h-11.4v-57.32h11.4ZM331.3,468.1c2.57,0,4.88.42,6.94,1.24,2.06.83,3.83,1.97,5.3,3.41,1.47,1.44,2.6,3.12,3.37,5.02.78,1.9,1.16,3.95,1.16,6.14,0,3.37-.71,6.29-2.13,8.75-1.42,2.46-3.73,4.33-6.94,5.62v.16c1.55.43,2.84,1.08,3.85,1.97,1.02.88,1.85,1.93,2.49,3.13.64,1.2,1.11,2.53,1.4,3.97.29,1.44.49,2.89.6,4.33.05.91.11,1.98.16,3.21.05,1.23.15,2.49.28,3.77.13,1.28.35,2.5.64,3.65.29,1.15.73,2.13,1.32,2.93h-12.6c-.7-1.82-1.12-3.99-1.28-6.5-.16-2.52-.4-4.92-.72-7.23-.43-3-1.34-5.19-2.73-6.58-1.39-1.39-3.67-2.09-6.82-2.09h-12.6v22.4h-12.6v-57.32h30.91ZM326.8,494.03c2.89,0,5.06-.64,6.5-1.93,1.45-1.28,2.17-3.37,2.17-6.26s-.72-4.8-2.17-6.06c-1.44-1.26-3.61-1.89-6.5-1.89h-13.81v16.14h13.81ZM256.64,509.36c0,.64-.07,1.5-.2,2.57-.13,1.07-.5,2.13-1.08,3.17-.59,1.04-1.5,1.94-2.73,2.69-1.23.75-2.97,1.12-5.22,1.12-.91,0-1.79-.08-2.65-.24-.86-.16-1.6-.44-2.25-.84-.64-.4-1.15-.95-1.52-1.65-.38-.69-.56-1.55-.56-2.57,0-1.07.19-1.95.56-2.65.37-.69.87-1.27,1.48-1.73.61-.45,1.34-.82,2.17-1.08.83-.27,1.67-.48,2.53-.64.91-.16,1.82-.29,2.73-.4.91-.11,1.78-.24,2.61-.4.83-.16,1.6-.36,2.33-.6s1.32-.57,1.81-1v4.25ZM241.71,496.68c.21-2.25.96-3.85,2.25-4.82s3.05-1.44,5.3-1.44c1.02,0,1.97.07,2.85.2.88.13,1.66.4,2.33.8.67.4,1.2.96,1.6,1.69.4.72.6,1.7.6,2.93.05,1.18-.29,2.07-1.04,2.69-.75.62-1.77,1.08-3.05,1.4-1.28.32-2.76.56-4.42.72-1.66.16-3.34.38-5.06.64-1.71.27-3.41.63-5.1,1.08-1.69.46-3.18,1.14-4.5,2.05-1.31.91-2.38,2.13-3.21,3.65-.83,1.53-1.24,3.47-1.24,5.82,0,2.14.36,3.99,1.08,5.54.72,1.55,1.73,2.84,3.01,3.85,1.28,1.02,2.78,1.77,4.49,2.25,1.71.48,3.56.72,5.54.72,2.57,0,5.08-.38,7.55-1.12,2.46-.75,4.6-2.06,6.42-3.93.05.7.15,1.38.28,2.05.13.67.31,1.32.52,1.97h11.56c-.54-.86-.91-2.14-1.12-3.85-.21-1.71-.32-3.5-.32-5.38v-21.59c0-2.51-.56-4.54-1.69-6.06-1.12-1.53-2.57-2.72-4.33-3.57-1.77-.86-3.72-1.43-5.86-1.73-2.14-.29-4.25-.44-6.34-.44-2.3,0-4.59.23-6.86.68-2.28.46-4.32,1.22-6.14,2.29-1.82,1.07-3.32,2.49-4.5,4.25-1.18,1.77-1.85,3.99-2.01,6.66h11.4ZM225.18,483.91v7.63h-8.35v20.55c0,1.93.32,3.21.96,3.85.64.64,1.93.96,3.85.96.64,0,1.26-.03,1.85-.08.59-.05,1.15-.13,1.69-.24v8.83c-.96.16-2.03.27-3.21.32-1.18.05-2.33.08-3.45.08-1.77,0-3.44-.12-5.02-.36-1.58-.24-2.97-.71-4.17-1.4-1.2-.69-2.15-1.69-2.85-2.97-.7-1.28-1.04-2.97-1.04-5.06v-24.48h-6.9v-7.63h6.9v-12.44h11.4v12.44h8.35ZM182.74,509.36c0,.64-.07,1.5-.2,2.57-.13,1.07-.5,2.13-1.08,3.17-.59,1.04-1.5,1.94-2.73,2.69-1.23.75-2.97,1.12-5.22,1.12-.91,0-1.79-.08-2.65-.24-.86-.16-1.6-.44-2.25-.84-.64-.4-1.15-.95-1.53-1.65-.37-.69-.56-1.55-.56-2.57,0-1.07.19-1.95.56-2.65.37-.69.87-1.27,1.49-1.73.61-.45,1.34-.82,2.17-1.08.83-.27,1.67-.48,2.53-.64.91-.16,1.82-.29,2.73-.4.91-.11,1.78-.24,2.61-.4.83-.16,1.6-.36,2.33-.6s1.32-.57,1.81-1v4.25ZM167.81,496.68c.21-2.25.96-3.85,2.25-4.82s3.05-1.44,5.3-1.44c1.02,0,1.97.07,2.85.2.88.13,1.66.4,2.33.8.67.4,1.2.96,1.6,1.69.4.72.6,1.7.6,2.93.05,1.18-.3,2.07-1.04,2.69-.75.62-1.77,1.08-3.05,1.4-1.28.32-2.76.56-4.42.72-1.66.16-3.34.38-5.06.64-1.71.27-3.41.63-5.1,1.08-1.69.46-3.18,1.14-4.5,2.05-1.31.91-2.38,2.13-3.21,3.65-.83,1.53-1.24,3.47-1.24,5.82,0,2.14.36,3.99,1.08,5.54.72,1.55,1.73,2.84,3.01,3.85,1.28,1.02,2.78,1.77,4.49,2.25,1.71.48,3.56.72,5.54.72,2.57,0,5.08-.38,7.55-1.12,2.46-.75,4.6-2.06,6.42-3.93.05.7.15,1.38.28,2.05.13.67.31,1.32.52,1.97h11.56c-.54-.86-.91-2.14-1.12-3.85-.21-1.71-.32-3.5-.32-5.38v-21.59c0-2.51-.56-4.54-1.69-6.06-1.12-1.53-2.57-2.72-4.34-3.57-1.77-.86-3.72-1.43-5.86-1.73-2.14-.29-4.25-.44-6.34-.44-2.3,0-4.59.23-6.86.68-2.28.46-4.32,1.22-6.14,2.29-1.82,1.07-3.32,2.49-4.5,4.25-1.18,1.77-1.85,3.99-2.01,6.66h11.4ZM124.46,468.1c3.69,0,7.13.59,10.32,1.77,3.18,1.18,5.94,2.94,8.27,5.3,2.33,2.36,4.15,5.3,5.46,8.83,1.31,3.53,1.97,7.68,1.97,12.44,0,4.17-.54,8.03-1.6,11.56-1.07,3.53-2.69,6.58-4.86,9.15-2.17,2.57-4.87,4.59-8.11,6.06-3.24,1.47-7.05,2.21-11.44,2.21h-24.72v-57.32h24.72ZM123.58,514.82c1.82,0,3.58-.29,5.3-.88,1.71-.59,3.24-1.57,4.58-2.93,1.34-1.36,2.41-3.14,3.21-5.34.8-2.19,1.2-4.87,1.2-8.03,0-2.89-.28-5.5-.84-7.83-.56-2.33-1.48-4.32-2.77-5.98-1.28-1.66-2.98-2.93-5.1-3.81-2.11-.88-4.72-1.32-7.83-1.32h-8.99v36.12h11.24ZM72.74,537.78c-2.2,1.44-5.25,2.17-9.15,2.17-1.18,0-2.34-.04-3.49-.12-1.15-.08-2.32-.17-3.49-.28v-9.39c1.07.11,2.17.21,3.29.32,1.12.11,2.25.13,3.37.08,1.5-.16,2.61-.75,3.33-1.77.72-1.02,1.08-2.14,1.08-3.37,0-.91-.16-1.77-.48-2.57l-14.53-38.93h12.12l9.39,28.42h.16l9.07-28.42h11.8l-17.34,46.64c-1.23,3.37-2.94,5.78-5.14,7.23M29.85,468.1c3.59,0,6.64.52,9.15,1.57,2.51,1.04,4.56,2.42,6.14,4.13,1.58,1.71,2.73,3.67,3.45,5.86.72,2.19,1.08,4.47,1.08,6.82s-.36,4.56-1.08,6.78c-.72,2.22-1.87,4.19-3.45,5.9-1.58,1.71-3.63,3.09-6.14,4.13-2.52,1.04-5.57,1.57-9.15,1.57h-13.24v20.55H4v-57.32h25.85ZM26.4,495.07c1.44,0,2.84-.11,4.17-.32,1.34-.21,2.52-.63,3.53-1.24,1.02-.61,1.83-1.48,2.45-2.61.62-1.12.92-2.6.92-4.42s-.31-3.29-.92-4.41c-.62-1.12-1.43-1.99-2.45-2.61-1.02-.61-2.19-1.03-3.53-1.24-1.34-.21-2.73-.32-4.17-.32h-9.79v17.18h9.79Z" style="fill: #2ab1e7;"/>
  </g>
</svg>