<?xml version="1.0" encoding="UTF-8" standalone="no"?>
<!DOCTYPE svg PUBLIC "-//W3C//DTD SVG 1.1//EN" "http://www.w3.org/Graphics/SVG/1.1/DTD/svg11.dtd">
<svg width="100%" height="100%" viewBox="0 0 1300 1036" version="1.1" xmlns="http://www.w3.org/2000/svg" xmlns:xlink="http://www.w3.org/1999/xlink" xml:space="preserve" xmlns:serif="http://www.serif.com/" style="fill-rule:evenodd;clip-rule:evenodd;stroke-linejoin:round;stroke-miterlimit:1.41421;">
    <g id="heart" transform="matrix(1,0,0,1,-81.5563,259.336)">
        <path d="M338.996,69.834C338.996,-74.606 456.263,-191.873 600.703,-191.873C745.143,-191.873 862.409,-74.607 862.41,69.834C1006.85,69.834 1124.12,187.101 1124.12,331.541C1124.12,475.981 1006.85,593.248 862.41,593.248L338.996,593.248L338.996,69.834Z" style="fill:rgb(250,2,60);"/>
    </g>
    <g id="script" transform="matrix(0.630845,0,0,0.630845,98.0956,226.521)">
        <g id="pyladies" transform="matrix(2.51024,0,0,2.51024,361.317,469.011)">
            <path id="path2841-2-0-9" d="M145.813,0.5C123.746,1.652 126.781,69.375 126.781,69.375C126.781,69.375 125.844,76.852 122.688,81.156C119.531,85.461 114.242,88.538 112.906,87.188C112.906,87.188 121.519,63.6 121.125,51C121.124,50.978 109,51 109,51C109,59.183 102.54,87.224 95.469,88.563C88.398,89.901 90.405,82.509 90.405,74.932C90.405,63.775 91.925,51.541 83.844,50.531C75.763,49.521 67.156,63.313 67.156,63.313C67.156,63.313 68.175,55.228 60.094,51.188C52.013,47.147 31.813,57.25 31.813,57.25C33.694,48.718 30.278,37.958 20.688,38.063C12.219,38.574 6.251,44.469 0.5,49.156L8.594,57.25C8.594,57.25 16.647,48.168 20.688,53.219C24.728,58.27 5.134,152.045 5.134,152.045L17.259,152.045L28.781,103.719C28.781,103.719 55.043,105.748 60.094,99.688C65.145,93.627 69.188,77.469 69.188,77.469C69.188,77.469 80.307,65.325 79.296,69.366C78.286,73.406 77.262,100.677 82.313,101.688C87.363,102.698 97.469,101.688 97.469,101.688L85.219,140.969L71.219,142.094L69.188,152.219L92.438,152.219L108.75,101.438C108.75,101.438 116.072,100.388 120.219,98.125C124.366,95.862 127.605,91.856 130.594,88.875C131.252,93.936 131.46,97.915 137.656,101.125C145.687,105.285 156.835,102.286 161.625,98.625C173.242,106.201 182.844,97.125 182.844,97.125C182.844,97.125 193.939,107.227 200,97.125C216.668,108.237 225.75,96.656 225.75,96.656C225.75,96.656 226.532,102.114 240.563,103.063C254.593,104.011 261.281,90.406 261.281,90.406C264.026,93.89 265.421,101.304 272.188,102.031C278.954,102.758 285.715,98.425 290.844,93.063C294.663,100.26 298.557,100.822 303.438,102.563C308.318,104.303 317.738,99.113 321.719,96.375C326.795,105.513 341.737,104.835 346.125,98.031C346.186,98.509 347.309,99.53 353.219,101.5C355.561,99.79 356.227,96.97 359.031,93.156C356.506,92.146 351.406,89.625 351.406,89.625C349.903,81.212 345.38,73.406 340.563,65.656L345.625,54.563L335.531,51.531C329.307,65.036 324.064,77.009 319.875,84.969C315.686,92.928 300.187,93.238 297.156,86.344C317.451,71.154 319.699,47.772 302.188,50.006C285.981,52.073 287.446,80.543 287.446,80.543C287.446,80.543 281.487,86.334 273.406,87.344C265.325,88.354 275.969,51.344 275.969,51.344L264.875,51.344C264.875,51.344 258.197,77.705 250.188,86.344C242.969,94.13 239.851,89.485 237.875,88.563C235.828,87.607 260.629,0.551 260.629,0.551L246.463,0.678L231.656,52.063C223.575,51.899 214.487,50.737 206.406,57.938C195.546,68.14 199.743,90.999 187.188,86.886C183.147,87.896 194.031,56.125 194.031,56.125C193.292,50.953 177.302,48.598 169.344,53.5C153.557,63.224 154.998,82.523 152.031,89.563C145.035,92.797 143.097,90.659 140.333,83.563C151.959,69.964 170.109,1.51 146.875,0.5C146.512,0.484 146.163,0.482 145.813,0.5ZM146.672,16.833C146.78,16.818 146.877,16.824 146.985,16.833C151.813,17.225 137.375,63.813 137.375,63.813C135.877,63.317 139.911,17.783 146.672,16.833ZM299.522,61.768C301.828,59.829 303.505,60.235 303.866,61.567C304.227,62.899 295.165,74.821 295.165,74.821C295.214,70.338 297.217,63.707 299.522,61.768ZM224.265,64.448C227.158,64.366 228.301,63.95 229.719,65.031L225.125,85.375C224.115,88.447 210.421,90.931 208.906,83.906C207.486,77.319 211.357,72.169 214.171,68.635C216.444,65.782 220.546,64.552 224.265,64.448ZM179.235,65.015C180.021,65 180.843,65.13 181.672,65.421L176.516,83.943C173.991,87.478 167.238,89 166.594,83.844C165.755,77.131 171.631,65.166 179.235,65.015ZM52.875,65.031C54.211,65.06 55.406,65.384 56.344,66.188C61.344,70.473 56.93,85.352 51.844,88.75C45.729,92.835 33.156,89.969 33.156,89.969L38.156,70.688C38.737,70.688 47.085,64.906 52.875,65.031ZM336.375,74.625C336.375,74.625 342.465,87.615 341.375,89.625C338.649,94.654 329.056,89.545 329.594,87.844L336.375,74.625Z" style="fill:white;fill-rule:nonzero;"/>
            <path id="path2915-9-9-9" d="M274.984,27.19C285.895,26.819 285.254,43.848 274.265,42.698C266.398,41.875 264.074,27.561 274.984,27.19Z" style="fill:white;fill-rule:nonzero;"/>
        </g>
        <g id="tower" transform="matrix(1.07026,0,0,1.06489,-243.358,7.84326)">
            <g transform="matrix(0.973523,0,0,0.667491,229.048,354.319)">
                <path d="M611.978,89.003L632.531,89.003L636.899,298.174L607.611,298.174L611.978,89.003Z" style="fill:white;"/>
            </g>
            <g transform="matrix(0.93435,0,0,0.93906,351.859,144.838)">
                <path d="M506.589,273.472C509.842,274.506 513.307,275.064 516.903,275.064C520.498,275.064 523.964,274.506 527.216,273.472L527.372,278.576L506.433,278.576L506.589,273.472Z" style="fill:white;"/>
            </g>
            <g transform="matrix(1,0,0,1,263.653,169.329)">
                <circle cx="571.175" cy="202.136" r="31.674" style="fill:white;"/>
            </g>
            <g transform="matrix(1,0,0,1,262.442,168.082)">
                <path d="M564.854,172.611L564.854,155.545L579.916,155.545L579.916,172.611C577.502,172.021 574.98,171.709 572.385,171.709C569.79,171.709 567.268,172.021 564.854,172.611Z" style="fill:white;"/>
            </g>
            <g transform="matrix(1,0,0,1.04208,262.567,161.669)">
                <path d="M575.619,155.418L568.901,155.418C568.901,155.418 571.063,27.271 571.27,15.015C571.279,14.494 571.719,14.076 572.259,14.076C572.26,14.076 572.26,14.076 572.261,14.076C572.801,14.076 573.241,14.494 573.25,15.015C573.457,27.271 575.619,155.418 575.619,155.418Z" style="fill:white;"/>
            </g>
            <g transform="matrix(0.82769,0,0,0.93906,411.867,144.838)">
                <path d="M527.61,282.457C527.61,280.315 525.647,278.576 523.228,278.576L498.797,278.576C496.379,278.576 494.415,280.315 494.415,282.457C494.415,284.6 496.379,286.339 498.797,286.339L523.228,286.339C525.647,286.339 527.61,284.6 527.61,282.457Z" style="fill:white;"/>
            </g>
        </g>
        <g transform="matrix(4.32472,0,0,4.32472,-1869.37,207.338)">
            <g transform="matrix(1,0,0,1,594.74,138.124)">
                <path d="M7.644,-6.792L6.228,-6.792L5.964,-5.028L7.308,-5.028L7.308,-4.2L5.832,-4.2L5.4,-1.32L4.536,-1.32L4.968,-4.2L3.252,-4.2L2.82,-1.32L1.944,-1.32L2.388,-4.2L0.996,-4.2L0.996,-5.028L2.508,-5.028L2.772,-6.792L1.356,-6.792L1.356,-7.62L2.892,-7.62L3.312,-10.356L4.176,-10.356L3.768,-7.62L5.484,-7.62L5.892,-10.356L6.756,-10.356L6.348,-7.62L7.644,-7.62L7.644,-6.792ZM5.352,-6.792L3.648,-6.792L3.372,-5.028L5.088,-5.028L5.352,-6.792Z" style="fill:white;fill-rule:nonzero;"/>
                <path d="M15.876,-6.492L15.24,-5.832C14.768,-6.272 14.336,-6.492 13.944,-6.492C13.696,-6.492 13.488,-6.414 13.32,-6.258C13.152,-6.102 13.068,-5.91 13.068,-5.682C13.068,-5.454 13.162,-5.254 13.35,-5.082C13.538,-4.91 13.872,-4.698 14.352,-4.446C14.832,-4.194 15.202,-3.916 15.462,-3.612C15.722,-3.308 15.852,-2.936 15.852,-2.496C15.852,-1.936 15.658,-1.464 15.27,-1.08C14.882,-0.696 14.404,-0.504 13.836,-0.504C13.044,-0.504 12.384,-0.84 11.856,-1.512L12.48,-2.208C12.912,-1.704 13.352,-1.452 13.8,-1.452C14.104,-1.452 14.364,-1.552 14.58,-1.752C14.796,-1.952 14.904,-2.186 14.904,-2.454C14.904,-2.722 14.806,-2.946 14.61,-3.126C14.414,-3.306 14.078,-3.516 13.602,-3.756C13.126,-3.996 12.766,-4.262 12.522,-4.554C12.278,-4.846 12.156,-5.23 12.156,-5.706C12.156,-6.182 12.33,-6.588 12.678,-6.924C13.026,-7.26 13.486,-7.428 14.058,-7.428C14.63,-7.428 15.236,-7.116 15.876,-6.492Z" style="fill:white;fill-rule:nonzero;"/>
                <path d="M22.764,-0.72L21.768,-0.72L21.768,-1.704C21.12,-0.936 20.352,-0.552 19.464,-0.552C18.992,-0.552 18.564,-0.674 18.18,-0.918C17.796,-1.162 17.508,-1.498 17.316,-1.926C17.124,-2.354 17.028,-3.012 17.028,-3.9L17.028,-7.26L18.012,-7.26L18.012,-4.14C18.012,-3.42 18.046,-2.93 18.114,-2.67C18.182,-2.41 18.282,-2.19 18.414,-2.01C18.546,-1.83 18.714,-1.696 18.918,-1.608C19.122,-1.52 19.37,-1.476 19.662,-1.476C19.954,-1.476 20.24,-1.548 20.52,-1.692C20.8,-1.836 21.04,-2.036 21.24,-2.292C21.44,-2.548 21.578,-2.82 21.654,-3.108C21.73,-3.396 21.768,-3.972 21.768,-4.836L21.768,-7.26L22.764,-7.26L22.764,-0.72Z" style="fill:white;fill-rule:nonzero;"/>
                <path d="M25.416,-6.264C26.064,-7.04 26.864,-7.428 27.816,-7.428C28.768,-7.428 29.576,-7.09 30.24,-6.414C30.904,-5.738 31.236,-4.924 31.236,-3.972C31.236,-3.02 30.908,-2.204 30.252,-1.524C29.596,-0.844 28.804,-0.504 27.876,-0.504C26.948,-0.504 26.128,-0.896 25.416,-1.68L25.416,1.596L24.432,1.596L24.432,-7.26L25.416,-7.26L25.416,-6.264ZM27.816,-1.428C28.472,-1.428 29.042,-1.674 29.526,-2.166C30.01,-2.658 30.252,-3.252 30.252,-3.948C30.252,-4.644 30.014,-5.238 29.538,-5.73C29.062,-6.222 28.48,-6.468 27.792,-6.468C27.104,-6.468 26.526,-6.226 26.058,-5.742C25.59,-5.258 25.356,-4.66 25.356,-3.948C25.356,-3.236 25.596,-2.638 26.076,-2.154C26.556,-1.67 27.136,-1.428 27.816,-1.428Z" style="fill:white;fill-rule:nonzero;"/>
                <path d="M33.6,-6.264C34.248,-7.04 35.048,-7.428 36,-7.428C36.952,-7.428 37.76,-7.09 38.424,-6.414C39.088,-5.738 39.42,-4.924 39.42,-3.972C39.42,-3.02 39.092,-2.204 38.436,-1.524C37.78,-0.844 36.988,-0.504 36.06,-0.504C35.132,-0.504 34.312,-0.896 33.6,-1.68L33.6,1.596L32.616,1.596L32.616,-7.26L33.6,-7.26L33.6,-6.264ZM36,-1.428C36.656,-1.428 37.226,-1.674 37.71,-2.166C38.194,-2.658 38.436,-3.252 38.436,-3.948C38.436,-4.644 38.198,-5.238 37.722,-5.73C37.246,-6.222 36.664,-6.468 35.976,-6.468C35.288,-6.468 34.71,-6.226 34.242,-5.742C33.774,-5.258 33.54,-4.66 33.54,-3.948C33.54,-3.236 33.78,-2.638 34.26,-2.154C34.74,-1.67 35.32,-1.428 36,-1.428Z" style="fill:white;fill-rule:nonzero;"/>
                <path d="M43.896,-7.428C44.84,-7.428 45.642,-7.088 46.302,-6.408C46.962,-5.728 47.292,-4.912 47.292,-3.96C47.292,-3.008 46.966,-2.194 46.314,-1.518C45.662,-0.842 44.856,-0.504 43.896,-0.504C42.936,-0.504 42.128,-0.842 41.472,-1.518C40.816,-2.194 40.488,-3.008 40.488,-3.96C40.488,-4.912 40.818,-5.728 41.478,-6.408C42.138,-7.088 42.944,-7.428 43.896,-7.428ZM43.896,-1.452C44.56,-1.452 45.126,-1.694 45.594,-2.178C46.062,-2.662 46.296,-3.246 46.296,-3.93C46.296,-4.614 46.058,-5.206 45.582,-5.706C45.106,-6.206 44.542,-6.456 43.89,-6.456C43.238,-6.456 42.676,-6.206 42.204,-5.706C41.732,-5.206 41.496,-4.612 41.496,-3.924C41.496,-3.236 41.724,-2.652 42.18,-2.172C42.636,-1.692 43.208,-1.452 43.896,-1.452Z" style="fill:white;fill-rule:nonzero;"/>
                <path d="M51.408,-7.164L50.892,-6.324C50.756,-6.396 50.624,-6.432 50.496,-6.432C50.248,-6.432 50.024,-6.31 49.824,-6.066C49.624,-5.822 49.474,-5.502 49.374,-5.106C49.274,-4.71 49.224,-3.996 49.224,-2.964L49.224,-0.72L48.216,-0.72L48.216,-7.26L49.224,-7.26L49.224,-6.552C49.424,-6.848 49.626,-7.068 49.83,-7.212C50.034,-7.356 50.266,-7.428 50.526,-7.428C50.786,-7.428 51.08,-7.34 51.408,-7.164Z" style="fill:white;fill-rule:nonzero;"/>
                <path d="M55.272,-6.396L53.976,-6.396L53.976,-1.812C53.976,-1.644 54,-1.542 54.048,-1.506C54.096,-1.47 54.216,-1.452 54.408,-1.452L54.984,-1.452L54.984,-0.6C54.6,-0.536 54.308,-0.504 54.108,-0.504C53.724,-0.504 53.44,-0.598 53.256,-0.786C53.072,-0.974 52.98,-1.272 52.98,-1.68L52.98,-6.396L51.852,-6.396L51.852,-7.26L52.98,-7.26L52.98,-9.72L53.976,-9.72L53.976,-7.26L55.272,-7.26L55.272,-6.396Z" style="fill:white;fill-rule:nonzero;"/>
                <path d="M56.7,-9.72C56.916,-9.72 57.098,-9.646 57.246,-9.498C57.394,-9.35 57.468,-9.17 57.468,-8.958C57.468,-8.746 57.394,-8.566 57.246,-8.418C57.098,-8.27 56.918,-8.196 56.706,-8.196C56.494,-8.196 56.314,-8.272 56.166,-8.424C56.018,-8.576 55.944,-8.754 55.944,-8.958C55.944,-9.162 56.018,-9.34 56.166,-9.492C56.314,-9.644 56.492,-9.72 56.7,-9.72ZM57.204,-0.72L56.208,-0.72L56.208,-7.26L57.204,-7.26L57.204,-0.72Z" style="fill:white;fill-rule:nonzero;"/>
                <path d="M64.464,-0.72L63.48,-0.72L63.48,-3.84C63.48,-4.56 63.446,-5.05 63.378,-5.31C63.31,-5.57 63.21,-5.79 63.078,-5.97C62.946,-6.15 62.778,-6.284 62.574,-6.372C62.37,-6.46 62.122,-6.504 61.83,-6.504C61.538,-6.504 61.252,-6.432 60.972,-6.288C60.692,-6.144 60.452,-5.944 60.252,-5.688C60.052,-5.432 59.914,-5.16 59.838,-4.872C59.762,-4.584 59.724,-4.008 59.724,-3.144L59.724,-0.72L58.728,-0.72L58.728,-7.26L59.724,-7.26L59.724,-6.276C60.372,-7.044 61.14,-7.428 62.028,-7.428C62.5,-7.428 62.928,-7.306 63.312,-7.062C63.696,-6.818 63.984,-6.482 64.176,-6.054C64.368,-5.626 64.464,-4.968 64.464,-4.08L64.464,-0.72Z" style="fill:white;fill-rule:nonzero;"/>
                <path d="M72.588,-2.256C72.588,-1.392 72.514,-0.752 72.366,-0.336C72.218,0.08 71.994,0.432 71.694,0.72C71.394,1.008 71.034,1.226 70.614,1.374C70.194,1.522 69.732,1.596 69.228,1.596C67.524,1.596 66.388,0.876 65.82,-0.564L66.876,-0.564C67.34,0.268 68.112,0.684 69.192,0.684C69.688,0.684 70.132,0.588 70.524,0.396C70.916,0.204 71.192,-0.052 71.352,-0.372C71.512,-0.692 71.592,-1.184 71.592,-1.848L71.592,-1.908C71.28,-1.556 70.904,-1.288 70.464,-1.104C70.024,-0.92 69.568,-0.828 69.096,-0.828C68.152,-0.828 67.362,-1.152 66.726,-1.8C66.09,-2.448 65.776,-3.212 65.784,-4.092C65.776,-5.012 66.108,-5.798 66.78,-6.45C67.452,-7.102 68.25,-7.428 69.174,-7.428C70.098,-7.428 70.904,-7.052 71.592,-6.3L71.592,-7.26L72.588,-7.26L72.588,-2.256ZM71.628,-4.092C71.628,-4.78 71.398,-5.348 70.938,-5.796C70.478,-6.244 69.916,-6.468 69.252,-6.468C68.548,-6.468 67.958,-6.226 67.482,-5.742C67.006,-5.258 66.768,-4.696 66.768,-4.056C66.768,-3.416 66.996,-2.874 67.452,-2.43C67.908,-1.986 68.492,-1.764 69.204,-1.764C69.916,-1.764 70.498,-1.982 70.95,-2.418C71.402,-2.854 71.628,-3.412 71.628,-4.092Z" style="fill:white;fill-rule:nonzero;"/>
                <path d="M86.232,-7.26L83.436,-0.504L83.184,-0.504L81.264,-5.16L79.332,-0.504L79.08,-0.504L76.332,-7.26L77.352,-7.26L79.2,-2.556L81.144,-7.26L81.384,-7.26L83.316,-2.544L85.2,-7.26L86.232,-7.26Z" style="fill:white;fill-rule:nonzero;"/>
                <path d="M90.204,-7.428C91.148,-7.428 91.95,-7.088 92.61,-6.408C93.27,-5.728 93.6,-4.912 93.6,-3.96C93.6,-3.008 93.274,-2.194 92.622,-1.518C91.97,-0.842 91.164,-0.504 90.204,-0.504C89.244,-0.504 88.436,-0.842 87.78,-1.518C87.124,-2.194 86.796,-3.008 86.796,-3.96C86.796,-4.912 87.126,-5.728 87.786,-6.408C88.446,-7.088 89.252,-7.428 90.204,-7.428ZM90.204,-1.452C90.868,-1.452 91.434,-1.694 91.902,-2.178C92.37,-2.662 92.604,-3.246 92.604,-3.93C92.604,-4.614 92.366,-5.206 91.89,-5.706C91.414,-6.206 90.85,-6.456 90.198,-6.456C89.546,-6.456 88.984,-6.206 88.512,-5.706C88.04,-5.206 87.804,-4.612 87.804,-3.924C87.804,-3.236 88.032,-2.652 88.488,-2.172C88.944,-1.692 89.516,-1.452 90.204,-1.452Z" style="fill:white;fill-rule:nonzero;"/>
                <path d="M104.652,-0.72L103.644,-0.72L103.644,-4.284C103.644,-4.852 103.61,-5.268 103.542,-5.532C103.474,-5.796 103.326,-6.018 103.098,-6.198C102.87,-6.378 102.57,-6.468 102.198,-6.468C101.826,-6.468 101.476,-6.348 101.148,-6.108C100.82,-5.868 100.592,-5.542 100.464,-5.13C100.336,-4.718 100.272,-4.108 100.272,-3.3L100.272,-0.72L99.3,-0.72L99.3,-4.068C99.3,-4.724 99.266,-5.196 99.198,-5.484C99.13,-5.772 98.98,-6.008 98.748,-6.192C98.516,-6.376 98.224,-6.468 97.872,-6.468C97.52,-6.468 97.186,-6.358 96.87,-6.138C96.554,-5.918 96.32,-5.63 96.168,-5.274C96.016,-4.918 95.94,-4.328 95.94,-3.504L95.94,-0.72L94.956,-0.72L94.956,-7.26L95.94,-7.26L95.94,-6.336C96.5,-7.064 97.2,-7.428 98.04,-7.428C98.496,-7.428 98.91,-7.306 99.282,-7.062C99.654,-6.818 99.92,-6.472 100.08,-6.024C100.352,-6.48 100.692,-6.828 101.1,-7.068C101.508,-7.308 101.94,-7.428 102.396,-7.428C103.02,-7.428 103.552,-7.208 103.992,-6.768C104.432,-6.328 104.652,-5.5 104.652,-4.284L104.652,-0.72Z" style="fill:white;fill-rule:nonzero;"/>
                <path d="M112.656,-3.816L106.92,-3.816C106.96,-3.096 107.202,-2.518 107.646,-2.082C108.09,-1.646 108.62,-1.428 109.236,-1.428C110.284,-1.428 111.084,-1.944 111.636,-2.976L112.476,-2.544C112.1,-1.848 111.656,-1.334 111.144,-1.002C110.632,-0.67 110.02,-0.504 109.308,-0.504C108.324,-0.504 107.512,-0.842 106.872,-1.518C106.232,-2.194 105.912,-3.008 105.912,-3.96C105.912,-4.912 106.234,-5.728 106.878,-6.408C107.522,-7.088 108.32,-7.428 109.272,-7.428C110.224,-7.428 111.02,-7.106 111.66,-6.462C112.3,-5.818 112.632,-4.936 112.656,-3.816ZM111.552,-4.692C111.432,-5.252 111.16,-5.688 110.736,-6C110.312,-6.312 109.824,-6.468 109.272,-6.468C108.152,-6.468 107.408,-5.876 107.04,-4.692L111.552,-4.692Z" style="fill:white;fill-rule:nonzero;"/>
                <path d="M119.748,-0.72L118.764,-0.72L118.764,-3.84C118.764,-4.56 118.73,-5.05 118.662,-5.31C118.594,-5.57 118.494,-5.79 118.362,-5.97C118.23,-6.15 118.062,-6.284 117.858,-6.372C117.654,-6.46 117.406,-6.504 117.114,-6.504C116.822,-6.504 116.536,-6.432 116.256,-6.288C115.976,-6.144 115.736,-5.944 115.536,-5.688C115.336,-5.432 115.198,-5.16 115.122,-4.872C115.046,-4.584 115.008,-4.008 115.008,-3.144L115.008,-0.72L114.012,-0.72L114.012,-7.26L115.008,-7.26L115.008,-6.276C115.656,-7.044 116.424,-7.428 117.312,-7.428C117.784,-7.428 118.212,-7.306 118.596,-7.062C118.98,-6.818 119.268,-6.482 119.46,-6.054C119.652,-5.626 119.748,-4.968 119.748,-4.08L119.748,-0.72Z" style="fill:white;fill-rule:nonzero;"/>
            </g>
            <g transform="matrix(1,0,0,1,594.74,149.364)">
                <path d="M7.644,-6.792L6.228,-6.792L5.964,-5.028L7.308,-5.028L7.308,-4.2L5.832,-4.2L5.4,-1.32L4.536,-1.32L4.968,-4.2L3.252,-4.2L2.82,-1.32L1.944,-1.32L2.388,-4.2L0.996,-4.2L0.996,-5.028L2.508,-5.028L2.772,-6.792L1.356,-6.792L1.356,-7.62L2.892,-7.62L3.312,-10.356L4.176,-10.356L3.768,-7.62L5.484,-7.62L5.892,-10.356L6.756,-10.356L6.348,-7.62L7.644,-7.62L7.644,-6.792ZM5.352,-6.792L3.648,-6.792L3.372,-5.028L5.088,-5.028L5.352,-6.792Z" style="fill:white;fill-rule:nonzero;"/>
                <path d="M21.576,-7.26L18.78,-0.504L18.528,-0.504L16.608,-5.16L14.676,-0.504L14.424,-0.504L11.676,-7.26L12.696,-7.26L14.544,-2.556L16.488,-7.26L16.728,-7.26L18.66,-2.544L20.544,-7.26L21.576,-7.26Z" style="fill:white;fill-rule:nonzero;"/>
                <path d="M28.176,-0.72L27.18,-0.72L27.18,-3.84C27.18,-4.448 27.162,-4.876 27.126,-5.124C27.09,-5.372 27.008,-5.606 26.88,-5.826C26.752,-6.046 26.578,-6.214 26.358,-6.33C26.138,-6.446 25.874,-6.504 25.566,-6.504C25.258,-6.504 24.964,-6.432 24.684,-6.288C24.404,-6.144 24.164,-5.944 23.964,-5.688C23.764,-5.432 23.626,-5.16 23.55,-4.872C23.474,-4.584 23.436,-4.008 23.436,-3.144L23.436,-0.72L22.44,-0.72L22.44,-9.72L23.436,-9.72L23.436,-6.276C24.084,-7.044 24.852,-7.428 25.74,-7.428C26.212,-7.428 26.64,-7.306 27.024,-7.062C27.408,-6.818 27.696,-6.482 27.888,-6.054C28.08,-5.626 28.176,-4.968 28.176,-4.08L28.176,-0.72Z" style="fill:white;fill-rule:nonzero;"/>
                <path d="M32.868,-7.428C33.812,-7.428 34.614,-7.088 35.274,-6.408C35.934,-5.728 36.264,-4.912 36.264,-3.96C36.264,-3.008 35.938,-2.194 35.286,-1.518C34.634,-0.842 33.828,-0.504 32.868,-0.504C31.908,-0.504 31.1,-0.842 30.444,-1.518C29.788,-2.194 29.46,-3.008 29.46,-3.96C29.46,-4.912 29.79,-5.728 30.45,-6.408C31.11,-7.088 31.916,-7.428 32.868,-7.428ZM32.868,-1.452C33.532,-1.452 34.098,-1.694 34.566,-2.178C35.034,-2.662 35.268,-3.246 35.268,-3.93C35.268,-4.614 35.03,-5.206 34.554,-5.706C34.078,-6.206 33.514,-6.456 32.862,-6.456C32.21,-6.456 31.648,-6.206 31.176,-5.706C30.704,-5.206 30.468,-4.612 30.468,-3.924C30.468,-3.236 30.696,-2.652 31.152,-2.172C31.608,-1.692 32.18,-1.452 32.868,-1.452Z" style="fill:white;fill-rule:nonzero;"/>
                <path d="M47.016,-2.052C46.672,-1.548 46.222,-1.164 45.666,-0.9C45.11,-0.636 44.508,-0.504 43.86,-0.504C42.852,-0.504 42.01,-0.836 41.334,-1.5C40.658,-2.164 40.32,-2.976 40.32,-3.936C40.32,-4.896 40.66,-5.718 41.34,-6.402C42.02,-7.086 42.9,-7.428 43.98,-7.428C44.62,-7.428 45.21,-7.288 45.75,-7.008C46.29,-6.728 46.712,-6.336 47.016,-5.832L46.236,-5.34C45.652,-6.1 44.888,-6.48 43.944,-6.48C43.2,-6.48 42.576,-6.242 42.072,-5.766C41.568,-5.29 41.316,-4.7 41.316,-3.996C41.316,-3.292 41.564,-2.688 42.06,-2.184C42.556,-1.68 43.184,-1.428 43.944,-1.428C44.856,-1.428 45.624,-1.812 46.248,-2.58L47.016,-2.052Z" style="fill:white;fill-rule:nonzero;"/>
                <path d="M51.492,-7.428C52.436,-7.428 53.238,-7.088 53.898,-6.408C54.558,-5.728 54.888,-4.912 54.888,-3.96C54.888,-3.008 54.562,-2.194 53.91,-1.518C53.258,-0.842 52.452,-0.504 51.492,-0.504C50.532,-0.504 49.724,-0.842 49.068,-1.518C48.412,-2.194 48.084,-3.008 48.084,-3.96C48.084,-4.912 48.414,-5.728 49.074,-6.408C49.734,-7.088 50.54,-7.428 51.492,-7.428ZM51.492,-1.452C52.156,-1.452 52.722,-1.694 53.19,-2.178C53.658,-2.662 53.892,-3.246 53.892,-3.93C53.892,-4.614 53.654,-5.206 53.178,-5.706C52.702,-6.206 52.138,-6.456 51.486,-6.456C50.834,-6.456 50.272,-6.206 49.8,-5.706C49.328,-5.206 49.092,-4.612 49.092,-3.924C49.092,-3.236 49.32,-2.652 49.776,-2.172C50.232,-1.692 50.804,-1.452 51.492,-1.452Z" style="fill:white;fill-rule:nonzero;"/>
                <path d="M62.772,-0.72L61.8,-0.72L61.8,-1.68C61.088,-0.896 60.266,-0.504 59.334,-0.504C58.402,-0.504 57.608,-0.844 56.952,-1.524C56.296,-2.204 55.968,-3.02 55.968,-3.972C55.968,-4.924 56.3,-5.738 56.964,-6.414C57.628,-7.09 58.438,-7.428 59.394,-7.428C60.35,-7.428 61.152,-7.04 61.8,-6.264L61.8,-9.72L62.772,-9.72L62.772,-0.72ZM59.412,-1.428C60.044,-1.428 60.608,-1.664 61.104,-2.136C61.6,-2.608 61.848,-3.206 61.848,-3.93C61.848,-4.654 61.618,-5.258 61.158,-5.742C60.698,-6.226 60.118,-6.468 59.418,-6.468C58.718,-6.468 58.134,-6.218 57.666,-5.718C57.198,-5.218 56.964,-4.63 56.964,-3.954C56.964,-3.278 57.204,-2.688 57.684,-2.184C58.164,-1.68 58.74,-1.428 59.412,-1.428Z" style="fill:white;fill-rule:nonzero;"/>
                <path d="M70.908,-3.816L65.172,-3.816C65.212,-3.096 65.454,-2.518 65.898,-2.082C66.342,-1.646 66.872,-1.428 67.488,-1.428C68.536,-1.428 69.336,-1.944 69.888,-2.976L70.728,-2.544C70.352,-1.848 69.908,-1.334 69.396,-1.002C68.884,-0.67 68.272,-0.504 67.56,-0.504C66.576,-0.504 65.764,-0.842 65.124,-1.518C64.484,-2.194 64.164,-3.008 64.164,-3.96C64.164,-4.912 64.486,-5.728 65.13,-6.408C65.774,-7.088 66.572,-7.428 67.524,-7.428C68.476,-7.428 69.272,-7.106 69.912,-6.462C70.552,-5.818 70.884,-4.936 70.908,-3.816ZM69.804,-4.692C69.684,-5.252 69.412,-5.688 68.988,-6C68.564,-6.312 68.076,-6.468 67.524,-6.468C66.404,-6.468 65.66,-5.876 65.292,-4.692L69.804,-4.692Z" style="fill:white;fill-rule:nonzero;"/>
            </g>
        </g>
    </g>
</svg>
