<?xml version="1.0" encoding="UTF-8"?>
<svg id="Ebene_1" xmlns="http://www.w3.org/2000/svg" version="1.1" viewBox="0 0 801 322">
  <!-- Generator: Adobe Illustrator 30.2.1, SVG Export Plug-In . SVG Version: 2.1.1 Build 1)  -->
  <g>
    <path d="M466.305,96.067c-4.335-1.084-8.116-.628-12.272.385l-.049,131.573c-15.937-5.429-25.148,4.505-42.865-2.11-7.752-2.894-13.069-9.415-13.096-17.892l-.068-21.052c-.022-6.773,2.775-12.854,8.303-16.738,8.101-5.69,18.13-6.474,27.722-2.786l.036-86.148c18.917,7.288,24.139-4.843,44.301,2.564,7.346,2.699,11.857,9.212,11.861,17.129l.019,42.94c-7.191-.342-19.464-1.023-19.473-9.893l-.035-31.674c-.003-2.548-1.464-5.57-4.382-6.3ZM422.584,214.288c3.898,1.16,7.55,1.007,11.528-.175-.77-10.296.899-20.031-.667-30.007-.768-4.889-8.999-6.333-12.44-4.176-2.636,1.652-3.496,4.482-3.484,7.231l.087,20.471c.013,3.012,2.138,5.811,4.976,6.656Z" fill="#309a42"/>
    <path d="M581.172,184.492l-.602,43.05c-5.93-.018-19.332-1.294-19.344-9.485l-.047-32.1c-.012-8.2-11.103-7.516-17.133-5.783l-.152,47.442c-5.507.169-19.133-1.392-19.122-8.612l.081-53.853c21.305,7.114,24.376-6.43,47.922,4.387,9.355-4.513,19.355-5.599,29.005-3.115,9.374,2.413,15.661,10.157,15.664,19.813l.014,41.246c-4.899.444-19.389-1.328-19.413-8.43l-.106-30.952c-.016-4.7-2.467-8.424-6.606-9.029-3.299-.482-10.091.484-10.16,5.421Z" fill="#329b44"/>
    <path d="M247.944,206.074c-8.639-1.118-17.285-.519-25.829-.325-2.414,6.498-3.459,12.762-7.91,17.518-5.159,5.513-13.347,5.44-20.419,2.387,1.862-3.806,3.093-7,4.379-10.822l14.057-41.772c4.302-12.783,11.995-23.901,22.728-32.762,10.676,9.039,18.314,20.093,22.628,32.904l14.336,42.574c1.132,3.363,2.265,6.041,4.243,9.756-6.465,2.996-15.125,3.501-20.484-2.148-4.271-4.503-5.606-10.293-7.73-17.311ZM243.276,190.937c-2.562-9.91-4.732-17.678-8.391-26.303-3.806,9.121-6.41,17.629-8.283,26.702,6.183.066,11.328.808,16.675-.399Z" fill="#329b44"/>
    <path d="M160.235,115.713c-7.743,2.175-15.32,2.513-23.354,2.242l-.266,26.074c-4.708.766-19.593-1.26-19.595-8.056l-.03-75.984,32.029.235c7.643.056,15.188,2.114,21.09,6.647,7.095,5.289,8.554,13.67,8.767,22.092.319,12.616-5.884,23.167-18.641,26.749ZM158.835,87.547c-.069-7.178-3.911-12.021-10.447-12.931-3.722-.518-7.356-.581-11.516-.135l.02,29.025c5.909.399,11.852.913,16.764-1.981,4.638-2.733,5.232-8.43,5.178-13.978Z" fill="#309a42"/>
    <path d="M356.222,143.944c-6.14-.17-18.886-1.413-19.174-8.901-.438-11.378.612-22.483-.481-33.65-.421-4.303-4.6-6.101-8.064-5.914-3.254.175-8.43,2.113-8.471,6.509l-.387,41.79c-5.217.519-19.386-1.182-19.385-8.833l.014-80.149c5.543-.603,19.342,1.227,19.398,9.194l.139,19.629c9.63-3.161,19.388-3.197,27.702,1.935,4.981,3.075,8.599,8.386,8.612,14.412l.097,43.976Z" fill="#329b44"/>
    <path d="M424.772,124.078c-.002,22.611-31.453,23.021-46.691,17.812-7.89-2.697-12.807-9.634-12.805-17.831l.004-22.123c.002-8.477,5.305-15.445,13.483-18.051,15.646-4.986,46.013-4.089,46.011,18.035l-.002,22.157ZM405.469,122.157l-.03-18.719c-.009-5.644-3.861-8.404-9.607-8.26-3.459.087-9.802.268-10.428,5.002-1.098,8.296-1.102,17.343-.001,25.622.633,4.761,6.943,5.179,10.462,5.197,5.758.029,9.614-2.769,9.604-8.842Z" fill="#329b44"/>
    <path d="M243.032,82.068l-3.322,25.863c-2.705,21.061-23.092,31.762-30.775,40.078-5.214,5.643-5.827,12.727-2.459,20.199-5.125,3.129-12.669,4.039-16.881-.845-5.263-6.104-4.486-15.46-.116-21.912,3.214-4.745,7.55-7.485,12.188-11.496-9.185-7.392-14.674-17.274-15.992-28.523l-2.742-23.415c6.42.129,18.937,1.246,20.097,8.905l2.878,18.998c.804,5.307,2.577,10.56,7.018,14.141,4.397-4.352,6.407-9.602,7.234-15.139l2.719-18.196c1.058-7.08,12.367-8.598,20.152-8.657Z" fill="#329b44"/>
    <path d="M683.941,165.827c-2.382,25.064-3.051,42.264-24.923,57.956-10.435,7.486-17.195,14.82-11.508,28.215-5.181,2.89-12.564,4.002-16.762-.793-6.019-6.874-4.384-17.447,1.261-24.088,3.137-3.691,6.56-5.893,10.665-9.388-8.698-7.108-14.48-16.509-15.799-27.473l-2.931-24.358c6.913-.132,18.941,1.082,20.155,8.972l3.063,19.893c.758,4.92,2.702,9.693,6.74,13.028,10.067-9.092,7.232-28.782,11.268-35.852,3.38-5.92,12.434-5.674,18.771-6.112Z" fill="#329b44"/>
    <path d="M347.604,193.121l19.376-5.94c1.5-.46,2.783-1.661,2.985-2.784,1.063-5.911-11.113-6.435-19.308-3.754-5.208,1.704-7.793,6.079-8.475,11.191-4.312-4.486-6.41-10.672-4.551-16.538,3.621-11.428,27.341-11.564,38.975-7.891,7.957,2.513,13.11,9.25,13.092,17.614l-.092,43.029c-15.377-5.329-22.723,3.577-40.554-1.14-8.117-2.148-13.122-8.016-13.764-15.595-.705-8.325,3.506-15.492,12.315-18.193ZM370.537,213.606l-.238-13.736c-6.253,3.213-16.014,2.719-15.465,9.624.177,2.232,1.43,4.65,4.296,5.187,3.884.727,7.815.496,11.407-1.075Z" fill="#329b44"/>
    <path d="M488.64,213.389c7.965,1.947,21.217-.05,24.317-9.844,3.244,3.594,4.682,7.763,3.619,12.595-2.942,13.37-27.495,14.47-41.618,8.907-7.563-2.979-12-9.99-11.992-17.98l.02-21.112c.008-8.686,5.218-15.759,13.451-18.595,8.035-2.767,16.865-2.829,25.088-.927,9.5,2.198,14.685,10.075,14.496,19.58-.164,8.282-4.349,15.052-12.441,17.459-6.651,1.979-13.541,2.163-20.86.374-1.135,4.114,1.476,8.457,5.92,9.543ZM493.801,190.496c3.747-2.225,3.1-6.714,1.752-8.885-1.857-2.99-5.874-3.412-9.479-1.902-2.908,1.217-5.22,7.627-3.035,10.588,1.799,2.438,8.205,1.719,10.763.2Z" fill="#329b44"/>
    <path d="M268.091,122.766c.05,5.114,4.071,7.815,8.896,7.734,8.427-.141,12.203-2.552,13.422-11.514,4.269,3.108,6.735,8.004,6.022,13.213-1.913,13.975-23.996,14.05-35.034,10.232-7.274-2.516-12.718-8.98-12.74-16.868l-.145-51.799c5.63-.417,10.656.254,15.44,2.425,3.881,1.761,3.752,6.202,4.325,9.683l21.935.597c.546,4.645-1.433,11.028-6.367,13.081-4.749,1.976-9.761.496-15.559.974-.575,7.27-.266,14.827-.194,22.242Z" fill="#329b44"/>
    <path d="M298.336,203.763c.177,7.258,5.157,10.501,11.699,10.357,7.366-.162,14.409-2.964,16.901-10.517,3.414,3.572,4.743,7.64,3.75,12.541-2.625,12.945-26.071,14.765-39.863,8.88-7.409-3.162-11.848-10.003-11.844-17.956l.009-21.117c.004-8.651,5.188-15.822,13.453-18.587,11.296-3.778,33.603-3.215,36.791,8.017,1.781,6.276-.853,12.186-4.65,17.209-.983-9.301-7.274-14.013-15.565-13.679-6.104.245-10.336,3.497-10.635,9.931-.216,4.653-.172,9.819-.047,14.922Z" fill="#329b44"/>
    <path d="M562.744,141.215c-2.545,3.285-7.049,3.354-9.768,1.33-2.631-1.958-3.795-6.121-1.493-9.209l14.948-20.052-14.575-19.078c-2.373-3.107-2.11-7.202.383-9.546,2.883-2.711,7.8-2.605,10.368.696l18.432,23.698c1.907,2.452,2.19,5.716.238,8.236l-18.534,23.925Z" fill="#c0b362"/>
    <path d="M527.882,141.319c-2.485,3.21-7.006,3.256-9.722,1.175-2.432-1.863-3.791-5.908-1.506-8.991l15.012-20.251-14.645-19.227c-2.399-3.149-1.887-7.01.404-9.265,2.889-2.844,7.797-2.762,10.321.471l18.403,23.57c1.741,2.229,2.519,5.67.661,8.07l-18.927,24.449Z" fill="#c0b362"/>
    <path d="M597.611,141.02c-2.464,3.172-6.493,3.539-9.291,1.989-2.849-1.578-4.712-6.155-2.355-9.281l15.216-20.176-14.884-19.694c-2.225-2.944-1.684-7.102.743-9.297,2.596-2.348,7.502-2.686,9.969.459l18.421,23.479c2.211,2.818,2.485,6.381.225,9.291l-18.044,23.231Z" fill="#c0b362"/>
  </g>
  <g>
    <path d="M344.497,272.476c-3.184,2.442-12.042,2.224-12.804-1.266-.214-.979-.072-2.007.818-2.666,2.235,2.751,5.766,3.309,8.842,1.941.905-.402,1.116-1.485,1.157-2.005.298-3.746-8.526-.278-10.849-3.993-1.42-2.27.877-5.247.15-7.8-.605-2.126-.494-4.197.518-5.948,2.438-4.219,9.033-1.432,13.074-1.999.262,2.942,1.154,6.621-.42,9.537-1.842,3.415-6.362,3.163-10.347,2.575-1.318,5.131,9.554-.04,11.433,5.357.646,1.855.451,4.714-1.573,6.266ZM342.319,254.602c0-1.992-1.615-3.607-3.607-3.607s-3.607,1.615-3.607,3.607,1.615,3.607,3.607,3.607,3.607-1.615,3.607-3.607Z" fill="#c4b86c"/>
    <path d="M380.969,260.044c-3.29.326-2.817-2.418-4.428-3.865s-3.52,1.533-3.314,3.126c.248,1.913,1.547,3.455,3.881,3.749,3.808.48,6.947-.811,8.42-4.131,1.019,1.998,1.058,4.721-.762,5.785-3.932,2.297-9.533,2.502-13.263-.33-3.435-2.608-2.877-7.818.222-10.75-2.697-3.118-3.381-7.937.404-10.432,3.75-2.472,8.838-2.168,12.56.173,1.733,1.09,1.445,3.683.319,4.827-1.932-2.751-5.179-4.08-8.733-3.058-1.846.531-2.562,1.945-2.721,3.35-.174,1.535,1.323,4.292,3.221,3.063.78-.505.242-4.425,2.324-3.531,1.768,2.37,2.757,4.304,6.006,5.471-3.079,1.842-4.744,3.344-4.137,6.553Z" fill="#c4b86c"/>
    <path d="M614.425,273.241c-3.049,1.165-9.766,1.674-11.487-1.936-.337-.707-.145-1.976.788-2.852,1.994,2.468,5.982,3.964,9.265,1.637,1.035-.733.649-2.197.37-2.663-1.207-2.019-10.115.435-10.725-3.611-.481-3.19.998-6.479.222-9.899-.714-3.145,2.276-5.535,5.16-5.562,3.154-.03,5.686.398,8.851.744.173,3.413.944,7.088-1.024,9.755-2.212,3-6.272,2.237-10.058,2.083-1.288,5.077,10.47-.356,11.649,5.817.468,2.449-.146,5.392-3.012,6.487ZM613.487,254.622c0-1.983-1.608-3.591-3.591-3.591s-3.591,1.608-3.591,3.591,1.608,3.591,3.591,3.591,3.591-1.608,3.591-3.591Z" fill="#c4b86c"/>
    <path d="M414.875,260.545c2.966,4.881,10.454,2.46,13.07-.594.979.743.914,2.241.566,3.312-1.164,3.579-14.981,5.214-17.476-1.054-1.793-4.506-1.79-11.906-.026-16.419,2.399-6.138,15.056-4.818,17.117-1.558.674,1.066,1.108,2.671-.253,3.716-3.064-3.078-9.969-5.207-12.949-.843-1.899,2.782-2.044,10.158-.049,13.439Z" fill="#c4b86c"/>
    <path d="M518.647,262.579c1.979-4.618-1.612-16.605,3.234-13.705.696.417,1.341,1.256,1.344,2.376l.042,14.597c-4.219-.092-14.348,2.461-14.64-3.997-.258-5.701-1.473-14.891,2.355-12.953,2.811,1.424.009,7.745,1.962,13.152.536,1.484,5.103,1.929,5.703.531Z" fill="#c4b86c"/>
    <path d="M498.057,264.975c-3.287,2.029-7.841,1.988-11.138.063-1.82-1.062-1.73-3.746.204-4.851,1.079,3.086,6.598,4.584,8.614,1.376,2.751-4.379-9.793-.731-10.252-7.119-.184-2.569.797-5.122,3.84-5.809s8.283-.86,9.558,2.085c.418.966.498,2.484-1.013,3.301-1.585-2.546-6.513-4.021-8.186-.942-1.822,3.352,7.872,1.053,9.674,5.031,1.034,2.282.985,5.456-1.3,6.866Z" fill="#c4b86c"/>
    <path d="M452.079,263.382c-1.875,4.305-11.261,4.166-13.516.244-1.877-3.264-1.858-9.22-.067-12.486,2.208-4.024,10.906-4.126,13.393-.297,1.899,2.924,1.863,8.695.19,12.539ZM449.307,256.592c.353-4.361-1.566-5.599-4.734-5.388-5.361.358-3.626,10.888-1.807,11.645,1.931.803,4.054.829,5.413-.187,1.539-1.151.937-3.711,1.128-6.07Z" fill="#c4b86c"/>
    <path d="M239.001,266.276c-3.36.133-5.148-2.306-5.252-4.766-.307-7.245,8.698-4.204,10.618-8.515-3.313-3.041-6.965-1.52-9.269,1.122-1.003-.84-1.029-2.116-.633-3.258,1.109-3.201,10.914-3.984,12.73.537,1.843,4.588.317,9.681.829,14.522l-9.022.358ZM241.313,263.521c1.803-.021,2.884-.934,2.903-2.047.016-.889.49-2.724-.748-3.374-.823-.432-2.475.571-3.599.763-1.925.329-2.719,2.197-1.865,3.473.45.673,1.662,1.205,3.309,1.186Z" fill="#c4b86c"/>
    <path d="M285.041,265.897c-8.953,2.852,2.447-20.769-10.692-13.102l-.138,13.157c-6.183,2.958-3.026-13.474-3.579-17.079,3.389.347,13.221-2.704,14.111,3.196.71,4.7-.008,9.15.297,13.828Z" fill="#c4b86c"/>
    <path d="M318.665,254.416c-.008-2.364-1.864-3.038-3.152-3.106-1.055-.056-3.563-.097-3.608,1.676l-.315,12.192c-.031,1.214-1.52.835-2.068.715-1.037-.227-1.566-1.379-1.559-2.831l.07-14.039c4.433-.191,14.086-2.828,14.389,4.076.978,22.325-3.726,10.839-3.729,9.814l-.027-8.497Z" fill="#c4b86c"/>
    <path d="M476.989,265.878c-6.57,1.608-2.763-7.967-4.354-12.755-.869-2.616-5.332-2.44-6.655-.34l-.003,13.085c-6.146,2.915-3.061-13.102-3.584-17.085,4.936.524,8.66-1.827,12.605.798,1.526,1.015,1.979,3.093,1.981,5.358l.011,10.94Z" fill="#c4b86c"/>
    <path d="M591.566,265.88c-4.277-.854,1.81-13.205-4.553-14.545-1.111-.234-3.97-.262-4.039,1.687l-.427,12.158c-.04,1.134-1.231.904-1.748.787-1.214-.275-1.79-1.531-1.79-2.894l.008-14.097,8.907-.608c3.388-.231,5.851,2.163,5.811,5.565-.087,7.4,1.267,12.633-2.169,11.948Z" fill="#c4b86c"/>
    <path d="M203.716,264.636c-.018,1.817-1.514,1.518-2.206,1.281-.626-.214-1.461-.677-1.466-1.927l-.08-19.033c-2.926-.349-6.234,1.445-7.73-2.745,6.708-.341,12.802-.406,19.425.015-1.362,4.035-4.691,2.377-7.75,2.798l-.193,19.61Z" fill="#c0b362"/>
    <path d="M550.655,262.134c1.617,2.428,5.214.563,6.26-1.179,1.26.419,1.381,1.516,1.21,2.501-.14.808-.744,1.729-2.308,2.335-2.968,1.149-8.409.959-9.313-2.922-1.368-5.875.069-11.858-.633-17.8,6.762.52-1.06,3.935,10.743,4.699-.248,3.567-3.719,1.874-5.764,3.231-2.015,1.337-1.52,7.144-.195,9.134Z" fill="#c4b86c"/>
    <path d="M536.257,259.531c-.006,2.394.703,3.877,1.757,5.585-.997.917-2.14,1.233-3.17.779-.871-.384-2.17-1.626-2.221-3.195-.237-7.265-.291-14.195.033-21.645.039-.906,1.847-.612,2.351-.282.59.386,1.296,1.176,1.293,2.368l-.044,16.39Z" fill="#c4b86c"/>
    <path d="M220.202,251.803c-.935,1.457,1.562,20.215-3.179,13.692-1.453-1.998-.679-12.21-.603-16.62l7.545-.535c1.519-.108,2.862.63,3.327,1.67.456,1.019.512,2.446-.565,3.466-1.745-1.198-3.277-2.344-6.524-1.673Z" fill="#c4b86c"/>
    <path d="M298.459,265.318c0,.32-6.253,5.882-3.678-16.184.091-.783,1.742-.584,2.259-.299.583.321,1.444,1.144,1.443,2.277l-.023,14.206Z" fill="#c4b86c"/>
    <path d="M569.462,265.326c.002-.395-5.759,6.86-3.526-16.434.049-.515,1.734-.347,2.158-.148.619.291,1.436,1.078,1.431,2.31l-.063,14.272Z" fill="#c4b86c"/>
    <path d="M261.02,250.993c-.245,4.638,1.458,19.317-3.005,14.447-1.296-1.414-.888-13.48-.449-16.331.176-1.145,3.566-.22,3.455,1.884Z" fill="#c4b86c"/>
  </g>
</svg>