<?xml version="1.0" encoding="UTF-8"?>
<svg id="Ebene_1" xmlns="http://www.w3.org/2000/svg" version="1.1" viewBox="0 0 580 164">
  <!-- Generator: Adobe Illustrator 30.2.1, SVG Export Plug-In . SVG Version: 2.1.1 Build 1)  -->
  <path d="M0,164V0h580v164H0ZM306.971,35.06l-.003,13,.026,13.906-.003,15.99-.276,24.704,9.174.003-.363-23.809.016-14.882c.005-5.115,12.893-10.807,19.306-8.547,2.604.918,6.438,5.633,6.954,8.408l.142,16.228-.323,22.467,9.219.172-.245-21.668c-.068-6.045.196-12.143-.184-18.171-.419-6.664-4.975-12.902-12.386-14.057-7.961-1.241-15.061,1.272-21.738,5.37l-.748-4.357.01-12.995.295-19.717-9.113,2.746.238,15.21ZM45.99,45.48l15.945.034c2.627.006,5.562.213,8.213.365-.032.678-.149,2.678-.895,2.928s-2.34.533-3.126.536l-12.024.05-13.99-.016c-3.595-.004-7.9-.599-11.705.219-13.227,2.84-14.569,19.135-13.998,29.298.269,4.788.496,9.674,2.703,13.987.635,4.305,3.602,8.081,7.619,9.722,4.316,1.763,10.074,1.661,14.834,1.104l.586-17.558c1.783-2.383,4.767-5.547,6.039-8.165,3.61-1.471,7.805-3.425,11.696-3.407l10.089.047c5.734.027,11.828.536,17.987-.047,7.219-.684,11.721-7.755,11.545-14.475l-.519-19.887c-.097-3.7.6-6.983-1.173-10.312-1.385-2.6-2.997-5.077-5.916-5.874-2.598-2.339-6.349-2.393-9.924-3.018-5.299-.927-10.686-.878-16.081-.475-5.875.438-20.584,1.226-20.688,11.281l-.141,13.638,2.924.026ZM480.775,31.351l2.389-1.271-9.276.12,3.958,1.492.687,10.163c3.401-.85-.204-9.202,2.243-10.504ZM492.317,36.095l2.209,5.342c.681-5.018.807-7.482-.432-12.77l-4.358,8.608c-1.454-3.266-2.352-5.436-4.09-8.095-1.527,4.88-1.685,7.766-.267,12.218l1.01-7.438,3.135,8.008,2.793-5.873ZM277.079,46.955c-.282,1.421-3.17,1.947-5.098,2.082-1.063.075-1.627,3.447-1.185,4.463.515,1.187,2.924,1.045,5.893,1.195l.475,13.262-.016,17c-.004,4.606-.84,9.509,2.61,13.653,4.548,5.462,15.679,6.125,16.454,3.934,2.438-6.893-9.408-.904-10.127-11.633-.106-1.585-.411-3.885-.413-5.827l-.021-17.155.445-13.129,9.942-.397-.004-4.786c-.002-2.257-10.16,1.135-10.365-2.722l.455-16.243-9.284,3.249.239,13.054ZM159.346,64.123c-.596,5.247.005,10.726.003,16.806l-.008,25.194-.444,21.772,8.972,2.788-.278-23.652c-.022-1.902.298-4.485.611-7.449,8.308,4.466,17.275,6.36,25.46,1.96,7.948-4.273,11.049-12.592,11.722-21.299.489-6.33.18-11.89-2.514-18.333-2.347-5.613-5.029-11.574-12.319-13.373-10.589-2.613-22.313.132-30.905,7.028l-.299,8.558ZM215.677,75.84c.059,5.049-.77,10.725.448,16.111,1.541,6.812,8.362,10.963,14.91,11.733,7.621.896,14.246-2.429,21.227-2.778.177,7.343.167,18.294-9.144,21.157-4.571,1.405-7.959,2.023-13.211,3.139l1.63,5.412c9.237-.457,19.107-2.583,25.008-10.175,4.15-5.339,4.01-12.5,4.027-18.604l.042-14.682.042-14.299.395-23.922-9.296-.003.256,23.03-.005,13-.335,7.852c-4.916,3.354-10.688,5.323-16.618,4.462-6.587-.957-10.34-5.854-10.482-12.248l-.203-9.116.254-28.158-9.242,2.81.297,25.28ZM363.22,60.05c-4.549,5.051-4.165,12.311-3.745,18.761.534,8.193,3.671,16.53,11.319,21.457,7.574,4.879,18.065,4.987,25.718.101,7.161-4.572,11.542-12.605,11.496-21.519,1.224-5.73.877-12.605-3.058-17.816-2.832-8.803-12.308-13.778-21.945-13.531-8.59.221-16.163,4.568-19.784,12.546ZM416.95,64.058l-.005,16.003-.332,22.465,9.225.177-.242-21.671-.039-16.152c-.005-1.93.2-4.223.355-7.049,5.778-4.525,14.558-6.276,20.949-1.697,4.498,3.223,4.631,9.101,4.591,14.869l-.221,31.607,9.157.086-.325-31.699c-.04-3.905.765-8.614-.178-12.821-1.251-5.582-6.733-9.04-12.065-10.035-11.102-2.071-21.783,1.449-30.782,8.025l-.088,7.892ZM100.457,64.982c-2.381,9.265-11.349,13.878-20.483,13.483-8.132-.352-16.283-.406-25.026-.054-5.774.232-11.173,5.869-11.645,11.5-.452,5.39.074,10.314.07,15.09l-.008,10.005c-.002,2.873-.513,5.953,1.591,7.95,1.055,3.464,4.407,5.823,7.9,6.937l6.115,1.95c14.674,4.679,38.004-1.39,38.21-11.955l.242-12.402-9.345.05-9.856.05c-2.417.012-5.78-.422-8.178-.619.085-.698.178-2.5.899-2.646l3.18-.645c4.921.302,9.863.111,14.787-.037,2.474-.074,5.499-.004,7.99.034l16.333.252c7.62.117,12.178-14.011,12.706-20.874l.467-6.073c.261-3.388-.696-6.655-1.378-9.895l-1.307-6.21c-.582-2.767-2.323-5.828-4.115-7.493-1.249-1.16-3.459-4.11-5.443-4.132l-13.294-.146c-.196,5.75.226,10.972-.413,15.882ZM52.958,142.885l-4.751.194c-.773-2.513-28.901,1.56-27.062,7.246.271.837,1.864,2.607,2.932,2.838l15.557,3.369c2.6.563,5.145.631,7.366-.532l4.824.265c2.192,2.624,6.723,1.902,10.244.467l10.845.01c2.877.003,7.681,3.418,10.252-.478l4.835-.265c1.243.828,3.736,1.263,5.686.845l17.384-3.723c.888-.19,2.494-1.981,2.841-2.808,2.245-5.366-25.575-9.85-27.207-7.201l-4.659-.236c-.151-.484-2.088-1.73-2.912-1.728l-22.949.067c-.916.003-3.06.81-3.225,1.668Z" fill="#fefefe"/>
  <path d="M88,156v-1h2c3.75,0,14.587-1.895,15.205-5.51.57-3.335-12.526-5.363-15.205-5.49-.785-.037-2.275.025-3.15.052l-.147-.94c1.633-2.648,29.452,1.835,27.207,7.201-.346.827-1.952,2.618-2.841,2.808l-17.384,3.723c-1.951.418-4.443-.018-5.686-.845Z" fill="#f3f3f3"/>
  <path d="M48.207,143.079l-.339,1.241c-.769-.106-2.148-.356-2.869-.32-2.726.134-14.897,1.886-15.177,5.535-.251,3.267,11.429,5.465,15.177,5.465h2v1c-2.221,1.163-4.766,1.095-7.366.532l-15.557-3.369c-1.068-.231-2.661-2.001-2.932-2.838-1.839-5.686,26.29-9.759,27.062-7.246Z" fill="#f3f3f3"/>
  <path d="M82.045,142.877l-.121.942-3.094.278-4.013.202-14.612.003-4.034-.205-3.094-.278-.118-.934c.166-.858,2.31-1.665,3.225-1.668l22.949-.067c.824-.002,2.761,1.243,2.912,1.728Z" fill="#f3f3f3"/>
  <path d="M492.317,36.095l-2.793,5.873-3.135-8.008-1.01,7.438c-1.417-4.452-1.26-7.338.267-12.218,1.738,2.659,2.636,4.829,4.09,8.095l4.358-8.608c1.24,5.288,1.113,7.753.432,12.77l-2.209-5.342Z" fill="#efefef"/>
  <path d="M75.885,154.05l3.942.853,3.173.097c0,.314.119.901.165,1.265-2.571,3.896-7.375.48-10.252.478l.124-2.696,2.847.003Z" fill="#f3f3f3"/>
  <polygon points="73.037 154.047 72.913 156.743 62.068 156.732 61.959 154.043 73.037 154.047" fill="#e6e6e6"/>
  <path d="M61.959,154.043l.11,2.689c-3.522,1.434-8.052,2.157-10.244-.467l.176-1.265,3.173-.1,3.903-.845,2.883-.012Z" fill="#f3f3f3"/>
  <path d="M480.775,31.351c-2.447,1.302,1.158,9.653-2.243,10.504l-.687-10.163-3.958-1.492,9.276-.12-2.389,1.271Z" fill="#efefef"/>
  <path d="M86.703,143.113l.147.94-.806,1.906-3.142.142c-.191.009-.593-.098-.787-.123l-.192-2.157.121-.942,4.659.236Z" fill="#e6e6e6"/>
  <path d="M52.958,142.885l.118.934-.186,2.157c-.197.029-.596.129-.787.123l-3.15-.087-1.084-1.693.339-1.241,4.751-.194Z" fill="#e6e6e6"/>
  <path d="M52,154c0,.312.036.743,0,1l-.176,1.265-4.824-.265v-1c0-.388.611-1,1-1h4Z" fill="#e6e6e6"/>
  <path d="M87,154c.389,0,1,.612,1,1v1l-4.835.265c-.047-.364-.165-.951-.165-1.265v-1h4Z" fill="#e6e6e6"/>
  <path d="M194.01,62.801c.797,6.42,1.695,12.478,1.383,18.102-.333,6.012-3.12,12.319-7.621,14.889-6.667,3.807-14.785.8-19.948-3.416l-.315-10.525.029-16.029c.005-2.788.256-5.097.426-8.06,5.383-3.347,12.192-5.611,18.829-3.175,3.351,1.23,5.554,5.294,7.217,8.214Z" fill="#fefefe"/>
  <path d="M396.113,60.966c1.742,6.147,2.988,12.174,2.856,17.997-.06,2.648-1.426,6.498-2.041,8.811-1.701,6.401-6.674,10.119-12.455,10.346-12.184.48-15.848-14.859-15.717-19.299.169-5.733.071-12.089,1.651-16.803s8.31-7.718,12.158-8.158c5.559-.635,10.407,2.979,13.548,7.105Z" fill="#fefefe"/>
  <g>
    <g>
      <path d="M224.367,75.908l.203,9.116c.142,6.394,3.895,11.291,10.482,12.248,5.93.861,11.702-1.108,16.618-4.462l.335-7.852c2.946-.573,5.742.766,8.609,2.194l-.042,14.682c-2.622-.659-5.605-1.064-8.31-.929-6.981.349-13.606,3.675-21.227,2.778-6.548-.77-13.369-4.921-14.91-11.733-1.218-5.386-.389-11.062-.448-16.111l8.69.068Z" fill="#dbdbdb"/>
      <path d="M368.756,78.822c-.131,4.44,3.533,19.779,15.717,19.299,5.781-.228,10.754-3.945,12.455-10.346.615-2.313,1.98-6.163,2.041-8.811l9.039-.113c.046,8.914-4.335,16.947-11.496,21.519-7.653,4.886-18.144,4.778-25.718-.101-7.649-4.927-10.786-13.264-11.319-21.457,3.16-.588,6.308-.831,9.281.011Z" fill="#dbdbdb"/>
      <path d="M460.063,70.997l-8.612.005c.04-5.768-.093-11.647-4.591-14.869-6.391-4.579-15.171-2.828-20.949,1.697-.155,2.826-.36,5.119-.355,7.049-2.728-.709-5.683-.883-8.606-.822l.088-7.892c8.999-6.576,19.68-10.096,30.782-8.025,5.332.995,10.814,4.454,12.065,10.035.943,4.208.138,8.917.178,12.821Z" fill="#e6e6e6"/>
      <path d="M315.541,49.816l.748,4.357c6.676-4.098,13.776-6.61,21.738-5.37,7.411,1.155,11.966,7.393,12.386,14.057-2.91-.304-6.005-.109-8.609.971-.516-2.775-4.35-7.49-6.954-8.408-6.413-2.26-19.3,3.432-19.306,8.547-2.663-1.404-5.566-2.106-8.549-2.005l-.026-13.906c3.03-.203,5.898.327,8.572,1.756Z" fill="#e6e6e6"/>
      <path d="M260.572,101.835c-.017,6.105.123,13.265-4.027,18.604-5.901,7.591-15.771,9.718-25.008,10.175l-1.63-5.412c5.253-1.116,8.64-1.734,13.211-3.139,9.311-2.863,9.321-13.814,9.144-21.157,2.704-.135,5.688.27,8.31.929Z" fill="#d2d2d2"/>
      <path d="M404.95,61.034c-2.859-1.348-6.034-1.485-8.837-.068-3.141-4.126-7.988-7.74-13.548-7.105-3.849.439-10.58,3.449-12.158,8.158l-7.186-1.969c3.621-7.979,11.194-12.326,19.784-12.546,9.638-.248,19.113,4.728,21.945,13.531Z" fill="#e6e6e6"/>
      <polygon points="460.063 70.997 460.388 102.696 451.231 102.61 451.451 71.003 460.063 70.997" fill="#dbdbdb"/>
      <path d="M285.669,46.895c.206,3.857,10.364.465,10.365,2.722l.004,4.786-9.942.397-.445,13.129-8.488.029-.475-13.262c-2.969-.15-5.378-.008-5.893-1.195-.442-1.016.122-4.388,1.185-4.463,1.928-.136,4.817-.662,5.098-2.082l8.591-.06Z" fill="#e6e6e6"/>
      <polygon points="224.367 75.908 215.677 75.84 215.38 50.56 224.622 47.75 224.367 75.908" fill="#e5e5e5"/>
      <path d="M315.528,78.853l.363,23.809-9.174-.003.276-24.704c2.854.145,5.724.437,8.535.898Z" fill="#dbdbdb"/>
      <path d="M260.656,72.853c-2.791-.565-5.738-.823-8.646-.895l-.256-23.03,9.296.003-.395,23.922Z" fill="#e5e5e5"/>
      <path d="M350.596,81.031l.245,21.668-9.219-.172.323-22.467c2.892.118,5.773.454,8.651.971Z" fill="#dbdbdb"/>
      <path d="M425.596,81.031l.242,21.671-9.225-.177.332-22.465c2.892.118,5.773.454,8.651.971Z" fill="#dbdbdb"/>
      <path d="M285.672,85.084c.002,1.942.307,4.241.413,5.827.719,10.73,12.564,4.74,10.127,11.633-.775,2.191-11.906,1.529-16.454-3.934-3.45-4.144-2.615-9.046-2.61-13.653l8.525.126Z" fill="#dbdbdb"/>
      <path d="M404.95,61.034c3.935,5.211,4.282,12.087,3.058,17.816l-9.039.113c.133-5.823-1.113-11.85-2.856-17.997,2.804-1.417,5.979-1.28,8.837.068Z" fill="#e1e1e1"/>
      <path d="M370.407,62.018c-1.58,4.714-1.482,11.07-1.651,16.803-2.972-.841-6.121-.598-9.281-.011-.42-6.45-.804-13.711,3.745-18.761l7.186,1.969Z" fill="#e1e1e1"/>
      <path d="M350.412,62.861c.379,6.028.115,12.126.184,18.171-2.878-.517-5.759-.853-8.651-.971l-.142-16.228c2.604-1.08,5.699-1.275,8.609-.971Z" fill="#e1e1e1"/>
      <path d="M315.551,36.822c-2.656-1.447-5.544-1.962-8.58-1.761l-.238-15.21,9.113-2.746-.295,19.717Z" fill="#efefef"/>
      <polygon points="285.651 67.929 285.672 85.084 277.147 84.958 277.163 67.958 285.651 67.929" fill="#dedede"/>
      <g>
        <path d="M205.383,80.244c-.673,8.706-3.773,17.026-11.722,21.299-8.185,4.4-17.153,2.506-25.46-1.96-.313,2.964-.633,5.547-.611,7.449-2.749-.506-5.502-.835-8.249-.908l.008-25.194,8.16.921.315,10.525c5.163,4.216,13.281,7.223,19.948,3.416,4.501-2.57,7.289-8.876,7.621-14.889,3.345-.657,6.634-.934,9.99-.659Z" fill="#dbdbdb"/>
        <path d="M202.869,61.911c-2.993.04-6.112.231-8.858.89-1.663-2.92-3.866-6.984-7.217-8.214-6.638-2.436-13.447-.172-18.829,3.175-.171,2.963-.421,5.272-.426,8.06-2.675-1.002-5.421-1.665-8.192-1.698l.299-8.558c8.592-6.896,20.316-9.641,30.905-7.028,7.289,1.799,9.971,7.76,12.319,13.373Z" fill="#e6e6e6"/>
        <path d="M167.591,107.031l.278,23.652-8.972-2.788.444-21.772c2.747.073,5.5.402,8.249.908Z" fill="#d2d2d2"/>
        <path d="M202.869,61.911c2.694,6.443,3.004,12.004,2.514,18.333-3.356-.276-6.644.002-9.99.659.311-5.624-.586-11.682-1.383-18.102,2.747-.658,5.865-.85,8.858-.89Z" fill="#e1e1e1"/>
        <path d="M167.538,65.822l-.029,16.029-8.16-.921c.002-6.08-.599-11.559-.003-16.806,2.77.033,5.516.696,8.192,1.698Z" fill="#e1e1e1"/>
      </g>
      <path d="M425.556,64.879l.039,16.152c-2.878-.517-5.759-.853-8.651-.971l.005-16.003c2.923-.062,5.878.112,8.606.822Z" fill="#e1e1e1"/>
      <path d="M315.543,63.971l-.016,14.882c-2.812-.461-5.681-.752-8.535-.898l.003-15.99c2.982-.101,5.886.601,8.549,2.005Z" fill="#e1e1e1"/>
      <polygon points="285.669 46.895 277.079 46.955 276.839 33.901 286.124 30.652 285.669 46.895" fill="#eaeaea"/>
      <path d="M260.656,72.853l-.042,14.299c-2.867-1.428-5.663-2.768-8.609-2.194l.005-13c2.907.072,5.855.33,8.646.895Z" fill="#dedede"/>
      <path d="M315.551,36.822l-.01,12.995c-2.674-1.429-5.542-1.959-8.572-1.756l.003-13c3.036-.2,5.925.314,8.58,1.761Z" fill="#eaeaea"/>
    </g>
    <g>
      <g>
        <path d="M123.722,60.871c-1.053.24-2.984.913-4.197,1.767l-71.536,50.335c-1.476,1.038-3.269,1.727-4.624,2.032l.008-10.005c1.352-.321,3.258-1.102,4.61-2.053l25.284-17.776c2.797-1.967,5.316-3.988,6.707-6.707,9.134.396,18.102-4.218,20.483-13.483,1.59-.265,3.859-1.086,5.371-2.126l13.779-9.478c1.793,1.665,3.533,4.726,4.115,7.493Z" fill="#fee367"/>
        <path d="M123.722,60.871l1.307,6.21c-2.618,1.317-5.301,2.89-8.016,4.8l-40.075,28.176c-1.23.865-2.389,2.476-2.814,3.618l-3.18.645c-.721.146-.814,1.949-.899,2.646-7.251,2.142-17.452,12.55-25.089,15.99-2.103-1.997-1.593-5.077-1.591-7.95,1.354-.305,3.148-.994,4.624-2.032l71.536-50.335c1.214-.854,3.144-1.527,4.197-1.767Z" fill="#fedf5c"/>
        <path d="M79.974,78.465c-1.391,2.719-3.909,4.74-6.707,6.707l-25.284,17.776c-1.353.951-3.259,1.732-4.61,2.053.004-4.776-.522-9.699-.07-15.09.472-5.63,5.871-11.267,11.645-11.5,8.743-.352,16.894-.298,25.026.054Z" fill="#fee773"/>
        <path d="M126.407,76.976c-1.449.342-3.795,1.17-5.19,2.154l-29.386,20.719c-1.255.885-2.509,2.594-2.92,3.789-4.924.148-9.866.339-14.787.037.425-1.142,1.584-2.753,2.814-3.618l40.075-28.176c2.716-1.909,5.398-3.483,8.016-4.8.682,3.24,1.639,6.507,1.378,9.895Z" fill="#fedb53"/>
        <path d="M58.971,131.843c.392-1.14,1.701-2.967,2.806-3.757l10.763-7.691c2.288-1.635,6.171-3.889,8.48-4.381-.605,2.063-.651,5.303.618,6.864,1.411,1.735,4.912,2.076,6.725.865s2.728-4.5,1.761-6.587c-.854-1.842-3.856-2.972-6.031-3.06.187-3.651,4.314-2.885,3.984-6.559l9.345-.05-.242,12.402c-.206,10.565-23.536,16.635-38.21,11.955Z" fill="#fed43f"/>
        <path d="M125.94,83.05c-.528,6.863-5.086,20.991-12.706,20.874l-16.333-.252c.421-1,1.553-2.258,2.709-3.066l20.597-14.406c1.832-1.281,3.983-2.418,5.734-3.149Z" fill="#fed43f"/>
        <path d="M70.045,106.966c2.398.197,5.761.632,8.178.619-.209,1.253-1.395,3.163-2.579,3.989l-20.2,14.093c-1.506,1.05-2.582,2.612-2.588,4.225-3.493-1.114-6.845-3.473-7.9-6.937,7.637-3.44,17.838-13.848,25.089-15.99Z" fill="#fedb53"/>
        <path d="M88.079,107.535c.33,3.674-3.797,2.908-3.984,6.559-.765.584-2.182,1.729-3.073,1.919-2.309.492-6.193,2.747-8.48,4.381l-10.763,7.691c-1.105.79-2.415,2.616-2.806,3.757l-6.115-1.95c.006-1.613,1.083-3.174,2.588-4.225l20.2-14.093c1.184-.826,2.37-2.736,2.579-3.989l9.856-.05Z" fill="#fed848"/>
        <path d="M126.407,76.976l-.467,6.073c-1.751.731-3.902,1.868-5.734,3.149l-20.597,14.406c-1.155.808-2.288,2.066-2.709,3.066-2.49-.038-5.515-.109-7.99-.034.411-1.195,1.665-2.904,2.92-3.789l29.386-20.719c1.395-.984,3.741-1.811,5.19-2.154Z" fill="#fed848"/>
        <path d="M119.606,53.378l-13.779,9.478c-1.511,1.04-3.781,1.861-5.371,2.126.639-4.91.217-10.132.413-15.882l13.294.146c1.984.022,4.194,2.972,5.443,4.132Z" fill="#fee773"/>
        <path d="M81.021,116.013c.891-.19,2.309-1.334,3.073-1.919,2.175.089,5.177,1.218,6.031,3.06.967,2.087.054,5.375-1.761,6.587s-5.314.87-6.725-.865c-1.269-1.56-1.223-4.801-.618-6.864Z" fill="#fefaee"/>
      </g>
      <g>
        <path d="M66.126,49.344c-.087,2.449-1.272,4.634-3.059,6.637l-12.782,14.332c-2.194,2.46-2.861,5.135-4.093,7.671-1.272,2.618-4.256,5.782-6.039,8.165-1.647.714-3.511,2.185-4.986,3.919l-7.411,8.712c-1.144,1.345-2.239,2.713-3.024,3.823-4.017-1.641-6.985-5.417-7.619-9.722,3.726-3.307,7.084-7.103,10.59-11.165l19.424-22.504c2.779-3.22,5.923-6.098,6.975-9.819l12.024-.05Z" fill="#3e7aab"/>
        <path d="M67.976,74.625c.131-1.689,1.015-3.829,2.289-5.295l19.587-22.531c2.185-2.514,4.747-4.778,7.136-6.584l.519,19.887c.175,6.72-4.326,13.791-11.545,14.475-6.159.584-12.253.074-17.987.047Z" fill="#336b9a"/>
        <path d="M54.102,49.394c-1.052,3.721-4.196,6.599-6.975,9.819l-19.424,22.504c-3.507,4.063-6.864,7.859-10.59,11.165-2.208-4.313-2.435-9.199-2.703-13.987,1.509-.361,3.387-1.422,4.505-2.713l15.018-17.324c2.617-3.018,5.393-5.938,6.18-9.48l13.99.016Z" fill="#4381b2"/>
        <path d="M95.816,29.903c-2.995,1.147-4.87,4.045-7.193,6.736l-6.035,6.991-6.47,7.488-6.504,7.52-6.478,7.489c-2.402,2.777-4.757,5.032-5.249,8.451-3.89-.018-8.085,1.936-11.696,3.407,1.232-2.535,1.9-5.211,4.093-7.671l12.782-14.332c1.787-2.003,2.972-4.188,3.059-6.637.786-.003,2.381-.287,3.126-.536s.863-2.25.895-2.928l19.753-21.85c2.919.797,4.531,3.274,5.916,5.874Z" fill="#3a75a5"/>
        <path d="M95.816,29.903c1.774,3.33,1.077,6.613,1.173,10.312-2.389,1.806-4.951,4.07-7.136,6.584l-19.587,22.531c-1.274,1.465-2.158,3.605-2.289,5.295l-10.089-.047c.492-3.419,2.846-5.674,5.249-8.451l6.478-7.489,6.504-7.52,6.47-7.488,6.035-6.991c2.323-2.69,4.198-5.589,7.193-6.736Z" fill="#3670a0"/>
        <path d="M40.113,49.378c-.786,3.543-3.563,6.462-6.18,9.48l-15.018,17.324c-1.119,1.29-2.997,2.351-4.505,2.713-.57-10.164.771-26.458,13.998-29.298,3.805-.817,8.11-.223,11.705-.219Z" fill="#4c8abc"/>
        <path d="M79.976,21.01c-1.044,3.035-3.201,5.732-5.567,8.392l-6.61,7.434-3.68,4.458c-.999,1.21-1.88,2.931-2.185,4.22l-15.945-.034c.444-3.016,2.912-6.852,6-7.373,2.034.462,5.588.646,6.735-.897,1.571-2.111,1.172-5.242.275-7.416.798-4.138,5.024-5.684,4.895-9.26,5.396-.402,10.782-.452,16.081.475Z" fill="#4683b3"/>
        <path d="M89.9,24.029l-19.753,21.85c-2.651-.152-5.586-.359-8.213-.365.305-1.289,1.186-3.01,2.185-4.22l3.68-4.458,6.61-7.434c2.366-2.66,4.523-5.357,5.567-8.392,3.575.625,7.326.68,9.924,3.018Z" fill="#3e7aab"/>
        <path d="M63.895,20.535c.129,3.576-4.097,5.122-4.895,9.26-2.385-1.449-6.05-1.645-7.628.106-2.411,2.676-1.388,6.065.618,8.207-3.088.52-5.556,4.357-6,7.373l-2.924-.026.141-13.638c.104-10.055,14.813-10.843,20.688-11.281Z" fill="#518ebd"/>
        <path d="M40.152,86.15l-.586,17.558c-4.76.557-10.518.659-14.834-1.104.784-1.11,1.88-2.478,3.024-3.823l7.411-8.712c1.475-1.734,3.338-3.205,4.986-3.919Z" fill="#3a75a5"/>
        <path d="M59,29.795c.897,2.174,1.296,5.304-.275,7.416-1.148,1.543-4.701,1.358-6.735.897-2.006-2.142-3.029-5.53-.618-8.207,1.578-1.751,5.243-1.555,7.628-.106Z" fill="#f5f8fb"/>
      </g>
    </g>
  </g>
  <path d="M90,155c-.788-3.366,4.839-1.11,7.928-4.638,2.252-2.572-9.013-4.32-7.928-6.362,2.679.128,15.776,2.155,15.205,5.49-.618,3.615-11.455,5.51-15.205,5.51Z" fill="#e6e6e6"/>
  <path d="M90,144c-1.085,2.042,10.181,3.79,7.928,6.362-3.089,3.528-8.716,1.272-7.928,4.638h-2c0-.388-.611-1-1-1-.356-3.155,3.673-1.991,4.139-4.477.102-.545-1.079-1.682-1.582-1.918l-3.512-1.646.806-1.906c.874-.027,2.364-.09,3.15-.052Z" fill="#dbdbdb"/>
  <path d="M45,144c-1.165,3.761-5.083,1.351-7.964,5.639-1.84,2.739,10.101,2.79,7.964,5.361-3.748,0-15.428-2.197-15.177-5.465.28-3.649,12.451-5.401,15.177-5.535Z" fill="#e6e6e6"/>
  <path d="M47.869,144.32l1.084,1.693-3.402,1.651c-.529.257-1.447,1.377-1.718,1.859-.879,1.558,4.96,1.826,4.168,4.478-.389,0-1,.612-1,1h-2c2.137-2.571-9.804-2.622-7.964-5.361,2.881-4.288,6.799-1.878,7.964-5.639.721-.036,2.099.214,2.869.32Z" fill="#dbdbdb"/>
  <path d="M74.816,144.299l.249,2.451c-4.598,1.643-10.578,1.727-15.126-.024l.265-2.425,14.612-.003Z" fill="#c3c3c3"/>
  <polygon points="78.829 144.097 78.995 146.121 77.974 147.016 75.066 146.751 74.816 144.299 78.829 144.097" fill="#cfcfcf"/>
  <path d="M60.205,144.302l-.265,2.425-2.903.336c-.378.044-1.065-.516-1.034-.895l.168-2.071,4.034.205Z" fill="#cfcfcf"/>
  <polygon points="81.924 143.819 82.115 145.976 78.995 146.121 78.829 144.097 81.924 143.819" fill="#dbdbdb"/>
  <polygon points="56.171 144.097 56.003 146.168 52.89 145.976 53.076 143.819 56.171 144.097" fill="#dbdbdb"/>
  <polygon points="77.984 151.958 80.005 152.879 79.827 154.903 75.885 154.05 76.108 152.136 77.984 151.958" fill="#cfcfcf"/>
  <path d="M76.108,152.136l-.223,1.913-2.847-.003c.03-.661-.216-2.517.436-2.397l2.635.486Z" fill="#c3c3c3"/>
  <polygon points="83 153 83 155 79.827 154.903 80.005 152.879 83 153" fill="#dbdbdb"/>
  <path d="M59.94,146.727c4.548,1.751,10.528,1.667,15.126.024l2.908.265.01,4.942-1.877.178-2.635-.486c-.651-.12-.405,1.735-.436,2.397l-11.079-.004c-.029-.7-.246-2.035-.384-2.735-.135-.687-2.496.632-2.682.823l-1.89-.165.034-4.903,2.903-.336Z" fill="#b9b9b9"/>
  <polygon points="57.003 151.966 58.892 152.131 59.076 154.055 55.173 154.9 54.995 152.892 57.003 151.966" fill="#cfcfcf"/>
  <path d="M61.959,154.043l-2.883.012-.184-1.924c.186-.191,2.547-1.51,2.682-.823.138.7.356,2.035.384,2.735Z" fill="#c3c3c3"/>
  <path d="M54.995,152.892l.178,2.008-3.173.1c.036-.257,0-.688,0-1v-1l2.995-.108Z" fill="#dbdbdb"/>
  <path d="M86.045,145.958l3.512,1.646c.503.236,1.684,1.373,1.582,1.918-.467,2.487-4.495,1.322-4.139,4.477h-4v-1c.849-2.216.726-4.616-.097-6.9l3.142-.142Z" fill="#cfcfcf"/>
  <path d="M82.115,145.976c.195.025.597.132.787.123.823,2.284.946,4.684.097,6.9l-2.995-.121-2.021-.921-.01-4.942,1.021-.895,3.121-.144Z" fill="#c3c3c3"/>
  <path d="M52.102,146.1c-.78,2.291-.908,4.686-.102,6.9v1h-4c.792-2.652-5.047-2.92-4.168-4.478.272-.481,1.189-1.602,1.718-1.859l3.402-1.651,3.15.087Z" fill="#cfcfcf"/>
  <path d="M56.003,146.168c-.031.379.656.939,1.034.895l-.034,4.903-2.008.927-2.995.108c-.806-2.214-.677-4.609.102-6.9.191.005.59-.095.787-.123l3.113.192Z" fill="#c3c3c3"/>
</svg>