<?xml version="1.0" encoding="utf-8"?>
<!-- Generator: Adobe Illustrator 27.9.3, SVG Export Plug-In . SVG Version: 9.03 Build 53313)  -->
<svg version="1.1" id="Layer_1" xmlns="http://www.w3.org/2000/svg" xmlns:xlink="http://www.w3.org/1999/xlink" x="0px" y="0px"
	 viewBox="0 0 648 576" style="enable-background:new 0 0 648 576;" xml:space="preserve">
<style type="text/css">
	.st0{fill:#452392;}
	.st1{fill:#99C941;}
	.st2{fill:#A43A8F;}
</style>
<g>
	<path class="st0" d="M115.9,478.3c0.2-0.3,0.4-0.5,0.6-0.8c6.8-8.7,10.9-19.9,10.9-32c0-2.8-0.3-5.3-0.7-7.7
		c-1-6.8-3.2-13.1-6.5-18.8c0.1,0.1,0.2,0.3,0.4,0.4c-8.1-14.4-22.7-24.2-39.4-24.6c-0.1,0-0.2,0-0.2,0c-0.2,0-0.5,0-0.8,0
		c0,0-0.1,0-0.1,0s-0.1,0-0.1,0c-0.2,0-0.5,0-0.8,0c-0.1,0-0.2,0-0.2,0c-16.7,0.4-31.3,10.2-39.4,24.6c0.1-0.1,0.2-0.3,0.4-0.4
		c-3.5,6-5.8,12.8-6.6,20.1c-0.3,2.1-0.5,4.3-0.5,6.6C32.9,473.3,54.1,496,80,496c14.3,0,27.1-6.9,35.8-17.6
		C115.8,478.4,115.8,478.3,115.9,478.3L115.9,478.3z M74.9,401.5c0.2,0,0.4-0.1,0.7-0.1c0.2,0,0.5-0.1,0.7-0.1
		c0.4-0.1,0.8-0.1,1.2-0.1c0.2,0,0.4,0,0.6-0.1c0.2,0,0.5,0,0.8,0c0.3,0,0.5,0,0.8,0c0.2,0,0.3,0,0.5,0s0.3,0,0.5,0
		c0.3,0,0.5,0,0.8,0c0.2,0,0.5,0,0.8,0c0.2,0,0.4,0,0.6,0.1c0.4,0,0.8,0.1,1.2,0.1c0.2,0,0.5,0.1,0.7,0.1c0.2,0,0.4,0.1,0.7,0.1
		c0.2,0,0.5,0.1,0.8,0.1c20,3.7,27.8,25.8,27.8,43.8c0,10.7-2.7,22.8-9.1,31.6c0,0,0,0,0,0c-0.2,0.3-0.4,0.5-0.6,0.8
		c-5.4,6.9-13.2,11.6-23.9,11.6c-1.6,0-3.2-0.1-4.8-0.3c-1.1-0.1-2.2-0.2-3.2-0.4c-3.5-0.9-6.6-2.3-9.3-4.2c0.1,0,0.2,0.1,0.2,0.1
		c-11.9-8.2-16.8-24.9-16.8-39.2c0-18,7.8-40.1,27.8-43.8C74.5,401.6,74.7,401.5,74.9,401.5L74.9,401.5z"/>
	<path class="st0" d="M203,492.2c0,0.8-0.8,1.2-2.3,1.2h-14.8c-1.1,0-1.8-0.5-2.3-1.6l-2.3-5.1c-0.5-1-1-1-1.5-0.1
		c-4.2,5.6-10.3,8.3-18.3,8.3c-6.2,0-11.2-2-15-6.1c-3.8-4-5.6-9.8-5.6-17.2v-29.4c0-3.5-1.6-5.7-4.8-6.6l-3.1-0.9
		c-1.6-0.5-2.3-1-2.3-1.6c0-0.8,0.8-1.2,2.3-1.2h20.2c1.3,0,1.9,0.3,1.9,1c0,0.1-0.6,0.8-1.8,2c-1.2,1.2-1.8,4.1-1.8,8.7v30.3
		c0,8.8,4.5,13.2,13.6,13.2c3.4,0,6.8-1,10.2-3.1c3.8-2.3,5.7-5.1,5.7-8.3v-33.5c0-3.5-1.6-5.7-4.8-6.6l-3.1-0.9
		c-1.6-0.5-2.3-1-2.3-1.6c0-0.8,0.8-1.2,2.3-1.2h17.1c1.4,0,2,0.6,1.9,1.8l-0.6,9.6v39.9c0,3.6,1.7,5.8,5,6.4l4.1,0.9
		C202.1,491,203,491.5,203,492.2L203,492.2z"/>
	<path class="st0" d="M263.7,492.2c0,0.8-0.8,1.2-2.3,1.2h-14.5c-1.1,0-1.9-0.5-2.5-1.6l-1.2-2c-0.4-0.7-0.9-1-1.5-1
		s-1.2,0.2-1.9,0.7c-5.2,3.6-11.3,5.4-18.3,5.4c-5.3,0-9.5-1.3-12.7-4c-3.5-2.9-5.3-6.9-5.3-11.9c0-7,3.4-12,10.1-14.9
		c2-0.9,5.3-1.8,9.7-2.8c5.5-1.3,9-2.1,10.7-2.6c5.2-1.6,7.8-4,7.8-7.5v-5.7c0-3.2-1.6-5.7-4.7-7.5c-2.5-1.4-5.4-2-8.6-2
		c-5.4,0-9.3,1.2-11.9,3.5c-2.6,2.3-4.5,6.3-5.6,11.9c-0.2,0.5-0.5,0.7-1,0.7c-0.6,0-0.9-0.3-0.9-0.9l-0.2-17.6
		c0-0.9,0.5-1.4,1.5-1.5c1.6-0.1,4.6-0.4,9.2-1c3.8-0.5,6.9-0.7,9.2-0.7c7.8,0,13.5,1.5,17.3,4.5c4.2,3.5,6.3,9.3,6.3,17.3v30.9
		c0,3.8,1.6,6,4.7,6.6l4.4,0.9C262.9,490.9,263.7,491.5,263.7,492.2L263.7,492.2z M241.7,478.2v-14.5c0-1.3-0.5-1.7-1.6-1.2
		l-19.2,5.6c-4.8,1.4-7.2,4.2-7.2,8.5c0,8.5,3.8,12.7,11.4,12.7c4.6,0,8.5-1,11.7-3.1C240.1,484.1,241.7,481.4,241.7,478.2
		L241.7,478.2z"/>
	<path class="st0" d="M386.9,476.3c0,12.4-7.6,18.6-22.7,18.6c-6.6,0-13.5-1-20.6-2.9c-1.3-0.4-2-1.8-2.3-4.2c0-1.8,0-3.6-0.2-5.5
		c-0.1-1.9-0.3-4.5-0.7-7.7c-0.2-1.2,0.2-1.8,1-1.8s1.4,0.5,1.6,1.6c2,5.9,4.9,9.9,8.6,12c3.2,2,8,2.9,14.3,2.9c3,0,5.8-0.8,8.2-2.3
		c2.8-1.9,4.2-4.2,4.2-7.2c0-4.2-3.2-7.6-9.5-10.4c-5.8-2.4-11.5-4.9-17.4-7.5c-6.3-3.5-9.5-8.2-9.5-14.2c0-11.5,6.8-17.3,20.3-17.3
		c4.8,0,11.4,0.6,19.9,1.8c1,0.1,1.5,0.6,1.5,1.5l0.3,14.5c0,1.2-0.3,1.8-0.9,1.8c-0.5,0-0.9-0.4-1.2-1.3c-1.8-5.3-4.2-8.8-7.3-10.5
		c-2.7-1.6-7.1-2.3-13.2-2.3c-7.6,0-11.4,2.9-11.4,8.8c0,3.3,3.2,6.3,9.5,9.1c11.2,4.8,17.2,7.4,17.8,7.8
		C383.7,465.2,386.9,470.1,386.9,476.3L386.9,476.3z"/>
	<path class="st0" d="M422.3,490.3l-5-0.9c-3.2-0.6-4.8-2.7-4.8-6.4v-16l0,0v-23.6l0.6-9.6c0.1-1.2-0.6-1.8-2-1.8h-18.9
		c-1.6,0-2.3,0.4-2.3,1.2s0.8,1.3,2.3,1.6l5,0.9c3.2,0.6,4.8,2.7,4.8,6.4v14.6l0,0v25l-0.6,9.6c-0.1,1.2,0.6,1.8,2,1.8h18.9
		c1.6,0,2.3-0.4,2.3-1.2S423.8,490.6,422.3,490.3z"/>
	<path class="st0" d="M335.8,490.6l-3.1-0.9c-3.2-0.9-4.8-3.1-4.8-6.6v-29.4c0-7.4-1.9-13.1-5.6-17.2c-3.8-4-8.8-6.1-15-6.1
		c-8,0-14.1,2.8-18.3,8.3c-0.5,0.9-1,0.8-1.5-0.1l-2.3-5.1c-0.5-1.1-1.3-1.6-2.3-1.6h-16.5c-1.6,0-2.3,0.4-2.3,1.2
		c0,0.9,0.8,1.4,2.3,1.6l6,0.9c3.3,0.5,5,2.6,5,6.4v29.2c0,0,0,0,0,0V482l-0.6,9.6c-0.1,1.2,0.6,1.8,2,1.8h17c1.6,0,2.3-0.4,2.3-1.2
		c0-0.6-0.8-1.1-2.3-1.6l-3.1-0.9c-3.2-0.9-4.8-3.1-4.8-6.6v-33.5c0-3.1,2-5.9,5.8-8.3c3.5-2,6.9-3.1,10.1-3.1
		c9.1,0,13.6,4.4,13.6,13.2v30.3c0,4.6-0.6,7.5-1.8,8.7c-1.2,1.2-1.8,1.9-1.8,2c0,0.7,0.6,1,1.9,1h20.2c1.6,0,2.3-0.4,2.3-1.2
		C338.2,491.6,337.4,491.1,335.8,490.6L335.8,490.6z"/>
	<path class="st0" d="M413.1,407.8c0,2.1-0.8,3.9-2.5,5.5c-1.7,1.6-3.6,2.4-5.7,2.4c-1.6,0-3.1-0.6-4.3-1.7s-1.8-2.5-1.8-4.2
		c0-2.1,0.8-4,2.5-5.6s3.5-2.3,5.7-2.3C411,402,413.1,403.9,413.1,407.8L413.1,407.8z"/>
	<path class="st0" d="M491.3,436.8c0,1-0.5,1.5-1.6,1.5l-15.9,0.4c3.3,3.6,5,8.2,5,13.7c0,6.5-2.5,11.7-7.5,15.8
		c-5,4.1-11.2,6.1-18.6,6.1h-4.2c-5.8,0-8.8,1.9-8.8,5.6c0,3.3,2,4.9,6.1,4.9c0.6,0,3-0.1,7.2-0.3c4.2-0.2,7.5-0.3,10.1-0.3
		c7.1,0,12.4,1.1,15.8,3.4c4,2.7,6,7.4,6,13.9c0,8-4,14-12,18.1c-6.2,3.2-13.8,4.8-22.7,4.8c-6.5,0-11.9-1.3-16.2-4
		c-5.2-3.2-7.8-7.9-7.8-14c0-6.8,3.2-12,9.7-15.5c-2.3-1.9-3.5-4.2-3.5-7c0-5.2,2.2-8.7,6.7-10.5c0.7-0.3,1-0.6,1-1s-0.3-0.7-0.9-1
		c-8.7-3.8-13-10.1-13-19c0-6.4,2.5-11.7,7.6-15.7c5-4,11.3-6.1,18.7-6.1c4.6,0,8.9,0.8,12.8,2.5l24.4-1c1.1,0,1.6,0.4,1.6,1.2
		L491.3,436.8L491.3,436.8z M476.7,503.8c0-3.8-1.3-6.5-3.8-8c-2.5-1.6-6.9-2.3-13-2.3c-2.8,0-6.9,0.1-12.2,0.2
		c-5.3,0.1-8.3,0.2-8.8,0.2c-3,1-4.5,4-4.5,8.9c0,4.6,2.6,8.1,7.8,10.5c4,1.9,8.7,2.8,14,2.8C469.8,516.1,476.7,512,476.7,503.8
		L476.7,503.8z M468.2,453.9c0-11.8-5.5-17.7-16.6-17.7c-9.6,0-14.4,4.8-14.4,14.5c0,5.6,1.4,10,4.3,13.3c2.8,3.3,7,5,12.5,5
		c4.6,0,8.1-1.4,10.6-4.1C467,462.1,468.2,458.5,468.2,453.9L468.2,453.9z"/>
	<path class="st0" d="M555.5,490.6l-3.2-0.9c-3.2-0.9-4.8-3.1-4.8-6.6v-29.4c0-7.4-1.9-13.1-5.6-17.2s-8.8-6.1-15-6.1
		c-8,0-14.1,2.8-18.3,8.3c-0.2,0.2-0.4,0.2-0.7,0.1c-0.3-0.1-0.4-0.3-0.4-0.7v-28.5l0.6-9.7c0.1-1.2-0.6-1.8-2-1.8h-19.9
		c-1.6,0-2.3,0.4-2.3,1.2c0,0.9,0.8,1.4,2.3,1.6l6,0.9c3.2,0.5,4.8,2.6,4.8,6.4v67.7l0,0v5.8l-0.6,9.6c-0.1,1.2,0.6,1.8,2,1.8h17
		c1.6,0,2.3-0.4,2.3-1.2c0-0.6-0.8-1.1-2.3-1.6l-3.1-0.9c-3.2-0.9-4.8-3.1-4.8-6.6v-33.5c0-3.2,1.9-6,5.7-8.3
		c3.3-2,6.7-3.1,10.2-3.1c9.1,0,13.6,4.4,13.6,13.2v31.5c0,3.8-0.6,6.3-1.8,7.5c-1.2,1.2-1.8,1.9-1.8,2c0,0.7,0.6,1,1.9,1h20.2
		c1.6,0,2.3-0.4,2.3-1.2C557.7,491.8,557,491.2,555.5,490.6L555.5,490.6z"/>
	<path class="st0" d="M596.8,489.7c0.2,0.5,0.1,0.9-0.3,1.1c-3,2.2-7,3.3-12,3.3c-12,0-18-4.4-18-13.2v-41.6h-11.5
		c-1,0-1.5-0.5-1.5-1.4v-4.4c0-1,0.5-1.5,1.5-1.5h8.5c1.7,0,3-1.1,4-3.4l6.9-16.4c0.4-0.9,0.9-1.3,1.5-1.3c0.9,0,1.3,0.6,1.3,1.8
		V432h16.7c1,0,1.5,0.4,1.5,1.2v5c0,0.8-0.4,1.2-1.3,1.2H577v38.9c0,7.7,3,11.6,9.1,11.6c3.3,0,6.1-0.7,8.5-2
		c0.6-0.6,1.1-0.5,1.5,0.1L596.8,489.7L596.8,489.7z"/>
	<path class="st0" d="M80.2,495.6c-4,0.9-12.8,4.6-21.4,9.5h5.9c8.6-4.7,17.1-8.6,24-10.2c1-0.2,2-0.5,2.8-0.8L80.2,495.6
		L80.2,495.6z"/>
	<path class="st0" d="M45.3,516.7c0,0,16.8-11.3,32.7-11.5c20.7-0.2,39.8,31.3,64.4,31.3c22.9,0,33-15.8,37.7-28.7l-1-0.5
		c-8.9,13.2-18,17.7-32.7,17.7c-25.6,0-34.2-25.5-68.4-25.2C59.9,500,45.2,514,45.3,516.7"/>
</g>
<g>
	<g>
		<polygon class="st0" points="258.9,134.4 265.2,121.8 282.4,131.4 276.9,142.3 		"/>
		<polygon class="st0" points="272.5,109.9 280.9,98.6 296.2,111.2 288.8,121 		"/>
		<polygon class="st0" points="290.3,88.2 300.6,78.7 313.3,93.7 304.4,102.1 		"/>
		<polygon class="st0" points="311.7,70.1 323.5,62.6 333.4,79.7 323,86.2 		"/>
		<polygon class="st0" points="348.6,81.3 359.4,77 364.8,92.3 355.4,96.1 		"/>
		<polygon class="st0" points="328.6,92.9 338.4,86.6 346.5,100.7 337.9,106.1 		"/>
		<polygon class="st0" points="280.1,236.2 277.1,225.1 293,221.6 295.6,231.3 		"/>
		<polygon class="st0" points="275.2,213.7 274.2,202.2 290.5,201.6 291.3,211.6 		"/>
		<polygon class="st0" points="274.3,190.6 275.5,179.1 291.6,181.4 290.6,191.5 		"/>
		<polygon class="st0" points="277.7,167.7 280.9,156.6 296.3,161.8 293.5,171.5 		"/>
		<polygon class="st0" points="285.1,145.8 290.2,135.5 304.4,143.4 299.9,152.4 		"/>
		<polygon class="st0" points="359.4,104.6 368,101.2 372.3,113.4 364.9,116.4 		"/>
		<polygon class="st0" points="311,107.8 319.5,99.9 330,112.3 322.5,119.2 		"/>
		<polygon class="st0" points="344.2,74 336,56.1 349,50.9 355.6,69.4 		"/>
		<polygon class="st0" points="343.4,113.8 351.2,108.9 357.7,120.1 350.9,124.5 		"/>
		<polygon class="st0" points="329.4,125.8 336.1,119.5 344.5,129.4 338.6,134.9 		"/>
		<polygon class="st0" points="296.3,125.6 303.2,116.4 315.8,126.7 309.7,134.8 		"/>
		<polygon class="st0" points="317.7,140 323.2,132.6 333.2,140.9 328.4,147.3 		"/>
		<polygon class="st0" points="308.7,156.1 312.8,147.9 324.1,154.2 320.5,161.4 		"/>
		<polygon class="st0" points="302.8,173.6 305.3,164.7 317.6,168.9 315.4,176.6 		"/>
		<polygon class="st0" points="300.1,191.9 301,182.7 313.9,184.5 313.1,192.6 		"/>
		<polygon class="st0" points="300.8,210.3 300,201.1 313,200.6 313.7,208.7 		"/>
		<polygon class="st0" points="302.4,219.4 315,216.6 317.1,224.4 304.7,228.3 		"/>
		<polygon class="st0" points="252.9,244.1 249.3,230.5 268.5,226.3 271.7,238.1 		"/>
		<polygon class="st0" points="246.9,216.7 245.8,202.7 265.5,202 266.4,214.2 		"/>
		<polygon class="st0" points="245.9,188.7 247.3,174.7 266.8,177.5 265.6,189.7 		"/>
		<polygon class="st0" points="249.9,160.9 253.8,147.4 272.5,153.7 269.1,165.5 		"/>
	</g>
	<g>
		<polygon class="st1" points="437.4,216.5 445.5,227.9 429,238.6 421.9,228.6 		"/>
		<polygon class="st1" points="452.6,240 458.6,252.7 440.4,260.3 435.2,249.2 		"/>
		<polygon class="st1" points="463.4,265.9 466.9,279.4 447.7,283.6 444.5,271.8 		"/>
		<polygon class="st1" points="469.3,293.3 470.4,307.2 450.7,307.9 449.7,295.7 		"/>
		<polygon class="st1" points="442,320.6 440.8,332.1 424.8,329.7 425.8,319.6 		"/>
		<polygon class="st1" points="441.3,297.5 442.2,309 425.9,309.6 425.2,299.5 		"/>
		<polygon class="st1" points="337.5,187.4 348.7,190 344.3,205.6 334.5,203.3 		"/>
		<polygon class="st1" points="359.7,193.6 370.3,198.2 363.2,212.8 353.9,208.8 		"/>
		<polygon class="st1" points="380.5,203.7 390.1,210.1 380.5,223.2 372.1,217.6 		"/>
		<polygon class="st1" points="399.1,217.4 407.4,225.4 395.6,236.6 388.3,229.5 		"/>
		<polygon class="st1" points="415,234.2 421.7,243.6 408,252.4 402.2,244.2 		"/>
		<polygon class="st1" points="416.4,319.2 415.4,328.4 402.6,326.4 403.4,318.4 		"/>
		<polygon class="st1" points="436.4,274.9 439.3,286.1 423.5,289.5 420.9,279.8 		"/>
		<polygon class="st1" points="450.5,320.1 470.2,321.3 468.8,335.2 449.3,332.3 		"/>
		<polygon class="st1" points="415.8,300.7 416.5,310 403.5,310.4 402.9,302.3 		"/>
		<polygon class="st1" points="411.9,282.7 414.2,291.6 401.6,294.4 399.5,286.6 		"/>
		<polygon class="st1" points="427.5,253.6 432.4,264.1 417.4,270.3 413.1,261.1 		"/>
		<polygon class="st1" points="404.8,265.7 408.7,274.1 396.7,279 393.3,271.7 		"/>
		<polygon class="st1" points="394.8,250.2 400.1,257.7 389.2,264.8 384.6,258.2 		"/>
		<polygon class="st1" points="382.1,236.8 388.8,243.2 379.3,252.1 373.5,246.5 		"/>
		<polygon class="st1" points="367.2,225.9 374.9,231 367.3,241.4 360.5,237 		"/>
		<polygon class="st1" points="350.7,217.8 359.1,221.4 353.5,233.1 346,229.9 		"/>
		<polygon class="st1" points="341.9,214.9 338.4,227.4 330.5,225.6 332.9,212.8 		"/>
		<polygon class="st1" points="343.3,159.6 357,162.8 351.7,181.8 339.8,179 		"/>
		<polygon class="st1" points="370.3,167.2 383.2,172.8 374.6,190.5 363.3,185.6 		"/>
		<polygon class="st1" points="395.5,179.5 407.2,187.2 395.6,203.1 385.4,196.3 		"/>
		<polygon class="st1" points="418.1,196 428.2,205.8 413.9,219.3 405.1,210.8 		"/>
	</g>
	<g>
		<polygon class="st2" points="277.3,332.1 263.3,333.3 262.6,313.6 274.9,312.6 		"/>
		<polygon class="st2" points="249.3,333.1 235.4,331.7 238.2,312.2 250.4,313.5 		"/>
		<polygon class="st2" points="221.6,329.1 208.1,325.2 214.4,306.5 226.2,309.9 		"/>
		<polygon class="st2" points="195,320.2 182.5,313.9 192,296.7 203,302.1 		"/>
		<polygon class="st2" points="185.6,282.7 176.3,275.8 186.6,263.3 194.7,269.3 		"/>
		<polygon class="st2" points="205.8,293.9 195.4,288.8 203.3,274.6 212.3,279.1 		"/>
		<polygon class="st2" points="353.6,261.3 345.5,269.6 334.4,257.8 341.4,250.6 		"/>
		<polygon class="st2" points="336.8,277.2 327.4,284 318.5,270.4 326.7,264.5 		"/>
		<polygon class="st2" points="317.5,289.9 307,294.8 300.7,279.9 309.8,275.5 		"/>
		<polygon class="st2" points="296.2,298.8 285,301.8 281.5,286 291.3,283.4 		"/>
		<polygon class="st2" points="273.6,303.8 262.1,304.7 261.5,288.5 271.6,287.7 		"/>
		<polygon class="st2" points="199.9,261.4 192.5,255.9 200.8,245.9 207.2,250.7 		"/>
		<polygon class="st2" points="227.7,301.3 216.5,298.1 221.7,282.7 231.4,285.5 		"/>
		<polygon class="st2" points="181.6,290.3 170.5,306.6 159.3,298.2 171.8,282.9 		"/>
		<polygon class="st2" points="216.1,270.4 207.8,266.3 214.1,254.9 221.3,258.5 		"/>
		<polygon class="st2" points="233.5,276.3 224.7,273.7 228.8,261.4 236.6,263.6 		"/>
		<polygon class="st2" points="250.5,304.6 239,303.5 241.4,287.4 251.4,288.4 		"/>
		<polygon class="st2" points="251.8,278.9 242.6,278 244.5,265.2 252.5,266 		"/>
		<polygon class="st2" points="270.2,278.3 261,279 260.6,266 268.6,265.4 		"/>
		<polygon class="st2" points="288.2,274.3 279.3,276.7 276.5,264 284.3,261.9 		"/>
		<polygon class="st2" points="305.2,267.1 296.9,271.1 291.9,259.1 299.1,255.7 		"/>
		<polygon class="st2" points="320.7,257 313.2,262.4 306.1,251.6 312.6,246.8 		"/>
		<polygon class="st2" points="327.7,251 318.7,241.6 324.3,235.8 334.1,244.3 		"/>
		<polygon class="st2" points="374.3,280.6 364.6,290.7 351,276.4 359.5,267.6 		"/>
		<polygon class="st2" points="354,299.9 342.6,308.1 331.8,291.6 341.8,284.4 		"/>
		<polygon class="st2" points="330.6,315.2 317.9,321.2 310.2,303.1 321.3,297.8 		"/>
		<polygon class="st2" points="304.7,326.1 291.2,329.8 286.9,310.5 298.7,307.3 		"/>
	</g>
</g>
</svg>
