<?xml version="1.0" encoding="UTF-8" standalone="no"?>
<!DOCTYPE svg PUBLIC "-//W3C//DTD SVG 1.1//EN" "http://www.w3.org/Graphics/SVG/1.1/DTD/svg11.dtd">
<svg width="100%" height="100%" viewBox="0 0 1192 475" version="1.1" xmlns="http://www.w3.org/2000/svg" xmlns:xlink="http://www.w3.org/1999/xlink" xml:space="preserve" xmlns:serif="http://www.serif.com/" style="fill-rule:evenodd;clip-rule:evenodd;stroke-linejoin:round;stroke-miterlimit:2;">
    <g transform="matrix(1,0,0,1,-590.551,-938.737)">
        <rect id="Kleeblatt---25-" serif:id="Kleeblatt + 25%" x="0" y="0" width="2362.2" height="2362.2" style="fill:none;"/>
        <g id="Kleeblatt---25-1" serif:id="Kleeblatt + 25%">
            <g transform="matrix(4.12133,0,0,4.12133,590.553,960.654)">
                <g id="Quattro-Research-Logo" serif:id="Quattro Research Logo">
                    <g>
                        <g id="research" transform="matrix(1,0,0,1,206.024,98.2149)">
                            <path d="M0,-2.141C0.308,-1.391 0.342,-0.895 0.342,0.739L0.342,11.656L5.241,11.656L5.241,-0.309C5.241,-2.859 4.644,-4.71 3.466,-5.811C2.211,-7.027 0.576,-7.477 -2.571,-7.477L-8.348,-7.477L-8.348,-13.797L-13.247,-13.797L-13.247,11.656L-8.348,11.656L-8.348,-3.787L-3.741,-3.787C-1.607,-3.787 -0.489,-3.295 0,-2.141M-17.958,-3.787L-17.958,-7.477L-25.085,-7.477C-28.632,-7.477 -30.632,-6.952 -32.22,-5.602C-34.14,-3.916 -35.156,-1.263 -35.156,2.07C-35.156,4.895 -34.346,7.173 -32.68,9.039C-30.919,10.996 -29.002,11.656 -25.085,11.656L-17.958,11.656L-17.958,7.967L-23.513,7.967C-25.559,7.967 -27.435,7.772 -28.861,6.19C-29.722,5.159 -30.136,3.827 -30.136,2.11C-30.136,0.169 -29.742,-1.249 -28.89,-2.208C-27.928,-3.291 -26.381,-3.787 -24.157,-3.787L-17.958,-3.787ZM-42.736,0.093L-42.736,0.89L-38.04,0.89L-38.04,-0.753C-38.04,-3.661 -38.439,-5.035 -39.565,-6.005C-40.812,-7.135 -42.186,-7.477 -45.448,-7.477L-53.181,-7.477L-53.181,11.656L-48.281,11.656L-48.281,-3.787L-46.457,-3.787C-43.641,-3.787 -42.736,-2.844 -42.736,0.093M-73.403,5.981C-73.403,7.635 -72.196,7.967 -70.248,7.967L-63.745,7.967L-63.745,3.914L-71.135,3.914C-72.534,3.914 -73.403,4.707 -73.403,5.981M-78.423,6.102C-78.423,4.114 -77.567,2.261 -76.188,1.266C-75.164,0.516 -73.601,0.225 -70.61,0.225L-63.745,0.225C-63.745,-1.973 -64.1,-2.45 -64.512,-2.862C-65.175,-3.525 -66.316,-3.787 -68.11,-3.787L-76.972,-3.787L-76.972,-7.477L-68.11,-7.477C-65.104,-7.477 -62.699,-7.542 -60.818,-5.662C-59.059,-3.902 -58.846,-1.626 -58.846,0.86L-58.846,11.656L-69.965,11.656C-73.066,11.656 -73.793,11.609 -74.823,11.342C-76.942,10.801 -78.423,8.647 -78.423,6.102M-92.716,-2.829C-92.03,-3.515 -90.953,-3.787 -89.32,-3.787L-82.355,-3.787L-82.355,-7.477L-89.683,-7.477C-92.3,-7.477 -94.031,-7.068 -95.47,-6.108C-97.79,-4.575 -99.23,-1.519 -99.23,1.869C-99.23,5.389 -98.024,8.15 -95.742,9.852C-93.995,11.201 -92.376,11.656 -89.32,11.656L-82.355,11.656L-82.355,7.967L-88.715,7.967C-90.66,7.967 -91.939,7.639 -92.722,6.857C-93.043,6.536 -93.59,5.953 -93.745,3.914L-82.355,3.914L-82.355,0.225L-93.749,0.225C-93.555,-1.939 -93.05,-2.495 -92.716,-2.829M-106.635,11.422C-105.786,11.266 -104.992,10.808 -104.387,10.129C-103.381,9.005 -102.757,7.308 -102.757,5.699C-102.757,2.296 -105.135,0.345 -109.28,0.345L-112.466,0.345C-114.52,0.345 -115.064,0.279 -115.675,-0.38C-116.541,-1.358 -116.301,-2.807 -115.524,-3.412C-115.077,-3.709 -114.716,-3.787 -112.949,-3.787L-103.645,-3.787L-103.645,-7.477L-114.925,-7.477C-117.745,-7.477 -118.886,-7.074 -120.012,-5.676C-120.845,-4.644 -121.286,-3.373 -121.286,-2.002C-121.286,0.587 -119.944,2.674 -117.784,3.446C-116.893,3.769 -116.052,3.874 -114.321,3.874L-111.054,3.874C-109.342,3.874 -108.599,3.921 -108.053,4.515C-107.371,5.258 -107.275,6.706 -107.97,7.402C-108.581,8.014 -109.957,7.958 -110.597,7.967L-120.964,7.967L-120.964,11.656L-110.086,11.656C-108.599,11.656 -107.245,11.563 -106.635,11.422M-135.58,-2.829C-134.894,-3.515 -133.817,-3.787 -132.184,-3.787L-125.218,-3.787L-125.218,-7.477L-132.546,-7.477C-135.164,-7.477 -136.895,-7.068 -138.334,-6.108C-140.653,-4.576 -142.093,-1.519 -142.093,1.869C-142.093,5.39 -140.887,8.15 -138.606,9.852C-136.859,11.201 -135.24,11.656 -132.184,11.656L-125.218,11.656L-125.218,7.967L-131.579,7.967C-133.524,7.967 -134.803,7.639 -135.586,6.857C-135.906,6.537 -136.453,5.953 -136.608,3.914L-125.218,3.914L-125.218,0.225L-136.612,0.225C-136.418,-1.939 -135.916,-2.494 -135.58,-2.829M-153.405,-3.787L-155.229,-3.787L-155.229,11.656L-160.128,11.656L-160.128,-7.477L-152.396,-7.477C-149.132,-7.477 -147.759,-7.135 -146.512,-6.005C-145.386,-5.035 -144.986,-3.66 -144.986,-0.753L-144.986,0.89L-149.684,0.89L-149.684,0.093C-149.684,-2.844 -150.588,-3.787 -153.405,-3.787" style="fill:rgb(167,179,192);fill-rule:nonzero;"/>
                        </g>
                        <g id="quattro" transform="matrix(1,0,0,1,212.312,58.1048)">
                            <path d="M0,0.268C0,6.614 2.805,9.953 8.214,9.953C13.49,9.953 16.162,6.614 16.162,0.001C16.162,-6.544 13.424,-9.884 8.081,-9.884C2.671,-9.884 0.066,-6.677 0,0.068L0,0.268ZM8.015,-16.695C18.9,-16.695 25.312,-10.351 25.312,0.468C25.312,10.487 18.633,16.764 7.947,16.764C-2.872,16.764 -9.15,10.553 -9.15,-0.266C-9.15,-10.15 -2.338,-16.695 8.015,-16.695M-25.781,-16.228C-20.305,-16.228 -17.9,-15.627 -15.764,-13.69C-13.826,-12.021 -13.092,-9.683 -13.092,-4.674L-13.092,-1.536L-21.707,-1.536L-21.707,-3.272C-21.707,-7.879 -23.043,-9.282 -27.451,-9.282L-30.056,-9.282L-30.056,16.297L-39.005,16.297L-39.005,-16.228L-25.781,-16.228ZM-62.58,-26.357L-53.631,-26.357L-53.631,-16.228L-45.35,-16.228L-45.35,-9.282L-53.631,-9.282L-53.631,2.539C-53.631,5.878 -53.497,6.88 -52.896,7.748C-52.162,8.817 -50.759,9.351 -48.889,9.351L-45.35,9.351L-45.35,16.297L-51.828,16.297C-55.567,16.297 -57.973,15.563 -59.708,13.826C-62.37,11.354 -62.58,7.661 -62.58,4.076L-62.58,-9.282L-68.257,-9.282L-68.257,-16.228L-62.58,-16.228L-62.58,-26.357ZM-88.494,-26.357L-79.544,-26.357L-79.544,-16.228L-71.262,-16.228L-71.262,-9.282L-79.544,-9.282L-79.544,2.539C-79.544,5.878 -79.41,6.88 -78.809,7.748C-78.075,8.817 -76.672,9.351 -74.802,9.351L-71.262,9.351L-71.262,16.297L-77.74,16.297C-81.48,16.297 -83.885,15.563 -85.622,13.826C-88.284,11.355 -88.494,7.656 -88.494,4.076L-88.494,-9.282L-94.17,-9.282L-94.17,-16.228L-88.494,-16.228L-88.494,-26.357ZM-118.68,3.474C-119.138,3.582 -123.489,2.747 -123.489,6.48C-123.489,8.617 -122.22,9.351 -118.68,9.351L-108.328,9.351L-108.328,3.474L-118.68,3.474ZM-109.49,-7.869C-110.515,-8.894 -112.296,-9.282 -115.141,-9.282L-130.234,-9.282L-130.234,-16.228L-115.141,-16.228C-113.604,-16.228 -112.402,-16.161 -111.467,-16.161C-107.126,-16.094 -104.454,-15.025 -102.317,-12.621C-99.585,-9.306 -99.378,-6.004 -99.378,-2.003L-99.378,16.297L-118.212,16.297C-123.222,16.297 -124.557,16.23 -126.36,15.763C-130.034,14.828 -132.639,11.087 -132.639,6.68C-132.639,3.274 -131.169,0.068 -128.765,-1.669C-127.028,-2.938 -124.423,-3.471 -119.282,-3.471L-108.328,-3.471C-108.328,-6.65 -108.992,-7.372 -109.49,-7.869M-148.734,-16.228L-139.785,-16.228L-139.785,16.297L-157.416,16.297C-160.398,16.297 -163.858,16.456 -166.966,13.692C-169.305,11.555 -170.439,8.35 -170.439,3.808L-170.439,-16.228L-161.49,-16.228L-161.49,4.676C-161.49,7.615 -159.888,9.351 -157.149,9.351L-148.734,9.351L-148.734,-16.228ZM-194.546,-9.282C-200.089,-9.282 -203.095,-6.009 -203.095,0.001C-203.095,6.079 -200.022,9.351 -194.212,9.351L-188.068,9.351L-188.068,-9.282L-194.546,-9.282ZM-179.118,26.625L-188.068,26.625L-188.068,16.297L-196.616,16.297C-206.234,16.297 -212.312,10.153 -212.312,0.468C-212.312,-5.543 -210.21,-10.446 -206.435,-13.422C-203.673,-15.599 -201.225,-16.228 -195.147,-16.228L-179.118,-16.228L-179.118,26.625Z" style="fill:rgb(12,61,99);fill-rule:nonzero;"/>
                        </g>
                        <g id="Kleeblatt" transform="matrix(1.11439,0,0,1.11439,251.664,4.89805)">
                            <path d="M0,30.305C-0.816,34.287 0.558,37.782 4.469,38.792C7.896,39.678 11.368,39.686 14.75,38.536C17.831,37.488 19.056,34.391 18.552,31.201C17.724,25.957 15.249,22.787 11.277,19.255C9.799,17.939 8.639,18.019 7.078,19.305C4.403,21.51 1.064,25.112 0,30.305M24.129,24.286C28.358,25.223 31.92,23.81 32.932,19.651C33.748,16.296 33.75,12.908 32.629,9.61C31.58,6.521 28.495,5.289 25.308,5.789C20.063,6.61 16.891,9.078 13.355,13.05C12.03,14.537 12.102,15.691 13.38,17.247C15.538,19.873 19.006,23.152 24.129,24.286M-5.921,5.921C-10.054,5.084 -13.488,6.518 -14.509,10.598C-15.264,13.618 -15.261,16.679 -14.501,19.696C-13.478,23.756 -9.981,25.208 -5.903,24.323C-1.352,23.334 1.347,21.158 4.579,17.769C6.527,15.726 6.494,14.538 4.557,12.454C1.581,9.254 -1.566,6.804 -5.921,5.921M11.936,10.424C9.785,12.442 8.581,12.456 6.441,10.368C3.095,7.099 0.918,4.402 -0.018,-0.167C-0.81,-4.037 0.559,-7.46 4.342,-8.504C7.513,-9.38 10.74,-9.381 13.919,-8.552C17.845,-7.528 19.238,-4.065 18.436,-0.092C17.485,4.611 14.742,7.79 11.936,10.424" style="fill:rgb(104,180,55);fill-rule:nonzero;"/>
                        </g>
                    </g>
                </g>
            </g>
        </g>
    </g>
</svg>
