<?xml version="1.0" encoding="UTF-8"?>
<svg id="uuid-0f949833-667d-4996-bca5-693fdee57b71" data-name="Layer 1" xmlns="http://www.w3.org/2000/svg" viewBox="0 0 1596.32 502.33">
  <path d="M1596.32,0v502.33H0V0h1596.32ZM1547.49,291.19c17.44-7.47,41.06-31.42,45.72-49.98,1.37-5.46-2.11-12.28-4.62-17.39-21.63-44.13-69.52-60.02-115.71-46.41-39.2,11.55-61.75,44.53-61.25,85.23.34,27.36,15.18,89.45-1.18,110.81-20.29,26.48-49.15-6.44-59.47-25.07-4.87-8.78-10.63-32.63-24.05-20.25-8.78,8.1-17.64,22.1-26.66,31.3-8.47,8.65-21.47,20.26-33.44,23-24.96,5.72-23.02-12.51-16.76-29.7,15.28-41.97,58.56-83.6,85.29-119.09,2.26-3.67,1.68-5.76.36-9.52-5.09-14.51-34.47-34.58-47.93-42.07-2.66-1.48-19.09-9.93-20.63-9.62-38.16,40.31-72.12,84.37-109.21,125.63-21.19,23.57-64.45,72.28-93.29,82.89-10.82,3.98-24.63,4.17-24.67-10.87-.06-20.84,35.99-73.17,49.03-91.33,41.8-58.21,90.32-111.39,138.35-164.42l43.95-44.55c2.71-6.94-9.42-21.3-14.17-26.35-16.4-17.43-39.18-31.71-61.08-41.14l-1.53.7c-66.15,65.13-122.74,139.33-175.1,215.77-.99.66-3.94-7.94-4.43-8.9-27.15-52.76-88.84-48.35-133.9-22.2-64.77,37.6-102.43,107.23-157.71,155.74-37.13,32.59-89.77,62.33-141.2,51.09-22.17-4.85-28.82-21.01-25.91-42.34,56.9,16.94,119.73-6.23,156.4-51.47,54-66.64,23.77-145.84-67.41-135.95-65.23,7.08-111.25,53.17-150.78,100.92-49.32,59.58-88.99,127.57-178.22,121.59-52.91-3.55-81.76-54.42-82.75-102.93l12.22,18.65c37.51,47.72,107.06,38.95,152.07,7.12,88.84-62.83,90.73-200.35-12.94-249.01-59.42-27.89-134.83-20.25-196.54-3.7-47.19,12.66-92.59,32.75-132.44,60.92-.38,27.03,6.23,56.6,17.03,81.38,2.32,5.32,10.68,23.19,16.9,23.46,8.72-4.91,16.78-11.55,25.19-17.2,35.91-24.17,73.62-47.6,115.45-59.99-58.83,66.65-120.32,130.97-178.93,197.81-14.37,16.38-30.95,34.14-43.83,51.5-1.33,1.79-5.15,6.34-5.72,8-1.41,4.08,2.4,15.91,3.78,20.55,5.41,18.11,24.49,62.56,39.36,73.49,8.23,6.05,13.55,1.41,20.19-4.09,39.95-45.11,77.94-91.87,114.8-139.53,3.49,57.46,30.03,120.89,90.23,137.41,41.85,11.49,86.98.2,121.82-24.29,25.64-18.02,45.12-42.49,62.65-68.14,3.08,48.31,33.9,81.44,80.75,91.23,61.7,12.89,118.98-11.09,166.09-49.33,14.8-12.01,27.95-25.64,40.83-39.62.57,3.02-.67,5.9-.79,8.73-3.5,87.31,76.12,102.96,139.61,62.47,25.19-16.06,45.27-39.31,59.96-65.12-.9,30.7,4.3,69.38,36.81,82.15,27.69,10.88,56.99-.54,79.8-16.73,25.6-18.18,45.92-43.25,61.95-69.99-.65,39.61,10.36,79.3,53.77,88.84,50.79,11.16,98.24-21.8,128.19-59.52,7.13-8.98,13.99-19.05,19.12-29.31,1.14.11,1.19,1.12,1.48,1.94,7.95,21.93,10.86,38.99,26.76,57.88,42.27,50.2,132.04,38.19,158.83-21.95,12.88-28.93,8.93-62.51,4.32-93-3.48-23.01-13.52-55.59-11.31-77.87.42-4.26,1.74-8.88,5.56-11.22,17.97-10.99,35.89,19.33,40.99,32.93ZM1351.93,55.77c-1.81.53-12.91,13.76-15.03,16.28-7.55,8.98-15.46,19.36-22.01,29.09-2.72,4.05-9.83,13.83-11.16,17.81-.63,1.9-.65,3.57-.25,5.51,1.63,7.84,17.85,21.64,24.32,26.77,15.07,11.95,32.01,21.96,49.79,29.31,3.11-.59,28.77-34.22,32.4-39.28s14.96-20.06,16.5-24.67c1.07-3.2.28-5.18-1.08-7.98-6.92-14.21-37.32-35.28-51.39-43.18-4.22-2.37-14.71-8.34-18.81-9.43-1.19-.32-2.02-.6-3.28-.22Z" style="fill: none;"/>
  <path d="M1547.49,291.19c-5.1-13.61-23.02-43.93-40.99-32.93-3.81,2.33-5.14,6.95-5.56,11.22-2.2,22.28,7.83,54.86,11.31,77.87,4.61,30.49,8.56,64.07-4.32,93-26.78,60.14-116.56,72.15-158.83,21.95-15.9-18.88-18.81-35.95-26.76-57.88-.3-.82-.35-1.83-1.48-1.94-5.12,10.27-11.99,20.33-19.12,29.31-29.95,37.72-77.39,70.67-128.19,59.52-43.41-9.53-54.42-49.23-53.77-88.84-16.03,26.74-36.35,51.82-61.95,69.99-22.81,16.19-52.11,27.61-79.8,16.73-32.51-12.77-37.71-51.46-36.81-82.15-14.69,25.81-34.78,49.05-59.96,65.12-63.48,40.49-143.11,24.84-139.61-62.47.11-2.83,1.36-5.71.79-8.73-12.89,13.98-26.03,27.61-40.83,39.62-47.11,38.24-104.39,62.22-166.09,49.33-46.85-9.79-77.67-42.93-80.75-91.23-17.53,25.65-37.01,50.12-62.65,68.14-34.85,24.5-79.97,35.78-121.82,24.29-60.2-16.52-86.74-79.94-90.23-137.41-36.86,47.65-74.85,94.41-114.8,139.53-6.64,5.5-11.96,10.14-20.19,4.09-14.88-10.93-33.95-55.39-39.36-73.49-1.38-4.64-5.19-16.47-3.78-20.55.57-1.66,4.39-6.21,5.72-8,12.88-17.35,29.47-35.11,43.83-51.5,58.61-66.83,120.1-131.16,178.93-197.81-41.83,12.39-79.54,35.82-115.45,59.99-8.4,5.66-16.47,12.29-25.19,17.2-6.22-.28-14.58-18.14-16.9-23.46-10.8-24.78-17.4-54.35-17.03-81.38,39.85-28.17,85.24-48.27,132.44-60.92,61.71-16.55,137.12-24.19,196.54,3.7,103.67,48.66,101.78,186.18,12.94,249.01-45.01,31.83-114.56,40.6-152.07-7.12l-12.22-18.65c1,48.51,29.85,99.39,82.75,102.93,89.23,5.98,128.9-62.01,178.22-121.59,39.53-47.75,85.55-93.85,150.78-100.92,91.19-9.9,121.42,69.31,67.41,135.95-36.66,45.25-99.5,68.41-156.4,51.47-2.91,21.33,3.74,37.49,25.91,42.34,51.44,11.24,104.07-18.5,141.2-51.09,55.28-48.52,92.94-118.14,157.71-155.74,45.06-26.16,106.75-30.56,133.9,22.2.49.96,3.45,9.56,4.43,8.9,52.37-76.45,108.96-150.64,175.1-215.77l1.53-.7c21.9,9.43,44.68,23.71,61.08,41.14,4.75,5.05,16.88,19.4,14.17,26.35l-43.95,44.55c-48.03,53.02-96.54,106.21-138.35,164.42-13.04,18.16-49.09,70.49-49.03,91.33.04,15.04,13.86,14.85,24.67,10.87,28.84-10.61,72.1-59.32,93.29-82.89,37.09-41.26,71.05-85.32,109.21-125.63,1.54-.3,17.97,8.14,20.63,9.62,13.45,7.49,42.83,27.57,47.93,42.07,1.32,3.76,1.9,5.85-.36,9.52-26.73,35.49-70.01,77.11-85.29,119.09-6.26,17.19-8.2,35.43,16.76,29.7,11.97-2.75,24.97-14.35,33.44-23,9.01-9.2,17.88-23.2,26.66-31.3,13.42-12.39,19.18,11.46,24.05,20.25,10.32,18.63,39.18,51.55,59.47,25.07,16.37-21.36,1.52-83.45,1.18-110.81-.5-40.7,22.05-73.67,61.25-85.23,46.19-13.61,94.08,2.28,115.71,46.41,2.51,5.11,5.99,11.93,4.62,17.39-4.66,18.56-28.28,42.5-45.72,49.98ZM259.47,240.84c44.87,25.04,126.89,6.9,121.28-55.98-2.47-27.68-30.81-45.03-56.33-46.76l-64.95,102.74ZM653.04,245.65c-29.39,1.73-71.13,46.03-83.93,70.94-.55,1.06-2.58,4.06-1.84,5.12,35.92,14.51,92.19-9.1,103.67-46.7,4.49-14.73.22-30.43-17.9-29.36ZM950.6,248.71c-38.18,4.22-89.78,70.42-96.4,106.46-5.14,27.99,15.42,33.93,38.21,25.22,32.35-12.37,73.17-65.84,80.87-99.11,4.16-17.96-1.06-34.96-22.68-32.57Z" style="fill: #fe4438;"/>
  <path d="M1351.93,55.77c1.27-.37,2.1-.09,3.28.22,4.1,1.09,14.59,7.06,18.81,9.43,14.07,7.91,44.48,28.97,51.39,43.18,1.36,2.8,2.15,4.78,1.08,7.98-1.54,4.62-12.97,19.75-16.5,24.67s-29.29,38.68-32.4,39.28c-17.78-7.35-34.72-17.36-49.79-29.31-6.47-5.13-22.69-18.93-24.32-26.77-.4-1.94-.39-3.61.25-5.51,1.33-3.98,8.44-13.76,11.16-17.81,6.54-9.73,14.46-20.11,22.01-29.09,2.12-2.52,13.22-15.75,15.03-16.28Z" style="fill: #fe4438;"/>
  <path d="M950.6,248.71c21.62-2.39,26.84,14.61,22.68,32.57-7.7,33.27-48.52,86.74-80.87,99.11-22.8,8.71-43.35,2.77-38.21-25.22,6.62-36.04,58.22-102.24,96.4-106.46Z" style="fill: none;"/>
  <path d="M259.47,240.84l64.95-102.74c25.53,1.73,53.87,19.08,56.33,46.76,5.61,62.88-76.41,81.02-121.28,55.98Z" style="fill: none;"/>
  <path d="M653.04,245.65c18.13-1.07,22.4,14.64,17.9,29.36-11.48,37.6-67.75,61.21-103.67,46.7-.74-1.06,1.29-4.06,1.84-5.12,12.79-24.91,54.54-69.21,83.93-70.94Z" style="fill: none;"/>
</svg>