<?xml version="1.0" encoding="UTF-8" standalone="no"?>
<!-- Created with Inkscape (http://www.inkscape.org/) -->

<svg
   xmlns:dc="http://purl.org/dc/elements/1.1/"
   xmlns:cc="http://creativecommons.org/ns#"
   xmlns:rdf="http://www.w3.org/1999/02/22-rdf-syntax-ns#"
   xmlns:svg="http://www.w3.org/2000/svg"
   xmlns="http://www.w3.org/2000/svg"
   xmlns:sodipodi="http://sodipodi.sourceforge.net/DTD/sodipodi-0.dtd"
   xmlns:inkscape="http://www.inkscape.org/namespaces/inkscape"
   version="1.1"
   id="svg2"
   xml:space="preserve"
   width="408.19064"
   height="277.54666"
   viewBox="0 0 408.19063 277.54666"
   sodipodi:docname="LogoTopWhiteBG.svg"
   inkscape:version="0.92.2 (5c3e80d, 2017-08-06)"><metadata
     id="metadata8"><rdf:RDF><cc:Work
         rdf:about=""><dc:format>image/svg+xml</dc:format><dc:type
           rdf:resource="http://purl.org/dc/dcmitype/StillImage" /><dc:title></dc:title></cc:Work></rdf:RDF></metadata><defs
     id="defs6" /><sodipodi:namedview
     pagecolor="#ffffff"
     bordercolor="#666666"
     borderopacity="1"
     objecttolerance="10"
     gridtolerance="10"
     guidetolerance="10"
     inkscape:pageopacity="0"
     inkscape:pageshadow="2"
     inkscape:window-width="828"
     inkscape:window-height="405"
     id="namedview4"
     showgrid="false"
     fit-margin-top="0"
     fit-margin-left="0"
     fit-margin-right="0"
     fit-margin-bottom="0"
     inkscape:zoom="0.29736905"
     inkscape:cx="35.02437"
     inkscape:cy="138.76133"
     inkscape:window-x="4359"
     inkscape:window-y="456"
     inkscape:window-maximized="0"
     inkscape:current-layer="g10" /><g
     id="g10"
     inkscape:groupmode="layer"
     inkscape:label="LogoTopWhiteBG"
     transform="matrix(0,1.3333333,1.3333333,0,-334.62799,-258.02799)"><g
       id="g12"
       transform="translate(364.347,250.971)"><path
         d="M 0,0 H 36.076 V 8.911 H 17.049 c -6.682,0 -9.141,4.307 -9.141,8.972 0,2.93 0.78,4.615 2.33,6.43 l -7.773,4.012 c -1.969,-1.96 -3.416,-5.543 -3.416,-9.276 0,-3.646 0.644,-7.365 5.1,-10.138 L 0,8.246 V 0"
         style="fill:#12a1c4;fill-opacity:1;fill-rule:evenodd;stroke:none"
         id="path14"
         inkscape:connector-curvature="0" /></g><g
       id="g16"
       transform="translate(378.171,290.401)"><path
         d="m 0,0 c -4.683,1.317 -7.045,5.268 -7.045,10.074 0,5.113 2.362,8.769 7.045,9.35 z m 7.385,27.968 c -14.867,1.4 -22.328,-6.136 -22.328,-18.184 0,-11.683 7.898,-19.122 18.869,-19.122 11.582,0 19.277,7.381 19.277,19.779 0,5.483 -1.902,11.692 -5.884,15.498 L 11.707,20.234 C 13.821,18.19 15.08,13.871 15.08,10.596 15.08,4.32 11.832,0.438 7.385,-0.143 v 28.111"
         style="fill:#12a1c4;fill-opacity:1;fill-rule:evenodd;stroke:none"
         id="path18"
         inkscape:connector-curvature="0" /></g><g
       id="g20"
       transform="translate(368.054,555.449)"><path
         d="m 0,0 c -3.66,-4.174 -4.75,-8.4 -4.75,-14.027 0,-6.59 2.945,-15.189 11.281,-15.189 8.188,0 10.664,8.078 11.184,14.903 0.31,5.086 1.328,7.146 3.805,7.146 2.63,0 4.414,-3.132 4.318,-6.5 -0.082,-4.012 -2.205,-9.852 -5.053,-12.43 l 6.381,-4.353 c 5.496,5.246 6.461,10.941 6.461,16.637 0,10.281 -5.508,15.478 -11.893,15.478 -9.591,0 -11.097,-8.599 -11.55,-15.422 -0.282,-4.567 -1.625,-6.701 -3.963,-6.701 -2.26,0 -3.586,2.348 -3.586,6.576 0,3.44 0.828,6.338 3.248,8.894 z m 21.893,-38.437 c 2.183,-2.172 2.996,-5.019 2.996,-7.867 0,-5.553 -3.674,-10.229 -10.543,-10.229 -6.276,0 -10.666,4.373 -10.666,10.373 0,2.463 0.953,5.091 2.851,7.207 L 0.609,-33.3 c -3.886,-3.973 -5.359,-7.897 -5.359,-13.004 0,-10.443 6.311,-19.146 19.096,-19.146 12.82,0 19.094,8.703 19.094,19.146 0,5.32 -1.594,9.707 -5.702,13.865 z M -3.879,-71.36 h 36.248 v -8.909 H -3.879 Z m 36.248,-41.497 H 13.055 c -4.772,0 -8.947,3.003 -8.947,7.809 0,4.843 4.017,6.799 8.769,6.799 h 19.492 v 8.913 H 12.877 c -10.816,0 -17.103,-5.02 -17.103,-15.248 0,-4.688 1.468,-8.853 6.568,-12.069 -4.979,-2.054 -6.717,-6.335 -6.717,-10.656 0,-3.429 1.311,-7.594 4.984,-9.492 l -4.41,-0.678 v -8.234 h 36.17 v 8.912 H 13.055 c -4.772,0 -9.094,2.848 -9.094,7.652 0,4.902 4.322,7.381 9.094,7.381 h 19.314 z m -36.076,-76.376 h 18.949 c 11.211,0 17.713,6.286 17.713,14.887 0,5.057 -1.752,8.485 -5.431,12.186 l 4.845,0.582 v 7.962 H -3.707 v -8.816 H 14.67 c 5.561,0 10.141,-3.738 10.141,-9.221 0,-5.695 -4.151,-8.697 -9.637,-8.697 H -3.707 Z m 36.076,-6.423 H 13.393 c -11.332,0 -17.709,-6.799 -17.709,-15.285 0,-4.532 1.841,-8.175 5.427,-11.817 l -4.912,-0.582 v -7.962 h 36.17 v 8.815 H 13.916 c -5.486,0 -10.107,3.739 -10.107,9.221 0,5.695 4.191,8.699 9.677,8.699 h 18.883 v 8.911"
         style="fill:#183c68;fill-opacity:1;fill-rule:evenodd;stroke:none"
         id="path22"
         inkscape:connector-curvature="0" /></g><path
       d="m 351.654,475.179 h 7.838 v 8.909 h -7.838 z"
       style="fill:#12a1c4;fill-opacity:1;fill-rule:nonzero;stroke:none"
       id="path24"
       inkscape:connector-curvature="0" /><g
       id="g26"
       transform="translate(222.314,478.84)"><path
         d="m 0,0 v 13.601 c 0,2.044 1.726,3.675 3.774,3.675 H 17.33 c 2.073,0 3.682,-1.631 3.682,-3.675 L 21.012,0 c 0,-2.021 -1.609,-3.684 -3.682,-3.684 H 3.774 C 1.726,-3.684 0,-2.021 0,0"
         style="fill:#129fc3;fill-opacity:1;fill-rule:evenodd;stroke:none"
         id="path28"
         inkscape:connector-curvature="0" /></g><g
       id="g30"
       transform="translate(309.361,437.268)"><path
         d="m 0,0 v 14.133 c 0,2.205 1.738,3.894 3.892,3.894 h 14.192 c 2.113,0 3.793,-1.689 3.793,-3.894 V 0 c 0,-2.06 -1.68,-3.754 -3.793,-3.754 H 3.892 C 1.738,-3.754 0,-2.06 0,0"
         style="fill:#3884bf;fill-opacity:1;fill-rule:evenodd;stroke:none"
         id="path32"
         inkscape:connector-curvature="0" /></g><g
       id="g34"
       transform="translate(220.021,344.024)"><path
         d="m 0,0 v 14.033 c 0,2.061 1.701,3.756 3.801,3.756 h 13.966 c 2.084,0 3.751,-1.695 3.751,-3.756 V 0 c 0,-2.099 -1.667,-3.789 -3.751,-3.789 H 3.801 C 1.701,-3.789 0,-2.099 0,0"
         style="fill:#3884bf;fill-opacity:1;fill-rule:evenodd;stroke:none"
         id="path36"
         inkscape:connector-curvature="0" /></g><g
       id="g38"
       transform="translate(243.63,370.971)"><path
         d="m 0,0 v 17.512 c 0,2.58 2.069,4.689 4.706,4.689 h 17.41 c 2.535,0 4.74,-2.109 4.74,-4.689 V 0 c 0,-2.535 -2.205,-4.736 -4.74,-4.736 H 4.706 C 2.069,-4.736 0,-2.535 0,0"
         style="fill:#3884bf;fill-opacity:1;fill-rule:evenodd;stroke:none"
         id="path40"
         inkscape:connector-curvature="0" /></g><g
       id="g42"
       transform="translate(193.521,380.261)"><path
         d="m 0,0 v 17.34 c 0,2.535 2.036,4.644 4.673,4.644 h 17.345 c 2.481,0 4.592,-2.109 4.592,-4.644 V 0 c 0,-2.534 -2.111,-4.692 -4.592,-4.692 H 4.673 C 2.036,-4.692 0,-2.534 0,0"
         style="fill:#129fc3;fill-opacity:1;fill-rule:evenodd;stroke:none"
         id="path44"
         inkscape:connector-curvature="0" /></g><g
       id="g46"
       transform="translate(196.845,435.413)"><path
         d="m 0,0 v 18.564 c 0,2.697 2.243,4.964 4.981,4.964 h 18.565 c 2.688,0 4.954,-2.267 4.954,-4.964 V 0 c 0,-2.785 -2.266,-5.009 -4.954,-5.009 H 4.981 C 2.243,-5.009 0,-2.785 0,0"
         style="fill:#129fc3;fill-opacity:1;fill-rule:evenodd;stroke:none"
         id="path48"
         inkscape:connector-curvature="0" /></g><g
       id="g50"
       transform="translate(227.408,407.047)"><path
         d="m 0,0 v 14.399 c 0,2.113 1.688,3.894 3.797,3.894 h 14.45 c 2.153,0 3.795,-1.781 3.795,-3.894 V 0 c 0,-2.165 -1.642,-3.855 -3.795,-3.855 H 3.797 C 1.688,-3.855 0,-2.165 0,0"
         style="fill:#129fc3;fill-opacity:1;fill-rule:evenodd;stroke:none"
         id="path52"
         inkscape:connector-curvature="0" /></g><g
       id="g54"
       transform="translate(216.282,445.801)"><path
         d="M 0,0 20.95,-27.258 16.446,-30.842 -4.644,-3.525 0,0"
         style="fill:#129fc3;fill-opacity:1;fill-rule:nonzero;stroke:none"
         id="path56"
         inkscape:connector-curvature="0" /></g><g
       id="g58"
       transform="translate(273.23,403.668)"><path
         d="m 0,0 v 20.149 c 0,2.949 2.435,5.384 5.481,5.384 h 20.101 c 3.009,0 5.527,-2.435 5.527,-5.384 V 0 c 0,-3.008 -2.518,-5.479 -5.527,-5.479 H 5.481 C 2.435,-5.479 0,-3.008 0,0"
         style="fill:#3884bf;fill-opacity:1;fill-rule:evenodd;stroke:none"
         id="path60"
         inkscape:connector-curvature="0" /></g><g
       id="g62"
       transform="translate(283.733,406.775)"><path
         d="m 0,0 -20.203,-27.842 -4.645,3.386 L -4.651,3.38 0,0"
         style="fill:#3884bf;fill-opacity:1;fill-rule:nonzero;stroke:none"
         id="path64"
         inkscape:connector-curvature="0" /></g><g
       id="g66"
       transform="translate(243.392,456.458)"><path
         d="m 0,0 v -17.499 c 0,-2.542 2.15,-4.699 4.741,-4.699 H 22.14 c 2.63,0 4.691,2.157 4.691,4.699 V 0 c 0,2.588 -2.061,4.691 -4.691,4.691 H 4.741 C 2.15,4.691 0,2.588 0,0"
         style="fill:#3884bf;fill-opacity:1;fill-rule:evenodd;stroke:none"
         id="path68"
         inkscape:connector-curvature="0" /></g><g
       id="g70"
       transform="translate(283.614,420.659)"><path
         d="M 0,0 -20.301,27.84 -24.942,24.459 -4.746,-3.428 0,0"
         style="fill:#3884bf;fill-opacity:1;fill-rule:nonzero;stroke:none"
         id="path72"
         inkscape:connector-curvature="0" /></g><g
       id="g74"
       transform="translate(260.748,485.444)"><path
         d="m 0,0 v 11.939 c 0,1.795 1.514,3.267 3.254,3.267 h 12.027 c 1.686,0 3.209,-1.472 3.209,-3.267 V 0 c 0,-1.817 -1.523,-3.199 -3.209,-3.199 H 3.254 C 1.514,-3.199 0,-1.817 0,0"
         style="fill:#129fc3;fill-opacity:1;fill-rule:evenodd;stroke:none"
         id="path76"
         inkscape:connector-curvature="0" /></g><g
       id="g78"
       transform="translate(281.72,459.68)"><path
         d="m 0,0 v 14.817 c 0,2.211 1.894,4.008 4.058,4.008 H 18.83 c 2.266,0 4.063,-1.797 4.063,-4.008 L 22.893,0 c 0,-2.224 -1.797,-4.013 -4.063,-4.013 H 4.058 C 1.894,-4.013 0,-2.224 0,0"
         style="fill:#129fc3;fill-opacity:1;fill-rule:evenodd;stroke:none"
         id="path80"
         inkscape:connector-curvature="0" /></g><g
       id="g82"
       transform="translate(294.69,468.671)"><path
         d="M 0,0 -22.619,25.99 -26.937,22.229 -4.325,-3.778 0,0"
         style="fill:#129fc3;fill-opacity:1;fill-rule:nonzero;stroke:none"
         id="path84"
         inkscape:connector-curvature="0" /></g><g
       id="g86"
       transform="translate(278.087,345.243)"><path
         d="m 0,0 v 14.398 c 0,2.067 1.738,3.895 3.789,3.895 h 14.552 c 2.013,0 3.751,-1.828 3.751,-3.895 L 22.092,0 c 0,-2.166 -1.738,-3.877 -3.751,-3.877 H 3.789 C 1.738,-3.877 0,-2.166 0,0"
         style="fill:#129fc3;fill-opacity:1;fill-rule:evenodd;stroke:none"
         id="path88"
         inkscape:connector-curvature="0" /></g><g
       id="g90"
       transform="translate(246.813,312.701)"><path
         d="m 0,0 v 18.561 c 0,2.744 2.266,4.968 5.001,4.968 h 18.576 c 2.733,0 4.958,-2.224 4.958,-4.968 L 28.535,0 c 0,-2.79 -2.225,-5.004 -4.958,-5.004 H 5.001 C 2.266,-5.004 0,-2.79 0,0"
         style="fill:#129fc3;fill-opacity:1;fill-rule:evenodd;stroke:none"
         id="path92"
         inkscape:connector-curvature="0" /></g><g
       id="g94"
       transform="translate(290.745,353.152)"><path
         d="m 0,0 -20.314,-27.891 -4.639,3.443 L -4.747,3.39 0,0"
         style="fill:#129fc3;fill-opacity:1;fill-rule:nonzero;stroke:none"
         id="path96"
         inkscape:connector-curvature="0" /></g></g></svg>