<?xml version="1.0" encoding="UTF-8"?>
<svg xmlns="http://www.w3.org/2000/svg" xmlns:xlink="http://www.w3.org/1999/xlink" id="Ebene_1" viewBox="0 0 390.89 159.54">
  <defs>
    <style>.cls-1{fill:#cd1719;}.cls-1,.cls-2,.cls-3,.cls-4,.cls-5{stroke-width:0px;}.cls-2{fill:none;}.cls-3{fill:#fff;}.cls-4{fill:#706f6f;}.cls-6{clip-path:url(#clippath);}.cls-5{fill:#fd0;}</style>
    <clipPath id="clippath">
      <rect class="cls-2" x="29.68" y="29.33" width="331.93" height="100.58"></rect>
    </clipPath>
  </defs>
  <rect class="cls-3" width="390.89" height="159.54"></rect>
  <g class="cls-6">
    <path class="cls-4" d="m47.85,44.25v14.41h5.18c6.19,0,8.32-2.94,8.32-7.71,0-5.08-2.74-6.7-8.42-6.7h-5.08Zm15.73,55.83l-7.41-19.79c-2.74-7.31-4.37-8.22-8.32-8.22v28.01h-18.17V29.33h24.36c20.81,0,27.51,8.43,27.51,20.2s-6.39,18.37-14.72,19.79c2.44.71,5.38,3.96,7.1,7.61,2.33,4.77,8.32,17.87,10.66,23.14h-21.01Z"></path>
    <polygon class="cls-4" points="92.09 100.08 92.09 29.33 131.87 29.33 131.87 44.25 110.25 44.25 110.25 56.13 127.92 56.13 127.92 70.54 110.25 70.54 110.25 84.95 134.51 84.95 134.51 100.08 92.09 100.08"></polygon>
    <path class="cls-4" d="m207.8,100.08h-19.39l-3.65-20.5c-1.52-8.53-3.15-17.76-3.45-22.23h-.1c-.2,3.55-1.73,12.99-3.45,22.23l-3.76,20.5h-19.79l-17.15-70.75h19.18l3.96,19.08c3.35,15.93,3.96,22.84,4.06,25.48h.1c.41-5.69,1.62-14.52,3.55-24.97l3.65-19.59h20.2l4.57,23.65c1.02,5.38,2.44,12.18,2.84,20.81h.1c.41-6.29,2.54-20,3.96-26.9l3.55-17.56h19.38l-18.37,70.75Z"></path>
    <polygon class="cls-4" points="231.25 100.08 231.25 29.33 271.04 29.33 271.04 44.25 249.42 44.25 249.42 56.13 267.09 56.13 267.09 70.54 249.42 70.54 249.42 84.95 273.68 84.95 273.68 100.08 231.25 100.08"></polygon>
    <path class="cls-4" d="m268.63,116.39c-.93-.9-2.03-1.27-3.32-1.27-1,0-1.98.34-2.66.9-1.95,1.54-2.91,6.01-2.91,8.06,0,2.22,1.1,3.15,3.05,3.15.76,0,1.39-.12,2-.41l.83-3.86h-2.51v-2.78h6.64l-1.76,8.2c-1.93,1.03-3.93,1.42-5.93,1.42-3.96,0-6.05-2.34-6.05-5.86,0-3.88,1.76-7.57,3.96-9.4,2-1.66,3.66-2.17,5.88-2.17,2.05,0,3.76.66,4.98,1.95l-2.2,2.07Z"></path>
    <path class="cls-4" d="m284.44,119.95h1.05c1.46,0,2.12-.17,2.69-.59.66-.54,1.1-1.59,1.1-2.34,0-1.17-.76-1.66-2.17-1.66h-1.69l-.98,4.59Zm4.44-7.32c2.56,0,4.05,1.44,4.05,3.71,0,3.35-2.3,5.49-4.88,5.93.29.2.56.59.73.85.81,1.42,2.54,6.47,2.54,6.47h-4.03l-.88-2.76c-1.05-3.1-1.54-3.96-2.1-4.22-.15-.07-.29-.1-.41-.1l-1.51,7.08h-3.44l3.61-16.97h6.32Z"></path>
    <path class="cls-4" d="m307.29,116.54c-1.34,1.76-2.25,5.49-2.25,7.76s.93,2.95,2.64,2.95c.98,0,1.98-.32,2.76-1.27,1.46-1.81,2.34-5.84,2.34-8.18,0-1.66-.68-2.76-2.54-2.76-1.15,0-2.27.59-2.95,1.49m9.32,1.98c0,4.27-2.17,8.91-5.62,10.55-1.12.54-2.42.8-3.83.8-4.2,0-5.81-2.54-5.81-6.08,0-4.81,2.32-8.25,4.52-9.84,1-.73,2.39-1.54,4.98-1.54,3.74,0,5.76,2.32,5.76,6.1"></path>
    <path class="cls-4" d="m331.43,112.63l-2.37,11.16c-.22.97-.24,1.68-.15,2.03.22.76.95,1.17,2.07,1.17,1.56,0,2.61-.86,3-2.05.12-.34.17-.54.37-1.44l2.32-10.87h3.47l-2.44,11.43c-.46,2.17-.85,3.32-2.17,4.32-.66.49-1.93,1.54-5.1,1.54s-5.2-1.46-5.2-3.66c0-.56.07-1.22.2-1.81l2.51-11.82h3.49Z"></path>
    <path class="cls-4" d="m352.85,120.57h1.71c1.32,0,2.05-.29,2.49-.83.51-.61.88-1.59.88-2.56,0-1.12-.61-1.78-1.88-1.78h-2.1l-1.1,5.18Zm2.66-7.94c2.29,0,3.56.24,4.39.78,1.07.66,1.71,1.78,1.71,3.1,0,2.93-1.39,5.08-3.93,6.25-.86.39-2.29.59-3.64.59h-1.81l-1.32,6.25h-3.49l3.61-16.97h4.47Z"></path>
    <rect class="cls-1" x="287.63" y="70.58" width="29.48" height="29.48"></rect>
    <rect class="cls-5" x="331.83" y="70.58" width="29.48" height="29.48"></rect>
  </g>
</svg>
