<?xml version="1.0" encoding="UTF-8"?>
<svg id="Ebene_1" xmlns="http://www.w3.org/2000/svg" viewBox="0 0 716.5 538.44">
  <defs>
    <style>
      .cls-1 {
        fill: #1e6cff;
      }
    </style>
  </defs>
  <g>
    <path d="M285.93,334.81l28.73,66.68,29.36-66.68h10.49v76.53h-6.89v-70.7h-.21l-29.26,70.7h-6.89l-29.26-70.39h-.21v70.39h-6.89v-76.53h11.02Z"/>
    <path d="M371.04,358.13h6.36v34.66c0,8.48,4.98,14.31,13.99,14.31,10.18,0,15.26-8.48,15.26-17.92v-31.06h6.36v41.98c0,.85,0,2.01.11,3.29l.42,7.95h-6.57l-.32-7.84-.21-.21c-3.71,6.57-9.75,9.65-16.64,9.65-12.51,0-18.76-8.37-18.76-21.2v-33.6ZM387.26,335.13v9.33h-7.84v-9.33h7.84ZM405.71,335.13v9.33h-7.84v-9.33h7.84Z"/>
    <path d="M469.84,377.74v33.6h-6.36v-34.77c0-8.38-5.09-14.21-13.99-14.21-9.65,0-15.26,7.84-15.26,18.13v30.85h-6.36v-41.98c0-2.33,0-4.35-.53-11.24h6.57l.32,7.84.21.21c3.71-6.57,9.75-9.65,16.64-9.65,12.61,0,18.76,8.38,18.76,21.2Z"/>
    <path d="M525.17,374.45h-6.89c-.53-8.16-5.72-12.08-14.52-12.08-9.33,0-15.79,9.54-15.79,22.26s6.47,22.47,15.79,22.47c7.84,0,13.89-4.66,14.52-12.4h6.89c-1.7,12.19-8.59,18.23-20.78,18.23-14.52,0-23.32-11.87-23.32-28.2s9.12-28.2,23.75-28.2c11.02,0,19.72,6.57,20.35,17.91Z"/>
    <path d="M535.55,334.81h6.36v31.38h.21c3.71-6.57,9.86-9.65,16.64-9.65,12.4,0,18.76,8.16,18.76,21.2v33.6h-6.36v-34.45c0-9.12-5.19-14.52-13.99-14.52-9.75,0-15.26,7.95-15.26,18.23v30.74h-6.36v-76.53Z"/>
    <path d="M637.21,386.22h-41.13c.32,13.46,7.1,20.88,18.44,20.88,7.31,0,13.67-5.3,15.37-12.72h6.68c-3.29,12.72-11.24,18.55-23.96,18.55-14.95,0-23.43-12.19-23.43-28.2s9.22-28.2,23.75-28.2c15.58,0,24.17,10.07,24.27,29.68ZM630.32,380.39c-.85-11.34-7.21-18.02-17.38-18.02-8.9,0-15.37,6.68-16.64,18.02h34.03Z"/>
    <path d="M691.16,377.74v33.6h-6.36v-34.77c0-8.38-5.09-14.21-13.99-14.21-9.65,0-15.26,7.84-15.26,18.13v30.85h-6.36v-41.98c0-2.33,0-4.35-.53-11.24h6.57l.32,7.84.21.21c3.71-6.57,9.75-9.65,16.64-9.65,12.61,0,18.76,8.38,18.76,21.2Z"/>
    <path d="M716.5,402.23v9.12h-8.48v-9.12h8.48Z"/>
  </g>
  <g>
    <path d="M302.33,441.02c9.65,0,18.97,2.33,25.76,7.53,7.53,5.83,12.19,16.43,12.19,29.47,0,17.81-7.31,31.59-21.73,37-4.45,1.7-9.86,2.33-15.37,2.33h-27.67v-76.43l26.82.11ZM292.15,504.73c2.23,0,4.45.21,6.68.21,3.71,0,7-.21,9.12-.74,12.61-2.86,15.37-16.11,15.37-26.29s-3.29-21.84-16.64-24.17c-2.23-.42-5.72-.53-8.9-.53-1.91,0-3.82,0-5.62.11v51.41Z"/>
    <path d="M368.26,440.81v13.67h-16.75v-13.67h16.75ZM367.73,463.71v53.64h-15.69v-53.64h15.69Z"/>
    <path d="M417.02,471.13l.53-7.1h14.74c-.42,3.29-.53,5.83-.64,7.74,0,1.8-.11,3.39-.11,4.66v40.71c0,15.48-10.6,21.31-26.5,21.31-13.67,0-22.79-4.03-23.75-17.17h15.05c.42,4.67,3.71,7.42,9.33,7.42,5.09,0,8.37-2.33,9.65-6.47.53-1.7.85-7.1.85-10.28v-2.97c-3.5,4.66-8.06,7.31-14.52,7.31-14.52,0-22.47-12.51-22.47-26.29s7.74-26.5,22.9-26.5c6.57,0,11.45,2.23,14.95,7.63ZM405.36,505.58c7.21,0,11.02-5.62,11.02-15.37,0-10.71-3.82-16.22-10.81-16.22-6.47,0-10.71,5.51-10.71,15.9s3.82,15.69,10.5,15.69Z"/>
    <path d="M462.49,440.81v13.67h-16.75v-13.67h16.75ZM461.96,463.71v53.64h-15.69v-53.64h15.69Z"/>
    <path d="M494.82,464.13h12.72v10.39h-12.72v24.28c0,5.83.95,7.84,7.21,7.84,1.91,0,2.86,0,5.19-.32v10.28c-5.19,1.38-9.54,1.7-12.19,1.7-10.39,0-15.79-3.92-15.79-13.99v-29.79h-10.28v-10.39h10.28v-10.49l15.58-5.72v16.22Z"/>
    <path d="M556.73,467.63c3.39,2.97,5.19,7.53,5.19,14.1l.11,19.61c0,6.57.42,11.87,1.27,16.01h-14.21c-.21-1.38-.42-2.54-.42-3.5-.11-.95-.11-2.23-.11-3.82-3.71,5.41-8.38,8.59-16.11,8.59-3.07,0-7.21-.42-10.18-2.01-4.45-2.44-7.74-7.74-7.74-13.46,0-7.84,3.6-12.83,9.12-16.01s12.83-4.13,20.78-4.13h2.65v-2.12c0-6.15-2.54-9.43-7.84-9.43-2.76,0-5.09,1.38-6.25,3.71-.53,1.17-.74,2.44-.74,4.03h-15.37c.21-12.61,10.6-16.96,22.15-16.96,6.89,0,13.46,1.7,17.7,5.41ZM537.43,508.44c6.57,0,9.65-6.04,9.65-13.57v-2.76l-2.76-.11c-9.65,0-14.52,3.6-14.52,8.8,0,4.35,3.18,7.63,7.63,7.63Z"/>
    <path d="M591.6,440.7v76.64h-15.69v-76.64h15.69Z"/>
    <path d="M619.79,503.25v14.1h-13.46v-14.1h13.46Z"/>
  </g>
  <path class="cls-1" d="M.01,367.28l213.46,121.1.08-79.66-145.58-81.78.16-165.47,145.61-81.85,141.38,82.17-.11,116.36,68.4-.34.26-156.57L213.53,0,0,120.71v246.57Z"/>
</svg>