<?xml version="1.0" encoding="UTF-8"?><svg id="a" xmlns="http://www.w3.org/2000/svg" xmlns:xlink="http://www.w3.org/1999/xlink" viewBox="0 0 211.81 34.39"><defs><style>.c{fill:none;}.d{fill:#ffed00;}.e{clip-path:url(#b);}</style><clipPath id="b"><rect class="c" x="0" width="211.81" height="34.39"/></clipPath></defs><rect class="d" x="177.79" y="0" width="34.02" height="34.02"/><g class="e"><path d="M162.95,6.54h-2.73v12.45h2.73v-3.13l2.99,3.13h3.82l-4.1-4.14,3.85-3.55h-3.74l-2.83,2.77V6.54Zm-9.94,4.76h-2.73v7.69h2.73v-3.99c0-.96,.32-1.78,1.43-1.78,1.35,0,1.23,1.29,1.23,2.02v3.75h2.73v-4.75c0-1.89-.82-3.19-2.89-3.19-1.07,0-1.83,.31-2.46,1.24h-.03v-.99Zm-4.57,0h-2.73v.75c-.57-.67-1.5-1-2.39-1-2.28,0-3.85,1.89-3.85,4.09s1.6,4.11,3.88,4.11c.9,0,1.85-.35,2.33-1.11h.03v.85h2.73v-7.69Zm-4.39,2.11c1.11,0,1.76,.8,1.76,1.74s-.65,1.73-1.76,1.73-1.76-.75-1.76-1.73,.65-1.74,1.76-1.74m-10.05,0c1.11,0,1.76,.8,1.76,1.74s-.65,1.73-1.76,1.73-1.76-.75-1.76-1.73,.65-1.74,1.76-1.74m-4.39,5.58h2.73v-.85h.03c.49,.76,1.43,1.11,2.33,1.11,2.29,0,3.88-1.89,3.88-4.11s-1.57-4.09-3.85-4.09c-.89,0-1.8,.33-2.39,1V6.54h-2.73v12.45Zm-1.63-7.45c-.79-.36-1.66-.49-2.53-.49-1.68,0-3.39,.84-3.39,2.73,0,1.38,.85,1.8,1.71,2.03,.85,.23,1.71,.26,1.71,.86,0,.42-.51,.58-.86,.58-.67,0-1.6-.39-2.16-.78l-.99,1.9c.93,.57,2.01,.88,3.1,.88,1.79,0,3.63-.84,3.63-2.86,0-1.43-.96-2.03-2.23-2.28-.38-.08-1.23-.15-1.23-.68,0-.39,.54-.53,.86-.53,.47,0,1.05,.15,1.47,.38l.91-1.74Zm-7.18,3.78c0-2.62-1.54-4.27-4.22-4.27-2.5,0-4.26,1.54-4.26,4.11s1.9,4.09,4.45,4.09c.89,0,1.76-.21,2.46-.64,.7-.43,1.24-1.09,1.45-1.99h-2.63c-.3,.51-.72,.71-1.31,.71-1.12,0-1.71-.6-1.71-1.71h5.75v-.28Zm-5.7-1.29c.17-.8,.83-1.22,1.62-1.22,.74,0,1.41,.48,1.54,1.22h-3.17Zm-8.48-.62c1.11,0,1.76,.8,1.76,1.74s-.64,1.73-1.76,1.73-1.76-.75-1.76-1.73,.65-1.74,1.76-1.74m1.67,5.58h2.73V6.54h-2.73v5.5c-.57-.67-1.5-1-2.39-1-2.28,0-3.85,1.89-3.85,4.09s1.6,4.11,3.88,4.11c.9,0,1.85-.35,2.33-1.11h.03v.85Zm-12.99-7.69h-2.73v7.69h2.73v-3.99c0-.96,.32-1.78,1.43-1.78,1.35,0,1.23,1.29,1.23,2.02v3.75h2.73v-4.75c0-1.89-.83-3.19-2.89-3.19-1.07,0-1.83,.31-2.46,1.24h-.03v-.99Zm-4.57,0h-2.73v.75c-.57-.67-1.5-1-2.39-1-2.28,0-3.85,1.89-3.85,4.09s1.6,4.11,3.88,4.11c.9,0,1.85-.35,2.33-1.11h.03v.85h2.73v-7.69Zm-4.39,2.11c1.11,0,1.76,.8,1.76,1.74s-.65,1.73-1.76,1.73-1.76-.75-1.76-1.73,.64-1.74,1.76-1.74m-5.91-6.87h-2.73v12.45h2.73V6.54Zm-9.94,4.76h-2.73v7.69h2.73v-3.99c0-.96,.32-1.78,1.43-1.78,1.35,0,1.23,1.29,1.23,2.02v3.75h2.73v-4.75c0-1.89-.83-3.19-2.89-3.19-1.07,0-1.83,.31-2.46,1.24h-.03v-.99Zm-4.1,4.02c0-2.62-1.54-4.27-4.22-4.27-2.5,0-4.26,1.54-4.26,4.11s1.9,4.09,4.45,4.09c.89,0,1.76-.21,2.46-.64,.7-.43,1.24-1.09,1.45-1.99h-2.62c-.3,.51-.72,.71-1.31,.71-1.12,0-1.71-.6-1.71-1.71h5.74v-.28Zm-5.7-1.29c.17-.8,.83-1.22,1.62-1.22,.73,0,1.41,.48,1.54,1.22h-3.17Zm-3.91-2.49c-.79-.36-1.66-.49-2.53-.49-1.68,0-3.39,.84-3.39,2.73,0,1.38,.85,1.8,1.71,2.03,.85,.23,1.71,.26,1.71,.86,0,.42-.51,.58-.86,.58-.67,0-1.6-.39-2.16-.78l-.99,1.9c.93,.57,2.01,.88,3.1,.88,1.79,0,3.63-.84,3.63-2.86,0-1.43-.96-2.03-2.23-2.28-.38-.08-1.23-.15-1.23-.68,0-.39,.54-.53,.86-.53,.47,0,1.05,.15,1.47,.38l.91-1.74Zm-9.08-4.72c-.84,0-1.53,.69-1.53,1.53s.69,1.53,1.53,1.53,1.53-.69,1.53-1.53-.69-1.53-1.53-1.53m1.36,4.49h-2.73v7.69h2.73v-7.69Zm-4.07,4.02c0-2.62-1.55-4.27-4.22-4.27-2.5,0-4.26,1.54-4.26,4.11s1.9,4.09,4.45,4.09c.88,0,1.76-.21,2.46-.64,.71-.43,1.24-1.09,1.46-1.99h-2.62c-.3,.51-.72,.71-1.31,.71-1.12,0-1.71-.6-1.71-1.71h5.75v-.28Zm-5.7-1.29c.17-.8,.83-1.22,1.62-1.22,.74,0,1.41,.48,1.55,1.22h-3.17Zm-5.22-.48h1.9v-2.25h-1.9v-1.25c0-.87,.24-1.29,.94-1.29,.36,0,.65,.12,.96,.25v-2.35c-.38-.19-.75-.27-1.17-.27-1.03,0-2.01,.43-2.68,1.23-.75,.85-.78,1.63-.78,2.7v.98h-.96v2.25h.96v5.44h2.73v-5.44Zm-6.16,0h1.9v-2.25h-1.9v-1.25c0-.87,.24-1.29,.94-1.29,.36,0,.64,.12,.96,.25v-2.35c-.38-.19-.75-.27-1.17-.27-1.03,0-2.01,.43-2.68,1.23-.75,.85-.78,1.63-.78,2.7v.98h-.96v2.25h.96v5.44h2.73v-5.44Zm-6.27-6.73c-.84,0-1.53,.69-1.53,1.53s.69,1.53,1.53,1.53,1.53-.69,1.53-1.53-.69-1.53-1.53-1.53m1.36,4.49h-2.73v7.69h2.73v-7.69Zm-4.58,0h-2.73v.75c-.57-.67-1.5-1-2.39-1-2.28,0-3.85,1.89-3.85,4.09s1.6,4.11,3.88,4.11c.9,0,1.85-.35,2.33-1.11h.03v.85h2.73v-7.69Zm-4.39,2.11c1.11,0,1.76,.8,1.76,1.74s-.65,1.73-1.76,1.73-1.76-.75-1.76-1.73,.65-1.74,1.76-1.74M2.94,9.93h.29c.96,0,2.04,.18,2.04,1.41s-1.08,1.41-2.04,1.41h-.29v-2.82Zm2.91,4.42c1.6-.28,2.47-1.63,2.47-3.19,0-2.41-1.69-3.48-3.93-3.48H0v11.31H2.94v-4.35h.03l2.78,4.35h3.66l-3.55-4.64Z"/><path d="M161.6,21.57v12.45h2.73v-3.95c0-.9,.35-1.83,1.43-1.83s1.23,.93,1.23,1.83v3.95h2.73v-4.71c0-1.95-.95-3.24-2.89-3.24-1.06,0-1.83,.39-2.46,1.23h-.03v-5.73h-2.73Zm-1.75,4.95c-.54-.3-1.17-.45-1.8-.45-2.42,0-4.3,1.71-4.3,4.18,0,2.33,1.9,4.02,4.18,4.02,.66,0,1.32-.14,1.92-.44v-2.31c-.36,.33-.88,.53-1.36,.53-1.12,0-1.92-.78-1.92-1.89s.82-1.88,1.88-1.88c.52,0,1,.24,1.41,.54v-2.31Zm-8.76-4.68c-.84,0-1.53,.69-1.53,1.53s.69,1.53,1.53,1.53,1.53-.69,1.53-1.53-.69-1.53-1.53-1.53m1.36,4.49h-2.73v7.69h2.73v-7.69Zm-4.07,4.02c0-2.63-1.54-4.27-4.22-4.27-2.5,0-4.26,1.54-4.26,4.11s1.9,4.1,4.45,4.1c.89,0,1.76-.21,2.46-.65,.71-.43,1.24-1.09,1.46-1.99h-2.62c-.3,.51-.72,.7-1.31,.7-1.12,0-1.71-.6-1.71-1.71h5.75v-.28Zm-5.7-1.29c.16-.8,.82-1.22,1.62-1.22,.74,0,1.41,.48,1.55,1.22h-3.17Zm-6.45-2.73h-2.73v7.69h2.73v-3.11c0-1.32,.38-2.33,1.89-2.33,.42,0,.78,.05,1.15,.26v-2.62h-.53c-1.06,0-1.96,.42-2.49,1.36h-.03v-1.26Zm-6.82,0h-2.73v7.69h2.73v-3.11c0-1.32,.38-2.33,1.89-2.33,.42,0,.78,.05,1.16,.26v-2.62h-.53c-1.07,0-1.96,.42-2.49,1.36h-.03v-1.26Zm-4.1,4.02c0-2.63-1.54-4.27-4.21-4.27-2.51,0-4.26,1.54-4.26,4.11s1.9,4.1,4.45,4.1c.88,0,1.75-.21,2.46-.65,.71-.43,1.25-1.09,1.46-1.99h-2.62c-.3,.51-.72,.7-1.31,.7-1.12,0-1.71-.6-1.71-1.71h5.75v-.28Zm-5.7-1.29c.17-.8,.82-1.22,1.62-1.22,.74,0,1.41,.48,1.55,1.22h-3.17Zm-4.83-.48h1.54v-2.25h-1.54v-2.31h-2.73v2.31h-.88v2.25h.88v5.45h2.73v-5.45Zm-4.68-2.01c-.79-.36-1.66-.49-2.53-.49-1.68,0-3.39,.84-3.39,2.73,0,1.38,.86,1.8,1.71,2.03,.86,.23,1.71,.26,1.71,.86,0,.42-.51,.59-.86,.59-.68,0-1.6-.39-2.16-.78l-.99,1.9c.93,.57,2.01,.89,3.1,.89,1.79,0,3.63-.84,3.63-2.86,0-1.43-.96-2.03-2.23-2.28-.38-.08-1.23-.15-1.23-.68,0-.39,.54-.53,.86-.53,.47,0,1.05,.15,1.47,.38l.92-1.74Zm-9.84-4.54c-.82,0-1.48,.66-1.48,1.47s.66,1.47,1.48,1.47,1.47-.64,1.47-1.47-.66-1.47-1.47-1.47m-3.84,0c-.82,0-1.48,.66-1.48,1.47s.66,1.47,1.48,1.47,1.47-.64,1.47-1.47-.66-1.47-1.47-1.47m1.92,6.42c1.11,0,1.76,.8,1.76,1.74s-.64,1.73-1.76,1.73-1.76-.75-1.76-1.73,.65-1.74,1.76-1.74m0-2.37c-2.47,0-4.63,1.48-4.63,4.11s2.17,4.1,4.63,4.1,4.64-1.48,4.64-4.1-2.16-4.11-4.64-4.11m-8.3,.26h-2.73v7.69h2.73v-3.11c0-1.32,.38-2.33,1.89-2.33,.42,0,.78,.05,1.16,.26v-2.62h-.53c-1.07,0-1.97,.42-2.49,1.36h-.03v-1.26Zm-4.1,4.02c0-2.63-1.54-4.27-4.21-4.27-2.51,0-4.26,1.54-4.26,4.11s1.9,4.1,4.45,4.1c.89,0,1.75-.21,2.46-.65,.71-.43,1.25-1.09,1.46-1.99h-2.62c-.3,.51-.72,.7-1.31,.7-1.12,0-1.71-.6-1.71-1.71h5.74v-.28Zm-5.7-1.29c.17-.8,.82-1.22,1.62-1.22,.73,0,1.41,.48,1.54,1.22h-3.17Zm-8.24-.62c1.11,0,1.76,.8,1.76,1.74s-.65,1.73-1.76,1.73-1.76-.75-1.76-1.73,.65-1.74,1.76-1.74m-4.39,5.58h2.73v-.85h.03c.5,.76,1.43,1.11,2.33,1.11,2.29,0,3.88-1.89,3.88-4.11s-1.57-4.09-3.85-4.09c-.89,0-1.8,.33-2.39,1v-5.5h-2.73v12.45Zm-7.66-8.84c1.76,0,3.2,1.43,3.2,2.99,0,1.95-1.44,3.38-3.2,3.38s-3.2-1.43-3.2-3.38c0-1.56,1.44-2.99,3.2-2.99m0-2.85c-3.26,0-6.25,2.4-6.25,5.82,0,3.66,2.62,6.24,6.25,6.24s6.25-2.58,6.25-6.24c0-3.42-3-5.82-6.25-5.82"/><path d="M194.81,20.96l-10.42,10.41-4.07-4.07,10.42-10.41-2.03-2.03v-4.07l-1.44-1.45v3.36l-1.42,1.41-5.1-5.1-1.36,1.36c0-.88,.25-3.9,2.67-6.26,2.71-2.64,5.43-1.1,6.37-.16l4.92,4.92-1.23,1.23,2.71,2.7,2.71-2.7-1.22-1.22,4.92-4.92c.94-.93,3.65-2.48,6.36,.16,2.42,2.36,2.62,5.38,2.62,6.25l-1.33-1.34-5.08,5.08-1.42-1.42v-3.35l-1.45,1.45v4.05l-2.03,2.03,10.41,10.42-4.07,4.08-10.44-10.41Z"/></g></svg>