<?xml version="1.0" encoding="utf-8"?>
<!-- Generator: Adobe Illustrator 22.0.1, SVG Export Plug-In . SVG Version: 6.00 Build 0)  -->
<svg version="1.1" id="Ebene_1" xmlns="http://www.w3.org/2000/svg" xmlns:xlink="http://www.w3.org/1999/xlink" x="0px" y="0px"
	 viewBox="0 0 566.9 283.5" style="enable-background:new 0 0 566.9 283.5;" xml:space="preserve">
<style type="text/css">
	.st0{fill:#232382;}
	.st1{fill:#B1162E;}
</style>
<g>
	<g>
		<path class="st0" d="M203.6,161.5c-0.1-0.3-0.2-0.7-0.2-1.3c0-0.6,0.1-1,0.2-1.3c0.3-0.9,1-1.4,2-1.4c1,0,1.7,0.5,2,1.4
			c0.1,0.3,0.2,0.7,0.2,1.5c0,0.1,0,0.1-0.1,0.1h-3.2c0,0-0.1,0-0.1,0.1c0,0.3,0,0.4,0.1,0.6c0.2,0.6,0.7,0.9,1.3,0.9
			c0.6,0,1-0.2,1.3-0.6c0.1-0.1,0.1-0.1,0.2,0l0.4,0.4c0.1,0,0.1,0.1,0,0.2c-0.4,0.5-1.1,0.9-2,0.9
			C204.6,162.9,203.9,162.4,203.6,161.5z M206.8,159.8C206.9,159.8,206.9,159.8,206.8,159.8c0.1-0.3,0-0.5,0-0.6
			c-0.2-0.5-0.6-0.8-1.2-0.8c-0.6,0-1,0.3-1.2,0.8c-0.1,0.2-0.1,0.3-0.1,0.6c0,0,0,0.1,0.1,0.1H206.8z"/>
		<path class="st0" d="M215.9,162.8c-0.1,0-0.1,0-0.1-0.1v-3c0-0.8-0.4-1.3-1.1-1.3c-0.7,0-1.2,0.5-1.2,1.3v3c0,0.1,0,0.1-0.1,0.1
			h-0.7c-0.1,0-0.1,0-0.1-0.1v-3c0-0.8-0.4-1.3-1.1-1.3c-0.7,0-1.2,0.5-1.2,1.3v3c0,0.1,0,0.1-0.1,0.1h-0.7c-0.1,0-0.1,0-0.1-0.1
			v-4.9c0-0.1,0-0.1,0.1-0.1h0.7c0.1,0,0.1,0,0.1,0.1v0.5h0c0.2-0.4,0.7-0.7,1.4-0.7c0.7,0,1.2,0.3,1.5,0.8h0
			c0.4-0.5,0.9-0.8,1.7-0.8c1.2,0,1.8,0.8,1.8,1.9v3.2c0,0.1,0,0.1-0.1,0.1H215.9z"/>
		<path class="st0" d="M218.6,164.7c-0.1,0-0.1,0-0.1-0.1v-6.8c0-0.1,0-0.1,0.1-0.1h0.7c0.1,0,0.1,0,0.1,0.1v0.5h0
			c0.2-0.4,0.7-0.7,1.5-0.7c0.9,0,1.5,0.4,1.8,1.2c0.1,0.4,0.2,0.8,0.2,1.4c0,0.6,0,1-0.2,1.5c-0.3,0.8-0.9,1.2-1.8,1.2
			c-0.8,0-1.2-0.3-1.5-0.7h0v2.4c0,0.1,0,0.1-0.1,0.1H218.6z M221.7,161.3c0.1-0.3,0.1-0.6,0.1-1.1c0-0.5,0-0.8-0.1-1.1
			c-0.2-0.5-0.6-0.8-1.1-0.8c-0.6,0-1,0.3-1.1,0.8c-0.1,0.3-0.1,0.6-0.1,1.1c0,0.5,0,0.8,0.1,1.1c0.2,0.5,0.6,0.8,1.1,0.8
			C221.2,162.1,221.6,161.8,221.7,161.3z"/>
		<path class="st0" d="M224.2,161.5c-0.1-0.4-0.2-0.7-0.2-1.3c0-0.6,0.1-0.9,0.2-1.3c0.3-0.9,1-1.4,2-1.4c1,0,1.7,0.5,2,1.4
			c0.1,0.4,0.2,0.7,0.2,1.3c0,0.6-0.1,1-0.2,1.3c-0.3,0.9-1,1.4-2,1.4C225.2,162.9,224.5,162.4,224.2,161.5z M227.4,161.3
			c0.1-0.3,0.1-0.6,0.1-1c0-0.5,0-0.8-0.1-1c-0.2-0.5-0.6-0.8-1.2-0.8c-0.6,0-1,0.3-1.2,0.8c-0.1,0.3-0.1,0.5-0.1,1
			c0,0.5,0,0.8,0.1,1c0.2,0.5,0.6,0.8,1.2,0.8C226.8,162.1,227.2,161.8,227.4,161.3z"/>
		<path class="st0" d="M234.4,162.8c-0.1,0-0.1,0-0.1-0.1l-1.2-3.7h0l-1.2,3.7c0,0.1-0.1,0.1-0.1,0.1h-0.6c-0.1,0-0.1,0-0.1-0.1
			l-1.6-4.9c0-0.1,0-0.1,0.1-0.1h0.7c0.1,0,0.1,0,0.1,0.1l1.1,3.7h0l1.2-3.7c0-0.1,0.1-0.1,0.1-0.1h0.6c0.1,0,0.1,0,0.1,0.1l1.2,3.7
			h0l1.1-3.7c0-0.1,0.1-0.1,0.1-0.1h0.7c0.1,0,0.1,0,0.1,0.1l-1.6,4.9c0,0.1-0.1,0.1-0.1,0.1H234.4z"/>
		<path class="st0" d="M237.9,161.5c-0.1-0.3-0.2-0.7-0.2-1.3c0-0.6,0.1-1,0.2-1.3c0.3-0.9,1-1.4,2-1.4c1,0,1.7,0.5,2,1.4
			c0.1,0.3,0.2,0.7,0.2,1.5c0,0.1,0,0.1-0.1,0.1h-3.2c0,0-0.1,0-0.1,0.1c0,0.3,0,0.4,0.1,0.6c0.2,0.6,0.7,0.9,1.3,0.9
			c0.6,0,1-0.2,1.3-0.6c0.1-0.1,0.1-0.1,0.2,0l0.4,0.4c0.1,0,0.1,0.1,0,0.2c-0.4,0.5-1.1,0.9-2,0.9
			C238.9,162.9,238.2,162.4,237.9,161.5z M241.1,159.8C241.1,159.8,241.1,159.8,241.1,159.8c0.1-0.3,0-0.5,0-0.6
			c-0.2-0.5-0.6-0.8-1.2-0.8c-0.6,0-1,0.3-1.2,0.8c-0.1,0.2-0.1,0.3-0.1,0.6c0,0,0,0.1,0.1,0.1H241.1z"/>
		<path class="st0" d="M243.7,162.8c-0.1,0-0.1,0-0.1-0.1v-4.9c0-0.1,0-0.1,0.1-0.1h0.7c0.1,0,0.1,0,0.1,0.1v0.5h0
			c0.2-0.4,0.7-0.7,1.4-0.7c0.4,0,0.8,0.1,1,0.4c0.1,0.1,0.1,0.1,0,0.1l-0.4,0.5c0,0.1-0.1,0.1-0.2,0c-0.2-0.1-0.5-0.2-0.8-0.2
			c-0.8,0-1.1,0.6-1.1,1.5v2.8c0,0.1,0,0.1-0.1,0.1H243.7z"/>
		<path class="st0" d="M247.7,161.5c-0.1-0.3-0.2-0.7-0.2-1.3c0-0.6,0.1-1,0.2-1.3c0.3-0.9,1-1.4,2-1.4c1,0,1.7,0.5,2,1.4
			c0.1,0.3,0.2,0.7,0.2,1.5c0,0.1,0,0.1-0.1,0.1h-3.2c0,0-0.1,0-0.1,0.1c0,0.3,0,0.4,0.1,0.6c0.2,0.6,0.7,0.9,1.3,0.9
			c0.6,0,1-0.2,1.3-0.6c0.1-0.1,0.1-0.1,0.2,0l0.4,0.4c0.1,0,0.1,0.1,0,0.2c-0.4,0.5-1.1,0.9-2,0.9
			C248.7,162.9,248,162.4,247.7,161.5z M250.9,159.8C250.9,159.8,251,159.8,250.9,159.8c0.1-0.3,0-0.5,0-0.6
			c-0.2-0.5-0.6-0.8-1.2-0.8c-0.6,0-1,0.3-1.2,0.8c-0.1,0.2-0.1,0.3-0.1,0.6c0,0,0,0.1,0.1,0.1H250.9z"/>
		<path class="st0" d="M256.6,162.8c-0.1,0-0.1,0-0.1-0.1v-0.5h0c-0.2,0.4-0.7,0.7-1.5,0.7c-0.9,0-1.5-0.4-1.8-1.2
			c-0.1-0.4-0.2-0.8-0.2-1.5c0-0.6,0-1,0.2-1.4c0.3-0.8,0.9-1.2,1.8-1.2c0.8,0,1.2,0.3,1.5,0.7h0v-2.6c0-0.1,0-0.1,0.1-0.1h0.7
			c0.1,0,0.1,0,0.1,0.1v7c0,0.1,0,0.1-0.1,0.1H256.6z M256.4,161.3c0.1-0.2,0.1-0.6,0.1-1.1c0-0.5,0-0.8-0.1-1.1
			c-0.2-0.5-0.6-0.8-1.1-0.8c-0.6,0-1,0.3-1.1,0.8c-0.1,0.3-0.1,0.6-0.1,1.1c0,0.5,0,0.8,0.1,1.1c0.2,0.5,0.6,0.8,1.1,0.8
			C255.8,162.1,256.2,161.8,256.4,161.3z"/>
		<path class="st0" d="M262,162.8c-0.1,0-0.1,0-0.1-0.1v-7c0-0.1,0-0.1,0.1-0.1h0.7c0.1,0,0.1,0,0.1,0.1v2.6h0
			c0.2-0.4,0.7-0.7,1.5-0.7c0.9,0,1.5,0.4,1.8,1.2c0.1,0.4,0.2,0.8,0.2,1.4c0,0.6,0,1-0.2,1.5c-0.3,0.8-0.9,1.2-1.8,1.2
			c-0.8,0-1.2-0.3-1.5-0.7h0v0.5c0,0.1,0,0.1-0.1,0.1H262z M265.1,161.3c0.1-0.3,0.1-0.6,0.1-1.1c0-0.5,0-0.8-0.1-1.1
			c-0.2-0.5-0.6-0.8-1.1-0.8c-0.6,0-1,0.3-1.1,0.8c-0.1,0.3-0.1,0.6-0.1,1.1c0,0.5,0,0.8,0.1,1.1c0.2,0.5,0.6,0.8,1.1,0.8
			C264.6,162.1,264.9,161.8,265.1,161.3z"/>
		<path class="st0" d="M267.7,164.7c-0.1,0-0.1,0-0.1-0.1V164c0-0.1,0-0.1,0.1-0.1h0.2c0.4,0,0.6-0.2,0.9-0.8l0.2-0.5l-1.9-4.9
			c0-0.1,0-0.1,0.1-0.1h0.7c0.1,0,0.1,0,0.1,0.1l1.3,3.7h0l1.3-3.7c0-0.1,0.1-0.1,0.1-0.1h0.7c0.1,0,0.1,0,0.1,0.1l-2,5.4
			c-0.4,1.2-0.8,1.5-1.6,1.5H267.7z"/>
		<path class="st0" d="M276.8,162.8c-1,0-1.4-0.4-1.4-1.5v-2.9c0,0,0-0.1-0.1-0.1h-0.4c-0.1,0-0.1,0-0.1-0.1v-0.5
			c0-0.1,0-0.1,0.1-0.1h0.4c0,0,0.1,0,0.1-0.1v-1.4c0-0.1,0-0.1,0.1-0.1h0.7c0.1,0,0.1,0,0.1,0.1v1.4c0,0,0,0.1,0.1,0.1h0.8
			c0.1,0,0.1,0,0.1,0.1v0.5c0,0.1,0,0.1-0.1,0.1h-0.8c0,0-0.1,0-0.1,0.1v2.9c0,0.5,0.2,0.7,0.7,0.7h0.2c0.1,0,0.1,0,0.1,0.1v0.6
			c0,0.1,0,0.1-0.1,0.1H276.8z"/>
		<path class="st0" d="M278.6,161.5c-0.1-0.3-0.2-0.7-0.2-1.3c0-0.6,0.1-1,0.2-1.3c0.3-0.9,1-1.4,2-1.4c1,0,1.7,0.5,2,1.4
			c0.1,0.3,0.2,0.7,0.2,1.5c0,0.1,0,0.1-0.1,0.1h-3.2c0,0-0.1,0-0.1,0.1c0,0.3,0,0.4,0.1,0.6c0.2,0.6,0.7,0.9,1.3,0.9
			c0.6,0,1-0.2,1.3-0.6c0.1-0.1,0.1-0.1,0.2,0l0.4,0.4c0.1,0,0.1,0.1,0,0.2c-0.4,0.5-1.1,0.9-2,0.9
			C279.6,162.9,278.9,162.4,278.6,161.5z M281.8,159.8C281.8,159.8,281.9,159.8,281.8,159.8c0.1-0.3,0-0.5,0-0.6
			c-0.2-0.5-0.6-0.8-1.2-0.8c-0.6,0-1,0.3-1.2,0.8c-0.1,0.2-0.1,0.3-0.1,0.6c0,0,0,0.1,0.1,0.1H281.8z"/>
		<path class="st0" d="M284.2,158.9c0.3-0.9,1-1.4,2-1.4c0.8,0,1.4,0.3,1.8,0.9c0,0.1,0,0.1,0,0.1l-0.5,0.4c-0.1,0-0.1,0-0.2,0
			c-0.3-0.4-0.6-0.6-1.1-0.6c-0.6,0-1,0.3-1.1,0.8c-0.1,0.3-0.1,0.6-0.1,1c0,0.5,0,0.8,0.1,1c0.2,0.5,0.6,0.8,1.1,0.8
			c0.5,0,0.8-0.2,1.1-0.6c0-0.1,0.1-0.1,0.2,0l0.5,0.4c0.1,0.1,0.1,0.1,0,0.2c-0.4,0.5-1,0.9-1.8,0.9c-1,0-1.7-0.5-2-1.4
			c-0.1-0.3-0.2-0.7-0.2-1.3C284,159.7,284.1,159.2,284.2,158.9z"/>
		<path class="st0" d="M292.8,162.8c-0.1,0-0.1,0-0.1-0.1v-3c0-0.8-0.4-1.3-1.1-1.3c-0.7,0-1.2,0.5-1.2,1.3v3c0,0.1,0,0.1-0.1,0.1
			h-0.7c-0.1,0-0.1,0-0.1-0.1v-7c0-0.1,0-0.1,0.1-0.1h0.7c0.1,0,0.1,0,0.1,0.1v2.6h0c0.2-0.4,0.7-0.7,1.4-0.7c1.1,0,1.8,0.8,1.8,1.9
			v3.2c0,0.1,0,0.1-0.1,0.1H292.8z"/>
		<path class="st0" d="M298.7,162.8c-0.1,0-0.1,0-0.1-0.1v-3c0-0.8-0.4-1.3-1.1-1.3c-0.7,0-1.2,0.5-1.2,1.3v3c0,0.1,0,0.1-0.1,0.1
			h-0.7c-0.1,0-0.1,0-0.1-0.1v-4.9c0-0.1,0-0.1,0.1-0.1h0.7c0.1,0,0.1,0,0.1,0.1v0.5h0c0.2-0.4,0.7-0.7,1.4-0.7
			c1.1,0,1.8,0.8,1.8,1.9v3.2c0,0.1,0,0.1-0.1,0.1H298.7z"/>
		<path class="st0" d="M301.2,161.5c-0.1-0.4-0.2-0.7-0.2-1.3c0-0.6,0.1-0.9,0.2-1.3c0.3-0.9,1-1.4,2-1.4c1,0,1.7,0.5,2,1.4
			c0.1,0.4,0.2,0.7,0.2,1.3c0,0.6-0.1,1-0.2,1.3c-0.3,0.9-1,1.4-2,1.4C302.2,162.9,301.5,162.4,301.2,161.5z M304.4,161.3
			c0.1-0.3,0.1-0.6,0.1-1c0-0.5,0-0.8-0.1-1c-0.2-0.5-0.6-0.8-1.2-0.8c-0.6,0-1,0.3-1.2,0.8c-0.1,0.3-0.1,0.5-0.1,1
			c0,0.5,0,0.8,0.1,1c0.2,0.5,0.6,0.8,1.2,0.8C303.8,162.1,304.2,161.8,304.4,161.3z"/>
		<path class="st0" d="M308.2,162.8c-0.9,0-1.3-0.4-1.3-1.3v-5.9c0-0.1,0-0.1,0.1-0.1h0.7c0.1,0,0.1,0,0.1,0.1v5.8
			c0,0.4,0.2,0.6,0.5,0.6h0.2c0.1,0,0.1,0,0.1,0.1v0.6c0,0.1,0,0.1-0.1,0.1H308.2z"/>
		<path class="st0" d="M309.9,161.5c-0.1-0.4-0.2-0.7-0.2-1.3c0-0.6,0.1-0.9,0.2-1.3c0.3-0.9,1-1.4,2-1.4c1,0,1.7,0.5,2,1.4
			c0.1,0.4,0.2,0.7,0.2,1.3c0,0.6-0.1,1-0.2,1.3c-0.3,0.9-1,1.4-2,1.4C310.9,162.9,310.1,162.4,309.9,161.5z M313,161.3
			c0.1-0.3,0.1-0.6,0.1-1c0-0.5,0-0.8-0.1-1c-0.2-0.5-0.6-0.8-1.2-0.8c-0.6,0-1,0.3-1.2,0.8c-0.1,0.3-0.1,0.5-0.1,1
			c0,0.5,0,0.8,0.1,1c0.2,0.5,0.6,0.8,1.2,0.8C312.5,162.1,312.9,161.8,313,161.3z"/>
		<path class="st0" d="M315.5,164.1c0-0.1,0-0.1,0-0.1l0.4-0.4c0.1-0.1,0.1-0.1,0.2,0c0.4,0.3,0.7,0.5,1.2,0.5
			c0.8,0,1.3-0.4,1.3-1.4V162h0c-0.2,0.4-0.7,0.7-1.4,0.7c-0.9,0-1.5-0.4-1.7-1.2c-0.1-0.4-0.2-0.8-0.2-1.3c0-0.6,0-1,0.2-1.3
			c0.3-0.8,0.9-1.2,1.7-1.2c0.7,0,1.2,0.3,1.4,0.7h0v-0.5c0-0.1,0-0.1,0.1-0.1h0.7c0.1,0,0.1,0,0.1,0.1v4.8c0,1.5-0.8,2.3-2.2,2.3
			C316.6,164.8,315.9,164.5,315.5,164.1z M318.5,161.1c0.1-0.3,0.1-0.6,0.1-1s0-0.7-0.1-1c-0.2-0.5-0.6-0.8-1.1-0.8
			c-0.6,0-0.9,0.3-1.1,0.8c-0.1,0.3-0.1,0.6-0.1,1c0,0.4,0,0.7,0.1,1c0.2,0.5,0.5,0.8,1.1,0.8C318,161.9,318.4,161.7,318.5,161.1z"
			/>
		<path class="st0" d="M321.4,164.7c-0.1,0-0.1,0-0.1-0.1V164c0-0.1,0-0.1,0.1-0.1h0.2c0.4,0,0.6-0.2,0.9-0.8l0.2-0.5l-1.9-4.9
			c0-0.1,0-0.1,0.1-0.1h0.7c0.1,0,0.1,0,0.1,0.1l1.3,3.7h0l1.3-3.7c0-0.1,0.1-0.1,0.1-0.1h0.7c0.1,0,0.1,0,0.1,0.1l-2,5.4
			c-0.4,1.2-0.8,1.5-1.6,1.5H321.4z"/>
	</g>
	<g>
		<path class="st0" d="M257.1,146.4c-0.4,0-0.5-0.1-0.6-0.4l-4.7-9.9h-3.6c-0.2,0-0.2,0.1-0.2,0.2v9.7c0,0.2-0.2,0.4-0.4,0.4h-5.1
			c-0.2,0-0.4-0.2-0.4-0.4v-26.3c0-0.2,0.2-0.4,0.4-0.4h10.8c5.5,0,9.2,3.5,9.2,8.4c0,3.5-1.8,6.2-4.8,7.5l5.3,10.7
			c0.1,0.2,0,0.5-0.3,0.5H257.1L257.1,146.4z M256.7,127.7c0-2-1.4-3.3-3.7-3.3h-4.8c-0.2,0-0.2,0.1-0.2,0.2v6.3
			c0,0.2,0.1,0.2,0.2,0.2h4.8C255.2,131.1,256.7,129.8,256.7,127.7L256.7,127.7z"/>
		<path class="st0" d="M295.1,143.1c-0.2-0.2-0.2-0.4,0-0.7l3-3.5c0.2-0.2,0.4-0.2,0.6,0c1.8,1.4,4.2,2.8,7.1,2.8
			c2.8,0,4.4-1.3,4.4-3.2c0-1.6-1-2.6-4.2-3l-1.4-0.2c-5.5-0.8-8.6-3.3-8.6-8.1c0-5,3.7-8.3,9.6-8.3c3.6,0,6.9,1.1,9.2,2.8
			c0.2,0.2,0.3,0.3,0.1,0.6l-2.4,3.6c-0.2,0.2-0.4,0.2-0.6,0.1c-2.1-1.4-4.1-2.1-6.3-2.1c-2.4,0-3.6,1.2-3.6,2.9
			c0,1.6,1.1,2.5,4.2,3l1.4,0.2c5.6,0.8,8.5,3.3,8.5,8.2c0,4.9-3.6,8.5-10.6,8.5C301.3,146.8,297.2,145.1,295.1,143.1L295.1,143.1z"
			/>
		<path class="st0" d="M319.9,119.7c0-0.2,0.2-0.4,0.4-0.4h17.4c0.2,0,0.4,0.2,0.4,0.4v4.3c0,0.2-0.2,0.4-0.4,0.4h-11.7
			c-0.2,0-0.2,0.1-0.2,0.2v5.4c0,0.2,0.1,0.2,0.2,0.2h9.1c0.2,0,0.4,0.2,0.4,0.4v4.2c0,0.2-0.2,0.4-0.4,0.4h-9.1
			c-0.2,0-0.2,0.1-0.2,0.2v5.6c0,0.2,0.1,0.2,0.2,0.2h11.7c0.2,0,0.4,0.2,0.4,0.4v4.3c0,0.2-0.2,0.4-0.4,0.4h-17.4
			c-0.2,0-0.4-0.2-0.4-0.4V119.7L319.9,119.7z"/>
		<path class="st0" d="M342.2,119.7c0-0.2,0.2-0.4,0.4-0.4h4.8c0.3,0,0.5,0.1,0.7,0.4l9.9,17h0.2v-17c0-0.2,0.2-0.4,0.4-0.4h4.5
			c0.2,0,0.4,0.2,0.4,0.4V146c0,0.2-0.2,0.4-0.4,0.4h-4.7c-0.3,0-0.5-0.1-0.7-0.4l-10-17h-0.2v17c0,0.2-0.2,0.4-0.4,0.4h-4.5
			c-0.2,0-0.4-0.2-0.4-0.4V119.7L342.2,119.7z"/>
		<g>
			<path class="st1" d="M264.9,132.8c0,1.3,0.2,2.6,0.5,3.8c0.1,0.4,0.3,0.4,0.6,0.2c0.4-0.3,6-3.7,6-3.7c0.5-0.3,0.5-0.5,0-0.7
				c0,0-5.5-3.4-6-3.7c-0.3-0.2-0.5-0.1-0.6,0.2C265.1,130.2,264.9,131.5,264.9,132.8L264.9,132.8z"/>
			<path class="st0" d="M279.1,147c7.8,0,14.2-6.3,14.2-14.2c0-7.8-6.3-14.2-14.2-14.2c-5.1,0-9.6,2.7-12.1,6.8
				c-0.1,0.2-0.1,0.4,0.1,0.5l4.1,2.6c0.2,0.2,0.5,0.1,0.6-0.1c1.5-2.5,4.2-4.2,7.3-4.2c4.7,0,8.5,3.8,8.5,8.5
				c0,4.7-3.8,8.5-8.5,8.5c-3.1,0-5.9-1.7-7.4-4.2c-0.1-0.2-0.4-0.2-0.6-0.1l-4.1,2.6c-0.2,0.2-0.3,0.3-0.1,0.5
				C269.4,144.2,273.9,147,279.1,147L279.1,147z"/>
		</g>
	</g>
</g>
</svg>
