<?xml version="1.0" encoding="UTF-8"?>
<svg id="uuid-dd350f1b-00ec-4270-9ed3-7e253d4980c6" data-name="Ebene 1" xmlns="http://www.w3.org/2000/svg" viewBox="0 0 1039.54 150.48">
  <path d="M476.36,102.41v12.06c0,.15.82,2.48,1.01,2.92,1.44,3.38,3.83,3.86,7.17,4.62l96.01.04c3.24.84,4.96,3.85,5.32,7.03.39,3.47.42,13.65-.67,16.67-.84,2.32-2.75,3.95-5.23,4.32l-105.6.05c-21.95-2.4-31.02-13.2-32.82-34.55-1.31-15.52-1.5-36.66,0-52.14,1.64-16.94,8.66-25.83,26.13-28.33l94.36-.05c31.77,3.09,26.6,34.58,26.63,58.06-.53,3-1.86,6.14-4.48,7.87-.41.27-2.9,1.42-3.07,1.42h-104.76ZM553.32,80.52v-13.75c0-1.1-2.39-3.8-3.39-4.47-1.36-.9-3.15-1.09-4.74-1.44h-60.7c-2.72.53-5.41,1.24-6.93,3.73-.22.35-1.19,2.59-1.19,2.73v13.19h76.96Z" style="fill: #50dce0;"/>
  <path d="M300.4,35.21l110.54-.16c2.21.05,4.99,2.66,5.3,4.8.45,3.08.45,14.29,0,17.37-.36,2.43-2.78,3.99-5.02,4.53-31.7.6-63.49.07-95.23.27-.8.12-1.69.55-2.28,1.09-2.73,2.5-3.27,11.03-1.09,14.03,1.01,1.4,2.92,1.77,4.5,2.23h78.07c25.56,2.17,27.04,23.85,25.56,44.65-1.1,15.4-10.79,24.68-26.11,25.54-37.31,1.25-74.96.16-112.39.56-3.33-.42-5.42-2.61-5.85-5.94s-.5-14.07-.01-17.36c.35-2.38,2.08-4,4.3-4.68l98.78-.08c6.37-.14,6.91-7.67,6.41-12.61-.42-4.13-1.57-6.29-5.89-7.02h-79.2c-14.91-1.9-22.21-9.73-23.88-24.4-2.22-19.41-.08-40.38,23.48-42.81Z" style="fill: #50dce0;"/>
  <path d="M642.49,35.21l91.44-.16c22.18,2.47,32.41,13.97,34.5,35.67,2.28,23.64-.51,48.03.6,71.82-.38,4.26-2.72,6.98-7.06,7.53-4.68.6-15.94.48-20.78.04-3.51-.32-6.07-1.63-7.31-5.04-.58-22.11-.11-44.37-.24-66.53-.64-7.59-4.5-11.7-12.08-12.62-21.24,1.21-44.16-1.56-65.2,0-6.19.46-11.07,4.16-12.02,10.44v65.63c-.61,5.33-2.76,7.65-8.16,8.14-5.02.45-14.68.45-19.69,0-3.92-.35-7.24-2.24-7.58-6.45v-73.54c1.74-19.96,13.37-32.87,33.58-34.91Z" style="fill: #50dce0;"/>
  <path d="M175.1,35.74l51.03-.12c44.25,3.89,29.9,52.38,32.25,82.75-1.72,19.06-14.03,30.11-32.81,31.75h-92.72c-12.71-1.17-24.67-6.83-29.75-19.1-3.27-7.9-4.39-22.62-3.67-31.16.4-4.74,1.96-8,7.06-8.65,4.68-.6,15.94-.48,20.78-.04,3.59.32,7.05,2.06,7.54,5.93,1.04,8.18-3.22,21.98,8.86,23.69l70.1.15c4.04-.34,8.26-2.99,9.15-7.13.29-1.35.6-4.55.69-6.05.54-9.44.59-23.4-.56-32.59-.35-2.8-.02-4.01-1.8-6.62-1.27-1.87-4.18-3.42-6.4-3.71-11.49-1.48-25.89,1.14-37.63,0-4.26-.42-6.5-2.92-6.97-7.06-.41-3.64-.41-11.47-.05-15.14.3-3.03,2.05-5.77,4.9-6.89Z" style="fill: #50dce0;"/>
  <path d="M851.66,81.01c.38.28,9.02.28,9.4,0,.14-.1.14-.69.38-.99,8.84-11.07,16.71-22.96,25.29-34.24,1.81-2.38,5.93-8.52,8.13-9.84.79-.47,2.12-.79,3.05-.88,9.77-.95,21,.76,30.93,0,4.98.61,4.28,4.71,1.63,7.84-12.86,15.4-25.82,30.73-38.44,46.33-.59.73-2.34,1.82-2.2,2.71.23,1.44,2.85,3.39,3.88,4.57,10.59,12.15,20.97,24.3,31.45,36.48,2.09,2.43,9.73,9.85,10.1,12.35.51,3.39-.98,4.47-4.18,4.78-9.41.91-20.23-.73-29.81,0-2.34-.09-3.81-1.56-5.58-2.84-11.38-14.07-22.37-28.5-34.03-42.34-.36-.43-.5-1.25-.61-1.33-.26-.19-5.5-.18-6.41-.1-1.58.13-2.06.87-3.07,1.99-11.4,12.62-21.14,28.43-32.57,40.97-1.58,1.73-3.4,3.42-5.88,3.67-9.98-.73-21.11.9-30.94,0-3.37-.31-5.16-3.18-3.32-6.17,13.07-15.4,26.06-30.88,39.01-46.32.92-1.09,3.1-2.62,3.31-4.01.09-.59-2.69-4.14-3.3-4.96-11.22-14.97-24.8-30.4-35.07-45.76-2.33-3.49-3.81-6.8,1.62-7.84,9.94.76,21.17-.94,30.93,0,3.28.32,4.59,2.33,6.69,4.54,9.98,13.1,18.95,27.6,29.22,40.42.24.3.24.89.38.99Z" style="fill: #50dce0;"/>
  <path d="M1001.01,35.08h33.42c1.72,0,3.43,3.8,3.63,5.35.51,3.99.41,13.27.04,17.39-.2,2.21-.9,4.36-2.85,5.57-.24.15-1.84.86-1.94.86h-32.3v49.1c0,.21,1.67,3.18,1.99,3.63,1.26,1.77,4.14,3.47,6.28,3.83,7.47,1.27,17.65-.97,25.15.13,3.14.46,4.51,2.91,4.8,5.86.4,4.09.47,13.96-.04,17.95-.37,2.9-1.78,4.95-4.78,5.33-22.57-1.16-55.56,6.73-65.85-20.02-.95-2.48-2.93-9.39-2.93-11.66v-54.15h-18.82c-.11,0-1.71-.72-1.94-.86-1.73-1.08-2.66-3.01-2.85-5.01-.4-4.11-.47-13.94.04-17.95.2-1.56,1.91-5.35,3.63-5.35h19.94V3.93c0-.9,2.93-3.74,4.23-3.63,8.24.63,17.78-.88,25.85-.03,1.12.12,3.18.87,3.91,1.71.28.32,1.41,3.43,1.41,3.64v29.46Z" style="fill: #50dce0;"/>
  <path d="M33.59,35.78l110.96-.02c2.6.53,4.53,2.57,4.87,5.23.4,3.17.52,16.1-.08,18.95-.68,3.23-3.92,4.57-6.9,4.89l-95.53-.03c-5.64.68-9.98,3.76-11.38,9.4-1.54,23.2-.29,46.72-.66,70.04-.27,2.81-2.5,5.44-5.37,5.86-7.27,1.06-17.05-.68-24.6-.09-2.93-1.1-4.58-2.5-4.9-5.77v-74.11c1.76-19.81,13.65-32.34,33.58-34.34Z" style="fill: #50dce0;"/>
</svg>