<?xml version="1.0" encoding="UTF-8"?>
<svg id="Ebene_1" xmlns="http://www.w3.org/2000/svg" xmlns:xlink="http://www.w3.org/1999/xlink" xmlns:serif="http://www.serif.com/" version="1.1" viewBox="0 0 800 400">
  <!-- Generator: Adobe Illustrator 29.2.0, SVG Export Plug-In . SVG Version: 2.1.0 Build 108)  -->
  <defs>
    <style>
      .st0 {
        fill: #232382;
      }

      .st1 {
        fill: #b1162e;
      }
    </style>
  </defs>
  <g>
    <path class="st0" d="M7,307.9c-.5-1.5-1-3.5-1-6.5s.5-5,1-6.5c1.5-4.4,5-6.9,9.8-6.9s8.4,2.4,9.8,6.9c.5,1.5,1,3.5,1,7.4s0,.5-.5.5h-15.9s-.5,0-.5.5c0,1.5,0,2,.5,3,1,3,3.5,4.4,6.5,4.4s5-1,6.5-3c.4-.4.7-.4,1,0l2,2c.5,0,.5.5,0,1-2,2.4-5.4,4.4-9.8,4.4-5.4-.5-8.9-3-10.4-7.4h.1ZM22.8,300s.5-.5,0-.5c.5-1.5,0-2.4,0-3-1-2.4-3-3.9-5.9-3.9s-5,1.5-5.9,3.9c-.5,1-.5,1.5-.5,3,0,0,0,.5.5.5h11.9Z"/>
    <path class="st0" d="M67.8,314.4c-.4,0-.5-.2-.5-.5v-14.8c0-3.9-2-6.5-5.4-6.5s-5.9,2.4-5.9,6.5v14.8c0,.4-.2.5-.5.5h-3.5c-.4,0-.5-.2-.5-.5v-14.8c0-3.9-2-6.5-5.4-6.5s-5.9,2.4-5.9,6.5v14.8c0,.4-.2.5-.5.5h-3.5c-.4,0-.5-.2-.5-.5v-24.2c0-.4.2-.5.5-.5h3.5c.4,0,.5.2.5.5v2.4c1-2,3.5-3.5,6.9-3.5s5.9,1.5,7.4,3.9c2-2.4,4.4-3.9,8.4-3.9,5.9,0,8.9,3.9,8.9,9.4v15.9c0,.4-.2.5-.5.5h-3.5.2Z"/>
    <path class="st0" d="M81.2,323.7c-.4,0-.5-.2-.5-.5v-33.7c0-.4.2-.5.5-.5h3.5c.4,0,.5.2.5.5v2.4c1-2,3.5-3.5,7.4-3.5s7.4,2,8.9,5.9c.5,2,1,3.9,1,6.9s0,5-1,7.4c-1.5,3.9-4.4,5.9-8.9,5.9s-5.9-1.5-7.4-3.5v11.9c0,.4-.2.5-.5.5h-3.5v.2ZM96.5,307c.5-1.5.5-3,.5-5.4s0-3.9-.5-5.4c-1-2.4-3-3.9-5.4-3.9s-5,1.5-5.4,3.9c-.5,1.5-.5,3-.5,5.4s0,3.9.5,5.4c1,2.4,3,3.9,5.4,3.9s5-1.5,5.4-3.9Z"/>
    <path class="st0" d="M108.9,307.9c-.5-2-1-3.5-1-6.5s.5-4.4,1-6.5c1.5-4.4,5-6.9,9.8-6.9s8.4,2.4,9.8,6.9c.5,2,1,3.5,1,6.5s-.5,5-1,6.5c-1.5,4.4-5,6.9-9.8,6.9s-8.4-2.4-9.8-6.9ZM124.7,307c.5-1.5.5-3,.5-5s0-3.9-.5-5c-1-2.4-3-3.9-5.9-3.9s-5,1.5-5.9,3.9c-.5,1.5-.5,2.4-.5,5s0,3.9.5,5c1,2.4,3,3.9,5.9,3.9s5-1.5,5.9-3.9Z"/>
    <path class="st0" d="M159.3,314.4c-.4,0-.5-.2-.5-.5l-5.9-18.3-5.9,18.3c0,.5-.5.5-.5.5h-3c-.4,0-.5-.2-.5-.5l-7.9-24.2c0-.4.2-.5.5-.5h3.5c.4,0,.5.2.5.5l5.4,18.3,5.9-18.3c0-.5.5-.5.5-.5h3c.4,0,.5.2.5.5l5.9,18.3,5.4-18.3c0-.5.5-.5.5-.5h3.5c.4,0,.5.2.5.5l-7.9,24.2c0,.5-.5.5-.5.5h-3Z"/>
    <path class="st0" d="M176.7,307.9c-.5-1.5-1-3.5-1-6.5s.5-5,1-6.5c1.5-4.4,5-6.9,9.8-6.9s8.4,2.4,9.8,6.9c.5,1.5,1,3.5,1,7.4s0,.5-.5.5h-15.9s-.5,0-.5.5c0,1.5,0,2,.5,3,1,3,3.5,4.4,6.5,4.4s5-1,6.5-3c.4-.4.7-.4,1,0l2,2c.5,0,.5.5,0,1-2,2.4-5.4,4.4-9.8,4.4-5.4-.5-8.9-3-10.4-7.4h.1ZM192.4,299.5c.5-1.5,0-2.4,0-3-1-2.4-3-3.9-5.9-3.9s-5,1.5-5.9,3.9c-.5,1-.5,1.5-.5,3,0,0,0,.5.5.5h11.9v-.5h0Z"/>
    <path class="st0" d="M205.3,314.4c-.4,0-.5-.2-.5-.5v-24.2c0-.4.2-.5.5-.5h3.5c.4,0,.5.2.5.5v2.4c1-2,3.5-3.5,6.9-3.5s3.9.5,5,2c.4.4.4.5,0,.5l-2,2.4c0,.5-.5.5-1,0-1-.5-2.4-1-3.9-1-3.9,0-5.4,3-5.4,7.4v13.9c0,.4-.2.5-.5.5h-3.1Z"/>
    <path class="st0" d="M225.1,307.9c-.5-1.5-1-3.5-1-6.5s.5-5,1-6.5c1.5-4.4,5-6.9,9.8-6.9s8.4,2.4,9.8,6.9c.5,1.5,1,3.5,1,7.4s0,.5-.5.5h-15.9s-.5,0-.5.5c0,1.5,0,2,.5,3,1,3,3.5,4.4,6.5,4.4s5-1,6.5-3c.4-.4.7-.4,1,0l2,2c.5,0,.5.5,0,1-2,2.4-5.4,4.4-9.8,4.4-5.4-.5-8.9-3-10.4-7.4h.1ZM240.9,299.5s.5,0,0,0c.5-1.5,0-2.4,0-3-1-2.4-3-3.9-5.9-3.9s-5,1.5-5.9,3.9c-.5,1-.5,1.5-.5,3,0,0,0,.5.5.5h11.9v-.5h0Z"/>
    <path class="st0" d="M269.2,314.4c-.4,0-.5-.2-.5-.5v-2.4c-1,2-3.5,3.5-7.4,3.5s-7.4-2-8.9-5.9c-.5-2-1-3.9-1-7.4s0-5,1-6.9c1.5-3.9,4.4-5.9,8.9-5.9s5.9,1.5,7.4,3.5v-12.8c0-.4.2-.5.5-.5h3.5c.4,0,.5.2.5.5v34.6c0,.4-.2.5-.5.5h-3.5v-.2ZM268.1,307c.5-1,.5-3,.5-5.4s0-3.9-.5-5.4c-1-2.4-3-3.9-5.4-3.9s-5,1.5-5.4,3.9c-.5,1.5-.5,3-.5,5.4s0,3.9.5,5.4c1,2.4,3,3.9,5.4,3.9s4.4-1.5,5.4-3.9Z"/>
    <path class="st0" d="M295.9,314.4c-.4,0-.5-.2-.5-.5v-34.6c0-.4.2-.5.5-.5h3.5c.4,0,.5.2.5.5v12.8c1-2,3.5-3.5,7.4-3.5s7.4,2,8.9,5.9c.5,2,1,3.9,1,6.9s0,5-1,7.4c-1.5,3.9-4.4,5.9-8.9,5.9s-5.9-1.5-7.4-3.5v2.4c0,.4-.2.5-.5.5h-3.5v.2ZM311.2,307c.5-1.5.5-3,.5-5.4s0-3.9-.5-5.4c-1-2.4-3-3.9-5.4-3.9s-5,1.5-5.4,3.9c-.5,1.5-.5,3-.5,5.4s0,3.9.5,5.4c1,2.4,3,3.9,5.4,3.9s4.4-1.5,5.4-3.9Z"/>
    <path class="st0" d="M324,323.7c-.4,0-.5-.2-.5-.5v-3c0-.4.2-.5.5-.5h1c2,0,3-1,4.4-3.9l1-2.4-9.4-24.2c0-.4.2-.5.5-.5h3.5c.4,0,.5.2.5.5l6.5,18.3,6.5-18.3c0-.5.5-.5.5-.5h3.5c.4,0,.5.2.5.5l-9.8,26.7c-2,5.9-3.9,7.4-7.9,7.4h-1v.5h-.2Z"/>
    <path class="st0" d="M369,314.4c-5,0-6.9-2-6.9-7.4v-14.3s0-.5-.5-.5h-2c-.4,0-.5-.2-.5-.5v-2.4c0-.4.2-.5.5-.5h2s.5,0,.5-.5v-6.9c0-.4.2-.5.5-.5h3.5c.4,0,.5.2.5.5v6.9s0,.5.5.5h3.9c.4,0,.5.2.5.5v2.4c0,.4-.2.5-.5.5h-3.9s-.5,0-.5.5v14.3c0,2.4,1,3.5,3.5,3.5h1c.4,0,.5.2.5.5v3c0,.4-.2.5-.5.5h-2.1Z"/>
    <path class="st0" d="M377.9,307.9c-.5-1.5-1-3.5-1-6.5s.5-5,1-6.5c1.5-4.4,5-6.9,9.8-6.9s8.4,2.4,9.8,6.9c.5,1.5,1,3.5,1,7.4s0,.5-.5.5h-15.9s-.5,0-.5.5c0,1.5,0,2,.5,3,1,3,3.5,4.4,6.5,4.4s5-1,6.5-3c.4-.4.7-.4,1,0l2,2c.5,0,.5.5,0,1-2,2.4-5.4,4.4-9.8,4.4-5.4-.5-8.9-3-10.4-7.4h.1ZM393.8,299.5s.5,0,0,0c.5-1.5,0-2.4,0-3-1-2.4-3-3.9-5.9-3.9s-5,1.5-5.9,3.9c-.5,1-.5,1.5-.5,3,0,0,0,.5.5.5h11.9v-.5Z"/>
    <path class="st0" d="M405.7,295c1.5-4.4,5-6.9,9.8-6.9s6.9,1.5,8.9,4.4v.5l-2.4,2h-1c-1.5-2-3-3-5.4-3s-5,1.5-5.4,3.9c-.5,1.5-.5,3-.5,5s0,3.9.5,5c1,2.4,3,3.9,5.4,3.9s3.9-1,5.4-3c0-.5.5-.5,1,0l2.4,2c.4.4.4.7,0,1-2,2.4-5,4.4-8.9,4.4s-8.4-2.4-9.8-6.9c-.5-1.5-1-3.5-1-6.5s.5-4.4,1-5.9h0Z"/>
    <path class="st0" d="M448.2,314.4c-.4,0-.5-.2-.5-.5v-14.8c0-3.9-2-6.5-5.4-6.5s-5.9,2.4-5.9,6.5v14.8c0,.4-.2.5-.5.5h-3.5c-.4,0-.5-.2-.5-.5v-34.6c0-.4.2-.5.5-.5h3.5c.4,0,.5.2.5.5v12.8c1-2,3.5-3.5,6.9-3.5,5.4,0,8.9,3.9,8.9,9.4v15.9c0,.4-.2.5-.5.5h-3.5.1Z"/>
    <path class="st0" d="M477.3,314.4c-.4,0-.5-.2-.5-.5v-14.8c0-3.9-2-6.5-5.4-6.5s-5.9,2.4-5.9,6.5v14.8c0,.4-.2.5-.5.5h-3.5c-.4,0-.5-.2-.5-.5v-24.2c0-.4.2-.5.5-.5h3.5c.4,0,.5.2.5.5v2.4c1-2,3.5-3.5,6.9-3.5,5.4,0,8.9,3.9,8.9,9.4v15.9c0,.4-.2.5-.5.5h-3.5.1Z"/>
    <path class="st0" d="M489.7,307.9c-.5-2-1-3.5-1-6.5s.5-4.4,1-6.5c1.5-4.4,5-6.9,9.8-6.9s8.4,2.4,9.8,6.9c.5,2,1,3.5,1,6.5s-.5,5-1,6.5c-1.5,4.4-5,6.9-9.8,6.9s-8.4-2.4-9.8-6.9ZM505.6,307c.5-1.5.5-3,.5-5s0-3.9-.5-5c-1-2.4-3-3.9-5.9-3.9s-5,1.5-5.9,3.9c-.5,1.5-.5,2.4-.5,5s0,3.9.5,5c1,2.4,3,3.9,5.9,3.9s5-1.5,5.9-3.9Z"/>
    <path class="st0" d="M524.3,314.4c-4.4,0-6.5-2-6.5-6.5v-29.2c0-.4.2-.5.5-.5h3.5c.4,0,.5.2.5.5v28.7c0,2,1,3,2.4,3h1c.4,0,.5.2.5.5v3c0,.4-.2.5-.5.5h-1.5Z"/>
    <path class="st0" d="M532.8,307.9c-.5-2-1-3.5-1-6.5s.5-4.4,1-6.5c1.5-4.4,5-6.9,9.8-6.9s8.4,2.4,9.8,6.9c.5,2,1,3.5,1,6.5s-.5,5-1,6.5c-1.5,4.4-5,6.9-9.8,6.9s-8.9-2.4-9.8-6.9ZM548.2,307c.5-1.5.5-3,.5-5s0-3.9-.5-5c-1-2.4-3-3.9-5.9-3.9s-5,1.5-5.9,3.9c-.5,1.5-.5,2.4-.5,5s0,3.9.5,5c1,2.4,3,3.9,5.9,3.9s5.4-1.5,5.9-3.9Z"/>
    <path class="st0" d="M560.4,320.8v-.5l2-2c.4-.4.7-.4,1,0,2,1.5,3.5,2.4,5.9,2.4,3.9,0,6.5-2,6.5-6.9v-3.5c-1,2-3.5,3.5-6.9,3.5s-7.4-2-8.4-5.9c-.5-2-1-3.9-1-6.5s0-5,1-6.5c1.5-3.9,4.4-5.9,8.4-5.9s5.9,1.5,6.9,3.5v-2.4c0-.4.2-.5.5-.5h3.5c.4,0,.5.2.5.5v23.7c0,7.4-3.9,11.3-10.9,11.3-3.5-1-6.9-2.4-8.9-4.4h-.1ZM575.4,305.9c.5-1.5.5-3,.5-5s0-3.5-.5-5c-1-2.4-3-3.9-5.4-3.9s-4.4,1.5-5.4,3.9c-.5,1.5-.5,3-.5,5s0,3.5.5,5c1,2.4,2.4,3.9,5.4,3.9s5-1,5.4-3.9Z"/>
    <path class="st0" d="M589.7,323.7c-.4,0-.5-.2-.5-.5v-3c0-.4.2-.5.5-.5h1c2,0,3-1,4.4-3.9l1-2.4-9.4-24.2c0-.4.2-.5.5-.5h3.5c.4,0,.5.2.5.5l6.5,18.3,6.5-18.3c0-.5.5-.5.5-.5h3.5c.4,0,.5.2.5.5l-9.8,26.7c-2,5.9-3.9,7.4-7.9,7.4h-1v.5h-.2Z"/>
  </g>
  <g>
    <path class="st0" d="M271.6,233.2c-2,0-2.4-.5-3-2l-23.3-49h-17.8c-1,0-1,.5-1,1v48c0,1-1,2-2,2h-25.2c-1,0-2-1-2-2V101c0-1,1-2,2-2h53.5c27.2,0,45.5,17.4,45.5,41.5s-8.9,30.7-23.7,37.1l26.3,52.9c.5,1,0,2.4-1.5,2.4h-27.7v.3ZM269.6,140.8c0-9.8-6.9-16.3-18.3-16.3h-23.7c-1,0-1,.5-1,1v31.1c0,1,.5,1,1,1h23.7c10.9,0,18.3-6.5,18.3-16.8h0Z"/>
    <path class="st0" d="M459.5,216.9c-1-1-1-2,0-3.5l14.8-17.4c1-1,2-1,3,0,8.9,6.9,20.8,13.9,35.1,13.9s21.8-6.5,21.8-15.9-5-12.8-20.8-14.8l-6.9-1c-27.2-3.9-42.6-16.3-42.6-40s18.3-41.1,47.5-41.1,34.1,5.4,45.5,13.9c1,1,1.5,1.5.5,3l-11.9,17.8c-1,1-2,1-3,.5-10.4-6.9-20.3-10.4-31.1-10.4s-17.8,5.9-17.8,14.3,5.4,12.4,20.8,14.8l6.9,1c27.7,3.9,42,16.3,42,40.5s-17.8,42-52.4,42c-20.8.5-41.1-7.9-51.5-17.8h-.2Z"/>
    <path class="st0" d="M582.2,101.2c0-1,1-2,2-2h86.1c1,0,2,1,2,2v21.3c0,1-1,2-2,2h-57.9c-1,0-1,.5-1,1v26.7c0,1,.5,1,1,1h45c1,0,2,1,2,2v20.8c0,1-1,2-2,2h-45c-1,0-1,.5-1,1v27.7c0,1,.5,1,1,1h57.9c1,0,2,1,2,2v21.3c0,1-1,2-2,2h-86.1c-1,0-2-1-2-2V101.2h0Z"/>
    <path class="st0" d="M692.6,101.2c0-1,1-2,2-2h23.7c1.5,0,2.4.5,3.5,2l49,84.1h1v-84.1c0-1,1-2,2-2h22.2c1,0,2,1,2,2v130.1c0,1-1,2-2,2h-23.3c-1.5,0-2.4-.5-3.5-2l-49.4-84.1h-1v84.1c0,1-1,2-2,2h-22.2c-1,0-2-1-2-2V101.2Z"/>
    <g>
      <path class="st1" d="M310.2,166c0,6.5,1,12.8,2.4,18.8.5,2,1.5,2,3,1,2-1.5,29.6-18.3,29.6-18.3,2.4-1.5,2.4-2.4,0-3.5,0,0-27.2-16.8-29.6-18.3-1.5-1-2.4-.5-3,1-1.5,6.5-2.4,12.8-2.4,19.3h0Z"/>
      <path class="st0" d="M380.5,236.2c38.5,0,70.2-31.1,70.2-70.2s-31.1-70.2-70.2-70.2-47.5,13.3-59.8,33.7c-.5,1-.5,2,.5,2.4l20.3,12.8c1,1,2.4.5,3-.5,7.4-12.4,20.8-20.8,36.1-20.8,23.3,0,42,18.8,42,42s-18.8,42-42,42-29.2-8.4-36.6-20.8c-.5-1-2-1-3-.5l-20.3,12.8c-1,1-1.5,1.5-.5,2.4,12.4,20.8,34.6,34.6,60.3,34.6h0Z"/>
    </g>
  </g>
</svg>