<?xml version="1.0" encoding="UTF-8" standalone="no"?>
<!DOCTYPE svg PUBLIC "-//W3C//DTD SVG 1.1//EN" "http://www.w3.org/Graphics/SVG/1.1/DTD/svg11.dtd">
<svg width="100%" height="100%" viewBox="0 0 210 80" version="1.1" xmlns="http://www.w3.org/2000/svg" xmlns:xlink="http://www.w3.org/1999/xlink" xml:space="preserve" xmlns:serif="http://www.serif.com/" style="fill-rule:evenodd;clip-rule:evenodd;stroke-linejoin:round;stroke-miterlimit:2;">
    <g transform="matrix(1,0,0,1,-188,-100)">
        <g>
            <g>
                <path d="M203.6,161.5C203.5,161.2 203.4,160.8 203.4,160.2C203.4,159.6 203.5,159.2 203.6,158.9C203.9,158 204.6,157.5 205.6,157.5C206.6,157.5 207.3,158 207.6,158.9C207.7,159.2 207.8,159.6 207.8,160.4C207.8,160.5 207.8,160.5 207.7,160.5L204.5,160.5C204.5,160.5 204.4,160.5 204.4,160.6C204.4,160.9 204.4,161 204.5,161.2C204.7,161.8 205.2,162.1 205.8,162.1C206.4,162.1 206.8,161.9 207.1,161.5C207.2,161.4 207.2,161.4 207.3,161.5L207.7,161.9C207.8,161.9 207.8,162 207.7,162.1C207.3,162.6 206.6,163 205.7,163C204.6,162.9 203.9,162.4 203.6,161.5ZM206.8,159.9C206.8,159.9 206.9,159.8 206.8,159.8C206.9,159.5 206.8,159.3 206.8,159.2C206.6,158.7 206.2,158.4 205.6,158.4C205,158.4 204.6,158.7 204.4,159.2C204.3,159.4 204.3,159.5 204.3,159.8C204.3,159.8 204.3,159.9 204.4,159.9L206.8,159.9Z" style="fill:rgb(35,35,130);fill-rule:nonzero;"/>
                <path d="M215.9,162.8C215.8,162.8 215.8,162.8 215.8,162.7L215.8,159.7C215.8,158.9 215.4,158.4 214.7,158.4C214,158.4 213.5,158.9 213.5,159.7L213.5,162.7C213.5,162.8 213.5,162.8 213.4,162.8L212.7,162.8C212.6,162.8 212.6,162.8 212.6,162.7L212.6,159.7C212.6,158.9 212.2,158.4 211.5,158.4C210.8,158.4 210.3,158.9 210.3,159.7L210.3,162.7C210.3,162.8 210.3,162.8 210.2,162.8L209.5,162.8C209.4,162.8 209.4,162.8 209.4,162.7L209.4,157.8C209.4,157.7 209.4,157.7 209.5,157.7L210.2,157.7C210.3,157.7 210.3,157.7 210.3,157.8L210.3,158.3C210.5,157.9 211,157.6 211.7,157.6C212.4,157.6 212.9,157.9 213.2,158.4C213.6,157.9 214.1,157.6 214.9,157.6C216.1,157.6 216.7,158.4 216.7,159.5L216.7,162.7C216.7,162.8 216.7,162.8 216.6,162.8L215.9,162.8Z" style="fill:rgb(35,35,130);fill-rule:nonzero;"/>
                <path d="M218.6,164.7C218.5,164.7 218.5,164.7 218.5,164.6L218.5,157.8C218.5,157.7 218.5,157.7 218.6,157.7L219.3,157.7C219.4,157.7 219.4,157.7 219.4,157.8L219.4,158.3C219.6,157.9 220.1,157.6 220.9,157.6C221.8,157.6 222.4,158 222.7,158.8C222.8,159.2 222.9,159.6 222.9,160.2C222.9,160.8 222.9,161.2 222.7,161.7C222.4,162.5 221.8,162.9 220.9,162.9C220.1,162.9 219.7,162.6 219.4,162.2L219.4,164.6C219.4,164.7 219.4,164.7 219.3,164.7L218.6,164.7ZM221.7,161.3C221.8,161 221.8,160.7 221.8,160.2C221.8,159.7 221.8,159.4 221.7,159.1C221.5,158.6 221.1,158.3 220.6,158.3C220,158.3 219.6,158.6 219.5,159.1C219.4,159.4 219.4,159.7 219.4,160.2C219.4,160.7 219.4,161 219.5,161.3C219.7,161.8 220.1,162.1 220.6,162.1C221.2,162.1 221.6,161.8 221.7,161.3Z" style="fill:rgb(35,35,130);fill-rule:nonzero;"/>
                <path d="M224.2,161.5C224.1,161.1 224,160.8 224,160.2C224,159.6 224.1,159.3 224.2,158.9C224.5,158 225.2,157.5 226.2,157.5C227.2,157.5 227.9,158 228.2,158.9C228.3,159.3 228.4,159.6 228.4,160.2C228.4,160.8 228.3,161.2 228.2,161.5C227.9,162.4 227.2,162.9 226.2,162.9C225.2,162.9 224.5,162.4 224.2,161.5ZM227.4,161.3C227.5,161 227.5,160.7 227.5,160.3C227.5,159.8 227.5,159.5 227.4,159.3C227.2,158.8 226.8,158.5 226.2,158.5C225.6,158.5 225.2,158.8 225,159.3C224.9,159.6 224.9,159.8 224.9,160.3C224.9,160.8 224.9,161.1 225,161.3C225.2,161.8 225.6,162.1 226.2,162.1C226.8,162.1 227.2,161.8 227.4,161.3Z" style="fill:rgb(35,35,130);fill-rule:nonzero;"/>
                <path d="M234.4,162.8C234.3,162.8 234.3,162.8 234.3,162.7L233.1,159L231.9,162.7C231.9,162.8 231.8,162.8 231.8,162.8L231.2,162.8C231.1,162.8 231.1,162.8 231.1,162.7L229.5,157.8C229.5,157.7 229.5,157.7 229.6,157.7L230.3,157.7C230.4,157.7 230.4,157.7 230.4,157.8L231.5,161.5L232.7,157.8C232.7,157.7 232.8,157.7 232.8,157.7L233.4,157.7C233.5,157.7 233.5,157.7 233.5,157.8L234.7,161.5L235.8,157.8C235.8,157.7 235.9,157.7 235.9,157.7L236.6,157.7C236.7,157.7 236.7,157.7 236.7,157.8L235.1,162.7C235.1,162.8 235,162.8 235,162.8L234.4,162.8Z" style="fill:rgb(35,35,130);fill-rule:nonzero;"/>
                <path d="M237.9,161.5C237.8,161.2 237.7,160.8 237.7,160.2C237.7,159.6 237.8,159.2 237.9,158.9C238.2,158 238.9,157.5 239.9,157.5C240.9,157.5 241.6,158 241.9,158.9C242,159.2 242.1,159.6 242.1,160.4C242.1,160.5 242.1,160.5 242,160.5L238.8,160.5C238.8,160.5 238.7,160.5 238.7,160.6C238.7,160.9 238.7,161 238.8,161.2C239,161.8 239.5,162.1 240.1,162.1C240.7,162.1 241.1,161.9 241.4,161.5C241.5,161.4 241.5,161.4 241.6,161.5L242,161.9C242.1,161.9 242.1,162 242,162.1C241.6,162.6 240.9,163 240,163C238.9,162.9 238.2,162.4 237.9,161.5ZM241.1,159.8C241.2,159.5 241.1,159.3 241.1,159.2C240.9,158.7 240.5,158.4 239.9,158.4C239.3,158.4 238.9,158.7 238.7,159.2C238.6,159.4 238.6,159.5 238.6,159.8C238.6,159.8 238.6,159.9 238.7,159.9L241.1,159.9L241.1,159.8Z" style="fill:rgb(35,35,130);fill-rule:nonzero;"/>
                <path d="M243.7,162.8C243.6,162.8 243.6,162.8 243.6,162.7L243.6,157.8C243.6,157.7 243.6,157.7 243.7,157.7L244.4,157.7C244.5,157.7 244.5,157.7 244.5,157.8L244.5,158.3C244.7,157.9 245.2,157.6 245.9,157.6C246.3,157.6 246.7,157.7 246.9,158C247,158.1 247,158.1 246.9,158.1L246.5,158.6C246.5,158.7 246.4,158.7 246.3,158.6C246.1,158.5 245.8,158.4 245.5,158.4C244.7,158.4 244.4,159 244.4,159.9L244.4,162.7C244.4,162.8 244.4,162.8 244.3,162.8L243.7,162.8Z" style="fill:rgb(35,35,130);fill-rule:nonzero;"/>
                <path d="M247.7,161.5C247.6,161.2 247.5,160.8 247.5,160.2C247.5,159.6 247.6,159.2 247.7,158.9C248,158 248.7,157.5 249.7,157.5C250.7,157.5 251.4,158 251.7,158.9C251.8,159.2 251.9,159.6 251.9,160.4C251.9,160.5 251.9,160.5 251.8,160.5L248.6,160.5C248.6,160.5 248.5,160.5 248.5,160.6C248.5,160.9 248.5,161 248.6,161.2C248.8,161.8 249.3,162.1 249.9,162.1C250.5,162.1 250.9,161.9 251.2,161.5C251.3,161.4 251.3,161.4 251.4,161.5L251.8,161.9C251.9,161.9 251.9,162 251.8,162.1C251.4,162.6 250.7,163 249.8,163C248.7,162.9 248,162.4 247.7,161.5ZM250.9,159.8C250.9,159.8 251,159.8 250.9,159.8C251,159.5 250.9,159.3 250.9,159.2C250.7,158.7 250.3,158.4 249.7,158.4C249.1,158.4 248.7,158.7 248.5,159.2C248.4,159.4 248.4,159.5 248.4,159.8C248.4,159.8 248.4,159.9 248.5,159.9L250.9,159.9L250.9,159.8Z" style="fill:rgb(35,35,130);fill-rule:nonzero;"/>
                <path d="M256.6,162.8C256.5,162.8 256.5,162.8 256.5,162.7L256.5,162.2C256.3,162.6 255.8,162.9 255,162.9C254.1,162.9 253.5,162.5 253.2,161.7C253.1,161.3 253,160.9 253,160.2C253,159.6 253,159.2 253.2,158.8C253.5,158 254.1,157.6 255,157.6C255.8,157.6 256.2,157.9 256.5,158.3L256.5,155.7C256.5,155.6 256.5,155.6 256.6,155.6L257.3,155.6C257.4,155.6 257.4,155.6 257.4,155.7L257.4,162.7C257.4,162.8 257.4,162.8 257.3,162.8L256.6,162.8ZM256.4,161.3C256.5,161.1 256.5,160.7 256.5,160.2C256.5,159.7 256.5,159.4 256.4,159.1C256.2,158.6 255.8,158.3 255.3,158.3C254.7,158.3 254.3,158.6 254.2,159.1C254.1,159.4 254.1,159.7 254.1,160.2C254.1,160.7 254.1,161 254.2,161.3C254.4,161.8 254.8,162.1 255.3,162.1C255.8,162.1 256.2,161.8 256.4,161.3Z" style="fill:rgb(35,35,130);fill-rule:nonzero;"/>
                <path d="M262,162.8C261.9,162.8 261.9,162.8 261.9,162.7L261.9,155.7C261.9,155.6 261.9,155.6 262,155.6L262.7,155.6C262.8,155.6 262.8,155.6 262.8,155.7L262.8,158.3C263,157.9 263.5,157.6 264.3,157.6C265.2,157.6 265.8,158 266.1,158.8C266.2,159.2 266.3,159.6 266.3,160.2C266.3,160.8 266.3,161.2 266.1,161.7C265.8,162.5 265.2,162.9 264.3,162.9C263.5,162.9 263.1,162.6 262.8,162.2L262.8,162.7C262.8,162.8 262.8,162.8 262.7,162.8L262,162.8ZM265.1,161.3C265.2,161 265.2,160.7 265.2,160.2C265.2,159.7 265.2,159.4 265.1,159.1C264.9,158.6 264.5,158.3 264,158.3C263.4,158.3 263,158.6 262.9,159.1C262.8,159.4 262.8,159.7 262.8,160.2C262.8,160.7 262.8,161 262.9,161.3C263.1,161.8 263.5,162.1 264,162.1C264.6,162.1 264.9,161.8 265.1,161.3Z" style="fill:rgb(35,35,130);fill-rule:nonzero;"/>
                <path d="M267.7,164.7C267.6,164.7 267.6,164.7 267.6,164.6L267.6,164C267.6,163.9 267.6,163.9 267.7,163.9L267.9,163.9C268.3,163.9 268.5,163.7 268.8,163.1L269,162.6L267.1,157.7C267.1,157.6 267.1,157.6 267.2,157.6L267.9,157.6C268,157.6 268,157.6 268,157.7L269.3,161.4L270.6,157.7C270.6,157.6 270.7,157.6 270.7,157.6L271.4,157.6C271.5,157.6 271.5,157.6 271.5,157.7L269.5,163.1C269.1,164.3 268.7,164.6 267.9,164.6L267.7,164.6L267.7,164.7Z" style="fill:rgb(35,35,130);fill-rule:nonzero;"/>
                <path d="M276.8,162.8C275.8,162.8 275.4,162.4 275.4,161.3L275.4,158.4C275.4,158.4 275.4,158.3 275.3,158.3L274.9,158.3C274.8,158.3 274.8,158.3 274.8,158.2L274.8,157.7C274.8,157.6 274.8,157.6 274.9,157.6L275.3,157.6C275.3,157.6 275.4,157.6 275.4,157.5L275.4,156.1C275.4,156 275.4,156 275.5,156L276.2,156C276.3,156 276.3,156 276.3,156.1L276.3,157.5C276.3,157.5 276.3,157.6 276.4,157.6L277.2,157.6C277.3,157.6 277.3,157.6 277.3,157.7L277.3,158.2C277.3,158.3 277.3,158.3 277.2,158.3L276.4,158.3C276.4,158.3 276.3,158.3 276.3,158.4L276.3,161.3C276.3,161.8 276.5,162 277,162L277.2,162C277.3,162 277.3,162 277.3,162.1L277.3,162.7C277.3,162.8 277.3,162.8 277.2,162.8L276.8,162.8Z" style="fill:rgb(35,35,130);fill-rule:nonzero;"/>
                <path d="M278.6,161.5C278.5,161.2 278.4,160.8 278.4,160.2C278.4,159.6 278.5,159.2 278.6,158.9C278.9,158 279.6,157.5 280.6,157.5C281.6,157.5 282.3,158 282.6,158.9C282.7,159.2 282.8,159.6 282.8,160.4C282.8,160.5 282.8,160.5 282.7,160.5L279.5,160.5C279.5,160.5 279.4,160.5 279.4,160.6C279.4,160.9 279.4,161 279.5,161.2C279.7,161.8 280.2,162.1 280.8,162.1C281.4,162.1 281.8,161.9 282.1,161.5C282.2,161.4 282.2,161.4 282.3,161.5L282.7,161.9C282.8,161.9 282.8,162 282.7,162.1C282.3,162.6 281.6,163 280.7,163C279.6,162.9 278.9,162.4 278.6,161.5ZM281.8,159.8C281.8,159.8 281.9,159.8 281.8,159.8C281.9,159.5 281.8,159.3 281.8,159.2C281.6,158.7 281.2,158.4 280.6,158.4C280,158.4 279.6,158.7 279.4,159.2C279.3,159.4 279.3,159.5 279.3,159.8C279.3,159.8 279.3,159.9 279.4,159.9L281.8,159.9L281.8,159.8Z" style="fill:rgb(35,35,130);fill-rule:nonzero;"/>
                <path d="M284.2,158.9C284.5,158 285.2,157.5 286.2,157.5C287,157.5 287.6,157.8 288,158.4L288,158.5L287.5,158.9L287.3,158.9C287,158.5 286.7,158.3 286.2,158.3C285.6,158.3 285.2,158.6 285.1,159.1C285,159.4 285,159.7 285,160.1C285,160.6 285,160.9 285.1,161.1C285.3,161.6 285.7,161.9 286.2,161.9C286.7,161.9 287,161.7 287.3,161.3C287.3,161.2 287.4,161.2 287.5,161.3L288,161.7C288.1,161.8 288.1,161.8 288,161.9C287.6,162.4 287,162.8 286.2,162.8C285.2,162.8 284.5,162.3 284.2,161.4C284.1,161.1 284,160.7 284,160.1C284,159.7 284.1,159.2 284.2,158.9Z" style="fill:rgb(35,35,130);fill-rule:nonzero;"/>
                <path d="M292.8,162.8C292.7,162.8 292.7,162.8 292.7,162.7L292.7,159.7C292.7,158.9 292.3,158.4 291.6,158.4C290.9,158.4 290.4,158.9 290.4,159.7L290.4,162.7C290.4,162.8 290.4,162.8 290.3,162.8L289.6,162.8C289.5,162.8 289.5,162.8 289.5,162.7L289.5,155.7C289.5,155.6 289.5,155.6 289.6,155.6L290.3,155.6C290.4,155.6 290.4,155.6 290.4,155.7L290.4,158.3C290.6,157.9 291.1,157.6 291.8,157.6C292.9,157.6 293.6,158.4 293.6,159.5L293.6,162.7C293.6,162.8 293.6,162.8 293.5,162.8L292.8,162.8Z" style="fill:rgb(35,35,130);fill-rule:nonzero;"/>
                <path d="M298.7,162.8C298.6,162.8 298.6,162.8 298.6,162.7L298.6,159.7C298.6,158.9 298.2,158.4 297.5,158.4C296.8,158.4 296.3,158.9 296.3,159.7L296.3,162.7C296.3,162.8 296.3,162.8 296.2,162.8L295.5,162.8C295.4,162.8 295.4,162.8 295.4,162.7L295.4,157.8C295.4,157.7 295.4,157.7 295.5,157.7L296.2,157.7C296.3,157.7 296.3,157.7 296.3,157.8L296.3,158.3C296.5,157.9 297,157.6 297.7,157.6C298.8,157.6 299.5,158.4 299.5,159.5L299.5,162.7C299.5,162.8 299.5,162.8 299.4,162.8L298.7,162.8Z" style="fill:rgb(35,35,130);fill-rule:nonzero;"/>
                <path d="M301.2,161.5C301.1,161.1 301,160.8 301,160.2C301,159.6 301.1,159.3 301.2,158.9C301.5,158 302.2,157.5 303.2,157.5C304.2,157.5 304.9,158 305.2,158.9C305.3,159.3 305.4,159.6 305.4,160.2C305.4,160.8 305.3,161.2 305.2,161.5C304.9,162.4 304.2,162.9 303.2,162.9C302.2,162.9 301.5,162.4 301.2,161.5ZM304.4,161.3C304.5,161 304.5,160.7 304.5,160.3C304.5,159.8 304.5,159.5 304.4,159.3C304.2,158.8 303.8,158.5 303.2,158.5C302.6,158.5 302.2,158.8 302,159.3C301.9,159.6 301.9,159.8 301.9,160.3C301.9,160.8 301.9,161.1 302,161.3C302.2,161.8 302.6,162.1 303.2,162.1C303.8,162.1 304.2,161.8 304.4,161.3Z" style="fill:rgb(35,35,130);fill-rule:nonzero;"/>
                <path d="M308.2,162.8C307.3,162.8 306.9,162.4 306.9,161.5L306.9,155.6C306.9,155.5 306.9,155.5 307,155.5L307.7,155.5C307.8,155.5 307.8,155.5 307.8,155.6L307.8,161.4C307.8,161.8 308,162 308.3,162L308.5,162C308.6,162 308.6,162 308.6,162.1L308.6,162.7C308.6,162.8 308.6,162.8 308.5,162.8L308.2,162.8Z" style="fill:rgb(35,35,130);fill-rule:nonzero;"/>
                <path d="M309.9,161.5C309.8,161.1 309.7,160.8 309.7,160.2C309.7,159.6 309.8,159.3 309.9,158.9C310.2,158 310.9,157.5 311.9,157.5C312.9,157.5 313.6,158 313.9,158.9C314,159.3 314.1,159.6 314.1,160.2C314.1,160.8 314,161.2 313.9,161.5C313.6,162.4 312.9,162.9 311.9,162.9C310.9,162.9 310.1,162.4 309.9,161.5ZM313,161.3C313.1,161 313.1,160.7 313.1,160.3C313.1,159.8 313.1,159.5 313,159.3C312.8,158.8 312.4,158.5 311.8,158.5C311.2,158.5 310.8,158.8 310.6,159.3C310.5,159.6 310.5,159.8 310.5,160.3C310.5,160.8 310.5,161.1 310.6,161.3C310.8,161.8 311.2,162.1 311.8,162.1C312.5,162.1 312.9,161.8 313,161.3Z" style="fill:rgb(35,35,130);fill-rule:nonzero;"/>
                <path d="M315.5,164.1L315.5,164L315.9,163.6C316,163.5 316,163.5 316.1,163.6C316.5,163.9 316.8,164.1 317.3,164.1C318.1,164.1 318.6,163.7 318.6,162.7L318.6,162C318.4,162.4 317.9,162.7 317.2,162.7C316.3,162.7 315.7,162.3 315.5,161.5C315.4,161.1 315.3,160.7 315.3,160.2C315.3,159.6 315.3,159.2 315.5,158.9C315.8,158.1 316.4,157.7 317.2,157.7C317.9,157.7 318.4,158 318.6,158.4L318.6,157.9C318.6,157.8 318.6,157.8 318.7,157.8L319.4,157.8C319.5,157.8 319.5,157.8 319.5,157.9L319.5,162.7C319.5,164.2 318.7,165 317.3,165C316.6,164.8 315.9,164.5 315.5,164.1ZM318.5,161.1C318.6,160.8 318.6,160.5 318.6,160.1C318.6,159.7 318.6,159.4 318.5,159.1C318.3,158.6 317.9,158.3 317.4,158.3C316.8,158.3 316.5,158.6 316.3,159.1C316.2,159.4 316.2,159.7 316.2,160.1C316.2,160.5 316.2,160.8 316.3,161.1C316.5,161.6 316.8,161.9 317.4,161.9C318,161.9 318.4,161.7 318.5,161.1Z" style="fill:rgb(35,35,130);fill-rule:nonzero;"/>
                <path d="M321.4,164.7C321.3,164.7 321.3,164.7 321.3,164.6L321.3,164C321.3,163.9 321.3,163.9 321.4,163.9L321.6,163.9C322,163.9 322.2,163.7 322.5,163.1L322.7,162.6L320.8,157.7C320.8,157.6 320.8,157.6 320.9,157.6L321.6,157.6C321.7,157.6 321.7,157.6 321.7,157.7L323,161.4L324.3,157.7C324.3,157.6 324.4,157.6 324.4,157.6L325.1,157.6C325.2,157.6 325.2,157.6 325.2,157.7L323.2,163.1C322.8,164.3 322.4,164.6 321.6,164.6L321.4,164.6L321.4,164.7Z" style="fill:rgb(35,35,130);fill-rule:nonzero;"/>
            </g>
            <g>
                <path d="M257.1,146.4C256.7,146.4 256.6,146.3 256.5,146L251.8,136.1L248.2,136.1C248,136.1 248,136.2 248,136.3L248,146C248,146.2 247.8,146.4 247.6,146.4L242.5,146.4C242.3,146.4 242.1,146.2 242.1,146L242.1,119.7C242.1,119.5 242.3,119.3 242.5,119.3L253.3,119.3C258.8,119.3 262.5,122.8 262.5,127.7C262.5,131.2 260.7,133.9 257.7,135.2L263,145.9C263.1,146.1 263,146.4 262.7,146.4L257.1,146.4ZM256.7,127.7C256.7,125.7 255.3,124.4 253,124.4L248.2,124.4C248,124.4 248,124.5 248,124.6L248,130.9C248,131.1 248.1,131.1 248.2,131.1L253,131.1C255.2,131.1 256.7,129.8 256.7,127.7Z" style="fill:rgb(35,35,130);fill-rule:nonzero;"/>
                <path d="M295.1,143.1C294.9,142.9 294.9,142.7 295.1,142.4L298.1,138.9C298.3,138.7 298.5,138.7 298.7,138.9C300.5,140.3 302.9,141.7 305.8,141.7C308.6,141.7 310.2,140.4 310.2,138.5C310.2,136.9 309.2,135.9 306,135.5L304.6,135.3C299.1,134.5 296,132 296,127.2C296,122.2 299.7,118.9 305.6,118.9C309.2,118.9 312.5,120 314.8,121.7C315,121.9 315.1,122 314.9,122.3L312.5,125.9C312.3,126.1 312.1,126.1 311.9,126C309.8,124.6 307.8,123.9 305.6,123.9C303.2,123.9 302,125.1 302,126.8C302,128.4 303.1,129.3 306.2,129.8L307.6,130C313.2,130.8 316.1,133.3 316.1,138.2C316.1,143.1 312.5,146.7 305.5,146.7C301.3,146.8 297.2,145.1 295.1,143.1Z" style="fill:rgb(35,35,130);fill-rule:nonzero;"/>
                <path d="M319.9,119.7C319.9,119.5 320.1,119.3 320.3,119.3L337.7,119.3C337.9,119.3 338.1,119.5 338.1,119.7L338.1,124C338.1,124.2 337.9,124.4 337.7,124.4L326,124.4C325.8,124.4 325.8,124.5 325.8,124.6L325.8,130C325.8,130.2 325.9,130.2 326,130.2L335.1,130.2C335.3,130.2 335.5,130.4 335.5,130.6L335.5,134.8C335.5,135 335.3,135.2 335.1,135.2L326,135.2C325.8,135.2 325.8,135.3 325.8,135.4L325.8,141C325.8,141.2 325.9,141.2 326,141.2L337.7,141.2C337.9,141.2 338.1,141.4 338.1,141.6L338.1,145.9C338.1,146.1 337.9,146.3 337.7,146.3L320.3,146.3C320.1,146.3 319.9,146.1 319.9,145.9L319.9,119.7Z" style="fill:rgb(35,35,130);fill-rule:nonzero;"/>
                <path d="M342.2,119.7C342.2,119.5 342.4,119.3 342.6,119.3L347.4,119.3C347.7,119.3 347.9,119.4 348.1,119.7L358,136.7L358.2,136.7L358.2,119.7C358.2,119.5 358.4,119.3 358.6,119.3L363.1,119.3C363.3,119.3 363.5,119.5 363.5,119.7L363.5,146C363.5,146.2 363.3,146.4 363.1,146.4L358.4,146.4C358.1,146.4 357.9,146.3 357.7,146L347.7,129L347.5,129L347.5,146C347.5,146.2 347.3,146.4 347.1,146.4L342.6,146.4C342.4,146.4 342.2,146.2 342.2,146L342.2,119.7Z" style="fill:rgb(35,35,130);fill-rule:nonzero;"/>
                <g>
                    <path d="M264.9,132.8C264.9,134.1 265.1,135.4 265.4,136.6C265.5,137 265.7,137 266,136.8C266.4,136.5 272,133.1 272,133.1C272.5,132.8 272.5,132.6 272,132.4C272,132.4 266.5,129 266,128.7C265.7,128.5 265.5,128.6 265.4,128.9C265.1,130.2 264.9,131.5 264.9,132.8Z" style="fill:rgb(177,22,46);fill-rule:nonzero;"/>
                    <path d="M279.1,147C286.9,147 293.3,140.7 293.3,132.8C293.3,125 287,118.6 279.1,118.6C274,118.6 269.5,121.3 267,125.4C266.9,125.6 266.9,125.8 267.1,125.9L271.2,128.5C271.4,128.7 271.7,128.6 271.8,128.4C273.3,125.9 276,124.2 279.1,124.2C283.8,124.2 287.6,128 287.6,132.7C287.6,137.4 283.8,141.2 279.1,141.2C276,141.2 273.2,139.5 271.7,137C271.6,136.8 271.3,136.8 271.1,136.9L267,139.5C266.8,139.7 266.7,139.8 266.9,140C269.4,144.2 273.9,147 279.1,147Z" style="fill:rgb(35,35,130);fill-rule:nonzero;"/>
                </g>
            </g>
        </g>
    </g>
</svg>
