<?xml version="1.0" encoding="UTF-8"?>
<svg id="uuid-51bcb9f1-9b5d-4446-8b00-1c9a513693e0" data-name="Ebene 1" xmlns="http://www.w3.org/2000/svg" viewBox="0 0 1280 1024">
  <rect x="86" y="345.85" width="1114" height="334.25" style="fill: #fdfdfd;fill-opacity: 0"/>
  <path d="M601.84,539.14v12.01c0,2.94,4.26,6.55,7.26,6.62l90.83.04c2.5.07,5.19,2.09,5.59,4.57s.42,15.71-.09,18.01c-.45,1.96-3.1,3.79-4.99,4.08l-99.41.07c-46.53-3.12-28.9-53.99-32.24-85.12,1.78-14.66,11.21-23.24,25.87-24.36,28.28-2.12,59.12,1.6,87.69-.02,17.07,1.38,25.29,11.43,26.43,28.05.4,5.86.8,24.91-.69,29.75-.8,2.56-4.43,6.28-7.06,6.28h-99.16l-.02.02Z" style="fill: #50dce0;"/>
  <path d="M434.43,475.23l106.52.09c1.63.87,3.39,2.45,3.68,4.32.45,2.74.42,13.75,0,16.49-.36,2.23-2.32,3.65-4.35,4.21-30.26.87-60.68.09-91.01.4-5.84.91-6.77,16.58,1.09,16.47,23.91,1.52,50.05-1.87,73.71.04,14.48,1.18,23.75,9.69,24.87,24.29,1.74,22.97-.6,41.27-27.5,43.01-33.76,2.16-69.77-1.69-103.75,0-3.81-.2-5.7-2.47-6.13-6.17-.38-3.43-.42-12.1,0-15.51.31-2.58,1.63-4.26,4.14-4.95l93.97-.11c8.11.2,8.58-17.83.94-18.56-24.56-1.76-51.48,1.89-75.76-.13-15.09-1.27-22.37-11.48-23.29-25.87-1.16-18.05,1.6-35.88,22.91-38.04l-.04.02Z" style="fill: #50dce0;"/>
  <path d="M761.04,475.23c27.54-2.25,57.56,1.36,85.37-.16,19.16,1.43,31.93,12.88,33.4,32.31,1.76,22.91-1.31,47.91.04,71.04-.09,3.16-1.89,5.21-5.1,5.59-4.79.58-18.23.56-23.02,0-3.57-.42-4.79-3.43-5.08-6.66-1.72-19.5,1.94-42.03,0-61.41-.67-6.64-4.35-10.52-10.94-11.5-20.23,1.11-41.98-1.47-62.04,0-9.07.65-11.94,5.64-12.57,14.15-1.4,19.16,1.85,40.96.04,59.85-.31,3.28-1.72,5.19-5.1,5.59-4.79.58-18.21.56-23.02,0-3.12-.36-5.1-3.12-5.08-6.13,1.03-22.13-1.27-45.32,0-67.32,1.2-20.79,11.77-33.58,33.07-35.32l.02-.04Z" style="fill: #50dce0;"/>
  <path d="M315.72,475.72c29.08,2.03,75.56-11.5,78.71,31.11.96,12.84.96,33.6,0,46.44-1.45,19.65-13.55,30.04-32.85,31.26-27.83,1.76-57.51-1.36-85.55-.02-29.5-2.03-34.85-24.22-32.38-49.94.27-2.9,1.49-5.06,4.61-5.55,4.28-.65,19.05-.58,23.49-.04,10.12,1.2.58,19.99,8.85,25.87,1.2.87,2.7,1.36,4.1,1.78,21.53-1.16,45.46,1.96,66.72.16,4.5-.38,7.62-1.96,9.07-6.44,1.67-5.15,1.34-29.59.82-36.05-.42-5.35-2.43-10.07-8.36-10.87-10.47-1.43-23.87.89-34.72-.02-2.52-.22-5.64-.85-6.8-3.36-1.31-2.92-1.29-13.7-.94-17.2s1.67-6.35,5.19-7.09l.02-.02Z" style="fill: #50dce0;"/>
  <path d="M959.03,518.73c.45.27,8.42.27,8.87,0l29.53-40.18c1.49-1.76,3.19-3.21,5.59-3.5,6.48-.78,22.24-.6,28.9,0,5.28.47,4.84,4.03,2.07,7.46l-38.64,46.66c13.7,16.6,28.34,32.58,42.38,48.98,2.09,3.97.49,6.04-3.7,6.42-6.37.58-21.64.74-27.83,0-2.03-.25-3.74-1.49-5.28-2.74l-33.2-41.58c-1.16-.98-6.37-.82-7.6.16l-32.78,41.2c-1.52,2.05-3.63,2.76-6.11,2.96-6.69.58-21.84.74-28.37,0-4.92-.56-4.08-5.04-1.54-7.98l38.62-45.79-36.9-48.91c-2.63-3.48-2.14-6.4,2.5-6.82,6.64-.6,22.46-.76,28.9,0,2.83.33,4.61,2.32,6.35,4.32l28.21,39.35.02-.02Z" style="fill: #50dce0;"/>
  <path d="M1067.43,445.44c.45-2.07,3.08-3.32,5.06-3.5,5.3-.49,18.99-.65,24.04.07,1.16.16,4.06,1.78,4.06,2.9v29.37s.74.8.8.8h31.53c1.11,0,2.72,2.3,2.92,3.5.56,3.63.49,15.96.04,19.74-.29,2.52-2.7,4.52-5.08,4.52h-30.19v44.05c0,2.74,2.25,6.69,4.63,8.2,6.71,4.28,26.32-.69,30.51,2.92,2.36,2.03,2.09,16.85,1.76,20.39-.4,4.01-1.43,5.77-5.57,6.17-8.29.8-23.11.53-31.6,0-17.27-1.09-29.37-9.47-32.18-27.14-1.49-18.09-.31-36.41-.69-54.57h-16.85c-1.25,0-3.88-1.2-4.57-2.38-1.47-2.54-1.38-16.29-.98-19.72.2-1.63,1.45-5.66,3.41-5.66h18.99v-29.64l-.04-.02Z" style="fill: #50dce0;"/>
  <path d="M288.96,501.59c-1.16,1.03-4.37,1.65-5.97,1.78l-89.85-.04c-7.31.67-10.83,5.62-11.45,12.57-1.78,19.85,1.92,42.76,0,62.48-.33,3.39-2.07,5.7-5.64,6.13-4.52.53-17.4.53-21.95,0-3.3-.4-5.53-2.76-5.64-6.13,1.34-22.75-1.74-47.4.09-69.9,1.65-20.32,14.28-31.64,34.38-32.94l102.62.07c2.56.51,4.68,2.43,5.08,5.08.49,3.16.45,13.79.04,17.07-.13,1.11-1,3.12-1.78,3.83h.07Z" style="fill: #50dce0;"/>
  <path d="M675.07,518.32h-73.22v-12.01c0-4.46,5.5-6.71,9.34-6.69,17.94,1.23,37.9-1.56,55.6.02,2.79.25,8.29,2.23,8.29,5.59,0,0,0,13.08,0,13.08Z" style="fill:#B7BCBF;"/>
</svg>