<?xml version="1.0" encoding="UTF-8"?>
<svg id="uuid-bf90880e-95f2-438c-85a6-b5e380ee6b1b" data-name="Ebene 1" xmlns="http://www.w3.org/2000/svg" viewBox="0 0 600 200">
  <rect x="50" y="25" width="499.92" height="150" style="fill: #fdfdfd;"/>
  <path d="M281.49,111.74v5.39c0,1.32,1.91,2.94,3.26,2.97l40.76.02c1.12.03,2.33.94,2.51,2.05s.19,7.05-.04,8.08c-.2.88-1.39,1.7-2.24,1.83l-44.61.03c-20.88-1.4-12.97-24.23-14.47-38.2.8-6.58,5.03-10.43,11.61-10.93,12.69-.95,26.53.72,39.35-.01,7.66.62,11.35,5.13,11.86,12.59.18,2.63.36,11.18-.31,13.35-.36,1.15-1.99,2.82-3.17,2.82h-44.5Z" style="fill: #50dce0;"/>
  <path d="M206.36,83.06l47.8.04c.73.39,1.52,1.1,1.65,1.94.2,1.23.19,6.17,0,7.4-.16,1-1.04,1.64-1.95,1.89-13.58.39-27.23.04-40.84.18-2.62.41-3.04,7.44.49,7.39,10.73.68,22.46-.84,33.08.02,6.5.53,10.66,4.35,11.16,10.9.78,10.31-.27,18.52-12.34,19.3-15.15.97-31.31-.76-46.56,0-1.71-.09-2.56-1.11-2.75-2.77-.17-1.54-.19-5.43,0-6.96.14-1.16.73-1.91,1.86-2.22l42.17-.05c3.64.09,3.85-8,.42-8.33-11.02-.79-23.1.85-34-.06-6.77-.57-10.04-5.15-10.45-11.61-.52-8.1.72-16.1,10.28-17.07Z" style="fill: #50dce0;"/>
  <path d="M352.93,83.06c12.36-1.01,25.83.61,38.31-.07,8.6.64,14.33,5.78,14.99,14.5.79,10.28-.59,21.5.02,31.88-.04,1.42-.85,2.34-2.29,2.51-2.15.26-8.18.25-10.33,0-1.6-.19-2.15-1.54-2.28-2.99-.77-8.75.87-18.86,0-27.56-.3-2.98-1.95-4.72-4.91-5.16-9.08.5-18.84-.66-27.84,0-4.07.29-5.36,2.53-5.64,6.35-.63,8.6.83,18.38.02,26.86-.14,1.47-.77,2.33-2.29,2.51-2.15.26-8.17.25-10.33,0-1.4-.16-2.29-1.4-2.28-2.75.46-9.93-.57-20.34,0-30.21.54-9.33,5.28-15.07,14.84-15.85Z" style="fill: #50dce0;"/>
  <path d="M153.09,83.28c13.05.91,33.91-5.16,35.32,13.96.43,5.76.43,15.08,0,20.84-.65,8.82-6.08,13.48-14.74,14.03-12.49.79-25.81-.61-38.39-.01-13.24-.91-15.64-10.87-14.53-22.41.12-1.3.67-2.27,2.07-2.49,1.92-.29,8.55-.26,10.54-.02,4.54.54.26,8.97,3.97,11.61.54.39,1.21.61,1.84.8,9.66-.52,20.4.88,29.94.07,2.02-.17,3.42-.88,4.07-2.89.75-2.31.6-13.28.37-16.18-.19-2.4-1.09-4.52-3.75-4.88-4.7-.64-10.71.4-15.58-.01-1.13-.1-2.53-.38-3.05-1.51-.59-1.31-.58-6.15-.42-7.72s.75-2.85,2.33-3.18Z" style="fill: #50dce0;"/>
  <path d="M441.78,102.58c.2.12,3.78.12,3.98,0l13.25-18.03c.67-.79,1.43-1.44,2.51-1.57,2.91-.35,9.98-.27,12.97,0,2.37.21,2.17,1.81.93,3.35l-17.34,20.94c6.15,7.45,12.72,14.62,19.02,21.98.94,1.78.22,2.71-1.66,2.88-2.86.26-9.71.33-12.49,0-.91-.11-1.68-.67-2.37-1.23l-14.9-18.66c-.52-.44-2.86-.37-3.41.07l-14.71,18.49c-.68.92-1.63,1.24-2.74,1.33-3,.26-9.8.33-12.73,0-2.21-.25-1.83-2.26-.69-3.58l17.33-20.55-16.56-21.95c-1.18-1.56-.96-2.87,1.12-3.06,2.98-.27,10.08-.34,12.97,0,1.27.15,2.07,1.04,2.85,1.94l12.66,17.66Z" style="fill: #50dce0;"/>
  <path d="M490.43,69.69c.2-.93,1.38-1.49,2.27-1.57,2.38-.22,8.52-.29,10.79.03.52.07,1.82.8,1.82,1.3v13.18s.33.36.36.36h14.15c.5,0,1.22,1.03,1.31,1.57.25,1.63.22,7.16.02,8.86-.13,1.13-1.21,2.03-2.28,2.03h-13.55v19.77c0,1.23,1.01,3,2.08,3.68,3.01,1.92,11.81-.31,13.69,1.31,1.06.91.94,7.56.79,9.15-.18,1.8-.64,2.59-2.5,2.77-3.72.36-10.37.24-14.18,0-7.75-.49-13.18-4.25-14.44-12.18-.67-8.12-.14-16.34-.31-24.49h-7.56c-.56,0-1.74-.54-2.05-1.07-.66-1.14-.62-7.31-.44-8.85.09-.73.65-2.54,1.53-2.54h8.52v-13.3Z" style="fill: #50dce0;"/>
  <path d="M141.08,94.89c-.52.46-1.96.74-2.68.8l-40.32-.02c-3.28.3-4.86,2.52-5.14,5.64-.8,8.91.86,19.19,0,28.04-.15,1.52-.93,2.56-2.53,2.75-2.03.24-7.81.24-9.85,0-1.48-.18-2.48-1.24-2.53-2.75.6-10.21-.78-21.27.04-31.37.74-9.12,6.41-14.2,15.43-14.78l46.05.03c1.15.23,2.1,1.09,2.28,2.28.22,1.42.2,6.19.02,7.66-.06.5-.45,1.4-.8,1.72Z" style="fill: #50dce0;"/>
  <path d="M314.35,102.4h-32.86v-5.39c0-2,2.47-3.01,4.19-3,8.05.55,17.01-.7,24.95.01,1.25.11,3.72,1,3.72,2.51v5.87Z" style="fill: #fefefe;"/>
</svg>