<?xml version="1.0" encoding="UTF-8"?>
<svg id="uuid-a693fa90-92d1-44e4-9bde-2eb534e1e197" data-name="Ebene 2" xmlns="http://www.w3.org/2000/svg" viewBox="0 0 537.12 384.81">
  <path d="M72.93,221.71h5.97v1.87c0,4.7,2.46,6.64,9.03,6.64h13.73c9.63,0,12.68-.38,12.68-6.04v-.31c0-3.65-1.04-5.67-8.73-5.67h-19.77c-9.03,0-12.39-2.91-12.39-10.15v-2.23c0-6.2,3.51-9.63,19.33-9.63h9.85c14.47,0,16.49,4.18,16.49,9.55v2.01h-5.97v-.37c0-5.82-3.88-5.97-10.89-5.97h-11.19c-9.18,0-11.2.9-11.2,5.22v1.42c0,3.13,1.04,4.93,7.76,4.93h16.93c9.63,0,16.19.97,16.19,11.26v.15c0,10.68-9.85,11.04-17.68,11.04h-11.79c-9.47,0-18.36,0-18.36-11.41v-2.32Z" style="fill: #686867;"/>
  <path d="M175,212.01c0-8.88-5.22-10.6-12.68-10.6h-13.06c-7.46,0-12.68,1.71-12.68,10.6v7.61c0,8.88,5.22,10.6,12.68,10.6h13.06c7.46,0,12.68-1.71,12.68-10.6v-7.61ZM130.15,211.63c0-12.54,8.88-15.45,21.04-15.45h9.17c12.16,0,21.05,2.91,21.05,15.45v8.36c0,12.54-8.88,15.44-21.05,15.44h-9.17c-12.16,0-21.04-2.9-21.04-15.44v-8.36Z" style="fill: #686867;"/>
  <polygon points="186.64 196.79 193.42 196.79 211.93 229.62 230.43 196.79 237.22 196.79 215.74 234.84 208.12 234.84 186.64 196.79" style="fill: #686867;"/>
  <path d="M283.04,222.9c0-5.22-4.63-5.89-14.48-5.89h-9.85c-8.28,0-10.59,1.19-10.59,5.97v1.19c0,4.25,1.49,6.04,10.3,6.04h8.5c11.65,0,16.12-.82,16.12-5.59v-1.72ZM283.04,231.04h-.16c-1.71,3.43-3.73,4.4-13.58,4.4h-15.37c-9.71,0-12.24-4.25-12.24-11.41v-2.54c0-8.66,6.11-9.71,17.31-9.71h10.29c8.36,0,11.35.9,13.58,4.55h.16v-7.16c0-6.86-4.33-7.76-14.18-7.76h-9.4c-8.06,0-9.63,1.94-9.63,5.07v1.35h-6.41v-1.87c0-6.94,4.39-9.78,15.88-9.78h10.15c11.93,0,20,1.79,20,13.13v25.52h-6.41v-3.8Z" style="fill: #686867;"/>
  <path d="M300.8,196.79h5.97v6.56h.14c2.39-5.89,7.39-7.17,15.38-7.17h9.62c12.01,0,15.81,6.05,15.81,12.91v25.74h-6.41v-24.17c0-5.59-1.57-9.25-14.03-9.25h-1.64c-15,0-18.43,2.83-18.43,11.79v21.63h-6.42v-38.04Z" style="fill: #686867;"/>
  <path d="M363.25,202.01h-8.36v-5.22h8.36v-9.03h6.41v9.03h25.44v5.22h-25.44v18.95c0,7.09,2.46,9.25,9.48,9.25h2.01c8.51,0,9.86-1.79,9.86-9.77v-2.84h5.22v4.18c0,7.61-.74,13.65-14.62,13.65h-3.51c-12.01,0-14.85-5.82-14.85-12v-21.42Z" style="fill: #686867;"/>
  <path d="M446.66,222.9c0-5.22-4.63-5.89-14.48-5.89h-9.85c-8.28,0-10.59,1.19-10.59,5.97v1.19c0,4.25,1.49,6.04,10.29,6.04h8.51c11.65,0,16.12-.82,16.12-5.59v-1.72ZM446.66,231.04h-.15c-1.71,3.43-3.73,4.4-13.58,4.4h-15.37c-9.7,0-12.24-4.25-12.24-11.41v-2.54c0-8.66,6.11-9.71,17.31-9.71h10.29c8.36,0,11.35.9,13.58,4.55h.15v-7.16c0-6.86-4.33-7.76-14.19-7.76h-9.4c-8.05,0-9.63,1.94-9.63,5.07v1.35h-6.4v-1.87c0-6.94,4.39-9.78,15.88-9.78h10.15c11.94,0,20,1.79,20,13.13v25.52h-6.41v-3.8Z" style="fill: #686867;"/>
  <path d="M106.83,117.93c0,3.88-3.14,7.02-7.02,7.02h-19.87c-3.87,0-7.01-3.14-7.01-7.02v-19.88c0-3.88,3.14-7.01,7.01-7.01h19.87c3.88,0,7.02,3.13,7.02,7.01v19.88Z" style="fill: #3aaa35;"/>
  <path d="M280.23,131c0,5.33-4.33,9.65-9.66,9.65h-27.33c-5.31,0-9.64-4.32-9.64-9.65v-27.32c0-5.33,4.33-9.65,9.64-9.65h27.33c5.33,0,9.66,4.32,9.66,9.65v27.32Z" style="fill: #3aaa35;"/>
  <path d="M186.04,148.66c0,4.5-3.65,8.15-8.16,8.15h-23.1c-4.5,0-8.15-3.65-8.15-8.15v-23.1c0-4.5,3.65-8.15,8.15-8.15h23.1c4.51,0,8.16,3.65,8.16,8.15v23.1Z" style="fill: #3aaa35;"/>
  <path d="M336.04,77.4h31.9c6.21,0,11.26,5.04,11.26,11.26v31.9c0,6.21-5.05,11.26-11.26,11.26h-31.89c-6.21,0-11.26-5.05-11.26-11.26v-31.89c0-6.21,5.05-11.26,11.26-11.26Z" style="fill: #3aaa35;"/>
  <path d="M453.06,148.59c0,4.49-3.64,8.13-8.12,8.13h-23.03c-4.49,0-8.13-3.64-8.13-8.13v-23.03c0-4.48,3.64-8.13,8.13-8.13h23.03c4.48,0,8.12,3.64,8.12,8.13v23.03Z" style="fill: #3aaa35;"/>
  <path d="M213.19,281.94c-2.97-1.23-4.29-2.12-4.29-4.13,0-1.7,1.2-3.42,3.88-3.42,1.59,0,3,.42,4.18,1.26l.37.26,1.14-2.48-.25-.18c-1.29-.92-3.13-1.44-5.06-1.44-4.69,0-7.14,3.18-7.14,6.32,0,2.74,1.96,4.87,5.81,6.34,3.24,1.32,4.38,2.53,4.38,4.63,0,2.33-1.82,3.78-4.75,3.78-2.08,0-3.86-.91-4.74-1.45l-.37-.23-1.07,2.52.27.17c1.6,1,3.71,1.57,5.78,1.57,4.66,0,7.78-2.67,7.78-6.64s-2.99-5.72-5.91-6.89" style="fill: #686867;"/>
  <rect x="224.11" y="272.32" width="2.94" height="22.69" style="fill: #686867;"/>
  <path d="M225.58,264.13c-1.17,0-2.16,1.05-2.16,2.3s.91,2.25,2.07,2.25h.05c1.23,0,2.16-.97,2.16-2.25s-.93-2.3-2.11-2.3" style="fill: #686867;"/>
  <path d="M257.14,271.81c-2.22,0-3.8.54-5.45,1.87-.57.48-1.35,1.27-2.01,2.46-1.2-2.69-3.59-4.33-6.39-4.33-2.95,0-5.21,1.19-6.89,3.62l-.11-3.11h-2.82l.03.4c.13,1.62.18,3.08.18,5.23v17.06h2.94v-13.91c0-.64.1-1.31.31-2.04.72-2.25,2.82-4.67,5.72-4.67,3.13,0,5.07,2.49,5.07,6.49v14.13h2.94v-14.45c0-.78.17-1.47.34-2.07.78-2.04,2.75-4.1,5.41-4.1,4.42,0,5.34,4.07,5.34,7.48v13.14h2.95v-13.31c0-9.41-6.3-9.89-7.56-9.89" style="fill: #686867;"/>
  <path d="M281.74,271.81c-3.39,0-6.1,1.36-7.89,3.94l-.12-3.43h-2.86l.03.4c.13,1.96.18,4.04.18,6.97v24.38h2.94v-11.89c1.62,2.14,4.18,3.34,7.17,3.34,5.15,0,10.35-3.78,10.35-12.22,0-6.76-4.03-11.49-9.8-11.49M288.59,283.39c0,5.89-2.89,9.54-7.54,9.54-3.25,0-6.01-2.13-6.86-5.29-.12-.47-.17-1.01-.17-1.64v-4.3c0-.47.14-1.05.26-1.55l.05-.22c.87-3.25,3.71-5.53,6.91-5.53,5.05,0,7.35,4.67,7.35,9" style="fill: #686867;"/>
  <rect x="296.37" y="261.75" width="2.94" height="33.26" style="fill: #686867;"/>
  <path d="M307.54,264.13c-1.17,0-2.15,1.05-2.15,2.3s.9,2.25,2.06,2.25h.05c1.23,0,2.16-.97,2.16-2.25s-.93-2.3-2.12-2.3" style="fill: #686867;"/>
  <rect x="306.07" y="272.32" width="2.94" height="22.69" style="fill: #686867;"/>
  <path d="M325.29,274.44c2.44,0,4.05.67,4.97,1.22l.37.22,1.07-2.46-.24-.18c-.98-.72-3.35-1.44-5.98-1.44-6.87,0-11.67,4.97-11.67,12.08s4.48,11.57,10.89,11.57c2.95,0,5.22-.79,6.61-1.45l.3-.14-.83-2.45-.38.18c-1.3.61-2.89,1.25-5.33,1.25-4.97,0-8.31-3.67-8.31-9.14,0-4.61,2.64-9.27,8.54-9.27" style="fill: #686867;"/>
  <rect x="336.02" y="272.32" width="2.94" height="22.69" style="fill: #686867;"/>
  <path d="M337.5,264.13c-1.19,0-2.15,1.03-2.15,2.3s.9,2.25,2.06,2.25h.05c1.23,0,2.16-.97,2.16-2.25s-.93-2.3-2.12-2.3" style="fill: #686867;"/>
  <path d="M349.35,267.31l-2.94,1.1v3.91h-3.71v2.53h3.71v13.49c0,2.58.48,4.38,1.45,5.49.89,1.08,2.28,1.65,4.04,1.65,1.21,0,2.29-.18,3.21-.53l.29-.11-.4-2.38-.42.14c-.4.14-1.14.3-2.4.3s-2.82-.43-2.82-4.15v-13.89h6.26v-2.53h-6.26v-5.01Z" style="fill: #686867;"/>
  <path d="M368.52,286.78c-.5,1.29-.92,2.55-1.29,3.65-.03.08-.06.17-.08.25-.41-1.3-.88-2.65-1.31-3.76l-5.86-14.59h-3.13l8.34,20.85c.23.58.24.78.24.82,0,.18-.09.44-.24.82-1.11,2.63-2.56,4.39-3.57,5.4-1.5,1.4-2.98,2.07-3.72,2.35l-.35.13.95,2.53.35-.13c.61-.22,2.23-.9,3.96-2.36,2.88-2.51,4.71-6.37,7.5-13.54l6.79-16.88h-3.14l-5.44,14.46Z" style="fill: #686867;"/>
  <path d="M393.43,271.4c0-5.07,1.78-7.53,5.43-7.53,1.86,0,3.39.67,4.21,1.3l.33.26,1.39-2.33-.25-.2c-1.11-.91-3.38-1.59-5.27-1.59-5.59,0-8.79,3.63-8.79,9.97v1.05h-3.15v2.53h3.15v20.17h2.94v-20.17h9.45v20.17h2.94v-22.69h-12.39v-.91Z" style="fill: #686867;"/>
  <path d="M421.1,271.81c-2.49,0-4.73,1.49-6.01,3.9l-.07-3.39h-2.78l.03.4c.12,1.88.18,4.02.18,6.55v15.74h2.94v-12.49c0-.82.06-1.49.18-2.04.6-3.53,2.72-5.81,5.39-5.81.39,0,.7,0,1,.04l.43.06v-2.81l-.31-.05c-.31-.05-.64-.1-.98-.1" style="fill: #686867;"/>
  <path d="M432.13,281.94c-2.97-1.23-4.3-2.12-4.3-4.13,0-1.7,1.2-3.42,3.88-3.42,1.59,0,3,.42,4.17,1.26l.37.26,1.14-2.48-.25-.18c-1.29-.92-3.14-1.44-5.07-1.44-4.69,0-7.14,3.18-7.14,6.32,0,2.74,1.96,4.87,5.81,6.34,3.24,1.32,4.39,2.53,4.39,4.63,0,2.33-1.82,3.78-4.74,3.78-2.08,0-3.87-.91-4.74-1.45l-.37-.23-1.08,2.52.27.17c1.6,1,3.71,1.57,5.78,1.57,4.66,0,7.78-2.67,7.78-6.64s-2.99-5.72-5.9-6.89" style="fill: #686867;"/>
  <path d="M453.07,274.84v-2.53h-6.26v-5.01l-2.95,1.1v3.91h-3.71v2.53h3.71v13.49c0,2.59.48,4.39,1.45,5.49.89,1.08,2.28,1.65,4.04,1.65,1.21,0,2.29-.18,3.2-.53l.28-.11-.39-2.38-.42.14c-.4.14-1.13.3-2.39.3s-2.82-.43-2.82-4.15v-13.89h6.26Z" style="fill: #686867;"/>
</svg>