<?xml version="1.0" encoding="UTF-8" standalone="no"?>
<!-- Created with Inkscape (http://www.inkscape.org/) -->

<svg
   version="1.1"
   id="svg1"
   width="1333.3333"
   height="1200"
   viewBox="0 0 1333.3333 1200"
   sodipodi:docname="SpryFox_v1.ai"
   inkscape:version="1.3.2 (091e20e, 2023-11-25)"
   xmlns:inkscape="http://www.inkscape.org/namespaces/inkscape"
   xmlns:sodipodi="http://sodipodi.sourceforge.net/DTD/sodipodi-0.dtd"
   xmlns="http://www.w3.org/2000/svg"
   xmlns:svg="http://www.w3.org/2000/svg">
  <defs
     id="defs1">
    <linearGradient
       x1="0"
       y1="0"
       x2="1"
       y2="0"
       gradientUnits="userSpaceOnUse"
       gradientTransform="matrix(330.83841,-126.93073,-126.93073,-330.83841,72.663574,504.04199)"
       spreadMethod="pad"
       id="linearGradient2">
      <stop
         style="stop-opacity:1;stop-color:#f7931e"
         offset="0"
         id="stop1" />
      <stop
         style="stop-opacity:1;stop-color:#ea0000"
         offset="1"
         id="stop2" />
    </linearGradient>
    <linearGradient
       x1="0"
       y1="0"
       x2="1"
       y2="0"
       gradientUnits="userSpaceOnUse"
       gradientTransform="matrix(330.83456,-126.92925,-126.92925,-330.83456,37.282715,411.82324)"
       spreadMethod="pad"
       id="linearGradient4">
      <stop
         style="stop-opacity:1;stop-color:#f7931e"
         offset="0"
         id="stop3" />
      <stop
         style="stop-opacity:1;stop-color:#ea0000"
         offset="1"
         id="stop4" />
    </linearGradient>
    <linearGradient
       x1="0"
       y1="0"
       x2="1"
       y2="0"
       gradientUnits="userSpaceOnUse"
       gradientTransform="matrix(330.83539,-126.92957,-126.92957,-330.83539,33.077148,400.86426)"
       spreadMethod="pad"
       id="linearGradient6">
      <stop
         style="stop-opacity:1;stop-color:#f7931e"
         offset="0"
         id="stop5" />
      <stop
         style="stop-opacity:1;stop-color:#ea0000"
         offset="1"
         id="stop6" />
    </linearGradient>
    <linearGradient
       x1="0"
       y1="0"
       x2="1"
       y2="0"
       gradientUnits="userSpaceOnUse"
       gradientTransform="matrix(330.83356,-126.92887,-126.92887,-330.83356,45.869141,434.20117)"
       spreadMethod="pad"
       id="linearGradient8">
      <stop
         style="stop-opacity:1;stop-color:#f7931e"
         offset="0"
         id="stop7" />
      <stop
         style="stop-opacity:1;stop-color:#ea0000"
         offset="1"
         id="stop8" />
    </linearGradient>
    <linearGradient
       x1="0"
       y1="0"
       x2="1"
       y2="0"
       gradientUnits="userSpaceOnUse"
       gradientTransform="matrix(330.83359,-126.92888,-126.92888,-330.83359,31.819336,397.58594)"
       spreadMethod="pad"
       id="linearGradient10">
      <stop
         style="stop-opacity:1;stop-color:#f7931e"
         offset="0"
         id="stop9" />
      <stop
         style="stop-opacity:1;stop-color:#ea0000"
         offset="1"
         id="stop10" />
    </linearGradient>
    <linearGradient
       x1="0"
       y1="0"
       x2="1"
       y2="0"
       gradientUnits="userSpaceOnUse"
       gradientTransform="matrix(330.81775,-126.9228,-126.9228,-330.81775,37.407715,412.11426)"
       spreadMethod="pad"
       id="linearGradient12">
      <stop
         style="stop-opacity:1;stop-color:#f7931e"
         offset="0"
         id="stop11" />
      <stop
         style="stop-opacity:1;stop-color:#ea0000"
         offset="1"
         id="stop12" />
    </linearGradient>
    <linearGradient
       x1="0"
       y1="0"
       x2="1"
       y2="0"
       gradientUnits="userSpaceOnUse"
       gradientTransform="matrix(330.83029,-126.92761,-126.92761,-330.83029,51.388184,448.57715)"
       spreadMethod="pad"
       id="linearGradient14">
      <stop
         style="stop-opacity:1;stop-color:#f7931e"
         offset="0"
         id="stop13" />
      <stop
         style="stop-opacity:1;stop-color:#ea0000"
         offset="1"
         id="stop14" />
    </linearGradient>
    <linearGradient
       x1="0"
       y1="0"
       x2="1"
       y2="0"
       gradientUnits="userSpaceOnUse"
       gradientTransform="matrix(330.81775,-126.9228,-126.9228,-330.81775,46.411133,435.56738)"
       spreadMethod="pad"
       id="linearGradient16">
      <stop
         style="stop-opacity:1;stop-color:#f7931e"
         offset="0"
         id="stop15" />
      <stop
         style="stop-opacity:1;stop-color:#ea0000"
         offset="1"
         id="stop16" />
    </linearGradient>
    <linearGradient
       x1="0"
       y1="0"
       x2="1"
       y2="0"
       gradientUnits="userSpaceOnUse"
       gradientTransform="matrix(330.81241,-126.92076,-126.92076,-330.81241,30.270996,393.51855)"
       spreadMethod="pad"
       id="linearGradient18">
      <stop
         style="stop-opacity:1;stop-color:#f7931e"
         offset="0"
         id="stop17" />
      <stop
         style="stop-opacity:1;stop-color:#ea0000"
         offset="1"
         id="stop18" />
    </linearGradient>
    <linearGradient
       x1="0"
       y1="0"
       x2="1"
       y2="0"
       gradientUnits="userSpaceOnUse"
       gradientTransform="matrix(330.79987,-126.91595,-126.91595,-330.79987,15.067383,353.90332)"
       spreadMethod="pad"
       id="linearGradient20">
      <stop
         style="stop-opacity:1;stop-color:#f7931e"
         offset="0"
         id="stop19" />
      <stop
         style="stop-opacity:1;stop-color:#ea0000"
         offset="1"
         id="stop20" />
    </linearGradient>
    <linearGradient
       x1="0"
       y1="0"
       x2="1"
       y2="0"
       gradientUnits="userSpaceOnUse"
       gradientTransform="matrix(-7.6e-6,-174.59605,-174.59605,7.6e-6,251.2373,550.43896)"
       spreadMethod="pad"
       id="linearGradient22">
      <stop
         style="stop-opacity:1;stop-color:#f7931e"
         offset="0"
         id="stop21" />
      <stop
         style="stop-opacity:1;stop-color:#ea0000"
         offset="1"
         id="stop22" />
    </linearGradient>
    <linearGradient
       x1="0"
       y1="0"
       x2="1"
       y2="0"
       gradientUnits="userSpaceOnUse"
       gradientTransform="matrix(-7.6e-6,-174.59584,-174.59584,7.6e-6,368.16504,550.43896)"
       spreadMethod="pad"
       id="linearGradient24">
      <stop
         style="stop-opacity:1;stop-color:#f7931e"
         offset="0"
         id="stop23" />
      <stop
         style="stop-opacity:1;stop-color:#ea0000"
         offset="1"
         id="stop24" />
    </linearGradient>
    <linearGradient
       x1="0"
       y1="0"
       x2="1"
       y2="0"
       gradientUnits="userSpaceOnUse"
       gradientTransform="matrix(-7.6e-6,-174.59584,-174.59584,7.6e-6,484.86084,550.43896)"
       spreadMethod="pad"
       id="linearGradient26">
      <stop
         style="stop-opacity:1;stop-color:#f7931e"
         offset="0"
         id="stop25" />
      <stop
         style="stop-opacity:1;stop-color:#ea0000"
         offset="1"
         id="stop26" />
    </linearGradient>
    <linearGradient
       x1="0"
       y1="0"
       x2="1"
       y2="0"
       gradientUnits="userSpaceOnUse"
       gradientTransform="matrix(-7.6e-6,-174.59547,-174.59547,7.6e-6,596.58203,550.43896)"
       spreadMethod="pad"
       id="linearGradient28">
      <stop
         style="stop-opacity:1;stop-color:#f7931e"
         offset="0"
         id="stop27" />
      <stop
         style="stop-opacity:1;stop-color:#ea0000"
         offset="1"
         id="stop28" />
    </linearGradient>
    <linearGradient
       x1="0"
       y1="0"
       x2="1"
       y2="0"
       gradientUnits="userSpaceOnUse"
       gradientTransform="matrix(-7.6e-6,-174.59584,-174.59584,7.6e-6,705.86523,550.43896)"
       spreadMethod="pad"
       id="linearGradient30">
      <stop
         style="stop-opacity:1;stop-color:#f7931e"
         offset="0"
         id="stop29" />
      <stop
         style="stop-opacity:1;stop-color:#ea0000"
         offset="1"
         id="stop30" />
    </linearGradient>
    <linearGradient
       x1="0"
       y1="0"
       x2="1"
       y2="0"
       gradientUnits="userSpaceOnUse"
       gradientTransform="matrix(-7.6e-6,-174.59714,-174.59714,7.6e-6,817.5918,550.43896)"
       spreadMethod="pad"
       id="linearGradient32">
      <stop
         style="stop-opacity:1;stop-color:#f7931e"
         offset="0"
         id="stop31" />
      <stop
         style="stop-opacity:1;stop-color:#ea0000"
         offset="1"
         id="stop32" />
    </linearGradient>
    <linearGradient
       x1="0"
       y1="0"
       x2="1"
       y2="0"
       gradientUnits="userSpaceOnUse"
       gradientTransform="matrix(-7.6e-6,-174.59547,-174.59547,7.6e-6,930.85547,550.43896)"
       spreadMethod="pad"
       id="linearGradient34">
      <stop
         style="stop-opacity:1;stop-color:#f7931e"
         offset="0"
         id="stop33" />
      <stop
         style="stop-opacity:1;stop-color:#ea0000"
         offset="1"
         id="stop34" />
    </linearGradient>
  </defs>
  <sodipodi:namedview
     id="namedview1"
     pagecolor="#ffffff"
     bordercolor="#000000"
     borderopacity="0.25"
     inkscape:showpageshadow="2"
     inkscape:pageopacity="0.0"
     inkscape:pagecheckerboard="0"
     inkscape:deskcolor="#d1d1d1"
     inkscape:zoom="0.19666667"
     inkscape:cx="668.64407"
     inkscape:cy="600"
     inkscape:window-width="1408"
     inkscape:window-height="449"
     inkscape:window-x="0"
     inkscape:window-y="44"
     inkscape:window-maximized="0"
     inkscape:current-layer="layer-MC0">
    <inkscape:page
       x="0"
       y="0"
       inkscape:label="1"
       id="page1"
       width="1333.3333"
       height="1200"
       margin="393.45065 18.830667 393.45065 26.830133"
       bleed="0" />
  </sodipodi:namedview>
  <g
     id="layer-MC0"
     inkscape:groupmode="layer"
     inkscape:label="Layer 1">
    <path
       id="path2"
       d="m 105.369,575.716 c 0,0 -45.303,-14.094 -70.136,-55.035 v 0 C 10.399,479.741 17.896,426.047 45.19,385.329 v 0 c 0,0 -33.558,63.539 11.184,99.334 v 0 c 0,0 -6.938,2.46 -13.871,-2.91 v 0 c 0,0 20.358,36.689 57.721,36.689 v 0 c 37.362,0 61.188,-38.2 79.645,-36.689 v 0 c 0,0 -1.008,-9.397 -18.457,-1.511 v 0 c -17.45,7.888 -31.714,18.291 -47.149,18.291 v 0 c -15.437,0 -35.741,-9.843 -39.767,-61.3 v 0 c 0,0 4.25,6.265 17.896,6.265 v 0 c 0,0 -13.143,-11.311 -12.837,-28.521 v 0 c 0.183,-10.328 2.431,-23.223 20.817,-36.189 v 0 c 0,0 8.555,-6.943 27.799,-9 v 0 c 17.413,-1.866 76.919,19.581 75.029,21.837 v 0 c -11.256,13.43 -29.277,27.645 -42.963,35.26 v 0 c -38.591,21.478 -57.048,26.311 -57.048,44.366 v 0 c 0,18.053 11.745,20.067 24.33,15.37 v 0 c 12.583,-4.699 33.893,-16.781 46.31,-16.781 v 0 c 12.415,0 18.981,13.06 16.918,15.067 v 0 c -1.403,1.366 -1.819,0.369 -10.878,8.089 v 0 c -9.062,7.717 -16.109,18.457 -16.109,18.457 v 0 c 0,0 3.357,30.37 -21.476,48.491 v 0 c 0,0 14.094,11.747 4.361,44.968 v 0 c 0,0 -8.052,-15.436 -41.276,-29.196"
       transform="matrix(1.3333333,0,0,-1.3333333,0,1200)"
       style="fill:url(#linearGradient2);stroke:none" />
    <path
       id="path4"
       d="m 27.887,437.764 c -1.158,-0.078 -2.105,-0.957 -2.267,-2.105 v 0 c -5.251,-36.992 2.888,-69.9 23.538,-95.17 v 0 c 21.599,-26.429 55.697,-42.882 93.55,-45.134 v 0 c 26.829,-1.6 52.796,4.025 75.093,16.268 v 0 c 25.934,14.239 52.334,20.67 78.464,19.113 v 0 c 31.283,-1.863 51.11,-14.842 51.306,-14.975 v 0 c 0.814,-0.541 1.872,-0.55 2.695,-0.021 v 0 c 0.819,0.533 1.251,1.496 1.094,2.462 v 0 c -8.717,53.317 -37.318,80.464 -90.008,85.431 v 0 c -24.921,2.34 -48.025,-5.929 -72.543,-14.712 v 0 c -25.058,-8.973 -50.969,-18.254 -81.508,-17.302 v 0 c -58.582,1.776 -76.709,63.744 -76.884,64.362 v 0 c -0.3,1.064 -1.267,1.788 -2.367,1.788 v 0 c -0.054,0 -0.108,-0.002 -0.163,-0.005 M 143,300.257 c -36.488,2.175 -69.304,17.971 -90.038,43.342 v 0 c -17.866,21.863 -25.931,49.79 -23.577,81.254 v 0 c 8.068,-18.461 30.495,-56.693 77.763,-58.146 v 0 c 31.47,-0.98 57.828,8.46 83.318,17.59 v 0 c 23.999,8.594 46.568,16.67 70.424,14.443 v 0 c 49.073,-4.625 75.381,-28.187 84.699,-76.166 v 0 c -7.852,4.139 -25.096,11.642 -49.033,13.067 v 0 c -27.068,1.612 -54.361,-5.019 -81.12,-19.712 v 0 C 196.342,305.446 174.435,300 151.612,300 v 0 c -2.857,0 -5.73,0.086 -8.612,0.257"
       transform="matrix(1.3333333,0,0,-1.3333333,0,1200)"
       style="fill:url(#linearGradient4);stroke:none" />
    <path
       id="path6"
       d="M 207.385,356.727 C 114.525,315.553 85.839,312.88 53.917,342.433 v 0 l -3.337,-3.606 c 14.206,-13.153 28.04,-19.999 45.118,-21.015 v 0 c 26.071,-1.55 59.697,10.488 113.679,34.424 v 0 c 36.594,16.229 70.773,15.457 101.579,-2.29 v 0 c 23.08,-13.294 35.534,-31.674 35.656,-31.859 v 0 l 4.086,2.729 c -0.523,0.786 -13.1,19.397 -37.109,33.283 v 0 c -13.141,7.602 -31.276,14.517 -53.756,14.517 v 0 c -15.491,0 -33.045,-3.284 -52.448,-11.889"
       transform="matrix(1.3333333,0,0,-1.3333333,0,1200)"
       style="fill:url(#linearGradient6);stroke:none" />
    <path
       id="path8"
       d="m 153.2,377.346 1.077,-4.795 c 57.742,12.971 95.107,1.022 116.285,-11.288 v 0 c 22.87,-13.295 32.334,-29.865 32.463,-30.094 v 0 l -0.002,-10e-4 0.002,10e-4 c 0,-10e-4 0,-10e-4 0,-10e-4 v 0 l 0.991,0.552 3.303,1.835 c -0.397,0.719 -10.052,17.776 -34.012,31.794 v 0 c -15.292,8.946 -38.676,17.727 -71.552,17.726 v 0 c -14.34,0 -30.491,-1.672 -48.555,-5.729"
       transform="matrix(1.3333333,0,0,-1.3333333,0,1200)"
       style="fill:url(#linearGradient8);stroke:none" />
    <path
       id="path10"
       d="m 24.857,428.068 c 21.762,-93.429 85.534,-92.22 147.202,-91.049 v 0 c 30.861,0.587 60.013,1.139 83.903,-9.638 v 0 l 2.02,4.478 c -24.899,11.232 -55.97,10.643 -86.016,10.072 v 0 c -29.903,-0.564 -60.828,-1.152 -86.249,9.636 v 0 C 57.344,363.613 39.002,389 29.643,429.183 v 0 z"
       transform="matrix(1.3333333,0,0,-1.3333333,0,1200)"
       style="fill:url(#linearGradient10);stroke:none" />
    <path
       id="path12"
       d="m 245.198,329.471 c -0.144,-2.41 0.66,-4.733 2.263,-6.54 v 0 c 1.603,-1.803 3.813,-2.879 6.223,-3.022 v 0 c 0.183,-0.014 0.364,-0.018 0.545,-0.018 v 0 c 4.773,0 8.733,3.735 9.017,8.503 v 0 c 0.296,4.977 -3.51,9.265 -8.486,9.562 v 0 c -0.183,0.011 -0.364,0.017 -0.544,0.017 v 0 c -4.774,0 -8.733,-3.735 -9.018,-8.502"
       transform="matrix(1.3333333,0,0,-1.3333333,0,1200)"
       style="fill:url(#linearGradient12);stroke:none" />
    <path
       id="path14"
       d="m 257.532,366.562 c -0.296,-4.976 3.51,-9.268 8.486,-9.562 v 0 c 0.183,-0.011 0.364,-0.018 0.545,-0.018 v 0 c 4.773,0 8.733,3.736 9.017,8.504 v 0 c 0.143,2.411 -0.66,4.733 -2.264,6.541 v 0 c -1.602,1.802 -3.812,2.876 -6.222,3.022 v 0 c -0.184,0.009 -0.364,0.014 -0.545,0.014 v 0 c -4.772,0 -8.732,-3.733 -9.017,-8.501"
       transform="matrix(1.3333333,0,0,-1.3333333,0,1200)"
       style="fill:url(#linearGradient14);stroke:none" />
    <path
       id="path16"
       d="m 338.07,320.747 c -0.145,-2.411 0.658,-4.734 2.262,-6.54 v 0 c 1.603,-1.808 3.814,-2.878 6.222,-3.021 v 0 c 0.184,-0.013 0.364,-0.019 0.544,-0.019 v 0 c 4.775,0 8.735,3.735 9.018,8.503 v 0 c 0.298,4.977 -3.51,9.265 -8.484,9.563 v 0 c -0.184,0.011 -0.365,0.017 -0.544,0.017 v 0 c -4.775,0 -8.735,-3.735 -9.018,-8.503"
       transform="matrix(1.3333333,0,0,-1.3333333,0,1200)"
       style="fill:url(#linearGradient16);stroke:none" />
    <path
       id="path18"
       d="m 163.485,339.483 c -0.297,-4.977 3.509,-9.264 8.485,-9.563 v 0 c 0.183,-0.011 0.365,-0.014 0.545,-0.014 v 0 c 4.772,0 8.733,3.736 9.017,8.502 v 0 c 0.143,2.411 -0.661,4.733 -2.262,6.539 v 0 c -1.603,1.806 -3.813,2.88 -6.224,3.021 v 0 c -0.183,0.012 -0.363,0.018 -0.543,0.018 v 0 c -4.774,0 -8.735,-3.735 -9.018,-8.503"
       transform="matrix(1.3333333,0,0,-1.3333333,0,1200)"
       style="fill:url(#linearGradient18);stroke:none" />
    <path
       id="path20"
       d="m 46.149,339.057 c -0.145,-2.411 0.66,-4.734 2.263,-6.538 v 0 c 1.602,-1.807 3.812,-2.881 6.223,-3.024 v 0 c 0.183,-0.009 0.364,-0.016 0.544,-0.016 v 0 c 4.774,0 8.734,3.735 9.017,8.503 v 0 c 0.296,4.974 -3.512,9.265 -8.487,9.56 v 0 c -0.182,0.011 -0.363,0.015 -0.544,0.015 v 0 c -4.772,0 -8.732,-3.732 -9.016,-8.5"
       transform="matrix(1.3333333,0,0,-1.3333333,0,1200)"
       style="fill:url(#linearGradient20);stroke:none" />
    <path
       id="path22"
       d="m 206.059,499.875 c 0,-26.417 22.211,-32.811 46.272,-35.67 v 0 c 15.649,-1.683 27.258,-6.227 27.258,-17.334 v 0 c 0,-12.786 -13.123,-17.665 -27.09,-17.665 v 0 c -14.301,0 -27.931,5.72 -33.147,18.677 v 0 l -18.509,-9.591 c 8.749,-21.538 27.257,-28.94 51.321,-28.94 v 0 c 26.248,0 49.467,11.272 49.467,37.519 v 0 c 0,28.102 -22.882,34.496 -47.449,37.525 v 0 c -14.135,1.682 -26.25,4.543 -26.25,14.807 v 0 c 0,8.75 7.909,15.648 24.399,15.648 v 0 c 12.788,0 23.894,-6.393 27.931,-13.124 v 0 l 17.669,9.087 c -8.918,18.173 -27.932,23.387 -46.273,23.387 v 0 c -21.706,-0.168 -45.599,-10.095 -45.599,-34.326"
       transform="matrix(1.3333333,0,0,-1.3333333,0,1200)"
       style="fill:url(#linearGradient22);stroke:none" />
    <path
       id="path24"
       d="M 318.791,530.163 V 412.38 h 22.211 v 34.662 h 33.314 c 57.715,0 57.547,83.29 0,83.29 v 0 c -18.508,0 -37.016,-0.169 -55.525,-0.169 m 22.211,-21.032 h 33.314 c 28.269,0 28.438,-41.73 0,-41.73 v 0 h -33.314 z"
       transform="matrix(1.3333333,0,0,-1.3333333,0,1200)"
       style="fill:url(#linearGradient24);stroke:none" />
    <path
       id="path26"
       d="m 432.699,412.38 h 22.212 v 39.373 h 21.37 l 34.324,-39.373 h 26.418 v 1.513 l -35.674,40.215 c 22.38,4.543 29.784,20.865 29.784,37.018 v 0 c 0,20.36 -14.64,38.869 -42.401,39.037 v 0 c -18.679,0 -37.355,0.169 -56.033,0.169 v 0 z m 22.212,97.087 h 33.821 c 13.966,0 20.191,-9.423 20.191,-18.846 v 0 c 0,-9.423 -6.056,-18.846 -20.191,-18.846 v 0 h -33.821 z"
       transform="matrix(1.3333333,0,0,-1.3333333,0,1200)"
       style="fill:url(#linearGradient26);stroke:none" />
    <path
       id="path28"
       d="m 627.037,530.163 -31.296,-48.627 -29.952,48.627 h -26.416 v -1.009 l 45.262,-68.148 V 412.38 h 22.211 v 48.626 l 46.945,68.148 v 1.009 z"
       transform="matrix(1.3333333,0,0,-1.3333333,0,1200)"
       style="fill:url(#linearGradient28);stroke:none" />
    <path
       id="path30"
       d="M 663.547,529.995 V 412.38 h 22.212 v 43.579 h 59.059 v 20.528 h -59.059 v 32.138 h 62.424 v 21.37 z"
       transform="matrix(1.3333333,0,0,-1.3333333,0,1200)"
       style="fill:url(#linearGradient30);stroke:none" />
    <path
       id="path32"
       d="m 757.099,470.43 c 0,-30.961 19.182,-60.743 60.576,-60.743 v 0 c 41.392,0 60.067,30.454 60.406,60.91 v 0 c 0.335,30.793 -19.854,61.922 -60.406,61.922 v 0 c -40.721,0 -60.576,-31.129 -60.576,-62.089 m 21.874,-0.338 c -0.507,19.856 10.936,42.235 38.702,42.235 v 0 c 27.761,0 38.869,-22.21 38.529,-42.065 v 0 c -0.334,-19.351 -10.768,-40.216 -38.529,-40.216 v 0 c -27.766,0 -38.197,20.697 -38.702,40.046"
       transform="matrix(1.3333333,0,0,-1.3333333,0,1200)"
       style="fill:url(#linearGradient32);stroke:none" />
    <path
       id="path34"
       d="m 960.301,530.163 -29.445,-43.917 -29.446,43.917 h -24.4 v -1.009 l 39.712,-57.209 -40.889,-58.893 v -0.672 h 24.903 l 30.12,44.253 30.12,-44.253 h 24.901 v 0.672 l -41.055,58.893 39.878,57.209 v 1.009 z"
       transform="matrix(1.3333333,0,0,-1.3333333,0,1200)"
       style="fill:url(#linearGradient34);stroke:none" />
  </g>
</svg>
