<?xml version="1.0" encoding="UTF-8"?>
<svg id="Layer_1" xmlns="http://www.w3.org/2000/svg" viewBox="0 0 1506.78 1497.99">
  <defs>
    <style>
      .cls-1, .cls-2, .cls-3 {
        fill: #100030;
      }

      .cls-2, .cls-4 {
        fill-rule: evenodd;
      }

      .cls-5 {
        fill: #bb00d4;
      }

      .cls-6 {
        fill: #170d55;
      }

      .cls-7 {
        fill: #fff;
      }

      .cls-4 {
        fill: #f050f8;
      }

      .cls-3 {
        opacity: .1;
      }

      .cls-8 {
        fill: #9a0d9f;
      }
    </style>
  </defs>
  <g>
    <path class="cls-6" d="M186.42,1121.82h62.34v69.8l53.02-69.8h72.47l-65.01,81,66.34,105.51h-74.33l-36.5-59.15-15.99,19.45v39.7h-62.34v-186.5Z"/>
    <path class="cls-6" d="M375.58,1121.82h91.12c33.04,0,54.09,8.26,67.14,21.32,11.19,11.19,17.05,25.04,17.05,44.23v.53c0,27.18-14.12,46.09-36.77,57.01l43.43,63.41h-71.14l-35.17-53.29h-13.32v53.29h-62.34v-186.5ZM464.84,1210.54c14.92,0,23.98-6.66,23.98-18.12v-.53c0-11.99-9.32-17.85-23.71-17.85h-27.18v36.5h26.91Z"/>
    <path class="cls-6" d="M698.5,1121.78l78.05,186.54h-67.67l-9.86-25.04h-65.28l-9.59,25.04h-66.61l78.05-186.54h62.89ZM683.57,1239.05l-17.05-45.29-17.05,45.29h34.1Z"/>
    <path class="cls-6" d="M776.55,1121.82h62.35v69.8l53.02-69.8h72.47l-65.01,81,66.34,105.51h-74.33l-36.5-59.15-15.98,19.45v39.7h-62.35v-186.5Z"/>
    <path class="cls-6" d="M965.72,1121.82h159.06v51.15h-97.78v18.92h81.53v45.03h-81.53v20.25h97.78v51.15h-159.06v-186.5Z"/>
    <path class="cls-6" d="M1134.3,1121.82h58.35l66.34,82.33v-82.33h61.81v186.5h-55.42l-69.27-86.06v86.06h-61.81v-186.5Z"/>
  </g>
  <g>
    <path class="cls-4" d="M875.41,239.66c-38.23-14.49-79.68-22.41-122.98-22.41-11.25,0-22.38.54-33.36,1.58,70.69,131.41,112.26,292.16,112.26,465.76,0,33.31-1.53,66.14-4.5,98.38,16.43-11.24,30.5-22.93,37.59-32.13,11.24-14.51,16.89-28.54,22.99-55.48,9.1-41.21,4.5-76.43-16.92-144.13-15.78-49.39-29.02-109.52-34.01-154.77-2.56-25.25-.51-58.98,6.35-82.88,4.97-17.31,14.3-49.88,32.59-73.92ZM1097.3,407.71c16.19-7.34,25.51-19.42,32.45-33.56,7.49-16.63,13.19-40.71-5.94-74.21-13.95-25.39-45.66-47.71-78.23-47.99-22.81-.2-42.78,6.61-58.46,15.21,47.05,37.2,85.05,85.33,110.18,140.55ZM1062.98,719.67c-1.05-109.43-43.1-176.93-92.04-250.72-45.29-68.3-39.44-143.82-16.64-175.89,1.61-1.96,3.68-4.19,6.17-6.59,43.84,32.87,79.64,75.87,103.94,125.52-15.56-2.43-31.2-10.09-42.09-20.14,0,0-25.91-17.86-16.47.49,10.03,20.09,23.33,32.1,52.58,40.64,5.61,1.64,11.19,2.65,16.67,3.16,15.78,39.67,24.45,82.94,24.45,128.24,0,55.82-13.17,108.56-36.58,155.29ZM1107.77,433.14c35.91-10.14,63.45-41.45,69.04-73.15,8.41-47.66.61-98.94-43.51-138.71-29.5-26.2-82.77-43.56-128.53-41.55-32.03,1.1-74.89,12.51-104.73,35.81-45.36-19.22-95.25-29.85-147.62-29.85-199.05,0-362.23,153.57-377.52,348.68-.78,9.52-1.17,19.14-1.17,28.86v.57s0,.59,0,.59c0,209.15,169.55,378.7,378.7,378.7s378.7-169.55,378.7-378.7c0-46.14-8.25-90.35-23.36-131.24Z"/>
    <path class="cls-3" d="M791.24,906.92c4.35-40.37,6.61-81.69,6.61-123.73,0-211.41-57.04-404.47-151.1-551.62-140.79,44.12-242.94,175.61-242.94,330.95,0,191.51,155.25,346.76,346.76,346.76,13.76,0,27.33-.8,40.68-2.36Z"/>
    <path class="cls-7" d="M519.68,732.1c8.91,24.33,28.1,44.7,54.35,54.26,47.24,17.19,99.47-7.16,116.67-54.4,7.6-20.88,7.08-42.74.05-62.12l-171.07,62.27Z"/>
    <path class="cls-2" d="M648.35,727.46c-3.56,9.78-14.37,14.82-24.14,11.26-9.78-3.56-14.82-14.37-11.26-24.14,3.56-9.78,14.37-14.82,24.14-11.26,9.78,3.56,14.82,14.37,11.26,24.14ZM551.54,720.51c7.41,13.63,19.64,24.72,35.37,30.45,34.21,12.45,72.04-5.19,84.5-39.4,4.31-11.85,5.02-24.13,2.67-35.65l-122.53,44.6Z"/>
    <path class="cls-5" d="M814.67,862.67c16.02-9.55,33.02-21.12,50.77-35.69,70.56-72.12,74.22-135.56,62.88-206.03-5.6-35.47-27.88-106.14-40.2-127.2-1.01-1.74-20.01-51.59-20.01-51.59-32.81-102.06-9.43-211.87,84.56-253.28.74-.33-166.44,43.31-127.02,207.24,10.63,44.21,27.3,105.27,43.06,154.6,21.39,67.62,25.98,102.81,16.9,143.97-6.09,26.91-11.74,40.93-22.96,55.42-9.07,11.77-22.8,23.21-37.57,33.34-2.49,26.84-5.98,53.26-10.42,79.22Z"/>
    <path class="cls-5" d="M1004.24,384.75c1.79,1.85,3.9,3.81,6.35,5.9,21.02,17.89,49.45,34.72,82.51,28.63,22.11-4.08,53.63-29.76,53.63-75.73,0-64.41-50.14-110.33-105.2-110.33-52.21,0-95.04,37.11-99.35,88.12,2.51-10.9,6.56-20.27,12.16-28.14,1.61-1.96,3.68-4.19,6.17-6.58,0,0,0-1.12,12.84-10.68,7.88-5.87,13.76-8.62,13.76-8.62,15.67-8.59,35.62-15.4,58.4-15.19,32.54.29,64.21,22.58,78.15,47.94,19.11,33.46,13.41,57.52,5.93,74.13-6.93,14.12-16.24,26.19-32.42,33.53,0,0-3.77,1.97-16.42,3.62-12.65,1.65-16.42.67-16.42.67-15.54-2.42-31.16-10.08-42.04-20.12,0,0-15.2-10.48-18.06-7.12Z"/>
    <path class="cls-8" d="M885,705.4c2.29,2.77,4.4,5.68,6.34,8.7,12.13,18.72,23.06,48.68.83,63.26-13.19,8.58-32.63,5.53-44.37-6.22-11.56-11.6-14.99-30.3-9.39-45.1,4.54-11.84,15.57-25.38,28.73-28.28,7.15-1.39,13.25,2.29,17.86,7.65Z"/>
    <path class="cls-1" d="M847.07,738.06c1.14-7.5,4.11-14.51,8.63-20.42,3.11-4.63,8.34-9.27,13.9-7.81,4.03.94,6.77,4.9,8.35,8.76,5.78,14.42-1.98,32.57-15.61,38.63-4.94,2.11-10.39,2.82-13.05-3.09-2.27-5.09-3.04-10.67-2.23-16.07Z"/>
    <path class="cls-8" d="M884.38,598.69c3.17,1.3,6.21,2.88,9.08,4.71,18.39,10.67,40.74,31.27,28.41,53.3-7.4,13.22-25.5,18.97-40.48,14.08-14.98-4.9-25.91-19.05-27.49-34.12-1.25-12.14,2.14-28.43,12.11-36.54,5.44-4.42,12.22-3.8,18.37-1.42Z"/>
    <path class="cls-1" d="M870.94,647.6c-3.34-7.3-4.84-15.22-4.38-23.1.01-5.99,1.55-12.89,7.3-15.02,3.97-1.6,8.78.46,12.51,2.9,13.74,9.18,17.4,29.59,9.19,42.82-3.09,4.96-7.52,8.66-13.31,5.11-4.98-2.73-8.74-8.02-11.3-12.72Z"/>
    <path class="cls-8" d="M865.08,509.56c2.81,1.13,5.56,2.4,8.23,3.82,16.4,8.7,36.48,26.02,26.04,45.56-6.13,11.73-21.91,17.4-35.06,13.65-13.15-3.76-23.29-16.05-24.89-29.01-1.31-10.58,1.41-24.91,9.93-32.19,4.29-4.18,10.09-3.96,15.75-1.83Z"/>
    <path class="cls-1" d="M855.04,551.71c-3-5.72-4.38-12.08-4-18.43.04-4.73.96-10.44,5.76-12.45,3.38-1.33,7.13,0,10.03,1.8,11.33,7.15,14.65,23.43,8.18,34.25-2.46,4.02-5.96,7.18-10.72,4.46-4.01-1.62-7.03-5.79-9.25-9.63Z"/>
    <path class="cls-8" d="M843.47,430.29c2.26,1.27,4.44,2.66,6.53,4.18,12.98,9.59,27.83,26.89,16.16,42.22-6.85,9.17-21.21,12.16-31.92,7.31-10.9-4.86-17.67-16.45-17.47-27.88.23-9.14,4.51-21.14,12.76-26.34,4.41-2.84,9.49-1.76,13.94.51Z"/>
    <path class="cls-1" d="M829.44,465.23c-1.9-5.06-1.76-10.6-.95-16.1.71-4.01,2.36-8.8,6.44-9.78,2.94-.64,5.96.87,8.29,2.75,8.67,7.27,9.28,21.63,2.5,29.88-2.65,3.01-5.92,5.33-9.75,2.48-3.11-2.37-5.39-5.6-6.53-9.24Z"/>
    <path class="cls-8" d="M836.16,352.4c1.69,1.71,3.24,3.54,4.65,5.47,9.05,12.08,17.78,31.76,2.73,42.55-9.06,6.44-22.81,5.42-31.32-1.83-8.51-7.25-11.49-19.71-7.87-30.03,2.79-8.23,10.16-17.94,19.31-20.56,4.57-1.15,9.08,1.17,12.49,4.4Z"/>
    <path class="cls-1" d="M811.07,379.46c-.1-5.59,1.23-11.09,3.89-16.03,1.9-3.71,5.02-8.01,9.49-7.68,1.56.25,3.05.83,4.34,1.72,1.3.88,2.37,2.04,3.13,3.37,6.22,9.76,2.7,23.77-6.94,30.08-3.46,2.24-7.56,3.52-10.39-.32-2.41-2.9-3.31-7.28-3.53-11.14Z"/>
    <path class="cls-8" d="M851.78,281.56c1.04,2.05,1.93,4.15,2.69,6.3,4.63,13.38,6.59,33.49-10.33,39.16-10.21,3.37-22.48-1.34-28.09-10.34-5.61-9-4.65-20.97,1.75-29.24,5.09-6.72,14.67-13.43,23.78-13.25,4.64.18,8.05,3.4,10.2,7.36Z"/>
    <path class="cls-1" d="M820.9,297.24c1.61-4.92,4.39-9.39,8.11-13.09,2.82-2.74,6.75-5.61,10.61-4.26,1.33.61,2.48,1.52,3.37,2.65.88,1.13,1.47,2.45,1.7,3.83,2.85,10.11-4.71,21.55-14.81,24.6-3.82,1.19-7.77,1.11-9.04-2.99-1.32-3.26-.83-7.44.05-10.74Z"/>
    <path class="cls-8" d="M885.48,224.28c.2,1.93.25,3.87.15,5.8-.59,12.03-5.37,28.57-20.8,28.26-9.16-.2-17.52-7.4-19.2-16.07-1.67-8.67,2.98-18,10.81-22.84,6.2-3.86,16.09-6.51,23.34-3.93,3.58,1.53,5.33,4.98,5.69,8.77Z"/>
    <path class="cls-1" d="M855.94,228.45c2.54-3.27,5.97-5.83,9.91-7.39,2.84-1.27,6.65-2.3,8.98-.43,1.7,1.4,2.04,3.88,1.78,6.07-.94,8.22-9.86,14.59-18.19,14.22-3.03-.15-6-1.21-5.91-4.64.36-2.86,1.55-5.58,3.44-7.83Z"/>
    <path class="cls-8" d="M936.91,189.23c-.32,1.51-.8,2.99-1.43,4.41-3.52,9.07-18.85,12.88-22.62,12.08-7.38-1.58-12.42-5.34-11.46-12.58.59-3.56,2.24-6.86,4.74-9.51,2.51-2.66,5.77-4.55,9.4-5.46,5.78-1.44,14.21-1.12,18.98,2.81,2.63,2.06,2.91,5.19,2.38,8.27Z"/>
    <path class="cls-1" d="M911.45,184.09c2.66-1.56,5.84-2.74,9.23-3.43,2.46-.58,5.7-.89,7.27.22,1.18.81.85,2.11.31,3.2-2.33,4.14-10.43,7.11-17.13,6.61-2.49-.22-4.62-.82-3.73-2.64.76-1.48,2.16-2.85,4.05-3.96Z"/>
  </g>
</svg>