<?xml version="1.0" encoding="UTF-8"?>
<svg id="Layer_2" data-name="Layer 2" xmlns="http://www.w3.org/2000/svg" viewBox="0 0 349.66 39.15">
  <defs>
    <style>
      .cls-1 {
        fill: #fff;
      }
    </style>
  </defs>
  <g id="Ebene_1" data-name="Ebene 1">
    <g>
      <path class="cls-1" d="M22.15,12.21c-.86-3.76-3.93-5.7-7.31-5.7s-5.81,1.45-5.81,4.03c0,2.8,4.19,3.92,8.98,5.54,5.48,1.94,11.78,4.19,11.78,11.56,0,6.72-5.81,11.51-14.41,11.51-7.9,0-13.34-4.46-15.38-11.29l7.31-1.99c.75,3.5,3.98,6.51,8.6,6.51,3.76,0,6.08-1.94,6.08-4.36,0-3.6-5.32-4.79-10.65-6.72-4.52-1.61-10-3.87-10-10.43C1.34,5,7.15,0,15.11,0c7.1,0,12.64,4.3,14.25,10.22l-7.21,1.99Z"/>
      <path class="cls-1" d="M61.35.75v6.99h-11.83v30.65h-7.47V7.74h-11.72V.75h31.03Z"/>
      <path class="cls-1" d="M91.95,31.4v6.99h-26.94V.75h26.62v6.99h-19.14v8.01h15.16v6.78h-15.16v8.87h19.47Z"/>
      <path class="cls-1" d="M124.32,32.05h-18.71l-3.01,6.34h-8.34L112.38.75h5.16l18.12,37.64h-8.33l-3.01-6.34ZM121.04,25l-5.59-11.83-.48-1.34-.48,1.34-5.59,11.83h12.15Z"/>
      <path class="cls-1" d="M154.16.75c10.75,0,19.52,7.69,19.52,18.98s-8.71,18.66-19.36,18.66h-16.4V.75h16.24ZM154.32,31.4c6.18,0,11.56-4.36,11.56-11.67s-5.38-11.99-11.72-11.99h-8.76v23.66h8.93Z"/>
      <path class="cls-1" d="M186.04,7.74v9.14h14.62v6.78h-14.62v14.73h-7.48V.75h26.08v6.99h-18.6Z"/>
      <path class="cls-1" d="M226.05,0c10.81,0,19.57,8.23,19.57,19.57s-8.77,19.57-19.57,19.57-19.52-8.23-19.52-19.57S215.24,0,226.05,0ZM226.05,31.78c6.94,0,11.78-5,11.78-12.21s-4.84-12.21-11.78-12.21-11.72,4.95-11.72,12.21,4.84,12.21,11.72,12.21Z"/>
      <path class="cls-1" d="M271.91,38.39l-7.96-12.85h-5.92v12.85h-7.47V.75h13.17c9.25,0,14.84,4.79,14.84,12.37,0,5.22-2.64,9.09-7.21,11.02l8.82,14.25h-8.28ZM258.04,18.55h6.67c4.2,0,6.08-2.53,6.08-5.43s-1.99-5.38-6.08-5.38h-6.67v10.81Z"/>
      <path class="cls-1" d="M310.68,11.99c-1.99-2.85-5.75-4.62-9.46-4.62-7.04,0-11.72,5.05-11.72,12.21s5,12.1,11.72,12.1c4.3,0,8.28-2.26,10.16-5.54l7.53,1.99c-3.12,6.67-9.79,11.02-17.69,11.02-10.81,0-19.52-8.23-19.52-19.57S290.41,0,301.22,0c7.42,0,13.77,3.92,17.1,9.95l-7.63,2.04Z"/>
      <path class="cls-1" d="M349.66,31.4v6.99h-26.94V.75h26.62v6.99h-19.14v8.01h15.16v6.78h-15.16v8.87h19.46Z"/>
    </g>
  </g>
</svg>