<?xml version="1.0" encoding="UTF-8"?><svg id="Ebene_1" xmlns="http://www.w3.org/2000/svg" viewBox="0 0 942.71 164.7"><defs><style>.cls-1{fill:#fff;}.cls-2{fill:#1f1f1f;}.cls-3{fill:#4cd6e1;}</style></defs><rect class="cls-2" x="0" y="0" width="942.71" height="164.7"/><path class="cls-1" d="M558.7,86.8c6.89-1.98,10.76-7.83,10.76-15.15,0-9.47-6.63-16.7-17.3-16.7h-27.97v54.23h10.33v-20.83h13.86l14.2,22.29,8.52-5.59-12.39-18.25Zm-7.23-7.14h-16.96v-16.01h16.96c4.65,0,7.57,3.44,7.57,8.09s-2.93,7.92-7.57,7.92Zm-348.95,7.66h13.77v8.61c-3.96,3.01-8.95,4.82-15.24,4.82-11.28,0-17.73-8.18-17.73-18.68s6.46-18.59,17.3-18.59c6.28,0,11.28,2.75,14.55,7.06l8.09-5.25c-4.65-6.71-12.48-11.1-22.55-11.1-16.87,0-27.89,12.39-27.89,27.89s11.36,27.97,27.89,27.97c11.02,0,19.54-4.39,24.96-11.1v-19.88h-23.15v8.26Zm-72.82-1.46h24.96v-8.78h-24.96v-13.34h27.8v-8.78h-38.13v54.23h39.68v-8.78h-29.35v-14.55Zm-75.49-21.52h19.63v44.84h10.33v-44.84h19.62v-9.38H54.22v9.38Zm182.22,0h19.63v44.84h10.33v-44.84h19.62v-9.38h-49.58v9.38Zm91.76,15.41l-19.19-25.91-8.61,2.24v53.11h9.81v-38.56l14.63,19.8h6.71l14.8-20.05v38.82h9.73V55.81l-8.61-2.15-19.28,26.08Zm106.99,29.44h10.33V54.95h-10.33v54.23Zm41.66-23.33h24.96v-8.78h-24.96v-13.34h27.8v-8.78h-38.13v54.23h39.68v-8.78h-29.35v-14.55Zm-90.72,0h24.96v-8.78h-24.96v-13.34h27.8v-8.78h-38.13v54.23h39.68v-8.78h-29.35v-14.55Z"/><path class="cls-3" d="M695.58,70.05l-1.87-2-14.66,12.52v-12.05h-2.83v27.05h2.83v-12.65l15.48,13.09,1.91-2.09-14.7-12.22,13.83-11.65Zm30.18,14.44c0,5-3.22,8.92-8.35,8.92s-8.26-3.91-8.26-8.92v-15.96h-2.83v15.96c0,6.57,4.35,11.52,11.13,11.52s11.13-4.96,11.13-11.52v-15.96h-2.83v15.96Zm55.97-15.79l-11.05,26.35,2.52,1.04,3.87-9.35h12.22l3.83,9.31,2.57-1.04-11.13-26.66-2.83,.35Zm-3.65,15.61l5.09-12.39,5.13,12.39h-10.22Zm-152.77,11.26h2.83v-27.05h-2.83v27.05Zm35.18-4.61l-16.87-22.92-2.57,.65v26.88h2.83v-22.48l16.87,22.96,2.57-.65v-26.88h-2.83v22.44Zm96.59-10.09c2.52-1,3.83-3.04,3.83-5.65,0-3.78-2.65-6.7-6.61-6.7h-13.48v27.05h13.79c4.61,0,7.65-3.48,7.65-7.74,0-3.44-1.83-6-5.17-6.96Zm-13.44-9.87h10.31c2.57,0,4.13,1.91,4.13,4.39s-1.57,4.39-4.13,4.39h-10.31v-8.78Zm10.65,22.05h-10.65v-10.83h10.65c3.13,0,5.09,2.35,5.09,5.39s-1.96,5.44-5.09,5.44Zm44.58-21.92h10.52v24.44h2.83v-24.44h10.57v-2.61h-23.92v2.61Zm44.18-3.04c-8.05,0-13.39,6.17-13.39,13.96s5.35,13.96,13.39,13.96,13.44-6.22,13.44-13.96-5.39-13.96-13.44-13.96Zm0,25.31c-6.39,0-10.52-5.04-10.52-11.35s4.13-11.35,10.52-11.35,10.52,5.04,10.52,11.35-4.09,11.35-10.52,11.35Zm39.53-9.57c3.65-.65,5.83-3.74,5.83-7.48,0-4.39-2.96-7.83-7.65-7.83h-13.13v27.05h2.83v-11.39h9.18l7.44,11.96,2.39-1.57-6.87-10.74Zm-12.13-2.17v-10.65h10.18c3,0,4.96,2.39,4.96,5.35s-1.96,5.31-4.96,5.31h-10.18Z"/></svg>