<svg width="256" height="256" viewBox="0 0 256 256" fill="none" xmlns="http://www.w3.org/2000/svg">
<g clip-path="url(#clip0_164_2)">
<path d="M159.109 162.471L117.863 229L123.456 160.37L43.7599 193.285L100.386 140.762L13 144.263L82.2097 118.352L13 65.8288L89.2005 78.4343V0L117.863 78.4343L159.109 9.10398L144.429 86.1375L204.55 25.9113L159.109 99.4433L229.717 71.4313L159.109 126.755H243L159.109 162.471Z" fill="#CBEE4C"/>
<path d="M19.419 233.365V237.497H11.5252V254.635H6.86467V237.497H-1V233.365H19.419Z" fill="#0F0F0F"/>
<path d="M41.0939 237.406H26.8502V241.873H39.8414V245.732H26.8502V250.594H41.0939V254.635H22.2187V233.365H41.0939V237.406Z" fill="#0F0F0F"/>
<path d="M64.9621 252.448C65.2534 253.39 65.5156 253.967 65.8069 254.635H61.0589C60.7677 254.149 60.5929 253.754 60.4181 253.207L59.1656 249.105C58.6995 247.586 57.3596 246.583 55.8158 246.583H49.3202V254.635H44.7762V233.365H57.6509C62.4862 233.365 65.4865 235.796 65.4865 239.837C65.4865 242.633 63.7388 244.608 60.8842 245.428C62.1949 245.945 63.3601 247.008 63.8844 248.74L64.9621 252.448ZM49.3202 242.967H56.8353C59.3695 242.967 60.7677 241.994 60.7677 240.05C60.7677 238.105 59.3695 237.072 56.8353 237.072H49.3202V242.967Z" fill="#0F0F0F"/>
<path d="M87.7164 237.406H73.4726V241.873H86.4639V245.732H73.4726V250.594H87.7164V254.635H68.8412V233.365H87.7164V237.406Z" fill="#0F0F0F"/>
<path d="M110.39 233.365V237.376L96.9039 250.594H110.39V254.635H90.5248V250.594L103.895 237.376H90.5248V233.365H110.39Z" fill="#0F0F0F"/>
<path d="M131.842 254.635L129.89 250.32H119.054L117.103 254.635H112.209L121.967 233.365H126.977L136.735 254.635H131.842ZM120.86 246.37H128.084L124.472 238.378L120.86 246.37Z" fill="#0F0F0F"/>
<path d="M146.612 254.635V233.365H151.243V254.635H146.612Z" fill="#0F0F0F"/>
<path d="M166.584 255C159.477 255 154.991 250.533 154.991 244.061C154.991 237.588 159.477 233 166.584 233C173.691 233 178.148 237.588 178.148 244.061C178.148 250.503 173.72 255 166.584 255ZM166.555 250.776C170.866 250.776 173.4 247.981 173.4 244.061C173.4 240.141 170.808 237.224 166.555 237.224C162.331 237.224 159.739 240.141 159.739 244.061C159.739 247.95 162.273 250.776 166.555 250.776Z" fill="#0F0F0F"/>
<path d="M200.38 237.406H186.544V242.724H199.099V246.644H186.544V254.635H181.913V233.365H200.38V237.406Z" fill="#0F0F0F"/>
<path d="M214.209 255C208.15 255 202.325 251.536 202.325 244C202.325 236.434 208.179 233 214.209 233C217.704 233 221.171 234.094 223.53 235.613L222.248 239.655C220.297 238.409 217.646 237.224 214.413 237.224C210.247 237.224 207.072 239.29 207.072 244C207.072 248.71 210.277 250.776 214.413 250.776C217.646 250.776 220.209 249.622 222.248 248.345L223.53 252.387C221.142 253.876 217.704 255 214.209 255Z" fill="#0F0F0F"/>
<path d="M227.056 254.635V233.365H231.688V254.635H227.056Z" fill="#0F0F0F"/>
<path d="M245.805 255C239.193 255 235.523 251.262 235.523 245.489V233.365H240.125V245.185C240.125 248.71 242.135 250.746 245.805 250.746C249.417 250.746 251.369 248.74 251.369 245.185V233.365H256V245.489C256 251.262 252.388 255 245.805 255Z" fill="#0F0F0F"/>
</g>
<defs>
<clipPath id="clip0_164_2">
<rect width="256" height="256" fill="white"/>
</clipPath>
</defs>
</svg>
