<svg width="492" height="142" viewBox="0 0 492 142" fill="none" xmlns="http://www.w3.org/2000/svg">
<g clip-path="url(#clip0_441_168)">
<path d="M195.176 89.3958C195.176 95.261 197.939 97.8943 204.186 97.8943C206.228 97.8943 208.751 97.5352 210.793 96.817V109.625C208.631 110.343 204.786 111.061 201.303 111.061C189.41 111.061 180.76 106.393 180.76 90.3534V62.5837H171.15V50.0155H180.76V32.061H195.176V50.0155H210.793V62.5837H195.176V89.3958Z" fill="#12273E"/>
<path d="M246.203 111.061C228.664 111.061 215.57 98.2538 215.57 79.9401C215.57 61.6265 228.664 48.8188 246.203 48.8188C263.743 48.8188 276.837 61.6265 276.837 79.9401C276.837 98.2538 263.743 111.061 246.203 111.061ZM246.203 97.8946C255.453 97.8946 262.421 90.7129 262.421 79.9401C262.421 69.1674 255.453 61.9855 246.203 61.9855C236.953 61.9855 229.986 69.1674 229.986 79.9401C229.986 90.7129 236.953 97.8946 246.203 97.8946Z" fill="#12273E"/>
<path d="M312.645 109.864H294.265L279.249 50.0156H293.064L303.635 96.458L314.207 50.0156H332.587L343.158 96.458L353.73 50.0156H367.545L352.529 109.864H334.149L323.457 63.302L312.645 109.864Z" fill="#12273E"/>
<path d="M429.25 84.7279H384.081C385.642 93.4658 391.409 98.4931 400.298 98.4931C406.665 98.4931 410.389 96.0991 412.311 91.9097H427.928C424.325 104.358 413.873 111.061 399.698 111.061C382.519 111.061 369.905 98.2538 369.905 79.9401C369.905 61.6265 382.519 48.8188 399.698 48.8188C416.876 48.8188 429.49 61.6265 429.49 79.9401C429.49 81.6159 429.37 83.1719 429.25 84.7279ZM399.698 61.3871C391.289 61.3871 385.763 66.1749 384.201 74.5537H415.195C413.633 66.1749 408.107 61.3871 399.698 61.3871Z" fill="#12273E"/>
<path d="M452.965 50.0159V59.7113C457.289 52.6491 464.377 48.8188 473.147 48.8188C474.228 48.8188 475.429 48.8189 476.15 49.0583V64.7385C474.468 64.14 472.306 63.781 469.903 63.781C459.211 63.781 452.965 69.287 452.965 79.3416V109.864H438.549V50.0159H452.965Z" fill="#12273E"/>
<path d="M76.3789 11C110.278 11 137.759 38.4811 137.759 72.3799C137.759 99.8789 119.674 123.153 94.75 130.962C93.4958 131.355 92.249 130.397 92.249 129.083V89.1019C92.249 88.378 92.6401 87.7106 93.2717 87.3569L101.353 82.831C101.868 82.5425 102.229 82.0412 102.34 81.4614L104.516 70.0706C104.751 68.8378 103.807 67.6953 102.551 67.6953H49.3569C48.1018 67.6953 47.1569 68.8379 47.3925 70.0707L49.5693 81.4614C49.6801 82.0413 50.0414 82.5425 50.5565 82.831L58.6364 87.3559C59.268 87.7096 59.6592 88.377 59.6592 89.1009V128.809C59.6592 130.135 58.3909 131.094 57.1315 130.678C32.6613 122.604 15.0002 99.5551 15 72.3799C15 38.4812 42.4803 11.0003 76.3789 11ZM47.1063 50.7725C46.2263 50.7725 45.4497 51.3477 45.1932 52.1895L43.3204 58.335C42.9288 59.62 43.8901 60.918 45.2335 60.918H107.526C108.869 60.918 109.831 59.6199 109.439 58.3348L107.566 52.1893C107.309 51.3476 106.533 50.7725 105.653 50.7725H47.1063Z" fill="#12273E"/>
</g>
<defs>
<clipPath id="clip0_441_168">
<rect width="462" height="121" fill="white" transform="translate(15 11)"/>
</clipPath>
</defs>
</svg>
