<?xml version="1.0" encoding="UTF-8"?>
<svg id="Layer_1" xmlns="http://www.w3.org/2000/svg" xmlns:xlink="http://www.w3.org/1999/xlink" version="1.1" viewBox="0 0 1000 400">
  <!-- Generator: Adobe Illustrator 29.2.0, SVG Export Plug-In . SVG Version: 2.1.0 Build 108)  -->
  <defs>
    <style>
      .st0 {
        fill: #0a0203;
      }
    </style>
  </defs>
  <g>
    <g>
      <path class="st0" d="M149,97h-39l55.6,126.3c.5,1,1.8,1,2.2,0l18.4-43.5-37.2-82.8Z"/>
      <path class="st0" d="M267.6,97s-59.7,136.7-67.7,149.3c-9.3,14.6-15.5,20.2-26.8,22.1,0,0-.2,0-.2.2s0,.2.2.2h35.7c15.5,0,26.6-12.9,32.8-24.3,7-12.8,65.6-147.4,65.6-147.4h-39.6Z"/>
    </g>
    <g>
      <path class="st0" d="M423.6,206.6c0,.2-.4.2-.5,0l-29.6-64.8h-16.6s30.6,68.8,33.5,73.9c3,5.1,6.6,9.1,12.9,9.1s9.9-4.2,12.9-9.1c3.1-5.2,33.5-73.9,33.5-73.9h-16.6l-29.6,64.8Z"/>
      <path class="st0" d="M513.9,139.9c-25.2,0-41.4,16.4-41.4,42.9s16.2,42.9,41.4,42.9,41.4-16.4,41.4-42.9-16.3-42.9-41.4-42.9ZM513.9,212.3c-16.1,0-26.7-10.5-26.7-29.4s10.6-29.4,26.7-29.4,26.7,10.5,26.7,29.4-10.7,29.4-26.7,29.4Z"/>
      <path class="st0" d="M640.4,141.8v82.2h-17.1l-39.8-60v60h-14.6v-82.2h17.1l39.8,60.5v-60.5h14.6Z"/>
      <path class="st0" d="M694,140.9c-6,0-9.7,4.5-12,9.1-2.4,4.7-32.1,73.9-32.1,73.9h15.2l8.5-19.9h40.9l8.5,19.9h15.2s-29.6-69.3-32.1-73.9c-2.4-4.6-6.1-9.1-12-9.1ZM679.4,190.3l14.3-33.5c0-.2.4-.2.5,0l14.3,33.5h-29Z"/>
      <path class="st0" d="M779.2,192.3h26c0,12.7-12,20-24.7,20s-26.2-10.5-26.2-29.4,9.6-29.5,27.1-29.5,20.1,4.5,22,14.8h15.1c-2.6-18.1-19.3-28.3-38-28.3s-40.8,16.4-40.8,42.9,15.9,42.7,40.8,42.7,21-5.6,24.7-11.6v9.9c0,0,13.8,0,13.8,0v-44.2h-39.9v12.6Z"/>
      <polygon class="st0" points="893.9 155.6 893.9 141.8 834.9 141.8 834.9 224 893.9 224 893.9 210.3 849.4 210.3 849.4 188.7 890.5 188.7 890.5 174.9 849.4 174.9 849.4 155.6 893.9 155.6"/>
    </g>
  </g>
  <g>
    <path class="st0" d="M528.9,266.2h-15v37.3h4.3v-14.2h9.8c7.5,0,12.6-4.9,12.6-12,0-6.8-4.6-11.1-11.7-11.1ZM518.2,270.4h10c4.8,0,7.9,2.7,7.9,7.1s-3.3,7.8-8.3,7.8h-9.6v-14.9h0Z"/>
    <path class="st0" d="M555.8,275.5c-6.1,0-10.3,2.7-11.9,7.6v.4c0,0,3.9,1.2,3.9,1.2v-.3c1.2-3.3,3.9-5,8-5s6.1,1.5,6.1,4.2-2.8,3.5-7.2,4.1h-.2c-4.9.6-11,1.4-11,8.2s3.3,8,8.9,8,7-.8,9.5-4.4v4.1h4.2v-19.5c0-5.3-3.7-8.5-10.1-8.5ZM561.9,289.4v3.3c0,4.4-3.5,7.4-8.9,7.4s-5.4-1.4-5.4-4.2,3.3-4.2,7.1-4.7h.2c2.7-.5,5.2-.8,7-1.8Z"/>
    <path class="st0" d="M587.2,275.8c-3.9,0-6.8,1.7-8.3,4.8v-4.5h-4.2v27.5h4.2v-13.9c0-6.2,2.9-9.7,8.1-9.7s1.4,0,2.3.2h.4c0,0,.3-3.9.3-3.9h-.3c-.8-.4-1.6-.5-2.4-.5Z"/>
    <path class="st0" d="M610,299.7c-1.2.3-2.3.5-3.2.5-3.3,0-3.8-1.9-3.8-4.1v-16.1h7.1v-3.9h-7.1v-8.4l-4.2,1.1v7.3h-5.3v3.9h5.3v16.9c0,1.7,0,7.1,6.9,7.1s3.2-.3,4.8-.7h.3c0,0-.5-3.7-.5-3.7h-.4Z"/>
    <path class="st0" d="M640.8,275.5c-7.7,0-12.4,5.4-12.4,14.2s4.8,14.2,12.4,14.2,12.5-5.4,12.5-14.2-4.8-14.2-12.5-14.2ZM640.8,300.1c-5.2,0-8.2-3.8-8.2-10.3s3-10.3,8.2-10.3,8.2,3.8,8.2,10.3-3,10.3-8.2,10.3Z"/>
    <path class="st0" d="M669.8,264.3c-5.2,0-7.8,2.6-7.8,8v3.7h-5.3v3.9h5.3v23.6h4.2v-23.6h7.1v-3.9h-7.1v-3.3c0-3.3,1.3-4.7,4.1-4.7s1.8.2,2.8.5h.4c0,0,.5-3.7.5-3.7h-.3c-1.2-.4-2.5-.5-3.9-.5Z"/>
    <polygon class="st0" points="693 303.5 716.2 303.5 716.2 299.4 697.3 299.4 697.3 286.5 714.5 286.5 714.5 282.3 697.3 282.3 697.3 270.4 716.2 270.4 716.2 266.2 693 266.2 693 303.5"/>
    <path class="st0" d="M736.3,275.8c-3.9,0-6.8,1.7-8.3,4.8v-4.5h-4.2v27.5h4.2v-13.9c0-6.2,2.9-9.7,8.1-9.7s1.4,0,2.3.2h.4c0,0,.3-3.9.3-3.9h-.3c-.9-.4-1.7-.5-2.4-.5Z"/>
    <rect class="st0" x="744.4" y="276.1" width="4.2" height="27.5"/>
    <rect class="st0" x="744.1" y="266.1" width="4.7" height="5.9"/>
    <path class="st0" d="M767.9,279.4c3.7,0,6.1,1.9,7,5.4v.4c0,0,4.2-.9,4.2-.9v-.4c-1.4-5.3-5.3-8.3-11.1-8.3s-12.4,5.3-12.4,14.3,4.5,14.1,12.2,14.1,9.9-3.1,11.1-8.5v-.4c0,0-4-.9-4-.9v.4c-1,3.6-3.4,5.6-7.1,5.6s-8-3.6-8-10.2c.2-6.8,3.2-10.6,8.2-10.6Z"/>
    <path class="st0" d="M796,287.9c-3.9-.6-7.3-1.3-7.3-4.4s2.2-4.2,6-4.2,6,1.5,6.9,4.7v.4c0,0,3.9-1.2,3.9-1.2v-.4c-1.3-4.7-5.1-7.2-10.7-7.2s-10.2,3.2-10.2,8.2,5.2,6.8,9.8,7.6h.2c3.9.7,7.2,1.3,7.2,4.4s-2.4,4.4-6.1,4.4-6.8-2-7.7-5.5v-.4c0,0-4.1,1.2-4.1,1.2v.4c1.4,5,5.8,8,11.7,8s10.3-3.4,10.3-8.6c0-5.8-5.2-6.7-9.9-7.4Z"/>
    <path class="st0" d="M823.2,287.9c-3.9-.6-7.3-1.3-7.3-4.4s2.2-4.2,6-4.2,6,1.5,6.9,4.7v.4c0,0,3.9-1.2,3.9-1.2v-.4c-1.3-4.7-5.1-7.2-10.7-7.2s-10.2,3.2-10.2,8.2,5.2,6.8,9.8,7.6h.2c3.9.7,7.2,1.3,7.2,4.4s-2.4,4.4-6.1,4.4-6.8-2-7.7-5.5v-.4c0,0-4.1,1.2-4.1,1.2v.4c1.4,5,5.8,8,11.7,8s10.3-3.4,10.3-8.6-5.2-6.7-9.9-7.4Z"/>
    <path class="st0" d="M850.7,275.5c-7.7,0-12.4,5.4-12.4,14.2s4.8,14.2,12.4,14.2,12.5-5.4,12.5-14.2c0-8.8-4.8-14.2-12.5-14.2ZM850.7,300.1c-5.2,0-8.2-3.8-8.2-10.3s3-10.3,8.2-10.3,8.2,3.8,8.2,10.3c0,6.5-3,10.3-8.2,10.3Z"/>
    <path class="st0" d="M883.1,275.5c-4,0-6.9,1.5-8.7,4.5v-4.1h-4.2v27.5h4.2v-15.5c0-5.1,3.2-8.5,8-8.5s6.1,3.8,6.1,7v17.1h4.2v-18.3c0-6-3.5-9.6-9.5-9.6Z"/>
  </g>
</svg>