<?xml version="1.0" encoding="UTF-8"?>
<svg id="uuid-974230a2-2ce8-45a3-8598-205fd491176c" data-name="Layer 1" xmlns="http://www.w3.org/2000/svg" viewBox="0 0 1510 1020.18">
  <path d="M1010.94,533.43l-49.54-230.32c3.32-.87,5.78-3.87,5.78-7.45,0-4.26-3.47-7.73-7.73-7.73-1.54,0-2.96.46-4.17,1.24l-42.3-59.91c1.33-.97,2.21-2.53,2.21-4.3,0-2.94-2.39-5.33-5.33-5.33-1.42,0-2.71.57-3.67,1.48l-125.08-127.65c1.29-1.38,2.1-3.23,2.1-5.26,0-4.26-3.47-7.73-7.73-7.73-3.14,0-5.84,1.89-7.05,4.59l-151.5-59.61c.09-.57.18-1.14.18-1.74,0-5.91-4.81-10.71-10.71-10.71-4.57,0-8.44,2.89-9.98,6.92l-81.83-14.24c0-.11.03-.22.03-.34,0-2.94-2.39-5.33-5.33-5.33s-5.32,2.39-5.32,5.33c0,.23.04.44.07.66l-200.8,38.37c-1.07-4.78-5.34-8.37-10.44-8.37-5.91,0-10.71,4.81-10.71,10.71,0,2.82,1.11,5.36,2.9,7.28L88.35,249.3c-.88-1.72-2.66-2.91-4.72-2.91-2.94,0-5.33,2.39-5.33,5.33,0,2.48,1.72,4.56,4.02,5.14l-18.55,39.39c-.61-.24-1.27-.38-1.96-.38-2.94,0-5.32,2.39-5.32,5.32,0,2.36,1.55,4.34,3.67,5.04L5.64,517.36c-.11,0-.21-.03-.31-.03-2.94,0-5.32,2.39-5.32,5.32s2.39,5.33,5.32,5.33c.22,0,.43-.04.64-.06l70.5,219.21c-1.97.78-3.38,2.7-3.38,4.94,0,2.94,2.39,5.32,5.33,5.32,1.21,0,2.31-.42,3.2-1.1l51.01,58.94c-2.57,1.96-4.25,5.02-4.25,8.49,0,5.91,4.81,10.71,10.72,10.71,3.18,0,6.01-1.42,7.97-3.63l115.45,114.18c-.81.94-1.33,2.14-1.33,3.48,0,2.94,2.39,5.32,5.32,5.32,2.24,0,4.15-1.39,4.94-3.36l137.57,44.67c-.28.95-.47,1.93-.47,2.97,0,5.91,4.81,10.71,10.71,10.71,4.69,0,8.64-3.05,10.09-7.25l78.08,12.8c-.02.17-.05.34-.05.52,0,2.94,2.39,5.33,5.32,5.33s5.33-2.39,5.33-5.33c0-.24-.04-.47-.07-.71l200.54-39.3c.53,2.38,2.65,4.16,5.19,4.16,2.94,0,5.32-2.39,5.32-5.32,0-1.23-.44-2.35-1.14-3.25l190.32-182.16.08-.13,92.62-254.37.19-.1-.14-.26ZM1009.78,531.28l-149.07-276.26c1.75-1.02,3.17-2.51,4.1-4.31l87.51,41.92c-.4.93-.62,1.95-.62,3.03,0,4.26,3.47,7.73,7.73,7.73.44,0,.87-.06,1.29-.13l49.05,228.02ZM904.54,224.95c0,.58.12,1.12.29,1.64l-39.59,15.08c-1.62-3.86-5.44-6.59-9.88-6.59-1.62,0-3.14.39-4.52,1.04l-71.56-141.23c.49-.28.95-.6,1.36-.97l125.12,127.69c-.74.92-1.21,2.07-1.21,3.33ZM1005.15,533.83l-124.19,14.18-.9-5.76c4.3-1.23,7.48-5.05,7.73-9.68l117.36,1.27ZM682.58,570.65c-.15-1.28-.73-2.42-1.62-3.26l23.1-36.82,162.41,1.76c.12,3.86,2.3,7.18,5.48,8.97l-5.27,8.34-184.09,21.01ZM110.24,259.63c0-.79-.1-1.55-.26-2.3l131.68-33.35-30.47,106.39c-.33-.06-.66-.1-1.01-.1-1.42,0-2.71.57-3.66,1.48l-97.96-66.41c1.05-1.66,1.68-3.61,1.68-5.71ZM866.46,531.64l-161.98-1.75,86.35-137.64,81.07,130.45c-3.15,1.79-5.31,5.1-5.43,8.94ZM661.06,858.65l-80.89-11.64,57.91-54.54,28.56,60.18c-2.84.77-5.03,3.08-5.58,6ZM426.81,990.5c-1.94-1.93-4.61-3.13-7.56-3.13-1.21,0-2.35.25-3.43.61l-56.34-149.91,51.61-14.71,167.58,24.12-151.87,143.01ZM422.7,170.13c1.44,0,2.74-.58,3.69-1.51l42.28,38.44-84.94-9.85,35.91-28.06c.87.61,1.92.97,3.05.97ZM469.55,207.85l97.44,88.58c-.73.91-1.18,2.05-1.18,3.3,0,1,.29,1.93.78,2.73l-120,82.84-81.25-173.7,17.65-13.79,86.57,10.04ZM606.69,34.38c1.88-.05,3.63-.6,5.15-1.51l1.75,4.36-6.99-2.18.09-.67ZM606,34.37l-.06.48-9.72-3.04,1.86-1.45c1.89,2.35,4.71,3.89,7.92,4.01ZM606.51,35.74l7.41,2.31,61.41,153.34-34.43,35.64-58.87-6.82,24.48-184.46ZM672.56,568.88l-94.47-39.68,83.23.9,14.21,36.15c-1.3.46-2.35,1.41-2.96,2.63ZM576.43,528.5l-50.35-21.15,76.74-126.06,58.22,148.12-84.62-.92ZM522.69,527.92c-.07-3.34-1.68-6.27-4.14-8.19l7.18-11.79,48.9,20.54-51.93-.56ZM214.8,338.19l40.9,27.73-19.58,33.3-23.25-59.05c.81-.48,1.47-1.16,1.93-1.98ZM571.13,305.06c.57,0,1.1-.11,1.62-.28l29.76,75.72-77.06,126.59-27.26-11.45-51.32-109.71,120.1-82.91c.98,1.23,2.47,2.04,4.16,2.04ZM355.16,526.1l11.21-80.01c.13,0,.26.04.4.04,2.08,0,3.87-1.21,4.75-2.96l126.17,52.99,10.32,22.06c-3.79,1.53-6.48,5.17-6.67,9.46l-146.17-1.58ZM511.99,517.43c-1.17,0-2.28.24-3.34.59l-10.04-21.46,26.47,11.12-7.07,11.62c-1.72-1.17-3.79-1.86-6.02-1.86ZM497.25,495.25l-125.47-52.7c.19-.55.32-1.12.32-1.74,0-1-.29-1.93-.78-2.73l74.98-51.76,50.95,108.92ZM361.44,440.81c0,2.57,1.83,4.72,4.25,5.22l-11.22,80.07-68.69-.74-49.35-125.32,19.83-33.72,105.93,71.82c-.47.79-.75,1.7-.75,2.69ZM336.69,650.21c-.57,0-1.11.11-1.62.28l-49.01-124.45,68.32.74-17.3,123.47c-.13-.01-.26-.04-.4-.04ZM285.05,525.34l-111.43-1.21c-.08-3.71-2.05-6.94-4.98-8.81l67.36-114.56,49.05,124.57ZM173.6,524.82l111.72,1.21,49.1,124.7c-1.78.84-3.02,2.62-3.06,4.7l-81.03,3.63-81.32-125.91c2.67-1.85,4.43-4.89,4.58-8.34ZM331.42,656.11c.24,2.18,1.79,3.96,3.85,4.54l-20.53,98.11-63.97-99.03,80.65-3.61ZM315.06,760.52l29.02,44.93c-2.79,1.94-4.63,5.15-4.63,8.8,0,.05.02.1.02.16l-36.04,1.68,11.63-55.56ZM350.17,803.54c-2.02,0-3.89.59-5.5,1.57l-29.41-45.53,20.67-98.78c.25.04.49.08.75.08,2.37,0,4.36-1.57,5.05-3.71l85.33,21.33-71.91,126.34c-1.49-.79-3.17-1.28-4.98-1.28ZM341.92,656.49c.06-.31.1-.63.1-.96s-.04-.63-.09-.94l114.83-28.27-29.34,51.54-85.49-21.37ZM341.74,653.94c-.58-1.82-2.08-3.23-3.98-3.62l17.31-123.54,146.24,1.58c.09,4.08,2.47,7.58,5.9,9.31l-50,87.84-115.47,28.43ZM507.8,538c1.29.55,2.7.86,4.19.86,1.85,0,3.57-.51,5.09-1.34l31.13,65.59-90.1,22.18,49.68-87.29ZM573.38,304.54c1.38-.65,2.43-1.88,2.85-3.38l66.06,13.99-39.33,64.61-29.57-75.23ZM576.37,300.5c.04-.25.08-.5.08-.77,0-1.38-.54-2.62-1.4-3.57l66.1-68.43,38.66,4.48c-.03.34-.1.67-.1,1.01,0,4.4,2.67,8.18,6.47,9.83l-43.52,71.48-66.29-14.04ZM686.84,243.29c1.12.4,2.32.66,3.58.66,2.56,0,4.89-.94,6.73-2.45l60.54,97.42-114.32-24.22,43.47-71.41ZM679.88,231.55l-38.13-4.42,33.85-35.04,12.32,30.77c-4.16,1-7.36,4.42-8.04,8.7ZM640.3,227.64l-65.74,68.06c-.68-.58-1.49-1-2.39-1.18l9.77-73.64,58.36,6.77ZM571.49,294.45c-.12,0-.24-.04-.36-.04-1.44,0-2.74.58-3.7,1.5l-96.73-87.93,110.56,12.82-9.77,73.65ZM365.03,210.97l-3.28-7.01c3.03-1.54,5.21-4.46,5.73-7.95l14.54,1.69-16.99,13.27ZM356.92,205.16c1.5,0,2.93-.32,4.23-.88l3.33,7.12-31.69,24.76,19.03-32.36c1.53.84,3.25,1.36,5.11,1.36ZM364.77,212.03l81.23,173.66-75.08,51.83c-.98-1.23-2.47-2.04-4.16-2.04s-3.21.82-4.19,2.07l-105.97-71.85,75.24-127.96,32.92-25.73ZM256.05,365.34l-40.94-27.75c.25-.61.39-1.28.39-1.98,0-2.04-1.17-3.8-2.86-4.69l117.75-92.01-74.34,126.43ZM210.18,340.93c.74,0,1.45-.15,2.09-.43l23.42,59.47-67.64,115.04c-.83-.46-1.71-.82-2.66-1.05l43.82-173.13c.32.06.64.1.97.1ZM162.93,535.08c2.02,0,3.89-.59,5.5-1.57l81.12,125.59-96.62,4.33,9.55-128.39c.15,0,.3.05.45.05ZM249.98,659.76l64.55,99.94-11.8,56.41-41.08,1.91-110.83-126.26,2.06-27.66,97.1-4.35ZM302.59,816.8l-7.14,34.13c-.25-.04-.49-.08-.75-.08-1.22,0-2.34.43-3.24,1.12l-29.23-33.3,40.36-1.88ZM296.11,851.07l7.18-34.3,36.25-1.69c.43,5.51,5.01,9.88,10.63,9.88,1.21,0,2.35-.25,3.43-.61l4.99,13.27-58.9,16.79c-.58-1.62-1.91-2.87-3.58-3.33ZM354.25,824.14c3.33-1.38,5.8-4.39,6.44-8.03l48.76,7.02-50.2,14.3-4.99-13.29ZM412.7,822.91l211.26-60.2,13.82,29.12-58.47,55.06-166.61-23.98ZM624.62,762.52l63.5-18.1-49.82,46.92-13.68-28.82ZM624.33,761.89l-18.36-38.68,82.09,20.52-63.73,18.16ZM623.66,762.08l-212.61,60.59-50.29-7.24c.04-.39.12-.78.12-1.18,0-3.86-2.07-7.22-5.14-9.1l72-126.49,177.37,44.34,18.55,39.08ZM428.09,678.04l29.56-51.94,90.86-22.37,56.22,118.46-176.64-44.16ZM517.68,537.19c2.89-1.82,4.83-4.97,4.98-8.59l53.62.58,96.01,40.33c-.19.55-.32,1.13-.32,1.74,0,.47.08.91.19,1.35l-123.29,30.35-31.21-65.75ZM677.31,565.92c-.39,0-.77.05-1.13.13l-14.13-35.94,41.21.45-22.83,36.39c-.88-.64-1.95-1.03-3.12-1.03ZM661.78,529.43l-58.52-148.86,39.73-65.25,115.2,24.41,32.24,51.89-86.75,138.27-41.9-.45ZM759.11,339.91l51.57,10.93c-.04.25-.08.5-.08.76,0,1.78.88,3.34,2.22,4.31l-21.99,35.06-31.73-51.05ZM821.26,351.6c0-2.16-1.3-4.02-3.15-4.85l33.84-90.85c1.08.36,2.21.61,3.4.61.17,0,.34-.04.51-.05l11.35,142.6-47.18-44.09c.76-.92,1.23-2.08,1.23-3.36ZM851.3,255.7l-33.83,90.83c-.49-.15-1-.25-1.53-.25-.92,0-1.78.26-2.54.67l-69.02-109.29,100.31,7.67c0,.16-.05.31-.05.47,0,4.47,2.76,8.3,6.66,9.91ZM812.82,347.31c-.96.7-1.66,1.7-1.99,2.87l-52.21-11.06-60.93-98.05c1.85-1.72,3.06-4.07,3.34-6.72l42.52,3.25,69.28,109.71ZM701.09,233.67c0-.15.04-.28.04-.43,0-5.91-4.81-10.71-10.71-10.71-.62,0-1.23.08-1.82.18l-12.48-31.16,23.18-24,43.78,69.33-41.99-3.21ZM675.84,190.85l-61.09-152.54,3.66,1.15,80.51,127.49-23.09,23.9ZM614.42,37.5l-1.99-4.96c.38-.26.72-.57,1.06-.87l4.36,6.91-3.43-1.07ZM597.65,29.84l-2.22,1.72-.31-.1,2.47-1.69s.04.04.05.07ZM595.57,32.32l10.28,3.21-24.5,184.59-111.51-12.93-43-39.09c.73-.91,1.18-2.05,1.18-3.3,0-.67-.14-1.3-.36-1.89l167.91-130.6ZM427.36,162.29c-.43-.8-1.05-1.48-1.82-1.97l10.95-20.04,157.92-108.32.37.11-167.42,130.21ZM424.94,159.99c-.68-.32-1.44-.51-2.24-.51-1.44,0-2.74.58-3.7,1.51l-5.46-4.96,21.71-14.89-10.31,18.86ZM418.56,161.5c-.73.91-1.19,2.05-1.19,3.31,0,1.55.68,2.93,1.74,3.9l-36.34,28.39-15.23-1.77c.02-.3.09-.58.09-.89,0-2.12-.64-4.09-1.71-5.76l47.05-32.27,5.59,5.08ZM365.53,188.13c-1.95-2.65-5.07-4.39-8.61-4.39-1.39,0-2.72.29-3.94.77l-55.63-128.16c1.17-.55,2.23-1.29,3.12-2.21l111.98,101.81-46.92,32.19ZM292.79,57.41c1.39,0,2.72-.29,3.94-.77l55.63,128.16c-3.62,1.72-6.15,5.38-6.15,9.65,0,.79.1,1.55.26,2.3l-103.83,26.3,47.54-165.99c.84.21,1.71.36,2.61.36ZM346.67,197.4c.73,2.54,2.36,4.7,4.54,6.09l-19.89,33.82-119.39,93.29s-.06-.02-.09-.03l30.58-106.77,104.25-26.4ZM208.55,340.65l-43.83,173.18c-.58-.1-1.17-.18-1.78-.18-.44,0-.85.08-1.28.13l-26.97-110.95,70.55-65.25c.59,1.46,1.8,2.58,3.31,3.07ZM161.81,534.96l-9.56,128.49-20.56.92c0-2.15-1.3-3.99-3.15-4.82l31.61-124.89c.54.15,1.09.24,1.66.3ZM131.62,665.06l20.58-.92-2,26.91-20.08-22.88c.82-.82,1.35-1.91,1.51-3.11ZM150.76,692.72l110.03,125.35-111.04,5.16c-.23-4.75-3.53-8.67-7.97-9.83l8.97-120.68ZM149.78,823.91l111.58-5.19,29.57,33.69c-.64.64-1.1,1.45-1.35,2.35l-139.97-29.25c.09-.53.15-1.06.16-1.61ZM300.02,856.18c0-.39-.05-.76-.13-1.13l58.94-16.79,56.34,149.93c-.99.41-1.88.99-2.69,1.66l-114.03-129.9c.97-.96,1.56-2.3,1.56-3.77ZM427.25,991.02l152.29-143.41,81.45,11.72c-.03.25-.08.5-.08.76,0,1.67.54,3.2,1.45,4.47l-233.92,128.1c-.35-.59-.74-1.13-1.19-1.64ZM674,854.53c-1.39-1.34-3.27-2.17-5.34-2.17-.46,0-.9.06-1.33.13l-28.72-60.51,50.98-48.01,7.37-4.82,7.71,66.84-30.67,48.53ZM689.31,743.35l-83.72-20.93-56.4-118.84,123.19-30.33c.79,1.95,2.7,3.33,4.93,3.33.3,0,.59-.04.88-.09l18.68,161.92-7.56,4.94ZM872.54,541.62c1.4.67,2.95,1.08,4.6,1.08.78,0,1.54-.09,2.27-.25l.88,5.64-12.75,1.46,5-7.92ZM872.49,522.37l-81.26-130.77,22.17-35.34c.76.41,1.61.67,2.53.67,1.41,0,2.68-.56,3.64-1.46l47.72,44.6,9.65,121.22c-1.6.03-3.09.43-4.45,1.08ZM856.53,256.39c1.28-.14,2.48-.5,3.58-1.05l149.21,276.53-141.38-132.13-11.41-143.36ZM770.39,93.96c1.36,1.21,3.14,1.96,5.1,1.96,1.14,0,2.21-.26,3.18-.7l71.56,141.23c-.95.52-1.83,1.16-2.58,1.94l-115.75-104.59,38.49-39.84ZM847.22,238.91c-1.35,1.59-2.23,3.56-2.46,5.74l-100.83-7.71-44.14-69.9,31.64-32.76,115.79,104.62ZM699.41,166.45l-80-126.68,11.33,3.54,100.17,90.51-31.51,32.62ZM618.86,38.88l-4.84-7.67c.53-.53.99-1.13,1.39-1.77l14.14,12.77-10.69-3.34ZM597.25,29.19l-2.95,2.02-19.36-6.05,20.77-1.61c0,.05-.02.1-.02.15,0,2.01.59,3.88,1.56,5.49ZM593.59,31.7l-156.37,107.26,58.86-107.69,77.03-5.97,20.48,6.4ZM435.98,139.81l-22.95,15.74-112.13-101.94c1.6-1.87,2.6-4.27,2.6-6.92,0-.17-.04-.32-.05-.49l191.81-14.87-59.29,108.47ZM289.53,56.84l-47.65,166.39-132.1,33.45c-.53-1.82-1.49-3.45-2.81-4.74L285.88,54.81c1.06.9,2.29,1.59,3.65,2.03ZM108.18,265.9l97.88,66.37c-.74.92-1.21,2.07-1.21,3.33,0,.43.07.85.16,1.25l-70.51,65.21-32.12-132.16c2.36-.66,4.39-2.08,5.79-4.01ZM160.97,513.85c-4.82.9-8.49,5.03-8.7,10.06l-141.65-1.53c-.07-1.33-.62-2.53-1.49-3.43l124.99-115.59,26.86,110.49ZM10.61,523.05l141.64,1.53c.1,4.6,3.1,8.45,7.25,9.87l-31.61,124.87c-.49-.15-.99-.25-1.53-.25-1.2,0-2.3.41-3.19,1.09L8.63,526.79c1.12-.9,1.86-2.23,1.98-3.74ZM126.36,669.72c1.22,0,2.33-.43,3.23-1.12l20.54,23.4-9.01,121.22c-.66-.13-1.33-.2-2.02-.2-.98,0-1.92.18-2.83.43l-41.04-90.92,29.49-53.08c.52.17,1.07.29,1.65.29ZM149.49,826.18l139.96,29.25c-.04.25-.08.49-.08.75,0,2.27,1.44,4.2,3.45,4.97l-14.75,48.31-129.47-80.9c.38-.75.69-1.53.89-2.37ZM293.47,861.35c.39.09.8.16,1.22.16,1.22,0,2.33-.43,3.23-1.12l114.03,129.9c-.59.56-1.14,1.16-1.6,1.84l-131.7-82.29,14.81-48.48ZM428.77,993.26l234.04-128.16c1.42,1.66,3.5,2.73,5.85,2.73,1.68,0,3.23-.55,4.5-1.47l48.59,102.39c-1.92.76-3.29,2.59-3.37,4.76l-288.53,23.38c-.15-1.29-.51-2.51-1.08-3.62ZM722.4,968.54l-48.71-102.63c1.63-1.42,2.69-3.49,2.69-5.82,0-.34-.06-.66-.1-.99l33.38-9.77,13.73,119.06c-.34.02-.67.06-1,.15ZM676.19,858.42c-.28-1.28-.9-2.42-1.72-3.37l30.32-47.98,4.8,41.58-33.39,9.77ZM697.59,738.74l84.51-55.29-76.86,121.63-7.65-66.34ZM697.51,737.98l-18.65-161.67c2.15-.66,3.73-2.63,3.77-4.99l183.57-20.95-83.22,131.69-85.47,55.92ZM867.07,550.27l13.32-1.52,9.82,63.16-105.86,69.26,82.72-130.89ZM881.07,548.67l128.16-14.63-118.39,77.46-9.77-62.83ZM887.84,531.87c-.06-5.69-4.57-10.3-10.21-10.56l-9.6-120.56,141.71,132.44-121.9-1.32ZM954.73,289.57c-.86.66-1.56,1.5-2.07,2.46l-87.51-41.92c.58-1.32.92-2.78.92-4.31,0-1.22-.25-2.38-.63-3.48l39.64-15.1c.86,1.8,2.68,3.05,4.79,3.05.92,0,1.78-.26,2.53-.67l42.33,59.97ZM769.89,93.49l-38.49,39.85-99.1-89.54,135.74,42.42c-.17.63-.29,1.29-.29,1.97,0,2.06.82,3.92,2.14,5.31ZM766.58,85.05l-135.48-42.34-15.36-13.88c.47-.85.85-1.75,1.07-2.72l149.76,58.94ZM596.21,20.55c-.23.74-.38,1.51-.44,2.31l-22.59,1.75-58.18-18.18,81.21,14.12ZM571.36,24.75l-74.89,5.81,11.06-20.23c.56.2,1.14.32,1.76.32,2.37,0,4.37-1.57,5.05-3.71l57.01,17.82ZM504.15,6.66c.39,1.49,1.4,2.72,2.74,3.4l-11.24,20.57-192.27,14.91c-.02-.17-.02-.34-.05-.51L504.15,6.66ZM83,256.98c.21.03.42.06.64.06,2.94,0,5.33-2.39,5.33-5.33,0-.61-.13-1.19-.32-1.74L283.7,56.21,106.44,251.51c-1.87-1.59-4.26-2.59-6.91-2.59-5.91,0-10.71,4.81-10.71,10.71,0,3.02,1.26,5.74,3.28,7.68l-26.98,29.72c-.23-.19-.48-.35-.74-.5l18.62-39.57ZM60.81,306.41c.33.06.66.1,1,.1,2.94,0,5.32-2.39,5.32-5.33,0-1.44-.58-2.74-1.51-3.7l26.99-29.74c.88.75,1.87,1.38,2.96,1.82L6.77,515.7l54.04-209.29ZM96.23,269.77c1.04.34,2.14.57,3.3.57.75,0,1.49-.08,2.2-.23l32.2,132.48-125.32,115.9c-.53-.42-1.13-.73-1.79-.93l89.41-247.8ZM8.08,527.19l114.57,133.41c-.99.97-1.61,2.31-1.61,3.8,0,2.11,1.25,3.93,3.03,4.79l-29.2,52.56L7.24,527.61c.29-.11.57-.26.84-.42ZM6.79,528.28l87.67,194.21-13.77,24.79c-.69-.33-1.46-.53-2.27-.53-.45,0-.88.07-1.3.18L6.79,528.28ZM82.14,755.86c.98-.97,1.6-2.31,1.6-3.79,0-1.88-.98-3.52-2.45-4.47l13.52-24.34,40.8,90.38c-.87.3-1.7.67-2.45,1.17l-51.02-58.95ZM148.27,829.15l129.59,80.98-10.13,33.17c-.39-.09-.8-.16-1.22-.16-1.36,0-2.58.53-3.52,1.36l-115.49-114.22c.28-.36.54-.73.77-1.13ZM271.65,949.78c.11-.42.18-.86.18-1.31,0-2.28-1.44-4.21-3.45-4.97l10.08-33,131.58,82.21c-.32.55-.6,1.13-.82,1.74l-137.56-44.68ZM517.83,1013.51c-.6-2.28-2.66-3.97-5.13-3.97s-4.63,1.77-5.18,4.13l-77.97-12.78c.25-.9.42-1.83.42-2.81,0-.18-.04-.35-.05-.52l288.42-23.37-200.5,39.32ZM727.43,969.91c-.87-.86-2.05-1.41-3.34-1.51l-13.76-119.26,206.38-60.39-189.28,181.16ZM710.25,848.46l-4.88-42.3,78.11-123.6,106.85-69.9,27.24,175.14-207.32,60.67ZM918.08,786.67l-27.13-174.43,118.99-77.85-91.86,252.28Z"/>
  <polygon points="552.38 529.57 731.49 873.96 803.41 734.27 877.41 873.96 1050.3 529.57 976.99 529.57 876.65 722.73 775.06 529.57 696.92 529.57 767.45 667.19 734.95 728.74 630.52 529.57 552.38 529.57 552.38 529.57" style="fill-rule: evenodd;"/>
  <g>
    <path d="M1087.5,610.85l-23.65-81.13h14.3l17.12,63.67,19.62-63.67h9.73l19.67,63.67,17.11-63.67h14.31l-23.65,81.13h-14.35l-17.9-56.15-17.94,56.15h-14.36Z"/>
    <path d="M1222.72,612.43c-5.67,0-10.98-1.08-15.93-3.25-4.96-2.16-9.29-5.17-13.03-9.02-3.74-3.85-6.66-8.33-8.78-13.43-2.12-5.09-3.18-10.56-3.18-16.4s1.06-11.34,3.18-16.42c2.11-5.08,5.04-9.55,8.78-13.4,3.74-3.85,8.07-6.86,13.03-9.02,4.95-2.16,10.25-3.24,15.93-3.24s10.98,1.08,15.93,3.24c4.95,2.16,9.29,5.17,13.02,9.02,3.74,3.85,6.66,8.32,8.78,13.4,2.11,5.08,3.17,10.55,3.17,16.42s-1.06,11.3-3.17,16.4c-2.12,5.1-5.05,9.57-8.78,13.43-3.73,3.85-8.07,6.86-13.02,9.02-4.95,2.17-10.26,3.25-15.93,3.25ZM1222.72,599.99c3.87,0,7.45-.74,10.74-2.21,3.29-1.47,6.17-3.55,8.61-6.22,2.45-2.67,4.34-5.82,5.7-9.44,1.36-3.62,2.05-7.55,2.05-11.78s-.69-8.2-2.05-11.8c-1.36-3.6-3.26-6.74-5.7-9.42-2.44-2.67-5.31-4.75-8.61-6.22-3.29-1.48-6.87-2.21-10.74-2.21s-7.39.74-10.67,2.21c-3.28,1.47-6.14,3.55-8.58,6.22-2.44,2.67-4.34,5.81-5.7,9.42-1.36,3.6-2.04,7.54-2.04,11.8s.68,8.16,2.04,11.78c1.36,3.62,3.27,6.77,5.7,9.44,2.45,2.67,5.3,4.75,8.58,6.22,3.27,1.47,6.83,2.21,10.67,2.21Z"/>
    <path d="M1276.44,610.85l8.95-81.13h13.67l21,55.32,20.99-55.32h13.67l8.95,81.13h-12.83l-6.49-57.82-20.21,54.73h-8.16l-20.21-54.73-6.43,57.82h-12.88Z"/>
    <path d="M1382.8,610.85v-81.13h43.61v11.31h-30.73v23.5h29.55v11.31h-29.55v23.7h30.73v11.31h-43.61Z"/>
    <path d="M1446.23,610.85v-81.13h12.88l38.06,59.55v-59.55h12.83v81.13h-12.83l-38.06-59.5v59.5h-12.88Z"/>
    <path d="M1072.21,731.13v-81.13h12.88v81.13h-12.88Z"/>
    <path d="M1108.3,731.13v-81.13h12.88l38.06,59.54v-59.54h12.83v81.13h-12.83l-38.06-59.5v59.5h-12.88Z"/>
    <path d="M1223.35,731.13l32.3-81.13h11.95l32.35,81.13h-13.87l-7.96-21.14h-32.95l-8.02,21.14h-13.81ZM1249.56,698.67h24.19l-12.15-31.37-12.04,31.37Z"/>
    <path d="M1313.86,731.13v-81.13h12.88v81.13h-12.88Z"/>
  </g>
</svg>