<?xml version="1.0" encoding="UTF-8"?><svg id="Ebene_1" xmlns="http://www.w3.org/2000/svg" viewBox="0 0 283.46 311.81"><defs><style>.cls-1{fill:#fff;}.cls-2{fill:#0f2db3;}</style></defs><g><path class="cls-2" d="m212.6,212.6c-21.61-9.75-45.62-15.18-70.86-15.18s-49.26,5.43-70.87,15.18V70.87h141.73v141.73Z"/><g><path class="cls-1" d="m87.66,114.12c-6.66,0-7.2,6.75-7.2,6.75h-3.18v-10h24.8s.2,7.73-7.14,15.93c0,0-6.98,8.11-7.16,11.66h4.02c5.77,0,6.36-6.75,6.36-6.75h3.32v10.02h-25.34s-.93-7.59,7.86-16.82c0,0,5.41-6.04,6.66-10.82l-3,.02Z"/><path class="cls-1" d="m150.82,141.71v-3.27h-.75c-1.36,0-2.48-1.12-2.48-2.48v-19.34c0-1.36,1.11-2.48,2.48-2.48h.75v-3.27h-16.43v3.27h.75c1.39,0,2.5,1.11,2.5,2.48v19.34c0,1.36-1.11,2.48-2.5,2.48h-.75v3.27h16.43Z"/><path class="cls-1" d="m130.98,141.73v-10.02h-3.32s-.61,6.75-6.39,6.75h-3.32v-10.52h1.18c1.39,0,2.5,1.12,2.5,2.5v1.25h3.27v-10.79h-3.27v1.25c0,1.39-1.11,2.5-2.5,2.5h-1.18v-10.52h3.32c5.77,0,6.39,6.75,6.39,6.75h3.32v-10.02h-26.14v3.29h.75c1.36,0,2.48,1.12,2.48,2.48v19.34c0,1.36-1.11,2.48-2.48,2.48h-.75v3.27l26.14.02Z"/><path class="cls-1" d="m168.1,114.12c6.66,0,7.18,6.75,7.18,6.75h3.21v-10h-23.71s-3.75,4.91,6.05,15.93c0,0,6.95,8.11,7.14,11.66h-4c-5.77,0-6.39-6.75-6.39-6.75h-3.32v10.02h23.89s4.34-4.68-6.41-16.82c0,0-5.64-5.79-6.66-10.82l3.02.02Z"/><path class="cls-1" d="m195.82,114.12c6.64,0,7.18,6.75,7.18,6.75h3.18v-10h-23.68s-3.75,4.91,6.05,15.93c0,0,6.95,8.11,7.14,11.66h-4c-5.77,0-6.39-6.75-6.39-6.75h-3.32v10.02h23.89s4.34-4.68-6.41-16.82c0,0-5.64-5.79-6.66-10.82l3.02.02Z"/></g></g><g><path d="m35.31,275.09c.85.46,1.7.79,2.54.99.84.21,1.75.31,2.74.31.52,0,1.04-.07,1.54-.21.5-.14.95-.35,1.34-.65.39-.3.71-.69.95-1.17s.36-1.06.36-1.75c0-.55-.1-1.02-.31-1.42-.21-.4-.48-.76-.82-1.08s-.74-.61-1.2-.86-.94-.5-1.44-.75l-1.7-.86c-.52-.27-1.03-.58-1.51-.91-.48-.33-.9-.72-1.25-1.17-.35-.45-.63-.96-.83-1.54-.21-.58-.31-1.26-.31-2.04,0-1.12.21-2.09.64-2.9s.98-1.48,1.67-1.99c.69-.51,1.46-.89,2.31-1.13.85-.24,1.7-.36,2.56-.36,1.79,0,3.44.24,4.95.72l-.2,3.02c-.7-.32-1.45-.55-2.24-.7-.8-.15-1.57-.22-2.31-.22-.46,0-.92.06-1.39.17-.47.12-.89.3-1.26.57-.37.26-.68.61-.92,1.03s-.36.96-.36,1.59c0,.48.08.89.25,1.23.16.34.39.65.67.93s.61.52.98.74c.37.22.75.43,1.15.63l1.8.86c.66.32,1.26.66,1.82,1.01s1.04.77,1.46,1.25c.42.48.74,1.04.98,1.68.24.64.36,1.41.36,2.3,0,1.17-.2,2.18-.59,3.04s-.93,1.56-1.62,2.11-1.49.96-2.41,1.24c-.92.27-1.9.41-2.95.41-.85,0-1.76-.07-2.74-.22-.97-.15-1.93-.38-2.87-.7l.16-3.19Z"/><path d="m55.18,271.01c0,.8.12,1.55.34,2.25.23.7.57,1.31,1.03,1.84.46.53,1.03.94,1.72,1.25.69.31,1.48.46,2.38.46.74,0,1.5-.09,2.28-.26.78-.17,1.49-.44,2.15-.81l.2,2.54c-.76.32-1.57.55-2.42.7-.85.15-1.74.22-2.65.22-1.38,0-2.59-.22-3.64-.65-1.05-.43-1.93-1.05-2.64-1.85-.71-.8-1.24-1.75-1.59-2.85s-.52-2.32-.52-3.67c0-1.17.17-2.29.51-3.36.34-1.07.83-2.02,1.47-2.83.64-.81,1.43-1.46,2.36-1.94.93-.48,1.98-.72,3.16-.72,1.29,0,2.37.22,3.24.67.87.45,1.58,1.06,2.11,1.83s.92,1.69,1.15,2.74c.23,1.05.34,2.18.34,3.4v1.03h-10.98Zm7.83-2.13c0-.64-.05-1.27-.16-1.9s-.3-1.18-.57-1.66c-.27-.48-.64-.87-1.11-1.17-.47-.3-1.08-.45-1.82-.45-.7,0-1.31.15-1.82.46-.51.31-.94.71-1.29,1.2-.35.49-.61,1.05-.79,1.66-.18.62-.27,1.23-.29,1.85h7.86Z"/><path d="m72.62,271.01c0,.8.11,1.55.34,2.25.23.7.57,1.31,1.03,1.84.46.53,1.03.94,1.72,1.25.69.31,1.48.46,2.38.46.74,0,1.5-.09,2.28-.26.78-.17,1.49-.44,2.15-.81l.2,2.54c-.76.32-1.57.55-2.42.7-.85.15-1.74.22-2.65.22-1.38,0-2.59-.22-3.64-.65s-1.93-1.05-2.64-1.85c-.71-.8-1.24-1.75-1.59-2.85-.35-1.1-.52-2.32-.52-3.67,0-1.17.17-2.29.51-3.36.34-1.07.83-2.02,1.47-2.83.64-.81,1.43-1.46,2.36-1.94.93-.48,1.98-.72,3.16-.72,1.29,0,2.37.22,3.24.67s1.58,1.06,2.11,1.83c.53.78.92,1.69,1.15,2.74s.34,2.18.34,3.4v1.03h-10.98Zm7.83-2.13c0-.64-.05-1.27-.16-1.9s-.3-1.18-.57-1.66c-.27-.48-.64-.87-1.11-1.17-.47-.3-1.08-.45-1.82-.45-.7,0-1.31.15-1.82.46-.51.31-.95.71-1.29,1.2-.35.49-.61,1.05-.79,1.66-.17.62-.27,1.23-.29,1.85h7.86Z"/><path d="m87.63,258.15v-3.33h3.28v3.33h-3.28Zm0,20.68v-17.15h3.28v17.15h-3.28Z"/><path d="m95.87,278.83v-13.21c0-.66-.01-1.32-.03-1.97s-.07-1.31-.13-1.97h3.08l.1,2.95c1.14-2.2,2.91-3.29,5.31-3.29,1,0,1.86.16,2.57.48s1.28.77,1.7,1.35.74,1.29.93,2.11c.2.82.29,1.73.29,2.71v10.84h-3.31v-10.12c0-.59-.04-1.18-.12-1.75-.08-.57-.23-1.07-.46-1.51-.23-.43-.56-.78-.98-1.05s-.99-.39-1.69-.39c-.76,0-1.4.16-1.92.48-.51.32-.92.74-1.23,1.25-.31.51-.52,1.1-.66,1.75-.13.65-.2,1.32-.2,2.01v9.33h-3.28Z"/><path d="m115.23,282.77c.72.39,1.5.69,2.34.91.84.22,1.69.33,2.54.33.94,0,1.75-.15,2.42-.45.68-.3,1.23-.71,1.67-1.25.44-.54.75-1.18.95-1.94.2-.75.29-1.59.29-2.5v-2.02c-.52.96-1.24,1.7-2.15,2.21s-1.88.77-2.93.77c-1.2,0-2.22-.25-3.06-.75-.84-.5-1.53-1.16-2.06-1.97s-.92-1.73-1.16-2.76c-.24-1.03-.36-2.08-.36-3.16,0-1.14.12-2.25.36-3.31.24-1.06.63-2.01,1.18-2.83.55-.82,1.24-1.48,2.08-1.97.84-.49,1.87-.74,3.1-.74,1.14,0,2.15.26,3.03.77.88.51,1.59,1.32,2.11,2.42v-2.85h3.15v16.19c0,2.81-.67,4.97-2,6.48-1.33,1.51-3.38,2.26-6.13,2.26-.94,0-1.87-.08-2.8-.24s-1.85-.39-2.77-.69l.2-2.92Zm2.85-8.54c.31.57.72,1.04,1.25,1.41.52.37,1.2.55,2.03.55.79,0,1.45-.19,1.98-.57.54-.38.97-.86,1.29-1.44.33-.58.56-1.22.71-1.92.14-.7.21-1.38.21-2.04s-.07-1.39-.2-2.13c-.13-.73-.36-1.41-.69-2.02-.33-.62-.76-1.12-1.29-1.51s-1.2-.58-1.98-.58c-.85,0-1.54.19-2.08.57-.54.38-.96.87-1.26,1.47-.31.61-.51,1.28-.62,2.02s-.16,1.47-.16,2.18c0,.66.06,1.35.18,2.06.12.71.33,1.36.64,1.96Z"/><path d="m144.06,278.83v-24.73h3.28v10.43c.41-1.03,1.09-1.82,2.03-2.37s1.93-.82,2.98-.82c1.25,0,2.29.25,3.15.74.85.49,1.54,1.15,2.08,1.97s.92,1.77,1.15,2.83c.23,1.06.34,2.17.34,3.31s-.12,2.25-.36,3.33c-.24,1.08-.63,2.04-1.18,2.88-.55.85-1.25,1.53-2.1,2.04-.85.51-1.9.77-3.15.77-1.14,0-2.15-.26-3.03-.79-.88-.53-1.59-1.34-2.11-2.44l-.07,2.85h-3.01Zm4.06-4.42c.33.62.76,1.13,1.29,1.54.54.41,1.2.62,1.98.62.83,0,1.51-.2,2.05-.6.53-.4.96-.91,1.26-1.53s.52-1.3.64-2.06c.12-.75.18-1.49.18-2.2s-.05-1.43-.16-2.16c-.11-.73-.32-1.4-.62-2.01-.31-.61-.72-1.1-1.25-1.47-.52-.38-1.21-.57-2.06-.57-.79,0-1.45.19-1.98.58s-.97.89-1.29,1.49c-.33.61-.56,1.27-.71,2.01-.14.73-.21,1.44-.21,2.13s.07,1.4.2,2.14c.13.74.36,1.44.69,2.08Z"/><path d="m165.67,271.01c0,.8.11,1.55.34,2.25.23.7.57,1.31,1.03,1.84.46.53,1.03.94,1.72,1.25.69.31,1.48.46,2.38.46.74,0,1.5-.09,2.28-.26.78-.17,1.49-.44,2.15-.81l.2,2.54c-.76.32-1.57.55-2.42.7-.85.15-1.74.22-2.65.22-1.38,0-2.59-.22-3.64-.65s-1.93-1.05-2.64-1.85c-.71-.8-1.24-1.75-1.59-2.85-.35-1.1-.52-2.32-.52-3.67,0-1.17.17-2.29.51-3.36.34-1.07.83-2.02,1.47-2.83.64-.81,1.43-1.46,2.36-1.94.93-.48,1.98-.72,3.16-.72,1.29,0,2.37.22,3.24.67s1.58,1.06,2.11,1.83c.53.78.92,1.69,1.15,2.74s.34,2.18.34,3.4v1.03h-10.98Zm7.83-2.13c0-.64-.05-1.27-.16-1.9s-.3-1.18-.57-1.66c-.27-.48-.64-.87-1.11-1.17-.47-.3-1.08-.45-1.82-.45-.7,0-1.31.15-1.82.46-.51.31-.95.71-1.29,1.2-.35.49-.61,1.05-.79,1.66-.17.62-.27,1.23-.29,1.85h7.86Z"/><path d="m179.28,283.73c.52.16,1.06.24,1.61.24.83,0,1.46-.29,1.88-.86.43-.57.81-1.44,1.16-2.61l.33-1.06-5.87-17.77h3.57l4,14.1,3.93-14.1h3.34l-6.26,19.45c-.22.66-.47,1.32-.75,1.97-.28.65-.63,1.24-1.05,1.77-.42.53-.92.95-1.52,1.27-.6.32-1.33.48-2.18.48-.9,0-1.69-.08-2.39-.24l.2-2.64Z"/><path d="m199.5,278.55c-1.51-.69-2.65-1.76-3.42-3.22-.78-1.46-1.16-3.18-1.16-5.14,0-1.3.19-2.5.57-3.58.38-1.09.92-2.02,1.62-2.8s1.55-1.38,2.54-1.82c.99-.43,2.1-.65,3.33-.65,1.29,0,2.43.21,3.44.63,1,.42,1.85,1.02,2.54,1.78.69.77,1.21,1.7,1.56,2.8.35,1.1.52,2.31.52,3.64s-.18,2.5-.52,3.6c-.35,1.1-.87,2.05-1.56,2.86s-1.54,1.44-2.54,1.89c-1.01.45-2.15.67-3.44.67s-2.49-.22-3.47-.65Zm-.03-3.98c.37.59.84,1.08,1.41,1.46.57.38,1.27.57,2.1.57s1.5-.19,2.08-.57c.58-.38,1.05-.86,1.41-1.46s.62-1.27.79-2.04c.16-.77.25-1.55.25-2.35,0-.75-.08-1.51-.23-2.26-.15-.75-.41-1.43-.77-2.02-.36-.59-.83-1.08-1.39-1.44-.57-.37-1.28-.55-2.13-.55s-1.53.18-2.1.55c-.57.37-1.03.85-1.39,1.46-.36.61-.62,1.28-.79,2.02-.16.74-.25,1.49-.25,2.25s.08,1.55.25,2.32c.16.77.42,1.46.77,2.08Z"/><path d="m215.09,278.83v-13.21c0-.66-.01-1.32-.03-1.97-.02-.65-.07-1.31-.13-1.97h3.08l.1,2.95c1.14-2.2,2.91-3.29,5.31-3.29,1,0,1.86.16,2.57.48s1.28.77,1.7,1.35.74,1.29.93,2.11.29,1.73.29,2.71v10.84h-3.31v-10.12c0-.59-.04-1.18-.11-1.75-.08-.57-.23-1.07-.46-1.51s-.56-.78-.98-1.05c-.43-.26-.99-.39-1.69-.39-.76,0-1.4.16-1.92.48-.51.32-.92.74-1.23,1.25-.31.51-.52,1.1-.66,1.75-.13.65-.2,1.32-.2,2.01v9.33h-3.28Z"/><path d="m245.12,278.83l-.2-2.85c-.5,1.1-1.2,1.91-2.1,2.44-.9.53-1.91.79-3.05.79-1.25,0-2.29-.26-3.15-.77-.85-.51-1.55-1.19-2.1-2.04-.55-.85-.94-1.81-1.18-2.88-.24-1.07-.36-2.18-.36-3.33s.12-2.25.36-3.31c.24-1.06.63-2.01,1.18-2.83.55-.82,1.25-1.48,2.1-1.97.85-.49,1.9-.74,3.15-.74,1.05,0,2.03.27,2.95.82.92.55,1.58,1.34,2,2.37v-10.43h3.28v19.59c0,.96.02,1.86.05,2.69.03.83.07,1.65.11,2.45h-3.05Zm-7.77-4.39c.31.62.73,1.13,1.26,1.53.54.4,1.22.6,2.05.6.79,0,1.45-.21,1.98-.62.54-.41.97-.93,1.29-1.54.33-.62.56-1.3.69-2.04.13-.74.2-1.46.2-2.14s-.07-1.39-.21-2.13c-.14-.73-.38-1.41-.71-2.02-.33-.62-.76-1.12-1.29-1.51-.54-.39-1.2-.58-1.98-.58-.85,0-1.54.19-2.06.57-.52.38-.94.87-1.25,1.47-.31.61-.51,1.28-.62,2.02s-.16,1.47-.16,2.18.06,1.44.18,2.18c.12.74.33,1.42.64,2.04Z"/></g></svg>