<?xml version="1.0" encoding="UTF-8"?>
<svg id="Ebene_1" xmlns="http://www.w3.org/2000/svg" version="1.1" viewBox="0 0 283.5 311.8">
  <!-- Generator: Adobe Illustrator 29.2.0, SVG Export Plug-In . SVG Version: 2.1.0 Build 108)  -->
  <defs>
    <style>
      .st0 {
        fill: #fff;
      }

      .st1 {
        fill: #0f2db3;
      }
    </style>
  </defs>
  <g>
    <path class="st1" d="M224.3,201c-25-11.3-52.8-17.6-82-17.6s-57,6.3-82,17.6V37h164v164Z"/>
    <g>
      <path class="st0" d="M79.8,87c-7.7,0-8.3,7.8-8.3,7.8h-3.7v-11.6h28.7s.2,8.9-8.3,18.4c0,0-8.1,9.4-8.3,13.5h4.7c6.7,0,7.4-7.8,7.4-7.8h3.8v11.6h-29.3s-1.1-8.8,9.1-19.5c0,0,6.3-7,7.7-12.5h-3.5Z"/>
      <path class="st0" d="M152.8,119v-3.8h-.9c-1.6,0-2.9-1.3-2.9-2.9v-22.4c0-1.6,1.3-2.9,2.9-2.9h.9v-3.8h-19v3.8h.9c1.6,0,2.9,1.3,2.9,2.9v22.4c0,1.6-1.3,2.9-2.9,2.9h-.9v3.8h19Z"/>
      <path class="st0" d="M129.9,119v-11.6h-3.8s-.7,7.8-7.4,7.8h-3.8v-12.2h1.4c1.6,0,2.9,1.3,2.9,2.9v1.4h3.8v-12.5h-3.8v1.4c0,1.6-1.3,2.9-2.9,2.9h-1.4v-12.2h3.8c6.7,0,7.4,7.8,7.4,7.8h3.8v-11.6h-30.2v3.8h.9c1.6,0,2.9,1.3,2.9,2.9v22.4c0,1.6-1.3,2.9-2.9,2.9h-.9v3.8h30.2s0,0,0,0Z"/>
      <path class="st0" d="M172.8,87c7.7,0,8.3,7.8,8.3,7.8h3.7v-11.6h-27.4s-4.3,5.7,7,18.4c0,0,8,9.4,8.3,13.5h-4.6c-6.7,0-7.4-7.8-7.4-7.8h-3.8v11.6h27.6s5-5.4-7.4-19.5c0,0-6.5-6.7-7.7-12.5h3.5s0,0,0,0Z"/>
      <path class="st0" d="M204.9,87c7.7,0,8.3,7.8,8.3,7.8h3.7v-11.6h-27.4s-4.3,5.7,7,18.4c0,0,8,9.4,8.3,13.5h-4.6c-6.7,0-7.4-7.8-7.4-7.8h-3.8v11.6h27.6s5-5.4-7.4-19.5c0,0-6.5-6.7-7.7-12.5h3.5s0,0,0,0Z"/>
    </g>
  </g>
  <g>
    <path d="M19.2,273.3c1,.5,2,.9,2.9,1.1,1,.2,2,.4,3.2.4s1.2,0,1.8-.2c.6-.2,1.1-.4,1.6-.8s.8-.8,1.1-1.4.4-1.2.4-2-.1-1.2-.4-1.6c-.2-.5-.6-.9-.9-1.2s-.9-.7-1.4-1-1.1-.6-1.7-.9l-2-1c-.6-.3-1.2-.7-1.7-1.1-.6-.4-1-.8-1.4-1.4s-.7-1.1-1-1.8c-.2-.7-.4-1.5-.4-2.4,0-1.3.2-2.4.7-3.4s1.1-1.7,1.9-2.3c.8-.6,1.7-1,2.7-1.3,1-.3,2-.4,3-.4,2.1,0,4,.3,5.7.8l-.2,3.5c-.8-.4-1.7-.6-2.6-.8-.9-.2-1.8-.3-2.7-.3s-1.1,0-1.6.2c-.5.1-1,.3-1.5.7-.4.3-.8.7-1.1,1.2s-.4,1.1-.4,1.8,0,1,.3,1.4c.2.4.5.8.8,1.1s.7.6,1.1.9.9.5,1.3.7l2.1,1c.8.4,1.5.8,2.1,1.2s1.2.9,1.7,1.4.9,1.2,1.1,1.9c.3.7.4,1.6.4,2.7s-.2,2.5-.7,3.5-1.1,1.8-1.9,2.4-1.7,1.1-2.8,1.4c-1.1.3-2.2.5-3.4.5s-2,0-3.2-.3c-1.1-.2-2.2-.4-3.3-.8l.2-3.7h0Z"/>
    <path d="M42.2,268.6c0,.9.1,1.8.4,2.6.3.8.7,1.5,1.2,2.1s1.2,1.1,2,1.4c.8.4,1.7.5,2.8.5s1.7-.1,2.6-.3,1.7-.5,2.5-.9l.2,2.9c-.9.4-1.8.6-2.8.8-1,.2-2,.3-3.1.3-1.6,0-3-.3-4.2-.8s-2.2-1.2-3.1-2.1c-.8-.9-1.4-2-1.8-3.3s-.6-2.7-.6-4.2.2-2.6.6-3.9c.4-1.2,1-2.3,1.7-3.3s1.7-1.7,2.7-2.2,2.3-.8,3.7-.8,2.7.3,3.7.8c1,.5,1.8,1.2,2.4,2.1s1.1,2,1.3,3.2.4,2.5.4,3.9v1.2h-12.7,0ZM51.2,266.1c0-.7,0-1.5-.2-2.2s-.3-1.4-.7-1.9-.7-1-1.3-1.4c-.5-.3-1.2-.5-2.1-.5s-1.5.2-2.1.5-1.1.8-1.5,1.4c-.4.6-.7,1.2-.9,1.9-.2.7-.3,1.4-.3,2.1h9.1,0Z"/>
    <path d="M62.4,268.6c0,.9.1,1.8.4,2.6.3.8.7,1.5,1.2,2.1s1.2,1.1,2,1.4,1.7.5,2.8.5,1.7-.1,2.6-.3,1.7-.5,2.5-.9l.2,2.9c-.9.4-1.8.6-2.8.8-1,.2-2,.3-3.1.3-1.6,0-3-.3-4.2-.8s-2.2-1.2-3.1-2.1c-.8-.9-1.4-2-1.8-3.3s-.6-2.7-.6-4.2.2-2.6.6-3.9c.4-1.2,1-2.3,1.7-3.3s1.7-1.7,2.7-2.2,2.3-.8,3.7-.8,2.7.3,3.7.8,1.8,1.2,2.4,2.1c.6.9,1.1,2,1.3,3.2s.4,2.5.4,3.9v1.2h-12.7ZM71.4,266.1c0-.7,0-1.5-.2-2.2s-.3-1.4-.7-1.9-.7-1-1.3-1.4c-.5-.3-1.2-.5-2.1-.5s-1.5.2-2.1.5-1.1.8-1.5,1.4c-.4.6-.7,1.2-.9,1.9-.2.7-.3,1.4-.3,2.1h9.1,0Z"/>
    <path d="M79.7,253.7v-3.9h3.8v3.9h-3.8ZM79.7,277.6v-19.8h3.8v19.8h-3.8Z"/>
    <path d="M89.3,277.6v-15.3c0-.8,0-1.5,0-2.3s0-1.5-.2-2.3h3.6v3.4c1.4-2.5,3.5-3.8,6.3-3.8s2.2.2,3,.6,1.5.9,2,1.6.9,1.5,1.1,2.4c.2.9.3,2,.3,3.1v12.5h-3.8v-11.7c0-.7,0-1.4-.1-2s-.3-1.2-.5-1.7c-.3-.5-.6-.9-1.1-1.2s-1.1-.5-2-.5-1.6.2-2.2.6c-.6.4-1.1.9-1.4,1.4-.4.6-.6,1.3-.8,2-.2.8-.2,1.5-.2,2.3v10.8h-3.8,0Z"/>
    <path d="M111.7,282.2c.8.5,1.7.8,2.7,1.1s2,.4,2.9.4,2-.2,2.8-.5c.8-.3,1.4-.8,1.9-1.4.5-.6.9-1.4,1.1-2.2.2-.9.3-1.8.3-2.9v-2.3c-.6,1.1-1.4,2-2.5,2.6s-2.2.9-3.4.9-2.6-.3-3.5-.9-1.8-1.3-2.4-2.3-1.1-2-1.3-3.2c-.3-1.2-.4-2.4-.4-3.7s.1-2.6.4-3.8.7-2.3,1.4-3.3c.6-.9,1.4-1.7,2.4-2.3,1-.6,2.2-.9,3.6-.9s2.5.3,3.5.9c1,.6,1.8,1.5,2.4,2.8v-3.3h3.6v18.7c0,3.3-.8,5.8-2.3,7.5s-3.9,2.6-7.1,2.6-2.2,0-3.2-.3-2.1-.5-3.2-.8l.2-3.4h0ZM114.9,272.3c.4.7.8,1.2,1.4,1.6.6.4,1.4.6,2.3.6s1.7-.2,2.3-.7c.6-.4,1.1-1,1.5-1.7.4-.7.6-1.4.8-2.2.2-.8.2-1.6.2-2.4s0-1.6-.2-2.5c-.2-.8-.4-1.6-.8-2.3-.4-.7-.9-1.3-1.5-1.7s-1.4-.7-2.3-.7-1.8.2-2.4.7-1.1,1-1.5,1.7c-.4.7-.6,1.5-.7,2.3s-.2,1.7-.2,2.5,0,1.6.2,2.4.4,1.6.7,2.3h0Z"/>
    <path d="M145,277.6v-28.6h3.8v12.1c.5-1.2,1.3-2.1,2.3-2.7s2.2-.9,3.4-.9,2.6.3,3.6.9c1,.6,1.8,1.3,2.4,2.3s1.1,2,1.3,3.3.4,2.5.4,3.8-.1,2.6-.4,3.9-.7,2.4-1.4,3.3c-.6,1-1.4,1.8-2.4,2.4s-2.2.9-3.6.9-2.5-.3-3.5-.9-1.8-1.6-2.4-2.8v3.3h-3.6,0ZM149.7,272.5c.4.7.9,1.3,1.5,1.8.6.5,1.4.7,2.3.7s1.7-.2,2.4-.7c.6-.5,1.1-1.1,1.5-1.8s.6-1.5.7-2.4c.1-.9.2-1.7.2-2.5s0-1.7-.2-2.5-.4-1.6-.7-2.3c-.4-.7-.8-1.3-1.4-1.7-.6-.4-1.4-.7-2.4-.7s-1.7.2-2.3.7-1.1,1-1.5,1.7c-.4.7-.6,1.5-.8,2.3-.2.8-.2,1.7-.2,2.5s0,1.6.2,2.5c.2.9.4,1.7.8,2.4h0Z"/>
    <path d="M170,268.6c0,.9.1,1.8.4,2.6s.7,1.5,1.2,2.1c.5.6,1.2,1.1,2,1.4s1.7.5,2.8.5,1.7-.1,2.6-.3,1.7-.5,2.5-.9l.2,2.9c-.9.4-1.8.6-2.8.8-1,.2-2,.3-3.1.3-1.6,0-3-.3-4.2-.8s-2.2-1.2-3.1-2.1c-.8-.9-1.4-2-1.8-3.3-.4-1.3-.6-2.7-.6-4.2s.2-2.6.6-3.9c.4-1.2,1-2.3,1.7-3.3s1.7-1.7,2.7-2.2c1.1-.6,2.3-.8,3.7-.8s2.7.3,3.7.8,1.8,1.2,2.4,2.1c.6.9,1.1,2,1.3,3.2s.4,2.5.4,3.9v1.2h-12.7ZM179.1,266.1c0-.7,0-1.5-.2-2.2s-.3-1.4-.7-1.9-.7-1-1.3-1.4c-.5-.3-1.2-.5-2.1-.5s-1.5.2-2.1.5c-.6.4-1.1.8-1.5,1.4-.4.6-.7,1.2-.9,1.9-.2.7-.3,1.4-.3,2.1h9.1,0Z"/>
    <path d="M185.8,283.3c.6.2,1.2.3,1.9.3,1,0,1.7-.3,2.2-1,.5-.7.9-1.7,1.3-3l.4-1.2-6.8-20.6h4.1l4.6,16.3,4.5-16.3h3.9l-7.2,22.5c-.3.8-.5,1.5-.9,2.3s-.7,1.4-1.2,2-1.1,1.1-1.8,1.5c-.7.4-1.5.6-2.5.6s-2,0-2.8-.3l.2-3.1h0Z"/>
    <path d="M209.2,277.3c-1.7-.8-3.1-2-4-3.7-.9-1.7-1.3-3.7-1.3-5.9s.2-2.9.7-4.1c.4-1.3,1.1-2.3,1.9-3.2s1.8-1.6,2.9-2.1c1.1-.5,2.4-.8,3.9-.8s2.8.2,4,.7c1.2.5,2.1,1.2,2.9,2.1.8.9,1.4,2,1.8,3.2.4,1.3.6,2.7.6,4.2s-.2,2.9-.6,4.2c-.4,1.3-1,2.4-1.8,3.3s-1.8,1.7-2.9,2.2c-1.2.5-2.5.8-4,.8s-2.9-.3-4-.8h0ZM209.1,272.7c.4.7,1,1.2,1.6,1.7s1.5.7,2.4.7,1.7-.2,2.4-.7,1.2-1,1.6-1.7.7-1.5.9-2.4c.2-.9.3-1.8.3-2.7s0-1.7-.3-2.6-.5-1.7-.9-2.3-1-1.2-1.6-1.7c-.7-.4-1.5-.6-2.5-.6s-1.8.2-2.4.6-1.2,1-1.6,1.7-.7,1.5-.9,2.3c-.2.9-.3,1.7-.3,2.6s0,1.8.3,2.7c.2.9.5,1.7.9,2.4h0Z"/>
    <path d="M227.2,277.6v-15.3c0-.8,0-1.5,0-2.3s0-1.5-.2-2.3h3.6v3.4c1.4-2.5,3.5-3.8,6.3-3.8s2.2.2,3,.6,1.5.9,2,1.6.9,1.5,1.1,2.4.3,2,.3,3.1v12.5h-3.8v-11.7c0-.7,0-1.4-.1-2,0-.7-.3-1.2-.5-1.7s-.6-.9-1.1-1.2c-.5-.3-1.1-.5-2-.5s-1.6.2-2.2.6c-.6.4-1.1.9-1.4,1.4s-.6,1.3-.8,2c-.2.8-.2,1.5-.2,2.3v10.8h-3.8,0Z"/>
    <path d="M261.9,277.6l-.2-3.3c-.6,1.3-1.4,2.2-2.4,2.8-1,.6-2.2.9-3.5.9s-2.6-.3-3.6-.9c-1-.6-1.8-1.4-2.4-2.4s-1.1-2.1-1.4-3.3c-.3-1.2-.4-2.5-.4-3.9s.1-2.6.4-3.8.7-2.3,1.4-3.3c.6-.9,1.4-1.7,2.4-2.3s2.2-.9,3.6-.9,2.3.3,3.4.9c1.1.6,1.8,1.6,2.3,2.7v-12.1h3.8v22.7c0,1.1,0,2.2,0,3.1,0,1,0,1.9.1,2.8h-3.5,0ZM252.9,272.5c.4.7.8,1.3,1.5,1.8.6.5,1.4.7,2.4.7s1.7-.2,2.3-.7c.6-.5,1.1-1.1,1.5-1.8.4-.7.6-1.5.8-2.4.2-.9.2-1.7.2-2.5s0-1.6-.2-2.5c-.2-.8-.4-1.6-.8-2.3-.4-.7-.9-1.3-1.5-1.7-.6-.5-1.4-.7-2.3-.7s-1.8.2-2.4.7-1.1,1-1.4,1.7c-.4.7-.6,1.5-.7,2.3s-.2,1.7-.2,2.5,0,1.7.2,2.5.4,1.6.7,2.4h0Z"/>
  </g>
</svg>