<?xml version="1.0" encoding="UTF-8"?>
<svg id="b" data-name="Logo" xmlns="http://www.w3.org/2000/svg" viewBox="0 0 868.11328125 1330.6953125">
  <path d="M600.4340820312,819.4130859375c21.2973632812-31.404296875,33.7529296875-69.2690429688,33.7529296875-109.9892578125v-221.8051757812l193.9262695312,345.2094726562h40v-421.6469726562h-40v339.9765625l-190.9868164062-339.9765625L868.11328125.0004882813V0h-45.87890625l-208.0473632812,370.345703125L406.140625,0h-45.8798828125l41.3828125,73.666015625c-4.6899414062-2.7143554688-9.5068359375-5.3774414062-14.458984375-7.9833984375C307.0732421875,23.5305175781,201.1215820312.234375,88.6870117187.0104980469V0H0v1330.6953125h40v-409.5224609375c17.4868164062,33.7702636719,40.2041015625,64.4833984375,67.763671875,91.5458984375,33.6997070312,33.0927734375,72.9404296875,59.0732421875,116.6323242188,77.220703125,45.2211914062,18.7822265625,93.2431640625,28.3056640625,142.7314453125,28.3056640625h50.61328125v212.4501953125h73.7045898438c62.986328125,0,122.2202148438-24.1318359375,166.7895507812-67.9501953125,10.9926757812-10.8076171875,20.7631835938-22.4970703125,29.2573242188-34.9008789062v102.8510742188h180.62109375v-40h-140.62109375v-172.34375h69.0385742188v-40h-69.0385742188v-66.2666015625h140.59765625v-40h-178.3569335938c-9.0034179688-13.6520996094-19.521484375-26.4775390625-31.498046875-38.251953125-31.0776367188-30.5544433594-69.2895507812-51.5224609375-110.9272460938-61.4260253906,20.9096679688-14.1037597656,38.9711914062-32.1213378906,53.1264648438-52.9938964844ZM40,40h47.0546875c106.669921875,0,206.6435546875,21.6923828125,281.50390625,61.08203125,28.134765625,14.8034667969,51.3120117188,31.3959960938,69.1821289062,49.4660644531,4.572265625,4.623046875,8.814453125,9.3381347656,12.6831054688,14.1501464844,4.6430664062,5.7763671875,8.7114257812,11.62109375,12.2026367188,17.5239257812l2.6958007812,4.7985839844c8.6391601562,16.1254882812,13.009765625,32.6560058594,13.009765625,49.3806152344,0,24.541015625-9.3896484375,48.666015625-27.908203125,71.703125-3.8686523438,4.8120117188-8.1108398438,9.5270996094-12.6831054688,14.1501464844-17.8701171875,18.0700683594-41.0473632812,34.6625976562-69.1821289062,49.4660644531-27.744140625,14.5981445312-58.9438476562,26.7587890625-92.6489257812,36.2922363281-3.9184570312.9865722656-7.8154296875,2.0581054688-11.701171875,3.1740722656-54.2661132812,14.134765625-114.5522460938,21.6157226562-177.1538085938,21.6157226562h-47.0546875V40ZM40,472.802734375h47.0590820312c19.359375,0,38.5229492188-.7006835938,57.4052734375-2.0478515625-12.8540039062,9.6682128906-25.1127929688,20.1850585938-36.7006835938,31.564453125-27.5595703125,27.0634765625-50.2768554687,57.7758789062-67.763671875,91.5463867188v-121.0629882812ZM417.7407226562,1078.2451171875h-50.61328125c-87.4077148438,0-169.5654296875-33.40625-231.337890625-94.06640625-61.6748046875-60.5634765625-95.640625-141.0595703125-95.640625-226.6591796875,0-85.6005859375,33.9658203125-166.0966796875,95.640625-226.66015625,39.2631835938-38.5551757812,86.7685546875-66.0805664062,138.6157226562-81.0358886719,3.8276367188-.9975585938,7.6357421875-2.0178222656,11.4086914062-3.0776367188,28.9262695312-8.1252441406,56.1938476562-18.080078125,81.3134765625-29.7351074219,6.84375-3.1752929688,13.5444335938-6.4638671875,20.0571289062-9.890625,18.7529296875-9.8671875,35.6333007812-20.529296875,50.5561523438-31.8608398438,39.748046875-30.1823730469,65.5825195312-65.1259765625,75.7280273438-102.5329589844l80.7182617188,143.6879882812v174.3405761719c-35.91015625-47.23046875-92.6733398438-77.7858886719-156.4462890625-77.7897949219-.00390625,0-.0083007812-.0002441406-.0122070312-.0002441406-108.3276367188,0-196.458984375,88.130859375-196.458984375,196.458984375,0,101.5805664062,77.49609375,185.4016113281,176.4711914062,195.4482421875v173.373046875ZM687.4921875,1098.2890625c0,106.0927734375-87.9462890625,192.40625-196.046875,192.40625h-33.7045898438v-384.8134765625h33.7045898438c108.1005859375,0,196.046875,86.3134765625,196.046875,192.4072265625ZM437.7407226562,865.8815917969c-.00390625,0-.0083007812.0002441406-.0122070312.0002441406-86.271484375,0-156.458984375-70.1865234375-156.458984375-156.4580078125s70.1875-156.458984375,156.458984375-156.458984375c.00390625,0,.0083007812.0002441406.0122070312.0002441406,86.2661132812.0065917969,156.4462890625,70.19140625,156.4462890625,156.4587402344s-70.1801757812,156.451171875-156.4462890625,156.4577636719Z"/>
</svg>